# Blender 4.2.1 LTS
# www.blender.org
mtllib abstract-shape-028.mtl
o sphere
v -1.000000 -1.000000 1.000000
v -1.000000 1.000000 1.000000
v -1.000000 -1.000000 -1.000000
v -1.000000 1.000000 -1.000000
v 1.000000 -1.000000 1.000000
v 1.000000 1.000000 1.000000
v 1.000000 -1.000000 -1.000000
v 1.000000 1.000000 -1.000000
v -1.072709 -1.072709 -0.835817
v -1.131999 -1.131999 -0.661178
v -1.177128 -1.177128 -0.478268
v -1.207531 -1.207531 -0.289375
v -1.222828 -1.222828 -0.096862
v -1.222828 -1.222828 0.096862
v -1.207531 -1.207531 0.289375
v -1.177128 -1.177128 0.478268
v -1.131999 -1.131999 0.661178
v -1.072709 -1.072709 0.835817
v -1.072709 -0.835817 1.072709
v -1.131999 -0.661178 1.131999
v -1.177128 -0.478268 1.177128
v -1.207531 -0.289375 1.207531
v -1.222828 -0.096862 1.222828
v -1.222828 0.096862 1.222828
v -1.207531 0.289375 1.207531
v -1.177128 0.478268 1.177128
v -1.131999 0.661178 1.131999
v -1.072709 0.835817 1.072709
v -1.072709 1.072709 0.835817
v -1.131999 1.131999 0.661178
v -1.177128 1.177128 0.478268
v -1.207531 1.207531 0.289375
v -1.222828 1.222828 0.096862
v -1.222828 1.222828 -0.096862
v -1.207531 1.207531 -0.289375
v -1.177128 1.177128 -0.478268
v -1.131999 1.131999 -0.661178
v -1.072709 1.072709 -0.835817
v -1.072709 0.835817 -1.072709
v -1.131999 0.661178 -1.131999
v -1.177128 0.478268 -1.177128
v -1.207531 0.289375 -1.207531
v -1.222828 0.096862 -1.222828
v -1.222828 -0.096862 -1.222828
v -1.207531 -0.289375 -1.207531
v -1.177128 -0.478268 -1.177128
v -1.131999 -0.661178 -1.131999
v -1.072709 -0.835817 -1.072709
v 0.835817 -1.072709 -1.072709
v 0.661178 -1.131999 -1.131999
v 0.478268 -1.177128 -1.177128
v 0.289375 -1.207531 -1.207531
v 0.096862 -1.222828 -1.222828
v -0.096862 -1.222828 -1.222828
v -0.289375 -1.207531 -1.207531
v -0.478268 -1.177128 -1.177128
v -0.661178 -1.131999 -1.131999
v -0.835817 -1.072709 -1.072709
v -0.835817 1.072709 -1.072709
v -0.661178 1.131999 -1.131999
v -0.478268 1.177128 -1.177128
v -0.289375 1.207531 -1.207531
v -0.096862 1.222828 -1.222828
v 0.096862 1.222828 -1.222828
v 0.289375 1.207531 -1.207531
v 0.478268 1.177128 -1.177128
v 0.661178 1.131999 -1.131999
v 0.835817 1.072709 -1.072709
v 1.072709 0.835817 -1.072709
v 1.131999 0.661178 -1.131999
v 1.177128 0.478268 -1.177128
v 1.207531 0.289375 -1.207531
v 1.222828 0.096862 -1.222828
v 1.222828 -0.096862 -1.222828
v 1.207531 -0.289375 -1.207531
v 1.177128 -0.478268 -1.177128
v 1.131999 -0.661178 -1.131999
v 1.072709 -0.835817 -1.072709
v 1.072709 -1.072709 0.835817
v 1.131999 -1.131999 0.661178
v 1.177128 -1.177128 0.478268
v 1.207531 -1.207531 0.289375
v 1.222828 -1.222828 0.096862
v 1.222828 -1.222828 -0.096862
v 1.207531 -1.207531 -0.289375
v 1.177128 -1.177128 -0.478268
v 1.131999 -1.131999 -0.661178
v 1.072709 -1.072709 -0.835817
v 1.072709 1.072709 -0.835817
v 1.131999 1.131999 -0.661178
v 1.177128 1.177128 -0.478268
v 1.207531 1.207531 -0.289375
v 1.222828 1.222828 -0.096862
v 1.222828 1.222828 0.096862
v 1.207531 1.207531 0.289375
v 1.177128 1.177128 0.478268
v 1.131999 1.131999 0.661178
v 1.072709 1.072709 0.835817
v 1.072709 0.835817 1.072709
v 1.131999 0.661178 1.131999
v 1.177128 0.478268 1.177128
v 1.207531 0.289375 1.207531
v 1.222828 0.096862 1.222828
v 1.222828 -0.096862 1.222828
v 1.207531 -0.289375 1.207531
v 1.177128 -0.478268 1.177128
v 1.131999 -0.661178 1.131999
v 1.072709 -0.835817 1.072709
v -0.835817 -1.072709 1.072709
v -0.661178 -1.131999 1.131999
v -0.478268 -1.177128 1.177128
v -0.289375 -1.207531 1.207531
v -0.096862 -1.222828 1.222828
v 0.096862 -1.222828 1.222828
v 0.289375 -1.207531 1.207531
v 0.478268 -1.177128 1.177128
v 0.661178 -1.131999 1.131999
v 0.835817 -1.072709 1.072709
v 0.835817 1.072709 1.072709
v 0.661178 1.131999 1.131999
v 0.478268 1.177128 1.177128
v 0.289375 1.207531 1.207531
v 0.096862 1.222828 1.222828
v -0.096862 1.222828 1.222828
v -0.289375 1.207531 1.207531
v -0.478268 1.177128 1.177128
v -0.661178 1.131999 1.131999
v -0.835817 1.072709 1.072709
v 0.910685 1.164214 -0.899440
v 0.971908 1.239042 -0.713287
v 1.018609 1.296122 -0.516917
v 1.050120 1.334635 -0.313142
v 1.065989 1.354031 -0.104881
v 1.065989 1.354031 0.104881
v 1.050120 1.334635 0.313142
v 1.018609 1.296122 0.516917
v 0.971907 1.239042 0.713287
v 0.910684 1.164214 0.899440
v 0.732567 1.244181 -0.952318
v 0.791118 1.336190 -0.757196
v 0.835883 1.406536 -0.549798
v 0.866136 1.454075 -0.333485
v 0.881386 1.478040 -0.111766
v 0.881386 1.478040 0.111766
v 0.866136 1.454075 0.333485
v 0.835883 1.406535 0.549798
v 0.791118 1.336190 0.757196
v 0.732567 1.244181 0.952318
v 0.538661 1.309992 -0.993432
v 0.588334 1.419272 -0.791852
v 0.626393 1.503001 -0.576016
v 0.652153 1.559673 -0.349810
v 0.665149 1.588266 -0.117307
v 0.665150 1.588266 0.117308
v 0.652153 1.559673 0.349811
v 0.626393 1.503002 0.576016
v 0.588334 1.419272 0.791852
v 0.538661 1.309992 0.993432
v 0.330365 1.357827 -1.021708
v 0.364157 1.481729 -0.816024
v 0.390092 1.576825 -0.594476
v 0.407668 1.641269 -0.361372
v 0.416542 1.673808 -0.121243
v 0.416542 1.673808 0.121243
v 0.407668 1.641269 0.361372
v 0.390092 1.576825 0.594476
v 0.364157 1.481729 0.816024
v 0.330365 1.357828 1.021708
v 0.111451 1.383307 -1.036157
v 0.123494 1.515774 -0.828503
v 0.132746 1.617545 -0.604071
v 0.139020 1.686559 -0.367406
v 0.142189 1.721419 -0.123301
v 0.142189 1.721419 0.123301
v 0.139020 1.686559 0.367406
v 0.132746 1.617545 0.604071
v 0.123494 1.515774 0.828503
v 0.111451 1.383307 1.036157
v -0.111451 1.383307 -1.036157
v -0.123494 1.515774 -0.828503
v -0.132746 1.617545 -0.604071
v -0.139020 1.686559 -0.367406
v -0.142189 1.721419 -0.123301
v -0.142189 1.721419 0.123301
v -0.139020 1.686559 0.367406
v -0.132746 1.617545 0.604071
v -0.123494 1.515774 0.828503
v -0.111451 1.383308 1.036157
v -0.330365 1.357827 -1.021708
v -0.364157 1.481729 -0.816024
v -0.390092 1.576825 -0.594476
v -0.407668 1.641269 -0.361372
v -0.416542 1.673808 -0.121243
v -0.416542 1.673808 0.121243
v -0.407668 1.641269 0.361372
v -0.390092 1.576825 0.594476
v -0.364157 1.481729 0.816024
v -0.330365 1.357828 1.021708
v -0.538661 1.309992 -0.993432
v -0.588334 1.419272 -0.791852
v -0.626393 1.503002 -0.576016
v -0.652153 1.559673 -0.349811
v -0.665149 1.588266 -0.117307
v -0.665149 1.588266 0.117307
v -0.652153 1.559673 0.349810
v -0.626393 1.503001 0.576016
v -0.588334 1.419272 0.791852
v -0.538661 1.309992 0.993432
v -0.732567 1.244181 -0.952318
v -0.791118 1.336190 -0.757196
v -0.835883 1.406536 -0.549798
v -0.866136 1.454075 -0.333485
v -0.881386 1.478040 -0.111766
v -0.881386 1.478040 0.111766
v -0.866136 1.454075 0.333485
v -0.835883 1.406535 0.549798
v -0.791118 1.336190 0.757196
v -0.732567 1.244181 0.952318
v -0.910684 1.164214 -0.899440
v -0.971907 1.239042 -0.713287
v -1.018609 1.296122 -0.516917
v -1.050120 1.334635 -0.313142
v -1.065989 1.354031 -0.104881
v -1.065989 1.354031 0.104881
v -1.050120 1.334635 0.313142
v -1.018609 1.296122 0.516917
v -0.971908 1.239042 0.713287
v -0.910685 1.164214 0.899440
v -0.910685 -1.164214 -0.899440
v -0.971908 -1.239042 -0.713287
v -1.018609 -1.296122 -0.516917
v -1.050120 -1.334635 -0.313142
v -1.065989 -1.354031 -0.104881
v -1.065989 -1.354031 0.104881
v -1.050120 -1.334635 0.313142
v -1.018609 -1.296122 0.516917
v -0.971907 -1.239042 0.713287
v -0.910684 -1.164214 0.899440
v -0.732567 -1.244181 -0.952318
v -0.791118 -1.336190 -0.757196
v -0.835883 -1.406536 -0.549798
v -0.866136 -1.454075 -0.333485
v -0.881386 -1.478040 -0.111766
v -0.881386 -1.478040 0.111766
v -0.866136 -1.454075 0.333485
v -0.835883 -1.406535 0.549798
v -0.791118 -1.336190 0.757196
v -0.732567 -1.244181 0.952318
v -0.538661 -1.309992 -0.993432
v -0.588334 -1.419272 -0.791852
v -0.626393 -1.503001 -0.576016
v -0.652153 -1.559673 -0.349810
v -0.665149 -1.588266 -0.117307
v -0.665150 -1.588266 0.117308
v -0.652153 -1.559673 0.349811
v -0.626393 -1.503002 0.576016
v -0.588334 -1.419272 0.791852
v -0.538661 -1.309992 0.993432
v -0.330365 -1.357827 -1.021708
v -0.364157 -1.481729 -0.816024
v -0.390092 -1.576825 -0.594476
v -0.407668 -1.641269 -0.361372
v -0.416542 -1.673808 -0.121243
v -0.416542 -1.673808 0.121243
v -0.407668 -1.641269 0.361372
v -0.390092 -1.576825 0.594476
v -0.364157 -1.481729 0.816024
v -0.330365 -1.357828 1.021708
v -0.111451 -1.383307 -1.036157
v -0.123494 -1.515774 -0.828503
v -0.132746 -1.617545 -0.604071
v -0.139020 -1.686559 -0.367406
v -0.142189 -1.721419 -0.123301
v -0.142189 -1.721419 0.123301
v -0.139020 -1.686559 0.367406
v -0.132746 -1.617545 0.604071
v -0.123494 -1.515774 0.828503
v -0.111451 -1.383307 1.036157
v 0.111451 -1.383307 -1.036157
v 0.123494 -1.515774 -0.828503
v 0.132746 -1.617545 -0.604071
v 0.139020 -1.686559 -0.367406
v 0.142189 -1.721419 -0.123301
v 0.142189 -1.721419 0.123301
v 0.139020 -1.686559 0.367406
v 0.132746 -1.617545 0.604071
v 0.123494 -1.515774 0.828503
v 0.111451 -1.383308 1.036157
v 0.330365 -1.357827 -1.021708
v 0.364157 -1.481729 -0.816024
v 0.390092 -1.576825 -0.594476
v 0.407668 -1.641269 -0.361372
v 0.416542 -1.673808 -0.121243
v 0.416542 -1.673808 0.121243
v 0.407668 -1.641269 0.361372
v 0.390092 -1.576825 0.594476
v 0.364157 -1.481729 0.816024
v 0.330365 -1.357828 1.021708
v 0.538661 -1.309992 -0.993432
v 0.588334 -1.419272 -0.791852
v 0.626393 -1.503002 -0.576016
v 0.652153 -1.559673 -0.349811
v 0.665149 -1.588266 -0.117307
v 0.665149 -1.588266 0.117307
v 0.652153 -1.559673 0.349810
v 0.626393 -1.503001 0.576016
v 0.588334 -1.419272 0.791852
v 0.538661 -1.309992 0.993432
v 0.732567 -1.244181 -0.952318
v 0.791118 -1.336190 -0.757196
v 0.835883 -1.406536 -0.549798
v 0.866136 -1.454075 -0.333485
v 0.881386 -1.478040 -0.111766
v 0.881386 -1.478040 0.111766
v 0.866136 -1.454075 0.333485
v 0.835883 -1.406535 0.549798
v 0.791118 -1.336190 0.757196
v 0.732567 -1.244181 0.952318
v 0.910684 -1.164214 -0.899440
v 0.971907 -1.239042 -0.713287
v 1.018609 -1.296122 -0.516917
v 1.050120 -1.334635 -0.313142
v 1.065989 -1.354031 -0.104881
v 1.065989 -1.354031 0.104881
v 1.050120 -1.334635 0.313142
v 1.018609 -1.296122 0.516917
v 0.971908 -1.239042 0.713287
v 0.910685 -1.164214 0.899440
v 0.899440 -0.910685 1.164214
v 0.713287 -0.971908 1.239042
v 0.516917 -1.018609 1.296122
v 0.313142 -1.050120 1.334635
v 0.104881 -1.065989 1.354031
v -0.104881 -1.065989 1.354031
v -0.313142 -1.050120 1.334635
v -0.516917 -1.018609 1.296122
v -0.713287 -0.971907 1.239042
v -0.899440 -0.910684 1.164214
v 0.952318 -0.732567 1.244181
v 0.757196 -0.791118 1.336190
v 0.549798 -0.835883 1.406536
v 0.333485 -0.866136 1.454075
v 0.111766 -0.881386 1.478040
v -0.111766 -0.881386 1.478040
v -0.333485 -0.866136 1.454075
v -0.549798 -0.835883 1.406535
v -0.757196 -0.791118 1.336190
v -0.952318 -0.732567 1.244181
v 0.993432 -0.538661 1.309992
v 0.791852 -0.588334 1.419272
v 0.576016 -0.626393 1.503001
v 0.349810 -0.652153 1.559673
v 0.117307 -0.665149 1.588266
v -0.117308 -0.665150 1.588266
v -0.349811 -0.652153 1.559673
v -0.576016 -0.626393 1.503002
v -0.791852 -0.588334 1.419272
v -0.993432 -0.538661 1.309992
v 1.021708 -0.330365 1.357827
v 0.816024 -0.364157 1.481729
v 0.594476 -0.390092 1.576825
v 0.361372 -0.407668 1.641269
v 0.121243 -0.416542 1.673808
v -0.121243 -0.416542 1.673808
v -0.361372 -0.407668 1.641269
v -0.594476 -0.390092 1.576825
v -0.816024 -0.364157 1.481729
v -1.021708 -0.330365 1.357828
v 1.036157 -0.111451 1.383307
v 0.828503 -0.123494 1.515774
v 0.604071 -0.132746 1.617545
v 0.367406 -0.139020 1.686559
v 0.123301 -0.142189 1.721419
v -0.123301 -0.142189 1.721419
v -0.367406 -0.139020 1.686559
v -0.604071 -0.132746 1.617545
v -0.828503 -0.123494 1.515774
v -1.036157 -0.111451 1.383308
v 1.036157 0.111451 1.383307
v 0.828503 0.123494 1.515774
v 0.604071 0.132746 1.617545
v 0.367406 0.139020 1.686559
v 0.123301 0.142189 1.721419
v -0.123301 0.142189 1.721419
v -0.367406 0.139020 1.686559
v -0.604071 0.132746 1.617545
v -0.828503 0.123494 1.515774
v -1.036157 0.111451 1.383308
v 1.021708 0.330365 1.357827
v 0.816024 0.364157 1.481729
v 0.594476 0.390092 1.576825
v 0.361372 0.407668 1.641269
v 0.121243 0.416542 1.673808
v -0.121243 0.416542 1.673808
v -0.361372 0.407668 1.641269
v -0.594476 0.390092 1.576825
v -0.816024 0.364157 1.481729
v -1.021708 0.330365 1.357828
v 0.993432 0.538661 1.309992
v 0.791852 0.588334 1.419272
v 0.576016 0.626393 1.503002
v 0.349811 0.652153 1.559673
v 0.117308 0.665149 1.588266
v -0.117307 0.665149 1.588266
v -0.349810 0.652153 1.559673
v -0.576016 0.626393 1.503001
v -0.791852 0.588334 1.419272
v -0.993432 0.538661 1.309992
v 0.952318 0.732567 1.244181
v 0.757196 0.791118 1.336190
v 0.549798 0.835883 1.406536
v 0.333485 0.866136 1.454075
v 0.111766 0.881386 1.478040
v -0.111766 0.881386 1.478040
v -0.333485 0.866136 1.454075
v -0.549798 0.835883 1.406535
v -0.757196 0.791118 1.336190
v -0.952318 0.732567 1.244181
v 0.899440 0.910684 1.164214
v 0.713287 0.971907 1.239042
v 0.516917 1.018609 1.296122
v 0.313142 1.050120 1.334635
v 0.104881 1.065989 1.354031
v -0.104881 1.065989 1.354031
v -0.313142 1.050120 1.334635
v -0.516917 1.018609 1.296122
v -0.713287 0.971908 1.239042
v -0.899440 0.910685 1.164214
v 1.164214 -0.910685 -0.899440
v 1.239042 -0.971907 -0.713287
v 1.296122 -1.018609 -0.516917
v 1.334635 -1.050120 -0.313142
v 1.354030 -1.065989 -0.104881
v 1.354031 -1.065989 0.104882
v 1.334635 -1.050120 0.313142
v 1.296122 -1.018609 0.516917
v 1.239042 -0.971907 0.713287
v 1.164214 -0.910685 0.899440
v 1.244181 -0.732567 -0.952318
v 1.336190 -0.791118 -0.757196
v 1.406536 -0.835883 -0.549798
v 1.454075 -0.866136 -0.333485
v 1.478040 -0.881386 -0.111766
v 1.478040 -0.881386 0.111766
v 1.454075 -0.866136 0.333485
v 1.406535 -0.835883 0.549798
v 1.336190 -0.791118 0.757196
v 1.244181 -0.732567 0.952318
v 1.309991 -0.538661 -0.993432
v 1.419272 -0.588334 -0.791852
v 1.503001 -0.626393 -0.576016
v 1.559673 -0.652153 -0.349810
v 1.588266 -0.665149 -0.117307
v 1.588266 -0.665149 0.117307
v 1.559673 -0.652153 0.349810
v 1.503001 -0.626393 0.576016
v 1.419272 -0.588334 0.791852
v 1.309991 -0.538661 0.993432
v 1.357827 -0.330365 -1.021708
v 1.481729 -0.364157 -0.816024
v 1.576825 -0.390092 -0.594476
v 1.641269 -0.407668 -0.361372
v 1.673808 -0.416542 -0.121243
v 1.673808 -0.416542 0.121243
v 1.641269 -0.407668 0.361372
v 1.576825 -0.390092 0.594476
v 1.481729 -0.364157 0.816024
v 1.357828 -0.330365 1.021708
v 1.383307 -0.111451 -1.036157
v 1.515774 -0.123494 -0.828503
v 1.617545 -0.132746 -0.604071
v 1.686559 -0.139020 -0.367406
v 1.721419 -0.142189 -0.123301
v 1.721419 -0.142189 0.123301
v 1.686559 -0.139020 0.367406
v 1.617544 -0.132746 0.604071
v 1.515774 -0.123494 0.828503
v 1.383307 -0.111451 1.036157
v 1.383307 0.111451 -1.036157
v 1.515774 0.123494 -0.828503
v 1.617545 0.132746 -0.604071
v 1.686558 0.139020 -0.367406
v 1.721419 0.142189 -0.123301
v 1.721419 0.142189 0.123301
v 1.686558 0.139020 0.367406
v 1.617544 0.132746 0.604071
v 1.515774 0.123494 0.828503
v 1.383307 0.111451 1.036157
v 1.357827 0.330365 -1.021708
v 1.481729 0.364157 -0.816024
v 1.576825 0.390092 -0.594476
v 1.641269 0.407668 -0.361372
v 1.673808 0.416542 -0.121243
v 1.673808 0.416542 0.121243
v 1.641269 0.407668 0.361372
v 1.576825 0.390092 0.594476
v 1.481729 0.364157 0.816024
v 1.357828 0.330365 1.021708
v 1.309992 0.538661 -0.993432
v 1.419272 0.588334 -0.791852
v 1.503002 0.626393 -0.576016
v 1.559673 0.652153 -0.349811
v 1.588266 0.665149 -0.117307
v 1.588266 0.665150 0.117308
v 1.559673 0.652153 0.349811
v 1.503002 0.626393 0.576016
v 1.419272 0.588334 0.791852
v 1.309992 0.538661 0.993432
v 1.244181 0.732567 -0.952318
v 1.336190 0.791118 -0.757196
v 1.406536 0.835883 -0.549798
v 1.454075 0.866136 -0.333485
v 1.478040 0.881386 -0.111766
v 1.478040 0.881386 0.111766
v 1.454075 0.866136 0.333485
v 1.406535 0.835883 0.549798
v 1.336190 0.791118 0.757196
v 1.244181 0.732567 0.952318
v 1.164214 0.910684 -0.899440
v 1.239042 0.971907 -0.713287
v 1.296121 1.018609 -0.516917
v 1.334635 1.050120 -0.313142
v 1.354030 1.065989 -0.104881
v 1.354030 1.065989 0.104881
v 1.334635 1.050120 0.313142
v 1.296121 1.018609 0.516917
v 1.239042 0.971907 0.713287
v 1.164214 0.910684 0.899440
v -0.899440 -0.910685 -1.164214
v -0.713287 -0.971907 -1.239042
v -0.516917 -1.018609 -1.296122
v -0.313142 -1.050120 -1.334635
v -0.104881 -1.065989 -1.354030
v 0.104882 -1.065989 -1.354031
v 0.313142 -1.050120 -1.334635
v 0.516917 -1.018609 -1.296122
v 0.713287 -0.971907 -1.239042
v 0.899440 -0.910685 -1.164214
v -0.952318 -0.732567 -1.244181
v -0.757196 -0.791118 -1.336190
v -0.549798 -0.835883 -1.406536
v -0.333485 -0.866136 -1.454075
v -0.111766 -0.881386 -1.478040
v 0.111766 -0.881386 -1.478040
v 0.333485 -0.866136 -1.454075
v 0.549798 -0.835883 -1.406535
v 0.757196 -0.791118 -1.336190
v 0.952318 -0.732567 -1.244181
v -0.993432 -0.538661 -1.309991
v -0.791852 -0.588334 -1.419272
v -0.576016 -0.626393 -1.503001
v -0.349810 -0.652153 -1.559673
v -0.117307 -0.665149 -1.588266
v 0.117307 -0.665149 -1.588266
v 0.349810 -0.652153 -1.559673
v 0.576016 -0.626393 -1.503001
v 0.791852 -0.588334 -1.419272
v 0.993432 -0.538661 -1.309991
v -1.021708 -0.330365 -1.357827
v -0.816024 -0.364157 -1.481729
v -0.594476 -0.390092 -1.576825
v -0.361372 -0.407668 -1.641269
v -0.121243 -0.416542 -1.673808
v 0.121243 -0.416542 -1.673808
v 0.361372 -0.407668 -1.641269
v 0.594476 -0.390092 -1.576825
v 0.816024 -0.364157 -1.481729
v 1.021708 -0.330365 -1.357828
v -1.036157 -0.111451 -1.383307
v -0.828503 -0.123494 -1.515774
v -0.604071 -0.132746 -1.617545
v -0.367406 -0.139020 -1.686559
v -0.123301 -0.142189 -1.721419
v 0.123301 -0.142189 -1.721419
v 0.367406 -0.139020 -1.686559
v 0.604071 -0.132746 -1.617544
v 0.828503 -0.123494 -1.515774
v 1.036157 -0.111451 -1.383307
v -1.036157 0.111451 -1.383307
v -0.828503 0.123494 -1.515774
v -0.604071 0.132746 -1.617545
v -0.367406 0.139020 -1.686558
v -0.123301 0.142189 -1.721419
v 0.123301 0.142189 -1.721419
v 0.367406 0.139020 -1.686558
v 0.604071 0.132746 -1.617544
v 0.828503 0.123494 -1.515774
v 1.036157 0.111451 -1.383307
v -1.021708 0.330365 -1.357827
v -0.816024 0.364157 -1.481729
v -0.594476 0.390092 -1.576825
v -0.361372 0.407668 -1.641269
v -0.121243 0.416542 -1.673808
v 0.121243 0.416542 -1.673808
v 0.361372 0.407668 -1.641269
v 0.594476 0.390092 -1.576825
v 0.816024 0.364157 -1.481729
v 1.021708 0.330365 -1.357828
v -0.993432 0.538661 -1.309992
v -0.791852 0.588334 -1.419272
v -0.576016 0.626393 -1.503002
v -0.349811 0.652153 -1.559673
v -0.117307 0.665149 -1.588266
v 0.117308 0.665150 -1.588266
v 0.349811 0.652153 -1.559673
v 0.576016 0.626393 -1.503002
v 0.791852 0.588334 -1.419272
v 0.993432 0.538661 -1.309992
v -0.952318 0.732567 -1.244181
v -0.757196 0.791118 -1.336190
v -0.549798 0.835883 -1.406536
v -0.333485 0.866136 -1.454075
v -0.111766 0.881386 -1.478040
v 0.111766 0.881386 -1.478040
v 0.333485 0.866136 -1.454075
v 0.549798 0.835883 -1.406535
v 0.757196 0.791118 -1.336190
v 0.952318 0.732567 -1.244181
v -0.899440 0.910684 -1.164214
v -0.713287 0.971907 -1.239042
v -0.516917 1.018609 -1.296121
v -0.313142 1.050120 -1.334635
v -0.104881 1.065989 -1.354030
v 0.104881 1.065989 -1.354030
v 0.313142 1.050120 -1.334635
v 0.516917 1.018609 -1.296121
v 0.713287 0.971907 -1.239042
v 0.899440 0.910684 -1.164214
v -1.164214 -0.910684 0.899440
v -1.239042 -0.971907 0.713287
v -1.296122 -1.018609 0.516917
v -1.334635 -1.050120 0.313142
v -1.354031 -1.065989 0.104881
v -1.354031 -1.065989 -0.104881
v -1.334635 -1.050120 -0.313142
v -1.296122 -1.018609 -0.516917
v -1.239042 -0.971908 -0.713287
v -1.164214 -0.910685 -0.899440
v -1.244181 -0.732567 0.952318
v -1.336190 -0.791118 0.757196
v -1.406536 -0.835883 0.549798
v -1.454075 -0.866136 0.333485
v -1.478040 -0.881386 0.111766
v -1.478040 -0.881386 -0.111766
v -1.454075 -0.866136 -0.333485
v -1.406535 -0.835883 -0.549798
v -1.336190 -0.791118 -0.757196
v -1.244181 -0.732567 -0.952318
v -1.309992 -0.538661 0.993432
v -1.419272 -0.588334 0.791852
v -1.503002 -0.626393 0.576016
v -1.559673 -0.652153 0.349811
v -1.588266 -0.665149 0.117308
v -1.588266 -0.665149 -0.117307
v -1.559673 -0.652153 -0.349810
v -1.503001 -0.626393 -0.576016
v -1.419272 -0.588334 -0.791852
v -1.309992 -0.538661 -0.993432
v -1.357827 -0.330365 1.021708
v -1.481729 -0.364157 0.816024
v -1.576825 -0.390092 0.594476
v -1.641269 -0.407668 0.361372
v -1.673808 -0.416542 0.121243
v -1.673808 -0.416542 -0.121243
v -1.641269 -0.407668 -0.361372
v -1.576825 -0.390092 -0.594476
v -1.481729 -0.364157 -0.816024
v -1.357828 -0.330365 -1.021708
v -1.383307 -0.111451 1.036157
v -1.515774 -0.123494 0.828503
v -1.617545 -0.132746 0.604071
v -1.686559 -0.139020 0.367406
v -1.721419 -0.142189 0.123301
v -1.721419 -0.142189 -0.123301
v -1.686559 -0.139020 -0.367406
v -1.617545 -0.132746 -0.604071
v -1.515774 -0.123494 -0.828503
v -1.383308 -0.111451 -1.036157
v -1.383307 0.111451 1.036157
v -1.515774 0.123494 0.828503
v -1.617545 0.132746 0.604071
v -1.686559 0.139020 0.367406
v -1.721419 0.142189 0.123301
v -1.721419 0.142189 -0.123301
v -1.686559 0.139020 -0.367406
v -1.617545 0.132746 -0.604071
v -1.515774 0.123494 -0.828503
v -1.383308 0.111451 -1.036157
v -1.357827 0.330365 1.021708
v -1.481729 0.364157 0.816024
v -1.576825 0.390092 0.594476
v -1.641269 0.407668 0.361372
v -1.673808 0.416542 0.121243
v -1.673808 0.416542 -0.121243
v -1.641269 0.407668 -0.361372
v -1.576825 0.390092 -0.594476
v -1.481729 0.364157 -0.816024
v -1.357828 0.330365 -1.021708
v -1.309992 0.538661 0.993432
v -1.419272 0.588334 0.791852
v -1.503001 0.626393 0.576016
v -1.559673 0.652153 0.349810
v -1.588266 0.665149 0.117307
v -1.588266 0.665150 -0.117308
v -1.559673 0.652153 -0.349811
v -1.503002 0.626393 -0.576016
v -1.419272 0.588334 -0.791852
v -1.309992 0.538661 -0.993432
v -1.244181 0.732567 0.952318
v -1.336190 0.791118 0.757196
v -1.406536 0.835883 0.549798
v -1.454075 0.866136 0.333485
v -1.478040 0.881386 0.111766
v -1.478040 0.881386 -0.111766
v -1.454075 0.866136 -0.333485
v -1.406535 0.835883 -0.549798
v -1.336190 0.791118 -0.757196
v -1.244181 0.732567 -0.952318
v -1.164214 0.910685 0.899440
v -1.239042 0.971908 0.713287
v -1.296122 1.018609 0.516917
v -1.334635 1.050120 0.313142
v -1.354031 1.065989 0.104881
v -1.354031 1.065989 -0.104881
v -1.334635 1.050120 -0.313142
v -1.296122 1.018609 -0.516917
v -1.239042 0.971907 -0.713287
v -1.164214 0.910684 -0.899440
vn -0.5774 -0.5774 0.5774
vn -0.5774 0.5774 0.5773
vn -0.5773 -0.5774 -0.5774
vn -0.5774 0.5774 -0.5774
vn 0.5774 -0.5774 0.5774
vn 0.5773 0.5774 0.5774
vn 0.5774 -0.5774 -0.5774
vn 0.5774 0.5773 -0.5774
vn -0.6181 -0.6181 -0.4857
vn -0.6527 -0.6527 -0.3846
vn -0.6791 -0.6791 -0.2785
vn -0.6970 -0.6970 -0.1686
vn -0.7060 -0.7060 -0.0565
vn -0.7060 -0.7060 0.0565
vn -0.6970 -0.6970 0.1686
vn -0.6791 -0.6791 0.2785
vn -0.6527 -0.6527 0.3846
vn -0.6181 -0.6181 0.4857
vn -0.6174 -0.4874 0.6174
vn -0.6513 -0.3895 0.6513
vn -0.6778 -0.2848 0.6778
vn -0.6963 -0.1739 0.6963
vn -0.7059 -0.0585 0.7059
vn -0.7059 0.0585 0.7059
vn -0.6963 0.1739 0.6963
vn -0.6778 0.2848 0.6778
vn -0.6513 0.3895 0.6513
vn -0.6174 0.4874 0.6174
vn -0.6181 0.6181 0.4857
vn -0.6527 0.6527 0.3846
vn -0.6791 0.6791 0.2785
vn -0.6970 0.6970 0.1686
vn -0.7060 0.7060 0.0565
vn -0.7060 0.7060 -0.0565
vn -0.6970 0.6970 -0.1686
vn -0.6791 0.6791 -0.2785
vn -0.6527 0.6527 -0.3846
vn -0.6181 0.6181 -0.4857
vn -0.6174 0.4874 -0.6174
vn -0.6513 0.3895 -0.6513
vn -0.6778 0.2848 -0.6778
vn -0.6963 0.1739 -0.6963
vn -0.7059 0.0585 -0.7059
vn -0.7059 -0.0585 -0.7059
vn -0.6963 -0.1739 -0.6963
vn -0.6778 -0.2848 -0.6778
vn -0.6513 -0.3895 -0.6513
vn -0.6174 -0.4874 -0.6174
vn 0.4865 -0.6177 -0.6179
vn 0.3871 -0.6510 -0.6530
vn 0.2816 -0.6761 -0.6809
vn 0.1712 -0.6929 -0.7004
vn 0.0575 -0.7014 -0.7105
vn -0.0575 -0.7014 -0.7105
vn -0.1712 -0.6929 -0.7004
vn -0.2816 -0.6761 -0.6809
vn -0.3871 -0.6510 -0.6530
vn -0.4865 -0.6177 -0.6179
vn -0.4865 0.6177 -0.6179
vn -0.3871 0.6510 -0.6530
vn -0.2816 0.6761 -0.6809
vn -0.1712 0.6929 -0.7004
vn -0.0575 0.7014 -0.7105
vn 0.0575 0.7014 -0.7105
vn 0.1712 0.6929 -0.7004
vn 0.2816 0.6761 -0.6809
vn 0.3871 0.6510 -0.6530
vn 0.4865 0.6177 -0.6179
vn 0.6174 0.4874 -0.6174
vn 0.6513 0.3895 -0.6513
vn 0.6778 0.2848 -0.6778
vn 0.6963 0.1739 -0.6963
vn 0.7059 0.0585 -0.7059
vn 0.7059 -0.0585 -0.7059
vn 0.6963 -0.1739 -0.6963
vn 0.6778 -0.2848 -0.6778
vn 0.6513 -0.3895 -0.6513
vn 0.6174 -0.4874 -0.6174
vn 0.6181 -0.6181 0.4857
vn 0.6527 -0.6527 0.3846
vn 0.6791 -0.6791 0.2785
vn 0.6970 -0.6970 0.1686
vn 0.7060 -0.7060 0.0565
vn 0.7060 -0.7060 -0.0565
vn 0.6970 -0.6970 -0.1686
vn 0.6791 -0.6791 -0.2785
vn 0.6527 -0.6527 -0.3846
vn 0.6181 -0.6181 -0.4857
vn 0.6181 0.6181 -0.4857
vn 0.6527 0.6527 -0.3846
vn 0.6791 0.6791 -0.2785
vn 0.6970 0.6970 -0.1686
vn 0.7060 0.7060 -0.0565
vn 0.7060 0.7060 0.0565
vn 0.6970 0.6970 0.1686
vn 0.6791 0.6791 0.2785
vn 0.6527 0.6527 0.3846
vn 0.6181 0.6181 0.4857
vn 0.6174 0.4874 0.6174
vn 0.6513 0.3895 0.6513
vn 0.6778 0.2848 0.6778
vn 0.6963 0.1739 0.6963
vn 0.7059 0.0585 0.7059
vn 0.7059 -0.0585 0.7059
vn 0.6963 -0.1739 0.6963
vn 0.6778 -0.2848 0.6778
vn 0.6513 -0.3895 0.6513
vn 0.6174 -0.4874 0.6174
vn -0.4865 -0.6177 0.6179
vn -0.3871 -0.6510 0.6530
vn -0.2816 -0.6761 0.6809
vn -0.1712 -0.6929 0.7004
vn -0.0575 -0.7014 0.7105
vn 0.0575 -0.7014 0.7105
vn 0.1712 -0.6929 0.7004
vn 0.2816 -0.6761 0.6809
vn 0.3871 -0.6510 0.6530
vn 0.4865 -0.6177 0.6179
vn 0.4865 0.6177 0.6179
vn 0.3871 0.6510 0.6530
vn 0.2816 0.6761 0.6809
vn 0.1712 0.6929 0.7004
vn 0.0575 0.7014 0.7105
vn -0.0575 0.7014 0.7105
vn -0.1712 0.6929 0.7004
vn -0.2816 0.6761 0.6809
vn -0.3871 0.6510 0.6530
vn -0.4865 0.6177 0.6179
vn 0.5191 0.6835 -0.5133
vn 0.5505 0.7289 -0.4070
vn 0.5748 0.7633 -0.2949
vn 0.5912 0.7865 -0.1787
vn 0.5995 0.7981 -0.0598
vn 0.5995 0.7981 0.0598
vn 0.5912 0.7865 0.1787
vn 0.5748 0.7633 0.2949
vn 0.5505 0.7289 0.4070
vn 0.5191 0.6835 0.5133
vn 0.4207 0.7278 -0.5416
vn 0.4542 0.7799 -0.4306
vn 0.4798 0.8198 -0.3126
vn 0.4970 0.8468 -0.1896
vn 0.5057 0.8604 -0.0635
vn 0.5057 0.8604 0.0635
vn 0.4970 0.8468 0.1896
vn 0.4798 0.8198 0.3126
vn 0.4542 0.7799 0.4306
vn 0.4207 0.7278 0.5416
vn 0.3121 0.7628 -0.5663
vn 0.3429 0.8238 -0.4513
vn 0.3662 0.8707 -0.3282
vn 0.3818 0.9025 -0.1993
vn 0.3897 0.9185 -0.0668
vn 0.3897 0.9185 0.0668
vn 0.3818 0.9025 0.1993
vn 0.3662 0.8707 0.3282
vn 0.3429 0.8238 0.4513
vn 0.3121 0.7628 0.5663
vn 0.1929 0.7879 -0.5848
vn 0.2150 0.8578 -0.4669
vn 0.2316 0.9115 -0.3400
vn 0.2427 0.9478 -0.2066
vn 0.2482 0.9662 -0.0693
vn 0.2482 0.9662 0.0693
vn 0.2427 0.9478 0.2066
vn 0.2316 0.9115 0.3400
vn 0.2150 0.8578 0.4669
vn 0.1929 0.7879 0.5848
vn 0.0654 0.8012 -0.5948
vn 0.0735 0.8768 -0.4753
vn 0.0795 0.9347 -0.3464
vn 0.0835 0.9740 -0.2106
vn 0.0855 0.9938 -0.0707
vn 0.0855 0.9938 0.0707
vn 0.0835 0.9740 0.2106
vn 0.0795 0.9347 0.3464
vn 0.0735 0.8768 0.4753
vn 0.0654 0.8012 0.5948
vn -0.0654 0.8012 -0.5948
vn -0.0735 0.8768 -0.4753
vn -0.0795 0.9347 -0.3464
vn -0.0835 0.9740 -0.2106
vn -0.0855 0.9938 -0.0707
vn -0.0855 0.9938 0.0707
vn -0.0835 0.9740 0.2106
vn -0.0795 0.9347 0.3464
vn -0.0735 0.8768 0.4753
vn -0.0654 0.8012 0.5948
vn -0.1929 0.7879 -0.5848
vn -0.2150 0.8578 -0.4669
vn -0.2316 0.9115 -0.3400
vn -0.2427 0.9478 -0.2066
vn -0.2482 0.9662 -0.0693
vn -0.2482 0.9662 0.0693
vn -0.2427 0.9478 0.2066
vn -0.2316 0.9115 0.3400
vn -0.2150 0.8578 0.4669
vn -0.1929 0.7879 0.5848
vn -0.3121 0.7628 -0.5663
vn -0.3429 0.8238 -0.4513
vn -0.3662 0.8707 -0.3282
vn -0.3818 0.9025 -0.1993
vn -0.3897 0.9185 -0.0668
vn -0.3897 0.9185 0.0668
vn -0.3818 0.9025 0.1993
vn -0.3662 0.8707 0.3282
vn -0.3429 0.8238 0.4513
vn -0.3121 0.7628 0.5663
vn -0.4207 0.7278 -0.5416
vn -0.4542 0.7799 -0.4306
vn -0.4798 0.8198 -0.3126
vn -0.4970 0.8468 -0.1896
vn -0.5057 0.8604 -0.0635
vn -0.5057 0.8604 0.0635
vn -0.4970 0.8468 0.1896
vn -0.4798 0.8198 0.3126
vn -0.4542 0.7799 0.4306
vn -0.4207 0.7278 0.5416
vn -0.5191 0.6835 -0.5133
vn -0.5505 0.7289 -0.4070
vn -0.5748 0.7633 -0.2949
vn -0.5912 0.7865 -0.1787
vn -0.5995 0.7981 -0.0598
vn -0.5995 0.7981 0.0598
vn -0.5912 0.7865 0.1787
vn -0.5748 0.7633 0.2949
vn -0.5505 0.7289 0.4070
vn -0.5191 0.6835 0.5133
vn -0.5191 -0.6835 -0.5133
vn -0.5505 -0.7289 -0.4070
vn -0.5748 -0.7633 -0.2949
vn -0.5912 -0.7865 -0.1787
vn -0.5995 -0.7981 -0.0598
vn -0.5995 -0.7981 0.0598
vn -0.5912 -0.7865 0.1787
vn -0.5748 -0.7633 0.2949
vn -0.5505 -0.7289 0.4070
vn -0.5191 -0.6835 0.5133
vn -0.4207 -0.7278 -0.5416
vn -0.4542 -0.7799 -0.4306
vn -0.4798 -0.8198 -0.3126
vn -0.4970 -0.8468 -0.1896
vn -0.5057 -0.8604 -0.0635
vn -0.5057 -0.8604 0.0635
vn -0.4970 -0.8468 0.1896
vn -0.4798 -0.8198 0.3126
vn -0.4542 -0.7799 0.4306
vn -0.4207 -0.7278 0.5416
vn -0.3121 -0.7628 -0.5663
vn -0.3429 -0.8238 -0.4513
vn -0.3662 -0.8707 -0.3282
vn -0.3818 -0.9025 -0.1993
vn -0.3897 -0.9185 -0.0668
vn -0.3897 -0.9185 0.0668
vn -0.3818 -0.9025 0.1993
vn -0.3662 -0.8707 0.3282
vn -0.3429 -0.8238 0.4513
vn -0.3121 -0.7628 0.5663
vn -0.1929 -0.7879 -0.5848
vn -0.2150 -0.8578 -0.4669
vn -0.2316 -0.9115 -0.3400
vn -0.2427 -0.9478 -0.2066
vn -0.2482 -0.9662 -0.0693
vn -0.2482 -0.9662 0.0693
vn -0.2427 -0.9478 0.2066
vn -0.2316 -0.9115 0.3400
vn -0.2150 -0.8578 0.4669
vn -0.1929 -0.7879 0.5848
vn -0.0654 -0.8012 -0.5948
vn -0.0735 -0.8768 -0.4753
vn -0.0795 -0.9347 -0.3464
vn -0.0835 -0.9740 -0.2106
vn -0.0855 -0.9938 -0.0707
vn -0.0855 -0.9938 0.0707
vn -0.0835 -0.9740 0.2106
vn -0.0795 -0.9347 0.3464
vn -0.0735 -0.8768 0.4753
vn -0.0654 -0.8012 0.5948
vn 0.0654 -0.8012 -0.5948
vn 0.0735 -0.8768 -0.4753
vn 0.0795 -0.9347 -0.3464
vn 0.0835 -0.9740 -0.2106
vn 0.0855 -0.9938 -0.0707
vn 0.0855 -0.9938 0.0707
vn 0.0835 -0.9740 0.2106
vn 0.0795 -0.9347 0.3464
vn 0.0735 -0.8768 0.4753
vn 0.0654 -0.8012 0.5948
vn 0.1929 -0.7879 -0.5848
vn 0.2150 -0.8578 -0.4669
vn 0.2316 -0.9115 -0.3400
vn 0.2427 -0.9478 -0.2066
vn 0.2482 -0.9662 -0.0693
vn 0.2482 -0.9662 0.0693
vn 0.2427 -0.9478 0.2066
vn 0.2316 -0.9115 0.3400
vn 0.2150 -0.8578 0.4669
vn 0.1929 -0.7879 0.5848
vn 0.3121 -0.7628 -0.5663
vn 0.3429 -0.8238 -0.4513
vn 0.3662 -0.8707 -0.3282
vn 0.3818 -0.9025 -0.1993
vn 0.3897 -0.9185 -0.0668
vn 0.3897 -0.9185 0.0668
vn 0.3818 -0.9025 0.1993
vn 0.3662 -0.8707 0.3282
vn 0.3429 -0.8238 0.4513
vn 0.3121 -0.7628 0.5663
vn 0.4207 -0.7278 -0.5416
vn 0.4542 -0.7799 -0.4306
vn 0.4798 -0.8198 -0.3126
vn 0.4970 -0.8468 -0.1896
vn 0.5057 -0.8604 -0.0635
vn 0.5057 -0.8604 0.0635
vn 0.4970 -0.8468 0.1896
vn 0.4798 -0.8198 0.3126
vn 0.4542 -0.7799 0.4306
vn 0.4207 -0.7278 0.5416
vn 0.5191 -0.6835 -0.5133
vn 0.5505 -0.7289 -0.4070
vn 0.5748 -0.7633 -0.2949
vn 0.5912 -0.7865 -0.1787
vn 0.5995 -0.7981 -0.0598
vn 0.5995 -0.7981 0.0598
vn 0.5912 -0.7865 0.1787
vn 0.5748 -0.7633 0.2949
vn 0.5505 -0.7289 0.4070
vn 0.5191 -0.6835 0.5133
vn 0.5133 -0.5191 0.6835
vn 0.4070 -0.5505 0.7289
vn 0.2949 -0.5748 0.7633
vn 0.1787 -0.5912 0.7865
vn 0.0598 -0.5995 0.7981
vn -0.0598 -0.5995 0.7981
vn -0.1787 -0.5912 0.7865
vn -0.2949 -0.5748 0.7633
vn -0.4070 -0.5505 0.7289
vn -0.5133 -0.5191 0.6835
vn 0.5416 -0.4207 0.7278
vn 0.4306 -0.4542 0.7799
vn 0.3126 -0.4798 0.8198
vn 0.1896 -0.4970 0.8468
vn 0.0635 -0.5057 0.8604
vn -0.0635 -0.5057 0.8604
vn -0.1896 -0.4970 0.8468
vn -0.3126 -0.4798 0.8198
vn -0.4306 -0.4542 0.7799
vn -0.5416 -0.4207 0.7278
vn 0.5663 -0.3121 0.7628
vn 0.4513 -0.3429 0.8238
vn 0.3282 -0.3662 0.8707
vn 0.1993 -0.3818 0.9025
vn 0.0668 -0.3897 0.9185
vn -0.0668 -0.3897 0.9185
vn -0.1993 -0.3818 0.9025
vn -0.3282 -0.3662 0.8707
vn -0.4513 -0.3429 0.8238
vn -0.5663 -0.3121 0.7628
vn 0.5848 -0.1929 0.7879
vn 0.4669 -0.2150 0.8578
vn 0.3400 -0.2316 0.9115
vn 0.2066 -0.2427 0.9478
vn 0.0693 -0.2482 0.9662
vn -0.0693 -0.2482 0.9662
vn -0.2066 -0.2427 0.9478
vn -0.3400 -0.2316 0.9115
vn -0.4669 -0.2150 0.8578
vn -0.5848 -0.1929 0.7879
vn 0.5948 -0.0654 0.8012
vn 0.4753 -0.0735 0.8768
vn 0.3464 -0.0795 0.9347
vn 0.2106 -0.0835 0.9740
vn 0.0707 -0.0855 0.9938
vn -0.0707 -0.0855 0.9938
vn -0.2106 -0.0835 0.9740
vn -0.3464 -0.0795 0.9347
vn -0.4753 -0.0735 0.8768
vn -0.5948 -0.0654 0.8012
vn 0.5948 0.0654 0.8012
vn 0.4753 0.0735 0.8768
vn 0.3464 0.0795 0.9347
vn 0.2106 0.0835 0.9740
vn 0.0707 0.0855 0.9938
vn -0.0707 0.0855 0.9938
vn -0.2106 0.0835 0.9740
vn -0.3464 0.0795 0.9347
vn -0.4753 0.0735 0.8768
vn -0.5948 0.0654 0.8012
vn 0.5848 0.1929 0.7879
vn 0.4669 0.2150 0.8578
vn 0.3400 0.2316 0.9115
vn 0.2066 0.2427 0.9478
vn 0.0693 0.2482 0.9662
vn -0.0693 0.2482 0.9662
vn -0.2066 0.2427 0.9478
vn -0.3400 0.2316 0.9115
vn -0.4669 0.2150 0.8578
vn -0.5848 0.1929 0.7879
vn 0.5663 0.3121 0.7628
vn 0.4513 0.3429 0.8238
vn 0.3282 0.3662 0.8707
vn 0.1993 0.3818 0.9025
vn 0.0668 0.3897 0.9185
vn -0.0668 0.3897 0.9185
vn -0.1993 0.3818 0.9025
vn -0.3282 0.3662 0.8707
vn -0.4513 0.3429 0.8238
vn -0.5663 0.3121 0.7628
vn 0.5416 0.4207 0.7278
vn 0.4306 0.4542 0.7799
vn 0.3126 0.4798 0.8198
vn 0.1896 0.4970 0.8468
vn 0.0635 0.5057 0.8604
vn -0.0635 0.5057 0.8604
vn -0.1896 0.4970 0.8468
vn -0.3126 0.4798 0.8198
vn -0.4306 0.4542 0.7799
vn -0.5416 0.4207 0.7278
vn 0.5133 0.5191 0.6835
vn 0.4070 0.5505 0.7289
vn 0.2949 0.5748 0.7633
vn 0.1787 0.5912 0.7865
vn 0.0598 0.5995 0.7981
vn -0.0598 0.5995 0.7981
vn -0.1787 0.5912 0.7865
vn -0.2949 0.5748 0.7633
vn -0.4070 0.5505 0.7289
vn -0.5133 0.5191 0.6835
vn 0.6835 -0.5191 -0.5133
vn 0.7289 -0.5505 -0.4070
vn 0.7633 -0.5748 -0.2949
vn 0.7865 -0.5912 -0.1787
vn 0.7981 -0.5995 -0.0598
vn 0.7981 -0.5995 0.0598
vn 0.7865 -0.5912 0.1787
vn 0.7633 -0.5748 0.2949
vn 0.7289 -0.5505 0.4070
vn 0.6835 -0.5191 0.5133
vn 0.7278 -0.4207 -0.5416
vn 0.7799 -0.4542 -0.4306
vn 0.8198 -0.4798 -0.3126
vn 0.8468 -0.4970 -0.1896
vn 0.8604 -0.5057 -0.0635
vn 0.8604 -0.5057 0.0635
vn 0.8468 -0.4970 0.1896
vn 0.8198 -0.4798 0.3126
vn 0.7799 -0.4542 0.4306
vn 0.7278 -0.4207 0.5416
vn 0.7628 -0.3121 -0.5663
vn 0.8238 -0.3429 -0.4513
vn 0.8707 -0.3662 -0.3282
vn 0.9025 -0.3818 -0.1993
vn 0.9185 -0.3897 -0.0668
vn 0.9185 -0.3897 0.0668
vn 0.9025 -0.3818 0.1993
vn 0.8707 -0.3662 0.3282
vn 0.8238 -0.3429 0.4513
vn 0.7628 -0.3121 0.5663
vn 0.7879 -0.1929 -0.5848
vn 0.8578 -0.2150 -0.4669
vn 0.9115 -0.2316 -0.3400
vn 0.9478 -0.2427 -0.2066
vn 0.9662 -0.2482 -0.0693
vn 0.9662 -0.2482 0.0693
vn 0.9478 -0.2427 0.2066
vn 0.9115 -0.2316 0.3400
vn 0.8578 -0.2150 0.4669
vn 0.7879 -0.1929 0.5848
vn 0.8012 -0.0654 -0.5948
vn 0.8768 -0.0735 -0.4753
vn 0.9347 -0.0795 -0.3464
vn 0.9740 -0.0835 -0.2106
vn 0.9938 -0.0855 -0.0707
vn 0.9938 -0.0855 0.0707
vn 0.9740 -0.0835 0.2106
vn 0.9347 -0.0795 0.3464
vn 0.8768 -0.0735 0.4753
vn 0.8012 -0.0654 0.5948
vn 0.8012 0.0654 -0.5948
vn 0.8768 0.0735 -0.4753
vn 0.9347 0.0795 -0.3464
vn 0.9740 0.0835 -0.2106
vn 0.9938 0.0855 -0.0707
vn 0.9938 0.0855 0.0707
vn 0.9740 0.0835 0.2106
vn 0.9347 0.0795 0.3464
vn 0.8768 0.0735 0.4753
vn 0.8012 0.0654 0.5948
vn 0.7879 0.1929 -0.5848
vn 0.8578 0.2150 -0.4669
vn 0.9115 0.2316 -0.3400
vn 0.9478 0.2427 -0.2066
vn 0.9662 0.2482 -0.0693
vn 0.9662 0.2482 0.0693
vn 0.9478 0.2427 0.2066
vn 0.9115 0.2316 0.3400
vn 0.8578 0.2150 0.4669
vn 0.7879 0.1929 0.5848
vn 0.7628 0.3121 -0.5663
vn 0.8238 0.3429 -0.4513
vn 0.8707 0.3662 -0.3282
vn 0.9025 0.3818 -0.1993
vn 0.9185 0.3897 -0.0668
vn 0.9185 0.3897 0.0668
vn 0.9025 0.3818 0.1993
vn 0.8707 0.3662 0.3282
vn 0.8238 0.3429 0.4513
vn 0.7628 0.3121 0.5663
vn 0.7278 0.4207 -0.5416
vn 0.7799 0.4542 -0.4306
vn 0.8198 0.4798 -0.3126
vn 0.8468 0.4970 -0.1896
vn 0.8604 0.5057 -0.0635
vn 0.8604 0.5057 0.0635
vn 0.8468 0.4970 0.1896
vn 0.8198 0.4798 0.3126
vn 0.7799 0.4542 0.4306
vn 0.7278 0.4207 0.5416
vn 0.6835 0.5191 -0.5133
vn 0.7289 0.5505 -0.4070
vn 0.7633 0.5748 -0.2949
vn 0.7865 0.5912 -0.1787
vn 0.7981 0.5995 -0.0598
vn 0.7981 0.5995 0.0598
vn 0.7865 0.5912 0.1787
vn 0.7633 0.5748 0.2949
vn 0.7289 0.5505 0.4070
vn 0.6835 0.5191 0.5133
vn -0.5133 -0.5191 -0.6835
vn -0.4070 -0.5505 -0.7289
vn -0.2949 -0.5748 -0.7633
vn -0.1787 -0.5912 -0.7865
vn -0.0598 -0.5995 -0.7981
vn 0.0598 -0.5995 -0.7981
vn 0.1787 -0.5912 -0.7865
vn 0.2949 -0.5748 -0.7633
vn 0.4070 -0.5505 -0.7289
vn 0.5133 -0.5191 -0.6835
vn -0.5416 -0.4207 -0.7278
vn -0.4306 -0.4542 -0.7799
vn -0.3126 -0.4798 -0.8198
vn -0.1896 -0.4970 -0.8468
vn -0.0635 -0.5057 -0.8604
vn 0.0635 -0.5057 -0.8604
vn 0.1896 -0.4970 -0.8468
vn 0.3126 -0.4798 -0.8198
vn 0.4306 -0.4542 -0.7799
vn 0.5416 -0.4207 -0.7278
vn -0.5663 -0.3121 -0.7628
vn -0.4513 -0.3429 -0.8238
vn -0.3282 -0.3662 -0.8707
vn -0.1993 -0.3818 -0.9025
vn -0.0668 -0.3897 -0.9185
vn 0.0668 -0.3897 -0.9185
vn 0.1993 -0.3818 -0.9025
vn 0.3282 -0.3662 -0.8707
vn 0.4513 -0.3429 -0.8238
vn 0.5663 -0.3121 -0.7628
vn -0.5848 -0.1929 -0.7879
vn -0.4669 -0.2150 -0.8578
vn -0.3400 -0.2316 -0.9115
vn -0.2066 -0.2427 -0.9478
vn -0.0693 -0.2482 -0.9662
vn 0.0693 -0.2482 -0.9662
vn 0.2066 -0.2427 -0.9478
vn 0.3400 -0.2316 -0.9115
vn 0.4669 -0.2150 -0.8578
vn 0.5848 -0.1929 -0.7879
vn -0.5948 -0.0654 -0.8012
vn -0.4753 -0.0735 -0.8768
vn -0.3464 -0.0795 -0.9347
vn -0.2106 -0.0835 -0.9740
vn -0.0707 -0.0855 -0.9938
vn 0.0707 -0.0855 -0.9938
vn 0.2106 -0.0835 -0.9740
vn 0.3464 -0.0795 -0.9347
vn 0.4753 -0.0735 -0.8768
vn 0.5948 -0.0654 -0.8012
vn -0.5948 0.0654 -0.8012
vn -0.4753 0.0735 -0.8768
vn -0.3464 0.0795 -0.9347
vn -0.2106 0.0835 -0.9740
vn -0.0707 0.0855 -0.9938
vn 0.0707 0.0855 -0.9938
vn 0.2106 0.0835 -0.9740
vn 0.3464 0.0795 -0.9347
vn 0.4753 0.0735 -0.8768
vn 0.5948 0.0654 -0.8012
vn -0.5848 0.1929 -0.7879
vn -0.4669 0.2150 -0.8578
vn -0.3400 0.2316 -0.9115
vn -0.2066 0.2427 -0.9478
vn -0.0693 0.2482 -0.9662
vn 0.0693 0.2482 -0.9662
vn 0.2066 0.2427 -0.9478
vn 0.3400 0.2316 -0.9115
vn 0.4669 0.2150 -0.8578
vn 0.5848 0.1929 -0.7879
vn -0.5663 0.3121 -0.7628
vn -0.4513 0.3429 -0.8238
vn -0.3282 0.3662 -0.8707
vn -0.1993 0.3818 -0.9025
vn -0.0668 0.3897 -0.9185
vn 0.0668 0.3897 -0.9185
vn 0.1993 0.3818 -0.9025
vn 0.3282 0.3662 -0.8707
vn 0.4513 0.3429 -0.8238
vn 0.5663 0.3121 -0.7628
vn -0.5416 0.4207 -0.7278
vn -0.4306 0.4542 -0.7799
vn -0.3126 0.4798 -0.8198
vn -0.1896 0.4970 -0.8468
vn -0.0635 0.5057 -0.8604
vn 0.0635 0.5057 -0.8604
vn 0.1896 0.4970 -0.8468
vn 0.3126 0.4798 -0.8198
vn 0.4306 0.4542 -0.7799
vn 0.5416 0.4207 -0.7278
vn -0.5133 0.5191 -0.6835
vn -0.4070 0.5505 -0.7289
vn -0.2949 0.5748 -0.7633
vn -0.1787 0.5912 -0.7865
vn -0.0598 0.5995 -0.7981
vn 0.0598 0.5995 -0.7981
vn 0.1787 0.5912 -0.7865
vn 0.2949 0.5748 -0.7633
vn 0.4070 0.5505 -0.7289
vn 0.5133 0.5191 -0.6835
vn -0.6835 -0.5191 0.5133
vn -0.7289 -0.5505 0.4070
vn -0.7633 -0.5748 0.2949
vn -0.7865 -0.5912 0.1787
vn -0.7981 -0.5995 0.0598
vn -0.7981 -0.5995 -0.0598
vn -0.7865 -0.5912 -0.1787
vn -0.7633 -0.5748 -0.2949
vn -0.7289 -0.5505 -0.4070
vn -0.6835 -0.5191 -0.5133
vn -0.7278 -0.4207 0.5416
vn -0.7799 -0.4542 0.4306
vn -0.8198 -0.4798 0.3126
vn -0.8468 -0.4970 0.1896
vn -0.8604 -0.5057 0.0635
vn -0.8604 -0.5057 -0.0635
vn -0.8468 -0.4970 -0.1896
vn -0.8198 -0.4798 -0.3126
vn -0.7799 -0.4542 -0.4306
vn -0.7278 -0.4207 -0.5416
vn -0.7628 -0.3121 0.5663
vn -0.8238 -0.3429 0.4513
vn -0.8707 -0.3662 0.3282
vn -0.9025 -0.3818 0.1993
vn -0.9185 -0.3897 0.0668
vn -0.9185 -0.3897 -0.0668
vn -0.9025 -0.3818 -0.1993
vn -0.8707 -0.3662 -0.3282
vn -0.8238 -0.3429 -0.4513
vn -0.7628 -0.3121 -0.5663
vn -0.7879 -0.1929 0.5848
vn -0.8578 -0.2150 0.4669
vn -0.9115 -0.2316 0.3400
vn -0.9478 -0.2427 0.2066
vn -0.9662 -0.2482 0.0693
vn -0.9662 -0.2482 -0.0693
vn -0.9478 -0.2427 -0.2066
vn -0.9115 -0.2316 -0.3400
vn -0.8578 -0.2150 -0.4669
vn -0.7879 -0.1929 -0.5848
vn -0.8012 -0.0654 0.5948
vn -0.8768 -0.0735 0.4753
vn -0.9347 -0.0795 0.3464
vn -0.9740 -0.0835 0.2106
vn -0.9938 -0.0855 0.0707
vn -0.9938 -0.0855 -0.0707
vn -0.9740 -0.0835 -0.2106
vn -0.9347 -0.0795 -0.3464
vn -0.8768 -0.0735 -0.4753
vn -0.8012 -0.0654 -0.5948
vn -0.8012 0.0654 0.5948
vn -0.8768 0.0735 0.4753
vn -0.9347 0.0795 0.3464
vn -0.9740 0.0835 0.2106
vn -0.9938 0.0855 0.0707
vn -0.9938 0.0855 -0.0707
vn -0.9740 0.0835 -0.2106
vn -0.9347 0.0795 -0.3464
vn -0.8768 0.0735 -0.4753
vn -0.8012 0.0654 -0.5948
vn -0.7879 0.1929 0.5848
vn -0.8578 0.2150 0.4669
vn -0.9115 0.2316 0.3400
vn -0.9478 0.2427 0.2066
vn -0.9662 0.2482 0.0693
vn -0.9662 0.2482 -0.0693
vn -0.9478 0.2427 -0.2066
vn -0.9115 0.2316 -0.3400
vn -0.8578 0.2150 -0.4669
vn -0.7879 0.1929 -0.5848
vn -0.7628 0.3121 0.5663
vn -0.8238 0.3429 0.4513
vn -0.8707 0.3662 0.3282
vn -0.9025 0.3818 0.1993
vn -0.9185 0.3897 0.0668
vn -0.9185 0.3897 -0.0668
vn -0.9025 0.3818 -0.1993
vn -0.8707 0.3662 -0.3282
vn -0.8238 0.3429 -0.4513
vn -0.7628 0.3121 -0.5663
vn -0.7278 0.4207 0.5416
vn -0.7799 0.4542 0.4306
vn -0.8198 0.4798 0.3126
vn -0.8468 0.4970 0.1896
vn -0.8604 0.5057 0.0635
vn -0.8604 0.5057 -0.0635
vn -0.8468 0.4970 -0.1896
vn -0.8198 0.4798 -0.3126
vn -0.7799 0.4542 -0.4306
vn -0.7278 0.4207 -0.5416
vn -0.6835 0.5191 0.5133
vn -0.7289 0.5505 0.4070
vn -0.7633 0.5748 0.2949
vn -0.7865 0.5912 0.1787
vn -0.7981 0.5995 0.0598
vn -0.7981 0.5995 -0.0598
vn -0.7865 0.5912 -0.1787
vn -0.7633 0.5748 -0.2949
vn -0.7289 0.5505 -0.4070
vn -0.6835 0.5191 -0.5133
vt 0.196121 0.680772
vt 0.167443 0.680975
vt 0.180052 0.654229
vt 0.208031 0.654455
vt 0.196617 0.372271
vt 0.168048 0.373098
vt 0.180061 0.346158
vt 0.207966 0.345811
vt 0.179221 0.059629
vt 0.150916 0.065575
vt 0.157319 0.037366
vt 0.185117 0.029334
vt 0.800221 0.370469
vt 0.790554 0.345355
vt 0.818436 0.345604
vt 0.830572 0.372460
vt 0.566970 0.680754
vt 0.538372 0.680905
vt 0.550993 0.654271
vt 0.578875 0.654520
vt 0.802459 0.319121
vt 0.831057 0.318970
vt 0.537474 0.319058
vt 0.566172 0.319218
vt 0.578130 0.345533
vt 0.550133 0.345798
vt 0.593383 0.318551
vt 0.603586 0.345304
vt 0.619701 0.317677
vt 0.627591 0.345123
vt 0.645650 0.316895
vt 0.650695 0.344997
vt 0.671505 0.316438
vt 0.673277 0.344929
vt 0.697330 0.316452
vt 0.695634 0.344912
vt 0.723158 0.316867
vt 0.718174 0.344937
vt 0.749066 0.317614
vt 0.741233 0.345019
vt 0.775327 0.318464
vt 0.765179 0.345159
vt 0.528372 0.036829
vt 0.556181 0.028889
vt 0.550193 0.059150
vt 0.521884 0.065005
vt 0.545377 0.088900
vt 0.516685 0.093387
vt 0.542010 0.118401
vt 0.513103 0.121879
vt 0.540219 0.147673
vt 0.511270 0.150306
vt 0.540017 0.176702
vt 0.511159 0.178483
vt 0.541359 0.205561
vt 0.512297 0.206542
vt 0.544429 0.234384
vt 0.515233 0.234837
vt 0.549455 0.263099
vt 0.520257 0.263197
vt 0.556643 0.291498
vt 0.527601 0.291377
vt 0.584292 0.022210
vt 0.578824 0.054299
vt 0.574589 0.085332
vt 0.571653 0.115697
vt 0.570084 0.145582
vt 0.569915 0.175098
vt 0.571230 0.204338
vt 0.574083 0.233391
vt 0.578633 0.262234
vt 0.585032 0.290720
vt 0.612635 0.017123
vt 0.608091 0.050660
vt 0.604705 0.082708
vt 0.602406 0.113723
vt 0.601192 0.143997
vt 0.601075 0.173735
vt 0.602199 0.203090
vt 0.604525 0.232171
vt 0.608156 0.261016
vt 0.613197 0.289569
vt 0.641044 0.013775
vt 0.638022 0.048274
vt 0.635843 0.080999
vt 0.634395 0.112424
vt 0.633644 0.142902
vt 0.633579 0.172705
vt 0.634373 0.202049
vt 0.635912 0.231073
vt 0.638265 0.259875
vt 0.641498 0.288493
vt 0.669320 0.012142
vt 0.668438 0.047040
vt 0.667802 0.080094
vt 0.667386 0.111713
vt 0.667183 0.142277
vt 0.667192 0.172093
vt 0.667535 0.201447
vt 0.668101 0.230432
vt 0.668931 0.259203
vt 0.670058 0.287858
vt 0.697567 0.011647
vt 0.699089 0.046792
vt 0.700128 0.079956
vt 0.700808 0.111651
vt 0.701185 0.142270
vt 0.701288 0.172119
vt 0.701148 0.201462
vt 0.700624 0.230482
vt 0.699825 0.259250
vt 0.698730 0.287891
vt 0.726180 0.012828
vt 0.729701 0.047627
vt 0.732231 0.080555
vt 0.733914 0.112137
vt 0.734814 0.142740
vt 0.734956 0.172637
vt 0.734351 0.202042
vt 0.732821 0.231090
vt 0.730481 0.259892
vt 0.727271 0.288492
vt 0.754969 0.015853
vt 0.759920 0.049714
vt 0.763604 0.082026
vt 0.766103 0.113266
vt 0.767430 0.143731
vt 0.767586 0.173617
vt 0.766565 0.203077
vt 0.764215 0.232186
vt 0.760572 0.261023
vt 0.755539 0.289547
vt 0.783718 0.020712
vt 0.789529 0.053141
vt 0.794020 0.084480
vt 0.797123 0.115129
vt 0.798766 0.145271
vt 0.798920 0.174992
vt 0.797581 0.204368
vt 0.794654 0.233442
vt 0.790062 0.262257
vt 0.783654 0.290693
vt 0.812251 0.027241
vt 0.818535 0.057848
vt 0.823581 0.087937
vt 0.827094 0.117779
vt 0.828928 0.147385
vt 0.829046 0.176702
vt 0.827486 0.205712
vt 0.824278 0.234517
vt 0.819182 0.263166
vt 0.811972 0.291484
vt 0.840491 0.035090
vt 0.847254 0.063605
vt 0.852676 0.092356
vt 0.856402 0.121249
vt 0.858270 0.150109
vt 0.858259 0.178733
vt 0.856488 0.206944
vt 0.853385 0.235101
vt 0.848286 0.263333
vt 0.840919 0.291397
vt 0.831955 0.680817
vt 0.803257 0.680657
vt 0.791299 0.654342
vt 0.819296 0.654077
vt 0.776046 0.681324
vt 0.765843 0.654571
vt 0.749728 0.682198
vt 0.741838 0.654752
vt 0.723778 0.682980
vt 0.718734 0.654878
vt 0.697924 0.683437
vt 0.696151 0.654946
vt 0.672099 0.683423
vt 0.673795 0.654963
vt 0.646271 0.683008
vt 0.651255 0.654938
vt 0.620363 0.682261
vt 0.628196 0.654857
vt 0.594102 0.681411
vt 0.604250 0.654716
vt 0.841057 0.963046
vt 0.813248 0.970986
vt 0.819236 0.940725
vt 0.847545 0.934870
vt 0.824052 0.910974
vt 0.852744 0.906487
vt 0.827419 0.881474
vt 0.856326 0.877996
vt 0.829210 0.852202
vt 0.858159 0.849569
vt 0.829412 0.823172
vt 0.858270 0.821392
vt 0.828070 0.794314
vt 0.857132 0.793333
vt 0.825000 0.765491
vt 0.854196 0.765038
vt 0.819974 0.736776
vt 0.849171 0.736678
vt 0.812786 0.708377
vt 0.841828 0.708498
vt 0.785137 0.977665
vt 0.790605 0.945576
vt 0.794840 0.914542
vt 0.797776 0.884178
vt 0.799345 0.854293
vt 0.799514 0.824777
vt 0.798199 0.795537
vt 0.795345 0.766484
vt 0.790796 0.737641
vt 0.784397 0.709155
vt 0.756794 0.982752
vt 0.761338 0.949215
vt 0.764724 0.917166
vt 0.767023 0.886151
vt 0.768237 0.855878
vt 0.768354 0.826140
vt 0.767229 0.796785
vt 0.764904 0.767704
vt 0.761273 0.738859
vt 0.756232 0.710306
vt 0.728385 0.986100
vt 0.731407 0.951600
vt 0.733586 0.918876
vt 0.735034 0.887451
vt 0.735785 0.856973
vt 0.735850 0.827170
vt 0.735056 0.797826
vt 0.733517 0.768802
vt 0.731164 0.740000
vt 0.727930 0.711382
vt 0.700110 0.987732
vt 0.700991 0.952834
vt 0.701627 0.919781
vt 0.702043 0.888161
vt 0.702245 0.857598
vt 0.702237 0.827782
vt 0.701894 0.798428
vt 0.701328 0.769443
vt 0.700498 0.740672
vt 0.699371 0.712017
vt 0.671862 0.988228
vt 0.670340 0.953083
vt 0.669301 0.919919
vt 0.668621 0.888224
vt 0.668244 0.857605
vt 0.668141 0.827756
vt 0.668281 0.798413
vt 0.668805 0.769393
vt 0.669604 0.740625
vt 0.670699 0.711984
vt 0.643250 0.987047
vt 0.639728 0.952248
vt 0.637199 0.919320
vt 0.635515 0.887738
vt 0.634616 0.857135
vt 0.634473 0.827238
vt 0.635078 0.797833
vt 0.636608 0.768785
vt 0.638947 0.739983
vt 0.642158 0.711383
vt 0.614460 0.984022
vt 0.609509 0.950161
vt 0.605825 0.917849
vt 0.603326 0.886609
vt 0.601999 0.856144
vt 0.601843 0.826258
vt 0.602864 0.796798
vt 0.605214 0.767689
vt 0.608857 0.738852
vt 0.613890 0.710328
vt 0.585711 0.979163
vt 0.579900 0.946734
vt 0.575409 0.915395
vt 0.572306 0.884746
vt 0.570663 0.854604
vt 0.570509 0.824883
vt 0.571848 0.795507
vt 0.574775 0.766433
vt 0.579367 0.737618
vt 0.585775 0.709182
vt 0.557178 0.972634
vt 0.550894 0.942027
vt 0.545848 0.911939
vt 0.542335 0.882097
vt 0.540501 0.852490
vt 0.540383 0.823173
vt 0.541943 0.794163
vt 0.545151 0.765358
vt 0.550247 0.736709
vt 0.557456 0.708391
vt 0.528938 0.964785
vt 0.522175 0.936270
vt 0.516754 0.907519
vt 0.513027 0.878626
vt 0.511159 0.849767
vt 0.511170 0.821142
vt 0.512941 0.792931
vt 0.516044 0.764774
vt 0.521143 0.736542
vt 0.528510 0.708478
vt 0.800971 0.629116
vt 0.831482 0.627070
vt 0.808435 0.602055
vt 0.840794 0.599078
vt 0.813706 0.573677
vt 0.847406 0.570542
vt 0.816919 0.544336
vt 0.851439 0.541828
vt 0.818294 0.514444
vt 0.853064 0.513273
vt 0.818080 0.484462
vt 0.852571 0.485141
vt 0.816437 0.454727
vt 0.850672 0.456928
vt 0.813064 0.425579
vt 0.846514 0.428525
vt 0.807712 0.397381
vt 0.839866 0.400248
vt 0.538857 0.627415
vt 0.569208 0.629406
vt 0.597122 0.630362
vt 0.623298 0.630902
vt 0.648373 0.631204
vt 0.672830 0.631333
vt 0.697086 0.631290
vt 0.721572 0.631100
vt 0.746697 0.630736
vt 0.772947 0.630132
vt 0.529563 0.599627
vt 0.561716 0.602495
vt 0.591442 0.604077
vt 0.619348 0.604963
vt 0.646036 0.605448
vt 0.672033 0.605657
vt 0.697812 0.605590
vt 0.723837 0.605296
vt 0.750581 0.604721
vt 0.778575 0.603740
vt 0.522915 0.571350
vt 0.556365 0.574296
vt 0.587335 0.576013
vt 0.616449 0.576997
vt 0.644299 0.577534
vt 0.671422 0.577766
vt 0.698319 0.577673
vt 0.725470 0.577330
vt 0.753376 0.576672
vt 0.782585 0.575552
vt 0.518756 0.542947
vt 0.552992 0.545148
vt 0.584719 0.546439
vt 0.614572 0.547182
vt 0.643147 0.547582
vt 0.670991 0.547752
vt 0.698611 0.547635
vt 0.726477 0.547331
vt 0.755102 0.546778
vt 0.785042 0.545855
vt 0.516858 0.514734
vt 0.551349 0.515413
vt 0.583409 0.515807
vt 0.613594 0.516019
vt 0.642505 0.516111
vt 0.670713 0.516123
vt 0.698722 0.516006
vt 0.726932 0.515829
vt 0.755878 0.515558
vt 0.786125 0.515132
vt 0.516365 0.486602
vt 0.551135 0.485431
vt 0.583303 0.484743
vt 0.613551 0.484317
vt 0.642497 0.484046
vt 0.670707 0.483869
vt 0.698716 0.483752
vt 0.726923 0.483764
vt 0.755835 0.483857
vt 0.786020 0.484068
vt 0.517989 0.458047
vt 0.552510 0.455539
vt 0.584387 0.454020
vt 0.614327 0.453097
vt 0.642952 0.452544
vt 0.670818 0.452240
vt 0.698438 0.452123
vt 0.726282 0.452293
vt 0.754857 0.452693
vt 0.784710 0.453436
vt 0.522022 0.429333
vt 0.555723 0.426198
vt 0.586844 0.424323
vt 0.616052 0.423203
vt 0.643959 0.422545
vt 0.671110 0.422202
vt 0.698007 0.422109
vt 0.725130 0.422341
vt 0.752980 0.422878
vt 0.782094 0.423862
vt 0.528635 0.400797
vt 0.560994 0.397820
vt 0.590853 0.396135
vt 0.618848 0.395154
vt 0.645591 0.394579
vt 0.671617 0.394285
vt 0.697396 0.394218
vt 0.723392 0.394427
vt 0.750081 0.394912
vt 0.777987 0.395798
vt 0.537947 0.372805
vt 0.568458 0.370759
vt 0.596482 0.369743
vt 0.622732 0.369139
vt 0.647857 0.368775
vt 0.672343 0.368585
vt 0.696599 0.368542
vt 0.721056 0.368671
vt 0.746131 0.368973
vt 0.772306 0.369513
vt 0.476521 0.063216
vt 0.447755 0.057536
vt 0.441376 0.026916
vt 0.469668 0.034691
vt 0.418706 0.052908
vt 0.412795 0.020464
vt 0.389059 0.049563
vt 0.384004 0.015685
vt 0.358806 0.047562
vt 0.355179 0.012743
vt 0.328167 0.046815
vt 0.326539 0.011647
vt 0.297494 0.047154
vt 0.298271 0.012229
vt 0.267062 0.048480
vt 0.269982 0.013949
vt 0.237121 0.050956
vt 0.241565 0.017387
vt 0.207849 0.054687
vt 0.213222 0.022564
vt 0.448367 0.345770
vt 0.420388 0.345545
vt 0.432297 0.319227
vt 0.460976 0.319024
vt 0.441784 0.291507
vt 0.470798 0.291356
vt 0.448948 0.263116
vt 0.478109 0.263212
vt 0.453984 0.234405
vt 0.483141 0.234914
vt 0.457123 0.205547
vt 0.486171 0.206703
vt 0.458608 0.176495
vt 0.487866 0.178448
vt 0.458411 0.147142
vt 0.487796 0.149787
vt 0.456493 0.117507
vt 0.485844 0.120899
vt 0.452892 0.087642
vt 0.482031 0.091983
vt 0.394948 0.345361
vt 0.405098 0.318602
vt 0.413405 0.290765
vt 0.419772 0.262268
vt 0.424310 0.233397
vt 0.427172 0.204277
vt 0.428440 0.174862
vt 0.428209 0.145107
vt 0.426482 0.114937
vt 0.423290 0.084265
vt 0.370954 0.345228
vt 0.378787 0.317775
vt 0.385239 0.289658
vt 0.390235 0.261087
vt 0.393827 0.232206
vt 0.396115 0.203058
vt 0.397067 0.173564
vt 0.396835 0.143647
vt 0.395425 0.113157
vt 0.392838 0.081894
vt 0.347859 0.345149
vt 0.352841 0.317046
vt 0.356933 0.288638
vt 0.360106 0.260006
vt 0.362396 0.231172
vt 0.363866 0.202095
vt 0.364403 0.172663
vt 0.364186 0.142741
vt 0.363204 0.112114
vt 0.361432 0.080510
vt 0.325291 0.345127
vt 0.326992 0.316647
vt 0.328370 0.288071
vt 0.329425 0.259414
vt 0.330173 0.230627
vt 0.330637 0.201588
vt 0.330708 0.172226
vt 0.330530 0.142357
vt 0.330071 0.111718
vt 0.329302 0.080002
vt 0.302942 0.345118
vt 0.301165 0.316646
vt 0.299691 0.288072
vt 0.298520 0.259418
vt 0.297636 0.230643
vt 0.297006 0.201650
vt 0.296593 0.172285
vt 0.296507 0.142453
vt 0.296627 0.111872
vt 0.296954 0.080232
vt 0.280384 0.345196
vt 0.275326 0.317126
vt 0.271140 0.288749
vt 0.267857 0.260147
vt 0.265444 0.231354
vt 0.263837 0.202331
vt 0.262969 0.172983
vt 0.262953 0.143169
vt 0.263620 0.112675
vt 0.264978 0.081230
vt 0.257312 0.345337
vt 0.249405 0.317940
vt 0.242861 0.289874
vt 0.237763 0.261351
vt 0.234065 0.232526
vt 0.231665 0.203454
vt 0.230460 0.174101
vt 0.230494 0.144355
vt 0.231621 0.114067
vt 0.233829 0.083032
vt 0.233355 0.345541
vt 0.223130 0.318858
vt 0.214729 0.291086
vt 0.208263 0.262642
vt 0.203637 0.233827
vt 0.200701 0.204788
vt 0.199301 0.175552
vt 0.199383 0.146031
vt 0.200862 0.116133
vt 0.203707 0.085748
vt 0.195973 0.319590
vt 0.186378 0.291940
vt 0.179110 0.263590
vt 0.173998 0.234907
vt 0.170839 0.206101
vt 0.169407 0.177249
vt 0.169518 0.148214
vt 0.171218 0.118929
vt 0.174495 0.089407
vt 0.167329 0.319522
vt 0.157370 0.291915
vt 0.149934 0.263784
vt 0.144815 0.235455
vt 0.141785 0.207177
vt 0.140553 0.179122
vt 0.140572 0.150941
vt 0.142313 0.122500
vt 0.145805 0.093986
vt 0.460558 0.372764
vt 0.431863 0.372039
vt 0.404713 0.372214
vt 0.378494 0.372694
vt 0.352676 0.373199
vt 0.326977 0.373516
vt 0.301311 0.373505
vt 0.275632 0.373235
vt 0.249849 0.372783
vt 0.223686 0.372367
vt 0.448358 0.653841
vt 0.420452 0.654188
vt 0.431801 0.627729
vt 0.460371 0.626901
vt 0.440626 0.599956
vt 0.469498 0.599069
vt 0.446995 0.571600
vt 0.475971 0.570807
vt 0.451075 0.543034
vt 0.479992 0.542468
vt 0.453067 0.514454
vt 0.481822 0.514325
vt 0.453193 0.485848
vt 0.482175 0.486236
vt 0.451312 0.457124
vt 0.480468 0.457782
vt 0.447238 0.428393
vt 0.476423 0.429180
vt 0.440801 0.399900
vt 0.469842 0.400722
vt 0.395064 0.654458
vt 0.404733 0.627632
vt 0.412459 0.599852
vt 0.418128 0.571543
vt 0.421821 0.543011
vt 0.423662 0.514411
vt 0.423691 0.485763
vt 0.421918 0.457088
vt 0.418233 0.428457
vt 0.412520 0.400057
vt 0.371107 0.654662
vt 0.378570 0.627216
vt 0.384571 0.599261
vt 0.389021 0.571019
vt 0.391954 0.542661
vt 0.393440 0.514268
vt 0.393411 0.485843
vt 0.391965 0.457408
vt 0.389037 0.428990
vt 0.384555 0.400691
vt 0.348035 0.654803
vt 0.352787 0.626765
vt 0.356599 0.598601
vt 0.359437 0.570407
vt 0.361323 0.542241
vt 0.362303 0.514107
vt 0.362238 0.485971
vt 0.361284 0.457816
vt 0.359398 0.429617
vt 0.356535 0.401389
vt 0.325477 0.654881
vt 0.327107 0.626494
vt 0.328407 0.598200
vt 0.329378 0.570035
vt 0.330029 0.541989
vt 0.330381 0.514007
vt 0.330313 0.486045
vt 0.329967 0.458070
vt 0.329310 0.430010
vt 0.328318 0.401826
vt 0.303128 0.654872
vt 0.301442 0.626483
vt 0.300101 0.598174
vt 0.299108 0.569989
vt 0.298452 0.541929
vt 0.298106 0.513954
vt 0.298038 0.485992
vt 0.298390 0.458010
vt 0.299041 0.429965
vt 0.300011 0.401799
vt 0.280560 0.654851
vt 0.275743 0.626800
vt 0.271884 0.598610
vt 0.269021 0.570382
vt 0.267135 0.542183
vt 0.266181 0.514029
vt 0.266116 0.485892
vt 0.267096 0.457759
vt 0.268982 0.429592
vt 0.271820 0.401398
vt 0.257465 0.654772
vt 0.249925 0.627306
vt 0.243864 0.599308
vt 0.239382 0.571009
vt 0.236454 0.542591
vt 0.235007 0.514156
vt 0.234978 0.485731
vt 0.236465 0.457339
vt 0.239398 0.428980
vt 0.243848 0.400738
vt 0.233471 0.654638
vt 0.223706 0.627785
vt 0.215899 0.599942
vt 0.210186 0.571543
vt 0.206500 0.542911
vt 0.204727 0.514236
vt 0.204757 0.485588
vt 0.206598 0.456988
vt 0.210291 0.428457
vt 0.215959 0.400147
vt 0.196556 0.627960
vt 0.187618 0.600099
vt 0.181180 0.571606
vt 0.177106 0.542875
vt 0.175226 0.514151
vt 0.175352 0.485545
vt 0.177344 0.456965
vt 0.181423 0.428399
vt 0.187792 0.400043
vt 0.167861 0.627236
vt 0.158577 0.599277
vt 0.151996 0.570819
vt 0.147951 0.542217
vt 0.146243 0.513763
vt 0.146596 0.485674
vt 0.148426 0.457532
vt 0.152448 0.429192
vt 0.158920 0.400930
vt 0.461090 0.680477
vt 0.432446 0.680409
vt 0.405289 0.681141
vt 0.379013 0.682059
vt 0.353093 0.682873
vt 0.327254 0.683353
vt 0.301427 0.683353
vt 0.275577 0.682953
vt 0.249632 0.682224
vt 0.223320 0.681397
vt 0.471101 0.962634
vt 0.443302 0.970665
vt 0.449199 0.940371
vt 0.477503 0.934425
vt 0.453925 0.910592
vt 0.482614 0.906013
vt 0.457201 0.881070
vt 0.486106 0.877500
vt 0.458901 0.851785
vt 0.487847 0.849058
vt 0.459012 0.822751
vt 0.487866 0.820877
vt 0.457580 0.793898
vt 0.486634 0.792822
vt 0.454421 0.765092
vt 0.483604 0.764544
vt 0.449309 0.736409
vt 0.478485 0.736215
vt 0.442041 0.708059
vt 0.471049 0.708084
vt 0.415198 0.977435
vt 0.420570 0.945313
vt 0.424712 0.914252
vt 0.427557 0.883866
vt 0.429036 0.853968
vt 0.429118 0.824447
vt 0.427718 0.795211
vt 0.424782 0.766173
vt 0.420156 0.737357
vt 0.413690 0.708914
vt 0.386855 0.982613
vt 0.391298 0.949043
vt 0.394590 0.916968
vt 0.396798 0.885932
vt 0.397925 0.855644
vt 0.397959 0.825899
vt 0.396754 0.796545
vt 0.394354 0.767473
vt 0.390656 0.738648
vt 0.385558 0.710125
vt 0.358438 0.986051
vt 0.361358 0.951520
vt 0.363441 0.918770
vt 0.364799 0.887324
vt 0.365466 0.856831
vt 0.365451 0.827017
vt 0.364582 0.797668
vt 0.362975 0.768646
vt 0.360562 0.739852
vt 0.357279 0.711251
vt 0.330148 0.987771
vt 0.330925 0.952846
vt 0.331465 0.919768
vt 0.331792 0.888128
vt 0.331912 0.857546
vt 0.331826 0.827715
vt 0.331413 0.798349
vt 0.330783 0.769356
vt 0.329899 0.740581
vt 0.328728 0.711927
vt 0.301881 0.988353
vt 0.300253 0.953185
vt 0.299117 0.919998
vt 0.298348 0.888282
vt 0.297889 0.857643
vt 0.297711 0.827773
vt 0.297782 0.798411
vt 0.298245 0.769372
vt 0.298993 0.740586
vt 0.300049 0.711929
vt 0.273240 0.987257
vt 0.269613 0.952438
vt 0.266987 0.919489
vt 0.265215 0.887885
vt 0.264233 0.857259
vt 0.264016 0.827337
vt 0.264552 0.797904
vt 0.266022 0.768827
vt 0.268312 0.739993
vt 0.271486 0.711361
vt 0.244415 0.984315
vt 0.239360 0.950437
vt 0.235581 0.918105
vt 0.232993 0.886843
vt 0.231584 0.856352
vt 0.231352 0.826436
vt 0.232304 0.796941
vt 0.234592 0.767794
vt 0.238184 0.738913
vt 0.243180 0.710341
vt 0.215624 0.979536
vt 0.209713 0.947092
vt 0.205129 0.915735
vt 0.201937 0.885063
vt 0.200210 0.854893
vt 0.199978 0.825138
vt 0.201246 0.795723
vt 0.204109 0.766602
vt 0.208646 0.737732
vt 0.215014 0.709235
vt 0.187043 0.973084
vt 0.180664 0.942464
vt 0.175527 0.912358
vt 0.171925 0.882493
vt 0.170008 0.852858
vt 0.169811 0.823505
vt 0.171296 0.794452
vt 0.174435 0.765595
vt 0.179471 0.736884
vt 0.186634 0.708492
vt 0.158751 0.965309
vt 0.151898 0.936783
vt 0.146388 0.908016
vt 0.142574 0.879101
vt 0.140622 0.850212
vt 0.140553 0.821552
vt 0.142247 0.793297
vt 0.145277 0.765086
vt 0.150310 0.736788
vt 0.157620 0.708644
s 1
usemtl abstract-shape-028
f 728/1/728 38/2/38 4/3/4 39/4/39
f 628/5/628 68/6/68 8/7/8 69/8/69
f 528/9/528 98/10/98 6/11/6 99/12/99
f 428/13/428 128/14/128 2/15/2 28/16/28
f 328/17/328 79/18/79 5/19/5 118/20/118
f 228/21/228 29/22/29 2/15/2 128/14/128
f 98/23/98 138/24/138 119/25/119 6/26/6
f 138/24/138 148/27/148 120/28/120 119/25/119
f 148/27/148 158/29/158 121/30/121 120/28/120
f 158/29/158 168/31/168 122/32/122 121/30/121
f 168/31/168 178/33/178 123/34/123 122/32/122
f 178/33/178 188/35/188 124/36/124 123/34/123
f 188/35/188 198/37/198 125/38/125 124/36/124
f 198/37/198 208/39/208 126/40/126 125/38/125
f 208/39/208 218/41/218 127/42/127 126/40/126
f 218/41/218 228/21/228 128/14/128 127/42/127
f 8/43/8 68/44/68 129/45/129 89/46/89
f 89/46/89 129/45/129 130/47/130 90/48/90
f 90/48/90 130/47/130 131/49/131 91/50/91
f 91/50/91 131/49/131 132/51/132 92/52/92
f 92/52/92 132/51/132 133/53/133 93/54/93
f 93/54/93 133/53/133 134/55/134 94/56/94
f 94/56/94 134/55/134 135/57/135 95/58/95
f 95/58/95 135/57/135 136/59/136 96/60/96
f 96/60/96 136/59/136 137/61/137 97/62/97
f 97/62/97 137/61/137 138/24/138 98/23/98
f 68/44/68 67/63/67 139/64/139 129/45/129
f 129/45/129 139/64/139 140/65/140 130/47/130
f 130/47/130 140/65/140 141/66/141 131/49/131
f 131/49/131 141/66/141 142/67/142 132/51/132
f 132/51/132 142/67/142 143/68/143 133/53/133
f 133/53/133 143/68/143 144/69/144 134/55/134
f 134/55/134 144/69/144 145/70/145 135/57/135
f 135/57/135 145/70/145 146/71/146 136/59/136
f 136/59/136 146/71/146 147/72/147 137/61/137
f 137/61/137 147/72/147 148/27/148 138/24/138
f 67/63/67 66/73/66 149/74/149 139/64/139
f 139/64/139 149/74/149 150/75/150 140/65/140
f 140/65/140 150/75/150 151/76/151 141/66/141
f 141/66/141 151/76/151 152/77/152 142/67/142
f 142/67/142 152/77/152 153/78/153 143/68/143
f 143/68/143 153/78/153 154/79/154 144/69/144
f 144/69/144 154/79/154 155/80/155 145/70/145
f 145/70/145 155/80/155 156/81/156 146/71/146
f 146/71/146 156/81/156 157/82/157 147/72/147
f 147/72/147 157/82/157 158/29/158 148/27/148
f 66/73/66 65/83/65 159/84/159 149/74/149
f 149/74/149 159/84/159 160/85/160 150/75/150
f 150/75/150 160/85/160 161/86/161 151/76/151
f 151/76/151 161/86/161 162/87/162 152/77/152
f 152/77/152 162/87/162 163/88/163 153/78/153
f 153/78/153 163/88/163 164/89/164 154/79/154
f 154/79/154 164/89/164 165/90/165 155/80/155
f 155/80/155 165/90/165 166/91/166 156/81/156
f 156/81/156 166/91/166 167/92/167 157/82/157
f 157/82/157 167/92/167 168/31/168 158/29/158
f 65/83/65 64/93/64 169/94/169 159/84/159
f 159/84/159 169/94/169 170/95/170 160/85/160
f 160/85/160 170/95/170 171/96/171 161/86/161
f 161/86/161 171/96/171 172/97/172 162/87/162
f 162/87/162 172/97/172 173/98/173 163/88/163
f 163/88/163 173/98/173 174/99/174 164/89/164
f 164/89/164 174/99/174 175/100/175 165/90/165
f 165/90/165 175/100/175 176/101/176 166/91/166
f 166/91/166 176/101/176 177/102/177 167/92/167
f 167/92/167 177/102/177 178/33/178 168/31/168
f 64/93/64 63/103/63 179/104/179 169/94/169
f 169/94/169 179/104/179 180/105/180 170/95/170
f 170/95/170 180/105/180 181/106/181 171/96/171
f 171/96/171 181/106/181 182/107/182 172/97/172
f 172/97/172 182/107/182 183/108/183 173/98/173
f 173/98/173 183/108/183 184/109/184 174/99/174
f 174/99/174 184/109/184 185/110/185 175/100/175
f 175/100/175 185/110/185 186/111/186 176/101/176
f 176/101/176 186/111/186 187/112/187 177/102/177
f 177/102/177 187/112/187 188/35/188 178/33/178
f 63/103/63 62/113/62 189/114/189 179/104/179
f 179/104/179 189/114/189 190/115/190 180/105/180
f 180/105/180 190/115/190 191/116/191 181/106/181
f 181/106/181 191/116/191 192/117/192 182/107/182
f 182/107/182 192/117/192 193/118/193 183/108/183
f 183/108/183 193/118/193 194/119/194 184/109/184
f 184/109/184 194/119/194 195/120/195 185/110/185
f 185/110/185 195/120/195 196/121/196 186/111/186
f 186/111/186 196/121/196 197/122/197 187/112/187
f 187/112/187 197/122/197 198/37/198 188/35/188
f 62/113/62 61/123/61 199/124/199 189/114/189
f 189/114/189 199/124/199 200/125/200 190/115/190
f 190/115/190 200/125/200 201/126/201 191/116/191
f 191/116/191 201/126/201 202/127/202 192/117/192
f 192/117/192 202/127/202 203/128/203 193/118/193
f 193/118/193 203/128/203 204/129/204 194/119/194
f 194/119/194 204/129/204 205/130/205 195/120/195
f 195/120/195 205/130/205 206/131/206 196/121/196
f 196/121/196 206/131/206 207/132/207 197/122/197
f 197/122/197 207/132/207 208/39/208 198/37/198
f 61/123/61 60/133/60 209/134/209 199/124/199
f 199/124/199 209/134/209 210/135/210 200/125/200
f 200/125/200 210/135/210 211/136/211 201/126/201
f 201/126/201 211/136/211 212/137/212 202/127/202
f 202/127/202 212/137/212 213/138/213 203/128/203
f 203/128/203 213/138/213 214/139/214 204/129/204
f 204/129/204 214/139/214 215/140/215 205/130/205
f 205/130/205 215/140/215 216/141/216 206/131/206
f 206/131/206 216/141/216 217/142/217 207/132/207
f 207/132/207 217/142/217 218/41/218 208/39/208
f 60/133/60 59/143/59 219/144/219 209/134/209
f 209/134/209 219/144/219 220/145/220 210/135/210
f 210/135/210 220/145/220 221/146/221 211/136/211
f 211/136/211 221/146/221 222/147/222 212/137/212
f 212/137/212 222/147/222 223/148/223 213/138/213
f 213/138/213 223/148/223 224/149/224 214/139/214
f 214/139/214 224/149/224 225/150/225 215/140/215
f 215/140/215 225/150/225 226/151/226 216/141/216
f 216/141/216 226/151/226 227/152/227 217/142/217
f 217/142/217 227/152/227 228/21/228 218/41/218
f 59/143/59 4/153/4 38/154/38 219/144/219
f 219/144/219 38/154/38 37/155/37 220/145/220
f 220/145/220 37/155/37 36/156/36 221/146/221
f 221/146/221 36/156/36 35/157/35 222/147/222
f 222/147/222 35/157/35 34/158/34 223/148/223
f 223/148/223 34/158/34 33/159/33 224/149/224
f 224/149/224 33/159/33 32/160/32 225/150/225
f 225/150/225 32/160/32 31/161/31 226/151/226
f 226/151/226 31/161/31 30/162/30 227/152/227
f 227/152/227 30/162/30 29/22/29 228/21/228
f 18/163/18 238/164/238 109/165/109 1/166/1
f 238/164/238 248/167/248 110/168/110 109/165/109
f 248/167/248 258/169/258 111/170/111 110/168/110
f 258/169/258 268/171/268 112/172/112 111/170/111
f 268/171/268 278/173/278 113/174/113 112/172/112
f 278/173/278 288/175/288 114/176/114 113/174/113
f 288/175/288 298/177/298 115/178/115 114/176/114
f 298/177/298 308/179/308 116/180/116 115/178/115
f 308/179/308 318/181/318 117/182/117 116/180/116
f 318/181/318 328/17/328 118/20/118 117/182/117
f 3/183/3 58/184/58 229/185/229 9/186/9
f 9/186/9 229/185/229 230/187/230 10/188/10
f 10/188/10 230/187/230 231/189/231 11/190/11
f 11/190/11 231/189/231 232/191/232 12/192/12
f 12/192/12 232/191/232 233/193/233 13/194/13
f 13/194/13 233/193/233 234/195/234 14/196/14
f 14/196/14 234/195/234 235/197/235 15/198/15
f 15/198/15 235/197/235 236/199/236 16/200/16
f 16/200/16 236/199/236 237/201/237 17/202/17
f 17/202/17 237/201/237 238/164/238 18/163/18
f 58/184/58 57/203/57 239/204/239 229/185/229
f 229/185/229 239/204/239 240/205/240 230/187/230
f 230/187/230 240/205/240 241/206/241 231/189/231
f 231/189/231 241/206/241 242/207/242 232/191/232
f 232/191/232 242/207/242 243/208/243 233/193/233
f 233/193/233 243/208/243 244/209/244 234/195/234
f 234/195/234 244/209/244 245/210/245 235/197/235
f 235/197/235 245/210/245 246/211/246 236/199/236
f 236/199/236 246/211/246 247/212/247 237/201/237
f 237/201/237 247/212/247 248/167/248 238/164/238
f 57/203/57 56/213/56 249/214/249 239/204/239
f 239/204/239 249/214/249 250/215/250 240/205/240
f 240/205/240 250/215/250 251/216/251 241/206/241
f 241/206/241 251/216/251 252/217/252 242/207/242
f 242/207/242 252/217/252 253/218/253 243/208/243
f 243/208/243 253/218/253 254/219/254 244/209/244
f 244/209/244 254/219/254 255/220/255 245/210/245
f 245/210/245 255/220/255 256/221/256 246/211/246
f 246/211/246 256/221/256 257/222/257 247/212/247
f 247/212/247 257/222/257 258/169/258 248/167/248
f 56/213/56 55/223/55 259/224/259 249/214/249
f 249/214/249 259/224/259 260/225/260 250/215/250
f 250/215/250 260/225/260 261/226/261 251/216/251
f 251/216/251 261/226/261 262/227/262 252/217/252
f 252/217/252 262/227/262 263/228/263 253/218/253
f 253/218/253 263/228/263 264/229/264 254/219/254
f 254/219/254 264/229/264 265/230/265 255/220/255
f 255/220/255 265/230/265 266/231/266 256/221/256
f 256/221/256 266/231/266 267/232/267 257/222/257
f 257/222/257 267/232/267 268/171/268 258/169/258
f 55/223/55 54/233/54 269/234/269 259/224/259
f 259/224/259 269/234/269 270/235/270 260/225/260
f 260/225/260 270/235/270 271/236/271 261/226/261
f 261/226/261 271/236/271 272/237/272 262/227/262
f 262/227/262 272/237/272 273/238/273 263/228/263
f 263/228/263 273/238/273 274/239/274 264/229/264
f 264/229/264 274/239/274 275/240/275 265/230/265
f 265/230/265 275/240/275 276/241/276 266/231/266
f 266/231/266 276/241/276 277/242/277 267/232/267
f 267/232/267 277/242/277 278/173/278 268/171/268
f 54/233/54 53/243/53 279/244/279 269/234/269
f 269/234/269 279/244/279 280/245/280 270/235/270
f 270/235/270 280/245/280 281/246/281 271/236/271
f 271/236/271 281/246/281 282/247/282 272/237/272
f 272/237/272 282/247/282 283/248/283 273/238/273
f 273/238/273 283/248/283 284/249/284 274/239/274
f 274/239/274 284/249/284 285/250/285 275/240/275
f 275/240/275 285/250/285 286/251/286 276/241/276
f 276/241/276 286/251/286 287/252/287 277/242/277
f 277/242/277 287/252/287 288/175/288 278/173/278
f 53/243/53 52/253/52 289/254/289 279/244/279
f 279/244/279 289/254/289 290/255/290 280/245/280
f 280/245/280 290/255/290 291/256/291 281/246/281
f 281/246/281 291/256/291 292/257/292 282/247/282
f 282/247/282 292/257/292 293/258/293 283/248/283
f 283/248/283 293/258/293 294/259/294 284/249/284
f 284/249/284 294/259/294 295/260/295 285/250/285
f 285/250/285 295/260/295 296/261/296 286/251/286
f 286/251/286 296/261/296 297/262/297 287/252/287
f 287/252/287 297/262/297 298/177/298 288/175/288
f 52/253/52 51/263/51 299/264/299 289/254/289
f 289/254/289 299/264/299 300/265/300 290/255/290
f 290/255/290 300/265/300 301/266/301 291/256/291
f 291/256/291 301/266/301 302/267/302 292/257/292
f 292/257/292 302/267/302 303/268/303 293/258/293
f 293/258/293 303/268/303 304/269/304 294/259/294
f 294/259/294 304/269/304 305/270/305 295/260/295
f 295/260/295 305/270/305 306/271/306 296/261/296
f 296/261/296 306/271/306 307/272/307 297/262/297
f 297/262/297 307/272/307 308/179/308 298/177/298
f 51/263/51 50/273/50 309/274/309 299/264/299
f 299/264/299 309/274/309 310/275/310 300/265/300
f 300/265/300 310/275/310 311/276/311 301/266/301
f 301/266/301 311/276/311 312/277/312 302/267/302
f 302/267/302 312/277/312 313/278/313 303/268/303
f 303/268/303 313/278/313 314/279/314 304/269/304
f 304/269/304 314/279/314 315/280/315 305/270/305
f 305/270/305 315/280/315 316/281/316 306/271/306
f 306/271/306 316/281/316 317/282/317 307/272/307
f 307/272/307 317/282/317 318/181/318 308/179/308
f 50/273/50 49/283/49 319/284/319 309/274/309
f 309/274/309 319/284/319 320/285/320 310/275/310
f 310/275/310 320/285/320 321/286/321 311/276/311
f 311/276/311 321/286/321 322/287/322 312/277/312
f 312/277/312 322/287/322 323/288/323 313/278/313
f 313/278/313 323/288/323 324/289/324 314/279/314
f 314/279/314 324/289/324 325/290/325 315/280/315
f 315/280/315 325/290/325 326/291/326 316/281/316
f 316/281/316 326/291/326 327/292/327 317/282/317
f 317/282/317 327/292/327 328/17/328 318/181/318
f 49/283/49 7/293/7 88/294/88 319/284/319
f 319/284/319 88/294/88 87/295/87 320/285/320
f 320/285/320 87/295/87 86/296/86 321/286/321
f 321/286/321 86/296/86 85/297/85 322/287/322
f 322/287/322 85/297/85 84/298/84 323/288/323
f 323/288/323 84/298/84 83/299/83 324/289/324
f 324/289/324 83/299/83 82/300/82 325/290/325
f 325/290/325 82/300/82 81/301/81 326/291/326
f 326/291/326 81/301/81 80/302/80 327/292/327
f 327/292/327 80/302/80 79/18/79 328/17/328
f 109/165/109 338/303/338 19/304/19 1/166/1
f 338/303/338 348/305/348 20/306/20 19/304/19
f 348/305/348 358/307/358 21/308/21 20/306/20
f 358/307/358 368/309/368 22/310/22 21/308/21
f 368/309/368 378/311/378 23/312/23 22/310/22
f 378/311/378 388/313/388 24/314/24 23/312/23
f 388/313/388 398/315/398 25/316/25 24/314/24
f 398/315/398 408/317/408 26/318/26 25/316/25
f 408/317/408 418/319/418 27/320/27 26/318/26
f 418/319/418 428/13/428 28/16/28 27/320/27
f 5/19/5 108/321/108 329/322/329 118/20/118
f 118/20/118 329/322/329 330/323/330 117/182/117
f 117/182/117 330/323/330 331/324/331 116/180/116
f 116/180/116 331/324/331 332/325/332 115/178/115
f 115/178/115 332/325/332 333/326/333 114/176/114
f 114/176/114 333/326/333 334/327/334 113/174/113
f 113/174/113 334/327/334 335/328/335 112/172/112
f 112/172/112 335/328/335 336/329/336 111/170/111
f 111/170/111 336/329/336 337/330/337 110/168/110
f 110/168/110 337/330/337 338/303/338 109/165/109
f 108/321/108 107/331/107 339/332/339 329/322/329
f 329/322/329 339/332/339 340/333/340 330/323/330
f 330/323/330 340/333/340 341/334/341 331/324/331
f 331/324/331 341/334/341 342/335/342 332/325/332
f 332/325/332 342/335/342 343/336/343 333/326/333
f 333/326/333 343/336/343 344/337/344 334/327/334
f 334/327/334 344/337/344 345/338/345 335/328/335
f 335/328/335 345/338/345 346/339/346 336/329/336
f 336/329/336 346/339/346 347/340/347 337/330/337
f 337/330/337 347/340/347 348/305/348 338/303/338
f 107/331/107 106/341/106 349/342/349 339/332/339
f 339/332/339 349/342/349 350/343/350 340/333/340
f 340/333/340 350/343/350 351/344/351 341/334/341
f 341/334/341 351/344/351 352/345/352 342/335/342
f 342/335/342 352/345/352 353/346/353 343/336/343
f 343/336/343 353/346/353 354/347/354 344/337/344
f 344/337/344 354/347/354 355/348/355 345/338/345
f 345/338/345 355/348/355 356/349/356 346/339/346
f 346/339/346 356/349/356 357/350/357 347/340/347
f 347/340/347 357/350/357 358/307/358 348/305/348
f 106/341/106 105/351/105 359/352/359 349/342/349
f 349/342/349 359/352/359 360/353/360 350/343/350
f 350/343/350 360/353/360 361/354/361 351/344/351
f 351/344/351 361/354/361 362/355/362 352/345/352
f 352/345/352 362/355/362 363/356/363 353/346/353
f 353/346/353 363/356/363 364/357/364 354/347/354
f 354/347/354 364/357/364 365/358/365 355/348/355
f 355/348/355 365/358/365 366/359/366 356/349/356
f 356/349/356 366/359/366 367/360/367 357/350/357
f 357/350/357 367/360/367 368/309/368 358/307/358
f 105/351/105 104/361/104 369/362/369 359/352/359
f 359/352/359 369/362/369 370/363/370 360/353/360
f 360/353/360 370/363/370 371/364/371 361/354/361
f 361/354/361 371/364/371 372/365/372 362/355/362
f 362/355/362 372/365/372 373/366/373 363/356/363
f 363/356/363 373/366/373 374/367/374 364/357/364
f 364/357/364 374/367/374 375/368/375 365/358/365
f 365/358/365 375/368/375 376/369/376 366/359/366
f 366/359/366 376/369/376 377/370/377 367/360/367
f 367/360/367 377/370/377 378/311/378 368/309/368
f 104/361/104 103/371/103 379/372/379 369/362/369
f 369/362/369 379/372/379 380/373/380 370/363/370
f 370/363/370 380/373/380 381/374/381 371/364/371
f 371/364/371 381/374/381 382/375/382 372/365/372
f 372/365/372 382/375/382 383/376/383 373/366/373
f 373/366/373 383/376/383 384/377/384 374/367/374
f 374/367/374 384/377/384 385/378/385 375/368/375
f 375/368/375 385/378/385 386/379/386 376/369/376
f 376/369/376 386/379/386 387/380/387 377/370/377
f 377/370/377 387/380/387 388/313/388 378/311/378
f 103/371/103 102/381/102 389/382/389 379/372/379
f 379/372/379 389/382/389 390/383/390 380/373/380
f 380/373/380 390/383/390 391/384/391 381/374/381
f 381/374/381 391/384/391 392/385/392 382/375/382
f 382/375/382 392/385/392 393/386/393 383/376/383
f 383/376/383 393/386/393 394/387/394 384/377/384
f 384/377/384 394/387/394 395/388/395 385/378/385
f 385/378/385 395/388/395 396/389/396 386/379/386
f 386/379/386 396/389/396 397/390/397 387/380/387
f 387/380/387 397/390/397 398/315/398 388/313/388
f 102/381/102 101/391/101 399/392/399 389/382/389
f 389/382/389 399/392/399 400/393/400 390/383/390
f 390/383/390 400/393/400 401/394/401 391/384/391
f 391/384/391 401/394/401 402/395/402 392/385/392
f 392/385/392 402/395/402 403/396/403 393/386/393
f 393/386/393 403/396/403 404/397/404 394/387/394
f 394/387/394 404/397/404 405/398/405 395/388/395
f 395/388/395 405/398/405 406/399/406 396/389/396
f 396/389/396 406/399/406 407/400/407 397/390/397
f 397/390/397 407/400/407 408/317/408 398/315/398
f 101/391/101 100/401/100 409/402/409 399/392/399
f 399/392/399 409/402/409 410/403/410 400/393/400
f 400/393/400 410/403/410 411/404/411 401/394/401
f 401/394/401 411/404/411 412/405/412 402/395/402
f 402/395/402 412/405/412 413/406/413 403/396/403
f 403/396/403 413/406/413 414/407/414 404/397/404
f 404/397/404 414/407/414 415/408/415 405/398/405
f 405/398/405 415/408/415 416/409/416 406/399/406
f 406/399/406 416/409/416 417/410/417 407/400/407
f 407/400/407 417/410/417 418/319/418 408/317/408
f 100/401/100 99/411/99 419/412/419 409/402/409
f 409/402/409 419/412/419 420/413/420 410/403/410
f 410/403/410 420/413/420 421/414/421 411/404/411
f 411/404/411 421/414/421 422/415/422 412/405/412
f 412/405/412 422/415/422 423/416/423 413/406/413
f 413/406/413 423/416/423 424/417/424 414/407/414
f 414/407/414 424/417/424 425/418/425 415/408/415
f 415/408/415 425/418/425 426/419/426 416/409/416
f 416/409/416 426/419/426 427/420/427 417/410/417
f 417/410/417 427/420/427 428/13/428 418/319/418
f 99/411/99 6/26/6 119/25/119 419/412/419
f 419/412/419 119/25/119 120/28/120 420/413/420
f 420/413/420 120/28/120 121/30/121 421/414/421
f 421/414/421 121/30/121 122/32/122 422/415/422
f 422/415/422 122/32/122 123/34/123 423/416/423
f 423/416/423 123/34/123 124/36/124 424/417/424
f 424/417/424 124/36/124 125/38/125 425/418/425
f 425/418/425 125/38/125 126/40/126 426/419/426
f 426/419/426 126/40/126 127/42/127 427/420/427
f 427/420/427 127/42/127 128/14/128 428/13/428
f 79/421/79 438/422/438 108/423/108 5/424/5
f 438/422/438 448/425/448 107/426/107 108/423/108
f 448/425/448 458/427/458 106/428/106 107/426/107
f 458/427/458 468/429/468 105/430/105 106/428/106
f 468/429/468 478/431/478 104/432/104 105/430/105
f 478/431/478 488/433/488 103/434/103 104/432/104
f 488/433/488 498/435/498 102/436/102 103/434/103
f 498/435/498 508/437/508 101/438/101 102/436/102
f 508/437/508 518/439/518 100/440/100 101/438/101
f 518/439/518 528/9/528 99/12/99 100/440/100
f 7/441/7 78/442/78 429/443/429 88/444/88
f 88/444/88 429/443/429 430/445/430 87/446/87
f 87/446/87 430/445/430 431/447/431 86/448/86
f 86/448/86 431/447/431 432/449/432 85/450/85
f 85/450/85 432/449/432 433/451/433 84/452/84
f 84/452/84 433/451/433 434/453/434 83/454/83
f 83/454/83 434/453/434 435/455/435 82/456/82
f 82/456/82 435/455/435 436/457/436 81/458/81
f 81/458/81 436/457/436 437/459/437 80/460/80
f 80/460/80 437/459/437 438/422/438 79/421/79
f 78/442/78 77/461/77 439/462/439 429/443/429
f 429/443/429 439/462/439 440/463/440 430/445/430
f 430/445/430 440/463/440 441/464/441 431/447/431
f 431/447/431 441/464/441 442/465/442 432/449/432
f 432/449/432 442/465/442 443/466/443 433/451/433
f 433/451/433 443/466/443 444/467/444 434/453/434
f 434/453/434 444/467/444 445/468/445 435/455/435
f 435/455/435 445/468/445 446/469/446 436/457/436
f 436/457/436 446/469/446 447/470/447 437/459/437
f 437/459/437 447/470/447 448/425/448 438/422/438
f 77/461/77 76/471/76 449/472/449 439/462/439
f 439/462/439 449/472/449 450/473/450 440/463/440
f 440/463/440 450/473/450 451/474/451 441/464/441
f 441/464/441 451/474/451 452/475/452 442/465/442
f 442/465/442 452/475/452 453/476/453 443/466/443
f 443/466/443 453/476/453 454/477/454 444/467/444
f 444/467/444 454/477/454 455/478/455 445/468/445
f 445/468/445 455/478/455 456/479/456 446/469/446
f 446/469/446 456/479/456 457/480/457 447/470/447
f 447/470/447 457/480/457 458/427/458 448/425/448
f 76/471/76 75/481/75 459/482/459 449/472/449
f 449/472/449 459/482/459 460/483/460 450/473/450
f 450/473/450 460/483/460 461/484/461 451/474/451
f 451/474/451 461/484/461 462/485/462 452/475/452
f 452/475/452 462/485/462 463/486/463 453/476/453
f 453/476/453 463/486/463 464/487/464 454/477/454
f 454/477/454 464/487/464 465/488/465 455/478/455
f 455/478/455 465/488/465 466/489/466 456/479/456
f 456/479/456 466/489/466 467/490/467 457/480/457
f 457/480/457 467/490/467 468/429/468 458/427/458
f 75/481/75 74/491/74 469/492/469 459/482/459
f 459/482/459 469/492/469 470/493/470 460/483/460
f 460/483/460 470/493/470 471/494/471 461/484/461
f 461/484/461 471/494/471 472/495/472 462/485/462
f 462/485/462 472/495/472 473/496/473 463/486/463
f 463/486/463 473/496/473 474/497/474 464/487/464
f 464/487/464 474/497/474 475/498/475 465/488/465
f 465/488/465 475/498/475 476/499/476 466/489/466
f 466/489/466 476/499/476 477/500/477 467/490/467
f 467/490/467 477/500/477 478/431/478 468/429/468
f 74/491/74 73/501/73 479/502/479 469/492/469
f 469/492/469 479/502/479 480/503/480 470/493/470
f 470/493/470 480/503/480 481/504/481 471/494/471
f 471/494/471 481/504/481 482/505/482 472/495/472
f 472/495/472 482/505/482 483/506/483 473/496/473
f 473/496/473 483/506/483 484/507/484 474/497/474
f 474/497/474 484/507/484 485/508/485 475/498/475
f 475/498/475 485/508/485 486/509/486 476/499/476
f 476/499/476 486/509/486 487/510/487 477/500/477
f 477/500/477 487/510/487 488/433/488 478/431/478
f 73/501/73 72/511/72 489/512/489 479/502/479
f 479/502/479 489/512/489 490/513/490 480/503/480
f 480/503/480 490/513/490 491/514/491 481/504/481
f 481/504/481 491/514/491 492/515/492 482/505/482
f 482/505/482 492/515/492 493/516/493 483/506/483
f 483/506/483 493/516/493 494/517/494 484/507/484
f 484/507/484 494/517/494 495/518/495 485/508/485
f 485/508/485 495/518/495 496/519/496 486/509/486
f 486/509/486 496/519/496 497/520/497 487/510/487
f 487/510/487 497/520/497 498/435/498 488/433/488
f 72/511/72 71/521/71 499/522/499 489/512/489
f 489/512/489 499/522/499 500/523/500 490/513/490
f 490/513/490 500/523/500 501/524/501 491/514/491
f 491/514/491 501/524/501 502/525/502 492/515/492
f 492/515/492 502/525/502 503/526/503 493/516/493
f 493/516/493 503/526/503 504/527/504 494/517/494
f 494/517/494 504/527/504 505/528/505 495/518/495
f 495/518/495 505/528/505 506/529/506 496/519/496
f 496/519/496 506/529/506 507/530/507 497/520/497
f 497/520/497 507/530/507 508/437/508 498/435/498
f 71/521/71 70/531/70 509/532/509 499/522/499
f 499/522/499 509/532/509 510/533/510 500/523/500
f 500/523/500 510/533/510 511/534/511 501/524/501
f 501/524/501 511/534/511 512/535/512 502/525/502
f 502/525/502 512/535/512 513/536/513 503/526/503
f 503/526/503 513/536/513 514/537/514 504/527/504
f 504/527/504 514/537/514 515/538/515 505/528/505
f 505/528/505 515/538/515 516/539/516 506/529/506
f 506/529/506 516/539/516 517/540/517 507/530/507
f 507/530/507 517/540/517 518/439/518 508/437/508
f 70/531/70 69/8/69 519/541/519 509/532/509
f 509/532/509 519/541/519 520/542/520 510/533/510
f 510/533/510 520/542/520 521/543/521 511/534/511
f 511/534/511 521/543/521 522/544/522 512/535/512
f 512/535/512 522/544/522 523/545/523 513/536/513
f 513/536/513 523/545/523 524/546/524 514/537/514
f 514/537/514 524/546/524 525/547/525 515/538/515
f 515/538/515 525/547/525 526/548/526 516/539/516
f 516/539/516 526/548/526 527/549/527 517/540/517
f 517/540/517 527/549/527 528/9/528 518/439/518
f 69/8/69 8/7/8 89/550/89 519/541/519
f 519/541/519 89/550/89 90/551/90 520/542/520
f 520/542/520 90/551/90 91/552/91 521/543/521
f 521/543/521 91/552/91 92/553/92 522/544/522
f 522/544/522 92/553/92 93/554/93 523/545/523
f 523/545/523 93/554/93 94/555/94 524/546/524
f 524/546/524 94/555/94 95/556/95 525/547/525
f 525/547/525 95/556/95 96/557/96 526/548/526
f 526/548/526 96/557/96 97/558/97 527/549/527
f 527/549/527 97/558/97 98/10/98 528/9/528
f 49/559/49 538/560/538 78/442/78 7/441/7
f 538/560/538 548/561/548 77/461/77 78/442/78
f 548/561/548 558/562/558 76/471/76 77/461/77
f 558/562/558 568/563/568 75/481/75 76/471/76
f 568/563/568 578/564/578 74/491/74 75/481/75
f 578/564/578 588/565/588 73/501/73 74/491/74
f 588/565/588 598/566/598 72/511/72 73/501/73
f 598/566/598 608/567/608 71/521/71 72/511/72
f 608/567/608 618/568/618 70/531/70 71/521/71
f 618/568/618 628/5/628 69/8/69 70/531/70
f 3/569/3 48/570/48 529/571/529 58/572/58
f 58/572/58 529/571/529 530/573/530 57/574/57
f 57/574/57 530/573/530 531/575/531 56/576/56
f 56/576/56 531/575/531 532/577/532 55/578/55
f 55/578/55 532/577/532 533/579/533 54/580/54
f 54/580/54 533/579/533 534/581/534 53/582/53
f 53/582/53 534/581/534 535/583/535 52/584/52
f 52/584/52 535/583/535 536/585/536 51/586/51
f 51/586/51 536/585/536 537/587/537 50/588/50
f 50/588/50 537/587/537 538/560/538 49/559/49
f 48/570/48 47/589/47 539/590/539 529/571/529
f 529/571/529 539/590/539 540/591/540 530/573/530
f 530/573/530 540/591/540 541/592/541 531/575/531
f 531/575/531 541/592/541 542/593/542 532/577/532
f 532/577/532 542/593/542 543/594/543 533/579/533
f 533/579/533 543/594/543 544/595/544 534/581/534
f 534/581/534 544/595/544 545/596/545 535/583/535
f 535/583/535 545/596/545 546/597/546 536/585/536
f 536/585/536 546/597/546 547/598/547 537/587/537
f 537/587/537 547/598/547 548/561/548 538/560/538
f 47/589/47 46/599/46 549/600/549 539/590/539
f 539/590/539 549/600/549 550/601/550 540/591/540
f 540/591/540 550/601/550 551/602/551 541/592/541
f 541/592/541 551/602/551 552/603/552 542/593/542
f 542/593/542 552/603/552 553/604/553 543/594/543
f 543/594/543 553/604/553 554/605/554 544/595/544
f 544/595/544 554/605/554 555/606/555 545/596/545
f 545/596/545 555/606/555 556/607/556 546/597/546
f 546/597/546 556/607/556 557/608/557 547/598/547
f 547/598/547 557/608/557 558/562/558 548/561/548
f 46/599/46 45/609/45 559/610/559 549/600/549
f 549/600/549 559/610/559 560/611/560 550/601/550
f 550/601/550 560/611/560 561/612/561 551/602/551
f 551/602/551 561/612/561 562/613/562 552/603/552
f 552/603/552 562/613/562 563/614/563 553/604/553
f 553/604/553 563/614/563 564/615/564 554/605/554
f 554/605/554 564/615/564 565/616/565 555/606/555
f 555/606/555 565/616/565 566/617/566 556/607/556
f 556/607/556 566/617/566 567/618/567 557/608/557
f 557/608/557 567/618/567 568/563/568 558/562/558
f 45/609/45 44/619/44 569/620/569 559/610/559
f 559/610/559 569/620/569 570/621/570 560/611/560
f 560/611/560 570/621/570 571/622/571 561/612/561
f 561/612/561 571/622/571 572/623/572 562/613/562
f 562/613/562 572/623/572 573/624/573 563/614/563
f 563/614/563 573/624/573 574/625/574 564/615/564
f 564/615/564 574/625/574 575/626/575 565/616/565
f 565/616/565 575/626/575 576/627/576 566/617/566
f 566/617/566 576/627/576 577/628/577 567/618/567
f 567/618/567 577/628/577 578/564/578 568/563/568
f 44/619/44 43/629/43 579/630/579 569/620/569
f 569/620/569 579/630/579 580/631/580 570/621/570
f 570/621/570 580/631/580 581/632/581 571/622/571
f 571/622/571 581/632/581 582/633/582 572/623/572
f 572/623/572 582/633/582 583/634/583 573/624/573
f 573/624/573 583/634/583 584/635/584 574/625/574
f 574/625/574 584/635/584 585/636/585 575/626/575
f 575/626/575 585/636/585 586/637/586 576/627/576
f 576/627/576 586/637/586 587/638/587 577/628/577
f 577/628/577 587/638/587 588/565/588 578/564/578
f 43/629/43 42/639/42 589/640/589 579/630/579
f 579/630/579 589/640/589 590/641/590 580/631/580
f 580/631/580 590/641/590 591/642/591 581/632/581
f 581/632/581 591/642/591 592/643/592 582/633/582
f 582/633/582 592/643/592 593/644/593 583/634/583
f 583/634/583 593/644/593 594/645/594 584/635/584
f 584/635/584 594/645/594 595/646/595 585/636/585
f 585/636/585 595/646/595 596/647/596 586/637/586
f 586/637/586 596/647/596 597/648/597 587/638/587
f 587/638/587 597/648/597 598/566/598 588/565/588
f 42/639/42 41/649/41 599/650/599 589/640/589
f 589/640/589 599/650/599 600/651/600 590/641/590
f 590/641/590 600/651/600 601/652/601 591/642/591
f 591/642/591 601/652/601 602/653/602 592/643/592
f 592/643/592 602/653/602 603/654/603 593/644/593
f 593/644/593 603/654/603 604/655/604 594/645/594
f 594/645/594 604/655/604 605/656/605 595/646/595
f 595/646/595 605/656/605 606/657/606 596/647/596
f 596/647/596 606/657/606 607/658/607 597/648/597
f 597/648/597 607/658/607 608/567/608 598/566/598
f 41/649/41 40/659/40 609/660/609 599/650/599
f 599/650/599 609/660/609 610/661/610 600/651/600
f 600/651/600 610/661/610 611/662/611 601/652/601
f 601/652/601 611/662/611 612/663/612 602/653/602
f 602/653/602 612/663/612 613/664/613 603/654/603
f 603/654/603 613/664/613 614/665/614 604/655/604
f 604/655/604 614/665/614 615/666/615 605/656/605
f 605/656/605 615/666/615 616/667/616 606/657/606
f 606/657/606 616/667/616 617/668/617 607/658/607
f 607/658/607 617/668/617 618/568/618 608/567/608
f 40/659/40 39/4/39 619/669/619 609/660/609
f 609/660/609 619/669/619 620/670/620 610/661/610
f 610/661/610 620/670/620 621/671/621 611/662/611
f 611/662/611 621/671/621 622/672/622 612/663/612
f 612/663/612 622/672/622 623/673/623 613/664/613
f 613/664/613 623/673/623 624/674/624 614/665/614
f 614/665/614 624/674/624 625/675/625 615/666/615
f 615/666/615 625/675/625 626/676/626 616/667/616
f 616/667/616 626/676/626 627/677/627 617/668/617
f 617/668/617 627/677/627 628/5/628 618/568/618
f 39/4/39 4/3/4 59/678/59 619/669/619
f 619/669/619 59/678/59 60/679/60 620/670/620
f 620/670/620 60/679/60 61/680/61 621/671/621
f 621/671/621 61/680/61 62/681/62 622/672/622
f 622/672/622 62/681/62 63/682/63 623/673/623
f 623/673/623 63/682/63 64/683/64 624/674/624
f 624/674/624 64/683/64 65/684/65 625/675/625
f 625/675/625 65/684/65 66/685/66 626/676/626
f 626/676/626 66/685/66 67/686/67 627/677/627
f 627/677/627 67/686/67 68/6/68 628/5/628
f 9/687/9 638/688/638 48/570/48 3/569/3
f 638/688/638 648/689/648 47/589/47 48/570/48
f 648/689/648 658/690/658 46/599/46 47/589/47
f 658/690/658 668/691/668 45/609/45 46/599/46
f 668/691/668 678/692/678 44/619/44 45/609/45
f 678/692/678 688/693/688 43/629/43 44/619/44
f 688/693/688 698/694/698 42/639/42 43/629/43
f 698/694/698 708/695/708 41/649/41 42/639/42
f 708/695/708 718/696/718 40/659/40 41/649/41
f 718/696/718 728/1/728 39/4/39 40/659/40
f 1/697/1 19/698/19 629/699/629 18/700/18
f 18/700/18 629/699/629 630/701/630 17/702/17
f 17/702/17 630/701/630 631/703/631 16/704/16
f 16/704/16 631/703/631 632/705/632 15/706/15
f 15/706/15 632/705/632 633/707/633 14/708/14
f 14/708/14 633/707/633 634/709/634 13/710/13
f 13/710/13 634/709/634 635/711/635 12/712/12
f 12/712/12 635/711/635 636/713/636 11/714/11
f 11/714/11 636/713/636 637/715/637 10/716/10
f 10/716/10 637/715/637 638/688/638 9/687/9
f 19/698/19 20/717/20 639/718/639 629/699/629
f 629/699/629 639/718/639 640/719/640 630/701/630
f 630/701/630 640/719/640 641/720/641 631/703/631
f 631/703/631 641/720/641 642/721/642 632/705/632
f 632/705/632 642/721/642 643/722/643 633/707/633
f 633/707/633 643/722/643 644/723/644 634/709/634
f 634/709/634 644/723/644 645/724/645 635/711/635
f 635/711/635 645/724/645 646/725/646 636/713/636
f 636/713/636 646/725/646 647/726/647 637/715/637
f 637/715/637 647/726/647 648/689/648 638/688/638
f 20/717/20 21/727/21 649/728/649 639/718/639
f 639/718/639 649/728/649 650/729/650 640/719/640
f 640/719/640 650/729/650 651/730/651 641/720/641
f 641/720/641 651/730/651 652/731/652 642/721/642
f 642/721/642 652/731/652 653/732/653 643/722/643
f 643/722/643 653/732/653 654/733/654 644/723/644
f 644/723/644 654/733/654 655/734/655 645/724/645
f 645/724/645 655/734/655 656/735/656 646/725/646
f 646/725/646 656/735/656 657/736/657 647/726/647
f 647/726/647 657/736/657 658/690/658 648/689/648
f 21/727/21 22/737/22 659/738/659 649/728/649
f 649/728/649 659/738/659 660/739/660 650/729/650
f 650/729/650 660/739/660 661/740/661 651/730/651
f 651/730/651 661/740/661 662/741/662 652/731/652
f 652/731/652 662/741/662 663/742/663 653/732/653
f 653/732/653 663/742/663 664/743/664 654/733/654
f 654/733/654 664/743/664 665/744/665 655/734/655
f 655/734/655 665/744/665 666/745/666 656/735/656
f 656/735/656 666/745/666 667/746/667 657/736/657
f 657/736/657 667/746/667 668/691/668 658/690/658
f 22/737/22 23/747/23 669/748/669 659/738/659
f 659/738/659 669/748/669 670/749/670 660/739/660
f 660/739/660 670/749/670 671/750/671 661/740/661
f 661/740/661 671/750/671 672/751/672 662/741/662
f 662/741/662 672/751/672 673/752/673 663/742/663
f 663/742/663 673/752/673 674/753/674 664/743/664
f 664/743/664 674/753/674 675/754/675 665/744/665
f 665/744/665 675/754/675 676/755/676 666/745/666
f 666/745/666 676/755/676 677/756/677 667/746/667
f 667/746/667 677/756/677 678/692/678 668/691/668
f 23/747/23 24/757/24 679/758/679 669/748/669
f 669/748/669 679/758/679 680/759/680 670/749/670
f 670/749/670 680/759/680 681/760/681 671/750/671
f 671/750/671 681/760/681 682/761/682 672/751/672
f 672/751/672 682/761/682 683/762/683 673/752/673
f 673/752/673 683/762/683 684/763/684 674/753/674
f 674/753/674 684/763/684 685/764/685 675/754/675
f 675/754/675 685/764/685 686/765/686 676/755/676
f 676/755/676 686/765/686 687/766/687 677/756/677
f 677/756/677 687/766/687 688/693/688 678/692/678
f 24/757/24 25/767/25 689/768/689 679/758/679
f 679/758/679 689/768/689 690/769/690 680/759/680
f 680/759/680 690/769/690 691/770/691 681/760/681
f 681/760/681 691/770/691 692/771/692 682/761/682
f 682/761/682 692/771/692 693/772/693 683/762/683
f 683/762/683 693/772/693 694/773/694 684/763/684
f 684/763/684 694/773/694 695/774/695 685/764/685
f 685/764/685 695/774/695 696/775/696 686/765/686
f 686/765/686 696/775/696 697/776/697 687/766/687
f 687/766/687 697/776/697 698/694/698 688/693/688
f 25/767/25 26/777/26 699/778/699 689/768/689
f 689/768/689 699/778/699 700/779/700 690/769/690
f 690/769/690 700/779/700 701/780/701 691/770/691
f 691/770/691 701/780/701 702/781/702 692/771/692
f 692/771/692 702/781/702 703/782/703 693/772/693
f 693/772/693 703/782/703 704/783/704 694/773/694
f 694/773/694 704/783/704 705/784/705 695/774/695
f 695/774/695 705/784/705 706/785/706 696/775/696
f 696/775/696 706/785/706 707/786/707 697/776/697
f 697/776/697 707/786/707 708/695/708 698/694/698
f 26/777/26 27/787/27 709/788/709 699/778/699
f 699/778/699 709/788/709 710/789/710 700/779/700
f 700/779/700 710/789/710 711/790/711 701/780/701
f 701/780/701 711/790/711 712/791/712 702/781/702
f 702/781/702 712/791/712 713/792/713 703/782/703
f 703/782/703 713/792/713 714/793/714 704/783/704
f 704/783/704 714/793/714 715/794/715 705/784/705
f 705/784/705 715/794/715 716/795/716 706/785/706
f 706/785/706 716/795/716 717/796/717 707/786/707
f 707/786/707 717/796/717 718/696/718 708/695/708
f 27/787/27 28/797/28 719/798/719 709/788/709
f 709/788/709 719/798/719 720/799/720 710/789/710
f 710/789/710 720/799/720 721/800/721 711/790/711
f 711/790/711 721/800/721 722/801/722 712/791/712
f 712/791/712 722/801/722 723/802/723 713/792/713
f 713/792/713 723/802/723 724/803/724 714/793/714
f 714/793/714 724/803/724 725/804/725 715/794/715
f 715/794/715 725/804/725 726/805/726 716/795/716
f 716/795/716 726/805/726 727/806/727 717/796/717
f 717/796/717 727/806/727 728/1/728 718/696/718
f 28/797/28 2/807/2 29/808/29 719/798/719
f 719/798/719 29/808/29 30/809/30 720/799/720
f 720/799/720 30/809/30 31/810/31 721/800/721
f 721/800/721 31/810/31 32/811/32 722/801/722
f 722/801/722 32/811/32 33/812/33 723/802/723
f 723/802/723 33/812/33 34/813/34 724/803/724
f 724/803/724 34/813/34 35/814/35 725/804/725
f 725/804/725 35/814/35 36/815/36 726/805/726
f 726/805/726 36/815/36 37/816/37 727/806/727
f 727/806/727 37/816/37 38/2/38 728/1/728
