mtllib Asset 3.mtl
# Vertex Positions: 
g groupNumber_0
v 1.82212 1.77636e-15 -0.44125
v -3.55271e-15 -1.82216 -0.44125
v -1.82216 1.77636e-15 -0.44125
v -3.55271e-15 1.82216 -0.44125
v 1.82212 1.77636e-15 0.44125
v -3.55271e-15 -1.82216 0.44125
v -1.82216 1.77636e-15 0.44125
v -3.55271e-15 1.82216 0.44125
v 0.911061 -0.911078 0
v -0.911078 -0.911078 0
v -0.911078 0.911078 0
v 0.911061 0.911078 0
v 2.22152 1.77636e-15 -0.44125
v -3.55271e-15 2.22152 -0.44125
v -2.22152 1.77636e-15 -0.44125
v -3.55271e-15 -2.22152 -0.44125
v 2.22152 1.77636e-15 0.44125
v -3.55271e-15 2.22152 0.44125
v -2.22152 1.77636e-15 0.44125
v -3.55271e-15 -2.22152 0.44125
v 1.11076 1.11076 0
v -1.11076 1.11076 0
v -1.11076 -1.11076 0
v 1.11076 -1.11076 0


# Vertex Texture Coordinates :
vt 0.452293 0.248483
vt 0.248483 0.0446702
vt 0.0446702 0.248483
vt 0.248483 0.452297
vt 0.496967 0.248483
vt 0.248483 0.496967
vt 0 0.248483
vt 0.248483 0
vt 0.044674 0.751517
vt 0.248483 0.547703
vt 0.452297 0.751517
vt 0.248483 0.95533
vt 0 0.751517
vt 0.248483 1
vt 0.496967 0.751517
vt 0.248483 0.503033
vt 0.503057 2.61721e-05
vt 0.791289 2.61721e-05
vt 0.503055 0.104855
vt 0.791291 0.104855
vt 0.503055 0.209684
vt 0.791291 0.209684
vt 0.503057 0.314513
vt 0.791289 0.314513
vt 0.503057 0.0987363
vt 0.791289 0.0987363
vt 0.503055 0.203565
vt 0.791291 0.203565
vt 0.503055 0.308394
vt 0.791291 0.308394
vt 0.503057 0.413223
vt 0.791289 0.413223
vt 0.647173 0.0493812
vt 0.647173 0.15421
vt 0.647173 0.259039
vt 0.647173 0.363868
vt 0.503075 0.419342
vt 0.854484 0.419342
vt 0.503075 0.524171
vt 0.854484 0.524171
vt 0.503075 0.629
vt 0.854484 0.629
vt 0.503075 0.733829
vt 0.854484 0.733829
vt 0.503075 0.518052
vt 0.854484 0.518052
vt 0.503075 0.622881
vt 0.854484 0.622881
vt 0.503075 0.72771
vt 0.854484 0.72771
vt 0.503075 0.832539
vt 0.854484 0.832539
vt 0.678779 0.468697
vt 0.678779 0.573526
vt 0.678779 0.678355
vt 0.678779 0.783184


# Vertex Surface Normals: 
vn 0 0 1
vn 0 0 -1
vn -0.707113 0.7071 -1.08666e-17
vn -0.707113 0.7071 -2.75905e-18
vn -0.707113 0.7071 -2.43844e-17
vn -0.707113 0.7071 2.44923e-17
vn -0.707113 0.7071 4.61176e-17
vn 0.707107 0.707107 1.21828e-17
vn 0.707107 0.707107 -2.58091e-17
vn 0.707107 0.707107 -4.74327e-17
vn 0.707107 0.707107 1.44346e-18
vn 0.707107 0.707107 2.30671e-17
vn 0.707107 -0.707107 -2.80567e-17
vn 0.707107 -0.707107 4.1683e-17
vn 0.707107 -0.707107 6.33066e-17
vn 0.707107 -0.707107 1.44304e-17
vn 0.707107 -0.707107 -7.19324e-18
vn -0.707113 -0.7071 2.67417e-17
vn -0.707113 -0.7071 -1.3116e-17
vn -0.707113 -0.7071 8.50934e-18
vn -0.707113 -0.7071 -4.03674e-17
vn -0.707113 -0.7071 -6.19927e-17
vn 0.707107 0.707107 1.64696e-17
vn 0.707107 0.707107 6.72645e-18
vn 0.707107 0.707107 -3.17551e-18
vn 0.707107 0.707107 -3.96657e-17
vn 0.707107 0.707107 -2.97637e-17
vn -0.707107 0.707107 -1.64696e-17
vn -0.707107 0.707107 -1.25145e-19
vn -0.707107 0.707107 -3.4258e-18
vn -0.707107 0.707107 3.30644e-17
vn -0.707107 0.707107 3.6365e-17
vn -0.707107 -0.707107 1.38659e-17
vn -0.707107 -0.707107 2.72889e-18
vn -0.707107 -0.707107 6.02955e-18
vn -0.707107 -0.707107 -3.04606e-17
vn -0.707107 -0.707107 -3.37613e-17
vn 0.707107 -0.707107 -1.38659e-17
vn 0.707107 -0.707107 7.02514e-17
vn 0.707107 -0.707107 6.69508e-17
vn 0.707107 -0.707107 -4.25197e-17
vn 0.707107 -0.707107 -3.92191e-17


# Faces: 
usemtl material0
f 20/8/1 6/2/1 19/7/1
f 6/2/1 20/8/1 17/5/1
f 19/7/1 7/3/1 18/6/1
f 7/3/1 19/7/1 6/2/1
f 5/1/1 17/5/1 8/4/1
f 17/5/1 5/1/1 6/2/1
f 8/4/1 18/6/1 7/3/1
f 18/6/1 8/4/1 17/5/1
f 2/10/2 16/16/2 15/15/2
f 16/16/2 2/10/2 13/13/2
f 3/11/2 15/15/2 14/14/2
f 15/15/2 3/11/2 2/10/2
f 13/13/2 1/9/2 4/12/2
f 1/9/2 13/13/2 2/10/2
f 14/14/2 4/12/2 3/11/2
f 4/12/2 14/14/2 13/13/2
f 9/33/3 1/17/4 2/18/5
f 9/33/3 2/18/5 6/26/6
f 9/33/3 6/26/6 5/25/7
f 9/33/3 5/25/7 1/17/4
f 10/34/8 2/19/9 3/20/10
f 10/34/8 3/20/10 7/28/11
f 10/34/8 7/28/11 6/27/12
f 10/34/8 6/27/12 2/19/9
f 11/35/13 3/21/14 4/22/15
f 11/35/13 4/22/15 8/30/16
f 11/35/13 8/30/16 7/29/17
f 11/35/13 7/29/17 3/21/14
f 12/36/18 4/23/19 1/24/20
f 12/36/18 1/24/20 5/32/21
f 12/36/18 5/32/21 8/31/22
f 12/36/18 8/31/22 4/23/19
f 21/53/23 13/37/24 14/38/25
f 21/53/23 14/38/25 18/46/26
f 21/53/23 18/46/26 17/45/27
f 21/53/23 17/45/27 13/37/24
f 22/54/28 14/39/29 15/40/30
f 22/54/28 15/40/30 19/48/31
f 22/54/28 19/48/31 18/47/32
f 22/54/28 18/47/32 14/39/29
f 23/55/33 15/41/34 16/42/35
f 23/55/33 16/42/35 20/50/36
f 23/55/33 20/50/36 19/49/37
f 23/55/33 19/49/37 15/41/34
f 24/56/38 16/43/39 13/44/40
f 24/56/38 13/44/40 17/52/41
f 24/56/38 17/52/41 20/51/42
f 24/56/38 20/51/42 16/43/39
