mtllib Asset 1.mtl
# Vertex Positions: 
g groupNumber_0
v -12.2452 2.62141 -1.5885
v -3.86789 2.62141 -1.5885
v -4.66823 0.159402 -1.5885
v -5.46806 -2.3026 -1.5885
v -8.85689 0.159403 -1.5885
v -12.2452 2.62141 1.5885
v -3.86789 2.62141 1.5885
v -4.66823 0.159402 1.5885
v -5.46806 -2.3026 1.5885
v -8.85689 0.159403 1.5885
v -8.05655 2.62141 0
v -4.26806 1.3904 0
v -5.06814 -1.0716 0
v -7.16247 -1.0716 0
v -10.551 1.3904 0
v -2.88331 -5.32541 -1.5885
v -0.788399 -6.84814 -1.5885
v -4.17863 -9.31056 -1.5885
v -7.56887 -11.7735 -1.5885
v -6.27379 -7.78808 -1.5885
v -4.97872 -3.80317 -1.5885
v -2.88331 -5.32541 1.5885
v -0.788399 -6.84814 1.5885
v -4.17863 -9.31056 1.5885
v -7.56887 -11.7735 1.5885
v -6.27379 -7.78808 1.5885
v -4.97872 -3.80317 1.5885
v -1.83585 -6.08678 0
v -2.48352 -8.07935 0
v -5.87375 -10.542 0
v -6.92133 -9.78078 0
v -5.62625 -5.79563 0
v -3.93101 -4.56429 0
v 2.58789 3.55097 -1.5885
v -2.58776 3.55097 -1.5885
v -1.29426 7.53371 -1.5885
v -0.0002654 11.516 -1.5885
v 1.28792 7.55072 -1.5885
v 2.57661 3.58549 -1.5885
v 2.5825 3.56823 -1.5885
v 2.58789 3.55097 1.5885
v -2.58776 3.55097 1.5885
v -1.29426 7.53371 1.5885
v -0.0002654 11.516 1.5885
v 1.28792 7.55072 1.5885
v 2.57661 3.58549 1.5885
v 2.5825 3.56823 1.5885
v 6.85515e-05 3.55097 0
v -1.94101 5.54234 0
v -0.647263 9.52483 0
v 0.643829 9.53334 0
v 1.93226 5.56811 0
v 2.57955 3.57686 0
v 2.5852 3.5596 0
v 3.78263 -0.12818 -1.5885
v 4.67608 -2.8776 -1.5885
v 2.33758 -4.57645 -1.5885
v -0.000928999 -6.2758 -1.5885
v -2.33993 -4.5767 -1.5885
v -4.67794 -2.8776 -1.5885
v -3.78423 -0.12818 -1.5885
v -2.89053 2.62074 -1.5885
v 2.88867 2.62074 -1.5885
v 3.78263 -0.12818 1.5885
v 4.67608 -2.8776 1.5885
v 2.33758 -4.57645 1.5885
v -0.000928999 -6.2758 1.5885
v -2.33993 -4.5767 1.5885
v -4.67794 -2.8776 1.5885
v -3.78423 -0.12818 1.5885
v -2.89053 2.62074 1.5885
v 2.88867 2.62074 1.5885
v 4.22935 -1.50289 0
v 3.50683 -3.72702 0
v 1.16832 -5.42613 0
v -1.17043 -5.42625 0
v -3.50893 -3.72715 0
v -4.23109 -1.50289 0
v -3.33738 1.24628 0
v -0.000927923 2.62074 0
v 3.33565 1.24628 0
v 6.27193 -7.78799 -1.5885
v 7.56701 -11.7741 -1.5885
v 4.17669 -9.31023 -1.5885
v 0.785875 -6.84682 -1.5885
v 2.88112 -5.32458 -1.5885
v 4.97686 -3.80185 -1.5885
v 6.27193 -7.78799 1.5885
v 7.56701 -11.7741 1.5885
v 4.17669 -9.31023 1.5885
v 0.785875 -6.84682 1.5885
v 2.88112 -5.32458 1.5885
v 4.97686 -3.80185 1.5885
v 6.91947 -9.78107 0
v 5.87185 -10.5422 0
v 2.48128 -8.07852 0
v 1.8335 -6.0857 0
v 3.92899 -4.56321 0
v 5.6244 -5.79492 0
v 3.86405 2.62141 -1.5885
v 12.2434 2.62141 -1.5885
v 8.88043 0.177662 -1.5885
v 5.51601 -2.26608 -1.5885
v 5.49044 -2.28501 -1.5885
v 5.46488 -2.30393 -1.5885
v 4.66446 0.158739 -1.5885
v 3.86405 2.62141 1.5885
v 12.2434 2.62141 1.5885
v 8.88043 0.177662 1.5885
v 5.51601 -2.26608 1.5885
v 5.49044 -2.28501 1.5885
v 5.46488 -2.30393 1.5885
v 4.66446 0.158739 1.5885
v 8.0537 2.62141 0
v 10.5619 1.39953 0
v 7.19822 -1.04421 0
v 5.50322 -2.27554 0
v 5.47766 -2.29447 0
v 5.06467 -1.07259 0
v 4.26425 1.39007 0
v 14.1168 3.04703 -1.5885
v 14.1201 3.10545 -1.5885
v 14.113 3.19047 -1.5885
v 14.0916 3.27187 -1.5885
v 14.0561 3.34725 -1.5885
v 14.0066 3.41426 -1.5885
v 13.9432 3.47051 -1.5885
v 13.866 3.51362 -1.5885
v 13.7752 3.54123 -1.5885
v 13.6709 3.55097 -1.5885
v 3.56393 3.55097 -1.5885
v 2.1066 8.03551 -1.5885
v 0.649762 12.5205 -1.5885
v 0.559131 12.7992 -1.5885
v 0.468498 13.0783 -1.5885
v 0.460109 13.1335 -1.5885
v 0.444336 13.1848 -1.5885
v 0.421824 13.2319 -1.5885
v 0.39322 13.275 -1.5885
v 0.359169 13.3138 -1.5885
v 0.320318 13.3485 -1.5885
v 0.277312 13.3789 -1.5885
v 0.230796 13.405 -1.5885
v 0.201084 13.4199 -1.5885
v 0.170376 13.4328 -1.5885
v 0.129375 13.4443 -1.5885
v 0.0873792 13.4528 -1.5885
v 0.046342 13.4593 -1.5885
v 0.005473 13.4621 -1.5885
v -0.0443355 13.4594 -1.5885
v -0.0879078 13.4528 -1.5885
v -0.129905 13.4445 -1.5885
v -0.170905 13.4328 -1.5885
v -0.201531 13.4204 -1.5885
v -0.230663 13.405 -1.5885
v -0.277207 13.3789 -1.5885
v -0.320288 13.3485 -1.5885
v -0.359246 13.3138 -1.5885
v -0.393418 13.275 -1.5885
v -0.422144 13.2319 -1.5885
v -0.444761 13.1848 -1.5885
v -0.460609 13.1335 -1.5885
v -0.469027 13.0783 -1.5885
v -1.97093 8.45538 -1.5885
v -3.47283 3.83249 -1.5885
v -3.51864 3.69173 -1.5885
v -3.56446 3.55097 -1.5885
v -13.6714 3.55097 -1.5885
v -13.7755 3.54123 -1.5885
v -13.8662 3.5136 -1.5885
v -13.9432 3.47046 -1.5885
v -14.0066 3.41419 -1.5885
v -14.0561 3.34716 -1.5885
v -14.0916 3.27176 -1.5885
v -14.113 3.19036 -1.5885
v -14.1201 3.10534 -1.5885
v -14.1168 3.04699 -1.5885
v -14.1069 2.98881 -1.5885
v -14.0904 2.93154 -1.5885
v -14.0671 2.8759 -1.5885
v -14.0372 2.82264 -1.5885
v -14.0004 2.7725 -1.5885
v -13.9569 2.7262 -1.5885
v -13.9065 2.68448 -1.5885
v -9.94654 -0.192501 -1.5885
v -5.98662 -3.06949 -1.5885
v -5.87699 -3.14916 -1.5885
v -5.76685 -3.22884 -1.5885
v -7.23099 -7.73504 -1.5885
v -8.69562 -12.2402 -1.5885
v -8.79688 -12.5514 -1.5885
v -8.89813 -12.8631 -1.5885
v -8.91267 -12.9237 -1.5885
v -8.91736 -12.9842 -1.5885
v -8.91466 -13.0306 -1.5885
v -8.9068 -13.0763 -1.5885
v -8.8941 -13.1208 -1.5885
v -8.87689 -13.164 -1.5885
v -8.85551 -13.2055 -1.5885
v -8.83029 -13.2449 -1.5885
v -8.80155 -13.2821 -1.5885
v -8.76964 -13.3166 -1.5885
v -8.73488 -13.3482 -1.5885
v -8.6976 -13.3766 -1.5885
v -8.65813 -13.4015 -1.5885
v -8.61682 -13.4225 -1.5885
v -8.57398 -13.4394 -1.5885
v -8.52995 -13.4518 -1.5885
v -8.48506 -13.4595 -1.5885
v -8.43964 -13.4621 -1.5885
v -8.38245 -13.4578 -1.5885
v -8.32561 -13.4445 -1.5885
v -8.26976 -13.4215 -1.5885
v -8.21557 -13.3883 -1.5885
v -4.25557 -10.5115 -1.5885
v -0.295067 -7.63428 -1.5885
v -0.147582 -7.5273 -1.5885
v 0.000400351 -7.41982 -1.5885
v 3.84288 -10.2117 -1.5885
v 7.68586 -13.0032 -1.5885
v 7.95103 -13.196 -1.5885
v 8.21571 -13.3883 -1.5885
v 8.2699 -13.4215 -1.5885
v 8.32575 -13.4445 -1.5885
v 8.38259 -13.4578 -1.5885
v 8.43978 -13.4621 -1.5885
v 8.4852 -13.4595 -1.5885
v 8.53008 -13.4518 -1.5885
v 8.57411 -13.4394 -1.5885
v 8.61695 -13.4225 -1.5885
v 8.65827 -13.4015 -1.5885
v 8.69773 -13.3766 -1.5885
v 8.73501 -13.3482 -1.5885
v 8.76977 -13.3166 -1.5885
v 8.80169 -13.2821 -1.5885
v 8.83042 -13.2449 -1.5885
v 8.85565 -13.2055 -1.5885
v 8.87703 -13.164 -1.5885
v 8.89423 -13.1208 -1.5885
v 8.90693 -13.0763 -1.5885
v 8.9148 -13.0306 -1.5885
v 8.91749 -12.9842 -1.5885
v 8.91281 -12.9237 -1.5885
v 8.89827 -12.8631 -1.5885
v 7.38558 -8.20804 -1.5885
v 5.87189 -3.55352 -1.5885
v 5.81969 -3.39218 -1.5885
v 5.76698 -3.23083 -1.5885
v 9.57162 -0.466306 -1.5885
v 13.3768 2.29872 -1.5885
v 13.6414 2.49102 -1.5885
v 13.9066 2.68382 -1.5885
v 13.9569 2.72565 -1.5885
v 14.0005 2.77207 -1.5885
v 14.0372 2.82232 -1.5885
v 14.0671 2.87568 -1.5885
v 14.0904 2.93141 -1.5885
v 14.1069 2.98877 -1.5885
v 14.1168 3.04703 1.5885
v 14.1201 3.10545 1.5885
v 14.113 3.19047 1.5885
v 14.0916 3.27187 1.5885
v 14.0561 3.34725 1.5885
v 14.0066 3.41426 1.5885
v 13.9432 3.47051 1.5885
v 13.866 3.51362 1.5885
v 13.7752 3.54123 1.5885
v 13.6709 3.55097 1.5885
v 3.56393 3.55097 1.5885
v 2.1066 8.03551 1.5885
v 0.649762 12.5205 1.5885
v 0.559131 12.7992 1.5885
v 0.468498 13.0783 1.5885
v 0.460109 13.1335 1.5885
v 0.444336 13.1848 1.5885
v 0.421824 13.2319 1.5885
v 0.39322 13.275 1.5885
v 0.359169 13.3138 1.5885
v 0.320318 13.3485 1.5885
v 0.277312 13.3789 1.5885
v 0.230796 13.405 1.5885
v 0.201084 13.4199 1.5885
v 0.170376 13.4328 1.5885
v 0.129375 13.4443 1.5885
v 0.0873792 13.4528 1.5885
v 0.046342 13.4593 1.5885
v 0.005473 13.4621 1.5885
v -0.0443355 13.4594 1.5885
v -0.0879078 13.4528 1.5885
v -0.129905 13.4445 1.5885
v -0.170905 13.4328 1.5885
v -0.201531 13.4204 1.5885
v -0.230663 13.405 1.5885
v -0.277207 13.3789 1.5885
v -0.320288 13.3485 1.5885
v -0.359246 13.3138 1.5885
v -0.393418 13.275 1.5885
v -0.422144 13.2319 1.5885
v -0.444761 13.1848 1.5885
v -0.460609 13.1335 1.5885
v -0.469027 13.0783 1.5885
v -1.97093 8.45538 1.5885
v -3.47283 3.83249 1.5885
v -3.51864 3.69173 1.5885
v -3.56446 3.55097 1.5885
v -13.6714 3.55097 1.5885
v -13.7755 3.54123 1.5885
v -13.8662 3.5136 1.5885
v -13.9432 3.47046 1.5885
v -14.0066 3.41419 1.5885
v -14.0561 3.34716 1.5885
v -14.0916 3.27176 1.5885
v -14.113 3.19036 1.5885
v -14.1201 3.10534 1.5885
v -14.1168 3.04699 1.5885
v -14.1069 2.98881 1.5885
v -14.0904 2.93154 1.5885
v -14.0671 2.8759 1.5885
v -14.0372 2.82264 1.5885
v -14.0004 2.7725 1.5885
v -13.9569 2.7262 1.5885
v -13.9065 2.68448 1.5885
v -9.94654 -0.192501 1.5885
v -5.98662 -3.06949 1.5885
v -5.87699 -3.14916 1.5885
v -5.76685 -3.22884 1.5885
v -7.23099 -7.73504 1.5885
v -8.69562 -12.2402 1.5885
v -8.79688 -12.5514 1.5885
v -8.89813 -12.8631 1.5885
v -8.91267 -12.9237 1.5885
v -8.91736 -12.9842 1.5885
v -8.91466 -13.0306 1.5885
v -8.9068 -13.0763 1.5885
v -8.8941 -13.1208 1.5885
v -8.87689 -13.164 1.5885
v -8.85551 -13.2055 1.5885
v -8.83029 -13.2449 1.5885
v -8.80155 -13.2821 1.5885
v -8.76964 -13.3166 1.5885
v -8.73488 -13.3482 1.5885
v -8.6976 -13.3766 1.5885
v -8.65813 -13.4015 1.5885
v -8.61682 -13.4225 1.5885
v -8.57398 -13.4394 1.5885
v -8.52995 -13.4518 1.5885
v -8.48506 -13.4595 1.5885
v -8.43964 -13.4621 1.5885
v -8.38245 -13.4578 1.5885
v -8.32561 -13.4445 1.5885
v -8.26976 -13.4215 1.5885
v -8.21557 -13.3883 1.5885
v -4.25557 -10.5115 1.5885
v -0.295067 -7.63428 1.5885
v -0.147582 -7.5273 1.5885
v 0.000400351 -7.41982 1.5885
v 3.84288 -10.2117 1.5885
v 7.68586 -13.0032 1.5885
v 7.95103 -13.196 1.5885
v 8.21571 -13.3883 1.5885
v 8.2699 -13.4215 1.5885
v 8.32575 -13.4445 1.5885
v 8.38259 -13.4578 1.5885
v 8.43978 -13.4621 1.5885
v 8.4852 -13.4595 1.5885
v 8.53008 -13.4518 1.5885
v 8.57411 -13.4394 1.5885
v 8.61695 -13.4225 1.5885
v 8.65827 -13.4015 1.5885
v 8.69773 -13.3766 1.5885
v 8.73501 -13.3482 1.5885
v 8.76977 -13.3166 1.5885
v 8.80169 -13.2821 1.5885
v 8.83042 -13.2449 1.5885
v 8.85565 -13.2055 1.5885
v 8.87703 -13.164 1.5885
v 8.89423 -13.1208 1.5885
v 8.90693 -13.0763 1.5885
v 8.9148 -13.0306 1.5885
v 8.91749 -12.9842 1.5885
v 8.91281 -12.9237 1.5885
v 8.89827 -12.8631 1.5885
v 7.38558 -8.20804 1.5885
v 5.87189 -3.55352 1.5885
v 5.81969 -3.39218 1.5885
v 5.76698 -3.23083 1.5885
v 9.57162 -0.466306 1.5885
v 13.3768 2.29872 1.5885
v 13.6414 2.49102 1.5885
v 13.9066 2.68382 1.5885
v 13.9569 2.72565 1.5885
v 14.0005 2.77207 1.5885
v 14.0372 2.82232 1.5885
v 14.0671 2.87568 1.5885
v 14.0904 2.93141 1.5885
v 14.1069 2.98877 1.5885
v 14.1185 3.07624 0
v 14.1166 3.14796 0
v 14.1023 3.23117 0
v 14.0738 3.30956 0
v 14.0313 3.38076 0
v 13.9749 3.44238 0
v 13.9046 3.49207 0
v 13.8206 3.52743 0
v 13.7231 3.5461 0
v 8.61741 3.55097 0
v 2.83526 5.79324 0
v 1.37818 10.278 0
v 0.604446 12.6599 0
v 0.513814 12.9387 0
v 0.464304 13.1059 0
v 0.452222 13.1592 0
v 0.43308 13.2084 0
v 0.407522 13.2535 0
v 0.376195 13.2944 0
v 0.339744 13.3312 0
v 0.298815 13.3637 0
v 0.254054 13.3919 0
v 0.21594 13.4124 0
v 0.18573 13.4264 0
v 0.149876 13.4386 0
v 0.108377 13.4485 0
v 0.0668606 13.456 0
v 0.0259075 13.4607 0
v -0.0194312 13.4608 0
v -0.0661216 13.4561 0
v -0.108906 13.4487 0
v -0.150405 13.4387 0
v -0.186218 13.4266 0
v -0.216097 13.4127 0
v -0.253935 13.3919 0
v -0.298748 13.3637 0
v -0.339767 13.3312 0
v -0.376332 13.2944 0
v -0.407781 13.2535 0
v -0.433452 13.2084 0
v -0.452685 13.1592 0
v -0.464818 13.1059 0
v -1.21998 10.7668 0
v -2.72188 6.14394 0
v -3.49574 3.76211 0
v -3.54155 3.62135 0
v -8.61794 3.55097 0
v -13.7235 3.5461 0
v -13.8209 3.52741 0
v -13.9047 3.49203 0
v -13.9749 3.44232 0
v -14.0313 3.38067 0
v -14.0738 3.30946 0
v -14.1023 3.23106 0
v -14.1166 3.14785 0
v -14.1185 3.07616 0
v -14.1119 3.0179 0
v -14.0987 2.96017 0
v -14.0788 2.90372 0
v -14.0522 2.84927 0
v -14.0188 2.79757 0
v -13.9786 2.74935 0
v -13.9317 2.70534 0
v -11.9265 1.24599 0
v -7.96658 -1.63099 0
v -5.9318 -3.10932 0
v -5.82192 -3.189 0
v -6.49892 -5.48194 0
v -7.9633 -9.98765 0
v -8.74625 -12.3958 0
v -8.84751 -12.7072 0
v -8.9054 -12.8934 0
v -8.91501 -12.954 0
v -8.91601 -13.0074 0
v -8.91073 -13.0535 0
v -8.90045 -13.0986 0
v -8.88549 -13.1424 0
v -8.8662 -13.1847 0
v -8.8429 -13.2252 0
v -8.81592 -13.2635 0
v -8.7856 -13.2993 0
v -8.75226 -13.3324 0
v -8.71624 -13.3624 0
v -8.67787 -13.389 0
v -8.63748 -13.412 0
v -8.5954 -13.4309 0
v -8.55196 -13.4456 0
v -8.5075 -13.4556 0
v -8.46235 -13.4608 0
v -8.41105 -13.46 0
v -8.35403 -13.4511 0
v -8.29769 -13.433 0
v -8.24267 -13.4049 0
v -6.23557 -11.9499 0
v -2.27532 -9.0729 0
v -0.221325 -7.58079 0
v -0.0735909 -7.47356 0
v 1.92164 -8.81578 0
v 5.76437 -11.6074 0
v 7.81845 -13.0996 0
v 8.08337 -13.2921 0
v 8.2428 -13.4049 0
v 8.29782 -13.433 0
v 8.35417 -13.4511 0
v 8.41118 -13.46 0
v 8.46249 -13.4608 0
v 8.50764 -13.4556 0
v 8.5521 -13.4456 0
v 8.59553 -13.4309 0
v 8.63761 -13.412 0
v 8.678 -13.389 0
v 8.71637 -13.3624 0
v 8.75239 -13.3324 0
v 8.78573 -13.2993 0
v 8.81606 -13.2635 0
v 8.84303 -13.2252 0
v 8.86634 -13.1847 0
v 8.88563 -13.1424 0
v 8.90058 -13.0986 0
v 8.91087 -13.0535 0
v 8.91615 -13.0074 0
v 8.91515 -12.954 0
v 8.90554 -12.8934 0
v 8.14192 -10.5355 0
v 6.62873 -5.88078 0
v 5.84579 -3.47285 0
v 5.79334 -3.3115 0
v 7.6693 -1.84857 0
v 11.4742 0.916205 0
v 13.5091 2.39487 0
v 13.774 2.58742 0
v 13.9318 2.70474 0
v 13.9787 2.74886 0
v 14.0188 2.79719 0
v 14.0522 2.849 0
v 14.0788 2.90355 0
v 14.0987 2.96009 0
v 14.1119 3.0179 0


# Vertex Texture Coordinates :
vt 0.0345918 0.296778
vt 0.18915 0.296778
vt 0.174384 0.251355
vt 0.159628 0.205932
vt 0.0971052 0.251355
vt 0.207316 0.150162
vt 0.245966 0.122068
vt 0.183417 0.0766377
vt 0.120869 0.0311978
vt 0.144762 0.104727
vt 0.168656 0.178247
vt 0.308257 0.313928
vt 0.212768 0.313928
vt 0.236633 0.387408
vt 0.260507 0.460879
vt 0.284273 0.387722
vt 0.308049 0.314565
vt 0.308158 0.314247
vt 0.3303 0.246049
vt 0.346783 0.195324
vt 0.303639 0.16398
vt 0.260494 0.132628
vt 0.217341 0.163976
vt 0.174205 0.195324
vt 0.190694 0.246049
vt 0.207182 0.296766
vt 0.313806 0.296766
vt 0.376226 0.104729
vt 0.40012 0.0311855
vt 0.33757 0.0766438
vt 0.275011 0.122093
vt 0.313667 0.150178
vt 0.352333 0.178271
vt 0.331802 0.296778
vt 0.486397 0.296778
vt 0.424352 0.251692
vt 0.36228 0.206606
vt 0.361808 0.206257
vt 0.361337 0.205908
vt 0.346569 0.251343
vt 0.520962 0.304631
vt 0.521023 0.305709
vt 0.520891 0.307277
vt 0.520496 0.308779
vt 0.519841 0.31017
vt 0.518928 0.311406
vt 0.517758 0.312444
vt 0.516335 0.313239
vt 0.514659 0.313749
vt 0.512734 0.313928
vt 0.326265 0.313928
vt 0.299377 0.396666
vt 0.272499 0.479414
vt 0.270827 0.484554
vt 0.269155 0.489704
vt 0.269 0.490723
vt 0.268709 0.491669
vt 0.268294 0.492539
vt 0.267766 0.493333
vt 0.267138 0.49405
vt 0.266421 0.494689
vt 0.265628 0.49525
vt 0.26477 0.495731
vt 0.264221 0.496006
vt 0.263655 0.496245
vt 0.262898 0.496457
vt 0.262124 0.496613
vt 0.261366 0.496733
vt 0.260612 0.496785
vt 0.259694 0.496735
vt 0.25889 0.496613
vt 0.258115 0.496461
vt 0.257358 0.496245
vt 0.256793 0.496016
vt 0.256256 0.495731
vt 0.255397 0.49525
vt 0.254602 0.494689
vt 0.253884 0.49405
vt 0.253253 0.493333
vt 0.252723 0.492539
vt 0.252306 0.491669
vt 0.252013 0.490723
vt 0.251858 0.489704
vt 0.224149 0.404413
vt 0.196439 0.319122
vt 0.195594 0.316525
vt 0.194749 0.313928
vt 0.00827876 0.313928
vt 0.00635784 0.313749
vt 0.00468533 0.313239
vt 0.0032636 0.312443
vt 0.00209505 0.311405
vt 0.00118203 0.310168
vt 0.000526931 0.308777
vt 0.000132129 0.307275
vt 0 0.305707
vt 6.07399e-05 0.30463
vt 0.000243449 0.303557
vt 0.000548864 0.3025
vt 0.00097772 0.301474
vt 0.00153075 0.300491
vt 0.00220869 0.299566
vt 0.00301228 0.298712
vt 0.00394225 0.297942
vt 0.0770014 0.244863
vt 0.15006 0.191783
vt 0.152083 0.190313
vt 0.154115 0.188843
vt 0.127102 0.105705
vt 0.10008 0.022586
vt 0.0982123 0.0168454
vt 0.0963441 0.0110955
vt 0.096076 0.00997654
vt 0.0959895 0.00886019
vt 0.0960392 0.0080036
vt 0.0961843 0.00716147
vt 0.0964186 0.00633943
vt 0.0967361 0.00554311
vt 0.0971305 0.00477815
vt 0.0975959 0.00405017
vt 0.098126 0.00336481
vt 0.0987148 0.00272769
vt 0.0993562 0.00214444
vt 0.100044 0.00162069
vt 0.100772 0.00116207
vt 0.101534 0.000774212
vt 0.102325 0.000462746
vt 0.103137 0.0002333
vt 0.103965 9.15039e-05
vt 0.104803 4.29875e-05
vt 0.105858 0.00012261
vt 0.106907 0.000368879
vt 0.107937 0.000792896
vt 0.108937 0.00140576
vt 0.181998 0.0544805
vt 0.255068 0.107564
vt 0.257789 0.109538
vt 0.260519 0.111521
vt 0.331411 0.0600114
vt 0.402313 0.00851077
vt 0.407205 0.00495368
vt 0.412088 0.00140576
vt 0.413088 0.000792896
vt 0.414118 0.000368879
vt 0.415167 0.00012261
vt 0.416222 4.29875e-05
vt 0.41706 9.15036e-05
vt 0.417888 0.000233299
vt 0.418701 0.000462744
vt 0.419491 0.00077421
vt 0.420253 0.00116207
vt 0.420982 0.00162068
vt 0.421669 0.00214443
vt 0.422311 0.00272768
vt 0.422899 0.0033648
vt 0.42343 0.00405016
vt 0.423895 0.00477814
vt 0.424289 0.0055431
vt 0.424607 0.00633941
vt 0.424841 0.00716144
vt 0.424986 0.00800357
vt 0.425036 0.00886017
vt 0.42495 0.00997653
vt 0.424681 0.0110955
vt 0.396773 0.0969789
vt 0.368846 0.182853
vt 0.367883 0.18583
vt 0.36691 0.188807
vt 0.437104 0.239811
vt 0.507308 0.290825
vt 0.512191 0.294373
vt 0.517083 0.29793
vt 0.518012 0.298702
vt 0.518815 0.299558
vt 0.519492 0.300485
vt 0.520045 0.301469
vt 0.520474 0.302498
vt 0.520779 0.303556
vt 0.486431 0.799993
vt 0.331873 0.799993
vt 0.346639 0.75457
vt 0.361395 0.709147
vt 0.423918 0.75457
vt 0.313707 0.653377
vt 0.275057 0.625283
vt 0.337606 0.579852
vt 0.400154 0.534412
vt 0.376261 0.607942
vt 0.352367 0.681462
vt 0.212766 0.817143
vt 0.308255 0.817143
vt 0.28439 0.890623
vt 0.260516 0.964094
vt 0.23675 0.890937
vt 0.212974 0.81778
vt 0.212865 0.817461
vt 0.190723 0.749264
vt 0.17424 0.698538
vt 0.217384 0.667195
vt 0.260529 0.635843
vt 0.303682 0.66719
vt 0.346818 0.698538
vt 0.330329 0.749264
vt 0.313841 0.799981
vt 0.207217 0.799981
vt 0.144797 0.607943
vt 0.120903 0.5344
vt 0.183453 0.579858
vt 0.246012 0.625308
vt 0.207356 0.653392
vt 0.16869 0.681486
vt 0.189221 0.799993
vt 0.034626 0.799993
vt 0.0966708 0.754907
vt 0.158743 0.70982
vt 0.159215 0.709471
vt 0.159686 0.709122
vt 0.174454 0.754557
vt 6.07762e-05 0.807845
vt 0 0.808923
vt 0.000132029 0.810492
vt 0.000526676 0.811994
vt 0.00118178 0.813384
vt 0.00209518 0.814621
vt 0.00326471 0.815658
vt 0.00468822 0.816454
vt 0.00636354 0.816963
vt 0.00828851 0.817143
vt 0.194758 0.817143
vt 0.221646 0.899881
vt 0.248524 0.982628
vt 0.250196 0.987769
vt 0.251868 0.992918
vt 0.252023 0.993938
vt 0.252314 0.994883
vt 0.252729 0.995753
vt 0.253257 0.996547
vt 0.253885 0.997264
vt 0.254602 0.997904
vt 0.255395 0.998464
vt 0.256253 0.998945
vt 0.256802 0.999221
vt 0.257368 0.99946
vt 0.258125 0.999671
vt 0.258899 0.999827
vt 0.259656 0.999948
vt 0.260411 1
vt 0.261329 0.99995
vt 0.262133 0.999827
vt 0.262908 0.999676
vt 0.263665 0.99946
vt 0.26423 0.99923
vt 0.264767 0.998945
vt 0.265626 0.998464
vt 0.266421 0.997904
vt 0.267139 0.997264
vt 0.26777 0.996547
vt 0.2683 0.995753
vt 0.268717 0.994883
vt 0.26901 0.993938
vt 0.269165 0.992918
vt 0.296874 0.907628
vt 0.324584 0.822337
vt 0.325429 0.81974
vt 0.326274 0.817143
vt 0.512744 0.817143
vt 0.514665 0.816963
vt 0.516338 0.816453
vt 0.517759 0.815658
vt 0.518928 0.814619
vt 0.519841 0.813383
vt 0.520496 0.811991
vt 0.520891 0.81049
vt 0.521023 0.808921
vt 0.520962 0.807845
vt 0.52078 0.806771
vt 0.520474 0.805715
vt 0.520045 0.804688
vt 0.519492 0.803706
vt 0.518814 0.80278
vt 0.518011 0.801926
vt 0.517081 0.801157
vt 0.444022 0.748077
vt 0.370963 0.694998
vt 0.36894 0.693528
vt 0.366908 0.692058
vt 0.393921 0.60892
vt 0.420943 0.525801
vt 0.422811 0.52006
vt 0.424679 0.51431
vt 0.424947 0.513191
vt 0.425034 0.512075
vt 0.424984 0.511218
vt 0.424839 0.510376
vt 0.424604 0.509554
vt 0.424287 0.508758
vt 0.423892 0.507993
vt 0.423427 0.507265
vt 0.422897 0.506579
vt 0.422308 0.505942
vt 0.421667 0.505359
vt 0.420979 0.504835
vt 0.420251 0.504377
vt 0.419489 0.503989
vt 0.418698 0.503677
vt 0.417886 0.503448
vt 0.417058 0.503306
vt 0.41622 0.503258
vt 0.415165 0.503337
vt 0.414116 0.503583
vt 0.413086 0.504007
vt 0.412086 0.50462
vt 0.339025 0.557695
vt 0.265955 0.610779
vt 0.263234 0.612753
vt 0.260504 0.614736
vt 0.189612 0.563226
vt 0.11871 0.511725
vt 0.113818 0.508168
vt 0.108935 0.50462
vt 0.107935 0.504007
vt 0.106905 0.503583
vt 0.105856 0.503337
vt 0.104801 0.503258
vt 0.103963 0.503306
vt 0.103135 0.503448
vt 0.102322 0.503677
vt 0.101532 0.503989
vt 0.10077 0.504377
vt 0.100041 0.504835
vt 0.0993537 0.505359
vt 0.0987123 0.505942
vt 0.0981235 0.506579
vt 0.0975934 0.507265
vt 0.097128 0.507993
vt 0.0967336 0.508758
vt 0.0964161 0.509554
vt 0.0961818 0.510376
vt 0.0960367 0.511218
vt 0.095987 0.512075
vt 0.0960735 0.513191
vt 0.0963416 0.51431
vt 0.12425 0.600193
vt 0.152177 0.686068
vt 0.15314 0.689044
vt 0.154113 0.692021
vt 0.0839186 0.743026
vt 0.0137152 0.794039
vt 0.00883211 0.797587
vt 0.00393972 0.801144
vt 0.00301088 0.801916
vt 0.00220805 0.802772
vt 0.00153058 0.8037
vt 0.000977781 0.804684
vt 0.000548996 0.805712
vt 0.000243551 0.806771
vt 0.527443 0
vt 0.682002 0
vt 0.688425 0
vt 0.736188 0
vt 0.783948 0
vt 0.790374 0
vt 0.867655 0
vt 0.944928 0
vt 0.527443 0.0586145
vt 0.682002 0.0586145
vt 0.688425 0.0586145
vt 0.736188 0.0586145
vt 0.783948 0.0586145
vt 0.790374 0.0586145
vt 0.867655 0.0586145
vt 0.944928 0.0586145
vt 0.604722 0.0293073
vt 0.712307 0.0293073
vt 0.760068 0.0293073
vt 0.829014 0.0293073
vt 0.906291 0.0293073
vt 0.951373 0
vt 0.999155 0
vt 0.527413 0.0650007
vt 0.60472 0.0650007
vt 0.682032 0.0650007
vt 0.688452 0.0650007
vt 0.765766 0.0650007
vt 0.843071 0.0650007
vt 0.849483 0.0650007
vt 0.897267 0.0650007
vt 0.951373 0.0586145
vt 0.999155 0.0586145
vt 0.527413 0.123615
vt 0.60472 0.123615
vt 0.682032 0.123615
vt 0.688452 0.123615
vt 0.765766 0.123615
vt 0.843071 0.123615
vt 0.849483 0.123615
vt 0.897267 0.123615
vt 0.975264 0.0293073
vt 0.566067 0.0943079
vt 0.643376 0.0943079
vt 0.727109 0.0943079
vt 0.804418 0.0943079
vt 0.873375 0.0943079
vt 0.903669 0.0650007
vt 0.999158 0.0650007
vt 0.527403 0.130001
vt 0.604662 0.130001
vt 0.681914 0.130001
vt 0.688313 0.130001
vt 0.765234 0.130001
vt 0.842158 0.130001
vt 0.842494 0.130001
vt 0.842828 0.130001
vt 0.903669 0.123615
vt 0.999158 0.123615
vt 0.527403 0.188616
vt 0.604662 0.188616
vt 0.681914 0.188616
vt 0.688313 0.188616
vt 0.765234 0.188616
vt 0.842158 0.188616
vt 0.842494 0.188616
vt 0.842828 0.188616
vt 0.951414 0.0943079
vt 0.566033 0.159309
vt 0.643288 0.159309
vt 0.726774 0.159309
vt 0.803696 0.159309
vt 0.842326 0.159309
vt 0.842661 0.159309
vt 0.849251 0.130001
vt 0.902587 0.130001
vt 0.527414 0.195002
vt 0.580742 0.195002
vt 0.634075 0.195002
vt 0.640498 0.195002
vt 0.693836 0.195002
vt 0.747159 0.195002
vt 0.753577 0.195002
vt 0.806916 0.195002
vt 0.860245 0.195002
vt 0.866683 0.195002
vt 0.973307 0.195002
vt 0.909039 0.130001
vt 0.96237 0.130001
vt 0.849251 0.188616
vt 0.902587 0.188616
vt 0.527414 0.253617
vt 0.580742 0.253617
vt 0.634075 0.253617
vt 0.640498 0.253617
vt 0.693836 0.253617
vt 0.747159 0.253617
vt 0.753577 0.253617
vt 0.806916 0.253617
vt 0.860245 0.253617
vt 0.866683 0.253617
vt 0.973307 0.253617
vt 0.909039 0.188616
vt 0.96237 0.188616
vt 0.875919 0.159309
vt 0.554078 0.224309
vt 0.607409 0.224309
vt 0.667167 0.224309
vt 0.720497 0.224309
vt 0.780247 0.224309
vt 0.833581 0.224309
vt 0.919995 0.224309
vt 0.935704 0.159309
vt 0.527389 0.260003
vt 0.604716 0.260003
vt 0.611097 0.260003
vt 0.688421 0.260003
vt 0.765747 0.260003
vt 0.772162 0.260003
vt 0.819943 0.260003
vt 0.867738 0.260003
vt 0.874144 0.260003
vt 0.951471 0.260003
vt 0.527389 0.318617
vt 0.604716 0.318617
vt 0.611097 0.318617
vt 0.688421 0.318617
vt 0.765747 0.318617
vt 0.772162 0.318617
vt 0.819943 0.318617
vt 0.867738 0.318617
vt 0.874144 0.318617
vt 0.951471 0.318617
vt 0.566053 0.28931
vt 0.649759 0.28931
vt 0.727084 0.28931
vt 0.796053 0.28931
vt 0.84384 0.28931
vt 0.912808 0.28931
vt 0.611124 0.325003
vt 0.76572 0.325003
vt 0.772167 0.325003
vt 0.848863 0.325003
vt 0.925581 0.325003
vt 0.926168 0.325003
vt 0.926755 0.325003
vt 0.611136 0.390004
vt 0.658911 0.390004
vt 0.706686 0.390004
vt 0.611124 0.383618
vt 0.76572 0.383618
vt 0.772167 0.383618
vt 0.848863 0.383618
vt 0.925581 0.383618
vt 0.926168 0.383618
vt 0.926755 0.383618
vt 0.611136 0.448619
vt 0.658911 0.448619
vt 0.706686 0.448619
vt 0.688422 0.354311
vt 0.810515 0.354311
vt 0.887222 0.354311
vt 0.925875 0.354311
vt 0.926462 0.354311
vt 0.635023 0.419311
vt 0.682798 0.419311
vt 0.713148 0.390004
vt 0.714227 0.390004
vt 0.715801 0.390004
vt 0.717354 0.390004
vt 0.718892 0.390004
vt 0.720429 0.390004
vt 0.721992 0.390004
vt 0.723623 0.390004
vt 0.725374 0.390004
vt 0.727307 0.390004
vt 0.913777 0.390004
vt 0.527426 0.503215
vt 0.614423 0.503215
vt 0.701426 0.503215
vt 0.706832 0.503215
vt 0.712246 0.503215
vt 0.713277 0.503215
vt 0.714267 0.503215
vt 0.715231 0.503215
vt 0.716184 0.503215
vt 0.717137 0.503215
vt 0.718098 0.503215
vt 0.719069 0.503215
vt 0.720053 0.503215
vt 0.720667 0.503215
vt 0.721282 0.503215
vt 0.722067 0.503215
vt 0.722857 0.503215
vt 0.723624 0.503215
vt 0.72438 0.503215
vt 0.7253 0.503215
vt 0.726113 0.503215
vt 0.726903 0.503215
vt 0.72769 0.503215
vt 0.728299 0.503215
vt 0.728908 0.503215
vt 0.729892 0.503215
vt 0.730865 0.503215
vt 0.731827 0.503215
vt 0.732781 0.503215
vt 0.733736 0.503215
vt 0.734701 0.503215
vt 0.73569 0.503215
vt 0.736722 0.503215
vt 0.826401 0.503215
vt 0.91608 0.503215
vt 0.918811 0.503215
vt 0.921542 0.503215
vt 0.527387 0.568215
vt 0.713856 0.568215
vt 0.715786 0.568215
vt 0.717534 0.568215
vt 0.719164 0.568215
vt 0.720727 0.568215
vt 0.722264 0.568215
vt 0.723802 0.568215
vt 0.725354 0.568215
vt 0.726928 0.568215
vt 0.728007 0.568215
vt 0.729095 0.568215
vt 0.730195 0.568215
vt 0.731308 0.568215
vt 0.732435 0.568215
vt 0.733582 0.568215
vt 0.734755 0.568215
vt 0.735962 0.568215
vt 0.826268 0.568215
vt 0.916573 0.568215
vt 0.919073 0.568215
vt 0.921581 0.568215
vt 0.527412 0.633216
vt 0.614828 0.633216
vt 0.70223 0.633216
vt 0.708267 0.633216
vt 0.714312 0.633216
vt 0.715463 0.633216
vt 0.716583 0.633216
vt 0.717441 0.633216
vt 0.718295 0.633216
vt 0.71915 0.633216
vt 0.720007 0.633216
vt 0.720868 0.633216
vt 0.721732 0.633216
vt 0.722598 0.633216
vt 0.723466 0.633216
vt 0.724333 0.633216
vt 0.725197 0.633216
vt 0.726058 0.633216
vt 0.726913 0.633216
vt 0.727763 0.633216
vt 0.728607 0.633216
vt 0.729447 0.633216
vt 0.730286 0.633216
vt 0.731344 0.633216
vt 0.732422 0.633216
vt 0.733536 0.633216
vt 0.734709 0.633216
vt 0.825012 0.633216
vt 0.915329 0.633216
vt 0.918691 0.633216
vt 0.922065 0.633216
vt 0.527434 0.698217
vt 0.615064 0.698217
vt 0.702696 0.698217
vt 0.708745 0.698217
vt 0.714781 0.698217
vt 0.715953 0.698217
vt 0.717068 0.698217
vt 0.718145 0.698217
vt 0.719203 0.698217
vt 0.720042 0.698217
vt 0.720883 0.698217
vt 0.721727 0.698217
vt 0.722576 0.698217
vt 0.723431 0.698217
vt 0.724292 0.698217
vt 0.725156 0.698217
vt 0.726023 0.698217
vt 0.726891 0.698217
vt 0.727757 0.698217
vt 0.728621 0.698217
vt 0.729482 0.698217
vt 0.730339 0.698217
vt 0.731194 0.698217
vt 0.732049 0.698217
vt 0.732907 0.698217
vt 0.734026 0.698217
vt 0.735177 0.698217
vt 0.825481 0.698217
vt 0.915782 0.698217
vt 0.918911 0.698217
vt 0.922043 0.698217
vt 0.527385 0.763217
vt 0.614153 0.763217
vt 0.700934 0.763217
vt 0.70697 0.763217
vt 0.713019 0.763217
vt 0.714227 0.763217
vt 0.7154 0.763217
vt 0.716549 0.763217
vt 0.717678 0.763217
vt 0.718792 0.763217
vt 0.719893 0.763217
vt 0.720984 0.763217
vt 0.713148 0.448619
vt 0.714227 0.448619
vt 0.715801 0.448619
vt 0.717354 0.448619
vt 0.718892 0.448619
vt 0.720429 0.448619
vt 0.721992 0.448619
vt 0.723623 0.448619
vt 0.725374 0.448619
vt 0.727307 0.448619
vt 0.913777 0.448619
vt 0.527426 0.561829
vt 0.614423 0.561829
vt 0.701426 0.561829
vt 0.706832 0.561829
vt 0.712246 0.561829
vt 0.713277 0.561829
vt 0.714267 0.561829
vt 0.715231 0.561829
vt 0.716184 0.561829
vt 0.717137 0.561829
vt 0.718098 0.561829
vt 0.719069 0.561829
vt 0.720053 0.561829
vt 0.720667 0.561829
vt 0.721282 0.561829
vt 0.722067 0.561829
vt 0.722857 0.561829
vt 0.723624 0.561829
vt 0.72438 0.561829
vt 0.7253 0.561829
vt 0.726113 0.561829
vt 0.726903 0.561829
vt 0.72769 0.561829
vt 0.728299 0.561829
vt 0.728908 0.561829
vt 0.729892 0.561829
vt 0.730865 0.561829
vt 0.731827 0.561829
vt 0.732781 0.561829
vt 0.733736 0.561829
vt 0.734701 0.561829
vt 0.73569 0.561829
vt 0.736722 0.561829
vt 0.826401 0.561829
vt 0.91608 0.561829
vt 0.918811 0.561829
vt 0.921542 0.561829
vt 0.527387 0.62683
vt 0.713856 0.62683
vt 0.715786 0.62683
vt 0.717534 0.62683
vt 0.719164 0.62683
vt 0.720727 0.62683
vt 0.722264 0.62683
vt 0.723802 0.62683
vt 0.725354 0.62683
vt 0.726928 0.62683
vt 0.728007 0.62683
vt 0.729095 0.62683
vt 0.730195 0.62683
vt 0.731308 0.62683
vt 0.732435 0.62683
vt 0.733582 0.62683
vt 0.734755 0.62683
vt 0.735962 0.62683
vt 0.826268 0.62683
vt 0.916573 0.62683
vt 0.919073 0.62683
vt 0.921581 0.62683
vt 0.527412 0.69183
vt 0.614828 0.69183
vt 0.70223 0.69183
vt 0.708267 0.69183
vt 0.714312 0.69183
vt 0.715463 0.69183
vt 0.716583 0.69183
vt 0.717441 0.69183
vt 0.718295 0.69183
vt 0.71915 0.69183
vt 0.720007 0.69183
vt 0.720868 0.69183
vt 0.721732 0.69183
vt 0.722598 0.69183
vt 0.723466 0.69183
vt 0.724333 0.69183
vt 0.725197 0.69183
vt 0.726058 0.69183
vt 0.726913 0.69183
vt 0.727763 0.69183
vt 0.728607 0.69183
vt 0.729447 0.69183
vt 0.730286 0.69183
vt 0.731344 0.69183
vt 0.732422 0.69183
vt 0.733536 0.69183
vt 0.734709 0.69183
vt 0.825012 0.69183
vt 0.915329 0.69183
vt 0.918691 0.69183
vt 0.922065 0.69183
vt 0.527434 0.756831
vt 0.615064 0.756831
vt 0.702696 0.756831
vt 0.708745 0.756831
vt 0.714781 0.756831
vt 0.715953 0.756831
vt 0.717068 0.756831
vt 0.718145 0.756831
vt 0.719203 0.756831
vt 0.720042 0.756831
vt 0.720883 0.756831
vt 0.721727 0.756831
vt 0.722576 0.756831
vt 0.723431 0.756831
vt 0.724292 0.756831
vt 0.725156 0.756831
vt 0.726023 0.756831
vt 0.726891 0.756831
vt 0.727757 0.756831
vt 0.728621 0.756831
vt 0.729482 0.756831
vt 0.730339 0.756831
vt 0.731194 0.756831
vt 0.732049 0.756831
vt 0.732907 0.756831
vt 0.734026 0.756831
vt 0.735177 0.756831
vt 0.825481 0.756831
vt 0.915782 0.756831
vt 0.918911 0.756831
vt 0.922043 0.756831
vt 0.527385 0.821832
vt 0.614153 0.821832
vt 0.700934 0.821832
vt 0.70697 0.821832
vt 0.713019 0.821832
vt 0.714227 0.821832
vt 0.7154 0.821832
vt 0.716549 0.821832
vt 0.717678 0.821832
vt 0.718792 0.821832
vt 0.719893 0.821832
vt 0.720984 0.821832
vt 0.713687 0.419311
vt 0.715014 0.419311
vt 0.716578 0.419311
vt 0.718123 0.419311
vt 0.71966 0.419311
vt 0.72121 0.419311
vt 0.722808 0.419311
vt 0.724498 0.419311
vt 0.726341 0.419311
vt 0.820542 0.419311
vt 0.570924 0.532522
vt 0.657925 0.532522
vt 0.704129 0.532522
vt 0.709539 0.532522
vt 0.712762 0.532522
vt 0.713772 0.532522
vt 0.714749 0.532522
vt 0.715707 0.532522
vt 0.716661 0.532522
vt 0.717618 0.532522
vt 0.718584 0.532522
vt 0.719561 0.532522
vt 0.72036 0.532522
vt 0.720974 0.532522
vt 0.721674 0.532522
vt 0.722462 0.532522
vt 0.723241 0.532522
vt 0.724002 0.532522
vt 0.72484 0.532522
vt 0.725707 0.532522
vt 0.726508 0.532522
vt 0.727296 0.532522
vt 0.727994 0.532522
vt 0.728604 0.532522
vt 0.7294 0.532522
vt 0.730378 0.532522
vt 0.731346 0.532522
vt 0.732304 0.532522
vt 0.733259 0.532522
vt 0.734218 0.532522
vt 0.735196 0.532522
vt 0.736206 0.532522
vt 0.781561 0.532522
vt 0.87124 0.532522
vt 0.917446 0.532522
vt 0.920177 0.532522
vt 0.620622 0.597522
vt 0.714821 0.597522
vt 0.71666 0.597522
vt 0.718349 0.597522
vt 0.719945 0.597522
vt 0.721495 0.597522
vt 0.723033 0.597522
vt 0.724578 0.597522
vt 0.726141 0.597522
vt 0.727468 0.597522
vt 0.728551 0.597522
vt 0.729645 0.597522
vt 0.730752 0.597522
vt 0.731872 0.597522
vt 0.733009 0.597522
vt 0.734169 0.597522
vt 0.735359 0.597522
vt 0.781115 0.597522
vt 0.87142 0.597522
vt 0.917823 0.597522
vt 0.920327 0.597522
vt 0.57112 0.662523
vt 0.658529 0.662523
vt 0.705248 0.662523
vt 0.711289 0.662523
vt 0.714888 0.662523
vt 0.716023 0.662523
vt 0.717012 0.662523
vt 0.717868 0.662523
vt 0.718723 0.662523
vt 0.719579 0.662523
vt 0.720438 0.662523
vt 0.7213 0.662523
vt 0.722165 0.662523
vt 0.723032 0.662523
vt 0.723899 0.662523
vt 0.724765 0.662523
vt 0.725628 0.662523
vt 0.726485 0.662523
vt 0.727338 0.662523
vt 0.728185 0.662523
vt 0.729027 0.662523
vt 0.729867 0.662523
vt 0.730815 0.662523
vt 0.731883 0.662523
vt 0.732979 0.662523
vt 0.734122 0.662523
vt 0.77986 0.662523
vt 0.870171 0.662523
vt 0.91701 0.662523
vt 0.920378 0.662523
vt 0.571249 0.727524
vt 0.65888 0.727524
vt 0.70572 0.727524
vt 0.711763 0.727524
vt 0.715367 0.727524
vt 0.716511 0.727524
vt 0.717606 0.727524
vt 0.718674 0.727524
vt 0.719623 0.727524
vt 0.720462 0.727524
vt 0.721305 0.727524
vt 0.722151 0.727524
vt 0.723004 0.727524
vt 0.723862 0.727524
vt 0.724724 0.727524
vt 0.72559 0.727524
vt 0.726457 0.727524
vt 0.727324 0.727524
vt 0.728189 0.727524
vt 0.729052 0.727524
vt 0.729911 0.727524
vt 0.730767 0.727524
vt 0.731621 0.727524
vt 0.732478 0.727524
vt 0.733467 0.727524
vt 0.734602 0.727524
vt 0.780329 0.727524
vt 0.870632 0.727524
vt 0.917347 0.727524
vt 0.920477 0.727524
vt 0.570769 0.792525
vt 0.657544 0.792525
vt 0.703952 0.792525
vt 0.709995 0.792525
vt 0.713623 0.792525
vt 0.714814 0.792525
vt 0.715975 0.792525
vt 0.717113 0.792525
vt 0.718235 0.792525
vt 0.719343 0.792525
vt 0.720438 0.792525


# Vertex Surface Normals: 
vn 0 0 1
vn 0 0 -1
vn 0 -1 0
vn 0 -1 0
vn 0 -1 0
vn 0 -1 0
vn 0 -1 0
vn -0.951013 0.30915 -4.40371e-19
vn -0.951013 0.30915 1.56671e-16
vn -0.951042 0.309063 7.84202e-17
vn -0.951042 0.309063 -7.76901e-17
vn -0.951013 0.30915 -1.55549e-16
vn -0.95107 0.308976 -4.1018e-19
vn -0.95107 0.308976 4.1018e-19
vn -0.95107 0.308976 4.1018e-19
vn 0.587767 0.809031 1.38494e-18
vn 0.587767 0.809031 2.44478e-17
vn 0.587795 0.80901 1.28897e-17
vn 0.587795 0.80901 -1.2975e-17
vn 0.587767 0.809031 -2.72817e-17
vn 0.587823 0.80899 -1.26764e-18
vn 0.587823 0.80899 1.26764e-18
vn 0.587823 0.80899 1.26764e-18
vn -0.58796 -0.80889 4.16707e-19
vn -0.587851 -0.808969 -8.06202e-17
vn -0.58796 -0.80889 2.28061e-17
vn -0.58796 -0.80889 -1.7732e-17
vn -0.587851 -0.808969 7.9929e-17
vn -0.587671 0.8091 -1.40514e-18
vn -0.587671 0.8091 -1.28794e-17
vn -0.58771 0.809072 -8.06051e-18
vn -0.58771 0.809072 8.18182e-18
vn -0.587671 0.8091 1.96052e-17
vn -0.587749 0.809043 -6.73926e-19
vn -0.587749 0.809043 6.73926e-19
vn -0.587749 0.809043 6.73926e-19
vn 0.951047 -0.309047 -8.8234e-18
vn 0.951047 -0.309047 -1.57136e-16
vn 0.951041 -0.309065 2.96362e-17
vn 0.951041 -0.309065 -4.60444e-17
vn 0.951047 -0.309047 1.42599e-16
vn 0.951035 -0.309082 1.68373e-18
vn 0.951035 -0.309082 2.27515e-16
vn 0.951035 -0.309082 -2.23581e-16
vn -0.587743 -0.809048 6.41604e-18
vn -0.587743 -0.809048 -1.67214e-16
vn -0.587743 -0.809048 1.94422e-16
vn 0 1 0
vn 0 1 0
vn 0 1 0
vn 0 1 0
vn 0 1 0
vn 0.951097 -0.308893 1.53393e-18
vn 0.951097 -0.308893 -5.08531e-17
vn 0.951074 -0.308964 -4.02288e-17
vn 0.951074 -0.308964 4.64882e-17
vn 0.951097 -0.308893 4.08504e-17
vn 0.951051 -0.309035 1.0473e-18
vn 0.951051 -0.309035 -4.72857e-17
vn 0.951051 -0.309035 3.44448e-17
vn -0.95107 -0.308975 1.44212e-18
vn -0.95107 -0.308975 -3.70283e-17
vn -0.951053 -0.309029 -3.98025e-17
vn -0.951053 -0.309029 4.02331e-17
vn -0.95107 -0.308975 4.51491e-17
vn -0.951035 -0.309082 1.82188e-19
vn -0.948743 -0.31605 -2.33169e-17
vn -0.948743 -0.31605 1.56311e-17
vn -0.946399 -0.323001 -5.40542e-20
vn -0.950511 -0.310689 3.40533e-20
vn -0.950511 -0.310689 3.40533e-20
vn -0.954464 -0.298326 -1.40466e-20
vn -0.954464 -0.298326 1.40466e-20
vn -0.954464 -0.298326 1.40466e-20
vn -0.951045 -0.309053 -3.84889e-19
vn -0.951011 -0.309156 -4.13341e-17
vn -0.951045 -0.309053 -7.25692e-17
vn -0.951045 -0.309053 6.97358e-17
vn -0.951011 -0.309156 4.26815e-17
vn -0.587747 0.809045 2.01963e-19
vn -0.587747 0.809045 -9.7354e-17
vn -0.587803 0.809004 -1.13312e-16
vn -0.587803 0.809004 1.1051e-16
vn -0.587747 0.809045 1.01352e-16
vn -0.587859 0.808963 3.65164e-19
vn -0.587859 0.808963 -1.24801e-16
vn -0.587859 0.808963 1.24137e-16
vn 0.587721 0.809063 -7.70964e-19
vn 0.587721 0.809063 1.2528e-16
vn 0.587803 0.809004 6.25471e-17
vn 0.587803 0.809004 -6.19175e-17
vn 0.587721 0.809063 -1.23649e-16
vn 0.587885 0.808945 9.65059e-20
vn 0.587885 0.808945 -9.65059e-20
vn 0.587885 0.808945 -9.65059e-20
vn 0.951019 -0.309131 -3.18638e-19
vn 0.951019 -0.309131 -1.51419e-16
vn 0.951011 -0.309156 -1.20284e-16
vn 0.951011 -0.309156 1.1295e-16
vn 0.951019 -0.309131 1.47003e-16
vn 0.951003 -0.309181 -6.34247e-18
vn 0.951003 -0.309181 -8.72462e-17
vn 0.951003 -0.309181 8.08007e-17
vn 0 -1 0
vn 0 -1 0
vn 0 -1 0
vn 0 -1 0
vn 0 -1 0
vn -0.950978 -0.309259 -1.52652e-20
vn -0.950978 -0.309259 -1.19936e-17
vn -0.950978 -0.309259 1.37327e-17
vn -0.951064 -0.308995 7.28633e-19
vn -0.951064 -0.308995 -8.08018e-17
vn -0.951064 -0.308995 -7.50586e-17
vn -0.951064 -0.308995 7.33316e-17
vn -0.951064 -0.308995 6.9032e-17
vn 0.587895 0.808937 1.46442e-18
vn 0.587895 0.808937 2.70879e-17
vn 0.587828 0.808986 1.07198e-17
vn 0.587828 0.808986 -5.52404e-18
vn 0.587895 0.808937 -3.78772e-17
vn 0.587761 0.809035 -7.67312e-19
vn 0.587761 0.809035 -1.7434e-17
vn 0.587761 0.809035 1.50435e-17
vn 0.587773 -0.809026 -2.04152e-20
vn 0.587773 -0.809026 -1.72943e-17
vn 0.58779 -0.809013 7.96167e-17
vn 0.58779 -0.809013 -8.08936e-17
vn 0.587773 -0.809026 2.32365e-17
vn 0.587808 -0.809001 -7.75034e-19
vn 0.587808 -0.809001 1.80672e-16
vn 0.587808 -0.809001 -1.80879e-16
vn -0.951064 -0.308995 -8.59852e-18
vn -0.951064 -0.308995 -8.32488e-17
vn -0.951064 -0.308995 6.80287e-17
vn 0 -1 0
vn 0 -1 0
vn 0 -1 0
vn 0 -1 0
vn 0 -1 0
vn -0.587854 0.808967 1.76835e-19
vn -0.587854 0.808967 -1.76835e-19
vn -0.587768 0.809029 3.82909e-17
vn -0.587768 0.809029 -3.48084e-17
vn -0.587854 0.808967 -1.76835e-19
vn -0.587683 0.809091 -5.35232e-19
vn -0.591332 0.806428 3.53188e-17
vn -0.591332 0.806428 -3.77812e-17
vn -0.59497 0.803748 -1.26493e-19
vn -0.59497 0.803748 1.43943e-16
vn -0.59497 0.803748 -1.43799e-16
vn -0.59497 0.803748 -1.76227e-20
vn -0.59497 0.803748 2.8776e-16
vn -0.59497 0.803748 -2.87723e-16
vn 0.951028 0.309103 -4.8804e-19
vn 0.951028 0.309103 -1.55686e-16
vn 0.951028 0.309103 -1.18625e-16
vn 0.951028 0.309103 1.17535e-16
vn 0.951028 0.309103 1.56454e-16
vn 0.951028 0.309103 4.47154e-20
vn 0.951028 0.309103 -7.84981e-17
vn 0.951028 0.309103 8.16824e-17
vn 0.998414 -0.0563009 -7.49993e-21
vn 0.993691 -0.112148 -1.81113e-20
vn 0.999905 0.0138168 -4.47598e-20
vn 0.999905 0.0138168 -4.47598e-20
vn 0.993691 -0.112148 -1.81113e-20
vn 0.996477 0.0838665 9.67994e-20
vn 0.985504 0.169653 1.81757e-17
vn 0.985504 0.169653 -1.81667e-17
vn 0.967159 0.25417 -1.04486e-19
vn 0.939856 0.341571 1.83272e-17
vn 0.939856 0.341571 -1.80316e-17
vn 0.904672 0.426108 -1.91157e-19
vn 0.8586 0.512647 5.78652e-20
vn 0.8586 0.512647 5.78652e-20
vn 0.804275 0.594258 7.59831e-20
vn 0.738005 0.674796 5.35034e-17
vn 0.738005 0.674796 -5.38466e-17
vn 0.663707 0.747993 2.65286e-19
vn 0.579143 0.815226 5.3611e-17
vn 0.579143 0.815226 -5.37818e-17
vn 0.487819 0.872945 -9.54207e-20
vn 0.391617 0.920128 6.84061e-17
vn 0.391617 0.920128 -6.86388e-17
vn 0.290919 0.956748 3.2714e-19
vn 0.192877 0.981223 6.82931e-17
vn 0.192877 0.981223 -6.86643e-17
vn 0.0928659 0.995679 4.19121e-20
vn 0.0464832 0.998919 -2.09787e-20
vn 0.0464832 0.998919 -2.09787e-20
vn 0 1 0
vn 0 1 0
vn 0 1 0
vn 0.951043 0.309059 -5.66802e-19
vn 0.951043 0.309059 -4.14722e-17
vn 0.951064 0.308995 -4.50512e-17
vn 0.951064 0.308995 5.20758e-17
vn 0.951043 0.309059 3.77411e-17
vn 0.951084 0.308932 -9.35698e-19
vn 0.951019 0.309132 -2.54835e-17
vn 0.951019 0.309132 2.32423e-17
vn 0.950954 0.309333 1.28814e-19
vn 0.951034 0.309086 6.58704e-18
vn 0.951034 0.309086 -6.1286e-18
vn 0.951114 0.308839 -6.37747e-19
vn 0.973138 0.230222 2.25589e-18
vn 0.973138 0.230222 -1.67819e-18
vn 0.988675 0.150071 7.07848e-20
vn 0.974874 0.222756 4.01683e-20
vn 0.974874 0.222756 4.01683e-20
vn 0.955737 0.294222 -1.50902e-19
vn 0.931602 0.36348 9.87184e-19
vn 0.931602 0.36348 -1.07714e-18
vn 0.902456 0.430783 2.40965e-19
vn 0.869808 0.493391 8.65337e-19
vn 0.869808 0.493391 -1.19858e-18
vn 0.832823 0.553539 9.1101e-20
vn 0.794244 0.607599 5.01186e-20
vn 0.794244 0.607599 5.01186e-20
vn 0.752161 0.65898 -1.91117e-19
vn 0.710216 0.703984 7.12474e-20
vn 0.710216 0.703984 7.12474e-20
vn 0.665583 0.746323 4.88921e-20
vn 0.622301 0.782778 -6.65518e-19
vn 0.622301 0.782778 6.76123e-19
vn 0.577026 0.816725 -5.99511e-20
vn 0.53372 0.845661 -5.91539e-19
vn 0.53372 0.845661 7.49773e-19
vn 0.488967 0.872302 -9.75962e-20
vn 0.469209 0.883087 1.1142e-18
vn 0.469209 0.883087 -9.98428e-19
vn 0.449214 0.893424 -1.7557e-20
vn 0.419092 0.907944 -6.82469e-19
vn 0.419092 0.907944 7.40621e-19
vn 0.3885 0.921449 -4.13668e-20
vn 0.32944 0.944177 -2.98184e-18
vn 0.32944 0.944177 2.95393e-18
vn 0.26906 0.963123 6.97055e-20
vn 0.233479 0.972362 6.01319e-19
vn 0.233479 0.972362 -5.98262e-19
vn 0.197583 0.980286 -7.27431e-20
vn 0.177571 0.984108 1.85664e-18
vn 0.177571 0.984108 -1.73237e-18
vn 0.157486 0.987521 -5.17845e-20
vn 0.113223 0.99357 6.44081e-19
vn 0.113223 0.99357 -5.88617e-19
vn 0.0687345 0.997635 -3.67113e-21
vn 0.00712307 0.999975 1.35301e-19
vn 0.00712307 0.999975 -1.04469e-19
vn -0.0545154 0.998513 -2.71818e-20
vn -0.102713 0.994711 -4.85626e-19
vn -0.102713 0.994711 5.0769e-19
vn -0.15067 0.988584 5.27114e-21
vn -0.171367 0.985207 -1.74197e-18
vn -0.171367 0.985207 1.69214e-18
vn -0.191988 0.981397 4.47348e-20
vn -0.233441 0.972371 3.23186e-18
vn -0.233441 0.972371 -3.20253e-18
vn -0.274474 0.961594 -7.43557e-20
vn -0.325999 0.94537 1.18157e-17
vn -0.325999 0.94537 -1.16462e-17
vn -0.376572 0.926387 -9.4842e-20
vn -0.422935 0.90616 -1.64818e-18
vn -0.422935 0.90616 1.6911e-18
vn -0.468216 0.883614 5.19482e-20
vn -0.47851 0.878082 -8.47547e-18
vn -0.47851 0.878082 8.42645e-18
vn -0.488739 0.87243 -2.81654e-21
vn -0.533263 0.845949 -1.26745e-19
vn -0.533263 0.845949 -1.26745e-19
vn -0.576356 0.817198 2.55965e-19
vn -0.621451 0.783453 -1.49051e-19
vn -0.621451 0.783453 -1.49051e-19
vn -0.664573 0.747223 4.16638e-20
vn -0.709118 0.70509 -1.85193e-19
vn -0.709118 0.70509 -1.85193e-19
vn -0.750996 0.660306 3.28026e-19
vn -0.793112 0.609075 -6.92583e-20
vn -0.793112 0.609075 -6.92583e-20
vn -0.83174 0.555166 -1.89814e-19
vn -0.868873 0.495035 -3.70692e-21
vn -0.868873 0.495035 -3.70692e-21
vn -0.901667 0.432432 1.97209e-19
vn -0.931026 0.364953 -2.16469e-20
vn -0.931026 0.364953 -2.16469e-20
vn -0.955344 0.295497 -1.54033e-19
vn -0.974669 0.223651 9.7302e-20
vn -0.974669 0.223651 9.7302e-20
vn -0.9886 0.150568 -4.00327e-20
vn -0.973062 0.230542 -4.66362e-17
vn -0.973062 0.230542 3.3079e-17
vn -0.951067 0.308986 -8.53515e-18
vn -0.951067 0.308986 -5.42318e-17
vn -0.951067 0.308986 5.95498e-17
vn -0.951067 0.308986 8.7774e-18
vn -0.950986 0.309233 -8.0222e-17
vn -0.950986 0.309233 8.81936e-17
vn -0.950906 0.30948 -2.25361e-19
vn -0.950904 0.309487 1.10519e-19
vn -0.950904 0.309487 1.10314e-19
vn -0.950902 0.309493 1.13708e-20
vn -0.950902 0.309493 1.3407e-16
vn -0.950902 0.309493 -1.341e-16
vn 0 1 0
vn 0 1 0
vn -0.0466122 0.998913 1.10794e-21
vn -0.0466122 0.998913 1.10794e-21
vn 0 1 0
vn -0.0931231 0.995655 -2.21348e-21
vn -0.193318 0.981136 -6.84081e-17
vn -0.193318 0.981136 6.86442e-17
vn -0.291532 0.956561 -2.30708e-19
vn -0.392264 0.919853 -5.76774e-18
vn -0.392264 0.919853 6.17446e-18
vn -0.488487 0.872571 -1.76077e-19
vn -0.579715 0.814819 8.8772e-18
vn -0.579715 0.814819 -8.95246e-18
vn -0.664184 0.747569 2.52236e-19
vn -0.738343 0.674425 -5.36902e-17
vn -0.738343 0.674425 5.36427e-17
vn -0.804492 0.593964 -2.05786e-19
vn -0.858716 0.512452 -3.03169e-17
vn -0.858716 0.512452 3.07958e-17
vn -0.90471 0.426028 -2.70897e-19
vn -0.939858 0.341566 -1.21605e-17
vn -0.939858 0.341566 1.25527e-17
vn -0.96714 0.254246 -1.18184e-19
vn -0.985491 0.169727 1.22261e-17
vn -0.985491 0.169727 -1.21472e-17
vn -0.996471 0.0839381 3.73548e-20
vn -0.999904 0.0138361 -1.00323e-17
vn -0.999904 0.0138361 9.99513e-18
vn -0.998412 -0.056334 2.18041e-22
vn -0.99368 -0.112246 7.99443e-18
vn -0.99368 -0.112246 -8.04079e-18
vn -0.98582 -0.167804 4.66563e-20
vn -0.974798 -0.223088 -7.8528e-18
vn -0.974798 -0.223088 7.86046e-18
vn -0.960679 -0.277663 -5.55194e-20
vn -0.943233 -0.332132 7.85199e-18
vn -0.943233 -0.332132 -7.82535e-18
vn -0.922702 -0.385515 2.87006e-20
vn -0.898612 -0.438745 2.78674e-17
vn -0.898612 -0.438745 -2.76275e-17
vn -0.871454 -0.490478 -2.66988e-19
vn -0.840544 -0.541743 -4.22509e-17
vn -0.840544 -0.541743 4.26805e-17
vn -0.806623 -0.591067 -1.61517e-19
vn -0.768929 -0.639334 6.79008e-18
vn -0.768929 -0.639334 -6.7461e-18
vn -0.728351 -0.685204 1.16347e-19
vn -0.684285 -0.729215 -6.17142e-18
vn -0.684285 -0.729215 6.01695e-18
vn -0.637565 -0.770397 3.95732e-20
vn -0.612975 -0.790102 -5.33783e-17
vn -0.612975 -0.790102 5.71314e-17
vn -0.587776 -0.809023 -3.79173e-18
vn -0.587776 -0.809023 4.37545e-17
vn -0.587776 -0.809023 -5.4223e-17
vn -0.587777 -0.809023 -1.38891e-17
vn -0.587827 -0.808986 -1.82474e-17
vn -0.587827 -0.808986 -2.00352e-18
vn -0.587878 -0.808949 6.64517e-19
vn -0.587007 -0.809582 8.29905e-17
vn -0.587007 -0.809582 -8.297e-17
vn -0.586136 -0.810213 3.92103e-19
vn -0.586136 -0.810213 2.80881e-16
vn -0.586136 -0.810213 -2.79483e-16
vn -0.951058 0.309014 -1.15919e-18
vn -0.951058 0.309014 -1.33823e-17
vn -0.951032 0.309092 3.78259e-18
vn -0.951032 0.309092 -1.06537e-17
vn -0.951058 0.309014 2.74272e-17
vn -0.951007 0.309171 3.80435e-19
vn -0.950961 0.309309 1.83504e-17
vn -0.950961 0.309309 -1.64907e-17
vn -0.950916 0.309448 -4.53512e-19
vn -0.950989 0.309225 2.16096e-19
vn -0.950989 0.309225 2.16096e-19
vn -0.951062 0.309001 2.13201e-20
vn -0.962511 0.271243 -5.37171e-20
vn -0.962511 0.271243 -5.37171e-20
vn -0.972462 0.233062 8.60303e-20
vn -0.987815 0.155634 -1.18016e-20
vn -0.987815 0.155634 -1.18016e-20
vn -0.997013 0.0772362 -6.25006e-20
vn -0.999953 0.00966739 1.95757e-20
vn -0.999953 0.00966739 1.95757e-20
vn -0.99832 -0.0579457 2.34387e-20
vn -0.993476 -0.114042 2.74594e-20
vn -0.993476 -0.114042 2.74594e-20
vn -0.985483 -0.169777 -7.82705e-20
vn -0.974984 -0.222274 1.12649e-19
vn -0.974984 -0.222274 1.12649e-19
vn -0.961691 -0.274134 -1.46705e-19
vn -0.946522 -0.32264 1.31979e-19
vn -0.946522 -0.32264 1.31979e-19
vn -0.928907 -0.370313 -1.16912e-19
vn -0.909912 -0.414801 3.08117e-20
vn -0.909912 -0.414801 3.08117e-20
vn -0.888788 -0.458319 5.53604e-20
vn -0.866603 -0.498999 -1.07845e-19
vn -0.866603 -0.498999 -1.07845e-19
vn -0.842557 -0.538606 1.60098e-19
vn -0.817591 -0.5758 -1.32323e-19
vn -0.817591 -0.5758 -1.32323e-19
vn -0.790983 -0.611838 1.04281e-19
vn -0.763428 -0.645893 -5.34745e-20
vn -0.763428 -0.645893 -5.34745e-20
vn -0.734407 -0.678709 2.56487e-21
vn -0.704268 -0.709934 1.85616e-19
vn -0.704268 -0.709934 1.85616e-19
vn -0.672803 -0.739822 -3.73447e-19
vn -0.639931 -0.768432 2.09868e-20
vn -0.639931 -0.768432 2.09868e-20
vn -0.605844 -0.795584 3.31513e-19
vn -0.569968 -0.821667 -1.20528e-19
vn -0.569968 -0.821667 -1.20528e-19
vn -0.532971 -0.846133 -9.06943e-20
vn -0.493742 -0.869608 4.75481e-20
vn -0.493742 -0.869608 4.75481e-20
vn -0.453482 -0.891266 -4.30259e-21
vn -0.410524 -0.91185 8.7108e-20
vn -0.410524 -0.91185 8.7108e-20
vn -0.366636 -0.930365 -1.69716e-19
vn -0.319627 -0.947543 9.88161e-20
vn -0.319627 -0.947543 9.88161e-20
vn -0.271819 -0.962348 -2.76689e-20
vn -0.220597 -0.975365 -1.11841e-20
vn -0.220597 -0.975365 -1.11841e-20
vn -0.168758 -0.985657 5.00059e-20
vn -0.113459 -0.993543 -2.44853e-20
vn -0.113459 -0.993543 -2.44853e-20
vn -0.0578048 -0.998328 -1.11177e-21
vn 0.00874069 -0.999962 4.50902e-21
vn 0.00874069 -0.999962 4.50902e-21
vn 0.0752474 -0.997165 -7.88629e-21
vn 0.152383 -0.988321 -4.13724e-20
vn 0.152383 -0.988321 -4.13724e-20
vn 0.2286 -0.97352 9.03817e-20
vn 0.30556 -0.952173 1.095e-16
vn 0.30556 -0.952173 -1.09698e-16
vn 0.380571 -0.924752 1.09701e-19
vn 0.45303 -0.891495 -4.07467e-17
vn 0.45303 -0.891495 4.06751e-17
vn 0.522609 -0.852573 -4.02589e-20
vn 0.555598 -0.831451 -1.15233e-16
vn 0.555598 -0.831451 1.19451e-16
vn 0.587735 -0.809053 3.24256e-19
vn 0.587744 -0.809047 -1.37215e-17
vn 0.587744 -0.809047 9.33261e-18
vn 0.587753 -0.80904 3.21767e-18
vn 0.58746 -0.809253 -1.5595e-16
vn 0.58746 -0.809253 1.48632e-16
vn 0.587167 -0.809466 -3.59463e-19
vn 0.587414 -0.809286 -1.03104e-16
vn 0.587414 -0.809286 1.02699e-16
vn 0.587662 -0.809106 -3.32741e-20
vn 0.587662 -0.809106 1.05902e-17
vn 0.587662 -0.809106 -1.05459e-17
vn -0.587811 -0.808998 9.69247e-19
vn -0.587811 -0.808998 1.52094e-16
vn -0.587752 -0.809041 4.91756e-17
vn -0.587752 -0.809041 -6.2643e-17
vn -0.587811 -0.808998 -1.51235e-16
vn -0.587693 -0.809084 -1.91868e-18
vn -0.587879 -0.808949 -1.72326e-16
vn -0.587879 -0.808949 1.86636e-16
vn -0.588066 -0.808813 6.30274e-19
vn -0.58793 -0.808912 -1.60498e-16
vn -0.58793 -0.808912 1.58619e-16
vn -0.587794 -0.809011 1.24498e-18
vn -0.55563 -0.83143 -6.62971e-19
vn -0.55563 -0.83143 -6.62971e-19
vn -0.522611 -0.852571 7.99461e-20
vn -0.453031 -0.891495 9.94251e-20
vn -0.453031 -0.891495 9.94251e-20
vn -0.380572 -0.924751 -2.78164e-19
vn -0.305561 -0.952172 6.53658e-20
vn -0.305561 -0.952172 6.53658e-20
vn -0.228601 -0.97352 1.4785e-19
vn -0.152384 -0.988321 -7.88477e-20
vn -0.152384 -0.988321 -7.88477e-20
vn -0.0752476 -0.997165 9.37061e-21
vn -0.00874081 -0.999962 -1.66728e-17
vn -0.00874081 -0.999962 1.66752e-17
vn 0.0578047 -0.998328 -1.18348e-20
vn 0.113459 -0.993543 -1.66181e-17
vn 0.113459 -0.993543 1.67081e-17
vn 0.168758 -0.985657 -7.79426e-20
vn 0.220597 -0.975365 9.25487e-20
vn 0.220597 -0.975365 9.25487e-20
vn 0.271819 -0.962349 -1.06896e-19
vn 0.319627 -0.947543 2.87481e-20
vn 0.319627 -0.947543 2.87481e-20
vn 0.366635 -0.930365 4.94721e-20
vn 0.410524 -0.91185 1.30607e-16
vn 0.410524 -0.91185 -1.30576e-16
vn 0.453481 -0.891266 -8.08291e-20
vn 0.493742 -0.869609 1.30609e-16
vn 0.493742 -0.869609 -1.30551e-16
vn 0.53297 -0.846134 2.26548e-20
vn 0.569967 -0.821667 -2.33011e-20
vn 0.569967 -0.821667 -2.33011e-20
vn 0.605843 -0.795584 2.39015e-20
vn 0.63993 -0.768433 2.42232e-20
vn 0.63993 -0.768433 2.42232e-20
vn 0.672802 -0.739822 -7.23018e-20
vn 0.704267 -0.709935 -6.88262e-21
vn 0.704267 -0.709935 -6.88262e-21
vn 0.734406 -0.67871 8.60541e-20
vn 0.763427 -0.645894 -1.57941e-20
vn 0.763427 -0.645894 -1.57941e-20
vn 0.790983 -0.611839 -5.44963e-20
vn 0.81759 -0.575801 9.12739e-20
vn 0.81759 -0.575801 9.12739e-20
vn 0.842557 -0.538608 -1.27868e-19
vn 0.866602 -0.499 -2.00365e-20
vn 0.866602 -0.499 -2.00365e-20
vn 0.888787 -0.458321 1.67898e-19
vn 0.909912 -0.414802 -4.74378e-20
vn 0.909912 -0.414802 -4.74378e-20
vn 0.928907 -0.370314 -7.31338e-20
vn 0.946521 -0.322641 -4.25876e-20
vn 0.946521 -0.322641 -4.25876e-20
vn 0.961691 -0.274135 1.58199e-19
vn 0.974984 -0.222275 -1.22248e-19
vn 0.974984 -0.222275 -1.22248e-19
vn 0.985482 -0.169777 8.59463e-20
vn 0.993476 -0.114042 -5.31389e-20
vn 0.993476 -0.114042 -5.31389e-20
vn 0.99832 -0.0579458 2.01629e-20
vn 0.999953 0.00966797 -2.4708e-20
vn 0.999953 0.00966797 -2.4708e-20
vn 0.997013 0.0772375 2.91401e-20
vn 0.987814 0.155637 -3.25644e-20
vn 0.987814 0.155637 -3.25644e-20
vn 0.972461 0.233066 3.57859e-20
vn 0.962503 0.27127 -5.23138e-17
vn 0.962503 0.27127 4.91962e-17
vn 0.951045 0.309051 2.71884e-18
vn 0.951011 0.309158 -1.78924e-17
vn 0.951011 0.309158 1.55062e-17
vn 0.950976 0.309265 1.23165e-18
vn 0.951206 0.308555 -1.00858e-16
vn 0.951206 0.308555 9.83845e-17
vn 0.951436 0.307845 2.52608e-20
vn 0.951006 0.309172 -2.45301e-16
vn 0.951006 0.309172 2.4501e-16
vn 0.950574 0.310498 2.80173e-19
vn 0.950574 0.310498 -2.23317e-16
vn 0.950574 0.310498 2.22755e-16
vn 0.587827 -0.808987 1.88324e-18
vn 0.587827 -0.808987 -1.2065e-16
vn 0.587836 -0.80898 -6.57197e-17
vn 0.587836 -0.80898 5.94869e-17
vn 0.587827 -0.808987 1.29764e-16
vn 0.587845 -0.808973 -2.09061e-18
vn 0.58782 -0.808992 -2.5627e-17
vn 0.58782 -0.808992 2.87497e-17
vn 0.587795 -0.80901 -1.06822e-18
vn 0.58793 -0.808912 -8.12155e-17
vn 0.58793 -0.808912 8.17704e-17
vn 0.588065 -0.808814 4.69805e-19
vn 0.613904 -0.789381 6.46427e-19
vn 0.613904 -0.789381 -1.08352e-18
vn 0.639101 -0.769123 4.50093e-20
vn 0.685632 -0.727948 5.53895e-17
vn 0.685632 -0.727948 -5.51622e-17
vn 0.729516 -0.683963 -2.70154e-19
vn 0.769906 -0.638158 -4.2144e-17
vn 0.769906 -0.638158 4.23717e-17
vn 0.807424 -0.589972 3.99365e-20
vn 0.841182 -0.540752 -7.75366e-17
vn 0.841182 -0.540752 7.72682e-17
vn 0.871943 -0.489607 2.30376e-19
vn 0.898976 -0.437998 -6.29967e-17
vn 0.898976 -0.437998 6.27034e-17
vn 0.922957 -0.384902 6.43591e-20
vn 0.943406 -0.33164 -2.7736e-17
vn 0.943406 -0.33164 2.76699e-17
vn 0.960784 -0.277299 3.79822e-22
vn 0.974859 -0.222824 -2.20576e-20
vn 0.974859 -0.222824 -2.20576e-20
vn 0.985848 -0.167643 4.36656e-20


# Faces: 
usemtl material0
f 340/122/1 352/134/1 339/121/1
f 339/121/1 330/112/1 338/120/1
f 330/112/1 339/121/1 352/134/1
f 342/124/1 352/134/1 341/123/1
f 352/134/1 346/128/1 347/129/1
f 345/127/1 346/128/1 352/134/1
f 352/134/1 344/126/1 345/127/1
f 343/125/1 344/126/1 352/134/1
f 343/125/1 352/134/1 342/124/1
f 352/134/1 340/122/1 341/123/1
f 330/112/1 332/114/1 333/115/1
f 330/112/1 331/113/1 332/114/1
f 333/115/1 334/116/1 330/112/1
f 330/112/1 335/117/1 336/118/1
f 330/112/1 336/118/1 337/119/1
f 338/120/1 330/112/1 337/119/1
f 330/112/1 352/134/1 329/111/1
f 329/111/1 352/134/1 328/110/1
f 335/117/1 330/112/1 334/116/1
f 347/129/1 348/130/1 351/133/1
f 349/131/1 350/132/1 351/133/1
f 25/9/1 328/110/1 352/134/1
f 25/9/1 352/134/1 353/135/1
f 347/129/1 351/133/1 352/134/1
f 25/9/1 327/109/1 328/110/1
f 26/10/1 327/109/1 25/9/1
f 24/8/1 353/135/1 354/136/1
f 327/109/1 26/10/1 27/11/1
f 24/8/1 354/136/1 23/7/1
f 355/137/1 23/7/1 354/136/1
f 25/9/1 353/135/1 24/8/1
f 349/131/1 351/133/1 348/130/1
f 9/4/1 326/108/1 69/24/1
f 324/106/1 325/107/1 9/4/1
f 9/4/1 325/107/1 326/108/1
f 323/105/1 324/106/1 10/5/1
f 326/108/1 27/11/1 69/24/1
f 327/109/1 27/11/1 326/108/1
f 23/7/1 356/138/1 67/22/1
f 356/138/1 23/7/1 355/137/1
f 23/7/1 67/22/1 68/23/1
f 27/11/1 68/23/1 69/24/1
f 68/23/1 27/11/1 22/6/1
f 68/23/1 22/6/1 23/7/1
f 70/25/1 9/4/1 69/24/1
f 10/5/1 324/106/1 9/4/1
f 319/101/1 320/102/1 306/88/1
f 306/88/1 318/100/1 319/101/1
f 306/88/1 317/99/1 318/100/1
f 320/102/1 321/103/1 306/88/1
f 8/3/1 9/4/1 70/25/1
f 8/3/1 70/25/1 7/2/1
f 306/88/1 322/104/1 6/1/1
f 322/104/1 323/105/1 6/1/1
f 306/88/1 321/103/1 322/104/1
f 70/25/1 71/26/1 7/2/1
f 6/1/1 323/105/1 10/5/1
f 306/88/1 6/1/1 305/87/1
f 306/88/1 314/96/1 315/97/1
f 313/95/1 307/89/1 312/94/1
f 314/96/1 306/88/1 313/95/1
f 315/97/1 316/98/1 306/88/1
f 310/92/1 308/90/1 309/91/1
f 308/90/1 310/92/1 311/93/1
f 312/94/1 308/90/1 311/93/1
f 312/94/1 307/89/1 308/90/1
f 313/95/1 306/88/1 307/89/1
f 316/98/1 317/99/1 306/88/1
f 6/1/1 7/2/1 305/87/1
f 305/87/1 71/26/1 42/13/1
f 71/26/1 305/87/1 7/2/1
f 304/86/1 42/13/1 303/85/1
f 42/13/1 304/86/1 305/87/1
f 303/85/1 42/13/1 43/14/1
f 302/84/1 43/14/1 44/15/1
f 43/14/1 302/84/1 303/85/1
f 302/84/1 44/15/1 301/83/1
f 300/82/1 298/80/1 299/81/1
f 301/83/1 297/79/1 300/82/1
f 273/55/1 289/71/1 301/83/1
f 300/82/1 297/79/1 298/80/1
f 301/83/1 296/78/1 297/79/1
f 295/77/1 296/78/1 301/83/1
f 301/83/1 294/76/1 295/77/1
f 293/75/1 294/76/1 301/83/1
f 293/75/1 291/73/1 292/74/1
f 293/75/1 290/72/1 291/73/1
f 288/70/1 286/68/1 287/69/1
f 290/72/1 293/75/1 289/71/1
f 289/71/1 293/75/1 301/83/1
f 288/70/1 289/71/1 285/67/1
f 271/53/1 301/83/1 44/15/1
f 71/26/1 72/27/1 42/13/1
f 67/22/1 356/138/1 91/31/1
f 357/139/1 90/30/1 91/31/1
f 91/31/1 92/32/1 66/21/1
f 90/30/1 357/139/1 89/29/1
f 357/139/1 91/31/1 356/138/1
f 359/141/1 382/164/1 358/140/1
f 360/142/1 382/164/1 359/141/1
f 382/164/1 89/29/1 358/140/1
f 383/165/1 88/28/1 89/29/1
f 358/140/1 89/29/1 357/139/1
f 383/165/1 89/29/1 382/164/1
f 365/147/1 360/142/1 361/143/1
f 384/166/1 88/28/1 383/165/1
f 66/21/1 93/33/1 65/20/1
f 66/21/1 92/32/1 93/33/1
f 113/40/1 64/19/1 112/39/1
f 65/20/1 112/39/1 64/19/1
f 64/19/1 113/40/1 107/34/1
f 65/20/1 93/33/1 386/168/1
f 93/33/1 385/167/1 386/168/1
f 386/168/1 112/39/1 65/20/1
f 110/37/1 386/168/1 387/169/1
f 386/168/1 111/38/1 112/39/1
f 111/38/1 386/168/1 110/37/1
f 93/33/1 384/166/1 385/167/1
f 88/28/1 384/166/1 93/33/1
f 365/147/1 361/143/1 364/146/1
f 364/146/1 361/143/1 363/145/1
f 365/147/1 366/148/1 360/142/1
f 366/148/1 367/149/1 360/142/1
f 369/151/1 360/142/1 368/150/1
f 370/152/1 360/142/1 369/151/1
f 360/142/1 371/153/1 372/154/1
f 370/152/1 371/153/1 360/142/1
f 360/142/1 367/149/1 368/150/1
f 373/155/1 360/142/1 372/154/1
f 382/164/1 373/155/1 374/156/1
f 382/164/1 375/157/1 376/158/1
f 374/156/1 375/157/1 382/164/1
f 376/158/1 377/159/1 382/164/1
f 382/164/1 378/160/1 379/161/1
f 382/164/1 379/161/1 380/162/1
f 381/163/1 382/164/1 380/162/1
f 378/160/1 382/164/1 377/159/1
f 360/142/1 373/155/1 382/164/1
f 361/143/1 362/144/1 363/145/1
f 109/36/1 110/37/1 387/169/1
f 272/54/1 301/83/1 271/53/1
f 274/56/1 277/59/1 273/55/1
f 273/55/1 285/67/1 289/71/1
f 272/54/1 273/55/1 301/83/1
f 47/18/1 269/51/1 46/17/1
f 41/12/1 269/51/1 47/18/1
f 45/16/1 46/17/1 270/52/1
f 269/51/1 270/52/1 46/17/1
f 270/52/1 271/53/1 44/15/1
f 41/12/1 72/27/1 269/51/1
f 72/27/1 41/12/1 42/13/1
f 276/58/1 274/56/1 275/57/1
f 282/64/1 283/65/1 284/66/1
f 285/67/1 281/63/1 284/66/1
f 284/66/1 281/63/1 282/64/1
f 286/68/1 288/70/1 285/67/1
f 273/55/1 277/59/1 278/60/1
f 278/60/1 279/61/1 273/55/1
f 280/62/1 281/63/1 273/55/1
f 273/55/1 279/61/1 280/62/1
f 281/63/1 285/67/1 273/55/1
f 277/59/1 274/56/1 276/58/1
f 45/16/1 270/52/1 44/15/1
f 387/169/1 108/35/1 109/36/1
f 108/35/1 387/169/1 388/170/1
f 268/50/1 108/35/1 388/170/1
f 389/171/1 268/50/1 388/170/1
f 269/51/1 107/34/1 108/35/1
f 107/34/1 72/27/1 64/19/1
f 391/173/1 268/50/1 390/172/1
f 392/174/1 268/50/1 391/173/1
f 394/176/1 268/50/1 393/175/1
f 392/174/1 393/175/1 268/50/1
f 389/171/1 390/172/1 268/50/1
f 268/50/1 394/176/1 395/177/1
f 266/48/1 264/46/1 265/47/1
f 263/45/1 264/46/1 266/48/1
f 268/50/1 261/43/1 267/49/1
f 266/48/1 267/49/1 262/44/1
f 268/50/1 269/51/1 108/35/1
f 259/41/1 260/42/1 268/50/1
f 260/42/1 261/43/1 268/50/1
f 266/48/1 262/44/1 263/45/1
f 267/49/1 261/43/1 262/44/1
f 259/41/1 268/50/1 396/178/1
f 395/177/1 396/178/1 268/50/1
f 107/34/1 269/51/1 72/27/1
f 67/22/1 91/31/1 66/21/1
f 214/312/2 202/300/2 201/299/2
f 192/290/2 201/299/2 200/298/2
f 201/299/2 192/290/2 214/312/2
f 214/312/2 204/302/2 203/301/2
f 208/306/2 214/312/2 209/307/2
f 208/306/2 207/305/2 214/312/2
f 206/304/2 214/312/2 207/305/2
f 206/304/2 205/303/2 214/312/2
f 214/312/2 205/303/2 204/302/2
f 202/300/2 214/312/2 203/301/2
f 194/292/2 192/290/2 195/293/2
f 193/291/2 192/290/2 194/292/2
f 196/294/2 195/293/2 192/290/2
f 197/295/2 192/290/2 198/296/2
f 198/296/2 192/290/2 199/297/2
f 192/290/2 200/298/2 199/297/2
f 214/312/2 192/290/2 191/289/2
f 214/312/2 191/289/2 190/288/2
f 192/290/2 197/295/2 196/294/2
f 210/308/2 209/307/2 213/311/2
f 212/310/2 211/309/2 213/311/2
f 190/288/2 19/187/2 214/312/2
f 214/312/2 19/187/2 215/313/2
f 213/311/2 209/307/2 214/312/2
f 189/287/2 19/187/2 190/288/2
f 189/287/2 20/188/2 19/187/2
f 215/313/2 18/186/2 216/314/2
f 20/188/2 189/287/2 21/189/2
f 216/314/2 18/186/2 17/185/2
f 17/185/2 217/315/2 216/314/2
f 215/313/2 19/187/2 18/186/2
f 213/311/2 211/309/2 210/308/2
f 188/286/2 4/182/2 60/202/2
f 187/285/2 186/284/2 4/182/2
f 187/285/2 4/182/2 188/286/2
f 186/284/2 185/283/2 5/183/2
f 21/189/2 188/286/2 60/202/2
f 21/189/2 189/287/2 188/286/2
f 218/316/2 17/185/2 58/200/2
f 17/185/2 218/316/2 217/315/2
f 58/200/2 17/185/2 59/201/2
f 59/201/2 21/189/2 60/202/2
f 21/189/2 59/201/2 16/184/2
f 16/184/2 59/201/2 17/185/2
f 4/182/2 61/203/2 60/202/2
f 186/284/2 5/183/2 4/182/2
f 182/280/2 181/279/2 168/266/2
f 180/278/2 168/266/2 181/279/2
f 179/277/2 168/266/2 180/278/2
f 183/281/2 182/280/2 168/266/2
f 4/182/2 3/181/2 61/203/2
f 61/203/2 3/181/2 2/180/2
f 184/282/2 168/266/2 1/179/2
f 185/283/2 184/282/2 1/179/2
f 183/281/2 168/266/2 184/282/2
f 62/204/2 61/203/2 2/180/2
f 185/283/2 1/179/2 5/183/2
f 1/179/2 168/266/2 167/265/2
f 176/274/2 168/266/2 177/275/2
f 169/267/2 175/273/2 174/272/2
f 168/266/2 176/274/2 175/273/2
f 178/276/2 177/275/2 168/266/2
f 170/268/2 172/270/2 171/269/2
f 172/270/2 170/268/2 173/271/2
f 170/268/2 174/272/2 173/271/2
f 169/267/2 174/272/2 170/268/2
f 168/266/2 175/273/2 169/267/2
f 179/277/2 178/276/2 168/266/2
f 2/180/2 1/179/2 167/265/2
f 62/204/2 167/265/2 35/191/2
f 167/265/2 62/204/2 2/180/2
f 35/191/2 166/264/2 165/263/2
f 166/264/2 35/191/2 167/265/2
f 35/191/2 165/263/2 36/192/2
f 36/192/2 164/262/2 37/193/2
f 164/262/2 36/192/2 165/263/2
f 37/193/2 164/262/2 163/261/2
f 160/258/2 162/260/2 161/259/2
f 159/257/2 163/261/2 162/260/2
f 151/249/2 135/233/2 163/261/2
f 159/257/2 162/260/2 160/258/2
f 158/256/2 163/261/2 159/257/2
f 158/256/2 157/255/2 163/261/2
f 156/254/2 163/261/2 157/255/2
f 156/254/2 155/253/2 163/261/2
f 153/251/2 155/253/2 154/252/2
f 152/250/2 155/253/2 153/251/2
f 148/246/2 150/248/2 149/247/2
f 155/253/2 152/250/2 151/249/2
f 155/253/2 151/249/2 163/261/2
f 151/249/2 150/248/2 147/245/2
f 163/261/2 133/231/2 37/193/2
f 63/205/2 62/204/2 35/191/2
f 218/316/2 58/200/2 85/209/2
f 84/208/2 219/317/2 85/209/2
f 86/210/2 85/209/2 57/199/2
f 219/317/2 84/208/2 83/207/2
f 85/209/2 219/317/2 218/316/2
f 244/342/2 221/319/2 220/318/2
f 244/342/2 222/320/2 221/319/2
f 83/207/2 244/342/2 220/318/2
f 82/206/2 245/343/2 83/207/2
f 83/207/2 220/318/2 219/317/2
f 83/207/2 245/343/2 244/342/2
f 222/320/2 227/325/2 223/321/2
f 82/206/2 246/344/2 245/343/2
f 87/211/2 57/199/2 56/198/2
f 86/210/2 57/199/2 87/211/2
f 55/197/2 106/218/2 105/217/2
f 105/217/2 56/198/2 55/197/2
f 106/218/2 55/197/2 100/212/2
f 87/211/2 56/198/2 248/346/2
f 247/345/2 87/211/2 248/346/2
f 105/217/2 248/346/2 56/198/2
f 248/346/2 103/215/2 249/347/2
f 104/216/2 248/346/2 105/217/2
f 248/346/2 104/216/2 103/215/2
f 246/344/2 87/211/2 247/345/2
f 246/344/2 82/206/2 87/211/2
f 223/321/2 227/325/2 226/324/2
f 223/321/2 226/324/2 225/323/2
f 228/326/2 227/325/2 222/320/2
f 229/327/2 228/326/2 222/320/2
f 222/320/2 231/329/2 230/328/2
f 222/320/2 232/330/2 231/329/2
f 233/331/2 222/320/2 234/332/2
f 233/331/2 232/330/2 222/320/2
f 229/327/2 222/320/2 230/328/2
f 222/320/2 235/333/2 234/332/2
f 235/333/2 244/342/2 236/334/2
f 237/335/2 244/342/2 238/336/2
f 237/335/2 236/334/2 244/342/2
f 239/337/2 238/336/2 244/342/2
f 240/338/2 244/342/2 241/339/2
f 241/339/2 244/342/2 242/340/2
f 244/342/2 243/341/2 242/340/2
f 244/342/2 240/338/2 239/337/2
f 235/333/2 222/320/2 244/342/2
f 224/322/2 223/321/2 225/323/2
f 103/215/2 102/214/2 249/347/2
f 163/261/2 134/232/2 133/231/2
f 139/237/2 136/234/2 135/233/2
f 147/245/2 135/233/2 151/249/2
f 135/233/2 134/232/2 163/261/2
f 131/229/2 40/196/2 39/195/2
f 131/229/2 34/190/2 40/196/2
f 39/195/2 38/194/2 132/230/2
f 132/230/2 131/229/2 39/195/2
f 133/231/2 132/230/2 37/193/2
f 63/205/2 34/190/2 131/229/2
f 34/190/2 63/205/2 35/191/2
f 136/234/2 138/236/2 137/235/2
f 145/243/2 144/242/2 146/244/2
f 143/241/2 147/245/2 146/244/2
f 143/241/2 146/244/2 144/242/2
f 150/248/2 148/246/2 147/245/2
f 139/237/2 135/233/2 140/238/2
f 141/239/2 140/238/2 135/233/2
f 143/241/2 142/240/2 135/233/2
f 141/239/2 135/233/2 142/240/2
f 147/245/2 143/241/2 135/233/2
f 136/234/2 139/237/2 138/236/2
f 132/230/2 38/194/2 37/193/2
f 101/213/2 249/347/2 102/214/2
f 249/347/2 101/213/2 250/348/2
f 101/213/2 130/228/2 250/348/2
f 130/228/2 251/349/2 250/348/2
f 100/212/2 131/229/2 101/213/2
f 63/205/2 100/212/2 55/197/2
f 130/228/2 253/351/2 252/350/2
f 130/228/2 254/352/2 253/351/2
f 130/228/2 256/354/2 255/353/2
f 255/353/2 254/352/2 130/228/2
f 252/350/2 251/349/2 130/228/2
f 256/354/2 130/228/2 257/355/2
f 126/224/2 128/226/2 127/225/2
f 126/224/2 125/223/2 128/226/2
f 123/221/2 130/228/2 129/227/2
f 129/227/2 128/226/2 124/222/2
f 131/229/2 130/228/2 101/213/2
f 122/220/2 121/219/2 130/228/2
f 123/221/2 122/220/2 130/228/2
f 124/222/2 128/226/2 125/223/2
f 123/221/2 129/227/2 124/222/2
f 130/228/2 121/219/2 258/356/2
f 258/356/2 257/355/2 130/228/2
f 131/229/2 100/212/2 63/205/2
f 85/209/2 58/200/2 57/199/2
f 11/373/3 1/357/4 2/358/5
f 11/373/3 2/358/5 7/366/6
f 11/373/3 7/366/6 6/365/7
f 11/373/3 6/365/7 1/357/4
f 12/374/8 2/359/9 3/360/10
f 12/374/8 3/360/10 8/368/11
f 12/374/8 8/368/11 7/367/12
f 12/374/8 7/367/12 2/359/9
f 13/375/13 3/360/10 4/361/14
f 13/375/13 4/361/14 9/369/15
f 13/375/13 9/369/15 8/368/11
f 13/375/13 8/368/11 3/360/10
f 14/376/16 4/362/17 5/363/18
f 14/376/16 5/363/18 10/371/19
f 14/376/16 10/371/19 9/370/20
f 14/376/16 9/370/20 4/362/17
f 15/377/21 5/363/18 1/364/22
f 15/377/21 1/364/22 6/372/23
f 15/377/21 6/372/23 10/371/19
f 15/377/21 10/371/19 5/363/18
f 28/398/24 16/378/25 17/379/26
f 28/398/24 17/379/26 23/389/27
f 28/398/24 23/389/27 22/388/28
f 28/398/24 22/388/28 16/378/25
f 29/399/29 17/380/30 18/381/31
f 29/399/29 18/381/31 24/391/32
f 29/399/29 24/391/32 23/390/33
f 29/399/29 23/390/33 17/380/30
f 30/400/34 18/381/31 19/382/35
f 30/400/34 19/382/35 25/392/36
f 30/400/34 25/392/36 24/391/32
f 30/400/34 24/391/32 18/381/31
f 31/401/37 19/383/38 20/384/39
f 31/401/37 20/384/39 26/394/40
f 31/401/37 26/394/40 25/393/41
f 31/401/37 25/393/41 19/383/38
f 32/402/42 20/384/39 21/385/43
f 32/402/42 21/385/43 27/395/44
f 32/402/42 27/395/44 26/394/40
f 32/402/42 26/394/40 20/384/39
f 33/403/45 21/386/46 16/387/25
f 33/403/45 16/387/25 22/397/28
f 33/403/45 22/397/28 27/396/47
f 33/403/45 27/396/47 21/386/46
f 48/424/48 34/404/49 35/405/50
f 48/424/48 35/405/50 42/415/51
f 48/424/48 42/415/51 41/414/52
f 48/424/48 41/414/52 34/404/49
f 49/425/53 35/406/54 36/407/55
f 49/425/53 36/407/55 43/417/56
f 49/425/53 43/417/56 42/416/57
f 49/425/53 42/416/57 35/406/54
f 50/426/58 36/407/55 37/408/59
f 50/426/58 37/408/59 44/418/60
f 50/426/58 44/418/60 43/417/56
f 50/426/58 43/417/56 36/407/55
f 51/427/61 37/409/62 38/410/63
f 51/427/61 38/410/63 45/420/64
f 51/427/61 45/420/64 44/419/65
f 51/427/61 44/419/65 37/409/62
f 52/428/66 38/410/63 39/411/67
f 52/428/66 39/411/67 46/421/68
f 52/428/66 46/421/68 45/420/64
f 52/428/66 45/420/64 38/410/63
f 53/429/69 39/411/67 40/412/70
f 53/429/69 40/412/70 47/422/71
f 53/429/69 47/422/71 46/421/68
f 53/429/69 46/421/68 39/411/67
f 54/430/72 40/412/70 34/413/73
f 54/430/72 34/413/73 41/423/74
f 54/430/72 41/423/74 47/422/71
f 54/430/72 47/422/71 40/412/70
f 73/461/75 55/431/76 56/432/77
f 73/461/75 56/432/77 65/447/78
f 73/461/75 65/447/78 64/446/79
f 73/461/75 64/446/79 55/431/76
f 74/462/80 56/433/81 57/434/82
f 74/462/80 57/434/82 66/449/83
f 74/462/80 66/449/83 65/448/84
f 74/462/80 65/448/84 56/433/81
f 75/463/85 57/434/82 58/435/86
f 75/463/85 58/435/86 67/450/87
f 75/463/85 67/450/87 66/449/83
f 75/463/85 66/449/83 57/434/82
f 76/464/88 58/436/89 59/437/90
f 76/464/88 59/437/90 68/452/91
f 76/464/88 68/452/91 67/451/92
f 76/464/88 67/451/92 58/436/89
f 77/465/93 59/437/90 60/438/94
f 77/465/93 60/438/94 69/453/95
f 77/465/93 69/453/95 68/452/91
f 77/465/93 68/452/91 59/437/90
f 78/466/96 60/439/97 61/440/98
f 78/466/96 61/440/98 70/455/99
f 78/466/96 70/455/99 69/454/100
f 78/466/96 69/454/100 60/439/97
f 79/467/101 61/440/98 62/441/102
f 79/467/101 62/441/102 71/456/103
f 79/467/101 71/456/103 70/455/99
f 79/467/101 70/455/99 61/440/98
f 80/468/104 62/442/105 63/443/106
f 80/468/104 63/443/106 72/458/107
f 80/468/104 72/458/107 71/457/108
f 80/468/104 71/457/108 62/442/105
f 81/469/109 63/444/110 55/445/76
f 81/469/109 55/445/76 64/460/79
f 81/469/109 64/460/79 72/459/111
f 81/469/109 72/459/111 63/444/110
f 94/490/112 82/470/113 83/471/114
f 94/490/112 83/471/114 89/481/115
f 94/490/112 89/481/115 88/480/116
f 94/490/112 88/480/116 82/470/113
f 95/491/117 83/472/118 84/473/119
f 95/491/117 84/473/119 90/483/120
f 95/491/117 90/483/120 89/482/121
f 95/491/117 89/482/121 83/472/118
f 96/492/122 84/473/119 85/474/123
f 96/492/122 85/474/123 91/484/124
f 96/492/122 91/484/124 90/483/120
f 96/492/122 90/483/120 84/473/119
f 97/493/125 85/475/126 86/476/127
f 97/493/125 86/476/127 92/486/128
f 97/493/125 92/486/128 91/485/129
f 97/493/125 91/485/129 85/475/126
f 98/494/130 86/476/127 87/477/131
f 98/494/130 87/477/131 93/487/132
f 98/494/130 93/487/132 92/486/128
f 98/494/130 92/486/128 86/476/127
f 99/495/133 87/478/134 82/479/113
f 99/495/133 82/479/113 88/489/116
f 99/495/133 88/489/116 93/488/135
f 99/495/133 93/488/135 87/478/134
f 114/516/136 100/496/137 101/497/138
f 114/516/136 101/497/138 108/507/139
f 114/516/136 108/507/139 107/506/140
f 114/516/136 107/506/140 100/496/137
f 115/517/141 101/498/142 102/499/143
f 115/517/141 102/499/143 109/509/144
f 115/517/141 109/509/144 108/508/145
f 115/517/141 108/508/145 101/498/142
f 116/518/146 102/499/143 103/500/147
f 116/518/146 103/500/147 110/510/148
f 116/518/146 110/510/148 109/509/144
f 116/518/146 109/509/144 102/499/143
f 117/519/149 103/500/147 104/501/150
f 117/519/149 104/501/150 111/511/151
f 117/519/149 111/511/151 110/510/148
f 117/519/149 110/510/148 103/500/147
f 118/520/152 104/501/150 105/502/153
f 118/520/152 105/502/153 112/512/154
f 118/520/152 112/512/154 111/511/151
f 118/520/152 111/511/151 104/501/150
f 119/521/155 105/503/156 106/504/157
f 119/521/155 106/504/157 113/514/158
f 119/521/155 113/514/158 112/513/159
f 119/521/155 112/513/159 105/503/156
f 120/522/160 106/504/157 100/505/161
f 120/522/160 100/505/161 107/515/162
f 120/522/160 107/515/162 113/514/158
f 120/522/160 113/514/158 106/504/157
f 397/811/163 121/523/164 122/524/165
f 397/811/163 122/524/165 260/668/166
f 397/811/163 260/668/166 259/667/167
f 397/811/163 259/667/167 121/523/164
f 398/812/168 122/524/165 123/525/169
f 398/812/168 123/525/169 261/669/170
f 398/812/168 261/669/170 260/668/166
f 398/812/168 260/668/166 122/524/165
f 399/813/171 123/525/169 124/526/172
f 399/813/171 124/526/172 262/670/173
f 399/813/171 262/670/173 261/669/170
f 399/813/171 261/669/170 123/525/169
f 400/814/174 124/526/172 125/527/175
f 400/814/174 125/527/175 263/671/176
f 400/814/174 263/671/176 262/670/173
f 400/814/174 262/670/173 124/526/172
f 401/815/177 125/527/175 126/528/178
f 401/815/177 126/528/178 264/672/179
f 401/815/177 264/672/179 263/671/176
f 401/815/177 263/671/176 125/527/175
f 402/816/180 126/528/178 127/529/181
f 402/816/180 127/529/181 265/673/182
f 402/816/180 265/673/182 264/672/179
f 402/816/180 264/672/179 126/528/178
f 403/817/183 127/529/181 128/530/184
f 403/817/183 128/530/184 266/674/185
f 403/817/183 266/674/185 265/673/182
f 403/817/183 265/673/182 127/529/181
f 404/818/186 128/530/184 129/531/187
f 404/818/186 129/531/187 267/675/188
f 404/818/186 267/675/188 266/674/185
f 404/818/186 266/674/185 128/530/184
f 405/819/189 129/531/187 130/532/190
f 405/819/189 130/532/190 268/676/191
f 405/819/189 268/676/191 267/675/188
f 405/819/189 267/675/188 129/531/187
f 406/820/192 130/532/190 131/533/193
f 406/820/192 131/533/193 269/677/194
f 406/820/192 269/677/194 268/676/191
f 406/820/192 268/676/191 130/532/190
f 407/821/195 131/534/196 132/535/197
f 407/821/195 132/535/197 270/679/198
f 407/821/195 270/679/198 269/678/199
f 407/821/195 269/678/199 131/534/196
f 408/822/200 132/535/197 133/536/201
f 408/822/200 133/536/201 271/680/202
f 408/822/200 271/680/202 270/679/198
f 408/822/200 270/679/198 132/535/197
f 409/823/203 133/536/201 134/537/204
f 409/823/203 134/537/204 272/681/205
f 409/823/203 272/681/205 271/680/202
f 409/823/203 271/680/202 133/536/201
f 410/824/206 134/537/204 135/538/207
f 410/824/206 135/538/207 273/682/208
f 410/824/206 273/682/208 272/681/205
f 410/824/206 272/681/205 134/537/204
f 411/825/209 135/538/207 136/539/210
f 411/825/209 136/539/210 274/683/211
f 411/825/209 274/683/211 273/682/208
f 411/825/209 273/682/208 135/538/207
f 412/826/212 136/539/210 137/540/213
f 412/826/212 137/540/213 275/684/214
f 412/826/212 275/684/214 274/683/211
f 412/826/212 274/683/211 136/539/210
f 413/827/215 137/540/213 138/541/216
f 413/827/215 138/541/216 276/685/217
f 413/827/215 276/685/217 275/684/214
f 413/827/215 275/684/214 137/540/213
f 414/828/218 138/541/216 139/542/219
f 414/828/218 139/542/219 277/686/220
f 414/828/218 277/686/220 276/685/217
f 414/828/218 276/685/217 138/541/216
f 415/829/221 139/542/219 140/543/222
f 415/829/221 140/543/222 278/687/223
f 415/829/221 278/687/223 277/686/220
f 415/829/221 277/686/220 139/542/219
f 416/830/224 140/543/222 141/544/225
f 416/830/224 141/544/225 279/688/226
f 416/830/224 279/688/226 278/687/223
f 416/830/224 278/687/223 140/543/222
f 417/831/227 141/544/225 142/545/228
f 417/831/227 142/545/228 280/689/229
f 417/831/227 280/689/229 279/688/226
f 417/831/227 279/688/226 141/544/225
f 418/832/230 142/545/228 143/546/231
f 418/832/230 143/546/231 281/690/232
f 418/832/230 281/690/232 280/689/229
f 418/832/230 280/689/229 142/545/228
f 419/833/233 143/546/231 144/547/234
f 419/833/233 144/547/234 282/691/235
f 419/833/233 282/691/235 281/690/232
f 419/833/233 281/690/232 143/546/231
f 420/834/236 144/547/234 145/548/237
f 420/834/236 145/548/237 283/692/238
f 420/834/236 283/692/238 282/691/235
f 420/834/236 282/691/235 144/547/234
f 421/835/239 145/548/237 146/549/240
f 421/835/239 146/549/240 284/693/241
f 421/835/239 284/693/241 283/692/238
f 421/835/239 283/692/238 145/548/237
f 422/836/242 146/549/240 147/550/243
f 422/836/242 147/550/243 285/694/244
f 422/836/242 285/694/244 284/693/241
f 422/836/242 284/693/241 146/549/240
f 423/837/245 147/550/243 148/551/246
f 423/837/245 148/551/246 286/695/247
f 423/837/245 286/695/247 285/694/244
f 423/837/245 285/694/244 147/550/243
f 424/838/248 148/551/246 149/552/249
f 424/838/248 149/552/249 287/696/250
f 424/838/248 287/696/250 286/695/247
f 424/838/248 286/695/247 148/551/246
f 425/839/251 149/552/249 150/553/252
f 425/839/251 150/553/252 288/697/253
f 425/839/251 288/697/253 287/696/250
f 425/839/251 287/696/250 149/552/249
f 426/840/254 150/553/252 151/554/255
f 426/840/254 151/554/255 289/698/256
f 426/840/254 289/698/256 288/697/253
f 426/840/254 288/697/253 150/553/252
f 427/841/257 151/554/255 152/555/258
f 427/841/257 152/555/258 290/699/259
f 427/841/257 290/699/259 289/698/256
f 427/841/257 289/698/256 151/554/255
f 428/842/260 152/555/258 153/556/261
f 428/842/260 153/556/261 291/700/262
f 428/842/260 291/700/262 290/699/259
f 428/842/260 290/699/259 152/555/258
f 429/843/263 153/556/261 154/557/264
f 429/843/263 154/557/264 292/701/265
f 429/843/263 292/701/265 291/700/262
f 429/843/263 291/700/262 153/556/261
f 430/844/266 154/557/264 155/558/267
f 430/844/266 155/558/267 293/702/268
f 430/844/266 293/702/268 292/701/265
f 430/844/266 292/701/265 154/557/264
f 431/845/269 155/558/267 156/559/270
f 431/845/269 156/559/270 294/703/271
f 431/845/269 294/703/271 293/702/268
f 431/845/269 293/702/268 155/558/267
f 432/846/272 156/559/270 157/560/273
f 432/846/272 157/560/273 295/704/274
f 432/846/272 295/704/274 294/703/271
f 432/846/272 294/703/271 156/559/270
f 433/847/275 157/560/273 158/561/276
f 433/847/275 158/561/276 296/705/277
f 433/847/275 296/705/277 295/704/274
f 433/847/275 295/704/274 157/560/273
f 434/848/278 158/561/276 159/562/279
f 434/848/278 159/562/279 297/706/280
f 434/848/278 297/706/280 296/705/277
f 434/848/278 296/705/277 158/561/276
f 435/849/281 159/562/279 160/563/282
f 435/849/281 160/563/282 298/707/283
f 435/849/281 298/707/283 297/706/280
f 435/849/281 297/706/280 159/562/279
f 436/850/284 160/563/282 161/564/285
f 436/850/284 161/564/285 299/708/286
f 436/850/284 299/708/286 298/707/283
f 436/850/284 298/707/283 160/563/282
f 437/851/287 161/564/285 162/565/288
f 437/851/287 162/565/288 300/709/289
f 437/851/287 300/709/289 299/708/286
f 437/851/287 299/708/286 161/564/285
f 438/852/290 162/565/288 163/566/291
f 438/852/290 163/566/291 301/710/292
f 438/852/290 301/710/292 300/709/289
f 438/852/290 300/709/289 162/565/288
f 439/853/293 163/566/291 164/567/294
f 439/853/293 164/567/294 302/711/295
f 439/853/293 302/711/295 301/710/292
f 439/853/293 301/710/292 163/566/291
f 440/854/296 164/567/294 165/568/297
f 440/854/296 165/568/297 303/712/298
f 440/854/296 303/712/298 302/711/295
f 440/854/296 302/711/295 164/567/294
f 441/855/299 165/568/297 166/569/300
f 441/855/299 166/569/300 304/713/301
f 441/855/299 304/713/301 303/712/298
f 441/855/299 303/712/298 165/568/297
f 442/856/302 166/569/300 167/570/303
f 442/856/302 167/570/303 305/714/304
f 442/856/302 305/714/304 304/713/301
f 442/856/302 304/713/301 166/569/300
f 443/857/305 167/571/306 168/572/307
f 443/857/305 168/572/307 306/716/308
f 443/857/305 306/716/308 305/715/309
f 443/857/305 305/715/309 167/571/306
f 444/858/310 168/572/307 169/573/311
f 444/858/310 169/573/311 307/717/312
f 444/858/310 307/717/312 306/716/308
f 444/858/310 306/716/308 168/572/307
f 445/859/313 169/573/311 170/574/314
f 445/859/313 170/574/314 308/718/315
f 445/859/313 308/718/315 307/717/312
f 445/859/313 307/717/312 169/573/311
f 446/860/316 170/574/314 171/575/317
f 446/860/316 171/575/317 309/719/318
f 446/860/316 309/719/318 308/718/315
f 446/860/316 308/718/315 170/574/314
f 447/861/319 171/575/317 172/576/320
f 447/861/319 172/576/320 310/720/321
f 447/861/319 310/720/321 309/719/318
f 447/861/319 309/719/318 171/575/317
f 448/862/322 172/576/320 173/577/323
f 448/862/322 173/577/323 311/721/324
f 448/862/322 311/721/324 310/720/321
f 448/862/322 310/720/321 172/576/320
f 449/863/325 173/577/323 174/578/326
f 449/863/325 174/578/326 312/722/327
f 449/863/325 312/722/327 311/721/324
f 449/863/325 311/721/324 173/577/323
f 450/864/328 174/578/326 175/579/329
f 450/864/328 175/579/329 313/723/330
f 450/864/328 313/723/330 312/722/327
f 450/864/328 312/722/327 174/578/326
f 451/865/331 175/579/329 176/580/332
f 451/865/331 176/580/332 314/724/333
f 451/865/331 314/724/333 313/723/330
f 451/865/331 313/723/330 175/579/329
f 452/866/334 176/580/332 177/581/335
f 452/866/334 177/581/335 315/725/336
f 452/866/334 315/725/336 314/724/333
f 452/866/334 314/724/333 176/580/332
f 453/867/337 177/581/335 178/582/338
f 453/867/337 178/582/338 316/726/339
f 453/867/337 316/726/339 315/725/336
f 453/867/337 315/725/336 177/581/335
f 454/868/340 178/582/338 179/583/341
f 454/868/340 179/583/341 317/727/342
f 454/868/340 317/727/342 316/726/339
f 454/868/340 316/726/339 178/582/338
f 455/869/343 179/583/341 180/584/344
f 455/869/343 180/584/344 318/728/345
f 455/869/343 318/728/345 317/727/342
f 455/869/343 317/727/342 179/583/341
f 456/870/346 180/584/344 181/585/347
f 456/870/346 181/585/347 319/729/348
f 456/870/346 319/729/348 318/728/345
f 456/870/346 318/728/345 180/584/344
f 457/871/349 181/585/347 182/586/350
f 457/871/349 182/586/350 320/730/351
f 457/871/349 320/730/351 319/729/348
f 457/871/349 319/729/348 181/585/347
f 458/872/352 182/586/350 183/587/353
f 458/872/352 183/587/353 321/731/354
f 458/872/352 321/731/354 320/730/351
f 458/872/352 320/730/351 182/586/350
f 459/873/355 183/587/353 184/588/356
f 459/873/355 184/588/356 322/732/357
f 459/873/355 322/732/357 321/731/354
f 459/873/355 321/731/354 183/587/353
f 460/874/358 184/588/356 185/589/359
f 460/874/358 185/589/359 323/733/360
f 460/874/358 323/733/360 322/732/357
f 460/874/358 322/732/357 184/588/356
f 461/875/361 185/589/359 186/590/362
f 461/875/361 186/590/362 324/734/363
f 461/875/361 324/734/363 323/733/360
f 461/875/361 323/733/360 185/589/359
f 462/876/364 186/590/362 187/591/365
f 462/876/364 187/591/365 325/735/366
f 462/876/364 325/735/366 324/734/363
f 462/876/364 324/734/363 186/590/362
f 463/877/367 187/591/365 188/592/368
f 463/877/367 188/592/368 326/736/369
f 463/877/367 326/736/369 325/735/366
f 463/877/367 325/735/366 187/591/365
f 464/878/370 188/593/371 189/594/372
f 464/878/370 189/594/372 327/738/373
f 464/878/370 327/738/373 326/737/374
f 464/878/370 326/737/374 188/593/371
f 465/879/375 189/594/372 190/595/376
f 465/879/375 190/595/376 328/739/377
f 465/879/375 328/739/377 327/738/373
f 465/879/375 327/738/373 189/594/372
f 466/880/378 190/595/376 191/596/379
f 466/880/378 191/596/379 329/740/380
f 466/880/378 329/740/380 328/739/377
f 466/880/378 328/739/377 190/595/376
f 467/881/381 191/596/379 192/597/382
f 467/881/381 192/597/382 330/741/383
f 467/881/381 330/741/383 329/740/380
f 467/881/381 329/740/380 191/596/379
f 468/882/384 192/597/382 193/598/385
f 468/882/384 193/598/385 331/742/386
f 468/882/384 331/742/386 330/741/383
f 468/882/384 330/741/383 192/597/382
f 469/883/387 193/598/385 194/599/388
f 469/883/387 194/599/388 332/743/389
f 469/883/387 332/743/389 331/742/386
f 469/883/387 331/742/386 193/598/385
f 470/884/390 194/599/388 195/600/391
f 470/884/390 195/600/391 333/744/392
f 470/884/390 333/744/392 332/743/389
f 470/884/390 332/743/389 194/599/388
f 471/885/393 195/600/391 196/601/394
f 471/885/393 196/601/394 334/745/395
f 471/885/393 334/745/395 333/744/392
f 471/885/393 333/744/392 195/600/391
f 472/886/396 196/601/394 197/602/397
f 472/886/396 197/602/397 335/746/398
f 472/886/396 335/746/398 334/745/395
f 472/886/396 334/745/395 196/601/394
f 473/887/399 197/602/397 198/603/400
f 473/887/399 198/603/400 336/747/401
f 473/887/399 336/747/401 335/746/398
f 473/887/399 335/746/398 197/602/397
f 474/888/402 198/603/400 199/604/403
f 474/888/402 199/604/403 337/748/404
f 474/888/402 337/748/404 336/747/401
f 474/888/402 336/747/401 198/603/400
f 475/889/405 199/604/403 200/605/406
f 475/889/405 200/605/406 338/749/407
f 475/889/405 338/749/407 337/748/404
f 475/889/405 337/748/404 199/604/403
f 476/890/408 200/605/406 201/606/409
f 476/890/408 201/606/409 339/750/410
f 476/890/408 339/750/410 338/749/407
f 476/890/408 338/749/407 200/605/406
f 477/891/411 201/606/409 202/607/412
f 477/891/411 202/607/412 340/751/413
f 477/891/411 340/751/413 339/750/410
f 477/891/411 339/750/410 201/606/409
f 478/892/414 202/607/412 203/608/415
f 478/892/414 203/608/415 341/752/416
f 478/892/414 341/752/416 340/751/413
f 478/892/414 340/751/413 202/607/412
f 479/893/417 203/608/415 204/609/418
f 479/893/417 204/609/418 342/753/419
f 479/893/417 342/753/419 341/752/416
f 479/893/417 341/752/416 203/608/415
f 480/894/420 204/609/418 205/610/421
f 480/894/420 205/610/421 343/754/422
f 480/894/420 343/754/422 342/753/419
f 480/894/420 342/753/419 204/609/418
f 481/895/423 205/610/421 206/611/424
f 481/895/423 206/611/424 344/755/425
f 481/895/423 344/755/425 343/754/422
f 481/895/423 343/754/422 205/610/421
f 482/896/426 206/611/424 207/612/427
f 482/896/426 207/612/427 345/756/428
f 482/896/426 345/756/428 344/755/425
f 482/896/426 344/755/425 206/611/424
f 483/897/429 207/612/427 208/613/430
f 483/897/429 208/613/430 346/757/431
f 483/897/429 346/757/431 345/756/428
f 483/897/429 345/756/428 207/612/427
f 484/898/432 208/613/430 209/614/433
f 484/898/432 209/614/433 347/758/434
f 484/898/432 347/758/434 346/757/431
f 484/898/432 346/757/431 208/613/430
f 485/899/435 209/614/433 210/615/436
f 485/899/435 210/615/436 348/759/437
f 485/899/435 348/759/437 347/758/434
f 485/899/435 347/758/434 209/614/433
f 486/900/438 210/615/436 211/616/439
f 486/900/438 211/616/439 349/760/440
f 486/900/438 349/760/440 348/759/437
f 486/900/438 348/759/437 210/615/436
f 487/901/441 211/616/439 212/617/442
f 487/901/441 212/617/442 350/761/443
f 487/901/441 350/761/443 349/760/440
f 487/901/441 349/760/440 211/616/439
f 488/902/444 212/617/442 213/618/445
f 488/902/444 213/618/445 351/762/446
f 488/902/444 351/762/446 350/761/443
f 488/902/444 350/761/443 212/617/442
f 489/903/447 213/618/445 214/619/448
f 489/903/447 214/619/448 352/763/449
f 489/903/447 352/763/449 351/762/446
f 489/903/447 351/762/446 213/618/445
f 490/904/450 214/619/448 215/620/451
f 490/904/450 215/620/451 353/764/452
f 490/904/450 353/764/452 352/763/449
f 490/904/450 352/763/449 214/619/448
f 491/905/453 215/620/451 216/621/454
f 491/905/453 216/621/454 354/765/455
f 491/905/453 354/765/455 353/764/452
f 491/905/453 353/764/452 215/620/451
f 492/906/456 216/621/454 217/622/457
f 492/906/456 217/622/457 355/766/458
f 492/906/456 355/766/458 354/765/455
f 492/906/456 354/765/455 216/621/454
f 493/907/459 217/622/457 218/623/460
f 493/907/459 218/623/460 356/767/461
f 493/907/459 356/767/461 355/766/458
f 493/907/459 355/766/458 217/622/457
f 494/908/462 218/624/463 219/625/464
f 494/908/462 219/625/464 357/769/465
f 494/908/462 357/769/465 356/768/466
f 494/908/462 356/768/466 218/624/463
f 495/909/467 219/625/464 220/626/468
f 495/909/467 220/626/468 358/770/469
f 495/909/467 358/770/469 357/769/465
f 495/909/467 357/769/465 219/625/464
f 496/910/470 220/626/468 221/627/471
f 496/910/470 221/627/471 359/771/472
f 496/910/470 359/771/472 358/770/469
f 496/910/470 358/770/469 220/626/468
f 497/911/473 221/627/471 222/628/474
f 497/911/473 222/628/474 360/772/475
f 497/911/473 360/772/475 359/771/472
f 497/911/473 359/771/472 221/627/471
f 498/912/476 222/628/474 223/629/477
f 498/912/476 223/629/477 361/773/478
f 498/912/476 361/773/478 360/772/475
f 498/912/476 360/772/475 222/628/474
f 499/913/479 223/629/477 224/630/480
f 499/913/479 224/630/480 362/774/481
f 499/913/479 362/774/481 361/773/478
f 499/913/479 361/773/478 223/629/477
f 500/914/482 224/630/480 225/631/483
f 500/914/482 225/631/483 363/775/484
f 500/914/482 363/775/484 362/774/481
f 500/914/482 362/774/481 224/630/480
f 501/915/485 225/631/483 226/632/486
f 501/915/485 226/632/486 364/776/487
f 501/915/485 364/776/487 363/775/484
f 501/915/485 363/775/484 225/631/483
f 502/916/488 226/632/486 227/633/489
f 502/916/488 227/633/489 365/777/490
f 502/916/488 365/777/490 364/776/487
f 502/916/488 364/776/487 226/632/486
f 503/917/491 227/633/489 228/634/492
f 503/917/491 228/634/492 366/778/493
f 503/917/491 366/778/493 365/777/490
f 503/917/491 365/777/490 227/633/489
f 504/918/494 228/634/492 229/635/495
f 504/918/494 229/635/495 367/779/496
f 504/918/494 367/779/496 366/778/493
f 504/918/494 366/778/493 228/634/492
f 505/919/497 229/635/495 230/636/498
f 505/919/497 230/636/498 368/780/499
f 505/919/497 368/780/499 367/779/496
f 505/919/497 367/779/496 229/635/495
f 506/920/500 230/636/498 231/637/501
f 506/920/500 231/637/501 369/781/502
f 506/920/500 369/781/502 368/780/499
f 506/920/500 368/780/499 230/636/498
f 507/921/503 231/637/501 232/638/504
f 507/921/503 232/638/504 370/782/505
f 507/921/503 370/782/505 369/781/502
f 507/921/503 369/781/502 231/637/501
f 508/922/506 232/638/504 233/639/507
f 508/922/506 233/639/507 371/783/508
f 508/922/506 371/783/508 370/782/505
f 508/922/506 370/782/505 232/638/504
f 509/923/509 233/639/507 234/640/510
f 509/923/509 234/640/510 372/784/511
f 509/923/509 372/784/511 371/783/508
f 509/923/509 371/783/508 233/639/507
f 510/924/512 234/640/510 235/641/513
f 510/924/512 235/641/513 373/785/514
f 510/924/512 373/785/514 372/784/511
f 510/924/512 372/784/511 234/640/510
f 511/925/515 235/641/513 236/642/516
f 511/925/515 236/642/516 374/786/517
f 511/925/515 374/786/517 373/785/514
f 511/925/515 373/785/514 235/641/513
f 512/926/518 236/642/516 237/643/519
f 512/926/518 237/643/519 375/787/520
f 512/926/518 375/787/520 374/786/517
f 512/926/518 374/786/517 236/642/516
f 513/927/521 237/643/519 238/644/522
f 513/927/521 238/644/522 376/788/523
f 513/927/521 376/788/523 375/787/520
f 513/927/521 375/787/520 237/643/519
f 514/928/524 238/644/522 239/645/525
f 514/928/524 239/645/525 377/789/526
f 514/928/524 377/789/526 376/788/523
f 514/928/524 376/788/523 238/644/522
f 515/929/527 239/645/525 240/646/528
f 515/929/527 240/646/528 378/790/529
f 515/929/527 378/790/529 377/789/526
f 515/929/527 377/789/526 239/645/525
f 516/930/530 240/646/528 241/647/531
f 516/930/530 241/647/531 379/791/532
f 516/930/530 379/791/532 378/790/529
f 516/930/530 378/790/529 240/646/528
f 517/931/533 241/647/531 242/648/534
f 517/931/533 242/648/534 380/792/535
f 517/931/533 380/792/535 379/791/532
f 517/931/533 379/791/532 241/647/531
f 518/932/536 242/648/534 243/649/537
f 518/932/536 243/649/537 381/793/538
f 518/932/536 381/793/538 380/792/535
f 518/932/536 380/792/535 242/648/534
f 519/933/539 243/649/537 244/650/540
f 519/933/539 244/650/540 382/794/541
f 519/933/539 382/794/541 381/793/538
f 519/933/539 381/793/538 243/649/537
f 520/934/542 244/650/540 245/651/543
f 520/934/542 245/651/543 383/795/544
f 520/934/542 383/795/544 382/794/541
f 520/934/542 382/794/541 244/650/540
f 521/935/545 245/651/543 246/652/546
f 521/935/545 246/652/546 384/796/547
f 521/935/545 384/796/547 383/795/544
f 521/935/545 383/795/544 245/651/543
f 522/936/548 246/652/546 247/653/549
f 522/936/548 247/653/549 385/797/550
f 522/936/548 385/797/550 384/796/547
f 522/936/548 384/796/547 246/652/546
f 523/937/551 247/653/549 248/654/552
f 523/937/551 248/654/552 386/798/553
f 523/937/551 386/798/553 385/797/550
f 523/937/551 385/797/550 247/653/549
f 524/938/554 248/655/555 249/656/556
f 524/938/554 249/656/556 387/800/557
f 524/938/554 387/800/557 386/799/558
f 524/938/554 386/799/558 248/655/555
f 525/939/559 249/656/556 250/657/560
f 525/939/559 250/657/560 388/801/561
f 525/939/559 388/801/561 387/800/557
f 525/939/559 387/800/557 249/656/556
f 526/940/562 250/657/560 251/658/563
f 526/940/562 251/658/563 389/802/564
f 526/940/562 389/802/564 388/801/561
f 526/940/562 388/801/561 250/657/560
f 527/941/565 251/658/563 252/659/566
f 527/941/565 252/659/566 390/803/567
f 527/941/565 390/803/567 389/802/564
f 527/941/565 389/802/564 251/658/563
f 528/942/568 252/659/566 253/660/569
f 528/942/568 253/660/569 391/804/570
f 528/942/568 391/804/570 390/803/567
f 528/942/568 390/803/567 252/659/566
f 529/943/571 253/660/569 254/661/572
f 529/943/571 254/661/572 392/805/573
f 529/943/571 392/805/573 391/804/570
f 529/943/571 391/804/570 253/660/569
f 530/944/574 254/661/572 255/662/575
f 530/944/574 255/662/575 393/806/576
f 530/944/574 393/806/576 392/805/573
f 530/944/574 392/805/573 254/661/572
f 531/945/577 255/662/575 256/663/578
f 531/945/577 256/663/578 394/807/579
f 531/945/577 394/807/579 393/806/576
f 531/945/577 393/806/576 255/662/575
f 532/946/580 256/663/578 257/664/581
f 532/946/580 257/664/581 395/808/582
f 532/946/580 395/808/582 394/807/579
f 532/946/580 394/807/579 256/663/578
f 533/947/583 257/664/581 258/665/584
f 533/947/583 258/665/584 396/809/585
f 533/947/583 396/809/585 395/808/582
f 533/947/583 395/808/582 257/664/581
f 534/948/586 258/665/584 121/666/164
f 534/948/586 121/666/164 259/810/167
f 534/948/586 259/810/167 396/809/585
f 534/948/586 396/809/585 258/665/584
