mtllib Asset 1.mtl
# Vertex Positions: 
g groupNumber_0
v 3.44137 -1.98921 -0.5295
v 1.50565 1.37004 -0.5295
v 0.882535 1.37004 -0.5295
v 2.50752 -1.44836 -0.5295
v 1.5513 -1.45008 -0.5295
v 1.24011 -1.98749 -0.5295
v 3.44137 -1.98921 0.5295
v 1.50565 1.37004 0.5295
v 0.882535 1.37004 0.5295
v 2.50752 -1.44836 0.5295
v 1.5513 -1.45008 0.5295
v 1.24011 -1.98749 0.5295
v 2.47351 -0.309581 -1.11022e-16
v 1.19409 1.37004 -1.11022e-16
v 1.69503 -0.0391588 -1.11022e-16
v 2.02941 -1.44922 -1.11022e-16
v 1.3957 -1.71879 -1.11022e-16
v 2.34074 -1.98835 -1.11022e-16


# Vertex Texture Coordinates :
vt 0.394677 0
vt 0.096122 0.518111
vt 1.67655e-05 0.518111
vt 0.250646 0.0834166
vt 0.103163 0.0831517
vt 0.0551676 0.000264514
vt 0.402073 0
vt 0.700628 0.518111
vt 0.796734 0.518111
vt 0.546105 0.0834166
vt 0.693588 0.0831517
vt 0.741583 0.000264514
vt 0.402025 0.525429
vt 1 0.525429
vt 0.804132 1.07106e-05
vt 0.900238 1.07106e-05
vt 0.402096 0.696091
vt 0.903867 0.696091
vt 0.804138 0.170673
vt 0.951621 0.170673
vt 0.804149 0.341335
vt 0.899929 0.341335
vt 0 0.525429
vt 0.33951 0.525429
vt 0.402025 0.688763
vt 1 0.688763
vt 0.804132 0.163345
vt 0.900238 0.163345
vt 0.402096 0.859425
vt 0.903867 0.859425
vt 0.804138 0.334007
vt 0.951621 0.334007
vt 0.804149 0.504669
vt 0.899929 0.504669
vt 0 0.688763
vt 0.33951 0.688763
vt 0.701012 0.607096
vt 0.852185 0.0816777
vt 0.652982 0.777758
vt 0.877879 0.25234
vt 0.852039 0.423002
vt 0.169755 0.607096


# Vertex Surface Normals: 
vn 0 0 1
vn 0 0 -1
vn 0.866443 0.499277 6.23318e-18
vn 0.866443 0.499277 -6.23318e-18
vn 0.866443 0.499277 -6.23318e-18
vn 0.866443 0.499277 -6.23318e-18
vn 0.866443 0.499277 -6.23318e-18
vn 0 1 0
vn 0 1 0
vn 0 1 0
vn 0 1 0
vn 0 1 0
vn -0.866321 -0.499488 -7.45799e-18
vn -0.866321 -0.499488 -7.38008e-19
vn -0.866321 -0.499488 -1.90599e-17
vn -0.866321 -0.499488 1.5654e-17
vn -0.866321 -0.499488 3.39759e-17
vn -0.00179577 0.999998 -1.14633e-22
vn -0.00179577 0.999998 1.20573e-16
vn -0.00179577 0.999998 1.20561e-16
vn -0.00179577 0.999998 -1.20573e-16
vn -0.00179577 0.999998 -1.20561e-16
vn -0.865392 0.501096 -2.31463e-18
vn -0.865392 0.501096 7.90361e-17
vn -0.865392 0.501096 8.22782e-17
vn -0.865392 0.501096 -7.44069e-17
vn -0.865392 0.501096 -7.7649e-17
vn -0.000779106 -1 -1.99656e-20
vn -0.000779106 -1 1.99656e-20
vn -0.000779106 -1 1.99656e-20
vn -0.000779106 -1 1.99656e-20
vn -0.000779106 -1 1.99656e-20


# Faces: 
usemtl material0
f 12/6/1 10/4/1 11/5/1
f 10/4/1 12/6/1 7/1/1
f 10/4/1 7/1/1 8/2/1
f 10/4/1 8/2/1 9/3/1
f 4/10/2 6/12/2 5/11/2
f 6/12/2 4/10/2 1/7/2
f 1/7/2 4/10/2 2/8/2
f 2/8/2 4/10/2 3/9/2
f 13/37/3 1/13/4 2/14/5
f 13/37/3 2/14/5 8/26/6
f 13/37/3 8/26/6 7/25/7
f 13/37/3 7/25/7 1/13/4
f 14/38/8 2/15/9 3/16/10
f 14/38/8 3/16/10 9/28/11
f 14/38/8 9/28/11 8/27/12
f 14/38/8 8/27/12 2/15/9
f 15/39/13 3/17/14 4/18/15
f 15/39/13 4/18/15 10/30/16
f 15/39/13 10/30/16 9/29/17
f 15/39/13 9/29/17 3/17/14
f 16/40/18 4/19/19 5/20/20
f 16/40/18 5/20/20 11/32/21
f 16/40/18 11/32/21 10/31/22
f 16/40/18 10/31/22 4/19/19
f 17/41/23 5/21/24 6/22/25
f 17/41/23 6/22/25 12/34/26
f 17/41/23 12/34/26 11/33/27
f 17/41/23 11/33/27 5/21/24
f 18/42/28 6/23/29 1/24/30
f 18/42/28 1/24/30 7/36/31
f 18/42/28 7/36/31 12/35/32
f 18/42/28 12/35/32 6/23/29

# Vertex Positions: 
g groupNumber_1
v 0.436644 -1.98965 -0.5295
v 0.74805 -1.4559 -0.5295
v -2.51118 -1.45194 -0.5295
v -2.02635 -0.606258 -0.5295
v -2.33686 -0.0684713 -0.5295
v -3.44577 -1.99152 -0.5295
v 0.436644 -1.98965 0.5295
v 0.74805 -1.4559 0.5295
v -2.51118 -1.45194 0.5295
v -2.02635 -0.606258 0.5295
v -2.33686 -0.0684713 0.5295
v -3.44577 -1.99152 0.5295
v 0.592347 -1.72277 -1.11022e-16
v -0.881564 -1.45392 -1.11022e-16
v -2.26877 -1.0291 -1.11022e-16
v -2.18161 -0.337365 -1.11022e-16
v -2.89132 -1.03 -1.11022e-16
v -1.50457 -1.99059 -1.11022e-16


# Vertex Texture Coordinates :
vt 0.630827 0.000312352
vt 0.681425 0.0870385
vt 0.151856 0.0876809
vt 0.230632 0.22509
vt 0.180179 0.312472
vt 0 8.83599e-06
vt 0.0505983 0.321228
vt 0 0.407954
vt 0.529569 0.408596
vt 0.450793 0.546006
vt 0.501246 0.633387
vt 0.681425 0.320924
vt 0.689782 0
vt 0.790189 0
vt 6.60564e-05 0.641831
vt 0.529636 0.641831
vt 0.798623 0
vt 0.957012 0
vt 0.538061 0.641831
vt 0.638962 0.641831
vt 7.62151e-05 0.822335
vt 0.360767 0.822335
vt 0.369173 0.822335
vt 1 0.822335
vt 0.689782 0.17207
vt 0.790189 0.17207
vt 6.60564e-05 0.8139
vt 0.529636 0.8139
vt 0.798623 0.17207
vt 0.957012 0.17207
vt 0.538061 0.8139
vt 0.638962 0.8139
vt 7.62151e-05 0.994405
vt 0.360767 0.994405
vt 0.369173 0.994405
vt 1 0.994405
vt 0.739985 0.0860348
vt 0.264851 0.727866
vt 0.877818 0.0860348
vt 0.588511 0.727866
vt 0.180421 0.90837
vt 0.684586 0.90837


# Vertex Surface Normals: 
vn 0 0 1
vn 0 0 -1
vn 0.863744 -0.503931 -1.41579e-18
vn 0.863744 -0.503931 -1.48574e-16
vn 0.863744 -0.503931 -1.46358e-16
vn 0.863744 -0.503931 1.51405e-16
vn 0.863744 -0.503931 1.4919e-16
vn 0.00121304 0.999999 -4.83949e-20
vn 0.00121304 0.999999 -1.63503e-20
vn 0.00121304 0.999999 -9.07626e-22
vn 0.00121304 0.999999 1.1314e-19
vn 0.00121304 0.999999 9.76973e-20
vn 0.867545 -0.497358 -4.16693e-19
vn 0.867545 -0.497358 5.03177e-17
vn 0.867545 -0.497358 5.21606e-17
vn 0.867545 -0.497358 -4.94843e-17
vn 0.867545 -0.497358 -5.13272e-17
vn 0.866011 0.500026 1.04744e-18
vn 0.866011 0.500026 6.44239e-17
vn 0.866011 0.500026 6.41933e-17
vn 0.866011 0.500026 -6.65187e-17
vn 0.866011 0.500026 -6.62882e-17
vn -0.866291 0.49954 -3.38778e-18
vn -0.866291 0.49954 8.79244e-17
vn -0.866291 0.49954 6.91595e-17
vn -0.866291 0.49954 -8.11488e-17
vn -0.866291 0.49954 -6.2384e-17
vn 0.00048114 -1 1.35284e-20
vn 0.00048114 -1 -1.92236e-17
vn 0.00048114 -1 -1.92673e-17
vn 0.00048114 -1 1.91965e-17
vn 0.00048114 -1 1.92402e-17


# Faces: 
usemtl material1
f 30/48/33 27/45/33 29/47/33
f 27/45/33 30/48/33 25/43/33
f 29/47/33 27/45/33 28/46/33
f 26/44/33 27/45/33 25/43/33
f 21/51/34 24/54/34 23/53/34
f 24/54/34 21/51/34 19/49/34
f 21/51/34 23/53/34 22/52/34
f 21/51/34 20/50/34 19/49/34
f 31/79/35 19/55/36 20/56/37
f 31/79/35 20/56/37 26/68/38
f 31/79/35 26/68/38 25/67/39
f 31/79/35 25/67/39 19/55/36
f 32/80/40 20/57/41 21/58/42
f 32/80/40 21/58/42 27/70/43
f 32/80/40 27/70/43 26/69/44
f 32/80/40 26/69/44 20/57/41
f 33/81/45 21/59/46 22/60/47
f 33/81/45 22/60/47 28/72/48
f 33/81/45 28/72/48 27/71/49
f 33/81/45 27/71/49 21/59/46
f 34/82/50 22/61/51 23/62/52
f 34/82/50 23/62/52 29/74/53
f 34/82/50 29/74/53 28/73/54
f 34/82/50 28/73/54 22/61/51
f 35/83/55 23/63/56 24/64/57
f 35/83/55 24/64/57 30/76/58
f 35/83/55 30/76/58 29/75/59
f 35/83/55 29/75/59 23/63/56
f 36/84/60 24/65/61 19/66/62
f 36/84/60 19/66/62 25/78/63
f 36/84/60 25/78/63 30/77/64
f 36/84/60 30/77/64 24/65/61

# Vertex Positions: 
g groupNumber_2
v 2.33582 0.0666076 -0.5295
v 3.44577 1.98906 -0.5295
v -0.437984 1.98935 -0.5295
v -0.748348 1.45582 -0.5295
v 2.51088 1.45 -0.5295
v 2.0256 0.604616 -0.5295
v 2.33582 0.0666076 0.5295
v 3.44577 1.98906 0.5295
v -0.437984 1.98935 0.5295
v -0.748348 1.45582 0.5295
v 2.51088 1.45 0.5295
v 2.0256 0.604616 0.5295
v 2.8908 1.02783 -1.11022e-16
v 1.5039 1.98921 -1.11022e-16
v -0.593166 1.72259 -1.11022e-16
v 0.881267 1.45291 -1.11022e-16
v 2.26824 1.02731 -1.11022e-16
v 2.18071 0.335612 -1.11022e-16


# Vertex Texture Coordinates :
vt 0.501088 0
vt 0.681423 0.312342
vt 0.0504251 0.312391
vt 0 0.225707
vt 0.52953 0.224762
vt 0.450687 0.0874107
vt 0.180335 0.320748
vt 0 0.63309
vt 0.630998 0.633139
vt 0.681423 0.546455
vt 0.151893 0.54551
vt 0.230736 0.408159
vt 5.53809e-06 0.641541
vt 0.36067 0.641541
vt 0.369002 0.641541
vt 1 0.641541
vt 1.67878e-05 0.822045
vt 0.1003 0.822045
vt 0.368995 0.822045
vt 0.898526 0.822045
vt 0.108638 0.822045
vt 0.26701 0.822045
vt 0.689782 4.48657e-05
vt 0.790683 4.48657e-05
vt 5.53809e-06 0.813598
vt 0.36067 0.813598
vt 0.369002 0.813598
vt 1 0.813598
vt 1.67878e-05 0.994102
vt 0.1003 0.994102
vt 0.368995 0.994102
vt 0.898526 0.994102
vt 0.108638 0.994102
vt 0.26701 0.994102
vt 0.689782 0.172102
vt 0.790683 0.172102
vt 0.180338 0.727569
vt 0.684501 0.727569
vt 0.0501585 0.908073
vt 0.63376 0.908073
vt 0.187824 0.908073
vt 0.740233 0.0860733


# Vertex Surface Normals: 
vn 0 0 1
vn 0 0 -1
vn 0.86602 -0.50001 -1.97683e-19
vn 0.86602 -0.50001 -8.89639e-18
vn 0.86602 -0.50001 -3.87774e-17
vn 0.86602 -0.50001 9.29175e-18
vn 0.86602 -0.50001 3.91728e-17
vn 7.6556e-05 1 1.87068e-21
vn 7.6556e-05 1 2.06774e-17
vn 7.6556e-05 1 2.06721e-17
vn 7.6556e-05 1 -2.06811e-17
vn 7.6556e-05 1 -2.06759e-17
vn -0.864387 0.502826 -6.00358e-20
vn -0.864387 0.502826 6.00358e-20
vn -0.864387 0.502826 6.00358e-20
vn -0.864387 0.502826 6.00358e-20
vn -0.864387 0.502826 6.00358e-20
vn -0.00178486 -0.999998 -8.39382e-20
vn -0.00178486 -0.999998 8.39382e-20
vn -0.00178486 -0.999998 8.39382e-20
vn -0.00178486 -0.999998 8.39382e-20
vn -0.00178486 -0.999998 8.39382e-20
vn -0.867271 0.497837 7.76375e-20
vn -0.867271 0.497837 5.73386e-17
vn -0.867271 0.497837 5.57097e-17
vn -0.867271 0.497837 -5.74938e-17
vn -0.867271 0.497837 -5.5865e-17
vn -0.866307 -0.499512 -1.07553e-19
vn -0.866307 -0.499512 3.98605e-17
vn -0.866307 -0.499512 3.85828e-17
vn -0.866307 -0.499512 -3.96454e-17
vn -0.866307 -0.499512 -3.83677e-17


# Faces: 
usemtl material2
f 46/88/65 47/89/65 45/87/65
f 43/85/65 44/86/65 47/89/65
f 47/89/65 44/86/65 45/87/65
f 43/85/65 47/89/65 48/90/65
f 41/95/66 40/94/66 39/93/66
f 38/92/66 37/91/66 41/95/66
f 38/92/66 41/95/66 39/93/66
f 41/95/66 37/91/66 42/96/66
f 49/121/67 37/97/68 38/98/69
f 49/121/67 38/98/69 44/110/70
f 49/121/67 44/110/70 43/109/71
f 49/121/67 43/109/71 37/97/68
f 50/122/72 38/99/73 39/100/74
f 50/122/72 39/100/74 45/112/75
f 50/122/72 45/112/75 44/111/76
f 50/122/72 44/111/76 38/99/73
f 51/123/77 39/101/78 40/102/79
f 51/123/77 40/102/79 46/114/80
f 51/123/77 46/114/80 45/113/81
f 51/123/77 45/113/81 39/101/78
f 52/124/82 40/103/83 41/104/84
f 52/124/82 41/104/84 47/116/85
f 52/124/82 47/116/85 46/115/86
f 52/124/82 46/115/86 40/103/83
f 53/125/87 41/105/88 42/106/89
f 53/125/87 42/106/89 48/118/90
f 53/125/87 48/118/90 47/117/91
f 53/125/87 47/117/91 41/105/88
f 54/126/92 42/107/93 37/108/94
f 54/126/92 37/108/94 43/120/95
f 54/126/92 43/120/95 48/119/96
f 54/126/92 48/119/96 42/107/93

# Vertex Positions: 
g groupNumber_3
v -0.888576 -1.37803 -0.5295
v -2.51095 1.44881 -0.5295
v -1.53615 1.45038 -0.5295
v -1.2249 1.98779 -0.5295
v -3.44473 1.98965 -0.5295
v -1.50438 -1.37803 -0.5295
v -0.888576 -1.37803 0.5295
v -2.51095 1.44881 0.5295
v -1.53615 1.45038 0.5295
v -1.2249 1.98779 0.5295
v -3.44473 1.98965 0.5295
v -1.50438 -1.37803 0.5295
v -1.69976 0.0353916 -1.11022e-16
v -2.02355 1.44959 -1.11022e-16
v -1.38052 1.71908 -1.11022e-16
v -2.33481 1.98872 -1.11022e-16
v -2.47456 0.305813 -1.11022e-16
v -1.19648 -1.37803 -1.11022e-16


# Vertex Texture Coordinates :
vt 0.391336 0
vt 0.142957 0.432776
vt 0.292195 0.433016
vt 0.339847 0.515292
vt 0 0.515577
vt 0.297059 0
vt 0.398625 0
vt 0.647004 0.432776
vt 0.497767 0.433016
vt 0.450114 0.515292
vt 0.789961 0.515577
vt 0.492902 0
vt 0.398623 0.522979
vt 0.89761 0.522979
vt 0.797289 1.51309e-06
vt 0.946526 1.51309e-06
vt 0.904921 0.522979
vt 1 0.522979
vt 3.13805e-05 0.522979
vt 0.339878 0.522979
vt 0.398612 0.692511
vt 0.993645 0.692511
vt 0.79724 0.169534
vt 0.891517 0.169534
vt 0.398623 0.685108
vt 0.89761 0.685108
vt 0.797289 0.16213
vt 0.946526 0.16213
vt 0.904921 0.685108
vt 1 0.685108
vt 3.13805e-05 0.685108
vt 0.339878 0.685108
vt 0.398612 0.85464
vt 0.993645 0.85464
vt 0.79724 0.331662
vt 0.891517 0.331662
vt 0.648117 0.604044
vt 0.871908 0.0810656
vt 0.952461 0.604044
vt 0.169955 0.604044
vt 0.696129 0.773576
vt 0.844379 0.250598


# Vertex Surface Normals: 
vn 0 0 1
vn 0 0 -1
vn 0.867311 0.497767 1.21142e-17
vn 0.867311 0.497767 -1.21142e-17
vn 0.867311 0.497767 -1.21142e-17
vn 0.867311 0.497767 -1.21142e-17
vn 0.867311 0.497767 -1.21142e-17
vn 0.00160684 -0.999999 -6.37013e-22
vn 0.00160684 -0.999999 1.19626e-16
vn 0.00160684 -0.999999 1.19666e-16
vn 0.00160684 -0.999999 -1.19625e-16
vn 0.00160684 -0.999999 -1.19665e-16
vn 0.865339 -0.501187 -7.75921e-19
vn 0.865339 -0.501187 7.75921e-19
vn 0.865339 -0.501187 7.75921e-19
vn 0.865339 -0.501187 7.75921e-19
vn 0.865339 -0.501187 7.75921e-19
vn 0.000840527 1 -4.05039e-21
vn 0.000840527 1 -6.43472e-17
vn 0.000840527 1 -6.44076e-17
vn 0.000840527 1 6.43553e-17
vn 0.000840527 1 6.44157e-17
vn -0.866469 -0.499231 -3.08434e-17
vn -0.866469 -0.499231 6.79276e-20
vn -0.866469 -0.499231 2.3509e-17
vn -0.866469 -0.499231 6.16189e-17
vn -0.866469 -0.499231 3.81779e-17
vn 0 -1 0
vn 0 -1 0
vn 0 -1 0
vn 0 -1 0
vn 0 -1 0


# Faces: 
usemtl material3
f 64/130/97 65/131/97 62/128/97
f 62/128/97 65/131/97 66/132/97
f 62/128/97 66/132/97 61/127/97
f 64/130/97 62/128/97 63/129/97
f 59/137/98 58/136/98 56/134/98
f 59/137/98 56/134/98 60/138/98
f 60/138/98 56/134/98 55/133/98
f 56/134/98 58/136/98 57/135/98
f 67/163/99 55/139/100 56/140/101
f 67/163/99 56/140/101 62/152/102
f 67/163/99 62/152/102 61/151/103
f 67/163/99 61/151/103 55/139/100
f 68/164/104 56/141/105 57/142/106
f 68/164/104 57/142/106 63/154/107
f 68/164/104 63/154/107 62/153/108
f 68/164/104 62/153/108 56/141/105
f 69/165/109 57/143/110 58/144/111
f 69/165/109 58/144/111 64/156/112
f 69/165/109 64/156/112 63/155/113
f 69/165/109 63/155/113 57/143/110
f 70/166/114 58/145/115 59/146/116
f 70/166/114 59/146/116 65/158/117
f 70/166/114 65/158/117 64/157/118
f 70/166/114 64/157/118 58/145/115
f 71/167/119 59/147/120 60/148/121
f 71/167/119 60/148/121 66/160/122
f 71/167/119 66/160/122 65/159/123
f 71/167/119 65/159/123 59/147/120
f 72/168/124 60/149/125 55/150/126
f 72/168/124 55/150/126 61/162/127
f 72/168/124 61/162/127 66/161/128
f 72/168/124 66/161/128 60/149/125

# Vertex Positions: 
g groupNumber_4
v 0.00380492 -3.97543 -0.5295
v 1.94318 -0.604467 -0.5295
v 1.63282 -0.0739158 -0.5295
v 0.00268456 -2.89628 -0.5295
v -0.488109 -2.0541 -0.5295
v -1.10921 -2.0547 -0.5295
v 0.00380492 -3.97543 0.5295
v 1.94318 -0.604467 0.5295
v 1.63282 -0.0739158 0.5295
v 0.00268456 -2.89628 0.5295
v -0.488109 -2.0541 0.5295
v -1.10921 -2.0547 0.5295
v 0.973495 -2.28995 -1.11022e-16
v 1.788 -0.339192 -1.11022e-16
v 0.817753 -1.4851 -1.11022e-16
v -0.242712 -2.47519 -1.11022e-16
v -0.798658 -2.0544 -1.11022e-16
v -0.552701 -3.01506 -1.11022e-16


# Vertex Texture Coordinates :
vt 0.155109 0
vt 0.425377 0.469771
vt 0.382125 0.543708
vt 0.154953 0.150388
vt 0.0865566 0.267753
vt 1.56524e-06 0.26767
vt 0.702342 0
vt 0.432074 0.469771
vt 0.475326 0.543708
vt 0.702498 0.150388
vt 0.770894 0.267753
vt 0.85745 0.26767
vt 0.432051 0.550359
vt 0.974019 0.550359
vt 0.864163 1.39416e-05
vt 0.949821 1.39416e-05
vt 0.432059 0.704604
vt 0.88627 0.704604
vt 0.86416 0.154259
vt 1 0.154259
vt 0.892984 0.704604
vt 0.979539 0.704604
vt 0 0.550359
vt 0.309363 0.550359
vt 0.432051 0.697939
vt 0.974019 0.697939
vt 0.864163 0.147594
vt 0.949821 0.147594
vt 0.432059 0.852184
vt 0.88627 0.852184
vt 0.86416 0.301839
vt 1 0.301839
vt 0.892984 0.852184
vt 0.979539 0.852184
vt 0 0.697939
vt 0.309363 0.697939
vt 0.703035 0.624149
vt 0.906992 0.0738041
vt 0.659164 0.778394
vt 0.93208 0.228049
vt 0.936261 0.778394
vt 0.154682 0.624149


# Vertex Surface Normals: 
vn 0 0 1
vn 0 0 -1
vn 0.866787 -0.498679 -2.2462e-17
vn 0.866787 -0.498679 2.2462e-17
vn 0.866787 -0.498679 2.2462e-17
vn 0.866787 -0.498679 2.2462e-17
vn 0.866787 -0.498679 2.2462e-17
vn 0.863158 0.504933 -1.4599e-18
vn 0.863158 0.504933 7.94935e-17
vn 0.863158 0.504933 8.29883e-17
vn 0.863158 0.504933 -7.65737e-17
vn 0.863158 0.504933 -8.00685e-17
vn -0.86594 0.500148 1.79587e-17
vn -0.86594 0.500148 1.54959e-17
vn -0.86594 0.500148 2.71669e-17
vn -0.86594 0.500148 2.41145e-17
vn -0.86594 0.500148 1.24435e-17
vn 0.863993 0.503504 7.7287e-20
vn 0.863993 0.503504 3.21308e-17
vn 0.863993 0.503504 4.18286e-17
vn 0.863993 0.503504 -3.22854e-17
vn 0.863993 0.503504 -4.19832e-17
vn -0.000960891 1 3.66136e-21
vn -0.000960891 1 -1.35859e-19
vn -0.000960891 1 -1.44226e-19
vn -0.000960891 1 1.28537e-19
vn -0.000960891 1 1.36904e-19
vn -0.865229 -0.501376 -4.92908e-18
vn -0.865229 -0.501376 -1.15366e-17
vn -0.865229 -0.501376 -1.04557e-17
vn -0.865229 -0.501376 2.13948e-17
vn -0.865229 -0.501376 2.03139e-17


# Faces: 
usemtl material4
f 84/174/129 82/172/129 83/173/129
f 82/172/129 84/174/129 79/169/129
f 82/172/129 80/170/129 81/171/129
f 80/170/129 82/172/129 79/169/129
f 76/178/130 78/180/130 77/179/130
f 78/180/130 76/178/130 73/175/130
f 74/176/130 76/178/130 75/177/130
f 76/178/130 74/176/130 73/175/130
f 85/205/131 73/181/132 74/182/133
f 85/205/131 74/182/133 80/194/134
f 85/205/131 80/194/134 79/193/135
f 85/205/131 79/193/135 73/181/132
f 86/206/136 74/183/137 75/184/138
f 86/206/136 75/184/138 81/196/139
f 86/206/136 81/196/139 80/195/140
f 86/206/136 80/195/140 74/183/137
f 87/207/141 75/185/142 76/186/143
f 87/207/141 76/186/143 82/198/144
f 87/207/141 82/198/144 81/197/145
f 87/207/141 81/197/145 75/185/142
f 88/208/146 76/187/147 77/188/148
f 88/208/146 77/188/148 83/200/149
f 88/208/146 83/200/149 82/199/150
f 88/208/146 82/199/150 76/187/147
f 89/209/151 77/189/152 78/190/153
f 89/209/151 78/190/153 84/202/154
f 89/209/151 84/202/154 83/201/155
f 89/209/151 83/201/155 77/189/152
f 90/210/156 78/191/157 73/192/158
f 90/210/156 73/192/158 79/204/159
f 90/210/156 79/204/159 84/203/160
f 90/210/156 84/203/160 78/191/157

# Vertex Positions: 
g groupNumber_5
v 1.11152 2.05358 -0.5295
v 0.000596809 3.97543 -0.5295
v -1.94885 0.589773 -0.5295
v -1.63252 0.0757084 -0.5295
v 0.000596809 2.89628 -0.5295
v 0.490496 2.05358 -0.5295
v 1.11152 2.05358 0.5295
v 0.000596809 3.97543 0.5295
v -1.94885 0.589773 0.5295
v -1.63252 0.0757084 0.5295
v 0.000596809 2.89628 0.5295
v 0.490496 2.05358 0.5295
v 0.556059 3.0145 0
v -0.974128 2.2826 0
v -1.79069 0.332741 0
v -0.815962 1.48599 0
v 0.245547 2.47493 0
v 0.801009 2.05358 0


# Vertex Texture Coordinates :
vt 0.436273 0.281939
vt 0.277914 0.555893
vt 2.54696e-05 0.0732784
vt 0.0451176 0
vt 0.277914 0.402064
vt 0.347747 0.281939
vt 0.443126 0.281939
vt 0.601485 0.555893
vt 0.879374 0.0732784
vt 0.834281 0
vt 0.601485 0.402064
vt 0.531652 0.281939
vt 4.22297e-05 0.562768
vt 0.316473 0.562768
vt 0.443099 0.562768
vt 1 0.562768
vt 0.323327 0.562768
vt 0.409368 0.562768
vt 0.44316 0.72062
vt 0.907756 0.72062
vt 0 0.72062
vt 0.138949 0.72062
vt 0.886261 2.03106e-05
vt 0.974786 2.03106e-05
vt 4.22297e-05 0.713725
vt 0.316473 0.713725
vt 0.443099 0.713725
vt 1 0.713725
vt 0.323327 0.713725
vt 0.409368 0.713725
vt 0.44316 0.871578
vt 0.907756 0.871578
vt 0 0.871578
vt 0.138949 0.871578
vt 0.886261 0.150978
vt 0.974786 0.150978
vt 0.158258 0.638247
vt 0.721549 0.638247
vt 0.366348 0.638247
vt 0.675458 0.796099
vt 0.0694743 0.796099
vt 0.930523 0.0754989


# Vertex Surface Normals: 
vn 0 0 1
vn 0 0 -1
vn 0.865763 0.500453 -1.20337e-18
vn 0.865763 0.500453 1.02557e-16
vn 0.865763 0.500453 8.2436e-17
vn 0.865763 0.500453 -1.0015e-16
vn 0.865763 0.500453 -8.00293e-17
vn -0.866608 0.49899 -8.55181e-18
vn -0.866608 0.49899 8.55181e-18
vn -0.866608 0.49899 8.55181e-18
vn -0.866608 0.49899 8.55181e-18
vn -0.866608 0.49899 8.55181e-18
vn -0.85167 -0.524079 9.91111e-19
vn -0.85167 -0.524079 8.03648e-17
vn -0.85167 -0.524079 8.31869e-17
vn -0.85167 -0.524079 -8.23471e-17
vn -0.85167 -0.524079 -8.51692e-17
vn 0.865406 -0.501072 -1.99389e-17
vn 0.865406 -0.501072 1.99389e-17
vn 0.865406 -0.501072 1.99389e-17
vn 0.865406 -0.501072 1.99389e-17
vn 0.865406 -0.501072 1.99389e-17
vn -0.864527 -0.502586 -3.53349e-19
vn -0.864527 -0.502586 -3.45858e-17
vn -0.864527 -0.502586 -3.47369e-17
vn -0.864527 -0.502586 3.52925e-17
vn -0.864527 -0.502586 3.54436e-17
vn 0 -1 0
vn 0 -1 0
vn 0 -1 0
vn 0 -1 0
vn 0 -1 0


# Faces: 
usemtl material5
f 99/213/161 100/214/161 101/215/161
f 99/213/161 101/215/161 98/212/161
f 101/215/161 97/211/161 98/212/161
f 97/211/161 101/215/161 102/216/161
f 94/220/162 93/219/162 95/221/162
f 95/221/162 93/219/162 92/218/162
f 91/217/162 95/221/162 92/218/162
f 95/221/162 91/217/162 96/222/162
f 103/247/163 91/223/164 92/224/165
f 103/247/163 92/224/165 98/236/166
f 103/247/163 98/236/166 97/235/167
f 103/247/163 97/235/167 91/223/164
f 104/248/168 92/225/169 93/226/170
f 104/248/168 93/226/170 99/238/171
f 104/248/168 99/238/171 98/237/172
f 104/248/168 98/237/172 92/225/169
f 105/249/173 93/227/174 94/228/175
f 105/249/173 94/228/175 100/240/176
f 105/249/173 100/240/176 99/239/177
f 105/249/173 99/239/177 93/227/174
f 106/250/178 94/229/179 95/230/180
f 106/250/178 95/230/180 101/242/181
f 106/250/178 101/242/181 100/241/182
f 106/250/178 100/241/182 94/229/179
f 107/251/183 95/231/184 96/232/185
f 107/251/183 96/232/185 102/244/186
f 107/251/183 102/244/186 101/243/187
f 107/251/183 101/243/187 95/231/184
f 108/252/188 96/233/189 91/234/190
f 108/252/188 91/234/190 97/246/191
f 108/252/188 97/246/191 102/245/192
f 108/252/188 102/245/192 96/233/189
