mtllib Asset 1.mtl
# Vertex Positions: 
g groupNumber_0
v 0.828844 0.796544 -0.08825
v 0.678113 0.947275 -0.08825
v 0.106606 0.375768 -0.08825
v 0.106606 0.946215 -0.08825
v -0.106606 0.946215 -0.08825
v -0.106606 0.375768 -0.08825
v -0.678113 0.947275 -0.08825
v -0.828844 0.796544 -0.08825
v -0.106606 0.0743069 -0.08825
v -0.106606 -0.947275 -0.08825
v 0.106606 -0.947275 -0.08825
v 0.106606 0.0743069 -0.08825
v 0.828844 0.796544 0.08825
v 0.678113 0.947275 0.08825
v 0.106606 0.375768 0.08825
v 0.106606 0.946215 0.08825
v -0.106606 0.946215 0.08825
v -0.106606 0.375768 0.08825
v -0.678113 0.947275 0.08825
v -0.828844 0.796544 0.08825
v -0.106606 0.0743069 0.08825
v -0.106606 -0.947275 0.08825
v 0.106606 -0.947275 0.08825
v 0.106606 0.0743069 0.08825
v 0.753479 0.871909 0
v 0.392359 0.661522 0
v 0.106606 0.660992 0
v 0 0.946215 0
v -0.106606 0.660992 0
v -0.392359 0.661522 0
v -0.753479 0.871909 0
v -0.467725 0.435425 0
v -0.106606 -0.436484 0
v 0 -0.947275 0
v 0.106606 -0.436484 0
v 0.467725 0.435425 0


# Vertex Texture Coordinates :
vt 0.496532 0.522327
vt 0.451383 0.567475
vt 0.280199 0.396292
vt 0.280199 0.567158
vt 0.216336 0.567158
vt 0.216336 0.396292
vt 0.0451524 0.567475
vt 3.68736e-06 0.522327
vt 0.216336 0.305995
vt 0.216336 0
vt 0.280199 0
vt 0.280199 0.305995
vt 0.503472 0.522327
vt 0.548621 0.567475
vt 0.719804 0.396292
vt 0.719804 0.567158
vt 0.783668 0.567158
vt 0.783668 0.396292
vt 0.954851 0.567475
vt 1 0.522327
vt 0.783668 0.305995
vt 0.783668 0
vt 0.719804 0
vt 0.719804 0.305995
vt 6.65333e-06 0.574431
vt 0.0638566 0.574431
vt 0.0708353 0.574431
vt 0.312926 0.574431
vt 0.319943 0.574431
vt 0.49081 0.574431
vt 0 0.634282
vt 0.0638632 0.634282
vt 0.0708416 0.634282
vt 0.241708 0.634282
vt 0.248725 0.634282
vt 0.490816 0.634282
vt 6.65333e-06 0.694133
vt 0.0638566 0.694133
vt 0.0708449 0.694133
vt 0.376785 0.694133
vt 0.0708173 0.753984
vt 0.376812 0.753984
vt 0.383766 0.694133
vt 0.44763 0.694133
vt 0.0708173 0.813835
vt 0.376812 0.813835
vt 0.0708449 0.873686
vt 0.376785 0.873686
vt 6.65333e-06 0.627298
vt 0.0638566 0.627298
vt 0.0708353 0.627298
vt 0.312926 0.627298
vt 0.319943 0.627298
vt 0.49081 0.627298
vt 0 0.687149
vt 0.0638632 0.687149
vt 0.0708416 0.687149
vt 0.241708 0.687149
vt 0.248725 0.687149
vt 0.490816 0.687149
vt 6.65333e-06 0.747
vt 0.0638566 0.747
vt 0.0708449 0.747
vt 0.376785 0.747
vt 0.0708173 0.806851
vt 0.376812 0.806851
vt 0.383766 0.747
vt 0.44763 0.747
vt 0.0708173 0.866702
vt 0.376812 0.866702
vt 0.0708449 0.926553
vt 0.376785 0.926553
vt 0.0319316 0.600864
vt 0.19188 0.600864
vt 0.405376 0.600864
vt 0.0319316 0.660715
vt 0.156275 0.660715
vt 0.369771 0.660715
vt 0.0319316 0.720566
vt 0.223815 0.720566
vt 0.223815 0.780417
vt 0.415698 0.720566
vt 0.223815 0.840268
vt 0.223815 0.900119


# Vertex Surface Normals: 
vn 0 0 1
vn 0 0 -1
vn 0.707107 0.707107 2.06523e-18
vn 0.707107 0.707107 -2.06523e-18
vn 0.707107 0.707107 -2.06523e-18
vn 0.707107 0.707107 -2.06523e-18
vn 0.707107 0.707107 -2.06523e-18
vn -0.707107 0.707107 -3.64181e-17
vn -0.707107 0.707107 -2.90338e-17
vn -0.707107 0.707107 1.38374e-17
vn -0.707107 0.707107 1.0187e-16
vn -0.707107 0.707107 5.89988e-17
vn 1 0 0
vn 1 0 0
vn 1 0 0
vn 1 0 0
vn 1 0 0
vn 0 1 0
vn 0 1 0
vn 0 1 0
vn 0 1 0
vn 0 1 0
vn -1 0 0
vn -1 0 0
vn -1 0 0
vn -1 0 0
vn -1 0 0
vn 0.707107 0.707107 3.64181e-17
vn 0.707107 0.707107 -1.0187e-16
vn 0.707107 0.707107 -5.89988e-17
vn 0.707107 0.707107 2.90338e-17
vn 0.707107 0.707107 -1.38374e-17
vn -0.707107 0.707107 3.8636e-19
vn -0.707107 0.707107 2.59586e-16
vn -0.707107 0.707107 2.72006e-16
vn -0.707107 0.707107 -2.60359e-16
vn -0.707107 0.707107 -2.72779e-16
vn -0.707106 -0.707108 -6.279e-17
vn -0.707106 -0.707108 8.38023e-17
vn -0.707106 -0.707108 1.03964e-16
vn -0.707106 -0.707108 4.17778e-17
vn -0.707106 -0.707108 2.1616e-17
vn -1 0 0
vn -1 0 0
vn -1 0 0
vn -1 0 0
vn -1 0 0
vn 0 -1 0
vn 0 -1 0
vn 0 -1 0
vn 0 -1 0
vn 0 -1 0
vn 1 0 0
vn 1 0 0
vn 1 0 0
vn 1 0 0
vn 1 0 0
vn 0.707106 -0.707108 6.279e-17
vn 0.707106 -0.707108 -4.17778e-17
vn 0.707106 -0.707108 -2.1616e-17
vn 0.707106 -0.707108 -8.38023e-17
vn 0.707106 -0.707108 -1.03964e-16


# Faces: 
usemtl material0
f 21/9/1 22/10/1 23/11/1
f 18/6/1 21/9/1 24/12/1
f 21/9/1 18/6/1 20/8/1
f 18/6/1 19/7/1 20/8/1
f 18/6/1 15/3/1 17/5/1
f 23/11/1 24/12/1 21/9/1
f 15/3/1 24/12/1 13/1/1
f 24/12/1 15/3/1 18/6/1
f 14/2/1 15/3/1 13/1/1
f 15/3/1 16/4/1 17/5/1
f 10/22/2 9/21/2 11/23/2
f 9/21/2 6/18/2 12/24/2
f 6/18/2 9/21/2 8/20/2
f 7/19/2 6/18/2 8/20/2
f 3/15/2 6/18/2 5/17/2
f 12/24/2 11/23/2 9/21/2
f 12/24/2 3/15/2 1/13/2
f 3/15/2 12/24/2 6/18/2
f 3/15/2 2/14/2 1/13/2
f 4/16/2 3/15/2 5/17/2
f 25/73/3 1/25/4 2/26/5
f 25/73/3 2/26/5 14/50/6
f 25/73/3 14/50/6 13/49/7
f 25/73/3 13/49/7 1/25/4
f 26/74/8 2/27/9 3/28/10
f 26/74/8 3/28/10 15/52/11
f 26/74/8 15/52/11 14/51/12
f 26/74/8 14/51/12 2/27/9
f 27/75/13 3/29/14 4/30/15
f 27/75/13 4/30/15 16/54/16
f 27/75/13 16/54/16 15/53/17
f 27/75/13 15/53/17 3/29/14
f 28/76/18 4/31/19 5/32/20
f 28/76/18 5/32/20 17/56/21
f 28/76/18 17/56/21 16/55/22
f 28/76/18 16/55/22 4/31/19
f 29/77/23 5/33/24 6/34/25
f 29/77/23 6/34/25 18/58/26
f 29/77/23 18/58/26 17/57/27
f 29/77/23 17/57/27 5/33/24
f 30/78/28 6/35/29 7/36/30
f 30/78/28 7/36/30 19/60/31
f 30/78/28 19/60/31 18/59/32
f 30/78/28 18/59/32 6/35/29
f 31/79/33 7/37/34 8/38/35
f 31/79/33 8/38/35 20/62/36
f 31/79/33 20/62/36 19/61/37
f 31/79/33 19/61/37 7/37/34
f 32/80/38 8/39/39 9/40/40
f 32/80/38 9/40/40 21/64/41
f 32/80/38 21/64/41 20/63/42
f 32/80/38 20/63/42 8/39/39
f 33/81/43 9/41/44 10/42/45
f 33/81/43 10/42/45 22/66/46
f 33/81/43 22/66/46 21/65/47
f 33/81/43 21/65/47 9/41/44
f 34/82/48 10/43/49 11/44/50
f 34/82/48 11/44/50 23/68/51
f 34/82/48 23/68/51 22/67/52
f 34/82/48 22/67/52 10/43/49
f 35/83/53 11/45/54 12/46/55
f 35/83/53 12/46/55 24/70/56
f 35/83/53 24/70/56 23/69/57
f 35/83/53 23/69/57 11/45/54
f 36/84/58 12/47/59 1/48/60
f 36/84/58 1/48/60 13/72/61
f 36/84/58 13/72/61 24/71/62
f 36/84/58 24/71/62 12/47/59
