g groupNumber_0
v 0.1062 0.4460 -0.1501
v 0.1062 0.4430 -0.1501
v 0.1060 0.4349 -0.1501
v 0.1056 0.4269 -0.1501
v 0.1049 0.4190 -0.1501
v 0.1038 0.4112 -0.1501
v 0.1025 0.4035 -0.1501
v 0.1010 0.3958 -0.1501
v 0.0992 0.3882 -0.1501
v 0.0971 0.3807 -0.1501
v 0.0948 0.3732 -0.1501
v 0.0923 0.3658 -0.1501
v 0.0896 0.3585 -0.1501
v 0.0866 0.3512 -0.1501
v 0.0835 0.3440 -0.1501
v 0.0801 0.3368 -0.1501
v 0.0766 0.3297 -0.1501
v 0.0728 0.3226 -0.1501
v 0.0689 0.3156 -0.1501
v 0.0649 0.3086 -0.1501
v 0.0607 0.3017 -0.1501
v 0.0563 0.2948 -0.1501
v 0.0519 0.2879 -0.1501
v 0.0472 0.2811 -0.1501
v 0.0425 0.2743 -0.1501
v 0.0377 0.2675 -0.1501
v 0.0327 0.2607 -0.1501
v 0.0277 0.2540 -0.1501
v 0.0226 0.2473 -0.1501
v 0.0174 0.2406 -0.1501
v 0.0121 0.2339 -0.1501
v 0.0068 0.2272 -0.1501
v 0.0014 0.2205 -0.1501
v -0.0040 0.2139 -0.1501
v -0.0153 0.2250 -0.1501
v -0.0260 0.2366 -0.1501
v -0.0362 0.2485 -0.1501
v -0.0458 0.2608 -0.1501
v -0.0549 0.2735 -0.1501
v -0.0634 0.2864 -0.1501
v -0.0714 0.2997 -0.1501
v -0.0787 0.3133 -0.1501
v -0.0855 0.3272 -0.1501
v -0.0916 0.3413 -0.1501
v -0.0972 0.3558 -0.1501
v -0.1021 0.3704 -0.1501
v -0.1063 0.3853 -0.1501
v -0.1099 0.4004 -0.1501
v -0.1129 0.4157 -0.1501
v -0.1152 0.4311 -0.1501
v -0.1160 0.4399 -0.1501
v -0.1162 0.4487 -0.1501
v -0.1159 0.4588 -0.1501
v -0.1148 0.4688 -0.1501
v -0.1130 0.4786 -0.1501
v -0.1106 0.4882 -0.1501
v -0.1075 0.4975 -0.1501
v -0.1037 0.5065 -0.1501
v -0.0994 0.5151 -0.1501
v -0.0944 0.5234 -0.1501
v -0.0888 0.5311 -0.1501
v -0.0826 0.5384 -0.1501
v -0.0759 0.5451 -0.1501
v -0.0686 0.5512 -0.1501
v -0.0608 0.5566 -0.1501
v -0.0525 0.5614 -0.1501
v -0.0437 0.5654 -0.1501
v -0.0344 0.5686 -0.1501
v -0.0261 0.5707 -0.1501
v -0.0179 0.5722 -0.1501
v -0.0098 0.5731 -0.1501
v -0.0019 0.5734 -0.1501
v 0.0065 0.5731 -0.1501
v 0.0147 0.5721 -0.1501
v 0.0226 0.5704 -0.1501
v 0.0303 0.5681 -0.1501
v 0.0377 0.5652 -0.1501
v 0.0448 0.5617 -0.1501
v 0.0516 0.5577 -0.1501
v 0.0580 0.5531 -0.1501
v 0.0641 0.5480 -0.1501
v 0.0698 0.5424 -0.1501
v 0.0751 0.5363 -0.1501
v 0.0800 0.5298 -0.1501
v 0.0845 0.5228 -0.1501
v 0.0885 0.5154 -0.1501
v 0.0920 0.5076 -0.1501
v 0.0951 0.4994 -0.1501
v 0.0991 0.4862 -0.1501
v 0.1022 0.4731 -0.1501
v 0.1045 0.4598 -0.1501
v 0.1062 0.4460 0.1501
v 0.1062 0.4430 0.1501
v 0.1060 0.4349 0.1501
v 0.1056 0.4269 0.1501
v 0.1049 0.4190 0.1501
v 0.1038 0.4112 0.1501
v 0.1025 0.4035 0.1501
v 0.1010 0.3958 0.1501
v 0.0992 0.3882 0.1501
v 0.0971 0.3807 0.1501
v 0.0948 0.3732 0.1501
v 0.0923 0.3658 0.1501
v 0.0896 0.3585 0.1501
v 0.0866 0.3512 0.1501
v 0.0835 0.3440 0.1501
v 0.0801 0.3368 0.1501
v 0.0766 0.3297 0.1501
v 0.0728 0.3226 0.1501
v 0.0689 0.3156 0.1501
v 0.0649 0.3086 0.1501
v 0.0607 0.3017 0.1501
v 0.0563 0.2948 0.1501
v 0.0519 0.2879 0.1501
v 0.0472 0.2811 0.1501
v 0.0425 0.2743 0.1501
v 0.0377 0.2675 0.1501
v 0.0327 0.2607 0.1501
v 0.0277 0.2540 0.1501
v 0.0226 0.2473 0.1501
v 0.0174 0.2406 0.1501
v 0.0121 0.2339 0.1501
v 0.0068 0.2272 0.1501
v 0.0014 0.2205 0.1501
v -0.0040 0.2139 0.1501
v -0.0153 0.2250 0.1501
v -0.0260 0.2366 0.1501
v -0.0362 0.2485 0.1501
v -0.0458 0.2608 0.1501
v -0.0549 0.2735 0.1501
v -0.0634 0.2864 0.1501
v -0.0714 0.2997 0.1501
v -0.0787 0.3133 0.1501
v -0.0855 0.3272 0.1501
v -0.0916 0.3413 0.1501
v -0.0972 0.3558 0.1501
v -0.1021 0.3704 0.1501
v -0.1063 0.3853 0.1501
v -0.1099 0.4004 0.1501
v -0.1129 0.4157 0.1501
v -0.1152 0.4311 0.1501
v -0.1160 0.4399 0.1501
v -0.1162 0.4487 0.1501
v -0.1159 0.4588 0.1501
v -0.1148 0.4688 0.1501
v -0.1130 0.4786 0.1501
v -0.1106 0.4882 0.1501
v -0.1075 0.4975 0.1501
v -0.1037 0.5065 0.1501
v -0.0994 0.5151 0.1501
v -0.0944 0.5234 0.1501
v -0.0888 0.5311 0.1501
v -0.0826 0.5384 0.1501
v -0.0759 0.5451 0.1501
v -0.0686 0.5512 0.1501
v -0.0608 0.5566 0.1501
v -0.0525 0.5614 0.1501
v -0.0437 0.5654 0.1501
v -0.0344 0.5686 0.1501
v -0.0261 0.5707 0.1501
v -0.0179 0.5722 0.1501
v -0.0098 0.5731 0.1501
v -0.0019 0.5734 0.1501
v 0.0065 0.5731 0.1501
v 0.0147 0.5721 0.1501
v 0.0226 0.5704 0.1501
v 0.0303 0.5681 0.1501
v 0.0377 0.5652 0.1501
v 0.0448 0.5617 0.1501
v 0.0516 0.5577 0.1501
v 0.0580 0.5531 0.1501
v 0.0641 0.5480 0.1501
v 0.0698 0.5424 0.1501
v 0.0751 0.5363 0.1501
v 0.0800 0.5298 0.1501
v 0.0845 0.5228 0.1501
v 0.0885 0.5154 0.1501
v 0.0920 0.5076 0.1501
v 0.0951 0.4994 0.1501
v 0.0991 0.4862 0.1501
v 0.1022 0.4731 0.1501
v 0.1045 0.4598 0.1501
v 0.1062 0.4445 0.0000
v 0.1061 0.4390 0.0000
v 0.1058 0.4309 0.0000
v 0.1052 0.4230 0.0000
v 0.1043 0.4151 0.0000
v 0.1032 0.4073 0.0000
v 0.1018 0.3996 0.0000
v 0.1001 0.3920 0.0000
v 0.0982 0.3844 0.0000
v 0.0960 0.3769 0.0000
v 0.0936 0.3695 0.0000
v 0.0909 0.3621 0.0000
v 0.0881 0.3548 0.0000
v 0.0850 0.3476 0.0000
v 0.0818 0.3404 0.0000
v 0.0783 0.3332 0.0000
v 0.0747 0.3261 0.0000
v 0.0709 0.3191 0.0000
v 0.0669 0.3121 0.0000
v 0.0628 0.3051 0.0000
v 0.0585 0.2982 0.0000
v 0.0541 0.2913 0.0000
v 0.0495 0.2845 0.0000
v 0.0449 0.2777 0.0000
v 0.0401 0.2709 0.0000
v 0.0352 0.2641 0.0000
v 0.0302 0.2574 0.0000
v 0.0251 0.2506 0.0000
v 0.0200 0.2439 0.0000
v 0.0147 0.2372 0.0000
v 0.0094 0.2305 0.0000
v 0.0041 0.2239 0.0000
v -0.0013 0.2172 0.0000
v -0.0097 0.2194 0.0000
v -0.0206 0.2308 0.0000
v -0.0311 0.2426 0.0000
v -0.0410 0.2547 0.0000
v -0.0504 0.2671 0.0000
v -0.0592 0.2800 0.0000
v -0.0674 0.2931 0.0000
v -0.0751 0.3065 0.0000
v -0.0821 0.3203 0.0000
v -0.0886 0.3343 0.0000
v -0.0944 0.3485 0.0000
v -0.0996 0.3631 0.0000
v -0.1042 0.3778 0.0000
v -0.1081 0.3928 0.0000
v -0.1114 0.4080 0.0000
v -0.1140 0.4234 0.0000
v -0.1156 0.4355 0.0000
v -0.1161 0.4443 0.0000
v -0.1161 0.4537 0.0000
v -0.1153 0.4638 0.0000
v -0.1139 0.4737 0.0000
v -0.1118 0.4834 0.0000
v -0.1091 0.4928 0.0000
v -0.1056 0.5020 0.0000
v -0.1016 0.5108 0.0000
v -0.0969 0.5193 0.0000
v -0.0916 0.5273 0.0000
v -0.0857 0.5348 0.0000
v -0.0793 0.5417 0.0000
v -0.0723 0.5481 0.0000
v -0.0647 0.5539 0.0000
v -0.0567 0.5590 0.0000
v -0.0481 0.5634 0.0000
v -0.0390 0.5670 0.0000
v -0.0302 0.5697 0.0000
v -0.0220 0.5715 0.0000
v -0.0138 0.5727 0.0000
v -0.0059 0.5733 0.0000
v 0.0023 0.5733 0.0000
v 0.0106 0.5726 0.0000
v 0.0187 0.5712 0.0000
v 0.0265 0.5693 0.0000
v 0.0340 0.5667 0.0000
v 0.0413 0.5635 0.0000
v 0.0482 0.5597 0.0000
v 0.0548 0.5554 0.0000
v 0.0611 0.5506 0.0000
v 0.0670 0.5452 0.0000
v 0.0725 0.5394 0.0000
v 0.0776 0.5330 0.0000
v 0.0823 0.5263 0.0000
v 0.0865 0.5191 0.0000
v 0.0903 0.5115 0.0000
v 0.0935 0.5035 0.0000
v 0.0971 0.4928 0.0000
v 0.1006 0.4796 0.0000
v 0.1033 0.4664 0.0000
v 0.1053 0.4529 0.0000
v 0.4884 -0.1198 -0.1501
v 0.4883 0.1277 -0.1501
v 0.4881 0.1317 -0.1501
v 0.4874 0.1361 -0.1501
v 0.4862 0.1407 -0.1501
v 0.4848 0.1453 -0.1501
v 0.4830 0.1496 -0.1501
v 0.4810 0.1535 -0.1501
v 0.4788 0.1568 -0.1501
v 0.4765 0.1593 -0.1501
v 0.4741 0.1610 -0.1501
v 0.4709 0.1626 -0.1501
v 0.4671 0.1640 -0.1501
v 0.4630 0.1652 -0.1501
v 0.4587 0.1663 -0.1501
v 0.4544 0.1671 -0.1501
v 0.4502 0.1676 -0.1501
v 0.4464 0.1677 -0.1501
v 0.4443 0.1677 -0.1501
v 0.4423 0.1674 -0.1501
v 0.2955 0.1413 -0.1501
v 0.1764 0.1229 -0.1501
v 0.1856 0.1384 -0.1501
v 0.1946 0.1535 -0.1501
v 0.2035 0.1683 -0.1501
v 0.2121 0.1830 -0.1501
v 0.2206 0.1974 -0.1501
v 0.2289 0.2118 -0.1501
v 0.2369 0.2260 -0.1501
v 0.2447 0.2403 -0.1501
v 0.2522 0.2546 -0.1501
v 0.2594 0.2690 -0.1501
v 0.2663 0.2836 -0.1501
v 0.2728 0.2984 -0.1501
v 0.2790 0.3134 -0.1501
v 0.2848 0.3287 -0.1501
v 0.2902 0.3444 -0.1501
v 0.2952 0.3605 -0.1501
v 0.2987 0.3732 -0.1501
v 0.3017 0.3859 -0.1501
v 0.3043 0.3987 -0.1501
v 0.3064 0.4114 -0.1501
v 0.3081 0.4241 -0.1501
v 0.3092 0.4369 -0.1501
v 0.3100 0.4496 -0.1501
v 0.3102 0.4622 -0.1501
v 0.3099 0.4753 -0.1501
v 0.3092 0.4884 -0.1501
v 0.3079 0.5013 -0.1501
v 0.3060 0.5142 -0.1501
v 0.3037 0.5270 -0.1501
v 0.3008 0.5397 -0.1501
v 0.2973 0.5523 -0.1501
v 0.2933 0.5648 -0.1501
v 0.2888 0.5771 -0.1501
v 0.2837 0.5893 -0.1501
v 0.2780 0.6014 -0.1501
v 0.2718 0.6133 -0.1501
v 0.2650 0.6250 -0.1501
v 0.2577 0.6365 -0.1501
v 0.2498 0.6478 -0.1501
v 0.2413 0.6589 -0.1501
v 0.2304 0.6718 -0.1501
v 0.2189 0.6841 -0.1501
v 0.2067 0.6959 -0.1501
v 0.1938 0.7070 -0.1501
v 0.1804 0.7175 -0.1501
v 0.1664 0.7273 -0.1501
v 0.1519 0.7364 -0.1501
v 0.1369 0.7447 -0.1501
v 0.1214 0.7522 -0.1501
v 0.1055 0.7588 -0.1501
v 0.0893 0.7645 -0.1501
v 0.0727 0.7693 -0.1501
v 0.0558 0.7730 -0.1501
v 0.0386 0.7758 -0.1501
v 0.0212 0.7775 -0.1501
v 0.0036 0.7780 -0.1501
v -0.0063 0.7779 -0.1501
v -0.0163 0.7773 -0.1501
v -0.0321 0.7758 -0.1501
v -0.0477 0.7735 -0.1501
v -0.0630 0.7706 -0.1501
v -0.0779 0.7670 -0.1501
v -0.0925 0.7628 -0.1501
v -0.1068 0.7579 -0.1501
v -0.1207 0.7524 -0.1501
v -0.1343 0.7463 -0.1501
v -0.1475 0.7397 -0.1501
v -0.1603 0.7324 -0.1501
v -0.1727 0.7246 -0.1501
v -0.1846 0.7163 -0.1501
v -0.1961 0.7075 -0.1501
v -0.2072 0.6982 -0.1501
v -0.2178 0.6884 -0.1501
v -0.2279 0.6781 -0.1501
v -0.2375 0.6674 -0.1501
v -0.2465 0.6562 -0.1501
v -0.2551 0.6447 -0.1501
v -0.2631 0.6327 -0.1501
v -0.2706 0.6204 -0.1501
v -0.2775 0.6077 -0.1501
v -0.2838 0.5947 -0.1501
v -0.2895 0.5813 -0.1501
v -0.2946 0.5676 -0.1501
v -0.2990 0.5536 -0.1501
v -0.3028 0.5394 -0.1501
v -0.3060 0.5249 -0.1501
v -0.3084 0.5101 -0.1501
v -0.3102 0.4952 -0.1501
v -0.3113 0.4800 -0.1501
v -0.3117 0.4646 -0.1501
v -0.3115 0.4539 -0.1501
v -0.3110 0.4430 -0.1501
v -0.3101 0.4321 -0.1501
v -0.3088 0.4212 -0.1501
v -0.3066 0.4065 -0.1501
v -0.3040 0.3920 -0.1501
v -0.3008 0.3777 -0.1501
v -0.2972 0.3636 -0.1501
v -0.2931 0.3496 -0.1501
v -0.2886 0.3358 -0.1501
v -0.2837 0.3222 -0.1501
v -0.2784 0.3086 -0.1501
v -0.2727 0.2953 -0.1501
v -0.2667 0.2820 -0.1501
v -0.2602 0.2689 -0.1501
v -0.2535 0.2559 -0.1501
v -0.2464 0.2431 -0.1501
v -0.2390 0.2303 -0.1501
v -0.2313 0.2176 -0.1501
v -0.2234 0.2051 -0.1501
v -0.2202 0.2001 -0.1501
v -0.2169 0.1953 -0.1501
v -0.2138 0.1906 -0.1501
v -0.2106 0.1859 -0.1501
v -0.2075 0.1812 -0.1501
v -0.2044 0.1765 -0.1501
v -0.2014 0.1717 -0.1501
v -0.1985 0.1669 -0.1501
v -0.1956 0.1620 -0.1501
v -0.1929 0.1569 -0.1501
v -0.1902 0.1516 -0.1501
v -0.1877 0.1461 -0.1501
v -0.1853 0.1404 -0.1501
v -0.1830 0.1344 -0.1501
v -0.1808 0.1281 -0.1501
v -0.1788 0.1215 -0.1501
v -0.4484 0.1661 -0.1501
v -0.4542 0.1666 -0.1501
v -0.4577 0.1664 -0.1501
v -0.4611 0.1659 -0.1501
v -0.4643 0.1651 -0.1501
v -0.4675 0.1640 -0.1501
v -0.4704 0.1626 -0.1501
v -0.4733 0.1609 -0.1501
v -0.4759 0.1590 -0.1501
v -0.4783 0.1568 -0.1501
v -0.4805 0.1544 -0.1501
v -0.4825 0.1519 -0.1501
v -0.4842 0.1491 -0.1501
v -0.4857 0.1461 -0.1501
v -0.4868 0.1430 -0.1501
v -0.4877 0.1398 -0.1501
v -0.4882 0.1364 -0.1501
v -0.4884 0.1329 -0.1501
v -0.4876 -0.1242 -0.1501
v -0.4874 -0.1277 -0.1501
v -0.4869 -0.1311 -0.1501
v -0.4860 -0.1344 -0.1501
v -0.4849 -0.1377 -0.1501
v -0.4835 -0.1408 -0.1501
v -0.4818 -0.1437 -0.1501
v -0.4799 -0.1465 -0.1501
v -0.4778 -0.1491 -0.1501
v -0.4754 -0.1514 -0.1501
v -0.4728 -0.1535 -0.1501
v -0.4701 -0.1554 -0.1501
v -0.4672 -0.1569 -0.1501
v -0.4642 -0.1582 -0.1501
v -0.4610 -0.1591 -0.1501
v -0.4577 -0.1597 -0.1501
v -0.4543 -0.1599 -0.1501
v -0.4514 -0.1597 -0.1501
v -0.4485 -0.1593 -0.1501
v -0.2267 -0.1151 -0.1501
v -0.1226 -0.1017 -0.1501
v -0.1251 -0.2020 -0.1501
v -0.1956 -0.7340 -0.1501
v -0.1959 -0.7374 -0.1501
v -0.1956 -0.7419 -0.1501
v -0.1948 -0.7466 -0.1501
v -0.1935 -0.7515 -0.1501
v -0.1919 -0.7562 -0.1501
v -0.1900 -0.7606 -0.1501
v -0.1878 -0.7645 -0.1501
v -0.1854 -0.7677 -0.1501
v -0.1829 -0.7699 -0.1501
v -0.1801 -0.7715 -0.1501
v -0.1766 -0.7731 -0.1501
v -0.1726 -0.7744 -0.1501
v -0.1682 -0.7756 -0.1501
v -0.1636 -0.7766 -0.1501
v -0.1590 -0.7774 -0.1501
v -0.1546 -0.7779 -0.1501
v -0.1504 -0.7780 -0.1501
v 0.1648 -0.7757 -0.1501
v 0.1691 -0.7754 -0.1501
v 0.1731 -0.7747 -0.1501
v 0.1768 -0.7736 -0.1501
v 0.1802 -0.7722 -0.1501
v 0.1832 -0.7704 -0.1501
v 0.1860 -0.7683 -0.1501
v 0.1885 -0.7659 -0.1501
v 0.1907 -0.7633 -0.1501
v 0.1926 -0.7604 -0.1501
v 0.1943 -0.7574 -0.1501
v 0.1957 -0.7541 -0.1501
v 0.1968 -0.7507 -0.1501
v 0.1976 -0.7472 -0.1501
v 0.1982 -0.7436 -0.1501
v 0.1986 -0.7400 -0.1501
v 0.1987 -0.7363 -0.1501
v 0.1983 -0.7291 -0.1501
v 0.1257 -0.1311 -0.1501
v 0.1256 -0.1293 -0.1501
v 0.1259 -0.1260 -0.1501
v 0.1265 -0.1223 -0.1501
v 0.1275 -0.1184 -0.1501
v 0.1288 -0.1145 -0.1501
v 0.1303 -0.1109 -0.1501
v 0.1321 -0.1078 -0.1501
v 0.1340 -0.1054 -0.1501
v 0.1359 -0.1040 -0.1501
v 0.1390 -0.1030 -0.1501
v 0.1428 -0.1023 -0.1501
v 0.1470 -0.1019 -0.1501
v 0.1514 -0.1017 -0.1501
v 0.1569 -0.1019 -0.1501
v 0.1619 -0.1026 -0.1501
v 0.4382 -0.1569 -0.1501
v 0.4411 -0.1573 -0.1501
v 0.4443 -0.1575 -0.1501
v 0.4484 -0.1573 -0.1501
v 0.4527 -0.1568 -0.1501
v 0.4571 -0.1561 -0.1501
v 0.4614 -0.1551 -0.1501
v 0.4654 -0.1540 -0.1501
v 0.4692 -0.1526 -0.1501
v 0.4724 -0.1511 -0.1501
v 0.4750 -0.1496 -0.1501
v 0.4773 -0.1473 -0.1501
v 0.4797 -0.1442 -0.1501
v 0.4820 -0.1403 -0.1501
v 0.4840 -0.1361 -0.1501
v 0.4858 -0.1317 -0.1501
v 0.4872 -0.1273 -0.1501
v 0.4881 -0.1233 -0.1501
v 0.4884 -0.1198 0.1501
v 0.4883 0.1277 0.1501
v 0.4881 0.1317 0.1501
v 0.4874 0.1361 0.1501
v 0.4862 0.1407 0.1501
v 0.4848 0.1453 0.1501
v 0.4830 0.1496 0.1501
v 0.4810 0.1535 0.1501
v 0.4788 0.1568 0.1501
v 0.4765 0.1593 0.1501
v 0.4741 0.1610 0.1501
v 0.4709 0.1626 0.1501
v 0.4671 0.1640 0.1501
v 0.4630 0.1652 0.1501
v 0.4587 0.1663 0.1501
v 0.4544 0.1671 0.1501
v 0.4502 0.1676 0.1501
v 0.4464 0.1677 0.1501
v 0.4443 0.1677 0.1501
v 0.4423 0.1674 0.1501
v 0.2955 0.1413 0.1501
v 0.1764 0.1229 0.1501
v 0.1856 0.1384 0.1501
v 0.1946 0.1535 0.1501
v 0.2035 0.1683 0.1501
v 0.2121 0.1830 0.1501
v 0.2206 0.1974 0.1501
v 0.2289 0.2118 0.1501
v 0.2369 0.2260 0.1501
v 0.2447 0.2403 0.1501
v 0.2522 0.2546 0.1501
v 0.2594 0.2690 0.1501
v 0.2663 0.2836 0.1501
v 0.2728 0.2984 0.1501
v 0.2790 0.3134 0.1501
v 0.2848 0.3287 0.1501
v 0.2902 0.3444 0.1501
v 0.2952 0.3605 0.1501
v 0.2987 0.3732 0.1501
v 0.3017 0.3859 0.1501
v 0.3043 0.3987 0.1501
v 0.3064 0.4114 0.1501
v 0.3081 0.4241 0.1501
v 0.3092 0.4369 0.1501
v 0.3100 0.4496 0.1501
v 0.3102 0.4622 0.1501
v 0.3099 0.4753 0.1501
v 0.3092 0.4884 0.1501
v 0.3079 0.5013 0.1501
v 0.3060 0.5142 0.1501
v 0.3037 0.5270 0.1501
v 0.3008 0.5397 0.1501
v 0.2973 0.5523 0.1501
v 0.2933 0.5648 0.1501
v 0.2888 0.5771 0.1501
v 0.2837 0.5893 0.1501
v 0.2780 0.6014 0.1501
v 0.2718 0.6133 0.1501
v 0.2650 0.6250 0.1501
v 0.2577 0.6365 0.1501
v 0.2498 0.6478 0.1501
v 0.2413 0.6589 0.1501
v 0.2304 0.6718 0.1501
v 0.2189 0.6841 0.1501
v 0.2067 0.6959 0.1501
v 0.1938 0.7070 0.1501
v 0.1804 0.7175 0.1501
v 0.1664 0.7273 0.1501
v 0.1519 0.7364 0.1501
v 0.1369 0.7447 0.1501
v 0.1214 0.7522 0.1501
v 0.1055 0.7588 0.1501
v 0.0893 0.7645 0.1501
v 0.0727 0.7693 0.1501
v 0.0558 0.7730 0.1501
v 0.0386 0.7758 0.1501
v 0.0212 0.7775 0.1501
v 0.0036 0.7780 0.1501
v -0.0063 0.7779 0.1501
v -0.0163 0.7773 0.1501
v -0.0321 0.7758 0.1501
v -0.0477 0.7735 0.1501
v -0.0630 0.7706 0.1501
v -0.0779 0.7670 0.1501
v -0.0925 0.7628 0.1501
v -0.1068 0.7579 0.1501
v -0.1207 0.7524 0.1501
v -0.1343 0.7463 0.1501
v -0.1475 0.7397 0.1501
v -0.1603 0.7324 0.1501
v -0.1727 0.7246 0.1501
v -0.1846 0.7163 0.1501
v -0.1961 0.7075 0.1501
v -0.2072 0.6982 0.1501
v -0.2178 0.6884 0.1501
v -0.2279 0.6781 0.1501
v -0.2375 0.6674 0.1501
v -0.2465 0.6562 0.1501
v -0.2551 0.6447 0.1501
v -0.2631 0.6327 0.1501
v -0.2706 0.6204 0.1501
v -0.2775 0.6077 0.1501
v -0.2838 0.5947 0.1501
v -0.2895 0.5813 0.1501
v -0.2946 0.5676 0.1501
v -0.2990 0.5536 0.1501
v -0.3028 0.5394 0.1501
v -0.3060 0.5249 0.1501
v -0.3084 0.5101 0.1501
v -0.3102 0.4952 0.1501
v -0.3113 0.4800 0.1501
v -0.3117 0.4646 0.1501
v -0.3115 0.4539 0.1501
v -0.3110 0.4430 0.1501
v -0.3101 0.4321 0.1501
v -0.3088 0.4212 0.1501
v -0.3066 0.4065 0.1501
v -0.3040 0.3920 0.1501
v -0.3008 0.3777 0.1501
v -0.2972 0.3636 0.1501
v -0.2931 0.3496 0.1501
v -0.2886 0.3358 0.1501
v -0.2837 0.3222 0.1501
v -0.2784 0.3086 0.1501
v -0.2727 0.2953 0.1501
v -0.2667 0.2820 0.1501
v -0.2602 0.2689 0.1501
v -0.2535 0.2559 0.1501
v -0.2464 0.2431 0.1501
v -0.2390 0.2303 0.1501
v -0.2313 0.2176 0.1501
v -0.2234 0.2051 0.1501
v -0.2202 0.2001 0.1501
v -0.2169 0.1953 0.1501
v -0.2138 0.1906 0.1501
v -0.2106 0.1859 0.1501
v -0.2075 0.1812 0.1501
v -0.2044 0.1765 0.1501
v -0.2014 0.1717 0.1501
v -0.1985 0.1669 0.1501
v -0.1956 0.1620 0.1501
v -0.1929 0.1569 0.1501
v -0.1902 0.1516 0.1501
v -0.1877 0.1461 0.1501
v -0.1853 0.1404 0.1501
v -0.1830 0.1344 0.1501
v -0.1808 0.1281 0.1501
v -0.1788 0.1215 0.1501
v -0.4484 0.1661 0.1501
v -0.4542 0.1666 0.1501
v -0.4577 0.1664 0.1501
v -0.4611 0.1659 0.1501
v -0.4643 0.1651 0.1501
v -0.4675 0.1640 0.1501
v -0.4704 0.1626 0.1501
v -0.4733 0.1609 0.1501
v -0.4759 0.1590 0.1501
v -0.4783 0.1568 0.1501
v -0.4805 0.1544 0.1501
v -0.4825 0.1519 0.1501
v -0.4842 0.1491 0.1501
v -0.4857 0.1461 0.1501
v -0.4868 0.1430 0.1501
v -0.4877 0.1398 0.1501
v -0.4882 0.1364 0.1501
v -0.4884 0.1329 0.1501
v -0.4876 -0.1242 0.1501
v -0.4874 -0.1277 0.1501
v -0.4869 -0.1311 0.1501
v -0.4860 -0.1344 0.1501
v -0.4849 -0.1377 0.1501
v -0.4835 -0.1408 0.1501
v -0.4818 -0.1437 0.1501
v -0.4799 -0.1465 0.1501
v -0.4778 -0.1491 0.1501
v -0.4754 -0.1514 0.1501
v -0.4728 -0.1535 0.1501
v -0.4701 -0.1554 0.1501
v -0.4672 -0.1569 0.1501
v -0.4642 -0.1582 0.1501
v -0.4610 -0.1591 0.1501
v -0.4577 -0.1597 0.1501
v -0.4543 -0.1599 0.1501
v -0.4514 -0.1597 0.1501
v -0.4485 -0.1593 0.1501
v -0.2267 -0.1151 0.1501
v -0.1226 -0.1017 0.1501
v -0.1251 -0.2020 0.1501
v -0.1956 -0.7340 0.1501
v -0.1959 -0.7374 0.1501
v -0.1956 -0.7419 0.1501
v -0.1948 -0.7466 0.1501
v -0.1935 -0.7515 0.1501
v -0.1919 -0.7562 0.1501
v -0.1900 -0.7606 0.1501
v -0.1878 -0.7645 0.1501
v -0.1854 -0.7677 0.1501
v -0.1829 -0.7699 0.1501
v -0.1801 -0.7715 0.1501
v -0.1766 -0.7731 0.1501
v -0.1726 -0.7744 0.1501
v -0.1682 -0.7756 0.1501
v -0.1636 -0.7766 0.1501
v -0.1590 -0.7774 0.1501
v -0.1546 -0.7779 0.1501
v -0.1504 -0.7780 0.1501
v 0.1648 -0.7757 0.1501
v 0.1691 -0.7754 0.1501
v 0.1731 -0.7747 0.1501
v 0.1768 -0.7736 0.1501
v 0.1802 -0.7722 0.1501
v 0.1832 -0.7704 0.1501
v 0.1860 -0.7683 0.1501
v 0.1885 -0.7659 0.1501
v 0.1907 -0.7633 0.1501
v 0.1926 -0.7604 0.1501
v 0.1943 -0.7574 0.1501
v 0.1957 -0.7541 0.1501
v 0.1968 -0.7507 0.1501
v 0.1976 -0.7472 0.1501
v 0.1982 -0.7436 0.1501
v 0.1986 -0.7400 0.1501
v 0.1987 -0.7363 0.1501
v 0.1983 -0.7291 0.1501
v 0.1257 -0.1311 0.1501
v 0.1256 -0.1293 0.1501
v 0.1259 -0.1260 0.1501
v 0.1265 -0.1223 0.1501
v 0.1275 -0.1184 0.1501
v 0.1288 -0.1145 0.1501
v 0.1303 -0.1109 0.1501
v 0.1321 -0.1078 0.1501
v 0.1340 -0.1054 0.1501
v 0.1359 -0.1040 0.1501
v 0.1390 -0.1030 0.1501
v 0.1428 -0.1023 0.1501
v 0.1470 -0.1019 0.1501
v 0.1514 -0.1017 0.1501
v 0.1569 -0.1019 0.1501
v 0.1619 -0.1026 0.1501
v 0.4382 -0.1569 0.1501
v 0.4411 -0.1573 0.1501
v 0.4443 -0.1575 0.1501
v 0.4484 -0.1573 0.1501
v 0.4527 -0.1568 0.1501
v 0.4571 -0.1561 0.1501
v 0.4614 -0.1551 0.1501
v 0.4654 -0.1540 0.1501
v 0.4692 -0.1526 0.1501
v 0.4724 -0.1511 0.1501
v 0.4750 -0.1496 0.1501
v 0.4773 -0.1473 0.1501
v 0.4797 -0.1442 0.1501
v 0.4820 -0.1403 0.1501
v 0.4840 -0.1361 0.1501
v 0.4858 -0.1317 0.1501
v 0.4872 -0.1273 0.1501
v 0.4881 -0.1233 0.1501
v 0.4884 0.0040 0.0000
v 0.4882 0.1297 0.0000
v 0.4877 0.1339 0.0000
v 0.4868 0.1384 0.0000
v 0.4855 0.1430 0.0000
v 0.4839 0.1474 0.0000
v 0.4820 0.1516 0.0000
v 0.4799 0.1552 0.0000
v 0.4776 0.1581 0.0000
v 0.4753 0.1602 0.0000
v 0.4725 0.1618 0.0000
v 0.4690 0.1633 0.0000
v 0.4651 0.1646 0.0000
v 0.4609 0.1658 0.0000
v 0.4566 0.1667 0.0000
v 0.4523 0.1673 0.0000
v 0.4483 0.1676 0.0000
v 0.4454 0.1677 0.0000
v 0.4433 0.1675 0.0000
v 0.3689 0.1543 0.0000
v 0.2360 0.1321 0.0000
v 0.1810 0.1306 0.0000
v 0.1901 0.1459 0.0000
v 0.1990 0.1609 0.0000
v 0.2078 0.1756 0.0000
v 0.2164 0.1902 0.0000
v 0.2248 0.2046 0.0000
v 0.2329 0.2189 0.0000
v 0.2408 0.2332 0.0000
v 0.2485 0.2475 0.0000
v 0.2558 0.2618 0.0000
v 0.2628 0.2763 0.0000
v 0.2696 0.2910 0.0000
v 0.2759 0.3059 0.0000
v 0.2819 0.3210 0.0000
v 0.2875 0.3365 0.0000
v 0.2927 0.3524 0.0000
v 0.2969 0.3668 0.0000
v 0.3002 0.3796 0.0000
v 0.3030 0.3923 0.0000
v 0.3054 0.4050 0.0000
v 0.3072 0.4178 0.0000
v 0.3087 0.4305 0.0000
v 0.3096 0.4432 0.0000
v 0.3101 0.4559 0.0000
v 0.3101 0.4688 0.0000
v 0.3095 0.4818 0.0000
v 0.3085 0.4948 0.0000
v 0.3069 0.5078 0.0000
v 0.3048 0.5206 0.0000
v 0.3022 0.5334 0.0000
v 0.2990 0.5460 0.0000
v 0.2953 0.5586 0.0000
v 0.2911 0.5710 0.0000
v 0.2862 0.5832 0.0000
v 0.2809 0.5954 0.0000
v 0.2749 0.6073 0.0000
v 0.2684 0.6191 0.0000
v 0.2614 0.6307 0.0000
v 0.2537 0.6421 0.0000
v 0.2455 0.6534 0.0000
v 0.2358 0.6654 0.0000
v 0.2246 0.6780 0.0000
v 0.2128 0.6900 0.0000
v 0.2002 0.7015 0.0000
v 0.1871 0.7123 0.0000
v 0.1734 0.7224 0.0000
v 0.1591 0.7319 0.0000
v 0.1444 0.7406 0.0000
v 0.1291 0.7484 0.0000
v 0.1135 0.7555 0.0000
v 0.0974 0.7616 0.0000
v 0.0810 0.7669 0.0000
v 0.0642 0.7712 0.0000
v 0.0472 0.7744 0.0000
v 0.0299 0.7766 0.0000
v 0.0124 0.7778 0.0000
v -0.0014 0.7780 0.0000
v -0.0113 0.7776 0.0000
v -0.0242 0.7765 0.0000
v -0.0399 0.7747 0.0000
v -0.0553 0.7721 0.0000
v -0.0704 0.7688 0.0000
v -0.0852 0.7649 0.0000
v -0.0997 0.7603 0.0000
v -0.1138 0.7552 0.0000
v -0.1275 0.7494 0.0000
v -0.1409 0.7430 0.0000
v -0.1539 0.7360 0.0000
v -0.1665 0.7285 0.0000
v -0.1786 0.7205 0.0000
v -0.1904 0.7119 0.0000
v -0.2016 0.7028 0.0000
v -0.2125 0.6933 0.0000
v -0.2228 0.6832 0.0000
v -0.2327 0.6727 0.0000
v -0.2420 0.6618 0.0000
v -0.2508 0.6505 0.0000
v -0.2591 0.6387 0.0000
v -0.2669 0.6266 0.0000
v -0.2740 0.6140 0.0000
v -0.2806 0.6012 0.0000
v -0.2866 0.5880 0.0000
v -0.2920 0.5745 0.0000
v -0.2968 0.5606 0.0000
v -0.3009 0.5465 0.0000
v -0.3044 0.5321 0.0000
v -0.3072 0.5175 0.0000
v -0.3093 0.5026 0.0000
v -0.3108 0.4876 0.0000
v -0.3115 0.4723 0.0000
v -0.3116 0.4592 0.0000
v -0.3112 0.4485 0.0000
v -0.3105 0.4376 0.0000
v -0.3094 0.4267 0.0000
v -0.3077 0.4139 0.0000
v -0.3053 0.3993 0.0000
v -0.3024 0.3849 0.0000
v -0.2990 0.3707 0.0000
v -0.2951 0.3566 0.0000
v -0.2909 0.3427 0.0000
v -0.2862 0.3290 0.0000
v -0.2811 0.3154 0.0000
v -0.2756 0.3020 0.0000
v -0.2697 0.2886 0.0000
v -0.2634 0.2755 0.0000
v -0.2569 0.2624 0.0000
v -0.2499 0.2495 0.0000
v -0.2427 0.2367 0.0000
v -0.2352 0.2240 0.0000
v -0.2274 0.2114 0.0000
v -0.2218 0.2026 0.0000
v -0.2186 0.1977 0.0000
v -0.2154 0.1929 0.0000
v -0.2122 0.1882 0.0000
v -0.2090 0.1835 0.0000
v -0.2060 0.1788 0.0000
v -0.2029 0.1741 0.0000
v -0.2000 0.1693 0.0000
v -0.1971 0.1644 0.0000
v -0.1943 0.1594 0.0000
v -0.1916 0.1542 0.0000
v -0.1890 0.1489 0.0000
v -0.1865 0.1433 0.0000
v -0.1841 0.1374 0.0000
v -0.1819 0.1313 0.0000
v -0.1798 0.1248 0.0000
v -0.3136 0.1438 0.0000
v -0.4513 0.1664 0.0000
v -0.4560 0.1665 0.0000
v -0.4594 0.1662 0.0000
v -0.4627 0.1655 0.0000
v -0.4659 0.1645 0.0000
v -0.4690 0.1633 0.0000
v -0.4719 0.1617 0.0000
v -0.4746 0.1599 0.0000
v -0.4771 0.1579 0.0000
v -0.4794 0.1556 0.0000
v -0.4815 0.1531 0.0000
v -0.4834 0.1505 0.0000
v -0.4850 0.1476 0.0000
v -0.4863 0.1446 0.0000
v -0.4873 0.1414 0.0000
v -0.4879 0.1381 0.0000
v -0.4883 0.1347 0.0000
v -0.4880 0.0044 0.0000
v -0.4875 -0.1259 0.0000
v -0.4871 -0.1294 0.0000
v -0.4865 -0.1328 0.0000
v -0.4855 -0.1360 0.0000
v -0.4842 -0.1392 0.0000
v -0.4827 -0.1422 0.0000
v -0.4809 -0.1451 0.0000
v -0.4788 -0.1478 0.0000
v -0.4766 -0.1502 0.0000
v -0.4741 -0.1525 0.0000
v -0.4715 -0.1545 0.0000
v -0.4687 -0.1562 0.0000
v -0.4657 -0.1576 0.0000
v -0.4626 -0.1587 0.0000
v -0.4594 -0.1594 0.0000
v -0.4560 -0.1598 0.0000
v -0.4529 -0.1598 0.0000
v -0.4500 -0.1595 0.0000
v -0.3376 -0.1372 0.0000
v -0.1746 -0.1084 0.0000
v -0.1238 -0.1519 0.0000
v -0.1604 -0.4680 0.0000
v -0.1958 -0.7357 0.0000
v -0.1957 -0.7396 0.0000
v -0.1952 -0.7443 0.0000
v -0.1942 -0.7491 0.0000
v -0.1927 -0.7538 0.0000
v -0.1909 -0.7584 0.0000
v -0.1889 -0.7625 0.0000
v -0.1866 -0.7661 0.0000
v -0.1842 -0.7688 0.0000
v -0.1815 -0.7707 0.0000
v -0.1784 -0.7723 0.0000
v -0.1746 -0.7737 0.0000
v -0.1704 -0.7750 0.0000
v -0.1659 -0.7761 0.0000
v -0.1613 -0.7770 0.0000
v -0.1568 -0.7776 0.0000
v -0.1525 -0.7780 0.0000
v 0.0072 -0.7769 0.0000
v 0.1669 -0.7755 0.0000
v 0.1711 -0.7751 0.0000
v 0.1749 -0.7742 0.0000
v 0.1785 -0.7729 0.0000
v 0.1817 -0.7713 0.0000
v 0.1846 -0.7694 0.0000
v 0.1873 -0.7671 0.0000
v 0.1896 -0.7646 0.0000
v 0.1917 -0.7619 0.0000
v 0.1935 -0.7589 0.0000
v 0.1950 -0.7558 0.0000
v 0.1962 -0.7524 0.0000
v 0.1972 -0.7490 0.0000
v 0.1979 -0.7454 0.0000
v 0.1984 -0.7418 0.0000
v 0.1986 -0.7381 0.0000
v 0.1985 -0.7327 0.0000
v 0.1620 -0.4301 0.0000
v 0.1257 -0.1302 0.0000
v 0.1257 -0.1277 0.0000
v 0.1262 -0.1241 0.0000
v 0.1270 -0.1203 0.0000
v 0.1281 -0.1164 0.0000
v 0.1296 -0.1127 0.0000
v 0.1312 -0.1093 0.0000
v 0.1330 -0.1066 0.0000
v 0.1349 -0.1047 0.0000
v 0.1375 -0.1035 0.0000
v 0.1409 -0.1027 0.0000
v 0.1449 -0.1021 0.0000
v 0.1492 -0.1018 0.0000
v 0.1541 -0.1018 0.0000
v 0.1594 -0.1023 0.0000
v 0.3000 -0.1298 0.0000
v 0.4396 -0.1571 0.0000
v 0.4427 -0.1574 0.0000
v 0.4463 -0.1574 0.0000
v 0.4505 -0.1571 0.0000
v 0.4549 -0.1565 0.0000
v 0.4592 -0.1556 0.0000
v 0.4634 -0.1545 0.0000
v 0.4673 -0.1533 0.0000
v 0.4708 -0.1519 0.0000
v 0.4737 -0.1504 0.0000
v 0.4762 -0.1484 0.0000
v 0.4785 -0.1457 0.0000
v 0.4808 -0.1422 0.0000
v 0.4830 -0.1382 0.0000
v 0.4849 -0.1339 0.0000
v 0.4865 -0.1295 0.0000
v 0.4876 -0.1253 0.0000
v 0.4882 -0.1215 0.0000
f 702 716 701
f 716 704 705
f 716 702 703
f 703 704 716
f 701 716 700
f 716 699 700
f 699 716 698
f 697 698 717
f 706 716 705
f 712 713 714
f 712 715 711
f 715 712 714
f 711 715 716
f 708 709 716
f 709 710 716
f 707 708 716
f 716 717 698
f 716 710 711
f 716 706 707
f 697 717 680
f 695 696 692
f 695 693 694
f 693 695 692
f 696 691 692
f 697 691 696
f 690 691 697
f 690 697 689
f 688 689 697
f 687 688 697
f 686 687 697
f 697 685 686
f 685 697 684
f 697 683 684
f 682 683 697
f 681 682 697
f 660 134 659
f 662 133 661
f 134 660 661
f 663 132 662
f 697 680 681
f 680 717 679
f 732 725 726
f 730 727 728
f 726 727 731
f 724 725 733
f 721 722 720
f 734 720 722
f 723 724 733
f 722 723 734
f 729 730 728
f 733 734 723
f 736 737 720
f 720 735 736
f 735 720 734
f 726 731 732
f 730 731 727
f 718 679 717
f 720 755 719
f 125 718 764
f 732 733 725
f 679 718 125
f 756 718 719
f 678 679 126
f 130 670 671
f 673 674 128
f 129 672 673
f 129 671 672
f 665 132 664
f 665 666 131
f 130 668 669
f 131 667 668
f 667 131 666
f 669 670 130
f 127 675 676
f 126 677 678
f 126 679 125
f 553 124 125
f 677 127 676
f 127 128 675
f 126 127 677
f 553 122 123
f 553 121 122
f 123 124 553
f 675 128 674
f 663 664 132
f 755 720 737
f 128 129 673
f 645 143 644
f 647 142 646
f 143 645 646
f 648 142 647
f 643 144 642
f 640 641 145
f 641 642 145
f 644 144 643
f 142 648 141
f 654 138 653
f 656 137 655
f 137 654 655
f 657 136 656
f 650 140 649
f 651 140 650
f 143 646 142
f 653 139 652
f 143 144 644
f 652 139 651
f 649 141 648
f 657 658 136
f 639 640 146
f 637 148 636
f 636 148 635
f 629 630 152
f 147 637 638
f 633 150 632
f 150 633 634
f 631 632 151
f 634 635 149
f 630 631 151
f 638 639 147
f 629 152 628
f 628 153 627
f 626 627 153
f 626 154 625
f 624 625 155
f 623 624 155
f 623 156 622
f 621 622 156
f 620 621 157
f 157 619 620
f 619 158 618
f 140 141 649
f 138 139 653
f 137 138 654
f 140 651 139
f 147 639 146
f 146 640 145
f 150 634 149
f 149 635 148
f 148 637 147
f 134 661 133
f 132 665 131
f 131 668 130
f 662 132 133
f 152 630 151
f 135 658 659
f 136 658 135
f 153 628 152
f 135 659 134
f 137 656 136
f 151 632 150
f 155 625 154
f 158 619 157
f 157 621 156
f 156 623 155
f 615 616 159
f 617 159 616
f 613 614 161
f 615 160 614
f 159 617 158
f 618 158 617
f 626 153 154
f 161 614 160
f 609 164 608
f 161 612 613
f 612 162 611
f 162 612 161
f 611 162 163
f 610 163 609
f 163 610 611
f 609 163 164
f 164 165 607
f 160 615 159
f 145 642 144
f 671 129 130
f 739 748 738
f 741 746 740
f 747 739 740
f 745 741 742
f 758 718 757
f 756 719 755
f 742 744 745
f 742 743 744
f 759 718 758
f 757 718 756
f 746 747 740
f 749 738 748
f 739 747 748
f 749 750 738
f 752 738 751
f 753 738 752
f 755 738 754
f 753 754 738
f 738 750 751
f 745 746 741
f 761 718 760
f 764 718 763
f 763 718 762
f 762 718 761
f 554 119 120
f 555 118 119
f 117 118 555
f 554 121 553
f 553 764 765
f 764 553 125
f 718 759 760
f 766 767 553
f 770 771 553
f 767 768 553
f 770 553 769
f 554 120 121
f 769 553 768
f 117 556 116
f 117 555 556
f 555 119 554
f 552 553 771
f 766 553 765
f 557 115 556
f 737 738 755
f 772 773 774
f 772 775 532
f 775 772 774
f 776 532 775
f 778 787 777
f 779 786 778
f 784 780 781
f 779 780 785
f 532 776 777
f 782 783 781
f 784 785 780
f 787 778 786
f 779 785 786
f 787 788 777
f 552 532 533
f 532 788 789
f 788 532 777
f 534 547 533
f 772 532 552
f 781 783 784
f 535 547 534
f 548 551 533
f 550 551 549
f 548 533 547
f 549 551 548
f 552 533 551
f 112 558 559
f 110 559 560
f 560 561 109
f 557 558 114
f 538 539 544
f 538 545 537
f 536 537 546
f 540 543 539
f 538 544 545
f 545 546 537
f 540 542 543
f 543 544 539
f 540 541 542
f 546 547 535
f 535 536 546
f 552 771 772
f 107 561 562
f 116 556 115
f 114 558 113
f 113 558 112
f 557 114 115
f 111 559 110
f 110 560 109
f 108 561 107
f 107 562 106
f 561 108 109
f 559 111 112
f 104 105 564
f 102 103 565
f 101 102 566
f 104 564 103
f 99 100 568
f 98 99 568
f 96 97 570
f 579 181 182
f 98 569 97
f 101 567 100
f 106 563 105
f 602 603 168
f 171 599 170
f 170 600 169
f 169 601 168
f 608 164 607
f 166 606 165
f 605 606 166
f 607 165 606
f 168 603 167
f 167 604 166
f 597 171 172
f 590 176 177
f 584 179 180
f 586 178 179
f 588 177 178
f 605 166 604
f 596 172 173
f 174 594 173
f 604 167 603
f 176 591 175
f 175 593 174
f 582 180 181
f 564 565 103
f 566 567 101
f 566 102 565
f 568 100 567
f 573 94 95
f 93 94 574
f 97 569 570
f 92 93 575
f 568 569 98
f 570 571 96
f 564 105 563
f 572 95 96
f 573 574 94
f 573 95 572
f 575 93 574
f 181 579 580
f 92 575 576
f 92 576 577
f 579 182 578
f 577 578 182
f 96 571 572
f 580 581 181
f 594 595 173
f 593 594 174
f 175 592 593
f 596 173 595
f 601 602 168
f 600 601 169
f 600 170 599
f 171 597 598
f 596 597 172
f 598 599 171
f 584 585 179
f 584 180 583
f 582 583 180
f 179 585 586
f 590 177 589
f 176 590 591
f 588 178 587
f 177 588 589
f 587 178 586
f 592 175 591
f 582 181 581
f 577 182 92
f 562 563 106
f 458 444 443
f 446 458 447
f 444 458 445
f 446 445 458
f 458 443 442
f 441 458 442
f 458 441 440
f 440 439 459
f 458 448 447
f 455 454 456
f 457 454 453
f 454 457 456
f 457 453 458
f 451 450 458
f 452 451 458
f 450 449 458
f 459 458 440
f 452 458 453
f 448 458 449
f 459 439 422
f 438 437 434
f 435 437 436
f 437 435 434
f 433 438 434
f 433 439 438
f 433 432 439
f 439 432 431
f 431 430 439
f 430 429 439
f 429 428 439
f 427 439 428
f 439 427 426
f 425 439 426
f 425 424 439
f 424 423 439
f 43 402 401
f 42 404 403
f 402 43 403
f 41 405 404
f 422 439 423
f 459 422 421
f 467 474 468
f 469 472 470
f 469 468 473
f 467 466 475
f 464 463 462
f 462 476 464
f 466 465 475
f 465 464 476
f 472 471 470
f 476 475 465
f 479 478 462
f 477 462 478
f 462 477 476
f 473 468 474
f 473 472 469
f 421 460 459
f 497 462 461
f 460 34 506
f 475 474 467
f 460 421 34
f 460 498 461
f 421 420 35
f 412 39 413
f 416 415 37
f 414 38 415
f 413 38 414
f 41 407 406
f 408 407 40
f 410 39 411
f 409 40 410
f 40 409 408
f 412 411 39
f 417 36 418
f 419 35 420
f 421 35 34
f 33 295 34
f 36 419 418
f 37 36 417
f 36 35 419
f 31 295 32
f 30 295 31
f 33 32 295
f 37 417 416
f 406 405 41
f 462 497 479
f 38 37 415
f 52 387 386
f 51 389 388
f 387 52 388
f 51 390 389
f 53 385 384
f 383 382 54
f 384 383 54
f 53 386 385
f 390 51 50
f 47 396 395
f 46 398 397
f 396 46 397
f 45 399 398
f 49 392 391
f 49 393 392
f 388 52 51
f 48 395 394
f 53 52 386
f 48 394 393
f 50 391 390
f 400 399 45
f 382 381 55
f 57 379 378
f 57 378 377
f 372 371 61
f 379 56 380
f 59 375 374
f 375 59 376
f 374 373 60
f 377 376 58
f 373 372 60
f 381 380 56
f 61 371 370
f 62 370 369
f 369 368 62
f 63 368 367
f 367 366 64
f 366 365 64
f 65 365 364
f 364 363 65
f 363 362 66
f 361 66 362
f 67 361 360
f 50 49 391
f 48 47 395
f 47 46 396
f 393 49 48
f 381 56 55
f 382 55 54
f 376 59 58
f 377 58 57
f 379 57 56
f 403 43 42
f 407 41 40
f 410 40 39
f 41 404 42
f 372 61 60
f 400 44 401
f 400 45 44
f 370 62 61
f 401 44 43
f 398 46 45
f 374 60 59
f 367 64 63
f 361 67 66
f 363 66 65
f 365 65 64
f 358 357 68
f 68 359 358
f 356 355 70
f 69 357 356
f 359 68 67
f 67 360 359
f 62 368 63
f 356 70 69
f 73 351 350
f 354 70 355
f 71 354 353
f 354 71 70
f 71 353 72
f 72 352 351
f 352 72 353
f 72 351 73
f 74 73 349
f 357 69 68
f 384 54 53
f 38 413 39
f 490 481 480
f 488 483 482
f 481 489 482
f 483 487 484
f 460 500 499
f 461 498 497
f 486 484 487
f 485 484 486
f 460 501 500
f 460 499 498
f 489 488 482
f 480 491 490
f 489 481 490
f 492 491 480
f 480 494 493
f 480 495 494
f 480 497 496
f 496 495 480
f 492 480 493
f 488 487 483
f 460 503 502
f 460 506 505
f 460 505 504
f 460 504 503
f 28 296 29
f 27 297 28
f 27 26 297
f 30 296 295
f 506 295 507
f 295 506 34
f 501 460 502
f 509 508 295
f 513 512 295
f 510 509 295
f 295 512 511
f 29 296 30
f 295 511 510
f 298 26 25
f 297 26 298
f 28 297 296
f 295 294 513
f 295 508 507
f 24 299 298
f 480 479 497
f 515 514 516
f 517 514 274
f 514 517 516
f 274 518 517
f 529 520 519
f 528 521 520
f 522 526 523
f 522 521 527
f 518 274 519
f 525 524 523
f 527 526 522
f 520 529 528
f 527 521 528
f 530 529 519
f 274 294 275
f 530 274 531
f 274 530 519
f 289 276 275
f 274 514 294
f 525 523 526
f 289 277 276
f 293 290 275
f 293 292 291
f 275 290 289
f 293 291 290
f 275 294 293
f 300 21 301
f 301 19 302
f 303 302 18
f 300 299 23
f 281 280 286
f 287 280 279
f 279 278 288
f 285 282 281
f 286 280 287
f 288 287 279
f 284 282 285
f 286 285 281
f 283 282 284
f 289 288 277
f 278 277 288
f 513 294 514
f 303 16 304
f 298 25 24
f 300 23 22
f 300 22 21
f 23 299 24
f 301 20 19
f 302 19 18
f 303 17 16
f 304 16 15
f 17 303 18
f 20 301 21
f 14 13 306
f 12 11 307
f 11 10 308
f 306 13 12
f 9 8 310
f 8 7 310
f 6 5 312
f 90 321 91
f 311 7 6
f 309 10 9
f 305 15 14
f 345 344 77
f 341 80 79
f 342 79 78
f 343 78 77
f 73 350 349
f 348 75 74
f 348 347 75
f 74 349 348
f 345 77 76
f 346 76 75
f 80 339 81
f 85 332 86
f 88 326 89
f 87 328 88
f 86 330 87
f 75 347 346
f 81 338 82
f 336 83 82
f 76 346 345
f 333 85 84
f 335 84 83
f 89 324 90
f 307 306 12
f 309 308 10
f 11 308 307
f 9 310 309
f 3 315 4
f 3 2 316
f 311 6 312
f 2 1 317
f 311 310 7
f 313 312 5
f 14 306 305
f 4 314 5
f 316 315 3
f 4 315 314
f 2 317 316
f 321 90 322
f 317 1 318
f 318 1 319
f 91 321 320
f 320 319 91
f 313 5 314
f 323 322 90
f 337 336 82
f 336 335 83
f 334 84 335
f 82 338 337
f 344 343 77
f 343 342 78
f 79 342 341
f 339 80 340
f 339 338 81
f 341 340 80
f 327 326 88
f 89 326 325
f 325 324 89
f 327 88 328
f 86 332 331
f 332 85 333
f 87 330 329
f 330 86 331
f 87 329 328
f 84 334 333
f 90 324 323
f 91 319 1
f 305 304 15
f 183 1 2
f 183 2 93
f 183 93 92
f 183 92 1
f 184 2 3
f 184 3 94
f 184 94 93
f 184 93 2
f 185 3 4
f 185 4 95
f 185 95 94
f 185 94 3
f 186 4 5
f 186 5 96
f 186 96 95
f 186 95 4
f 187 5 6
f 187 6 97
f 187 97 96
f 187 96 5
f 188 6 7
f 188 7 98
f 188 98 97
f 188 97 6
f 189 7 8
f 189 8 99
f 189 99 98
f 189 98 7
f 190 8 9
f 190 9 100
f 190 100 99
f 190 99 8
f 191 9 10
f 191 10 101
f 191 101 100
f 191 100 9
f 192 10 11
f 192 11 102
f 192 102 101
f 192 101 10
f 193 11 12
f 193 12 103
f 193 103 102
f 193 102 11
f 194 12 13
f 194 13 104
f 194 104 103
f 194 103 12
f 195 13 14
f 195 14 105
f 195 105 104
f 195 104 13
f 196 14 15
f 196 15 106
f 196 106 105
f 196 105 14
f 197 15 16
f 197 16 107
f 197 107 106
f 197 106 15
f 198 16 17
f 198 17 108
f 198 108 107
f 198 107 16
f 199 17 18
f 199 18 109
f 199 109 108
f 199 108 17
f 200 18 19
f 200 19 110
f 200 110 109
f 200 109 18
f 201 19 20
f 201 20 111
f 201 111 110
f 201 110 19
f 202 20 21
f 202 21 112
f 202 112 111
f 202 111 20
f 203 21 22
f 203 22 113
f 203 113 112
f 203 112 21
f 204 22 23
f 204 23 114
f 204 114 113
f 204 113 22
f 205 23 24
f 205 24 115
f 205 115 114
f 205 114 23
f 206 24 25
f 206 25 116
f 206 116 115
f 206 115 24
f 207 25 26
f 207 26 117
f 207 117 116
f 207 116 25
f 208 26 27
f 208 27 118
f 208 118 117
f 208 117 26
f 209 27 28
f 209 28 119
f 209 119 118
f 209 118 27
f 210 28 29
f 210 29 120
f 210 120 119
f 210 119 28
f 211 29 30
f 211 30 121
f 211 121 120
f 211 120 29
f 212 30 31
f 212 31 122
f 212 122 121
f 212 121 30
f 213 31 32
f 213 32 123
f 213 123 122
f 213 122 31
f 214 32 33
f 214 33 124
f 214 124 123
f 214 123 32
f 215 33 34
f 215 34 125
f 215 125 124
f 215 124 33
f 216 34 35
f 216 35 126
f 216 126 125
f 216 125 34
f 217 35 36
f 217 36 127
f 217 127 126
f 217 126 35
f 218 36 37
f 218 37 128
f 218 128 127
f 218 127 36
f 219 37 38
f 219 38 129
f 219 129 128
f 219 128 37
f 220 38 39
f 220 39 130
f 220 130 129
f 220 129 38
f 221 39 40
f 221 40 131
f 221 131 130
f 221 130 39
f 222 40 41
f 222 41 132
f 222 132 131
f 222 131 40
f 223 41 42
f 223 42 133
f 223 133 132
f 223 132 41
f 224 42 43
f 224 43 134
f 224 134 133
f 224 133 42
f 225 43 44
f 225 44 135
f 225 135 134
f 225 134 43
f 226 44 45
f 226 45 136
f 226 136 135
f 226 135 44
f 227 45 46
f 227 46 137
f 227 137 136
f 227 136 45
f 228 46 47
f 228 47 138
f 228 138 137
f 228 137 46
f 229 47 48
f 229 48 139
f 229 139 138
f 229 138 47
f 230 48 49
f 230 49 140
f 230 140 139
f 230 139 48
f 231 49 50
f 231 50 141
f 231 141 140
f 231 140 49
f 232 50 51
f 232 51 142
f 232 142 141
f 232 141 50
f 233 51 52
f 233 52 143
f 233 143 142
f 233 142 51
f 234 52 53
f 234 53 144
f 234 144 143
f 234 143 52
f 235 53 54
f 235 54 145
f 235 145 144
f 235 144 53
f 236 54 55
f 236 55 146
f 236 146 145
f 236 145 54
f 237 55 56
f 237 56 147
f 237 147 146
f 237 146 55
f 238 56 57
f 238 57 148
f 238 148 147
f 238 147 56
f 239 57 58
f 239 58 149
f 239 149 148
f 239 148 57
f 240 58 59
f 240 59 150
f 240 150 149
f 240 149 58
f 241 59 60
f 241 60 151
f 241 151 150
f 241 150 59
f 242 60 61
f 242 61 152
f 242 152 151
f 242 151 60
f 243 61 62
f 243 62 153
f 243 153 152
f 243 152 61
f 244 62 63
f 244 63 154
f 244 154 153
f 244 153 62
f 245 63 64
f 245 64 155
f 245 155 154
f 245 154 63
f 246 64 65
f 246 65 156
f 246 156 155
f 246 155 64
f 247 65 66
f 247 66 157
f 247 157 156
f 247 156 65
f 248 66 67
f 248 67 158
f 248 158 157
f 248 157 66
f 249 67 68
f 249 68 159
f 249 159 158
f 249 158 67
f 250 68 69
f 250 69 160
f 250 160 159
f 250 159 68
f 251 69 70
f 251 70 161
f 251 161 160
f 251 160 69
f 252 70 71
f 252 71 162
f 252 162 161
f 252 161 70
f 253 71 72
f 253 72 163
f 253 163 162
f 253 162 71
f 254 72 73
f 254 73 164
f 254 164 163
f 254 163 72
f 255 73 74
f 255 74 165
f 255 165 164
f 255 164 73
f 256 74 75
f 256 75 166
f 256 166 165
f 256 165 74
f 257 75 76
f 257 76 167
f 257 167 166
f 257 166 75
f 258 76 77
f 258 77 168
f 258 168 167
f 258 167 76
f 259 77 78
f 259 78 169
f 259 169 168
f 259 168 77
f 260 78 79
f 260 79 170
f 260 170 169
f 260 169 78
f 261 79 80
f 261 80 171
f 261 171 170
f 261 170 79
f 262 80 81
f 262 81 172
f 262 172 171
f 262 171 80
f 263 81 82
f 263 82 173
f 263 173 172
f 263 172 81
f 264 82 83
f 264 83 174
f 264 174 173
f 264 173 82
f 265 83 84
f 265 84 175
f 265 175 174
f 265 174 83
f 266 84 85
f 266 85 176
f 266 176 175
f 266 175 84
f 267 85 86
f 267 86 177
f 267 177 176
f 267 176 85
f 268 86 87
f 268 87 178
f 268 178 177
f 268 177 86
f 269 87 88
f 269 88 179
f 269 179 178
f 269 178 87
f 270 88 89
f 270 89 180
f 270 180 179
f 270 179 88
f 271 89 90
f 271 90 181
f 271 181 180
f 271 180 89
f 272 90 91
f 272 91 182
f 272 182 181
f 272 181 90
f 273 91 1
f 273 1 92
f 273 92 182
f 273 182 91
f 790 274 275
f 790 275 533
f 790 533 532
f 790 532 274
f 791 275 276
f 791 276 534
f 791 534 533
f 791 533 275
f 792 276 277
f 792 277 535
f 792 535 534
f 792 534 276
f 793 277 278
f 793 278 536
f 793 536 535
f 793 535 277
f 794 278 279
f 794 279 537
f 794 537 536
f 794 536 278
f 795 279 280
f 795 280 538
f 795 538 537
f 795 537 279
f 796 280 281
f 796 281 539
f 796 539 538
f 796 538 280
f 797 281 282
f 797 282 540
f 797 540 539
f 797 539 281
f 798 282 283
f 798 283 541
f 798 541 540
f 798 540 282
f 799 283 284
f 799 284 542
f 799 542 541
f 799 541 283
f 800 284 285
f 800 285 543
f 800 543 542
f 800 542 284
f 801 285 286
f 801 286 544
f 801 544 543
f 801 543 285
f 802 286 287
f 802 287 545
f 802 545 544
f 802 544 286
f 803 287 288
f 803 288 546
f 803 546 545
f 803 545 287
f 804 288 289
f 804 289 547
f 804 547 546
f 804 546 288
f 805 289 290
f 805 290 548
f 805 548 547
f 805 547 289
f 806 290 291
f 806 291 549
f 806 549 548
f 806 548 290
f 807 291 292
f 807 292 550
f 807 550 549
f 807 549 291
f 808 292 293
f 808 293 551
f 808 551 550
f 808 550 292
f 809 293 294
f 809 294 552
f 809 552 551
f 809 551 293
f 810 294 295
f 810 295 553
f 810 553 552
f 810 552 294
f 811 295 296
f 811 296 554
f 811 554 553
f 811 553 295
f 812 296 297
f 812 297 555
f 812 555 554
f 812 554 296
f 813 297 298
f 813 298 556
f 813 556 555
f 813 555 297
f 814 298 299
f 814 299 557
f 814 557 556
f 814 556 298
f 815 299 300
f 815 300 558
f 815 558 557
f 815 557 299
f 816 300 301
f 816 301 559
f 816 559 558
f 816 558 300
f 817 301 302
f 817 302 560
f 817 560 559
f 817 559 301
f 818 302 303
f 818 303 561
f 818 561 560
f 818 560 302
f 819 303 304
f 819 304 562
f 819 562 561
f 819 561 303
f 820 304 305
f 820 305 563
f 820 563 562
f 820 562 304
f 821 305 306
f 821 306 564
f 821 564 563
f 821 563 305
f 822 306 307
f 822 307 565
f 822 565 564
f 822 564 306
f 823 307 308
f 823 308 566
f 823 566 565
f 823 565 307
f 824 308 309
f 824 309 567
f 824 567 566
f 824 566 308
f 825 309 310
f 825 310 568
f 825 568 567
f 825 567 309
f 826 310 311
f 826 311 569
f 826 569 568
f 826 568 310
f 827 311 312
f 827 312 570
f 827 570 569
f 827 569 311
f 828 312 313
f 828 313 571
f 828 571 570
f 828 570 312
f 829 313 314
f 829 314 572
f 829 572 571
f 829 571 313
f 830 314 315
f 830 315 573
f 830 573 572
f 830 572 314
f 831 315 316
f 831 316 574
f 831 574 573
f 831 573 315
f 832 316 317
f 832 317 575
f 832 575 574
f 832 574 316
f 833 317 318
f 833 318 576
f 833 576 575
f 833 575 317
f 834 318 319
f 834 319 577
f 834 577 576
f 834 576 318
f 835 319 320
f 835 320 578
f 835 578 577
f 835 577 319
f 836 320 321
f 836 321 579
f 836 579 578
f 836 578 320
f 837 321 322
f 837 322 580
f 837 580 579
f 837 579 321
f 838 322 323
f 838 323 581
f 838 581 580
f 838 580 322
f 839 323 324
f 839 324 582
f 839 582 581
f 839 581 323
f 840 324 325
f 840 325 583
f 840 583 582
f 840 582 324
f 841 325 326
f 841 326 584
f 841 584 583
f 841 583 325
f 842 326 327
f 842 327 585
f 842 585 584
f 842 584 326
f 843 327 328
f 843 328 586
f 843 586 585
f 843 585 327
f 844 328 329
f 844 329 587
f 844 587 586
f 844 586 328
f 845 329 330
f 845 330 588
f 845 588 587
f 845 587 329
f 846 330 331
f 846 331 589
f 846 589 588
f 846 588 330
f 847 331 332
f 847 332 590
f 847 590 589
f 847 589 331
f 848 332 333
f 848 333 591
f 848 591 590
f 848 590 332
f 849 333 334
f 849 334 592
f 849 592 591
f 849 591 333
f 850 334 335
f 850 335 593
f 850 593 592
f 850 592 334
f 851 335 336
f 851 336 594
f 851 594 593
f 851 593 335
f 852 336 337
f 852 337 595
f 852 595 594
f 852 594 336
f 853 337 338
f 853 338 596
f 853 596 595
f 853 595 337
f 854 338 339
f 854 339 597
f 854 597 596
f 854 596 338
f 855 339 340
f 855 340 598
f 855 598 597
f 855 597 339
f 856 340 341
f 856 341 599
f 856 599 598
f 856 598 340
f 857 341 342
f 857 342 600
f 857 600 599
f 857 599 341
f 858 342 343
f 858 343 601
f 858 601 600
f 858 600 342
f 859 343 344
f 859 344 602
f 859 602 601
f 859 601 343
f 860 344 345
f 860 345 603
f 860 603 602
f 860 602 344
f 861 345 346
f 861 346 604
f 861 604 603
f 861 603 345
f 862 346 347
f 862 347 605
f 862 605 604
f 862 604 346
f 863 347 348
f 863 348 606
f 863 606 605
f 863 605 347
f 864 348 349
f 864 349 607
f 864 607 606
f 864 606 348
f 865 349 350
f 865 350 608
f 865 608 607
f 865 607 349
f 866 350 351
f 866 351 609
f 866 609 608
f 866 608 350
f 867 351 352
f 867 352 610
f 867 610 609
f 867 609 351
f 868 352 353
f 868 353 611
f 868 611 610
f 868 610 352
f 869 353 354
f 869 354 612
f 869 612 611
f 869 611 353
f 870 354 355
f 870 355 613
f 870 613 612
f 870 612 354
f 871 355 356
f 871 356 614
f 871 614 613
f 871 613 355
f 872 356 357
f 872 357 615
f 872 615 614
f 872 614 356
f 873 357 358
f 873 358 616
f 873 616 615
f 873 615 357
f 874 358 359
f 874 359 617
f 874 617 616
f 874 616 358
f 875 359 360
f 875 360 618
f 875 618 617
f 875 617 359
f 876 360 361
f 876 361 619
f 876 619 618
f 876 618 360
f 877 361 362
f 877 362 620
f 877 620 619
f 877 619 361
f 878 362 363
f 878 363 621
f 878 621 620
f 878 620 362
f 879 363 364
f 879 364 622
f 879 622 621
f 879 621 363
f 880 364 365
f 880 365 623
f 880 623 622
f 880 622 364
f 881 365 366
f 881 366 624
f 881 624 623
f 881 623 365
f 882 366 367
f 882 367 625
f 882 625 624
f 882 624 366
f 883 367 368
f 883 368 626
f 883 626 625
f 883 625 367
f 884 368 369
f 884 369 627
f 884 627 626
f 884 626 368
f 885 369 370
f 885 370 628
f 885 628 627
f 885 627 369
f 886 370 371
f 886 371 629
f 886 629 628
f 886 628 370
f 887 371 372
f 887 372 630
f 887 630 629
f 887 629 371
f 888 372 373
f 888 373 631
f 888 631 630
f 888 630 372
f 889 373 374
f 889 374 632
f 889 632 631
f 889 631 373
f 890 374 375
f 890 375 633
f 890 633 632
f 890 632 374
f 891 375 376
f 891 376 634
f 891 634 633
f 891 633 375
f 892 376 377
f 892 377 635
f 892 635 634
f 892 634 376
f 893 377 378
f 893 378 636
f 893 636 635
f 893 635 377
f 894 378 379
f 894 379 637
f 894 637 636
f 894 636 378
f 895 379 380
f 895 380 638
f 895 638 637
f 895 637 379
f 896 380 381
f 896 381 639
f 896 639 638
f 896 638 380
f 897 381 382
f 897 382 640
f 897 640 639
f 897 639 381
f 898 382 383
f 898 383 641
f 898 641 640
f 898 640 382
f 899 383 384
f 899 384 642
f 899 642 641
f 899 641 383
f 900 384 385
f 900 385 643
f 900 643 642
f 900 642 384
f 901 385 386
f 901 386 644
f 901 644 643
f 901 643 385
f 902 386 387
f 902 387 645
f 902 645 644
f 902 644 386
f 903 387 388
f 903 388 646
f 903 646 645
f 903 645 387
f 904 388 389
f 904 389 647
f 904 647 646
f 904 646 388
f 905 389 390
f 905 390 648
f 905 648 647
f 905 647 389
f 906 390 391
f 906 391 649
f 906 649 648
f 906 648 390
f 907 391 392
f 907 392 650
f 907 650 649
f 907 649 391
f 908 392 393
f 908 393 651
f 908 651 650
f 908 650 392
f 909 393 394
f 909 394 652
f 909 652 651
f 909 651 393
f 910 394 395
f 910 395 653
f 910 653 652
f 910 652 394
f 911 395 396
f 911 396 654
f 911 654 653
f 911 653 395
f 912 396 397
f 912 397 655
f 912 655 654
f 912 654 396
f 913 397 398
f 913 398 656
f 913 656 655
f 913 655 397
f 914 398 399
f 914 399 657
f 914 657 656
f 914 656 398
f 915 399 400
f 915 400 658
f 915 658 657
f 915 657 399
f 916 400 401
f 916 401 659
f 916 659 658
f 916 658 400
f 917 401 402
f 917 402 660
f 917 660 659
f 917 659 401
f 918 402 403
f 918 403 661
f 918 661 660
f 918 660 402
f 919 403 404
f 919 404 662
f 919 662 661
f 919 661 403
f 920 404 405
f 920 405 663
f 920 663 662
f 920 662 404
f 921 405 406
f 921 406 664
f 921 664 663
f 921 663 405
f 922 406 407
f 922 407 665
f 922 665 664
f 922 664 406
f 923 407 408
f 923 408 666
f 923 666 665
f 923 665 407
f 924 408 409
f 924 409 667
f 924 667 666
f 924 666 408
f 925 409 410
f 925 410 668
f 925 668 667
f 925 667 409
f 926 410 411
f 926 411 669
f 926 669 668
f 926 668 410
f 927 411 412
f 927 412 670
f 927 670 669
f 927 669 411
f 928 412 413
f 928 413 671
f 928 671 670
f 928 670 412
f 929 413 414
f 929 414 672
f 929 672 671
f 929 671 413
f 930 414 415
f 930 415 673
f 930 673 672
f 930 672 414
f 931 415 416
f 931 416 674
f 931 674 673
f 931 673 415
f 932 416 417
f 932 417 675
f 932 675 674
f 932 674 416
f 933 417 418
f 933 418 676
f 933 676 675
f 933 675 417
f 934 418 419
f 934 419 677
f 934 677 676
f 934 676 418
f 935 419 420
f 935 420 678
f 935 678 677
f 935 677 419
f 936 420 421
f 936 421 679
f 936 679 678
f 936 678 420
f 937 421 422
f 937 422 680
f 937 680 679
f 937 679 421
f 938 422 423
f 938 423 681
f 938 681 680
f 938 680 422
f 939 423 424
f 939 424 682
f 939 682 681
f 939 681 423
f 940 424 425
f 940 425 683
f 940 683 682
f 940 682 424
f 941 425 426
f 941 426 684
f 941 684 683
f 941 683 425
f 942 426 427
f 942 427 685
f 942 685 684
f 942 684 426
f 943 427 428
f 943 428 686
f 943 686 685
f 943 685 427
f 944 428 429
f 944 429 687
f 944 687 686
f 944 686 428
f 945 429 430
f 945 430 688
f 945 688 687
f 945 687 429
f 946 430 431
f 946 431 689
f 946 689 688
f 946 688 430
f 947 431 432
f 947 432 690
f 947 690 689
f 947 689 431
f 948 432 433
f 948 433 691
f 948 691 690
f 948 690 432
f 949 433 434
f 949 434 692
f 949 692 691
f 949 691 433
f 950 434 435
f 950 435 693
f 950 693 692
f 950 692 434
f 951 435 436
f 951 436 694
f 951 694 693
f 951 693 435
f 952 436 437
f 952 437 695
f 952 695 694
f 952 694 436
f 953 437 438
f 953 438 696
f 953 696 695
f 953 695 437
f 954 438 439
f 954 439 697
f 954 697 696
f 954 696 438
f 955 439 440
f 955 440 698
f 955 698 697
f 955 697 439
f 956 440 441
f 956 441 699
f 956 699 698
f 956 698 440
f 957 441 442
f 957 442 700
f 957 700 699
f 957 699 441
f 958 442 443
f 958 443 701
f 958 701 700
f 958 700 442
f 959 443 444
f 959 444 702
f 959 702 701
f 959 701 443
f 960 444 445
f 960 445 703
f 960 703 702
f 960 702 444
f 961 445 446
f 961 446 704
f 961 704 703
f 961 703 445
f 962 446 447
f 962 447 705
f 962 705 704
f 962 704 446
f 963 447 448
f 963 448 706
f 963 706 705
f 963 705 447
f 964 448 449
f 964 449 707
f 964 707 706
f 964 706 448
f 965 449 450
f 965 450 708
f 965 708 707
f 965 707 449
f 966 450 451
f 966 451 709
f 966 709 708
f 966 708 450
f 967 451 452
f 967 452 710
f 967 710 709
f 967 709 451
f 968 452 453
f 968 453 711
f 968 711 710
f 968 710 452
f 969 453 454
f 969 454 712
f 969 712 711
f 969 711 453
f 970 454 455
f 970 455 713
f 970 713 712
f 970 712 454
f 971 455 456
f 971 456 714
f 971 714 713
f 971 713 455
f 972 456 457
f 972 457 715
f 972 715 714
f 972 714 456
f 973 457 458
f 973 458 716
f 973 716 715
f 973 715 457
f 974 458 459
f 974 459 717
f 974 717 716
f 974 716 458
f 975 459 460
f 975 460 718
f 975 718 717
f 975 717 459
f 976 460 461
f 976 461 719
f 976 719 718
f 976 718 460
f 977 461 462
f 977 462 720
f 977 720 719
f 977 719 461
f 978 462 463
f 978 463 721
f 978 721 720
f 978 720 462
f 979 463 464
f 979 464 722
f 979 722 721
f 979 721 463
f 980 464 465
f 980 465 723
f 980 723 722
f 980 722 464
f 981 465 466
f 981 466 724
f 981 724 723
f 981 723 465
f 982 466 467
f 982 467 725
f 982 725 724
f 982 724 466
f 983 467 468
f 983 468 726
f 983 726 725
f 983 725 467
f 984 468 469
f 984 469 727
f 984 727 726
f 984 726 468
f 985 469 470
f 985 470 728
f 985 728 727
f 985 727 469
f 986 470 471
f 986 471 729
f 986 729 728
f 986 728 470
f 987 471 472
f 987 472 730
f 987 730 729
f 987 729 471
f 988 472 473
f 988 473 731
f 988 731 730
f 988 730 472
f 989 473 474
f 989 474 732
f 989 732 731
f 989 731 473
f 990 474 475
f 990 475 733
f 990 733 732
f 990 732 474
f 991 475 476
f 991 476 734
f 991 734 733
f 991 733 475
f 992 476 477
f 992 477 735
f 992 735 734
f 992 734 476
f 993 477 478
f 993 478 736
f 993 736 735
f 993 735 477
f 994 478 479
f 994 479 737
f 994 737 736
f 994 736 478
f 995 479 480
f 995 480 738
f 995 738 737
f 995 737 479
f 996 480 481
f 996 481 739
f 996 739 738
f 996 738 480
f 997 481 482
f 997 482 740
f 997 740 739
f 997 739 481
f 998 482 483
f 998 483 741
f 998 741 740
f 998 740 482
f 999 483 484
f 999 484 742
f 999 742 741
f 999 741 483
f 1000 484 485
f 1000 485 743
f 1000 743 742
f 1000 742 484
f 1001 485 486
f 1001 486 744
f 1001 744 743
f 1001 743 485
f 1002 486 487
f 1002 487 745
f 1002 745 744
f 1002 744 486
f 1003 487 488
f 1003 488 746
f 1003 746 745
f 1003 745 487
f 1004 488 489
f 1004 489 747
f 1004 747 746
f 1004 746 488
f 1005 489 490
f 1005 490 748
f 1005 748 747
f 1005 747 489
f 1006 490 491
f 1006 491 749
f 1006 749 748
f 1006 748 490
f 1007 491 492
f 1007 492 750
f 1007 750 749
f 1007 749 491
f 1008 492 493
f 1008 493 751
f 1008 751 750
f 1008 750 492
f 1009 493 494
f 1009 494 752
f 1009 752 751
f 1009 751 493
f 1010 494 495
f 1010 495 753
f 1010 753 752
f 1010 752 494
f 1011 495 496
f 1011 496 754
f 1011 754 753
f 1011 753 495
f 1012 496 497
f 1012 497 755
f 1012 755 754
f 1012 754 496
f 1013 497 498
f 1013 498 756
f 1013 756 755
f 1013 755 497
f 1014 498 499
f 1014 499 757
f 1014 757 756
f 1014 756 498
f 1015 499 500
f 1015 500 758
f 1015 758 757
f 1015 757 499
f 1016 500 501
f 1016 501 759
f 1016 759 758
f 1016 758 500
f 1017 501 502
f 1017 502 760
f 1017 760 759
f 1017 759 501
f 1018 502 503
f 1018 503 761
f 1018 761 760
f 1018 760 502
f 1019 503 504
f 1019 504 762
f 1019 762 761
f 1019 761 503
f 1020 504 505
f 1020 505 763
f 1020 763 762
f 1020 762 504
f 1021 505 506
f 1021 506 764
f 1021 764 763
f 1021 763 505
f 1022 506 507
f 1022 507 765
f 1022 765 764
f 1022 764 506
f 1023 507 508
f 1023 508 766
f 1023 766 765
f 1023 765 507
f 1024 508 509
f 1024 509 767
f 1024 767 766
f 1024 766 508
f 1025 509 510
f 1025 510 768
f 1025 768 767
f 1025 767 509
f 1026 510 511
f 1026 511 769
f 1026 769 768
f 1026 768 510
f 1027 511 512
f 1027 512 770
f 1027 770 769
f 1027 769 511
f 1028 512 513
f 1028 513 771
f 1028 771 770
f 1028 770 512
f 1029 513 514
f 1029 514 772
f 1029 772 771
f 1029 771 513
f 1030 514 515
f 1030 515 773
f 1030 773 772
f 1030 772 514
f 1031 515 516
f 1031 516 774
f 1031 774 773
f 1031 773 515
f 1032 516 517
f 1032 517 775
f 1032 775 774
f 1032 774 516
f 1033 517 518
f 1033 518 776
f 1033 776 775
f 1033 775 517
f 1034 518 519
f 1034 519 777
f 1034 777 776
f 1034 776 518
f 1035 519 520
f 1035 520 778
f 1035 778 777
f 1035 777 519
f 1036 520 521
f 1036 521 779
f 1036 779 778
f 1036 778 520
f 1037 521 522
f 1037 522 780
f 1037 780 779
f 1037 779 521
f 1038 522 523
f 1038 523 781
f 1038 781 780
f 1038 780 522
f 1039 523 524
f 1039 524 782
f 1039 782 781
f 1039 781 523
f 1040 524 525
f 1040 525 783
f 1040 783 782
f 1040 782 524
f 1041 525 526
f 1041 526 784
f 1041 784 783
f 1041 783 525
f 1042 526 527
f 1042 527 785
f 1042 785 784
f 1042 784 526
f 1043 527 528
f 1043 528 786
f 1043 786 785
f 1043 785 527
f 1044 528 529
f 1044 529 787
f 1044 787 786
f 1044 786 528
f 1045 529 530
f 1045 530 788
f 1045 788 787
f 1045 787 529
f 1046 530 531
f 1046 531 789
f 1046 789 788
f 1046 788 530
f 1047 531 274
f 1047 274 532
f 1047 532 789
f 1047 789 531
