v -1.000000 -1.000000 1.000000
v -1.000000 1.000000 1.000000
v -1.000000 -1.000000 -1.000000
v -1.000000 1.000000 -1.000000
v 1.000000 -1.000000 1.000000
v 1.000000 1.000000 1.000000
v 1.000000 -1.000000 -1.000000
v 1.000000 1.000000 -1.000000
v -1.072709 -1.072709 -0.835817
v -1.131999 -1.131999 -0.661178
v -1.177128 -1.177128 -0.478268
v -1.207531 -1.207531 -0.289375
v -1.222828 -1.222828 -0.096862
v -1.222828 -1.222828 0.096862
v -1.207531 -1.207531 0.289375
v -1.177128 -1.177128 0.478268
v -1.131999 -1.131999 0.661178
v -1.072709 -1.072709 0.835817
v -1.072709 -0.835817 1.072709
v -1.131999 -0.661178 1.131999
v -1.177128 -0.478268 1.177128
v -1.207531 -0.289375 1.207531
v -1.222828 -0.096862 1.222828
v -1.222828 0.096862 1.222828
v -1.207531 0.289375 1.207531
v -1.177128 0.478268 1.177128
v -1.131999 0.661178 1.131999
v -1.072709 0.835817 1.072709
v -1.072709 1.072709 0.835817
v -1.131999 1.131999 0.661178
v -1.177128 1.177128 0.478268
v -1.207531 1.207531 0.289375
v -1.222828 1.222828 0.096862
v -1.222828 1.222828 -0.096862
v -1.207531 1.207531 -0.289375
v -1.177128 1.177128 -0.478268
v -1.131999 1.131999 -0.661178
v -1.072709 1.072709 -0.835817
v -1.072709 0.835817 -1.072709
v -1.131999 0.661178 -1.131999
v -1.177128 0.478268 -1.177128
v -1.207531 0.289375 -1.207531
v -1.222828 0.096862 -1.222828
v -1.222828 -0.096862 -1.222828
v -1.207531 -0.289375 -1.207531
v -1.177128 -0.478268 -1.177128
v -1.131999 -0.661178 -1.131999
v -1.072709 -0.835817 -1.072709
v 0.835817 -1.072709 -1.072709
v 0.661178 -1.131999 -1.131999
v 0.478268 -1.177128 -1.177128
v 0.289375 -1.207531 -1.207531
v 0.096862 -1.222828 -1.222828
v -0.096862 -1.222828 -1.222828
v -0.289375 -1.207531 -1.207531
v -0.478268 -1.177128 -1.177128
v -0.661178 -1.131999 -1.131999
v -0.835817 -1.072709 -1.072709
v -0.835817 1.072709 -1.072709
v -0.661178 1.131999 -1.131999
v -0.478268 1.177128 -1.177128
v -0.289375 1.207531 -1.207531
v -0.096862 1.222828 -1.222828
v 0.096862 1.222828 -1.222828
v 0.289375 1.207531 -1.207531
v 0.478268 1.177128 -1.177128
v 0.661178 1.131999 -1.131999
v 0.835817 1.072709 -1.072709
v 1.072709 0.835817 -1.072709
v 1.131999 0.661178 -1.131999
v 1.177128 0.478268 -1.177128
v 1.207531 0.289375 -1.207531
v 1.222828 0.096862 -1.222828
v 1.222828 -0.096862 -1.222828
v 1.207531 -0.289375 -1.207531
v 1.177128 -0.478268 -1.177128
v 1.131999 -0.661178 -1.131999
v 1.072709 -0.835817 -1.072709
v 1.072709 -1.072709 0.835817
v 1.131999 -1.131999 0.661178
v 1.177128 -1.177128 0.478268
v 1.207531 -1.207531 0.289375
v 1.222828 -1.222828 0.096862
v 1.222828 -1.222828 -0.096862
v 1.207531 -1.207531 -0.289375
v 1.177128 -1.177128 -0.478268
v 1.131999 -1.131999 -0.661178
v 1.072709 -1.072709 -0.835817
v 1.072709 1.072709 -0.835817
v 1.131999 1.131999 -0.661178
v 1.177128 1.177128 -0.478268
v 1.207531 1.207531 -0.289375
v 1.222828 1.222828 -0.096862
v 1.222828 1.222828 0.096862
v 1.207531 1.207531 0.289375
v 1.177128 1.177128 0.478268
v 1.131999 1.131999 0.661178
v 1.072709 1.072709 0.835817
v 1.072709 0.835817 1.072709
v 1.131999 0.661178 1.131999
v 1.177128 0.478268 1.177128
v 1.207531 0.289375 1.207531
v 1.222828 0.096862 1.222828
v 1.222828 -0.096862 1.222828
v 1.207531 -0.289375 1.207531
v 1.177128 -0.478268 1.177128
v 1.131999 -0.661178 1.131999
v 1.072709 -0.835817 1.072709
v -0.835817 -1.072709 1.072709
v -0.661178 -1.131999 1.131999
v -0.478268 -1.177128 1.177128
v -0.289375 -1.207531 1.207531
v -0.096862 -1.222828 1.222828
v 0.096862 -1.222828 1.222828
v 0.289375 -1.207531 1.207531
v 0.478268 -1.177128 1.177128
v 0.661178 -1.131999 1.131999
v 0.835817 -1.072709 1.072709
v 0.835817 1.072709 1.072709
v 0.661178 1.131999 1.131999
v 0.478268 1.177128 1.177128
v 0.289375 1.207531 1.207531
v 0.096862 1.222828 1.222828
v -0.096862 1.222828 1.222828
v -0.289375 1.207531 1.207531
v -0.478268 1.177128 1.177128
v -0.661178 1.131999 1.131999
v -0.835817 1.072709 1.072709
v 0.910685 1.164214 -0.899440
v 0.971908 1.239042 -0.713287
v 1.018609 1.296122 -0.516917
v 1.050120 1.334635 -0.313142
v 1.065989 1.354031 -0.104881
v 1.065989 1.354031 0.104881
v 1.050120 1.334635 0.313142
v 1.018609 1.296122 0.516917
v 0.971907 1.239042 0.713287
v 0.910684 1.164214 0.899440
v 0.732567 1.244181 -0.952318
v 0.791118 1.336190 -0.757196
v 0.835883 1.406536 -0.549798
v 0.866136 1.454075 -0.333485
v 0.881386 1.478040 -0.111766
v 0.881386 1.478040 0.111766
v 0.866136 1.454075 0.333485
v 0.835883 1.406535 0.549798
v 0.791118 1.336190 0.757196
v 0.732567 1.244181 0.952318
v 0.538661 1.309992 -0.993432
v 0.588334 1.419272 -0.791852
v 0.626393 1.503001 -0.576016
v 0.652153 1.559673 -0.349810
v 0.665149 1.588266 -0.117307
v 0.665150 1.588266 0.117308
v 0.652153 1.559673 0.349811
v 0.626393 1.503002 0.576016
v 0.588334 1.419272 0.791852
v 0.538661 1.309992 0.993432
v 0.330365 1.357827 -1.021708
v 0.364157 1.481729 -0.816024
v 0.390092 1.576825 -0.594476
v 0.407668 1.641269 -0.361372
v 0.416542 1.673808 -0.121243
v 0.416542 1.673808 0.121243
v 0.407668 1.641269 0.361372
v 0.390092 1.576825 0.594476
v 0.364157 1.481729 0.816024
v 0.330365 1.357828 1.021708
v 0.111451 1.383307 -1.036157
v 0.123494 1.515774 -0.828503
v 0.132746 1.617545 -0.604071
v 0.139020 1.686559 -0.367406
v 0.142189 1.721419 -0.123301
v 0.142189 1.721419 0.123301
v 0.139020 1.686559 0.367406
v 0.132746 1.617545 0.604071
v 0.123494 1.515774 0.828503
v 0.111451 1.383307 1.036157
v -0.111451 1.383307 -1.036157
v -0.123494 1.515774 -0.828503
v -0.132746 1.617545 -0.604071
v -0.139020 1.686559 -0.367406
v -0.142189 1.721419 -0.123301
v -0.142189 1.721419 0.123301
v -0.139020 1.686559 0.367406
v -0.132746 1.617545 0.604071
v -0.123494 1.515774 0.828503
v -0.111451 1.383308 1.036157
v -0.330365 1.357827 -1.021708
v -0.364157 1.481729 -0.816024
v -0.390092 1.576825 -0.594476
v -0.407668 1.641269 -0.361372
v -0.416542 1.673808 -0.121243
v -0.416542 1.673808 0.121243
v -0.407668 1.641269 0.361372
v -0.390092 1.576825 0.594476
v -0.364157 1.481729 0.816024
v -0.330365 1.357828 1.021708
v -0.538661 1.309992 -0.993432
v -0.588334 1.419272 -0.791852
v -0.626393 1.503002 -0.576016
v -0.652153 1.559673 -0.349811
v -0.665149 1.588266 -0.117307
v -0.665149 1.588266 0.117307
v -0.652153 1.559673 0.349810
v -0.626393 1.503001 0.576016
v -0.588334 1.419272 0.791852
v -0.538661 1.309992 0.993432
v -0.732567 1.244181 -0.952318
v -0.791118 1.336190 -0.757196
v -0.835883 1.406536 -0.549798
v -0.866136 1.454075 -0.333485
v -0.881386 1.478040 -0.111766
v -0.881386 1.478040 0.111766
v -0.866136 1.454075 0.333485
v -0.835883 1.406535 0.549798
v -0.791118 1.336190 0.757196
v -0.732567 1.244181 0.952318
v -0.910684 1.164214 -0.899440
v -0.971907 1.239042 -0.713287
v -1.018609 1.296122 -0.516917
v -1.050120 1.334635 -0.313142
v -1.065989 1.354031 -0.104881
v -1.065989 1.354031 0.104881
v -1.050120 1.334635 0.313142
v -1.018609 1.296122 0.516917
v -0.971908 1.239042 0.713287
v -0.910685 1.164214 0.899440
v -0.910685 -1.164214 -0.899440
v -0.971908 -1.239042 -0.713287
v -1.018609 -1.296122 -0.516917
v -1.050120 -1.334635 -0.313142
v -1.065989 -1.354031 -0.104881
v -1.065989 -1.354031 0.104881
v -1.050120 -1.334635 0.313142
v -1.018609 -1.296122 0.516917
v -0.971907 -1.239042 0.713287
v -0.910684 -1.164214 0.899440
v -0.732567 -1.244181 -0.952318
v -0.791118 -1.336190 -0.757196
v -0.835883 -1.406536 -0.549798
v -0.866136 -1.454075 -0.333485
v -0.881386 -1.478040 -0.111766
v -0.881386 -1.478040 0.111766
v -0.866136 -1.454075 0.333485
v -0.835883 -1.406535 0.549798
v -0.791118 -1.336190 0.757196
v -0.732567 -1.244181 0.952318
v -0.538661 -1.309992 -0.993432
v -0.588334 -1.419272 -0.791852
v -0.626393 -1.503001 -0.576016
v -0.652153 -1.559673 -0.349810
v -0.665149 -1.588266 -0.117307
v -0.665150 -1.588266 0.117308
v -0.652153 -1.559673 0.349811
v -0.626393 -1.503002 0.576016
v -0.588334 -1.419272 0.791852
v -0.538661 -1.309992 0.993432
v -0.330365 -1.357827 -1.021708
v -0.364157 -1.481729 -0.816024
v -0.390092 -1.576825 -0.594476
v -0.407668 -1.641269 -0.361372
v -0.416542 -1.673808 -0.121243
v -0.416542 -1.673808 0.121243
v -0.407668 -1.641269 0.361372
v -0.390092 -1.576825 0.594476
v -0.364157 -1.481729 0.816024
v -0.330365 -1.357828 1.021708
v -0.111451 -1.383307 -1.036157
v -0.123494 -1.515774 -0.828503
v -0.132746 -1.617545 -0.604071
v -0.139020 -1.686559 -0.367406
v -0.142189 -1.721419 -0.123301
v -0.142189 -1.721419 0.123301
v -0.139020 -1.686559 0.367406
v -0.132746 -1.617545 0.604071
v -0.123494 -1.515774 0.828503
v -0.111451 -1.383307 1.036157
v 0.111451 -1.383307 -1.036157
v 0.123494 -1.515774 -0.828503
v 0.132746 -1.617545 -0.604071
v 0.139020 -1.686559 -0.367406
v 0.142189 -1.721419 -0.123301
v 0.142189 -1.721419 0.123301
v 0.139020 -1.686559 0.367406
v 0.132746 -1.617545 0.604071
v 0.123494 -1.515774 0.828503
v 0.111451 -1.383308 1.036157
v 0.330365 -1.357827 -1.021708
v 0.364157 -1.481729 -0.816024
v 0.390092 -1.576825 -0.594476
v 0.407668 -1.641269 -0.361372
v 0.416542 -1.673808 -0.121243
v 0.416542 -1.673808 0.121243
v 0.407668 -1.641269 0.361372
v 0.390092 -1.576825 0.594476
v 0.364157 -1.481729 0.816024
v 0.330365 -1.357828 1.021708
v 0.538661 -1.309992 -0.993432
v 0.588334 -1.419272 -0.791852
v 0.626393 -1.503002 -0.576016
v 0.652153 -1.559673 -0.349811
v 0.665149 -1.588266 -0.117307
v 0.665149 -1.588266 0.117307
v 0.652153 -1.559673 0.349810
v 0.626393 -1.503001 0.576016
v 0.588334 -1.419272 0.791852
v 0.538661 -1.309992 0.993432
v 0.732567 -1.244181 -0.952318
v 0.791118 -1.336190 -0.757196
v 0.835883 -1.406536 -0.549798
v 0.866136 -1.454075 -0.333485
v 0.881386 -1.478040 -0.111766
v 0.881386 -1.478040 0.111766
v 0.866136 -1.454075 0.333485
v 0.835883 -1.406535 0.549798
v 0.791118 -1.336190 0.757196
v 0.732567 -1.244181 0.952318
v 0.910684 -1.164214 -0.899440
v 0.971907 -1.239042 -0.713287
v 1.018609 -1.296122 -0.516917
v 1.050120 -1.334635 -0.313142
v 1.065989 -1.354031 -0.104881
v 1.065989 -1.354031 0.104881
v 1.050120 -1.334635 0.313142
v 1.018609 -1.296122 0.516917
v 0.971908 -1.239042 0.713287
v 0.910685 -1.164214 0.899440
v 0.899440 -0.910685 1.164214
v 0.713287 -0.971908 1.239042
v 0.516917 -1.018609 1.296122
v 0.313142 -1.050120 1.334635
v 0.104881 -1.065989 1.354031
v -0.104881 -1.065989 1.354031
v -0.313142 -1.050120 1.334635
v -0.516917 -1.018609 1.296122
v -0.713287 -0.971907 1.239042
v -0.899440 -0.910684 1.164214
v 0.952318 -0.732567 1.244181
v 0.757196 -0.791118 1.336190
v 0.549798 -0.835883 1.406536
v 0.333485 -0.866136 1.454075
v 0.111766 -0.881386 1.478040
v -0.111766 -0.881386 1.478040
v -0.333485 -0.866136 1.454075
v -0.549798 -0.835883 1.406535
v -0.757196 -0.791118 1.336190
v -0.952318 -0.732567 1.244181
v 0.993432 -0.538661 1.309992
v 0.791852 -0.588334 1.419272
v 0.576016 -0.626393 1.503001
v 0.349810 -0.652153 1.559673
v 0.117307 -0.665149 1.588266
v -0.117308 -0.665150 1.588266
v -0.349811 -0.652153 1.559673
v -0.576016 -0.626393 1.503002
v -0.791852 -0.588334 1.419272
v -0.993432 -0.538661 1.309992
v 1.021708 -0.330365 1.357827
v 0.816024 -0.364157 1.481729
v 0.594476 -0.390092 1.576825
v 0.361372 -0.407668 1.641269
v 0.121243 -0.416542 1.673808
v -0.121243 -0.416542 1.673808
v -0.361372 -0.407668 1.641269
v -0.594476 -0.390092 1.576825
v -0.816024 -0.364157 1.481729
v -1.021708 -0.330365 1.357828
v 1.036157 -0.111451 1.383307
v 0.828503 -0.123494 1.515774
v 0.604071 -0.132746 1.617545
v 0.367406 -0.139020 1.686559
v 0.123301 -0.142189 1.721419
v -0.123301 -0.142189 1.721419
v -0.367406 -0.139020 1.686559
v -0.604071 -0.132746 1.617545
v -0.828503 -0.123494 1.515774
v -1.036157 -0.111451 1.383308
v 1.036157 0.111451 1.383307
v 0.828503 0.123494 1.515774
v 0.604071 0.132746 1.617545
v 0.367406 0.139020 1.686559
v 0.123301 0.142189 1.721419
v -0.123301 0.142189 1.721419
v -0.367406 0.139020 1.686559
v -0.604071 0.132746 1.617545
v -0.828503 0.123494 1.515774
v -1.036157 0.111451 1.383308
v 1.021708 0.330365 1.357827
v 0.816024 0.364157 1.481729
v 0.594476 0.390092 1.576825
v 0.361372 0.407668 1.641269
v 0.121243 0.416542 1.673808
v -0.121243 0.416542 1.673808
v -0.361372 0.407668 1.641269
v -0.594476 0.390092 1.576825
v -0.816024 0.364157 1.481729
v -1.021708 0.330365 1.357828
v 0.993432 0.538661 1.309992
v 0.791852 0.588334 1.419272
v 0.576016 0.626393 1.503002
v 0.349811 0.652153 1.559673
v 0.117308 0.665149 1.588266
v -0.117307 0.665149 1.588266
v -0.349810 0.652153 1.559673
v -0.576016 0.626393 1.503001
v -0.791852 0.588334 1.419272
v -0.993432 0.538661 1.309992
v 0.952318 0.732567 1.244181
v 0.757196 0.791118 1.336190
v 0.549798 0.835883 1.406536
v 0.333485 0.866136 1.454075
v 0.111766 0.881386 1.478040
v -0.111766 0.881386 1.478040
v -0.333485 0.866136 1.454075
v -0.549798 0.835883 1.406535
v -0.757196 0.791118 1.336190
v -0.952318 0.732567 1.244181
v 0.899440 0.910684 1.164214
v 0.713287 0.971907 1.239042
v 0.516917 1.018609 1.296122
v 0.313142 1.050120 1.334635
v 0.104881 1.065989 1.354031
v -0.104881 1.065989 1.354031
v -0.313142 1.050120 1.334635
v -0.516917 1.018609 1.296122
v -0.713287 0.971908 1.239042
v -0.899440 0.910685 1.164214
v 1.164214 -0.910685 -0.899440
v 1.239042 -0.971907 -0.713287
v 1.296122 -1.018609 -0.516917
v 1.334635 -1.050120 -0.313142
v 1.354030 -1.065989 -0.104881
v 1.354031 -1.065989 0.104882
v 1.334635 -1.050120 0.313142
v 1.296122 -1.018609 0.516917
v 1.239042 -0.971907 0.713287
v 1.164214 -0.910685 0.899440
v 1.244181 -0.732567 -0.952318
v 1.336190 -0.791118 -0.757196
v 1.406536 -0.835883 -0.549798
v 1.454075 -0.866136 -0.333485
v 1.478040 -0.881386 -0.111766
v 1.478040 -0.881386 0.111766
v 1.454075 -0.866136 0.333485
v 1.406535 -0.835883 0.549798
v 1.336190 -0.791118 0.757196
v 1.244181 -0.732567 0.952318
v 1.309991 -0.538661 -0.993432
v 1.419272 -0.588334 -0.791852
v 1.503001 -0.626393 -0.576016
v 1.559673 -0.652153 -0.349810
v 1.588266 -0.665149 -0.117307
v 1.588266 -0.665149 0.117307
v 1.559673 -0.652153 0.349810
v 1.503001 -0.626393 0.576016
v 1.419272 -0.588334 0.791852
v 1.309991 -0.538661 0.993432
v 1.357827 -0.330365 -1.021708
v 1.481729 -0.364157 -0.816024
v 1.576825 -0.390092 -0.594476
v 1.641269 -0.407668 -0.361372
v 1.673808 -0.416542 -0.121243
v 1.673808 -0.416542 0.121243
v 1.641269 -0.407668 0.361372
v 1.576825 -0.390092 0.594476
v 1.481729 -0.364157 0.816024
v 1.357828 -0.330365 1.021708
v 1.383307 -0.111451 -1.036157
v 1.515774 -0.123494 -0.828503
v 1.617545 -0.132746 -0.604071
v 1.686559 -0.139020 -0.367406
v 1.721419 -0.142189 -0.123301
v 1.721419 -0.142189 0.123301
v 1.686559 -0.139020 0.367406
v 1.617544 -0.132746 0.604071
v 1.515774 -0.123494 0.828503
v 1.383307 -0.111451 1.036157
v 1.383307 0.111451 -1.036157
v 1.515774 0.123494 -0.828503
v 1.617545 0.132746 -0.604071
v 1.686558 0.139020 -0.367406
v 1.721419 0.142189 -0.123301
v 1.721419 0.142189 0.123301
v 1.686558 0.139020 0.367406
v 1.617544 0.132746 0.604071
v 1.515774 0.123494 0.828503
v 1.383307 0.111451 1.036157
v 1.357827 0.330365 -1.021708
v 1.481729 0.364157 -0.816024
v 1.576825 0.390092 -0.594476
v 1.641269 0.407668 -0.361372
v 1.673808 0.416542 -0.121243
v 1.673808 0.416542 0.121243
v 1.641269 0.407668 0.361372
v 1.576825 0.390092 0.594476
v 1.481729 0.364157 0.816024
v 1.357828 0.330365 1.021708
v 1.309992 0.538661 -0.993432
v 1.419272 0.588334 -0.791852
v 1.503002 0.626393 -0.576016
v 1.559673 0.652153 -0.349811
v 1.588266 0.665149 -0.117307
v 1.588266 0.665150 0.117308
v 1.559673 0.652153 0.349811
v 1.503002 0.626393 0.576016
v 1.419272 0.588334 0.791852
v 1.309992 0.538661 0.993432
v 1.244181 0.732567 -0.952318
v 1.336190 0.791118 -0.757196
v 1.406536 0.835883 -0.549798
v 1.454075 0.866136 -0.333485
v 1.478040 0.881386 -0.111766
v 1.478040 0.881386 0.111766
v 1.454075 0.866136 0.333485
v 1.406535 0.835883 0.549798
v 1.336190 0.791118 0.757196
v 1.244181 0.732567 0.952318
v 1.164214 0.910684 -0.899440
v 1.239042 0.971907 -0.713287
v 1.296121 1.018609 -0.516917
v 1.334635 1.050120 -0.313142
v 1.354030 1.065989 -0.104881
v 1.354030 1.065989 0.104881
v 1.334635 1.050120 0.313142
v 1.296121 1.018609 0.516917
v 1.239042 0.971907 0.713287
v 1.164214 0.910684 0.899440
v -0.899440 -0.910685 -1.164214
v -0.713287 -0.971907 -1.239042
v -0.516917 -1.018609 -1.296122
v -0.313142 -1.050120 -1.334635
v -0.104881 -1.065989 -1.354030
v 0.104882 -1.065989 -1.354031
v 0.313142 -1.050120 -1.334635
v 0.516917 -1.018609 -1.296122
v 0.713287 -0.971907 -1.239042
v 0.899440 -0.910685 -1.164214
v -0.952318 -0.732567 -1.244181
v -0.757196 -0.791118 -1.336190
v -0.549798 -0.835883 -1.406536
v -0.333485 -0.866136 -1.454075
v -0.111766 -0.881386 -1.478040
v 0.111766 -0.881386 -1.478040
v 0.333485 -0.866136 -1.454075
v 0.549798 -0.835883 -1.406535
v 0.757196 -0.791118 -1.336190
v 0.952318 -0.732567 -1.244181
v -0.993432 -0.538661 -1.309991
v -0.791852 -0.588334 -1.419272
v -0.576016 -0.626393 -1.503001
v -0.349810 -0.652153 -1.559673
v -0.117307 -0.665149 -1.588266
v 0.117307 -0.665149 -1.588266
v 0.349810 -0.652153 -1.559673
v 0.576016 -0.626393 -1.503001
v 0.791852 -0.588334 -1.419272
v 0.993432 -0.538661 -1.309991
v -1.021708 -0.330365 -1.357827
v -0.816024 -0.364157 -1.481729
v -0.594476 -0.390092 -1.576825
v -0.361372 -0.407668 -1.641269
v -0.121243 -0.416542 -1.673808
v 0.121243 -0.416542 -1.673808
v 0.361372 -0.407668 -1.641269
v 0.594476 -0.390092 -1.576825
v 0.816024 -0.364157 -1.481729
v 1.021708 -0.330365 -1.357828
v -1.036157 -0.111451 -1.383307
v -0.828503 -0.123494 -1.515774
v -0.604071 -0.132746 -1.617545
v -0.367406 -0.139020 -1.686559
v -0.123301 -0.142189 -1.721419
v 0.123301 -0.142189 -1.721419
v 0.367406 -0.139020 -1.686559
v 0.604071 -0.132746 -1.617544
v 0.828503 -0.123494 -1.515774
v 1.036157 -0.111451 -1.383307
v -1.036157 0.111451 -1.383307
v -0.828503 0.123494 -1.515774
v -0.604071 0.132746 -1.617545
v -0.367406 0.139020 -1.686558
v -0.123301 0.142189 -1.721419
v 0.123301 0.142189 -1.721419
v 0.367406 0.139020 -1.686558
v 0.604071 0.132746 -1.617544
v 0.828503 0.123494 -1.515774
v 1.036157 0.111451 -1.383307
v -1.021708 0.330365 -1.357827
v -0.816024 0.364157 -1.481729
v -0.594476 0.390092 -1.576825
v -0.361372 0.407668 -1.641269
v -0.121243 0.416542 -1.673808
v 0.121243 0.416542 -1.673808
v 0.361372 0.407668 -1.641269
v 0.594476 0.390092 -1.576825
v 0.816024 0.364157 -1.481729
v 1.021708 0.330365 -1.357828
v -0.993432 0.538661 -1.309992
v -0.791852 0.588334 -1.419272
v -0.576016 0.626393 -1.503002
v -0.349811 0.652153 -1.559673
v -0.117307 0.665149 -1.588266
v 0.117308 0.665150 -1.588266
v 0.349811 0.652153 -1.559673
v 0.576016 0.626393 -1.503002
v 0.791852 0.588334 -1.419272
v 0.993432 0.538661 -1.309992
v -0.952318 0.732567 -1.244181
v -0.757196 0.791118 -1.336190
v -0.549798 0.835883 -1.406536
v -0.333485 0.866136 -1.454075
v -0.111766 0.881386 -1.478040
v 0.111766 0.881386 -1.478040
v 0.333485 0.866136 -1.454075
v 0.549798 0.835883 -1.406535
v 0.757196 0.791118 -1.336190
v 0.952318 0.732567 -1.244181
v -0.899440 0.910684 -1.164214
v -0.713287 0.971907 -1.239042
v -0.516917 1.018609 -1.296121
v -0.313142 1.050120 -1.334635
v -0.104881 1.065989 -1.354030
v 0.104881 1.065989 -1.354030
v 0.313142 1.050120 -1.334635
v 0.516917 1.018609 -1.296121
v 0.713287 0.971907 -1.239042
v 0.899440 0.910684 -1.164214
v -1.164214 -0.910684 0.899440
v -1.239042 -0.971907 0.713287
v -1.296122 -1.018609 0.516917
v -1.334635 -1.050120 0.313142
v -1.354031 -1.065989 0.104881
v -1.354031 -1.065989 -0.104881
v -1.334635 -1.050120 -0.313142
v -1.296122 -1.018609 -0.516917
v -1.239042 -0.971908 -0.713287
v -1.164214 -0.910685 -0.899440
v -1.244181 -0.732567 0.952318
v -1.336190 -0.791118 0.757196
v -1.406536 -0.835883 0.549798
v -1.454075 -0.866136 0.333485
v -1.478040 -0.881386 0.111766
v -1.478040 -0.881386 -0.111766
v -1.454075 -0.866136 -0.333485
v -1.406535 -0.835883 -0.549798
v -1.336190 -0.791118 -0.757196
v -1.244181 -0.732567 -0.952318
v -1.309992 -0.538661 0.993432
v -1.419272 -0.588334 0.791852
v -1.503002 -0.626393 0.576016
v -1.559673 -0.652153 0.349811
v -1.588266 -0.665149 0.117308
v -1.588266 -0.665149 -0.117307
v -1.559673 -0.652153 -0.349810
v -1.503001 -0.626393 -0.576016
v -1.419272 -0.588334 -0.791852
v -1.309992 -0.538661 -0.993432
v -1.357827 -0.330365 1.021708
v -1.481729 -0.364157 0.816024
v -1.576825 -0.390092 0.594476
v -1.641269 -0.407668 0.361372
v -1.673808 -0.416542 0.121243
v -1.673808 -0.416542 -0.121243
v -1.641269 -0.407668 -0.361372
v -1.576825 -0.390092 -0.594476
v -1.481729 -0.364157 -0.816024
v -1.357828 -0.330365 -1.021708
v -1.383307 -0.111451 1.036157
v -1.515774 -0.123494 0.828503
v -1.617545 -0.132746 0.604071
v -1.686559 -0.139020 0.367406
v -1.721419 -0.142189 0.123301
v -1.721419 -0.142189 -0.123301
v -1.686559 -0.139020 -0.367406
v -1.617545 -0.132746 -0.604071
v -1.515774 -0.123494 -0.828503
v -1.383308 -0.111451 -1.036157
v -1.383307 0.111451 1.036157
v -1.515774 0.123494 0.828503
v -1.617545 0.132746 0.604071
v -1.686559 0.139020 0.367406
v -1.721419 0.142189 0.123301
v -1.721419 0.142189 -0.123301
v -1.686559 0.139020 -0.367406
v -1.617545 0.132746 -0.604071
v -1.515774 0.123494 -0.828503
v -1.383308 0.111451 -1.036157
v -1.357827 0.330365 1.021708
v -1.481729 0.364157 0.816024
v -1.576825 0.390092 0.594476
v -1.641269 0.407668 0.361372
v -1.673808 0.416542 0.121243
v -1.673808 0.416542 -0.121243
v -1.641269 0.407668 -0.361372
v -1.576825 0.390092 -0.594476
v -1.481729 0.364157 -0.816024
v -1.357828 0.330365 -1.021708
v -1.309992 0.538661 0.993432
v -1.419272 0.588334 0.791852
v -1.503001 0.626393 0.576016
v -1.559673 0.652153 0.349810
v -1.588266 0.665149 0.117307
v -1.588266 0.665150 -0.117308
v -1.559673 0.652153 -0.349811
v -1.503002 0.626393 -0.576016
v -1.419272 0.588334 -0.791852
v -1.309992 0.538661 -0.993432
v -1.244181 0.732567 0.952318
v -1.336190 0.791118 0.757196
v -1.406536 0.835883 0.549798
v -1.454075 0.866136 0.333485
v -1.478040 0.881386 0.111766
v -1.478040 0.881386 -0.111766
v -1.454075 0.866136 -0.333485
v -1.406535 0.835883 -0.549798
v -1.336190 0.791118 -0.757196
v -1.244181 0.732567 -0.952318
v -1.164214 0.910685 0.899440
v -1.239042 0.971908 0.713287
v -1.296122 1.018609 0.516917
v -1.334635 1.050120 0.313142
v -1.354031 1.065989 0.104881
v -1.354031 1.065989 -0.104881
v -1.334635 1.050120 -0.313142
v -1.296122 1.018609 -0.516917
v -1.239042 0.971907 -0.713287
v -1.164214 0.910684 -0.899440
f 728 38 4 39
f 628 68 8 69
f 528 98 6 99
f 428 128 2 28
f 328 79 5 118
f 228 29 2 128
f 98 138 119 6
f 138 148 120 119
f 148 158 121 120
f 158 168 122 121
f 168 178 123 122
f 178 188 124 123
f 188 198 125 124
f 198 208 126 125
f 208 218 127 126
f 218 228 128 127
f 8 68 129 89
f 89 129 130 90
f 90 130 131 91
f 91 131 132 92
f 92 132 133 93
f 93 133 134 94
f 94 134 135 95
f 95 135 136 96
f 96 136 137 97
f 97 137 138 98
f 68 67 139 129
f 129 139 140 130
f 130 140 141 131
f 131 141 142 132
f 132 142 143 133
f 133 143 144 134
f 134 144 145 135
f 135 145 146 136
f 136 146 147 137
f 137 147 148 138
f 67 66 149 139
f 139 149 150 140
f 140 150 151 141
f 141 151 152 142
f 142 152 153 143
f 143 153 154 144
f 144 154 155 145
f 145 155 156 146
f 146 156 157 147
f 147 157 158 148
f 66 65 159 149
f 149 159 160 150
f 150 160 161 151
f 151 161 162 152
f 152 162 163 153
f 153 163 164 154
f 154 164 165 155
f 155 165 166 156
f 156 166 167 157
f 157 167 168 158
f 65 64 169 159
f 159 169 170 160
f 160 170 171 161
f 161 171 172 162
f 162 172 173 163
f 163 173 174 164
f 164 174 175 165
f 165 175 176 166
f 166 176 177 167
f 167 177 178 168
f 64 63 179 169
f 169 179 180 170
f 170 180 181 171
f 171 181 182 172
f 172 182 183 173
f 173 183 184 174
f 174 184 185 175
f 175 185 186 176
f 176 186 187 177
f 177 187 188 178
f 63 62 189 179
f 179 189 190 180
f 180 190 191 181
f 181 191 192 182
f 182 192 193 183
f 183 193 194 184
f 184 194 195 185
f 185 195 196 186
f 186 196 197 187
f 187 197 198 188
f 62 61 199 189
f 189 199 200 190
f 190 200 201 191
f 191 201 202 192
f 192 202 203 193
f 193 203 204 194
f 194 204 205 195
f 195 205 206 196
f 196 206 207 197
f 197 207 208 198
f 61 60 209 199
f 199 209 210 200
f 200 210 211 201
f 201 211 212 202
f 202 212 213 203
f 203 213 214 204
f 204 214 215 205
f 205 215 216 206
f 206 216 217 207
f 207 217 218 208
f 60 59 219 209
f 209 219 220 210
f 210 220 221 211
f 211 221 222 212
f 212 222 223 213
f 213 223 224 214
f 214 224 225 215
f 215 225 226 216
f 216 226 227 217
f 217 227 228 218
f 59 4 38 219
f 219 38 37 220
f 220 37 36 221
f 221 36 35 222
f 222 35 34 223
f 223 34 33 224
f 224 33 32 225
f 225 32 31 226
f 226 31 30 227
f 227 30 29 228
f 18 238 109 1
f 238 248 110 109
f 248 258 111 110
f 258 268 112 111
f 268 278 113 112
f 278 288 114 113
f 288 298 115 114
f 298 308 116 115
f 308 318 117 116
f 318 328 118 117
f 3 58 229 9
f 9 229 230 10
f 10 230 231 11
f 11 231 232 12
f 12 232 233 13
f 13 233 234 14
f 14 234 235 15
f 15 235 236 16
f 16 236 237 17
f 17 237 238 18
f 58 57 239 229
f 229 239 240 230
f 230 240 241 231
f 231 241 242 232
f 232 242 243 233
f 233 243 244 234
f 234 244 245 235
f 235 245 246 236
f 236 246 247 237
f 237 247 248 238
f 57 56 249 239
f 239 249 250 240
f 240 250 251 241
f 241 251 252 242
f 242 252 253 243
f 243 253 254 244
f 244 254 255 245
f 245 255 256 246
f 246 256 257 247
f 247 257 258 248
f 56 55 259 249
f 249 259 260 250
f 250 260 261 251
f 251 261 262 252
f 252 262 263 253
f 253 263 264 254
f 254 264 265 255
f 255 265 266 256
f 256 266 267 257
f 257 267 268 258
f 55 54 269 259
f 259 269 270 260
f 260 270 271 261
f 261 271 272 262
f 262 272 273 263
f 263 273 274 264
f 264 274 275 265
f 265 275 276 266
f 266 276 277 267
f 267 277 278 268
f 54 53 279 269
f 269 279 280 270
f 270 280 281 271
f 271 281 282 272
f 272 282 283 273
f 273 283 284 274
f 274 284 285 275
f 275 285 286 276
f 276 286 287 277
f 277 287 288 278
f 53 52 289 279
f 279 289 290 280
f 280 290 291 281
f 281 291 292 282
f 282 292 293 283
f 283 293 294 284
f 284 294 295 285
f 285 295 296 286
f 286 296 297 287
f 287 297 298 288
f 52 51 299 289
f 289 299 300 290
f 290 300 301 291
f 291 301 302 292
f 292 302 303 293
f 293 303 304 294
f 294 304 305 295
f 295 305 306 296
f 296 306 307 297
f 297 307 308 298
f 51 50 309 299
f 299 309 310 300
f 300 310 311 301
f 301 311 312 302
f 302 312 313 303
f 303 313 314 304
f 304 314 315 305
f 305 315 316 306
f 306 316 317 307
f 307 317 318 308
f 50 49 319 309
f 309 319 320 310
f 310 320 321 311
f 311 321 322 312
f 312 322 323 313
f 313 323 324 314
f 314 324 325 315
f 315 325 326 316
f 316 326 327 317
f 317 327 328 318
f 49 7 88 319
f 319 88 87 320
f 320 87 86 321
f 321 86 85 322
f 322 85 84 323
f 323 84 83 324
f 324 83 82 325
f 325 82 81 326
f 326 81 80 327
f 327 80 79 328
f 109 338 19 1
f 338 348 20 19
f 348 358 21 20
f 358 368 22 21
f 368 378 23 22
f 378 388 24 23
f 388 398 25 24
f 398 408 26 25
f 408 418 27 26
f 418 428 28 27
f 5 108 329 118
f 118 329 330 117
f 117 330 331 116
f 116 331 332 115
f 115 332 333 114
f 114 333 334 113
f 113 334 335 112
f 112 335 336 111
f 111 336 337 110
f 110 337 338 109
f 108 107 339 329
f 329 339 340 330
f 330 340 341 331
f 331 341 342 332
f 332 342 343 333
f 333 343 344 334
f 334 344 345 335
f 335 345 346 336
f 336 346 347 337
f 337 347 348 338
f 107 106 349 339
f 339 349 350 340
f 340 350 351 341
f 341 351 352 342
f 342 352 353 343
f 343 353 354 344
f 344 354 355 345
f 345 355 356 346
f 346 356 357 347
f 347 357 358 348
f 106 105 359 349
f 349 359 360 350
f 350 360 361 351
f 351 361 362 352
f 352 362 363 353
f 353 363 364 354
f 354 364 365 355
f 355 365 366 356
f 356 366 367 357
f 357 367 368 358
f 105 104 369 359
f 359 369 370 360
f 360 370 371 361
f 361 371 372 362
f 362 372 373 363
f 363 373 374 364
f 364 374 375 365
f 365 375 376 366
f 366 376 377 367
f 367 377 378 368
f 104 103 379 369
f 369 379 380 370
f 370 380 381 371
f 371 381 382 372
f 372 382 383 373
f 373 383 384 374
f 374 384 385 375
f 375 385 386 376
f 376 386 387 377
f 377 387 388 378
f 103 102 389 379
f 379 389 390 380
f 380 390 391 381
f 381 391 392 382
f 382 392 393 383
f 383 393 394 384
f 384 394 395 385
f 385 395 396 386
f 386 396 397 387
f 387 397 398 388
f 102 101 399 389
f 389 399 400 390
f 390 400 401 391
f 391 401 402 392
f 392 402 403 393
f 393 403 404 394
f 394 404 405 395
f 395 405 406 396
f 396 406 407 397
f 397 407 408 398
f 101 100 409 399
f 399 409 410 400
f 400 410 411 401
f 401 411 412 402
f 402 412 413 403
f 403 413 414 404
f 404 414 415 405
f 405 415 416 406
f 406 416 417 407
f 407 417 418 408
f 100 99 419 409
f 409 419 420 410
f 410 420 421 411
f 411 421 422 412
f 412 422 423 413
f 413 423 424 414
f 414 424 425 415
f 415 425 426 416
f 416 426 427 417
f 417 427 428 418
f 99 6 119 419
f 419 119 120 420
f 420 120 121 421
f 421 121 122 422
f 422 122 123 423
f 423 123 124 424
f 424 124 125 425
f 425 125 126 426
f 426 126 127 427
f 427 127 128 428
f 79 438 108 5
f 438 448 107 108
f 448 458 106 107
f 458 468 105 106
f 468 478 104 105
f 478 488 103 104
f 488 498 102 103
f 498 508 101 102
f 508 518 100 101
f 518 528 99 100
f 7 78 429 88
f 88 429 430 87
f 87 430 431 86
f 86 431 432 85
f 85 432 433 84
f 84 433 434 83
f 83 434 435 82
f 82 435 436 81
f 81 436 437 80
f 80 437 438 79
f 78 77 439 429
f 429 439 440 430
f 430 440 441 431
f 431 441 442 432
f 432 442 443 433
f 433 443 444 434
f 434 444 445 435
f 435 445 446 436
f 436 446 447 437
f 437 447 448 438
f 77 76 449 439
f 439 449 450 440
f 440 450 451 441
f 441 451 452 442
f 442 452 453 443
f 443 453 454 444
f 444 454 455 445
f 445 455 456 446
f 446 456 457 447
f 447 457 458 448
f 76 75 459 449
f 449 459 460 450
f 450 460 461 451
f 451 461 462 452
f 452 462 463 453
f 453 463 464 454
f 454 464 465 455
f 455 465 466 456
f 456 466 467 457
f 457 467 468 458
f 75 74 469 459
f 459 469 470 460
f 460 470 471 461
f 461 471 472 462
f 462 472 473 463
f 463 473 474 464
f 464 474 475 465
f 465 475 476 466
f 466 476 477 467
f 467 477 478 468
f 74 73 479 469
f 469 479 480 470
f 470 480 481 471
f 471 481 482 472
f 472 482 483 473
f 473 483 484 474
f 474 484 485 475
f 475 485 486 476
f 476 486 487 477
f 477 487 488 478
f 73 72 489 479
f 479 489 490 480
f 480 490 491 481
f 481 491 492 482
f 482 492 493 483
f 483 493 494 484
f 484 494 495 485
f 485 495 496 486
f 486 496 497 487
f 487 497 498 488
f 72 71 499 489
f 489 499 500 490
f 490 500 501 491
f 491 501 502 492
f 492 502 503 493
f 493 503 504 494
f 494 504 505 495
f 495 505 506 496
f 496 506 507 497
f 497 507 508 498
f 71 70 509 499
f 499 509 510 500
f 500 510 511 501
f 501 511 512 502
f 502 512 513 503
f 503 513 514 504
f 504 514 515 505
f 505 515 516 506
f 506 516 517 507
f 507 517 518 508
f 70 69 519 509
f 509 519 520 510
f 510 520 521 511
f 511 521 522 512
f 512 522 523 513
f 513 523 524 514
f 514 524 525 515
f 515 525 526 516
f 516 526 527 517
f 517 527 528 518
f 69 8 89 519
f 519 89 90 520
f 520 90 91 521
f 521 91 92 522
f 522 92 93 523
f 523 93 94 524
f 524 94 95 525
f 525 95 96 526
f 526 96 97 527
f 527 97 98 528
f 49 538 78 7
f 538 548 77 78
f 548 558 76 77
f 558 568 75 76
f 568 578 74 75
f 578 588 73 74
f 588 598 72 73
f 598 608 71 72
f 608 618 70 71
f 618 628 69 70
f 3 48 529 58
f 58 529 530 57
f 57 530 531 56
f 56 531 532 55
f 55 532 533 54
f 54 533 534 53
f 53 534 535 52
f 52 535 536 51
f 51 536 537 50
f 50 537 538 49
f 48 47 539 529
f 529 539 540 530
f 530 540 541 531
f 531 541 542 532
f 532 542 543 533
f 533 543 544 534
f 534 544 545 535
f 535 545 546 536
f 536 546 547 537
f 537 547 548 538
f 47 46 549 539
f 539 549 550 540
f 540 550 551 541
f 541 551 552 542
f 542 552 553 543
f 543 553 554 544
f 544 554 555 545
f 545 555 556 546
f 546 556 557 547
f 547 557 558 548
f 46 45 559 549
f 549 559 560 550
f 550 560 561 551
f 551 561 562 552
f 552 562 563 553
f 553 563 564 554
f 554 564 565 555
f 555 565 566 556
f 556 566 567 557
f 557 567 568 558
f 45 44 569 559
f 559 569 570 560
f 560 570 571 561
f 561 571 572 562
f 562 572 573 563
f 563 573 574 564
f 564 574 575 565
f 565 575 576 566
f 566 576 577 567
f 567 577 578 568
f 44 43 579 569
f 569 579 580 570
f 570 580 581 571
f 571 581 582 572
f 572 582 583 573
f 573 583 584 574
f 574 584 585 575
f 575 585 586 576
f 576 586 587 577
f 577 587 588 578
f 43 42 589 579
f 579 589 590 580
f 580 590 591 581
f 581 591 592 582
f 582 592 593 583
f 583 593 594 584
f 584 594 595 585
f 585 595 596 586
f 586 596 597 587
f 587 597 598 588
f 42 41 599 589
f 589 599 600 590
f 590 600 601 591
f 591 601 602 592
f 592 602 603 593
f 593 603 604 594
f 594 604 605 595
f 595 605 606 596
f 596 606 607 597
f 597 607 608 598
f 41 40 609 599
f 599 609 610 600
f 600 610 611 601
f 601 611 612 602
f 602 612 613 603
f 603 613 614 604
f 604 614 615 605
f 605 615 616 606
f 606 616 617 607
f 607 617 618 608
f 40 39 619 609
f 609 619 620 610
f 610 620 621 611
f 611 621 622 612
f 612 622 623 613
f 613 623 624 614
f 614 624 625 615
f 615 625 626 616
f 616 626 627 617
f 617 627 628 618
f 39 4 59 619
f 619 59 60 620
f 620 60 61 621
f 621 61 62 622
f 622 62 63 623
f 623 63 64 624
f 624 64 65 625
f 625 65 66 626
f 626 66 67 627
f 627 67 68 628
f 9 638 48 3
f 638 648 47 48
f 648 658 46 47
f 658 668 45 46
f 668 678 44 45
f 678 688 43 44
f 688 698 42 43
f 698 708 41 42
f 708 718 40 41
f 718 728 39 40
f 1 19 629 18
f 18 629 630 17
f 17 630 631 16
f 16 631 632 15
f 15 632 633 14
f 14 633 634 13
f 13 634 635 12
f 12 635 636 11
f 11 636 637 10
f 10 637 638 9
f 19 20 639 629
f 629 639 640 630
f 630 640 641 631
f 631 641 642 632
f 632 642 643 633
f 633 643 644 634
f 634 644 645 635
f 635 645 646 636
f 636 646 647 637
f 637 647 648 638
f 20 21 649 639
f 639 649 650 640
f 640 650 651 641
f 641 651 652 642
f 642 652 653 643
f 643 653 654 644
f 644 654 655 645
f 645 655 656 646
f 646 656 657 647
f 647 657 658 648
f 21 22 659 649
f 649 659 660 650
f 650 660 661 651
f 651 661 662 652
f 652 662 663 653
f 653 663 664 654
f 654 664 665 655
f 655 665 666 656
f 656 666 667 657
f 657 667 668 658
f 22 23 669 659
f 659 669 670 660
f 660 670 671 661
f 661 671 672 662
f 662 672 673 663
f 663 673 674 664
f 664 674 675 665
f 665 675 676 666
f 666 676 677 667
f 667 677 678 668
f 23 24 679 669
f 669 679 680 670
f 670 680 681 671
f 671 681 682 672
f 672 682 683 673
f 673 683 684 674
f 674 684 685 675
f 675 685 686 676
f 676 686 687 677
f 677 687 688 678
f 24 25 689 679
f 679 689 690 680
f 680 690 691 681
f 681 691 692 682
f 682 692 693 683
f 683 693 694 684
f 684 694 695 685
f 685 695 696 686
f 686 696 697 687
f 687 697 698 688
f 25 26 699 689
f 689 699 700 690
f 690 700 701 691
f 691 701 702 692
f 692 702 703 693
f 693 703 704 694
f 694 704 705 695
f 695 705 706 696
f 696 706 707 697
f 697 707 708 698
f 26 27 709 699
f 699 709 710 700
f 700 710 711 701
f 701 711 712 702
f 702 712 713 703
f 703 713 714 704
f 704 714 715 705
f 705 715 716 706
f 706 716 717 707
f 707 717 718 708
f 27 28 719 709
f 709 719 720 710
f 710 720 721 711
f 711 721 722 712
f 712 722 723 713
f 713 723 724 714
f 714 724 725 715
f 715 725 726 716
f 716 726 727 717
f 717 727 728 718
f 28 2 29 719
f 719 29 30 720
f 720 30 31 721
f 721 31 32 722
f 722 32 33 723
f 723 33 34 724
f 724 34 35 725
f 725 35 36 726
f 726 36 37 727
f 727 37 38 728
