o Dharma
v 3.0667 -0.0448 -5.9394
v 3.0667 -0.2004 -5.7908
v 3.0667 -0.1981 -5.6476
v 3.0667 -0.3517 -5.6189
v 3.0667 -0.5263 -5.5720
v 3.0667 -0.6696 -5.5147
v 3.0667 -0.7920 -5.4547
v 3.0667 -0.9093 -5.3870
v 3.0667 -1.0262 -5.3016
v 3.0667 -1.1154 -5.4073
v 3.0667 -1.3432 -5.4061
v 3.0667 -1.3494 -5.1837
v 3.0667 -1.2463 -5.0844
v 3.0667 -1.3342 -4.9552
v 3.0667 -1.4241 -4.7984
v 3.0667 -1.4845 -4.6564
v 3.0667 -1.5284 -4.5273
v 3.0667 -1.5631 -4.3964
v 3.0667 -1.5850 -4.2533
v 3.0667 -1.7228 -4.2646
v 3.0667 -1.8827 -4.1064
v 3.0667 -1.7302 -3.9497
v 3.0667 -1.5870 -3.9521
v 3.0667 -1.5583 -3.7985
v 3.0667 -1.5114 -3.6239
v 3.0667 -1.4541 -3.4806
v 3.0667 -1.3942 -3.3582
v 3.0667 -1.3264 -3.2409
v 3.0667 -1.2410 -3.1240
v 3.0667 -1.3466 -3.0348
v 3.0667 -1.3455 -2.8070
v 3.0667 -1.1231 -2.8008
v 3.0667 -1.0238 -2.9039
v 3.0667 -0.8946 -2.8160
v 3.0667 -0.7378 -2.7261
v 3.0667 -0.5958 -2.6657
v 3.0667 -0.4667 -2.6218
v 3.0667 -0.3358 -2.5871
v 3.0667 -0.1927 -2.5652
v 3.0667 -0.2040 -2.4274
v 3.0667 -0.0448 -2.2636
v 3.0667 0.1144 -2.4274
v 3.0667 0.1031 -2.5652
v 3.0667 0.2462 -2.5871
v 3.0667 0.3771 -2.6218
v 3.0667 0.5062 -2.6657
v 3.0667 0.6482 -2.7261
v 3.0667 0.8051 -2.8160
v 3.0667 0.9342 -2.9039
v 3.0667 1.0335 -2.8008
v 3.0667 1.2559 -2.8070
v 3.0667 1.2571 -3.0348
v 3.0667 1.1514 -3.1240
v 3.0667 1.2368 -3.2409
v 3.0667 1.3046 -3.3582
v 3.0667 1.3645 -3.4806
v 3.0667 1.4218 -3.6239
v 3.0667 1.4687 -3.7985
v 3.0667 1.4974 -3.9521
v 3.0667 1.6406 -3.9497
v 3.0667 1.7931 -4.1064
v 3.0667 1.6332 -4.2646
v 3.0667 1.4954 -4.2533
v 3.0667 1.4735 -4.3964
v 3.0667 1.4388 -4.5273
v 3.0667 1.3949 -4.6564
v 3.0667 1.3345 -4.7984
v 3.0667 1.2446 -4.9552
v 3.0667 1.1567 -5.0844
v 3.0667 1.2598 -5.1837
v 3.0667 1.2536 -5.4061
v 3.0667 1.0258 -5.4073
v 3.0667 0.9366 -5.3016
v 3.0667 0.8197 -5.3870
v 3.0667 0.7024 -5.4547
v 3.0667 0.5800 -5.5147
v 3.0667 0.4367 -5.5720
v 3.0667 0.2621 -5.6189
v 3.0667 0.1085 -5.6476
v 3.0667 0.1109 -5.7908
v 3.0667 -0.5544 -4.3614
v 3.0667 -0.4957 -4.4846
v 3.0667 -0.5942 -4.2455
v 3.0667 -0.6304 -4.1610
v 3.0667 -1.2909 -4.2172
v 3.0667 -1.2879 -4.3152
v 3.0667 -1.2677 -4.4026
v 3.0667 -1.2387 -4.5121
v 3.0667 -1.1965 -4.6183
v 3.0667 -1.1429 -4.7213
v 3.0667 -1.0786 -4.8219
v 3.0667 -1.0005 -4.9188
v 3.0667 -0.2225 -4.6471
v 3.0667 -0.1041 -4.6925
v 3.0667 -0.3327 -4.5937
v 3.0667 -0.4183 -4.5597
v 3.0667 -0.8443 -5.0677
v 3.0667 -0.7727 -5.1346
v 3.0667 -0.6965 -5.1820
v 3.0667 -0.5984 -5.2385
v 3.0667 -0.4933 -5.2835
v 3.0667 -0.3825 -5.3182
v 3.0667 -0.2659 -5.3436
v 3.0667 -0.1421 -5.3565
v 3.0667 0.1763 -5.3436
v 3.0667 0.2929 -5.3182
v 3.0667 0.4037 -5.2835
v 3.0667 0.5088 -5.2385
v 3.0667 0.6069 -5.1820
v 3.0667 0.6831 -5.1346
v 3.0667 0.7547 -5.0677
v 3.0667 0.3287 -4.5597
v 3.0667 0.2431 -4.5937
v 3.0667 0.1329 -4.6471
v 3.0667 0.0145 -4.6925
v 3.0667 0.0525 -5.3565
v 3.0667 0.9890 -4.8219
v 3.0667 1.0533 -4.7213
v 3.0667 1.1069 -4.6183
v 3.0667 1.1490 -4.5121
v 3.0667 1.1782 -4.4026
v 3.0667 1.1983 -4.3152
v 3.0667 1.2013 -4.2172
v 3.0667 0.5408 -4.1610
v 3.0667 0.5046 -4.2455
v 3.0667 0.4648 -4.3614
v 3.0667 0.4061 -4.4846
v 3.0667 0.9109 -4.9188
v 3.0667 1.1935 -3.8841
v 3.0667 1.1681 -3.7675
v 3.0667 1.1335 -3.6567
v 3.0667 1.0885 -3.5517
v 3.0667 1.0319 -3.4535
v 3.0667 0.9846 -3.3774
v 3.0667 0.9176 -3.3058
v 3.0667 0.4097 -3.7318
v 3.0667 0.4438 -3.8172
v 3.0667 0.4972 -3.9274
v 3.0667 0.5424 -4.0562
v 3.0667 1.2064 -4.0080
v 3.0667 0.7687 -3.1496
v 3.0667 0.6718 -3.0714
v 3.0667 0.5712 -3.0072
v 3.0667 0.4682 -2.9536
v 3.0667 0.3620 -2.9114
v 3.0667 0.2525 -2.8823
v 3.0667 0.1651 -2.8621
v 3.0667 0.0672 -2.8591
v 3.0667 0.0109 -3.5197
v 3.0667 0.0956 -3.5557
v 3.0667 0.2115 -3.5956
v 3.0667 0.3345 -3.6543
v 3.0667 -0.3011 -3.5956
v 3.0667 -0.4241 -3.6543
v 3.0667 -0.1852 -3.5557
v 3.0667 -0.1005 -3.5197
v 3.0667 -0.1568 -2.8591
v 3.0667 -0.2547 -2.8621
v 3.0667 -0.3421 -2.8823
v 3.0667 -0.4516 -2.9114
v 3.0667 -0.5578 -2.9536
v 3.0667 -0.6608 -3.0072
v 3.0667 -0.7614 -3.0714
v 3.0667 -0.8583 -3.1496
v 3.0667 -0.5868 -3.9274
v 3.0667 -0.6320 -4.0562
v 3.0667 -0.5333 -3.8172
v 3.0667 -0.4992 -3.7318
v 3.0667 -1.0072 -3.3058
v 3.0667 -1.0742 -3.3774
v 3.0667 -1.1215 -3.4535
v 3.0667 -1.1781 -3.5517
v 3.0667 -1.2231 -3.6567
v 3.0667 -1.2577 -3.7675
v 3.0667 -1.2831 -3.8841
v 3.0667 -1.2960 -4.0080
v 3.0667 -0.0129 -4.2763
v 3.0667 -0.0160 -4.4738
v 3.0667 0.2049 -4.3690
v 3.0667 0.0722 -4.2374
v 3.0667 0.0990 -4.2033
v 3.0667 0.2366 -4.3448
v 3.0667 0.3181 -4.1191
v 3.0667 0.1299 -4.1199
v 3.0667 0.1263 -4.0733
v 3.0667 0.3235 -4.0767
v 3.0667 0.2188 -3.8559
v 3.0667 0.0873 -3.9883
v 3.0667 0.0532 -3.9615
v 3.0667 0.1946 -3.8241
v 3.0667 -0.0184 -3.7426
v 3.0667 -0.0186 -3.9306
v 3.0667 -0.1428 -3.9615
v 3.1933 -0.1400 -3.9705
v 3.0667 -0.0710 -3.9306
v 3.0667 -0.0712 -3.7426
v 3.1852 -0.2928 -3.8219
v 3.0667 -0.2841 -3.8241
v 3.0667 -0.2159 -4.0733
v 3.0667 -0.1769 -3.9883
v 3.0667 -0.3083 -3.8558
v 3.0667 -0.4131 -4.0767
v 3.0667 -0.1886 -4.2033
v 3.0667 -0.2195 -4.1199
v 3.0667 -0.4077 -4.1191
v 3.0667 -0.3262 -4.3448
v 3.0667 -0.0767 -4.2763
v 3.0667 -0.1618 -4.2374
v 3.0667 -0.2944 -4.3690
v 3.0667 -0.0736 -4.4738
v 3.0667 -0.0737 -4.2105
v 3.1919 -0.0611 -4.2230
v 3.1933 -0.0297 -4.2224
v 3.0667 -0.0163 -4.2105
v 3.0667 0.0148 -4.1988
v 3.0667 0.0533 -4.1590
v 3.0667 0.0501 -4.0451
v 3.0667 0.0116 -4.0057
v 3.0667 -0.1015 -4.0057
v 3.0667 -0.1400 -4.0451
v 3.0667 -0.1433 -4.1590
v 3.1919 -0.1280 -4.1923
v 3.0667 -0.1047 -4.1988
v 3.0667 -0.1518 -4.0762
v 3.0667 -0.1537 -4.1288
v 3.0667 0.0638 -4.1288
v 3.0667 0.0618 -4.0762
v 3.0667 -0.0211 -3.9957
v 3.0667 -0.0689 -3.9957
v 2.9400 -0.1825 -5.7658
v 2.9400 -0.0448 -5.8902
v 2.9400 -0.1779 -5.6023
v 2.9400 -0.3408 -5.5652
v 2.9400 -0.5092 -5.5200
v 2.9400 -0.6475 -5.4647
v 2.9400 -0.7656 -5.4069
v 2.9400 -0.8787 -5.3416
v 2.9400 -1.0090 -5.2554
v 2.9400 -1.1111 -5.3769
v 2.9400 -1.3081 -5.3708
v 2.9400 -1.3186 -5.1790
v 2.9400 -1.1995 -5.0669
v 2.9400 -1.2886 -4.9251
v 2.9400 -1.3753 -4.7738
v 2.9400 -1.4336 -4.6368
v 2.9400 -1.4760 -4.5123
v 2.9400 -1.5094 -4.3860
v 2.9400 -1.5402 -4.2333
v 2.9400 -1.6983 -4.2466
v 2.9400 -1.8330 -4.1063
v 2.9400 -1.7051 -3.9677
v 2.9400 -1.5417 -3.9722
v 2.9400 -1.5048 -3.8092
v 2.9400 -1.4595 -3.6408
v 2.9400 -1.4043 -3.5026
v 2.9400 -1.3464 -3.3845
v 2.9400 -1.2811 -3.2713
v 2.9400 -1.1950 -3.1411
v 2.9400 -1.3164 -3.0390
v 2.9400 -1.3103 -2.8420
v 2.9400 -1.1185 -2.8315
v 2.9400 -1.0065 -2.9505
v 2.9400 -0.8646 -2.8614
v 2.9400 -0.7133 -2.7747
v 2.9400 -0.5763 -2.7164
v 2.9400 -0.4518 -2.6741
v 2.9400 -0.3255 -2.6407
v 2.9400 -0.1728 -2.6099
v 2.9400 -0.1860 -2.4519
v 2.9400 -0.0448 -2.3138
v 2.9400 0.0964 -2.4519
v 2.9400 0.0832 -2.6099
v 2.9400 0.2359 -2.6407
v 2.9400 0.3622 -2.6741
v 2.9400 0.4867 -2.7164
v 2.9400 0.6237 -2.7747
v 2.9400 0.7750 -2.8614
v 2.9400 0.9169 -2.9505
v 2.9400 1.0289 -2.8315
v 2.9400 1.2207 -2.8420
v 2.9400 1.2268 -3.0390
v 2.9400 1.1054 -3.1411
v 2.9400 1.1915 -3.2713
v 2.9400 1.2569 -3.3845
v 2.9400 1.3147 -3.5026
v 2.9400 1.3700 -3.6408
v 2.9400 1.4152 -3.8092
v 2.9400 1.4521 -3.9722
v 2.9400 1.6156 -3.9677
v 2.9400 1.7434 -4.1063
v 2.9400 1.6087 -4.2466
v 2.9400 1.4506 -4.2333
v 2.9400 1.4198 -4.3860
v 2.9400 1.3864 -4.5123
v 2.9400 1.3440 -4.6368
v 2.9400 1.2857 -4.7738
v 2.9400 1.1990 -4.9251
v 2.9400 1.1099 -5.0669
v 2.9400 1.2290 -5.1790
v 2.9400 1.2185 -5.3708
v 2.9400 1.0215 -5.3769
v 2.9400 0.9194 -5.2554
v 2.9400 0.7891 -5.3416
v 2.9400 0.6760 -5.4069
v 2.9400 0.5579 -5.4647
v 2.9400 0.4196 -5.5200
v 2.9400 0.2513 -5.5652
v 2.9400 0.0883 -5.6023
v 2.9400 0.0929 -5.7658
v 2.9400 -0.4754 -4.4817
v 2.9400 -0.6169 -4.1417
v 2.9400 -1.3110 -4.2008
v 2.9400 -1.3079 -4.3037
v 2.9400 -1.2867 -4.3955
v 2.9400 -1.2561 -4.5106
v 2.9400 -1.2118 -4.6222
v 2.9400 -1.1554 -4.7304
v 2.9400 -1.0879 -4.8361
v 2.9400 -1.0058 -4.9379
v 2.9400 -0.0838 -4.6779
v 2.9400 -0.4152 -4.5379
v 2.9400 -0.8644 -5.0735
v 2.9400 -0.7889 -5.1441
v 2.9400 -0.7086 -5.1940
v 2.9400 -0.6051 -5.2537
v 2.9400 -0.4943 -5.3012
v 2.9400 -0.3774 -5.3377
v 2.9400 -0.2545 -5.3645
v 2.9400 -0.1239 -5.3781
v 2.9400 0.2881 -5.3367
v 2.9400 0.1655 -5.3634
v 2.9400 0.4047 -5.3002
v 2.9400 0.5151 -5.2529
v 2.9400 0.6183 -5.1934
v 2.9400 0.6985 -5.1436
v 2.9400 0.7737 -5.0732
v 2.9400 0.3257 -4.5390
v 2.9400 -0.0047 -4.6786
v 2.9400 0.0353 -5.3770
v 2.9400 1.0660 -4.7305
v 2.9400 0.9984 -4.8363
v 2.9400 1.1223 -4.6223
v 2.9400 1.1667 -4.5106
v 2.9400 1.1973 -4.3955
v 2.9400 1.2185 -4.3036
v 2.9400 1.2217 -4.2006
v 2.9400 0.5272 -4.1414
v 2.9400 0.3856 -4.4817
v 2.9400 0.9163 -4.9382
v 2.9400 1.1868 -3.7721
v 2.9400 1.2135 -3.8948
v 2.9400 1.1503 -3.6555
v 2.9400 1.1030 -3.5450
v 2.9400 1.0434 -3.4418
v 2.9400 0.9937 -3.3616
v 2.9400 0.9232 -3.2863
v 2.9400 0.3888 -3.7345
v 2.9400 0.5285 -4.0758
v 2.9400 1.2271 -4.0251
v 2.9400 0.6891 -3.0601
v 2.9400 0.7920 -3.1431
v 2.9400 0.5824 -2.9919
v 2.9400 0.4730 -2.9350
v 2.9400 0.3602 -2.8902
v 2.9400 0.2440 -2.8593
v 2.9400 0.1512 -2.8379
v 2.9400 0.0472 -2.8347
v 2.9400 -0.0125 -3.5360
v 2.9400 0.3311 -3.6790
v 2.9400 -0.4211 -3.6757
v 2.9400 -0.0802 -3.5338
v 2.9400 -0.1395 -2.8380
v 2.9400 -0.2427 -2.8412
v 2.9400 -0.3347 -2.8624
v 2.9400 -0.4500 -2.8931
v 2.9400 -0.5619 -2.9375
v 2.9400 -0.6704 -2.9940
v 2.9400 -0.7764 -3.0617
v 2.9400 -0.8784 -3.1440
v 2.9400 -0.6177 -4.0762
v 2.9400 -0.4779 -3.7345
v 2.9400 -1.0129 -3.2858
v 2.9400 -1.0835 -3.3612
v 2.9400 -1.1333 -3.4415
v 2.9400 -1.1929 -3.5448
v 2.9400 -1.2403 -3.6555
v 2.9400 -1.2768 -3.7722
v 2.9400 -1.3036 -3.8951
v 2.9400 -1.3172 -4.0255
v 2.9390 -0.0271 -4.4855
v 2.9386 -0.0236 -4.2684
v 2.9390 0.2158 -4.3703
v 2.9391 0.0699 -4.2255
v 2.9384 0.2395 -4.3568
v 2.9392 0.0873 -4.2002
v 2.9384 0.3297 -4.1071
v 2.9393 0.1215 -4.1080
v 2.9481 0.3361 -4.0886
v 2.9400 0.1178 -4.0848
v 2.9481 0.2201 -3.8441
v 2.9400 0.0746 -3.9907
v 2.9413 0.2025 -3.8221
v 2.9397 0.0506 -3.9697
v 2.9413 -0.0263 -3.7345
v 2.9397 -0.0266 -3.9365
v 2.9400 -0.0622 -3.9370
v 2.9400 -0.1400 -3.9705
v 2.9481 -0.0625 -3.7337
v 2.9481 -0.2928 -3.8219
v 2.9400 -0.1663 -3.9903
v 2.9400 -0.2088 -4.0829
v 2.9481 -0.3095 -3.8460
v 2.9481 -0.4236 -4.0866
v 2.9400 -0.2122 -4.1096
v 2.9400 -0.1785 -4.2007
v 2.9481 -0.4177 -4.1088
v 2.9481 -0.3287 -4.3551
v 2.9400 -0.1598 -4.2268
v 2.9400 -0.0671 -4.2692
v 2.9481 -0.3043 -4.3702
v 2.9396 -0.0637 -4.4862
v 2.9401 -0.0297 -4.2224
v 2.9415 -0.0611 -4.2230
v 2.9407 0.0504 -4.1732
v 2.9406 0.0379 -4.1914
v 2.9412 0.0239 -4.0067
v 2.9415 0.0413 -4.0219
v 2.9415 -0.1327 -4.0216
v 2.9415 -0.1137 -4.0073
v 2.9415 -0.1280 -4.1923
v 2.9415 -0.1415 -4.1735
v 2.9415 -0.1659 -4.1078
v 2.9415 -0.1634 -4.0884
v 2.9415 0.0724 -4.0899
v 2.9407 0.0751 -4.1066
v 2.9415 -0.0575 -3.9831
v 2.9412 -0.0318 -3.9827
v 3.4563 -0.0481 -5.9467
v 3.5830 -0.0481 -5.8975
v 3.5830 -0.1858 -5.7731
v 3.4563 -0.2038 -5.7981
v 3.5830 -0.1812 -5.6096
v 3.4563 -0.2014 -5.6549
v 3.5830 -0.3442 -5.5726
v 3.4563 -0.3550 -5.6262
v 3.5830 -0.5126 -5.5273
v 3.4563 -0.5296 -5.5793
v 3.5830 -0.6508 -5.4720
v 3.4563 -0.6729 -5.5220
v 3.5830 -0.7689 -5.4142
v 3.4563 -0.7953 -5.4621
v 3.5830 -0.8820 -5.3489
v 3.4563 -0.9126 -5.3943
v 3.5830 -1.0123 -5.2627
v 3.4563 -1.0295 -5.3089
v 3.5830 -1.1144 -5.3842
v 3.4563 -1.1187 -5.4146
v 3.5830 -1.3114 -5.3781
v 3.4563 -1.3465 -5.4134
v 3.5830 -1.3220 -5.1863
v 3.4563 -1.3528 -5.1910
v 3.5830 -1.2029 -5.0742
v 3.4563 -1.2496 -5.0917
v 3.5830 -1.2920 -4.9324
v 3.4563 -1.3376 -4.9625
v 3.5830 -1.3787 -4.7811
v 3.4563 -1.4274 -4.8057
v 3.5830 -1.4370 -4.6441
v 3.4563 -1.4878 -4.6637
v 3.5830 -1.4793 -4.5196
v 3.4563 -1.5317 -4.5346
v 3.5830 -1.5127 -4.3933
v 3.4563 -1.5664 -4.4037
v 3.5830 -1.5436 -4.2406
v 3.4563 -1.5883 -4.2606
v 3.5830 -1.7017 -4.2539
v 3.4563 -1.7261 -4.2719
v 3.5830 -1.8363 -4.1136
v 3.4563 -1.8860 -4.1137
v 3.5830 -1.7085 -3.9750
v 3.4563 -1.7335 -3.9570
v 3.5830 -1.5450 -3.9795
v 3.4563 -1.5903 -3.9594
v 3.5830 -1.5081 -3.8165
v 3.4563 -1.5616 -3.8058
v 3.5830 -1.4629 -3.6481
v 3.4563 -1.5147 -3.6312
v 3.5830 -1.4076 -3.5099
v 3.4563 -1.4574 -3.4879
v 3.5830 -1.3498 -3.3918
v 3.4563 -1.3975 -3.3655
v 3.5830 -1.2844 -3.2787
v 3.4563 -1.3297 -3.2482
v 3.5830 -1.1983 -3.1484
v 3.4563 -1.2444 -3.1313
v 3.5830 -1.3197 -3.0463
v 3.4563 -1.3500 -3.0421
v 3.5830 -1.3136 -2.8493
v 3.4563 -1.3489 -2.8143
v 3.5830 -1.1218 -2.8388
v 3.4563 -1.1264 -2.8081
v 3.5830 -1.0098 -2.9578
v 3.4563 -1.0271 -2.9112
v 3.5830 -0.8679 -2.8687
v 3.4563 -0.8980 -2.8233
v 3.5830 -0.7166 -2.7820
v 3.4563 -0.7411 -2.7334
v 3.5830 -0.5796 -2.7237
v 3.4563 -0.5991 -2.6730
v 3.5830 -0.4551 -2.6814
v 3.4563 -0.4701 -2.6291
v 3.5830 -0.3289 -2.6480
v 3.4563 -0.3392 -2.5944
v 3.5830 -0.1761 -2.6173
v 3.4563 -0.1960 -2.5725
v 3.5830 -0.1894 -2.4592
v 3.4563 -0.2073 -2.4347
v 3.5830 -0.0481 -2.3211
v 3.4563 -0.0481 -2.2709
v 3.5830 0.0931 -2.4592
v 3.4563 0.1110 -2.4347
v 3.5830 0.0799 -2.6173
v 3.4563 0.0998 -2.5725
v 3.5830 0.2326 -2.6480
v 3.4563 0.2429 -2.5944
v 3.5830 0.3589 -2.6814
v 3.4563 0.3738 -2.6291
v 3.5830 0.4834 -2.7237
v 3.4563 0.5029 -2.6730
v 3.5830 0.6204 -2.7820
v 3.4563 0.6449 -2.7334
v 3.5830 0.7717 -2.8687
v 3.4563 0.8017 -2.8233
v 3.5830 0.9135 -2.9578
v 3.4563 0.9309 -2.9112
v 3.5830 1.0256 -2.8388
v 3.4563 1.0302 -2.8081
v 3.5830 1.2174 -2.8493
v 3.4563 1.2526 -2.8143
v 3.5830 1.2235 -3.0463
v 3.4563 1.2537 -3.0421
v 3.5830 1.1020 -3.1484
v 3.4563 1.1481 -3.1313
v 3.5830 1.1882 -3.2787
v 3.4563 1.2335 -3.2482
v 3.5830 1.2535 -3.3918
v 3.4563 1.3012 -3.3655
v 3.5830 1.3113 -3.5099
v 3.4563 1.3612 -3.4879
v 3.5830 1.3666 -3.6481
v 3.4563 1.4185 -3.6312
v 3.5830 1.4119 -3.8165
v 3.4563 1.4654 -3.8058
v 3.5830 1.4488 -3.9795
v 3.4563 1.4941 -3.9594
v 3.5830 1.6122 -3.9750
v 3.4563 1.6373 -3.9570
v 3.5830 1.7400 -4.1136
v 3.4563 1.7897 -4.1137
v 3.5830 1.6054 -4.2539
v 3.4563 1.6299 -4.2719
v 3.5830 1.4473 -4.2406
v 3.4563 1.4921 -4.2606
v 3.5830 1.4165 -4.3933
v 3.4563 1.4701 -4.4037
v 3.5830 1.3830 -4.5196
v 3.4563 1.4355 -4.5346
v 3.5830 1.3407 -4.6441
v 3.4563 1.3916 -4.6637
v 3.5830 1.2824 -4.7811
v 3.4563 1.3312 -4.8057
v 3.5830 1.1957 -4.9324
v 3.4563 1.2413 -4.9625
v 3.5830 1.1066 -5.0742
v 3.4563 1.1533 -5.0917
v 3.5830 1.2257 -5.1863
v 3.4563 1.2565 -5.1910
v 3.5830 1.2152 -5.3781
v 3.4563 1.2502 -5.4134
v 3.5830 1.0182 -5.3842
v 3.4563 1.0225 -5.4146
v 3.5830 0.9160 -5.2627
v 3.4563 0.9333 -5.3089
v 3.5830 0.7858 -5.3489
v 3.4563 0.8163 -5.3943
v 3.5830 0.6727 -5.4142
v 3.4563 0.6991 -5.4621
v 3.5830 0.5545 -5.4720
v 3.4563 0.5766 -5.5220
v 3.5830 0.4163 -5.5273
v 3.4563 0.4333 -5.5793
v 3.5830 0.2479 -5.5726
v 3.4563 0.2588 -5.6262
v 3.5830 0.0850 -5.6096
v 3.4563 0.1052 -5.6549
v 3.5830 0.0896 -5.7731
v 3.4563 0.1075 -5.7981
v 3.5830 -0.4787 -4.4890
v 3.4563 -0.5577 -4.3687
v 3.4563 -0.4991 -4.4919
v 3.5830 -0.6202 -4.1490
v 3.4563 -0.5976 -4.2529
v 3.4563 -0.6337 -4.1683
v 3.5830 -1.3144 -4.2081
v 3.4563 -1.2943 -4.2245
v 3.5830 -1.3112 -4.3110
v 3.4563 -1.2913 -4.3225
v 3.5830 -1.2900 -4.4028
v 3.4563 -1.2711 -4.4099
v 3.5830 -1.2594 -4.5179
v 3.4563 -1.2420 -4.5194
v 3.5830 -1.2151 -4.6295
v 3.4563 -1.1998 -4.6256
v 3.5830 -1.1588 -4.7377
v 3.4563 -1.1462 -4.7286
v 3.5830 -1.0913 -4.8434
v 3.4563 -1.0820 -4.8292
v 3.5830 -1.0091 -4.9452
v 3.4563 -1.0038 -4.9261
v 3.5830 -0.0872 -4.6852
v 3.4563 -0.2258 -4.6544
v 3.4563 -0.1074 -4.6998
v 3.5830 -0.4185 -4.5452
v 3.4563 -0.3361 -4.6010
v 3.4563 -0.4216 -4.5670
v 3.5830 -0.8677 -5.0808
v 3.4563 -0.8476 -5.0750
v 3.5830 -0.7922 -5.1514
v 3.4563 -0.7760 -5.1419
v 3.5830 -0.7119 -5.2013
v 3.4563 -0.6998 -5.1893
v 3.5830 -0.6084 -5.2610
v 3.4563 -0.6017 -5.2458
v 3.5830 -0.4976 -5.3085
v 3.4563 -0.4967 -5.2909
v 3.5830 -0.3808 -5.3450
v 3.4563 -0.3858 -5.3255
v 3.5830 -0.2578 -5.3718
v 3.4563 -0.2692 -5.3509
v 3.5830 -0.1272 -5.3854
v 3.4563 -0.1454 -5.3638
v 3.4563 0.1730 -5.3509
v 3.5830 0.1621 -5.3707
v 3.5830 0.2848 -5.3440
v 3.4563 0.2896 -5.3255
v 3.5830 0.4013 -5.3075
v 3.4563 0.4004 -5.2909
v 3.5830 0.5118 -5.2602
v 3.4563 0.5055 -5.2458
v 3.5830 0.6150 -5.2007
v 3.4563 0.6036 -5.1893
v 3.5830 0.6951 -5.1509
v 3.4563 0.6798 -5.1419
v 3.5830 0.7704 -5.0805
v 3.4563 0.7514 -5.0750
v 3.5830 0.3224 -4.5463
v 3.4563 0.3254 -4.5670
v 3.4563 0.2398 -4.6010
v 3.5830 -0.0081 -4.6859
v 3.4563 0.1295 -4.6544
v 3.4563 0.0111 -4.6998
v 3.5830 0.0319 -5.3843
v 3.4563 0.0491 -5.3638
v 3.4563 0.9857 -4.8292
v 3.5830 0.9951 -4.8436
v 3.5830 1.0626 -4.7378
v 3.4563 1.0499 -4.7286
v 3.5830 1.1190 -4.6296
v 3.4563 1.1035 -4.6256
v 3.5830 1.1633 -4.5179
v 3.4563 1.1457 -4.5194
v 3.5830 1.1939 -4.4028
v 3.4563 1.1748 -4.4099
v 3.5830 1.2152 -4.3109
v 3.4563 1.1950 -4.3225
v 3.5830 1.2183 -4.2079
v 3.4563 1.1980 -4.2245
v 3.5830 0.5238 -4.1487
v 3.4563 0.5375 -4.1683
v 3.4563 0.5013 -4.2529
v 3.5830 0.3822 -4.4890
v 3.4563 0.4614 -4.3687
v 3.4563 0.4028 -4.4919
v 3.5830 0.9129 -4.9455
v 3.4563 0.9075 -4.9261
v 3.4563 1.1902 -3.8915
v 3.5830 1.2102 -3.9021
v 3.5830 1.1834 -3.7794
v 3.4563 1.1648 -3.7749
v 3.5830 1.1470 -3.6628
v 3.4563 1.1302 -3.6640
v 3.5830 1.0996 -3.5523
v 3.4563 1.0851 -3.5590
v 3.5830 1.0401 -3.4491
v 3.4563 1.0286 -3.4609
v 3.5830 0.9903 -3.3689
v 3.4563 0.9812 -3.3847
v 3.5830 0.9199 -3.2936
v 3.4563 0.9143 -3.3131
v 3.5830 0.3854 -3.7418
v 3.4563 0.4063 -3.7391
v 3.4563 0.4404 -3.8245
v 3.5830 0.5251 -4.0831
v 3.4563 0.4939 -3.9348
v 3.4563 0.5391 -4.0635
v 3.5830 1.2238 -4.0324
v 3.4563 1.2031 -4.0153
v 3.4563 0.7654 -3.1569
v 3.5830 0.7887 -3.1504
v 3.5830 0.6858 -3.0674
v 3.4563 0.6685 -3.0787
v 3.5830 0.5790 -2.9992
v 3.4563 0.5679 -3.0145
v 3.5830 0.4697 -2.9423
v 3.4563 0.4649 -2.9609
v 3.5830 0.3569 -2.8975
v 3.4563 0.3587 -2.9187
v 3.5830 0.2407 -2.8666
v 3.4563 0.2492 -2.8896
v 3.5830 0.1479 -2.8452
v 3.4563 0.1618 -2.8694
v 3.5830 0.0439 -2.8420
v 3.4563 0.0638 -2.8664
v 3.5830 -0.0159 -3.5433
v 3.4563 0.0076 -3.5270
v 3.4563 0.0923 -3.5630
v 3.5830 0.3277 -3.6863
v 3.4563 0.2082 -3.6029
v 3.4563 0.3312 -3.6616
v 3.5830 -0.4245 -3.6830
v 3.4563 -0.3044 -3.6029
v 3.4563 -0.4275 -3.6616
v 3.5830 -0.0836 -3.5411
v 3.4563 -0.1886 -3.5630
v 3.4563 -0.1039 -3.5270
v 3.5830 -0.1428 -2.8453
v 3.4563 -0.1601 -2.8664
v 3.5830 -0.2460 -2.8485
v 3.4563 -0.2581 -2.8694
v 3.5830 -0.3381 -2.8697
v 3.4563 -0.3455 -2.8896
v 3.5830 -0.4534 -2.9004
v 3.4563 -0.4549 -2.9187
v 3.5830 -0.5653 -2.9448
v 3.4563 -0.5612 -2.9609
v 3.5830 -0.6738 -3.0013
v 3.4563 -0.6641 -3.0145
v 3.5830 -0.7797 -3.0690
v 3.4563 -0.7647 -3.0787
v 3.5830 -0.8818 -3.1513
v 3.4563 -0.8616 -3.1569
v 3.5830 -0.6210 -4.0836
v 3.4563 -0.5901 -3.9348
v 3.4563 -0.6353 -4.0635
v 3.5830 -0.4812 -3.7418
v 3.4563 -0.5367 -3.8245
v 3.4563 -0.5026 -3.7391
v 3.5830 -1.0163 -3.2931
v 3.4563 -1.0105 -3.3131
v 3.5830 -1.0868 -3.3685
v 3.4563 -1.0775 -3.3847
v 3.5830 -1.1367 -3.4488
v 3.4563 -1.1248 -3.4609
v 3.5830 -1.1962 -3.5521
v 3.4563 -1.1814 -3.5590
v 3.5830 -1.2437 -3.6628
v 3.4563 -1.2264 -3.6640
v 3.5830 -1.2801 -3.7795
v 3.4563 -1.2610 -3.7749
v 3.5830 -1.3069 -3.9024
v 3.4563 -1.2864 -3.8915
v 3.5830 -1.3205 -4.0328
v 3.4563 -1.2994 -4.0153
v 3.4563 -0.0162 -4.2836
v 3.5844 -0.0269 -4.2757
v 3.5840 -0.0304 -4.4928
v 3.4563 -0.0194 -4.4811
v 3.5840 0.2125 -4.3776
v 3.4563 0.2015 -4.3763
v 3.5839 0.0666 -4.2328
v 3.4563 0.0688 -4.2447
v 3.4563 0.0957 -4.2106
v 3.5838 0.0840 -4.2075
v 3.5846 0.2362 -4.3641
v 3.4563 0.2333 -4.3521
v 3.5846 0.3264 -4.1144
v 3.4563 0.3148 -4.1264
v 3.5837 0.1181 -4.1153
v 3.4563 0.1265 -4.1272
v 3.4563 0.1230 -4.0807
v 3.5830 0.1144 -4.0921
v 3.5749 0.3328 -4.0959
v 3.4563 0.3202 -4.0840
v 3.5749 0.2168 -3.8514
v 3.4563 0.2154 -3.8632
v 3.5830 0.0713 -3.9980
v 3.4563 0.0840 -3.9956
v 3.4563 0.0499 -3.9688
v 3.5833 0.0473 -3.9770
v 3.5817 0.1991 -3.8294
v 3.4563 0.1912 -3.8314
v 3.5817 -0.0297 -3.7418
v 3.4563 -0.0217 -3.7499
v 3.5833 -0.0299 -3.9438
v 3.4563 -0.0219 -3.9379
v 3.4563 -0.1462 -3.9688
v 3.5830 -0.1433 -3.9778
v 3.5830 -0.0656 -3.9443
v 3.4563 -0.0743 -3.9379
v 3.5749 -0.0658 -3.7410
v 3.4563 -0.0745 -3.7499
v 3.5749 -0.2962 -3.8292
v 3.4563 -0.2192 -4.0807
v 3.5830 -0.2121 -4.0902
v 3.5830 -0.1697 -3.9976
v 3.4563 -0.1802 -3.9956
v 3.5749 -0.3128 -3.8533
v 3.4563 -0.3117 -3.8631
v 3.5749 -0.4269 -4.0939
v 3.4563 -0.4164 -4.0840
v 3.4563 -0.1919 -4.2106
v 3.5830 -0.1819 -4.2080
v 3.5830 -0.2156 -4.1169
v 3.4563 -0.2228 -4.1272
v 3.5749 -0.4210 -4.1161
v 3.4563 -0.4110 -4.1264
v 3.5749 -0.3320 -4.3624
v 3.4563 -0.3295 -4.3521
v 3.4563 -0.0800 -4.2836
v 3.5830 -0.0704 -4.2765
v 3.5830 -0.1631 -4.2341
v 3.4563 -0.1651 -4.2447
v 3.5749 -0.3076 -4.3775
v 3.4563 -0.2978 -4.3763
v 3.5834 -0.0670 -4.4935
v 3.4563 -0.0769 -4.4811
v 3.5815 -0.0644 -4.2303
v 3.5829 -0.0330 -4.2297
v 3.4563 -0.0196 -4.2178
v 3.4563 0.0115 -4.2061
v 3.5824 0.0345 -4.1987
v 3.5823 0.0471 -4.1805
v 3.4563 0.0500 -4.1663
v 3.4563 0.0467 -4.0524
v 3.5815 0.0379 -4.0292
v 3.5818 0.0206 -4.0140
v 3.4563 0.0083 -4.0130
v 3.4563 -0.1049 -4.0130
v 3.5815 -0.1170 -4.0146
v 3.5815 -0.1360 -4.0289
v 3.4563 -0.1433 -4.0524
v 3.4563 -0.1466 -4.1663
v 3.5815 -0.1449 -4.1808
v 3.5815 -0.1313 -4.1996
v 3.4563 -0.1081 -4.2061
v 3.4563 -0.1551 -4.0835
v 3.5815 -0.1667 -4.0958
v 3.5815 -0.1692 -4.1151
v 3.4563 -0.1571 -4.1361
v 3.4563 0.0605 -4.1361
v 3.5823 0.0718 -4.1139
v 3.5815 0.0691 -4.0972
v 3.4563 0.0585 -4.0835
v 3.4563 -0.0244 -4.0030
v 3.5818 -0.0351 -3.9900
v 3.5815 -0.0609 -3.9904
v 3.4563 -0.0722 -4.0030
f 197 198 196
f 198 197 194
f 194 193 198
f 66 65 567 569
f 73 72 581 583
f 27 26 489 491
f 181 184 789 782
f 62 61 559 561
f 69 68 573 575
f 140 139 705 707
f 23 22 481 483
f 150 149 725 726
f 182 181 782 785
f 58 57 551 553
f 146 145 717 719
f 19 18 473 475
f 65 64 565 567
f 135 134 697 699
f 54 53 543 545
f 177 180 781 774
f 15 14 465 467
f 137 136 701 702
f 178 177 774 777
f 61 60 557 559
f 50 49 535 537
f 133 132 693 695
f 11 10 457 459
f 57 56 549 551
f 194 197 812 807
f 222 223 855 854
f 46 45 527 529
f 7 6 449 451
f 53 52 541 543
f 219 229 867 848
f 42 41 519 521
f 3 2 441 443
f 49 48 533 535
f 38 37 511 513
f 45 44 525 527
f 166 176 773 754
f 34 33 503 505
f 41 40 517 519
f 30 29 495 497
f 214 213 838 839
f 37 36 509 511
f 26 25 487 489
f 22 21 479 481
f 33 32 501 503
f 18 17 471 473
f 29 28 493 495
f 14 13 463 465
f 156 155 734 735
f 25 24 485 487
f 217 227 863 844
f 174 173 767 769
f 10 9 455 457
f 151 150 726 728
f 21 20 477 479
f 170 169 759 761
f 6 5 447 449
f 132 131 691 693
f 211 212 213
f 213 214 211
f 17 16 469 471
f 161 160 743 745
f 128 127 683 685
f 13 12 461 463
f 157 156 735 737
f 123 122 675 677
f 9 8 453 455
f 5 4 445 447
f 129 140 707 686
f 147 146 719 721
f 119 118 667 669
f 138 137 702 704
f 143 142 711 713
f 110 109 651 653
f 210 209 834 836
f 134 133 695 697
f 222 212 211
f 211 223 222
f 206 205 826 828
f 130 129 686 689
f 131 130 689 691
f 202 201 818 820
f 102 101 635 637
f 98 97 627 629
f 89 88 611 613
f 168 167 756 757
f 197 196 811 812
f 154 164 751 732
f 152 151 728 729
f 192 191 803 805
f 85 84 603 605
f 122 121 673 675
f 2 1 438 441
f 127 126 682 683
f 188 187 795 797
f 80 79 595 597
f 113 112 657 658
f 184 183 787 789
f 109 108 649 651
f 227 226 860 863
f 139 138 704 705
f 76 75 587 589
f 141 152 729 708
f 180 179 779 781
f 101 100 633 635
f 72 71 579 581
f 221 225 859 852
f 228 218 847 864
f 97 96 625 627
f 176 175 771 773
f 68 67 571 573
f 223 221 852 855
f 117 128 685 664
f 215 214 839 840
f 92 91 617 619
f 105 116 663 642
f 126 125 680 682
f 142 141 708 711
f 209 208 832 834
f 64 63 563 565
f 172 171 763 765
f 114 113 658 660
f 205 204 824 826
f 60 59 555 557
f 88 87 609 611
f 218 217 844 847
f 94 104 641 622
f 118 117 664 667
f 56 55 547 549
f 201 200 816 818
f 125 124 679 680
f 163 162 747 749
f 121 120 671 673
f 106 105 642 645
f 196 195 809 811
f 52 51 539 541
f 79 78 593 595
f 207 210 836 829
f 159 158 739 741
f 48 47 531 533
f 112 111 655 657
f 75 74 585 587
f 208 207 829 832
f 191 190 801 803
f 124 123 677 679
f 155 153 731 734
f 44 43 523 525
f 108 107 647 649
f 71 70 577 579
f 187 186 793 795
f 120 119 669 671
f 153 154 732 731
f 40 39 515 517
f 104 103 639 641
f 67 66 569 571
f 203 206 828 821
f 115 114 660 661
f 183 182 785 787
f 116 115 661 663
f 149 148 723 725
f 36 35 507 509
f 100 99 631 633
f 63 62 561 563
f 96 95 624 625
f 229 228 864 867
f 204 203 821 824
f 82 92 619 600
f 111 110 653 655
f 145 144 715 717
f 59 58 553 555
f 179 178 777 779
f 32 31 499 501
f 225 224 856 859
f 107 106 645 647
f 136 135 699 701
f 226 216 843 860
f 199 202 820 813
f 28 27 491 493
f 91 90 615 617
f 55 54 545 547
f 224 220 851 856
f 200 199 813 816
f 103 102 637 639
f 175 174 769 771
f 24 23 483 485
f 87 86 607 609
f 51 50 537 539
f 84 83 602 603
f 220 219 848 851
f 99 98 629 631
f 171 170 761 763
f 20 19 475 477
f 83 81 599 602
f 47 46 529 531
f 95 93 621 624
f 167 165 753 756
f 173 172 765 767
f 195 193 806 809
f 216 215 840 843
f 230 231 1
f 1 2 230
f 232 230 2
f 2 3 232
f 233 232 3
f 3 4 233
f 234 233 4
f 4 5 234
f 235 234 5
f 5 6 235
f 236 235 6
f 6 7 236
f 237 236 7
f 7 8 237
f 238 237 8
f 8 9 238
f 239 238 9
f 9 10 239
f 240 239 10
f 10 11 240
f 241 240 11
f 11 12 241
f 242 241 12
f 12 13 242
f 243 242 13
f 13 14 243
f 244 243 14
f 14 15 244
f 245 244 15
f 15 16 245
f 246 245 16
f 16 17 246
f 247 246 17
f 17 18 247
f 248 247 18
f 18 19 248
f 249 248 19
f 19 20 249
f 250 249 20
f 20 21 250
f 251 250 21
f 21 22 251
f 252 251 22
f 22 23 252
f 253 252 23
f 23 24 253
f 254 253 24
f 24 25 254
f 255 254 25
f 25 26 255
f 256 255 26
f 26 27 256
f 257 256 27
f 27 28 257
f 258 257 28
f 28 29 258
f 259 258 29
f 29 30 259
f 260 259 30
f 30 31 260
f 261 260 31
f 31 32 261
f 262 261 32
f 32 33 262
f 263 262 33
f 33 34 263
f 264 263 34
f 34 35 264
f 265 264 35
f 35 36 265
f 266 265 36
f 36 37 266
f 267 266 37
f 37 38 267
f 268 267 38
f 38 39 268
f 269 268 39
f 39 40 269
f 270 269 40
f 40 41 270
f 271 270 41
f 41 42 271
f 272 271 42
f 42 43 272
f 273 272 43
f 43 44 273
f 274 273 44
f 44 45 274
f 275 274 45
f 45 46 275
f 276 275 46
f 46 47 276
f 277 276 47
f 47 48 277
f 278 277 48
f 48 49 278
f 279 278 49
f 49 50 279
f 280 279 50
f 50 51 280
f 281 280 51
f 51 52 281
f 282 281 52
f 52 53 282
f 283 282 53
f 53 54 283
f 284 283 54
f 54 55 284
f 285 284 55
f 55 56 285
f 286 285 56
f 56 57 286
f 287 286 57
f 57 58 287
f 288 287 58
f 58 59 288
f 289 288 59
f 59 60 289
f 290 289 60
f 60 61 290
f 291 290 61
f 61 62 291
f 292 291 62
f 62 63 292
f 293 292 63
f 63 64 293
f 294 293 64
f 64 65 294
f 295 294 65
f 65 66 295
f 296 295 66
f 66 67 296
f 297 296 67
f 67 68 297
f 298 297 68
f 68 69 298
f 299 298 69
f 69 70 299
f 300 299 70
f 70 71 300
f 301 300 71
f 71 72 301
f 302 301 72
f 72 73 302
f 303 302 73
f 73 74 303
f 304 303 74
f 74 75 304
f 305 304 75
f 75 76 305
f 306 305 76
f 76 77 306
f 307 306 77
f 77 78 307
f 308 307 78
f 78 79 308
f 309 308 79
f 79 80 309
f 231 309 80
f 80 1 231
f 310 82 81
f 311 310 81
f 81 83 311
f 311 83 84
f 312 311 84
f 84 85 312
f 313 312 85
f 85 86 313
f 314 313 86
f 86 87 314
f 315 314 87
f 87 88 315
f 316 315 88
f 88 89 316
f 317 316 89
f 89 90 317
f 318 317 90
f 90 91 318
f 319 318 91
f 91 92 319
f 310 319 92
f 92 82 310
f 320 94 93
f 321 320 93
f 93 95 321
f 321 95 96
f 322 321 96
f 96 97 322
f 323 322 97
f 97 98 323
f 324 323 98
f 98 99 324
f 325 324 99
f 99 100 325
f 326 325 100
f 100 101 326
f 327 326 101
f 101 102 327
f 328 327 102
f 102 103 328
f 329 328 103
f 103 104 329
f 320 329 104
f 104 94 320
f 330 331 105
f 105 106 330
f 332 330 106
f 106 107 332
f 333 332 107
f 107 108 333
f 334 333 108
f 108 109 334
f 335 334 109
f 109 110 335
f 336 335 110
f 110 111 336
f 337 336 111
f 111 112 337
f 337 112 113
f 338 337 113
f 113 114 338
f 338 114 115
f 339 338 115
f 115 116 339
f 331 339 116
f 116 105 331
f 340 341 117
f 117 118 340
f 342 340 118
f 118 119 342
f 343 342 119
f 119 120 343
f 344 343 120
f 120 121 344
f 345 344 121
f 121 122 345
f 346 345 122
f 122 123 346
f 347 346 123
f 123 124 347
f 347 124 125
f 348 347 125
f 125 126 348
f 348 126 127
f 349 348 127
f 127 128 349
f 341 349 128
f 128 117 341
f 350 351 129
f 129 130 350
f 352 350 130
f 130 131 352
f 353 352 131
f 131 132 353
f 354 353 132
f 132 133 354
f 355 354 133
f 133 134 355
f 356 355 134
f 134 135 356
f 357 356 135
f 135 136 357
f 357 136 137
f 358 357 137
f 137 138 358
f 358 138 139
f 359 358 139
f 139 140 359
f 351 359 140
f 140 129 351
f 360 361 141
f 141 142 360
f 362 360 142
f 142 143 362
f 363 362 143
f 143 144 363
f 364 363 144
f 144 145 364
f 365 364 145
f 145 146 365
f 366 365 146
f 146 147 366
f 367 366 147
f 147 148 367
f 368 367 148
f 148 149 368
f 368 149 150
f 369 368 150
f 150 151 369
f 369 151 152
f 152 141 361
f 361 369 152
f 370 154 153
f 371 370 153
f 153 155 371
f 371 155 156
f 372 371 156
f 156 157 372
f 373 372 157
f 157 158 373
f 374 373 158
f 158 159 374
f 375 374 159
f 159 160 375
f 376 375 160
f 160 161 376
f 377 376 161
f 161 162 377
f 378 377 162
f 162 163 378
f 379 378 163
f 163 164 379
f 370 379 164
f 164 154 370
f 380 166 165
f 381 380 165
f 165 167 381
f 381 167 168
f 382 381 168
f 168 169 382
f 383 382 169
f 169 170 383
f 384 383 170
f 170 171 384
f 385 384 171
f 171 172 385
f 386 385 172
f 172 173 386
f 387 386 173
f 173 174 387
f 388 387 174
f 174 175 388
f 389 388 175
f 175 176 389
f 380 389 176
f 176 166 380
f 390 391 177
f 177 178 390
f 392 390 178
f 178 179 392
f 393 392 179
f 179 180 393
f 391 393 180
f 180 177 391
f 394 395 181
f 181 182 394
f 396 394 182
f 182 183 396
f 397 396 183
f 183 184 397
f 395 397 184
f 184 181 395
f 398 399 185
f 185 186 398
f 400 398 186
f 186 187 400
f 401 400 187
f 187 188 401
f 399 401 188
f 188 185 399
f 402 403 189
f 189 190 402
f 404 402 190
f 190 191 404
f 405 404 191
f 191 192 405
f 403 405 192
f 192 189 403
f 406 407 193
f 193 195 406
f 408 406 195
f 195 196 408
f 409 408 196
f 196 198 409
f 407 409 198
f 198 193 407
f 410 411 199
f 199 200 410
f 412 410 200
f 200 201 412
f 413 412 201
f 201 202 413
f 411 413 202
f 202 199 411
f 414 415 203
f 203 204 414
f 416 414 204
f 204 205 416
f 417 416 205
f 205 206 417
f 415 417 206
f 206 203 415
f 418 419 207
f 207 208 418
f 420 418 208
f 208 209 420
f 421 420 209
f 209 210 421
f 419 421 210
f 210 207 419
f 336 337 348
f 348 349 336
f 338 339 329
f 329 320 338
f 321 322 319
f 319 310 321
f 311 312 389
f 389 380 311
f 381 382 379
f 379 370 381
f 371 372 367
f 367 368 371
f 356 357 369
f 369 361 356
f 346 347 358
f 358 359 346
f 346 359 288
f 288 292 346
f 291 292 288
f 288 289 291
f 289 290 291
f 298 299 301
f 301 302 298
f 336 349 298
f 298 302 336
f 299 300 301
f 230 232 308
f 308 309 230
f 329 339 308
f 308 232 329
f 309 231 230
f 238 239 241
f 241 242 238
f 319 322 238
f 238 242 319
f 248 249 251
f 251 252 248
f 389 312 248
f 248 252 389
f 258 259 261
f 261 262 258
f 379 382 258
f 258 262 379
f 268 269 271
f 271 272 268
f 367 372 268
f 268 272 367
f 281 282 278
f 278 279 281
f 356 361 278
f 278 282 356
f 358 347 396
f 396 398 358
f 348 337 392
f 392 394 348
f 338 320 421
f 421 390 338
f 321 310 417
f 417 420 321
f 311 380 413
f 413 416 311
f 381 370 409
f 409 412 381
f 371 368 404
f 404 408 371
f 369 357 400
f 400 402 369
f 390 392 337
f 337 338 390
f 420 421 320
f 320 321 420
f 416 417 310
f 310 311 416
f 412 413 380
f 380 381 412
f 408 409 370
f 370 371 408
f 402 404 368
f 368 369 402
f 398 400 357
f 357 358 398
f 394 396 347
f 347 348 394
f 394 392 393
f 393 395 394
f 390 421 419
f 419 391 390
f 420 417 415
f 415 418 420
f 416 413 411
f 411 414 416
f 412 409 407
f 407 410 412
f 408 404 405
f 405 406 408
f 402 400 401
f 401 403 402
f 398 396 397
f 397 399 398
f 422 423 211
f 211 214 422
f 424 425 215
f 215 216 424
f 426 427 217
f 217 218 426
f 428 429 219
f 219 220 428
f 430 431 221
f 221 223 430
f 432 433 224
f 224 225 432
f 215 425 422
f 422 214 215
f 434 435 226
f 226 227 434
f 436 437 228
f 228 229 436
f 211 423 430
f 430 223 211
f 221 431 432
f 432 225 221
f 226 435 424
f 424 216 226
f 224 433 428
f 428 220 224
f 219 429 436
f 436 229 219
f 228 437 426
f 426 218 228
f 217 427 434
f 434 227 217
f 306 307 308
f 306 308 339
f 306 339 331
f 306 331 330
f 306 330 332
f 306 332 333
f 306 333 334
f 306 334 335
f 306 335 336
f 306 336 302
f 306 302 303
f 306 303 304
f 304 305 306
f 329 232 233
f 329 233 234
f 329 234 235
f 329 235 236
f 329 236 237
f 237 238 322
f 237 322 323
f 237 323 324
f 237 324 325
f 237 325 326
f 237 326 327
f 237 327 328
f 237 328 329
f 296 297 298
f 296 298 349
f 296 349 341
f 296 341 340
f 296 340 342
f 296 342 343
f 296 343 344
f 296 344 345
f 296 345 346
f 296 346 292
f 296 292 293
f 296 293 294
f 294 295 296
f 286 287 288
f 286 288 359
f 286 359 351
f 286 351 350
f 286 350 352
f 286 352 353
f 286 353 354
f 286 354 355
f 286 355 356
f 286 356 282
f 286 282 283
f 286 283 284
f 284 285 286
f 276 277 278
f 276 278 361
f 276 361 360
f 276 360 362
f 276 362 363
f 276 363 364
f 276 364 365
f 276 365 366
f 276 366 367
f 276 367 272
f 276 272 273
f 276 273 274
f 274 275 276
f 266 267 268
f 266 268 372
f 266 372 373
f 266 373 374
f 266 374 375
f 266 375 376
f 266 376 377
f 266 377 378
f 266 378 379
f 266 379 262
f 266 262 263
f 266 263 264
f 264 265 266
f 256 257 258
f 256 258 382
f 256 382 383
f 256 383 384
f 256 384 385
f 256 385 386
f 256 386 387
f 256 387 388
f 256 388 389
f 256 389 252
f 256 252 253
f 256 253 254
f 254 255 256
f 246 247 248
f 246 248 312
f 246 312 313
f 246 313 314
f 246 314 315
f 246 315 316
f 246 316 317
f 246 317 318
f 246 318 319
f 246 319 242
f 246 242 243
f 246 243 244
f 244 245 246
f 239 240 241
f 249 250 251
f 269 270 271
f 259 260 261
f 279 280 281
f 16 15 467 469
f 81 82 600 599
f 93 94 622 621
f 165 166 754 753
f 43 42 521 523
f 169 168 757 759
f 193 194 807 806
f 12 11 459 461
f 1 80 597 438
f 189 192 805 798
f 90 89 613 615
f 213 212 837 838
f 162 161 745 747
f 78 77 591 593
f 39 38 513 515
f 164 163 749 751
f 190 189 798 801
f 8 7 451 453
f 158 157 737 739
f 74 73 583 585
f 35 34 505 507
f 212 222 854 837
f 160 159 741 743
f 86 85 605 607
f 4 3 443 445
f 185 188 797 790
f 148 147 721 723
f 70 69 575 577
f 31 30 497 499
f 186 185 790 793
f 77 76 589 591
f 144 143 713 715
f 422 391 419
f 419 423 422
f 424 395 393
f 393 425 424
f 426 403 401
f 401 427 426
f 428 410 407
f 407 429 428
f 430 418 415
f 415 431 430
f 432 414 411
f 411 433 432
f 425 393 391
f 391 422 425
f 434 399 397
f 397 435 434
f 436 406 405
f 405 437 436
f 423 419 418
f 418 430 423
f 431 415 414
f 414 432 431
f 435 397 395
f 395 424 435
f 433 411 410
f 410 428 433
f 429 407 406
f 406 436 429
f 437 405 403
f 403 426 437
f 427 401 399
f 399 434 427
f 438 439 440
f 440 441 438
f 441 440 442
f 442 443 441
f 443 442 444
f 444 445 443
f 445 444 446
f 446 447 445
f 447 446 448
f 448 449 447
f 449 448 450
f 450 451 449
f 451 450 452
f 452 453 451
f 453 452 454
f 454 455 453
f 455 454 456
f 456 457 455
f 457 456 458
f 458 459 457
f 459 458 460
f 460 461 459
f 461 460 462
f 462 463 461
f 463 462 464
f 464 465 463
f 465 464 466
f 466 467 465
f 467 466 468
f 468 469 467
f 469 468 470
f 470 471 469
f 471 470 472
f 472 473 471
f 473 472 474
f 474 475 473
f 475 474 476
f 476 477 475
f 477 476 478
f 478 479 477
f 479 478 480
f 480 481 479
f 481 480 482
f 482 483 481
f 483 482 484
f 484 485 483
f 485 484 486
f 486 487 485
f 487 486 488
f 488 489 487
f 489 488 490
f 490 491 489
f 491 490 492
f 492 493 491
f 493 492 494
f 494 495 493
f 495 494 496
f 496 497 495
f 497 496 498
f 498 499 497
f 499 498 500
f 500 501 499
f 501 500 502
f 502 503 501
f 503 502 504
f 504 505 503
f 505 504 506
f 506 507 505
f 507 506 508
f 508 509 507
f 509 508 510
f 510 511 509
f 511 510 512
f 512 513 511
f 513 512 514
f 514 515 513
f 515 514 516
f 516 517 515
f 517 516 518
f 518 519 517
f 519 518 520
f 520 521 519
f 521 520 522
f 522 523 521
f 523 522 524
f 524 525 523
f 525 524 526
f 526 527 525
f 527 526 528
f 528 529 527
f 529 528 530
f 530 531 529
f 531 530 532
f 532 533 531
f 533 532 534
f 534 535 533
f 535 534 536
f 536 537 535
f 537 536 538
f 538 539 537
f 539 538 540
f 540 541 539
f 541 540 542
f 542 543 541
f 543 542 544
f 544 545 543
f 545 544 546
f 546 547 545
f 547 546 548
f 548 549 547
f 549 548 550
f 550 551 549
f 551 550 552
f 552 553 551
f 553 552 554
f 554 555 553
f 555 554 556
f 556 557 555
f 557 556 558
f 558 559 557
f 559 558 560
f 560 561 559
f 561 560 562
f 562 563 561
f 563 562 564
f 564 565 563
f 565 564 566
f 566 567 565
f 567 566 568
f 568 569 567
f 569 568 570
f 570 571 569
f 571 570 572
f 572 573 571
f 573 572 574
f 574 575 573
f 575 574 576
f 576 577 575
f 577 576 578
f 578 579 577
f 579 578 580
f 580 581 579
f 581 580 582
f 582 583 581
f 583 582 584
f 584 585 583
f 585 584 586
f 586 587 585
f 587 586 588
f 588 589 587
f 589 588 590
f 590 591 589
f 591 590 592
f 592 593 591
f 593 592 594
f 594 595 593
f 595 594 596
f 596 597 595
f 597 596 439
f 439 438 597
f 598 599 600
f 599 598 601
f 601 602 599
f 601 603 602
f 603 601 604
f 604 605 603
f 605 604 606
f 606 607 605
f 607 606 608
f 608 609 607
f 609 608 610
f 610 611 609
f 611 610 612
f 612 613 611
f 613 612 614
f 614 615 613
f 615 614 616
f 616 617 615
f 617 616 618
f 618 619 617
f 619 618 598
f 598 600 619
f 620 621 622
f 621 620 623
f 623 624 621
f 623 625 624
f 625 623 626
f 626 627 625
f 627 626 628
f 628 629 627
f 629 628 630
f 630 631 629
f 631 630 632
f 632 633 631
f 633 632 634
f 634 635 633
f 635 634 636
f 636 637 635
f 637 636 638
f 638 639 637
f 639 638 640
f 640 641 639
f 641 640 620
f 620 622 641
f 642 643 644
f 644 645 642
f 645 644 646
f 646 647 645
f 647 646 648
f 648 649 647
f 649 648 650
f 650 651 649
f 651 650 652
f 652 653 651
f 653 652 654
f 654 655 653
f 655 654 656
f 656 657 655
f 656 658 657
f 658 656 659
f 659 660 658
f 659 661 660
f 661 659 662
f 662 663 661
f 663 662 643
f 643 642 663
f 664 665 666
f 666 667 664
f 667 666 668
f 668 669 667
f 669 668 670
f 670 671 669
f 671 670 672
f 672 673 671
f 673 672 674
f 674 675 673
f 675 674 676
f 676 677 675
f 677 676 678
f 678 679 677
f 678 680 679
f 680 678 681
f 681 682 680
f 681 683 682
f 683 681 684
f 684 685 683
f 685 684 665
f 665 664 685
f 686 687 688
f 688 689 686
f 689 688 690
f 690 691 689
f 691 690 692
f 692 693 691
f 693 692 694
f 694 695 693
f 695 694 696
f 696 697 695
f 697 696 698
f 698 699 697
f 699 698 700
f 700 701 699
f 700 702 701
f 702 700 703
f 703 704 702
f 703 705 704
f 705 703 706
f 706 707 705
f 707 706 687
f 687 686 707
f 708 709 710
f 710 711 708
f 711 710 712
f 712 713 711
f 713 712 714
f 714 715 713
f 715 714 716
f 716 717 715
f 717 716 718
f 718 719 717
f 719 718 720
f 720 721 719
f 721 720 722
f 722 723 721
f 723 722 724
f 724 725 723
f 724 726 725
f 726 724 727
f 727 728 726
f 727 729 728
f 709 708 729
f 729 727 709
f 730 731 732
f 731 730 733
f 733 734 731
f 733 735 734
f 735 733 736
f 736 737 735
f 737 736 738
f 738 739 737
f 739 738 740
f 740 741 739
f 741 740 742
f 742 743 741
f 743 742 744
f 744 745 743
f 745 744 746
f 746 747 745
f 747 746 748
f 748 749 747
f 749 748 750
f 750 751 749
f 751 750 730
f 730 732 751
f 752 753 754
f 753 752 755
f 755 756 753
f 755 757 756
f 757 755 758
f 758 759 757
f 759 758 760
f 760 761 759
f 761 760 762
f 762 763 761
f 763 762 764
f 764 765 763
f 765 764 766
f 766 767 765
f 767 766 768
f 768 769 767
f 769 768 770
f 770 771 769
f 771 770 772
f 772 773 771
f 773 772 752
f 752 754 773
f 774 775 776
f 776 777 774
f 777 776 778
f 778 779 777
f 779 778 780
f 780 781 779
f 781 780 775
f 775 774 781
f 782 783 784
f 784 785 782
f 785 784 786
f 786 787 785
f 787 786 788
f 788 789 787
f 789 788 783
f 783 782 789
f 790 791 792
f 792 793 790
f 793 792 794
f 794 795 793
f 795 794 796
f 796 797 795
f 797 796 791
f 791 790 797
f 798 799 800
f 800 801 798
f 801 800 802
f 802 803 801
f 803 802 804
f 804 805 803
f 805 804 799
f 799 798 805
f 806 807 808
f 808 809 806
f 809 808 810
f 810 811 809
f 811 810 812
f 813 814 815
f 815 816 813
f 816 815 817
f 817 818 816
f 818 817 819
f 819 820 818
f 820 819 814
f 814 813 820
f 821 822 823
f 823 824 821
f 824 823 825
f 825 826 824
f 826 825 827
f 827 828 826
f 828 827 822
f 822 821 828
f 829 830 831
f 831 832 829
f 832 831 833
f 833 834 832
f 834 833 835
f 835 836 834
f 836 835 830
f 830 829 836
f 681 656 654
f 654 684 681
f 640 662 659
f 659 620 640
f 618 626 623
f 623 598 618
f 772 604 601
f 601 752 772
f 750 758 755
f 755 730 750
f 722 736 733
f 733 724 722
f 727 700 698
f 698 709 727
f 703 678 676
f 676 706 703
f 554 706 676
f 676 562 554
f 554 562 560
f 560 556 554
f 556 560 558
f 580 576 574
f 574 582 580
f 574 684 654
f 654 582 574
f 576 580 578
f 594 442 440
f 440 596 594
f 594 662 640
f 640 442 594
f 596 440 439
f 460 456 454
f 454 462 460
f 454 626 618
f 618 462 454
f 480 476 474
f 474 482 480
f 474 604 772
f 772 482 474
f 500 496 494
f 494 502 500
f 494 758 750
f 750 502 494
f 520 516 514
f 514 522 520
f 514 736 722
f 722 522 514
f 534 542 540
f 540 536 534
f 534 709 698
f 698 542 534
f 786 678 703
f 703 792 786
f 778 656 681
f 681 784 778
f 835 620 659
f 659 776 835
f 827 598 623
f 623 833 827
f 819 752 601
f 601 825 819
f 812 730 755
f 755 817 812
f 802 724 733
f 733 810 802
f 794 700 727
f 727 800 794
f 656 778 776
f 776 659 656
f 620 835 833
f 833 623 620
f 598 827 825
f 825 601 598
f 752 819 817
f 817 755 752
f 730 812 810
f 810 733 730
f 724 802 800
f 800 727 724
f 700 794 792
f 792 703 700
f 678 786 784
f 784 681 678
f 780 778 784
f 784 783 780
f 830 835 776
f 776 775 830
f 822 827 833
f 833 831 822
f 814 819 825
f 825 823 814
f 807 812 817
f 817 815 807
f 804 802 810
f 810 808 804
f 796 794 800
f 800 799 796
f 788 786 792
f 792 791 788
f 840 841 842
f 842 843 840
f 844 845 846
f 846 847 844
f 848 849 850
f 850 851 848
f 852 853 854
f 854 855 852
f 856 857 858
f 858 859 856
f 838 841 840
f 840 839 838
f 860 861 862
f 862 863 860
f 864 865 866
f 866 867 864
f 858 853 852
f 852 859 858
f 842 861 860
f 860 843 842
f 850 857 856
f 856 851 850
f 866 849 848
f 848 867 866
f 846 865 864
f 864 847 846
f 862 845 844
f 844 863 862
f 594 592 590
f 594 590 588
f 594 588 586
f 594 586 584
f 594 584 582
f 582 654 652
f 582 652 650
f 582 650 648
f 582 648 646
f 582 646 644
f 582 644 643
f 643 662 594
f 582 643 594
f 444 442 640
f 444 640 638
f 444 638 636
f 444 636 634
f 444 634 632
f 444 632 630
f 444 630 628
f 444 628 626
f 444 626 454
f 444 454 452
f 444 452 450
f 444 450 448
f 448 446 444
f 574 572 570
f 574 570 568
f 574 568 566
f 574 566 564
f 574 564 562
f 562 676 674
f 562 674 672
f 562 672 670
f 562 670 668
f 562 668 666
f 562 666 665
f 665 684 574
f 562 665 574
f 554 552 550
f 554 550 548
f 554 548 546
f 554 546 544
f 554 544 542
f 542 698 696
f 542 696 694
f 542 694 692
f 542 692 690
f 542 690 688
f 542 688 687
f 687 706 554
f 542 687 554
f 534 532 530
f 534 530 528
f 534 528 526
f 534 526 524
f 534 524 522
f 522 722 720
f 522 720 718
f 522 718 716
f 522 716 714
f 522 714 712
f 522 712 710
f 710 709 534
f 522 710 534
f 514 512 510
f 514 510 508
f 514 508 506
f 514 506 504
f 514 504 502
f 502 750 748
f 502 748 746
f 502 746 744
f 502 744 742
f 502 742 740
f 502 740 738
f 738 736 514
f 502 738 514
f 494 492 490
f 494 490 488
f 494 488 486
f 494 486 484
f 494 484 482
f 482 772 770
f 482 770 768
f 482 768 766
f 482 766 764
f 482 764 762
f 482 762 760
f 760 758 494
f 482 760 494
f 474 472 470
f 474 470 468
f 474 468 466
f 474 466 464
f 474 464 462
f 462 618 616
f 462 616 614
f 462 614 612
f 462 612 610
f 462 610 608
f 462 608 606
f 606 604 474
f 462 606 474
f 456 460 458
f 476 480 478
f 516 520 518
f 496 500 498
f 536 540 538
f 837 830 775
f 775 838 837
f 841 780 783
f 783 842 841
f 845 796 799
f 799 846 845
f 849 807 815
f 815 850 849
f 853 822 831
f 831 854 853
f 857 814 823
f 823 858 857
f 838 775 780
f 780 841 838
f 861 788 791
f 791 862 861
f 865 804 808
f 808 866 865
f 854 831 830
f 830 837 854
f 858 823 822
f 822 853 858
f 842 783 788
f 788 861 842
f 850 815 814
f 814 857 850
f 866 808 807
f 807 849 866
f 846 799 804
f 804 865 846
f 862 791 796
f 796 845 862
