v 1.82212 1.77636e-15 -0.44125
v -3.55271e-15 -1.82216 -0.44125
v -1.82216 1.77636e-15 -0.44125
v -3.55271e-15 1.82216 -0.44125
v 1.82212 1.77636e-15 0.44125
v -3.55271e-15 -1.82216 0.44125
v -1.82216 1.77636e-15 0.44125
v -3.55271e-15 1.82216 0.44125
v 0.911061 -0.911078 0
v -0.911078 -0.911078 0
v -0.911078 0.911078 0
v 0.911061 0.911078 0
v 2.22152 1.77636e-15 -0.44125
v -3.55271e-15 2.22152 -0.44125
v -2.22152 1.77636e-15 -0.44125
v -3.55271e-15 -2.22152 -0.44125
v 2.22152 1.77636e-15 0.44125
v -3.55271e-15 2.22152 0.44125
v -2.22152 1.77636e-15 0.44125
v -3.55271e-15 -2.22152 0.44125
v 1.11076 1.11076 0
v -1.11076 1.11076 0
v -1.11076 -1.11076 0
v 1.11076 -1.11076 0
f 20 6 19
f 6 20 17
f 19 7 18
f 7 19 6
f 5 17 8
f 17 5 6
f 8 18 7
f 18 8 17
f 2 16 15
f 16 2 13
f 3 15 14
f 15 3 2
f 13 1 4
f 1 13 2
f 14 4 3
f 4 14 13
f 9 1 2
f 9 2 6
f 9 6 5
f 9 5 1
f 10 2 3
f 10 3 7
f 10 7 6
f 10 6 2
f 11 3 4
f 11 4 8
f 11 8 7
f 11 7 3
f 12 4 1
f 12 1 5
f 12 5 8
f 12 8 4
f 21 13 14
f 21 14 18
f 21 18 17
f 21 17 13
f 22 14 15
f 22 15 19
f 22 19 18
f 22 18 14
f 23 15 16
f 23 16 20
f 23 20 19
f 23 19 15
f 24 16 13
f 24 13 17
f 24 17 20
f 24 20 16
