g groupNumber_0
v 1.0250 -0.1057 -0.2502
v 1.0250 -0.1041 -0.2502
v 1.0240 -0.0878 -0.2502
v 1.0222 -0.0716 -0.2502
v 1.0196 -0.0553 -0.2502
v 1.0161 -0.0392 -0.2502
v 1.0117 -0.0233 -0.2502
v 1.0065 -0.0076 -0.2502
v 1.0004 0.0077 -0.2502
v 0.9934 0.0227 -0.2502
v 0.9856 0.0372 -0.2502
v 0.9769 0.0512 -0.2502
v 0.9673 0.0646 -0.2502
v 0.9569 0.0773 -0.2502
v 0.9455 0.0893 -0.2502
v 0.9334 0.1004 -0.2502
v 0.9203 0.1108 -0.2502
v 0.9063 0.1201 -0.2502
v 0.8915 0.1285 -0.2502
v 0.8764 0.1358 -0.2502
v 0.8610 0.1418 -0.2502
v 0.8454 0.1467 -0.2502
v 0.8296 0.1505 -0.2502
v 0.8137 0.1532 -0.2502
v 0.7977 0.1548 -0.2502
v 0.7816 0.1553 -0.2502
v 0.7679 0.1549 -0.2502
v 0.7542 0.1538 -0.2502
v 0.7406 0.1519 -0.2502
v 0.7270 0.1493 -0.2502
v 0.7135 0.1461 -0.2502
v 0.7002 0.1421 -0.2502
v 0.6871 0.1374 -0.2502
v 0.6741 0.1321 -0.2502
v 0.6614 0.1262 -0.2502
v 0.6489 0.1196 -0.2502
v 0.6367 0.1123 -0.2502
v 0.6248 0.1045 -0.2502
v 0.6133 0.0961 -0.2502
v 0.6021 0.0871 -0.2502
v 0.5913 0.0775 -0.2502
v 0.5809 0.0674 -0.2502
v 0.5768 0.0810 -0.2502
v 0.5742 0.0940 -0.2502
v 0.5728 0.1065 -0.2502
v 0.5725 0.1187 -0.2502
v 0.5730 0.1341 -0.2502
v 0.5741 0.1492 -0.2502
v 0.5752 0.1642 -0.2502
v 0.5757 0.1793 -0.2502
v 0.5742 0.3848 -0.2502
v 0.5732 0.4964 -0.2502
v 0.5714 0.8130 -0.2502
v 0.5710 0.8263 -0.2502
v 0.5697 0.8393 -0.2502
v 0.5676 0.8522 -0.2502
v 0.5648 0.8648 -0.2502
v 0.5612 0.8771 -0.2502
v 0.5568 0.8890 -0.2502
v 0.5517 0.9006 -0.2502
v 0.5459 0.9119 -0.2502
v 0.5393 0.9227 -0.2502
v 0.5320 0.9330 -0.2502
v 0.5240 0.9428 -0.2502
v 0.5154 0.9521 -0.2502
v 0.5060 0.9608 -0.2502
v 0.4960 0.9689 -0.2502
v 0.4853 0.9763 -0.2502
v 0.4740 0.9831 -0.2502
v 0.4656 0.9870 -0.2502
v 0.4564 0.9903 -0.2502
v 0.4468 0.9928 -0.2502
v 0.4369 0.9948 -0.2502
v 0.4268 0.9963 -0.2502
v 0.4168 0.9974 -0.2502
v 0.4071 0.9982 -0.2502
v 0.3979 0.9988 -0.2502
v 0.3855 0.9991 -0.2502
v 0.3717 0.9986 -0.2502
v 0.3585 0.9973 -0.2502
v 0.3457 0.9950 -0.2502
v 0.3334 0.9919 -0.2502
v 0.3216 0.9879 -0.2502
v 0.3102 0.9831 -0.2502
v 0.2992 0.9774 -0.2502
v 0.2887 0.9710 -0.2502
v 0.2785 0.9637 -0.2502
v 0.2686 0.9557 -0.2502
v 0.2591 0.9469 -0.2502
v 0.2499 0.9374 -0.2502
v 0.2410 0.9272 -0.2502
v 0.2324 0.9162 -0.2502
v 0.2240 0.9046 -0.2502
v 0.2159 0.8923 -0.2502
v 0.2137 0.9151 -0.2502
v 0.2123 0.9370 -0.2502
v 0.2116 0.9580 -0.2502
v 0.2114 0.9785 -0.2502
v 0.2118 1.0142 -0.2502
v 0.2121 1.0495 -0.2502
v 0.2119 1.0710 -0.2502
v 0.2109 1.1183 -0.2502
v 0.2097 1.1373 -0.2502
v 0.2069 1.1562 -0.2502
v 0.2025 1.1748 -0.2502
v 0.1965 1.1928 -0.2502
v 0.1888 1.2102 -0.2502
v 0.1796 1.2268 -0.2502
v 0.1686 1.2425 -0.2502
v 0.1560 1.2570 -0.2502
v 0.1483 1.2646 -0.2502
v 0.1404 1.2717 -0.2502
v 0.1322 1.2783 -0.2502
v 0.1239 1.2845 -0.2502
v 0.1153 1.2902 -0.2502
v 0.1066 1.2954 -0.2502
v 0.0976 1.3001 -0.2502
v 0.0885 1.3044 -0.2502
v 0.0793 1.3081 -0.2502
v 0.0698 1.3114 -0.2502
v 0.0603 1.3142 -0.2502
v 0.0506 1.3165 -0.2502
v 0.0407 1.3183 -0.2502
v 0.0308 1.3195 -0.2502
v 0.0207 1.3203 -0.2502
v 0.0105 1.3206 -0.2502
v -0.0068 1.3198 -0.2502
v -0.0244 1.3176 -0.2502
v -0.0422 1.3139 -0.2502
v -0.0601 1.3088 -0.2502
v -0.0718 1.3044 -0.2502
v -0.0832 1.2992 -0.2502
v -0.0944 1.2931 -0.2502
v -0.1053 1.2861 -0.2502
v -0.1158 1.2784 -0.2502
v -0.1259 1.2700 -0.2502
v -0.1355 1.2608 -0.2502
v -0.1446 1.2509 -0.2502
v -0.1531 1.2403 -0.2502
v -0.1609 1.2291 -0.2502
v -0.1681 1.2173 -0.2502
v -0.1745 1.2050 -0.2502
v -0.1801 1.1921 -0.2502
v -0.1849 1.1787 -0.2502
v -0.1887 1.1649 -0.2502
v -0.1917 1.1506 -0.2502
v -0.1936 1.1372 -0.2502
v -0.1952 1.1232 -0.2502
v -0.1963 1.1087 -0.2502
v -0.1972 1.0940 -0.2502
v -0.1978 1.0791 -0.2502
v -0.1981 1.0641 -0.2502
v -0.1983 1.0492 -0.2502
v -0.1983 1.0345 -0.2502
v -0.1983 1.0120 -0.2502
v -0.1982 0.9909 -0.2502
v -0.1982 0.9836 -0.2502
v -0.1983 0.9765 -0.2502
v -0.1984 0.9698 -0.2502
v -0.1985 0.9634 -0.2502
v -0.1987 0.9573 -0.2502
v -0.1990 0.9517 -0.2502
v -0.1994 0.9464 -0.2502
v -0.1999 0.9416 -0.2502
v -0.2005 0.9373 -0.2502
v -0.2012 0.9335 -0.2502
v -0.2020 0.9301 -0.2502
v -0.2029 0.9274 -0.2502
v -0.2040 0.9252 -0.2502
v -0.2053 0.9235 -0.2502
v -0.2083 0.9222 -0.2502
v -0.2134 0.9236 -0.2502
v -0.2176 0.9260 -0.2502
v -0.2219 0.9293 -0.2502
v -0.2263 0.9334 -0.2502
v -0.2310 0.9381 -0.2502
v -0.2359 0.9434 -0.2502
v -0.2413 0.9491 -0.2502
v -0.2472 0.9550 -0.2502
v -0.2537 0.9611 -0.2502
v -0.2610 0.9672 -0.2502
v -0.2690 0.9732 -0.2502
v -0.2780 0.9789 -0.2502
v -0.2881 0.9842 -0.2502
v -0.2992 0.9891 -0.2502
v -0.3116 0.9932 -0.2502
v -0.3253 0.9966 -0.2502
v -0.3381 0.9989 -0.2502
v -0.3508 1.0007 -0.2502
v -0.3636 1.0017 -0.2502
v -0.3763 1.0021 -0.2502
v -0.3890 1.0017 -0.2502
v -0.4016 1.0005 -0.2502
v -0.4140 0.9984 -0.2502
v -0.4262 0.9954 -0.2502
v -0.4380 0.9914 -0.2502
v -0.4496 0.9863 -0.2502
v -0.4607 0.9802 -0.2502
v -0.4715 0.9729 -0.2502
v -0.4798 0.9664 -0.2502
v -0.4878 0.9595 -0.2502
v -0.4955 0.9524 -0.2502
v -0.5029 0.9448 -0.2502
v -0.5098 0.9370 -0.2502
v -0.5163 0.9289 -0.2502
v -0.5224 0.9205 -0.2502
v -0.5280 0.9117 -0.2502
v -0.5330 0.9027 -0.2502
v -0.5375 0.8934 -0.2502
v -0.5414 0.8838 -0.2502
v -0.5447 0.8739 -0.2502
v -0.5474 0.8637 -0.2502
v -0.5493 0.8533 -0.2502
v -0.5506 0.8426 -0.2502
v -0.5511 0.8317 -0.2502
v -0.5547 0.4790 -0.2502
v -0.5562 0.0603 -0.2502
v -0.5677 0.0702 -0.2502
v -0.5792 0.0797 -0.2502
v -0.5907 0.0887 -0.2502
v -0.6023 0.0973 -0.2502
v -0.6139 0.1053 -0.2502
v -0.6256 0.1129 -0.2502
v -0.6374 0.1199 -0.2502
v -0.6495 0.1264 -0.2502
v -0.6617 0.1323 -0.2502
v -0.6742 0.1376 -0.2502
v -0.6869 0.1424 -0.2502
v -0.6999 0.1465 -0.2502
v -0.7133 0.1500 -0.2502
v -0.7270 0.1529 -0.2502
v -0.7411 0.1550 -0.2502
v -0.7556 0.1565 -0.2502
v -0.7757 0.1573 -0.2502
v -0.7891 0.1570 -0.2502
v -0.8023 0.1559 -0.2502
v -0.8152 0.1542 -0.2502
v -0.8279 0.1517 -0.2502
v -0.8403 0.1487 -0.2502
v -0.8524 0.1450 -0.2502
v -0.8641 0.1407 -0.2502
v -0.8756 0.1358 -0.2502
v -0.8867 0.1303 -0.2502
v -0.8975 0.1243 -0.2502
v -0.9080 0.1177 -0.2502
v -0.9181 0.1107 -0.2502
v -0.9278 0.1031 -0.2502
v -0.9371 0.0951 -0.2502
v -0.9460 0.0866 -0.2502
v -0.9545 0.0777 -0.2502
v -0.9626 0.0683 -0.2502
v -0.9703 0.0586 -0.2502
v -0.9775 0.0485 -0.2502
v -0.9842 0.0380 -0.2502
v -0.9905 0.0272 -0.2502
v -0.9963 0.0161 -0.2502
v -1.0016 0.0046 -0.2502
v -1.0064 -0.0071 -0.2502
v -1.0106 -0.0190 -0.2502
v -1.0144 -0.0313 -0.2502
v -1.0176 -0.0437 -0.2502
v -1.0202 -0.0564 -0.2502
v -1.0223 -0.0692 -0.2502
v -1.0238 -0.0822 -0.2502
v -1.0247 -0.0953 -0.2502
v -1.0250 -0.1086 -0.2502
v -1.0250 -0.1121 -0.2502
v -1.0246 -0.1182 -0.2502
v -1.0235 -0.1237 -0.2502
v -1.0219 -0.1285 -0.2502
v -1.0197 -0.1327 -0.2502
v -1.0169 -0.1363 -0.2502
v -1.0136 -0.1394 -0.2502
v -1.0098 -0.1420 -0.2502
v -1.0056 -0.1442 -0.2502
v -1.0009 -0.1460 -0.2502
v -0.9958 -0.1475 -0.2502
v -0.9903 -0.1487 -0.2502
v -0.9844 -0.1497 -0.2502
v -0.9782 -0.1504 -0.2502
v -0.9716 -0.1510 -0.2502
v -0.9648 -0.1514 -0.2502
v -0.9577 -0.1518 -0.2502
v -0.9504 -0.1522 -0.2502
v -0.9429 -0.1526 -0.2502
v -0.9352 -0.1531 -0.2502
v -0.9274 -0.1537 -0.2502
v -0.9194 -0.1545 -0.2502
v -0.9113 -0.1555 -0.2502
v -0.9032 -0.1567 -0.2502
v -0.8950 -0.1582 -0.2502
v -0.8868 -0.1601 -0.2502
v -0.8786 -0.1623 -0.2502
v -0.8704 -0.1650 -0.2502
v -0.8623 -0.1682 -0.2502
v -0.8542 -0.1719 -0.2502
v -0.8463 -0.1762 -0.2502
v -0.8385 -0.1811 -0.2502
v -0.8309 -0.1866 -0.2502
v -0.7948 -0.2149 -0.2502
v -0.7851 -0.2243 -0.2502
v -0.7760 -0.2341 -0.2502
v -0.7674 -0.2442 -0.2502
v -0.7594 -0.2546 -0.2502
v -0.7518 -0.2654 -0.2502
v -0.7447 -0.2764 -0.2502
v -0.7381 -0.2877 -0.2502
v -0.7319 -0.2992 -0.2502
v -0.7261 -0.3110 -0.2502
v -0.7207 -0.3229 -0.2502
v -0.7156 -0.3351 -0.2502
v -0.7108 -0.3474 -0.2502
v -0.7063 -0.3599 -0.2502
v -0.7021 -0.3725 -0.2502
v -0.6982 -0.3852 -0.2502
v -0.6945 -0.3980 -0.2502
v -0.6877 -0.4242 -0.2502
v -0.6820 -0.4503 -0.2502
v -0.6773 -0.4765 -0.2502
v -0.6731 -0.5027 -0.2502
v -0.6692 -0.5291 -0.2502
v -0.6655 -0.5555 -0.2502
v -0.6616 -0.5821 -0.2502
v -0.6573 -0.6088 -0.2502
v -0.6302 -0.7682 -0.2502
v -0.6233 -0.7959 -0.2502
v -0.6156 -0.8233 -0.2502
v -0.6069 -0.8502 -0.2502
v -0.5973 -0.8768 -0.2502
v -0.5867 -0.9029 -0.2502
v -0.5752 -0.9285 -0.2502
v -0.5628 -0.9537 -0.2502
v -0.5495 -0.9783 -0.2502
v -0.5352 -1.0024 -0.2502
v -0.5200 -1.0259 -0.2502
v -0.5039 -1.0488 -0.2502
v -0.4868 -1.0711 -0.2502
v -0.4688 -1.0927 -0.2502
v -0.4499 -1.1136 -0.2502
v -0.4301 -1.1338 -0.2502
v -0.4093 -1.1532 -0.2502
v -0.3868 -1.1726 -0.2502
v -0.3636 -1.1909 -0.2502
v -0.3397 -1.2081 -0.2502
v -0.3152 -1.2241 -0.2502
v -0.2901 -1.2390 -0.2502
v -0.2645 -1.2528 -0.2502
v -0.2383 -1.2653 -0.2502
v -0.2116 -1.2767 -0.2502
v -0.1844 -1.2868 -0.2502
v -0.1567 -1.2956 -0.2502
v -0.1286 -1.3031 -0.2502
v -0.1002 -1.3093 -0.2502
v -0.0714 -1.3142 -0.2502
v -0.0422 -1.3177 -0.2502
v -0.0128 -1.3198 -0.2502
v 0.0170 -1.3206 -0.2502
v 0.0223 -1.3205 -0.2502
v 0.0388 -1.3199 -0.2502
v 0.0553 -1.3184 -0.2502
v 0.0718 -1.3160 -0.2502
v 0.0883 -1.3129 -0.2502
v 0.1050 -1.3091 -0.2502
v 0.1218 -1.3048 -0.2502
v 0.1388 -1.3000 -0.2502
v 0.1560 -1.2949 -0.2502
v 0.1787 -1.2875 -0.2502
v 0.2011 -1.2793 -0.2502
v 0.2230 -1.2705 -0.2502
v 0.2445 -1.2610 -0.2502
v 0.2656 -1.2508 -0.2502
v 0.2862 -1.2399 -0.2502
v 0.3063 -1.2284 -0.2502
v 0.3260 -1.2162 -0.2502
v 0.3452 -1.2034 -0.2502
v 0.3639 -1.1900 -0.2502
v 0.3821 -1.1760 -0.2502
v 0.3998 -1.1614 -0.2502
v 0.4170 -1.1463 -0.2502
v 0.4337 -1.1306 -0.2502
v 0.4498 -1.1144 -0.2502
v 0.4654 -1.0976 -0.2502
v 0.4804 -1.0804 -0.2502
v 0.4948 -1.0627 -0.2502
v 0.5087 -1.0445 -0.2502
v 0.5220 -1.0258 -0.2502
v 0.5347 -1.0067 -0.2502
v 0.5468 -0.9872 -0.2502
v 0.5582 -0.9672 -0.2502
v 0.5690 -0.9469 -0.2502
v 0.5792 -0.9261 -0.2502
v 0.5888 -0.9050 -0.2502
v 0.5977 -0.8836 -0.2502
v 0.6059 -0.8618 -0.2502
v 0.6135 -0.8397 -0.2502
v 0.6203 -0.8172 -0.2502
v 0.6265 -0.7945 -0.2502
v 0.6320 -0.7715 -0.2502
v 0.6717 -0.5065 -0.2502
v 0.6750 -0.4844 -0.2502
v 0.6783 -0.4624 -0.2502
v 0.6818 -0.4406 -0.2502
v 0.6859 -0.4189 -0.2502
v 0.6905 -0.3974 -0.2502
v 0.6960 -0.3762 -0.2502
v 0.7026 -0.3552 -0.2502
v 0.7105 -0.3343 -0.2502
v 0.7158 -0.3212 -0.2502
v 0.7213 -0.3079 -0.2502
v 0.7270 -0.2946 -0.2502
v 0.7331 -0.2816 -0.2502
v 0.7399 -0.2690 -0.2502
v 0.7473 -0.2571 -0.2502
v 0.7557 -0.2460 -0.2502
v 0.7652 -0.2359 -0.2502
v 0.8081 -0.1954 -0.2502
v 0.8157 -0.1888 -0.2502
v 0.8237 -0.1828 -0.2502
v 0.8320 -0.1774 -0.2502
v 0.8408 -0.1725 -0.2502
v 0.8498 -0.1682 -0.2502
v 0.8591 -0.1644 -0.2502
v 0.8687 -0.1611 -0.2502
v 0.8784 -0.1583 -0.2502
v 0.8883 -0.1559 -0.2502
v 0.8984 -0.1539 -0.2502
v 0.9085 -0.1522 -0.2502
v 0.9187 -0.1510 -0.2502
v 0.9289 -0.1500 -0.2502
v 0.9392 -0.1494 -0.2502
v 0.9493 -0.1491 -0.2502
v 0.9594 -0.1489 -0.2502
v 0.9762 -0.1492 -0.2502
v 0.9782 -0.1493 -0.2502
v 0.9829 -0.1491 -0.2502
v 0.9874 -0.1485 -0.2502
v 0.9918 -0.1476 -0.2502
v 0.9961 -0.1463 -0.2502
v 1.0002 -0.1446 -0.2502
v 1.0040 -0.1426 -0.2502
v 1.0077 -0.1403 -0.2502
v 1.0110 -0.1377 -0.2502
v 1.0141 -0.1347 -0.2502
v 1.0168 -0.1314 -0.2502
v 1.0192 -0.1278 -0.2502
v 1.0212 -0.1239 -0.2502
v 1.0228 -0.1198 -0.2502
v 1.0240 -0.1153 -0.2502
v 1.0247 -0.1106 -0.2502
v 1.0250 -0.1057 0.2502
v 1.0250 -0.1041 0.2502
v 1.0240 -0.0878 0.2502
v 1.0222 -0.0716 0.2502
v 1.0196 -0.0553 0.2502
v 1.0161 -0.0392 0.2502
v 1.0117 -0.0233 0.2502
v 1.0065 -0.0076 0.2502
v 1.0004 0.0077 0.2502
v 0.9934 0.0227 0.2502
v 0.9856 0.0372 0.2502
v 0.9769 0.0512 0.2502
v 0.9673 0.0646 0.2502
v 0.9569 0.0773 0.2502
v 0.9455 0.0893 0.2502
v 0.9334 0.1004 0.2502
v 0.9203 0.1108 0.2502
v 0.9063 0.1201 0.2502
v 0.8915 0.1285 0.2502
v 0.8764 0.1358 0.2502
v 0.8610 0.1418 0.2502
v 0.8454 0.1467 0.2502
v 0.8296 0.1505 0.2502
v 0.8137 0.1532 0.2502
v 0.7977 0.1548 0.2502
v 0.7816 0.1553 0.2502
v 0.7679 0.1549 0.2502
v 0.7542 0.1538 0.2502
v 0.7406 0.1519 0.2502
v 0.7270 0.1493 0.2502
v 0.7135 0.1461 0.2502
v 0.7002 0.1421 0.2502
v 0.6871 0.1374 0.2502
v 0.6741 0.1321 0.2502
v 0.6614 0.1262 0.2502
v 0.6489 0.1196 0.2502
v 0.6367 0.1123 0.2502
v 0.6248 0.1045 0.2502
v 0.6133 0.0961 0.2502
v 0.6021 0.0871 0.2502
v 0.5913 0.0775 0.2502
v 0.5809 0.0674 0.2502
v 0.5768 0.0810 0.2502
v 0.5742 0.0940 0.2502
v 0.5728 0.1065 0.2502
v 0.5725 0.1187 0.2502
v 0.5730 0.1341 0.2502
v 0.5741 0.1492 0.2502
v 0.5752 0.1642 0.2502
v 0.5757 0.1793 0.2502
v 0.5742 0.3848 0.2502
v 0.5732 0.4964 0.2502
v 0.5714 0.8130 0.2502
v 0.5710 0.8263 0.2502
v 0.5697 0.8393 0.2502
v 0.5676 0.8522 0.2502
v 0.5648 0.8648 0.2502
v 0.5612 0.8771 0.2502
v 0.5568 0.8890 0.2502
v 0.5517 0.9006 0.2502
v 0.5459 0.9119 0.2502
v 0.5393 0.9227 0.2502
v 0.5320 0.9330 0.2502
v 0.5240 0.9428 0.2502
v 0.5154 0.9521 0.2502
v 0.5060 0.9608 0.2502
v 0.4960 0.9689 0.2502
v 0.4853 0.9763 0.2502
v 0.4740 0.9831 0.2502
v 0.4656 0.9870 0.2502
v 0.4564 0.9903 0.2502
v 0.4468 0.9928 0.2502
v 0.4369 0.9948 0.2502
v 0.4268 0.9963 0.2502
v 0.4168 0.9974 0.2502
v 0.4071 0.9982 0.2502
v 0.3979 0.9988 0.2502
v 0.3855 0.9991 0.2502
v 0.3717 0.9986 0.2502
v 0.3585 0.9973 0.2502
v 0.3457 0.9950 0.2502
v 0.3334 0.9919 0.2502
v 0.3216 0.9879 0.2502
v 0.3102 0.9831 0.2502
v 0.2992 0.9774 0.2502
v 0.2887 0.9710 0.2502
v 0.2785 0.9637 0.2502
v 0.2686 0.9557 0.2502
v 0.2591 0.9469 0.2502
v 0.2499 0.9374 0.2502
v 0.2410 0.9272 0.2502
v 0.2324 0.9162 0.2502
v 0.2240 0.9046 0.2502
v 0.2159 0.8923 0.2502
v 0.2137 0.9151 0.2502
v 0.2123 0.9370 0.2502
v 0.2116 0.9580 0.2502
v 0.2114 0.9785 0.2502
v 0.2118 1.0142 0.2502
v 0.2121 1.0495 0.2502
v 0.2119 1.0710 0.2502
v 0.2109 1.1183 0.2502
v 0.2097 1.1373 0.2502
v 0.2069 1.1562 0.2502
v 0.2025 1.1748 0.2502
v 0.1965 1.1928 0.2502
v 0.1888 1.2102 0.2502
v 0.1796 1.2268 0.2502
v 0.1686 1.2425 0.2502
v 0.1560 1.2570 0.2502
v 0.1483 1.2646 0.2502
v 0.1404 1.2717 0.2502
v 0.1322 1.2783 0.2502
v 0.1239 1.2845 0.2502
v 0.1153 1.2902 0.2502
v 0.1066 1.2954 0.2502
v 0.0976 1.3001 0.2502
v 0.0885 1.3044 0.2502
v 0.0793 1.3081 0.2502
v 0.0698 1.3114 0.2502
v 0.0603 1.3142 0.2502
v 0.0506 1.3165 0.2502
v 0.0407 1.3183 0.2502
v 0.0308 1.3195 0.2502
v 0.0207 1.3203 0.2502
v 0.0105 1.3206 0.2502
v -0.0068 1.3198 0.2502
v -0.0244 1.3176 0.2502
v -0.0422 1.3139 0.2502
v -0.0601 1.3088 0.2502
v -0.0718 1.3044 0.2502
v -0.0832 1.2992 0.2502
v -0.0944 1.2931 0.2502
v -0.1053 1.2861 0.2502
v -0.1158 1.2784 0.2502
v -0.1259 1.2700 0.2502
v -0.1355 1.2608 0.2502
v -0.1446 1.2509 0.2502
v -0.1531 1.2403 0.2502
v -0.1609 1.2291 0.2502
v -0.1681 1.2173 0.2502
v -0.1745 1.2050 0.2502
v -0.1801 1.1921 0.2502
v -0.1849 1.1787 0.2502
v -0.1887 1.1649 0.2502
v -0.1917 1.1506 0.2502
v -0.1936 1.1372 0.2502
v -0.1952 1.1232 0.2502
v -0.1963 1.1087 0.2502
v -0.1972 1.0940 0.2502
v -0.1978 1.0791 0.2502
v -0.1981 1.0641 0.2502
v -0.1983 1.0492 0.2502
v -0.1983 1.0345 0.2502
v -0.1983 1.0120 0.2502
v -0.1982 0.9909 0.2502
v -0.1982 0.9836 0.2502
v -0.1983 0.9765 0.2502
v -0.1984 0.9698 0.2502
v -0.1985 0.9634 0.2502
v -0.1987 0.9573 0.2502
v -0.1990 0.9517 0.2502
v -0.1994 0.9464 0.2502
v -0.1999 0.9416 0.2502
v -0.2005 0.9373 0.2502
v -0.2012 0.9335 0.2502
v -0.2020 0.9301 0.2502
v -0.2029 0.9274 0.2502
v -0.2040 0.9252 0.2502
v -0.2053 0.9235 0.2502
v -0.2083 0.9222 0.2502
v -0.2134 0.9236 0.2502
v -0.2176 0.9260 0.2502
v -0.2219 0.9293 0.2502
v -0.2263 0.9334 0.2502
v -0.2310 0.9381 0.2502
v -0.2359 0.9434 0.2502
v -0.2413 0.9491 0.2502
v -0.2472 0.9550 0.2502
v -0.2537 0.9611 0.2502
v -0.2610 0.9672 0.2502
v -0.2690 0.9732 0.2502
v -0.2780 0.9789 0.2502
v -0.2881 0.9842 0.2502
v -0.2992 0.9891 0.2502
v -0.3116 0.9932 0.2502
v -0.3253 0.9966 0.2502
v -0.3381 0.9989 0.2502
v -0.3508 1.0007 0.2502
v -0.3636 1.0017 0.2502
v -0.3763 1.0021 0.2502
v -0.3890 1.0017 0.2502
v -0.4016 1.0005 0.2502
v -0.4140 0.9984 0.2502
v -0.4262 0.9954 0.2502
v -0.4380 0.9914 0.2502
v -0.4496 0.9863 0.2502
v -0.4607 0.9802 0.2502
v -0.4715 0.9729 0.2502
v -0.4798 0.9664 0.2502
v -0.4878 0.9595 0.2502
v -0.4955 0.9524 0.2502
v -0.5029 0.9448 0.2502
v -0.5098 0.9370 0.2502
v -0.5163 0.9289 0.2502
v -0.5224 0.9205 0.2502
v -0.5280 0.9117 0.2502
v -0.5330 0.9027 0.2502
v -0.5375 0.8934 0.2502
v -0.5414 0.8838 0.2502
v -0.5447 0.8739 0.2502
v -0.5474 0.8637 0.2502
v -0.5493 0.8533 0.2502
v -0.5506 0.8426 0.2502
v -0.5511 0.8317 0.2502
v -0.5547 0.4790 0.2502
v -0.5562 0.0603 0.2502
v -0.5677 0.0702 0.2502
v -0.5792 0.0797 0.2502
v -0.5907 0.0887 0.2502
v -0.6023 0.0973 0.2502
v -0.6139 0.1053 0.2502
v -0.6256 0.1129 0.2502
v -0.6374 0.1199 0.2502
v -0.6495 0.1264 0.2502
v -0.6617 0.1323 0.2502
v -0.6742 0.1376 0.2502
v -0.6869 0.1424 0.2502
v -0.6999 0.1465 0.2502
v -0.7133 0.1500 0.2502
v -0.7270 0.1529 0.2502
v -0.7411 0.1550 0.2502
v -0.7556 0.1565 0.2502
v -0.7757 0.1573 0.2502
v -0.7891 0.1570 0.2502
v -0.8023 0.1559 0.2502
v -0.8152 0.1542 0.2502
v -0.8279 0.1517 0.2502
v -0.8403 0.1487 0.2502
v -0.8524 0.1450 0.2502
v -0.8641 0.1407 0.2502
v -0.8756 0.1358 0.2502
v -0.8867 0.1303 0.2502
v -0.8975 0.1243 0.2502
v -0.9080 0.1177 0.2502
v -0.9181 0.1107 0.2502
v -0.9278 0.1031 0.2502
v -0.9371 0.0951 0.2502
v -0.9460 0.0866 0.2502
v -0.9545 0.0777 0.2502
v -0.9626 0.0683 0.2502
v -0.9703 0.0586 0.2502
v -0.9775 0.0485 0.2502
v -0.9842 0.0380 0.2502
v -0.9905 0.0272 0.2502
v -0.9963 0.0161 0.2502
v -1.0016 0.0046 0.2502
v -1.0064 -0.0071 0.2502
v -1.0106 -0.0190 0.2502
v -1.0144 -0.0313 0.2502
v -1.0176 -0.0437 0.2502
v -1.0202 -0.0564 0.2502
v -1.0223 -0.0692 0.2502
v -1.0238 -0.0822 0.2502
v -1.0247 -0.0953 0.2502
v -1.0250 -0.1086 0.2502
v -1.0250 -0.1121 0.2502
v -1.0246 -0.1182 0.2502
v -1.0235 -0.1237 0.2502
v -1.0219 -0.1285 0.2502
v -1.0197 -0.1327 0.2502
v -1.0169 -0.1363 0.2502
v -1.0136 -0.1394 0.2502
v -1.0098 -0.1420 0.2502
v -1.0056 -0.1442 0.2502
v -1.0009 -0.1460 0.2502
v -0.9958 -0.1475 0.2502
v -0.9903 -0.1487 0.2502
v -0.9844 -0.1497 0.2502
v -0.9782 -0.1504 0.2502
v -0.9716 -0.1510 0.2502
v -0.9648 -0.1514 0.2502
v -0.9577 -0.1518 0.2502
v -0.9504 -0.1522 0.2502
v -0.9429 -0.1526 0.2502
v -0.9352 -0.1531 0.2502
v -0.9274 -0.1537 0.2502
v -0.9194 -0.1545 0.2502
v -0.9113 -0.1555 0.2502
v -0.9032 -0.1567 0.2502
v -0.8950 -0.1582 0.2502
v -0.8868 -0.1601 0.2502
v -0.8786 -0.1623 0.2502
v -0.8704 -0.1650 0.2502
v -0.8623 -0.1682 0.2502
v -0.8542 -0.1719 0.2502
v -0.8463 -0.1762 0.2502
v -0.8385 -0.1811 0.2502
v -0.8309 -0.1866 0.2502
v -0.7948 -0.2149 0.2502
v -0.7851 -0.2243 0.2502
v -0.7760 -0.2341 0.2502
v -0.7674 -0.2442 0.2502
v -0.7594 -0.2546 0.2502
v -0.7518 -0.2654 0.2502
v -0.7447 -0.2764 0.2502
v -0.7381 -0.2877 0.2502
v -0.7319 -0.2992 0.2502
v -0.7261 -0.3110 0.2502
v -0.7207 -0.3229 0.2502
v -0.7156 -0.3351 0.2502
v -0.7108 -0.3474 0.2502
v -0.7063 -0.3599 0.2502
v -0.7021 -0.3725 0.2502
v -0.6982 -0.3852 0.2502
v -0.6945 -0.3980 0.2502
v -0.6877 -0.4242 0.2502
v -0.6820 -0.4503 0.2502
v -0.6773 -0.4765 0.2502
v -0.6731 -0.5027 0.2502
v -0.6692 -0.5291 0.2502
v -0.6655 -0.5555 0.2502
v -0.6616 -0.5821 0.2502
v -0.6573 -0.6088 0.2502
v -0.6302 -0.7682 0.2502
v -0.6233 -0.7959 0.2502
v -0.6156 -0.8233 0.2502
v -0.6069 -0.8502 0.2502
v -0.5973 -0.8768 0.2502
v -0.5867 -0.9029 0.2502
v -0.5752 -0.9285 0.2502
v -0.5628 -0.9537 0.2502
v -0.5495 -0.9783 0.2502
v -0.5352 -1.0024 0.2502
v -0.5200 -1.0259 0.2502
v -0.5039 -1.0488 0.2502
v -0.4868 -1.0711 0.2502
v -0.4688 -1.0927 0.2502
v -0.4499 -1.1136 0.2502
v -0.4301 -1.1338 0.2502
v -0.4093 -1.1532 0.2502
v -0.3868 -1.1726 0.2502
v -0.3636 -1.1909 0.2502
v -0.3397 -1.2081 0.2502
v -0.3152 -1.2241 0.2502
v -0.2901 -1.2390 0.2502
v -0.2645 -1.2528 0.2502
v -0.2383 -1.2653 0.2502
v -0.2116 -1.2767 0.2502
v -0.1844 -1.2868 0.2502
v -0.1567 -1.2956 0.2502
v -0.1286 -1.3031 0.2502
v -0.1002 -1.3093 0.2502
v -0.0714 -1.3142 0.2502
v -0.0422 -1.3177 0.2502
v -0.0128 -1.3198 0.2502
v 0.0170 -1.3206 0.2502
v 0.0223 -1.3205 0.2502
v 0.0388 -1.3199 0.2502
v 0.0553 -1.3184 0.2502
v 0.0718 -1.3160 0.2502
v 0.0883 -1.3129 0.2502
v 0.1050 -1.3091 0.2502
v 0.1218 -1.3048 0.2502
v 0.1388 -1.3000 0.2502
v 0.1560 -1.2949 0.2502
v 0.1787 -1.2875 0.2502
v 0.2011 -1.2793 0.2502
v 0.2230 -1.2705 0.2502
v 0.2445 -1.2610 0.2502
v 0.2656 -1.2508 0.2502
v 0.2862 -1.2399 0.2502
v 0.3063 -1.2284 0.2502
v 0.3260 -1.2162 0.2502
v 0.3452 -1.2034 0.2502
v 0.3639 -1.1900 0.2502
v 0.3821 -1.1760 0.2502
v 0.3998 -1.1614 0.2502
v 0.4170 -1.1463 0.2502
v 0.4337 -1.1306 0.2502
v 0.4498 -1.1144 0.2502
v 0.4654 -1.0976 0.2502
v 0.4804 -1.0804 0.2502
v 0.4948 -1.0627 0.2502
v 0.5087 -1.0445 0.2502
v 0.5220 -1.0258 0.2502
v 0.5347 -1.0067 0.2502
v 0.5468 -0.9872 0.2502
v 0.5582 -0.9672 0.2502
v 0.5690 -0.9469 0.2502
v 0.5792 -0.9261 0.2502
v 0.5888 -0.9050 0.2502
v 0.5977 -0.8836 0.2502
v 0.6059 -0.8618 0.2502
v 0.6135 -0.8397 0.2502
v 0.6203 -0.8172 0.2502
v 0.6265 -0.7945 0.2502
v 0.6320 -0.7715 0.2502
v 0.6717 -0.5065 0.2502
v 0.6750 -0.4844 0.2502
v 0.6783 -0.4624 0.2502
v 0.6818 -0.4406 0.2502
v 0.6859 -0.4189 0.2502
v 0.6905 -0.3974 0.2502
v 0.6960 -0.3762 0.2502
v 0.7026 -0.3552 0.2502
v 0.7105 -0.3343 0.2502
v 0.7158 -0.3212 0.2502
v 0.7213 -0.3079 0.2502
v 0.7270 -0.2946 0.2502
v 0.7331 -0.2816 0.2502
v 0.7399 -0.2690 0.2502
v 0.7473 -0.2571 0.2502
v 0.7557 -0.2460 0.2502
v 0.7652 -0.2359 0.2502
v 0.8081 -0.1954 0.2502
v 0.8157 -0.1888 0.2502
v 0.8237 -0.1828 0.2502
v 0.8320 -0.1774 0.2502
v 0.8408 -0.1725 0.2502
v 0.8498 -0.1682 0.2502
v 0.8591 -0.1644 0.2502
v 0.8687 -0.1611 0.2502
v 0.8784 -0.1583 0.2502
v 0.8883 -0.1559 0.2502
v 0.8984 -0.1539 0.2502
v 0.9085 -0.1522 0.2502
v 0.9187 -0.1510 0.2502
v 0.9289 -0.1500 0.2502
v 0.9392 -0.1494 0.2502
v 0.9493 -0.1491 0.2502
v 0.9594 -0.1489 0.2502
v 0.9762 -0.1492 0.2502
v 0.9782 -0.1493 0.2502
v 0.9829 -0.1491 0.2502
v 0.9874 -0.1485 0.2502
v 0.9918 -0.1476 0.2502
v 0.9961 -0.1463 0.2502
v 1.0002 -0.1446 0.2502
v 1.0040 -0.1426 0.2502
v 1.0077 -0.1403 0.2502
v 1.0110 -0.1377 0.2502
v 1.0141 -0.1347 0.2502
v 1.0168 -0.1314 0.2502
v 1.0192 -0.1278 0.2502
v 1.0212 -0.1239 0.2502
v 1.0228 -0.1198 0.2502
v 1.0240 -0.1153 0.2502
v 1.0247 -0.1106 0.2502
v 1.0250 -0.1049 0.0000
v 1.0245 -0.0960 0.0000
v 1.0231 -0.0797 0.0000
v 1.0209 -0.0635 0.0000
v 1.0178 -0.0473 0.0000
v 1.0139 -0.0313 0.0000
v 1.0091 -0.0155 0.0000
v 1.0034 0.0000 0.0000
v 0.9969 0.0152 0.0000
v 0.9895 0.0299 0.0000
v 0.9812 0.0442 0.0000
v 0.9721 0.0579 0.0000
v 0.9621 0.0709 0.0000
v 0.9512 0.0833 0.0000
v 0.9395 0.0949 0.0000
v 0.9268 0.1056 0.0000
v 0.9133 0.1154 0.0000
v 0.8989 0.1243 0.0000
v 0.8840 0.1322 0.0000
v 0.8687 0.1388 0.0000
v 0.8532 0.1443 0.0000
v 0.8375 0.1486 0.0000
v 0.8217 0.1518 0.0000
v 0.8057 0.1540 0.0000
v 0.7897 0.1550 0.0000
v 0.7748 0.1551 0.0000
v 0.7611 0.1543 0.0000
v 0.7474 0.1529 0.0000
v 0.7338 0.1506 0.0000
v 0.7203 0.1477 0.0000
v 0.7069 0.1441 0.0000
v 0.6936 0.1398 0.0000
v 0.6806 0.1348 0.0000
v 0.6678 0.1291 0.0000
v 0.6552 0.1229 0.0000
v 0.6428 0.1160 0.0000
v 0.6308 0.1084 0.0000
v 0.6191 0.1003 0.0000
v 0.6077 0.0916 0.0000
v 0.5967 0.0823 0.0000
v 0.5861 0.0725 0.0000
v 0.5789 0.0742 0.0000
v 0.5755 0.0875 0.0000
v 0.5735 0.1003 0.0000
v 0.5726 0.1126 0.0000
v 0.5727 0.1264 0.0000
v 0.5735 0.1417 0.0000
v 0.5746 0.1567 0.0000
v 0.5754 0.1718 0.0000
v 0.5749 0.2821 0.0000
v 0.5737 0.4406 0.0000
v 0.5723 0.6547 0.0000
v 0.5712 0.8196 0.0000
v 0.5703 0.8328 0.0000
v 0.5687 0.8457 0.0000
v 0.5662 0.8585 0.0000
v 0.5630 0.8709 0.0000
v 0.5590 0.8830 0.0000
v 0.5543 0.8948 0.0000
v 0.5488 0.9063 0.0000
v 0.5426 0.9173 0.0000
v 0.5357 0.9278 0.0000
v 0.5280 0.9379 0.0000
v 0.5197 0.9474 0.0000
v 0.5107 0.9564 0.0000
v 0.5010 0.9648 0.0000
v 0.4906 0.9726 0.0000
v 0.4796 0.9797 0.0000
v 0.4698 0.9851 0.0000
v 0.4610 0.9887 0.0000
v 0.4516 0.9915 0.0000
v 0.4418 0.9938 0.0000
v 0.4318 0.9955 0.0000
v 0.4218 0.9968 0.0000
v 0.4120 0.9978 0.0000
v 0.4025 0.9985 0.0000
v 0.3917 0.9989 0.0000
v 0.3786 0.9989 0.0000
v 0.3651 0.9980 0.0000
v 0.3521 0.9961 0.0000
v 0.3395 0.9934 0.0000
v 0.3275 0.9899 0.0000
v 0.3159 0.9855 0.0000
v 0.3047 0.9802 0.0000
v 0.2939 0.9742 0.0000
v 0.2836 0.9673 0.0000
v 0.2735 0.9597 0.0000
v 0.2639 0.9513 0.0000
v 0.2545 0.9422 0.0000
v 0.2455 0.9323 0.0000
v 0.2367 0.9217 0.0000
v 0.2282 0.9104 0.0000
v 0.2200 0.8985 0.0000
v 0.2148 0.9037 0.0000
v 0.2130 0.9260 0.0000
v 0.2120 0.9475 0.0000
v 0.2115 0.9683 0.0000
v 0.2116 0.9963 0.0000
v 0.2119 1.0319 0.0000
v 0.2120 1.0603 0.0000
v 0.2114 1.0946 0.0000
v 0.2103 1.1278 0.0000
v 0.2083 1.1468 0.0000
v 0.2047 1.1655 0.0000
v 0.1995 1.1838 0.0000
v 0.1927 1.2015 0.0000
v 0.1842 1.2185 0.0000
v 0.1741 1.2347 0.0000
v 0.1623 1.2497 0.0000
v 0.1521 1.2608 0.0000
v 0.1443 1.2681 0.0000
v 0.1363 1.2750 0.0000
v 0.1280 1.2814 0.0000
v 0.1196 1.2873 0.0000
v 0.1109 1.2928 0.0000
v 0.1021 1.2978 0.0000
v 0.0931 1.3023 0.0000
v 0.0839 1.3063 0.0000
v 0.0746 1.3098 0.0000
v 0.0651 1.3128 0.0000
v 0.0554 1.3153 0.0000
v 0.0456 1.3174 0.0000
v 0.0357 1.3189 0.0000
v 0.0257 1.3199 0.0000
v 0.0156 1.3204 0.0000
v 0.0018 1.3202 0.0000
v -0.0156 1.3187 0.0000
v -0.0333 1.3158 0.0000
v -0.0511 1.3114 0.0000
v -0.0659 1.3066 0.0000
v -0.0775 1.3018 0.0000
v -0.0888 1.2961 0.0000
v -0.0999 1.2896 0.0000
v -0.1106 1.2823 0.0000
v -0.1209 1.2742 0.0000
v -0.1307 1.2654 0.0000
v -0.1400 1.2558 0.0000
v -0.1488 1.2456 0.0000
v -0.1570 1.2347 0.0000
v -0.1645 1.2232 0.0000
v -0.1713 1.2112 0.0000
v -0.1773 1.1985 0.0000
v -0.1825 1.1854 0.0000
v -0.1868 1.1718 0.0000
v -0.1902 1.1577 0.0000
v -0.1926 1.1439 0.0000
v -0.1944 1.1301 0.0000
v -0.1957 1.1159 0.0000
v -0.1968 1.1013 0.0000
v -0.1975 1.0865 0.0000
v -0.1979 1.0716 0.0000
v -0.1982 1.0566 0.0000
v -0.1983 1.0419 0.0000
v -0.1983 1.0233 0.0000
v -0.1982 1.0015 0.0000
v -0.1982 0.9872 0.0000
v -0.1982 0.9800 0.0000
v -0.1983 0.9731 0.0000
v -0.1984 0.9666 0.0000
v -0.1986 0.9603 0.0000
v -0.1989 0.9545 0.0000
v -0.1992 0.9490 0.0000
v -0.1996 0.9440 0.0000
v -0.2002 0.9395 0.0000
v -0.2008 0.9354 0.0000
v -0.2016 0.9318 0.0000
v -0.2025 0.9287 0.0000
v -0.2035 0.9263 0.0000
v -0.2047 0.9243 0.0000
v -0.2068 0.9229 0.0000
v -0.2108 0.9229 0.0000
v -0.2155 0.9248 0.0000
v -0.2198 0.9276 0.0000
v -0.2241 0.9313 0.0000
v -0.2286 0.9357 0.0000
v -0.2334 0.9408 0.0000
v -0.2386 0.9462 0.0000
v -0.2442 0.9521 0.0000
v -0.2505 0.9581 0.0000
v -0.2573 0.9642 0.0000
v -0.2650 0.9702 0.0000
v -0.2735 0.9761 0.0000
v -0.2831 0.9816 0.0000
v -0.2937 0.9867 0.0000
v -0.3054 0.9911 0.0000
v -0.3185 0.9949 0.0000
v -0.3317 0.9978 0.0000
v -0.3444 0.9998 0.0000
v -0.3572 1.0012 0.0000
v -0.3700 1.0019 0.0000
v -0.3827 1.0019 0.0000
v -0.3953 1.0011 0.0000
v -0.4078 0.9994 0.0000
v -0.4201 0.9969 0.0000
v -0.4321 0.9934 0.0000
v -0.4438 0.9889 0.0000
v -0.4552 0.9833 0.0000
v -0.4661 0.9765 0.0000
v -0.4756 0.9696 0.0000
v -0.4838 0.9630 0.0000
v -0.4917 0.9559 0.0000
v -0.4992 0.9486 0.0000
v -0.5063 0.9409 0.0000
v -0.5131 0.9330 0.0000
v -0.5194 0.9247 0.0000
v -0.5252 0.9161 0.0000
v -0.5305 0.9072 0.0000
v -0.5353 0.8980 0.0000
v -0.5395 0.8886 0.0000
v -0.5431 0.8788 0.0000
v -0.5461 0.8688 0.0000
v -0.5484 0.8585 0.0000
v -0.5500 0.8480 0.0000
v -0.5508 0.8372 0.0000
v -0.5529 0.6553 0.0000
v -0.5555 0.2696 0.0000
v -0.5620 0.0653 0.0000
v -0.5735 0.0750 0.0000
v -0.5850 0.0842 0.0000
v -0.5965 0.0930 0.0000
v -0.6081 0.1013 0.0000
v -0.6197 0.1091 0.0000
v -0.6315 0.1164 0.0000
v -0.6435 0.1232 0.0000
v -0.6556 0.1294 0.0000
v -0.6679 0.1350 0.0000
v -0.6805 0.1400 0.0000
v -0.6934 0.1445 0.0000
v -0.7066 0.1483 0.0000
v -0.7201 0.1514 0.0000
v -0.7340 0.1540 0.0000
v -0.7483 0.1558 0.0000
v -0.7656 0.1569 0.0000
v -0.7824 0.1572 0.0000
v -0.7957 0.1564 0.0000
v -0.8088 0.1550 0.0000
v -0.8216 0.1530 0.0000
v -0.8341 0.1502 0.0000
v -0.8463 0.1468 0.0000
v -0.8583 0.1428 0.0000
v -0.8699 0.1382 0.0000
v -0.8812 0.1330 0.0000
v -0.8921 0.1273 0.0000
v -0.9028 0.1210 0.0000
v -0.9130 0.1142 0.0000
v -0.9229 0.1069 0.0000
v -0.9324 0.0991 0.0000
v -0.9416 0.0908 0.0000
v -0.9503 0.0821 0.0000
v -0.9586 0.0730 0.0000
v -0.9664 0.0635 0.0000
v -0.9739 0.0535 0.0000
v -0.9808 0.0433 0.0000
v -0.9873 0.0326 0.0000
v -0.9934 0.0216 0.0000
v -0.9989 0.0104 0.0000
v -1.0040 -0.0012 0.0000
v -1.0085 -0.0131 0.0000
v -1.0125 -0.0252 0.0000
v -1.0160 -0.0375 0.0000
v -1.0189 -0.0500 0.0000
v -1.0212 -0.0628 0.0000
v -1.0230 -0.0757 0.0000
v -1.0242 -0.0887 0.0000
v -1.0248 -0.1020 0.0000
v -1.0250 -0.1103 0.0000
v -1.0248 -0.1151 0.0000
v -1.0240 -0.1209 0.0000
v -1.0227 -0.1261 0.0000
v -1.0208 -0.1306 0.0000
v -1.0183 -0.1345 0.0000
v -1.0153 -0.1378 0.0000
v -1.0117 -0.1407 0.0000
v -1.0077 -0.1431 0.0000
v -1.0032 -0.1451 0.0000
v -0.9983 -0.1468 0.0000
v -0.9930 -0.1481 0.0000
v -0.9873 -0.1492 0.0000
v -0.9813 -0.1500 0.0000
v -0.9749 -0.1507 0.0000
v -0.9682 -0.1512 0.0000
v -0.9613 -0.1516 0.0000
v -0.9541 -0.1520 0.0000
v -0.9467 -0.1524 0.0000
v -0.9391 -0.1529 0.0000
v -0.9313 -0.1534 0.0000
v -0.9234 -0.1541 0.0000
v -0.9154 -0.1550 0.0000
v -0.9073 -0.1561 0.0000
v -0.8991 -0.1574 0.0000
v -0.8909 -0.1591 0.0000
v -0.8827 -0.1612 0.0000
v -0.8745 -0.1637 0.0000
v -0.8663 -0.1666 0.0000
v -0.8582 -0.1701 0.0000
v -0.8503 -0.1740 0.0000
v -0.8424 -0.1786 0.0000
v -0.8347 -0.1838 0.0000
v -0.8128 -0.2008 0.0000
v -0.7899 -0.2196 0.0000
v -0.7805 -0.2292 0.0000
v -0.7717 -0.2391 0.0000
v -0.7634 -0.2494 0.0000
v -0.7556 -0.2600 0.0000
v -0.7483 -0.2709 0.0000
v -0.7414 -0.2820 0.0000
v -0.7350 -0.2935 0.0000
v -0.7290 -0.3051 0.0000
v -0.7234 -0.3170 0.0000
v -0.7181 -0.3290 0.0000
v -0.7132 -0.3412 0.0000
v -0.7086 -0.3536 0.0000
v -0.7042 -0.3662 0.0000
v -0.7002 -0.3788 0.0000
v -0.6963 -0.3916 0.0000
v -0.6911 -0.4111 0.0000
v -0.6849 -0.4372 0.0000
v -0.6796 -0.4634 0.0000
v -0.6752 -0.4896 0.0000
v -0.6712 -0.5159 0.0000
v -0.6674 -0.5423 0.0000
v -0.6636 -0.5688 0.0000
v -0.6595 -0.5954 0.0000
v -0.6438 -0.6885 0.0000
v -0.6267 -0.7821 0.0000
v -0.6195 -0.8096 0.0000
v -0.6112 -0.8368 0.0000
v -0.6021 -0.8635 0.0000
v -0.5920 -0.8898 0.0000
v -0.5810 -0.9157 0.0000
v -0.5690 -0.9411 0.0000
v -0.5562 -0.9660 0.0000
v -0.5424 -0.9904 0.0000
v -0.5276 -1.0142 0.0000
v -0.5120 -1.0374 0.0000
v -0.4954 -1.0599 0.0000
v -0.4778 -1.0819 0.0000
v -0.4594 -1.1031 0.0000
v -0.4400 -1.1237 0.0000
v -0.4197 -1.1435 0.0000
v -0.3980 -1.1629 0.0000
v -0.3752 -1.1817 0.0000
v -0.3516 -1.1995 0.0000
v -0.3275 -1.2161 0.0000
v -0.3027 -1.2316 0.0000
v -0.2773 -1.2459 0.0000
v -0.2514 -1.2591 0.0000
v -0.2249 -1.2710 0.0000
v -0.1980 -1.2817 0.0000
v -0.1705 -1.2912 0.0000
v -0.1427 -1.2993 0.0000
v -0.1144 -1.3062 0.0000
v -0.0858 -1.3118 0.0000
v -0.0568 -1.3160 0.0000
v -0.0275 -1.3188 0.0000
v 0.0021 -1.3202 0.0000
v 0.0196 -1.3205 0.0000
v 0.0305 -1.3202 0.0000
v 0.0470 -1.3191 0.0000
v 0.0635 -1.3172 0.0000
v 0.0800 -1.3144 0.0000
v 0.0966 -1.3110 0.0000
v 0.1134 -1.3070 0.0000
v 0.1303 -1.3024 0.0000
v 0.1474 -1.2974 0.0000
v 0.1674 -1.2912 0.0000
v 0.1899 -1.2834 0.0000
v 0.2120 -1.2749 0.0000
v 0.2337 -1.2657 0.0000
v 0.2550 -1.2559 0.0000
v 0.2759 -1.2453 0.0000
v 0.2962 -1.2341 0.0000
v 0.3161 -1.2223 0.0000
v 0.3356 -1.2098 0.0000
v 0.3545 -1.1967 0.0000
v 0.3730 -1.1830 0.0000
v 0.3910 -1.1687 0.0000
v 0.4084 -1.1539 0.0000
v 0.4253 -1.1384 0.0000
v 0.4417 -1.1225 0.0000
v 0.4576 -1.1060 0.0000
v 0.4729 -1.0890 0.0000
v 0.4876 -1.0715 0.0000
v 0.5018 -1.0536 0.0000
v 0.5153 -1.0351 0.0000
v 0.5283 -1.0163 0.0000
v 0.5407 -0.9969 0.0000
v 0.5525 -0.9772 0.0000
v 0.5636 -0.9570 0.0000
v 0.5741 -0.9365 0.0000
v 0.5840 -0.9156 0.0000
v 0.5932 -0.8943 0.0000
v 0.6018 -0.8727 0.0000
v 0.6097 -0.8507 0.0000
v 0.6169 -0.8284 0.0000
v 0.6234 -0.8059 0.0000
v 0.6292 -0.7830 0.0000
v 0.6518 -0.6390 0.0000
v 0.6733 -0.4954 0.0000
v 0.6766 -0.4734 0.0000
v 0.6801 -0.4515 0.0000
v 0.6838 -0.4297 0.0000
v 0.6882 -0.4082 0.0000
v 0.6933 -0.3868 0.0000
v 0.6993 -0.3657 0.0000
v 0.7065 -0.3447 0.0000
v 0.7131 -0.3278 0.0000
v 0.7186 -0.3145 0.0000
v 0.7241 -0.3013 0.0000
v 0.7301 -0.2881 0.0000
v 0.7365 -0.2753 0.0000
v 0.7436 -0.2631 0.0000
v 0.7515 -0.2515 0.0000
v 0.7604 -0.2409 0.0000
v 0.7866 -0.2157 0.0000
v 0.8119 -0.1921 0.0000
v 0.8197 -0.1858 0.0000
v 0.8279 -0.1801 0.0000
v 0.8364 -0.1749 0.0000
v 0.8453 -0.1704 0.0000
v 0.8545 -0.1663 0.0000
v 0.8639 -0.1628 0.0000
v 0.8735 -0.1597 0.0000
v 0.8834 -0.1571 0.0000
v 0.8934 -0.1549 0.0000
v 0.9034 -0.1531 0.0000
v 0.9136 -0.1516 0.0000
v 0.9238 -0.1505 0.0000
v 0.9341 -0.1497 0.0000
v 0.9442 -0.1492 0.0000
v 0.9544 -0.1490 0.0000
v 0.9678 -0.1491 0.0000
v 0.9772 -0.1492 0.0000
v 0.9805 -0.1492 0.0000
v 0.9851 -0.1488 0.0000
v 0.9896 -0.1480 0.0000
v 0.9940 -0.1469 0.0000
v 0.9981 -0.1454 0.0000
v 1.0021 -0.1436 0.0000
v 1.0058 -0.1415 0.0000
v 1.0093 -0.1390 0.0000
v 1.0125 -0.1362 0.0000
v 1.0154 -0.1330 0.0000
v 1.0180 -0.1296 0.0000
v 1.0202 -0.1259 0.0000
v 1.0220 -0.1219 0.0000
v 1.0234 -0.1176 0.0000
v 1.0244 -0.1130 0.0000
v 1.0249 -0.1082 0.0000
f 712 732 733
f 713 731 732
f 737 738 707
f 710 734 735
f 735 736 709
f 711 733 734
f 716 725 726
f 727 715 726
f 729 730 714
f 714 728 729
f 715 727 728
f 731 713 730
f 736 737 708
f 747 677 746
f 746 682 745
f 666 750 751
f 669 748 749
f 749 750 666
f 748 673 747
f 740 741 701
f 739 740 703
f 691 743 744
f 697 742 696
f 742 743 695
f 741 742 698
f 686 744 745
f 738 739 705
f 724 725 717
f 718 724 717
f 721 722 720
f 719 720 722
f 719 723 718
f 717 725 716
f 728 714 715
f 715 716 726
f 713 732 712
f 711 712 733
f 714 730 713
f 710 711 734
f 719 722 723
f 709 736 708
f 724 718 723
f 710 735 709
f 707 708 737
f 738 706 707
f 706 738 705
f 704 705 739
f 702 703 740
f 704 739 703
f 741 700 701
f 700 741 699
f 740 701 702
f 699 741 698
f 742 697 698
f 751 752 666
f 783 784 833
f 784 785 832
f 828 787 788
f 787 830 786
f 785 786 831
f 835 782 783
f 778 843 777
f 779 841 778
f 836 781 782
f 838 780 781
f 780 839 779
f 845 776 777
f 788 789 827
f 798 817 797
f 799 817 798
f 801 802 815
f 815 800 801
f 800 816 799
f 796 797 818
f 823 791 792
f 822 792 793
f 795 796 819
f 794 795 820
f 821 793 794
f 790 791 825
f 790 826 789
f 775 776 847
f 761 762 666
f 760 761 666
f 765 766 666
f 763 764 666
f 765 666 764
f 762 763 666
f 754 755 666
f 753 754 666
f 758 759 666
f 756 757 666
f 758 666 757
f 755 756 666
f 760 666 759
f 770 848 769
f 769 849 768
f 774 775 847
f 773 848 772
f 848 771 772
f 847 773 774
f 669 670 748
f 666 767 768
f 666 766 767
f 667 668 749
f 668 669 749
f 666 667 749
f 666 768 850
f 848 770 771
f 666 752 753
f 665 666 499
f 671 748 670
f 694 743 693
f 743 694 695
f 691 692 743
f 690 691 744
f 692 693 743
f 696 742 695
f 744 689 690
f 689 744 688
f 688 744 687
f 744 686 687
f 745 685 686
f 685 745 684
f 683 684 745
f 678 746 677
f 676 677 747
f 747 674 675
f 747 675 676
f 747 673 674
f 746 678 679
f 682 746 681
f 745 682 683
f 746 680 681
f 664 626 638
f 679 680 746
f 664 665 621
f 748 672 673
f 748 671 672
f 663 661 662
f 661 663 660
f 663 664 660
f 664 659 660
f 658 659 664
f 657 658 664
f 656 657 664
f 655 656 664
f 654 655 664
f 653 654 664
f 639 651 652
f 651 639 650
f 653 664 652
f 648 646 647
f 643 644 648
f 646 648 645
f 638 652 664
f 645 648 644
f 643 648 649
f 626 637 638
f 649 642 643
f 649 641 642
f 640 641 650
f 650 641 649
f 639 640 650
f 638 639 652
f 637 627 636
f 626 627 637
f 625 626 664
f 620 621 665
f 624 664 623
f 621 622 664
f 625 664 624
f 633 631 632
f 630 631 634
f 629 635 636
f 629 630 635
f 629 636 628
f 636 627 628
f 633 634 631
f 543 620 665
f 543 617 618
f 544 614 615
f 545 612 613
f 613 614 544
f 617 543 616
f 546 610 611
f 546 609 610
f 547 607 608
f 547 605 606
f 606 607 547
f 608 609 546
f 611 612 545
f 619 620 543
f 634 635 630
f 601 602 549
f 600 550 599
f 603 549 602
f 550 600 601
f 551 596 597
f 597 598 551
f 595 553 594
f 553 593 594
f 596 551 595
f 599 550 598
f 548 603 604
f 592 553 591
f 577 589 590
f 578 588 589
f 578 587 588
f 586 587 578
f 553 592 593
f 583 584 579
f 585 578 584
f 579 581 582
f 579 580 581
f 579 582 583
f 578 585 586
f 591 577 590
f 548 604 605
f 615 616 543
f 623 664 622
f 619 543 618
f 802 803 814
f 805 813 804
f 806 811 805
f 807 808 809
f 810 806 809
f 809 806 807
f 810 811 806
f 812 813 805
f 813 814 804
f 800 815 816
f 799 816 817
f 814 815 802
f 811 812 805
f 817 818 797
f 820 795 819
f 821 794 820
f 823 792 822
f 791 823 824
f 822 793 821
f 791 824 825
f 789 826 827
f 788 827 828
f 829 830 787
f 831 786 830
f 787 828 829
f 826 790 825
f 819 796 818
f 831 832 785
f 834 783 833
f 835 783 834
f 781 836 837
f 837 838 781
f 836 782 835
f 839 780 838
f 492 666 491
f 841 779 840
f 839 840 779
f 848 849 769
f 491 866 490
f 842 843 778
f 842 778 841
f 832 833 784
f 777 844 845
f 776 845 846
f 847 848 773
f 849 850 768
f 776 846 847
f 851 666 850
f 851 852 491
f 491 666 851
f 853 854 491
f 855 856 491
f 854 855 491
f 852 853 491
f 843 844 777
f 857 491 856
f 492 493 666
f 858 859 491
f 857 858 491
f 860 861 491
f 864 491 863
f 861 862 491
f 859 860 491
f 866 489 490
f 866 491 865
f 867 868 485
f 477 869 870
f 868 869 481
f 866 867 489
f 865 491 864
f 466 872 873
f 469 871 872
f 874 875 461
f 876 877 458
f 875 876 459
f 873 874 463
f 879 880 454
f 878 879 455
f 451 882 883
f 884 451 883
f 882 452 881
f 880 881 453
f 877 878 456
f 473 870 871
f 886 451 885
f 887 451 886
f 898 888 889
f 889 890 898
f 887 888 450
f 877 456 457
f 462 463 874
f 461 462 874
f 459 460 875
f 460 461 875
f 458 459 876
f 457 458 877
f 891 897 890
f 885 451 884
f 895 892 893
f 895 893 894
f 897 891 896
f 890 897 898
f 892 895 896
f 898 450 888
f 456 878 455
f 455 879 454
f 882 451 452
f 452 453 881
f 880 453 454
f 450 451 887
f 892 896 891
f 863 491 862
f 463 464 873
f 546 611 545
f 545 613 544
f 503 538 539
f 504 526 538
f 539 540 502
f 540 541 502
f 549 603 548
f 551 552 595
f 548 605 547
f 550 601 549
f 598 550 551
f 502 541 542
f 547 608 546
f 534 535 530
f 536 529 535
f 533 534 531
f 531 532 533
f 531 534 530
f 536 537 528
f 535 529 530
f 536 528 529
f 538 527 537
f 537 527 528
f 526 527 538
f 506 525 526
f 525 510 524
f 542 543 502
f 562 576 577
f 589 577 578
f 571 569 570
f 567 568 572
f 568 569 571
f 566 567 573
f 584 578 579
f 575 565 574
f 564 575 576
f 572 573 567
f 574 566 573
f 566 574 565
f 571 572 568
f 557 559 556
f 555 556 560
f 553 554 561
f 554 555 560
f 553 562 577
f 559 557 558
f 564 565 575
f 563 564 576
f 553 561 562
f 562 563 576
f 554 560 561
f 556 559 560
f 591 553 577
f 553 595 552
f 543 544 615
f 666 496 497
f 666 495 496
f 867 486 487
f 867 485 486
f 487 488 867
f 500 665 499
f 482 483 868
f 481 482 868
f 483 484 868
f 484 485 868
f 489 867 488
f 497 499 666
f 872 468 469
f 469 470 871
f 466 873 465
f 467 872 466
f 467 468 872
f 471 871 470
f 478 479 869
f 480 869 479
f 473 871 472
f 870 473 474
f 477 870 476
f 478 869 477
f 472 871 471
f 480 481 869
f 464 465 873
f 523 524 514
f 515 523 514
f 513 524 512
f 514 524 513
f 512 524 511
f 515 516 523
f 522 517 521
f 522 523 516
f 517 518 520
f 519 520 518
f 517 520 521
f 516 517 522
f 524 510 511
f 501 502 543
f 503 539 502
f 500 501 543
f 475 476 870
f 870 474 475
f 525 508 509
f 525 509 510
f 507 508 525
f 505 506 526
f 506 507 525
f 504 505 526
f 504 538 503
f 543 665 500
f 497 498 499
f 666 494 495
f 494 666 493
f 804 814 803
f 283 263 284
f 282 264 283
f 289 288 258
f 285 261 286
f 287 286 260
f 284 262 285
f 276 267 277
f 266 278 277
f 281 280 265
f 279 265 280
f 278 266 279
f 264 282 281
f 288 287 259
f 228 298 297
f 233 297 296
f 301 217 302
f 299 220 300
f 301 300 217
f 224 299 298
f 292 291 252
f 291 290 254
f 294 242 295
f 293 248 247
f 294 293 246
f 293 292 249
f 295 237 296
f 290 289 256
f 276 275 268
f 275 269 268
f 273 272 271
f 271 270 273
f 274 270 269
f 276 268 267
f 265 279 266
f 267 266 277
f 283 264 263
f 263 262 284
f 281 265 264
f 262 261 285
f 273 270 274
f 287 260 259
f 269 275 274
f 286 261 260
f 259 258 288
f 257 289 258
f 289 257 256
f 256 255 290
f 254 253 291
f 290 255 254
f 251 292 252
f 292 251 250
f 252 291 253
f 292 250 249
f 248 293 249
f 303 302 217
f 335 334 384
f 336 335 383
f 338 379 339
f 381 338 337
f 337 336 382
f 333 386 334
f 394 329 328
f 392 330 329
f 332 387 333
f 331 389 332
f 390 331 330
f 327 396 328
f 340 339 378
f 368 349 348
f 368 350 349
f 353 352 366
f 351 366 352
f 367 351 350
f 348 347 369
f 342 374 343
f 343 373 344
f 347 346 370
f 346 345 371
f 344 372 345
f 342 341 376
f 377 341 340
f 327 326 398
f 313 312 217
f 312 311 217
f 317 316 217
f 315 314 217
f 217 316 315
f 314 313 217
f 306 305 217
f 305 304 217
f 310 309 217
f 308 307 217
f 217 309 308
f 307 306 217
f 217 311 310
f 399 321 320
f 400 320 319
f 326 325 398
f 399 324 323
f 322 399 323
f 324 398 325
f 221 220 299
f 318 217 319
f 317 217 318
f 219 218 300
f 220 219 300
f 218 217 300
f 319 217 401
f 321 399 322
f 303 217 304
f 217 216 50
f 299 222 221
f 294 245 244
f 245 294 246
f 243 242 294
f 242 241 295
f 244 243 294
f 293 247 246
f 240 295 241
f 295 240 239
f 295 239 238
f 237 295 238
f 236 296 237
f 296 236 235
f 235 234 296
f 297 229 228
f 228 227 298
f 225 298 226
f 226 298 227
f 224 298 225
f 229 297 230
f 297 233 232
f 233 296 234
f 231 297 232
f 177 215 189
f 231 230 297
f 216 215 172
f 223 299 224
f 222 299 223
f 212 214 213
f 214 212 211
f 215 214 211
f 210 215 211
f 210 209 215
f 209 208 215
f 208 207 215
f 207 206 215
f 206 205 215
f 205 204 215
f 202 190 203
f 190 202 201
f 215 204 203
f 197 199 198
f 195 194 199
f 199 197 196
f 203 189 215
f 199 196 195
f 199 194 200
f 188 177 189
f 193 200 194
f 192 200 193
f 192 191 201
f 192 201 200
f 191 190 201
f 190 189 203
f 178 188 187
f 178 177 188
f 177 176 215
f 172 171 216
f 215 175 174
f 173 172 215
f 215 176 175
f 182 184 183
f 182 181 185
f 186 180 187
f 181 180 186
f 187 180 179
f 178 187 179
f 185 184 182
f 171 94 216
f 168 94 169
f 165 95 166
f 163 96 164
f 165 164 95
f 94 168 167
f 161 97 162
f 160 97 161
f 158 98 159
f 156 98 157
f 158 157 98
f 160 159 97
f 163 162 96
f 171 170 94
f 186 185 181
f 153 152 100
f 101 151 150
f 100 154 153
f 151 101 152
f 147 102 148
f 149 148 102
f 104 146 145
f 144 104 145
f 102 147 146
f 101 150 149
f 154 99 155
f 104 143 142
f 140 128 141
f 139 129 140
f 138 129 139
f 138 137 129
f 143 104 144
f 135 134 130
f 129 136 135
f 132 130 133
f 131 130 132
f 133 130 134
f 136 129 137
f 128 142 141
f 155 99 156
f 167 166 94
f 215 174 173
f 94 170 169
f 354 353 365
f 364 356 355
f 362 357 356
f 359 358 360
f 357 361 360
f 357 360 358
f 362 361 357
f 364 363 356
f 365 364 355
f 366 351 367
f 367 350 368
f 366 365 353
f 363 362 356
f 369 368 348
f 346 371 370
f 345 372 371
f 343 374 373
f 374 342 375
f 344 373 372
f 375 342 376
f 377 340 378
f 378 339 379
f 381 380 338
f 337 382 381
f 379 338 380
f 341 377 376
f 347 370 369
f 383 382 336
f 334 385 384
f 334 386 385
f 387 332 388
f 389 388 332
f 333 387 386
f 331 390 389
f 217 43 42
f 330 392 391
f 391 390 330
f 400 399 320
f 417 42 41
f 394 393 329
f 329 393 392
f 384 383 335
f 395 328 396
f 396 327 397
f 399 398 324
f 401 400 319
f 397 327 398
f 217 402 401
f 403 402 42
f 217 42 402
f 405 404 42
f 407 406 42
f 406 405 42
f 404 403 42
f 395 394 328
f 42 408 407
f 44 43 217
f 410 409 42
f 409 408 42
f 412 411 42
f 42 415 414
f 413 412 42
f 411 410 42
f 40 417 41
f 42 417 416
f 419 418 36
f 420 28 421
f 420 419 32
f 418 417 40
f 42 416 415
f 423 17 424
f 422 20 423
f 426 425 12
f 428 427 9
f 427 426 10
f 425 424 14
f 431 430 5
f 430 429 6
f 433 2 434
f 2 435 434
f 3 433 432
f 432 431 4
f 429 428 7
f 421 24 422
f 2 437 436
f 2 438 437
f 439 449 440
f 441 440 449
f 439 438 1
f 7 428 8
f 14 13 425
f 13 12 425
f 11 10 426
f 12 11 426
f 10 9 427
f 9 8 428
f 448 442 441
f 2 436 435
f 443 446 444
f 444 446 445
f 442 448 447
f 448 441 449
f 446 443 447
f 1 449 439
f 429 7 6
f 430 6 5
f 2 433 3
f 4 3 432
f 4 431 5
f 2 1 438
f 447 443 442
f 42 414 413
f 15 14 424
f 162 97 96
f 164 96 95
f 89 54 90
f 77 55 89
f 91 90 53
f 92 91 53
f 154 100 99
f 103 102 146
f 156 99 98
f 152 101 100
f 101 149 102
f 92 53 93
f 159 98 97
f 86 85 81
f 80 87 86
f 85 84 82
f 83 82 84
f 85 82 81
f 88 87 79
f 80 86 81
f 79 87 80
f 78 89 88
f 78 88 79
f 78 77 89
f 76 57 77
f 61 76 75
f 94 93 53
f 127 113 128
f 128 140 129
f 120 122 121
f 119 118 123
f 120 119 122
f 118 117 124
f 129 135 130
f 116 126 125
f 126 115 127
f 124 123 118
f 117 125 124
f 125 117 116
f 123 122 119
f 110 108 107
f 107 106 111
f 105 104 112
f 106 105 111
f 113 104 128
f 108 110 109
f 116 115 126
f 115 114 127
f 112 104 113
f 114 113 127
f 111 105 112
f 110 107 111
f 104 142 128
f 146 104 103
f 95 94 166
f 47 217 48
f 46 217 47
f 37 418 38
f 36 418 37
f 39 38 418
f 216 51 50
f 34 33 419
f 33 32 419
f 35 34 419
f 36 35 419
f 418 40 39
f 50 48 217
f 19 423 20
f 21 20 422
f 424 17 16
f 423 18 17
f 19 18 423
f 422 22 21
f 30 29 420
f 420 31 30
f 422 24 23
f 24 421 25
f 421 28 27
f 420 29 28
f 422 23 22
f 32 31 420
f 16 15 424
f 75 74 65
f 74 66 65
f 75 64 63
f 75 65 64
f 75 63 62
f 67 66 74
f 68 73 72
f 74 73 67
f 69 68 71
f 71 70 69
f 71 68 72
f 68 67 73
f 61 75 62
f 53 52 94
f 90 54 53
f 52 51 94
f 27 26 421
f 25 421 26
f 59 76 60
f 60 76 61
f 59 58 76
f 57 56 77
f 58 57 76
f 56 55 77
f 89 55 54
f 216 94 51
f 49 48 50
f 45 217 46
f 217 45 44
f 365 355 354
f 899 1 2
f 899 2 451
f 899 451 450
f 899 450 1
f 900 2 3
f 900 3 452
f 900 452 451
f 900 451 2
f 901 3 4
f 901 4 453
f 901 453 452
f 901 452 3
f 902 4 5
f 902 5 454
f 902 454 453
f 902 453 4
f 903 5 6
f 903 6 455
f 903 455 454
f 903 454 5
f 904 6 7
f 904 7 456
f 904 456 455
f 904 455 6
f 905 7 8
f 905 8 457
f 905 457 456
f 905 456 7
f 906 8 9
f 906 9 458
f 906 458 457
f 906 457 8
f 907 9 10
f 907 10 459
f 907 459 458
f 907 458 9
f 908 10 11
f 908 11 460
f 908 460 459
f 908 459 10
f 909 11 12
f 909 12 461
f 909 461 460
f 909 460 11
f 910 12 13
f 910 13 462
f 910 462 461
f 910 461 12
f 911 13 14
f 911 14 463
f 911 463 462
f 911 462 13
f 912 14 15
f 912 15 464
f 912 464 463
f 912 463 14
f 913 15 16
f 913 16 465
f 913 465 464
f 913 464 15
f 914 16 17
f 914 17 466
f 914 466 465
f 914 465 16
f 915 17 18
f 915 18 467
f 915 467 466
f 915 466 17
f 916 18 19
f 916 19 468
f 916 468 467
f 916 467 18
f 917 19 20
f 917 20 469
f 917 469 468
f 917 468 19
f 918 20 21
f 918 21 470
f 918 470 469
f 918 469 20
f 919 21 22
f 919 22 471
f 919 471 470
f 919 470 21
f 920 22 23
f 920 23 472
f 920 472 471
f 920 471 22
f 921 23 24
f 921 24 473
f 921 473 472
f 921 472 23
f 922 24 25
f 922 25 474
f 922 474 473
f 922 473 24
f 923 25 26
f 923 26 475
f 923 475 474
f 923 474 25
f 924 26 27
f 924 27 476
f 924 476 475
f 924 475 26
f 925 27 28
f 925 28 477
f 925 477 476
f 925 476 27
f 926 28 29
f 926 29 478
f 926 478 477
f 926 477 28
f 927 29 30
f 927 30 479
f 927 479 478
f 927 478 29
f 928 30 31
f 928 31 480
f 928 480 479
f 928 479 30
f 929 31 32
f 929 32 481
f 929 481 480
f 929 480 31
f 930 32 33
f 930 33 482
f 930 482 481
f 930 481 32
f 931 33 34
f 931 34 483
f 931 483 482
f 931 482 33
f 932 34 35
f 932 35 484
f 932 484 483
f 932 483 34
f 933 35 36
f 933 36 485
f 933 485 484
f 933 484 35
f 934 36 37
f 934 37 486
f 934 486 485
f 934 485 36
f 935 37 38
f 935 38 487
f 935 487 486
f 935 486 37
f 936 38 39
f 936 39 488
f 936 488 487
f 936 487 38
f 937 39 40
f 937 40 489
f 937 489 488
f 937 488 39
f 938 40 41
f 938 41 490
f 938 490 489
f 938 489 40
f 939 41 42
f 939 42 491
f 939 491 490
f 939 490 41
f 940 42 43
f 940 43 492
f 940 492 491
f 940 491 42
f 941 43 44
f 941 44 493
f 941 493 492
f 941 492 43
f 942 44 45
f 942 45 494
f 942 494 493
f 942 493 44
f 943 45 46
f 943 46 495
f 943 495 494
f 943 494 45
f 944 46 47
f 944 47 496
f 944 496 495
f 944 495 46
f 945 47 48
f 945 48 497
f 945 497 496
f 945 496 47
f 946 48 49
f 946 49 498
f 946 498 497
f 946 497 48
f 947 49 50
f 947 50 499
f 947 499 498
f 947 498 49
f 948 50 51
f 948 51 500
f 948 500 499
f 948 499 50
f 949 51 52
f 949 52 501
f 949 501 500
f 949 500 51
f 950 52 53
f 950 53 502
f 950 502 501
f 950 501 52
f 951 53 54
f 951 54 503
f 951 503 502
f 951 502 53
f 952 54 55
f 952 55 504
f 952 504 503
f 952 503 54
f 953 55 56
f 953 56 505
f 953 505 504
f 953 504 55
f 954 56 57
f 954 57 506
f 954 506 505
f 954 505 56
f 955 57 58
f 955 58 507
f 955 507 506
f 955 506 57
f 956 58 59
f 956 59 508
f 956 508 507
f 956 507 58
f 957 59 60
f 957 60 509
f 957 509 508
f 957 508 59
f 958 60 61
f 958 61 510
f 958 510 509
f 958 509 60
f 959 61 62
f 959 62 511
f 959 511 510
f 959 510 61
f 960 62 63
f 960 63 512
f 960 512 511
f 960 511 62
f 961 63 64
f 961 64 513
f 961 513 512
f 961 512 63
f 962 64 65
f 962 65 514
f 962 514 513
f 962 513 64
f 963 65 66
f 963 66 515
f 963 515 514
f 963 514 65
f 964 66 67
f 964 67 516
f 964 516 515
f 964 515 66
f 965 67 68
f 965 68 517
f 965 517 516
f 965 516 67
f 966 68 69
f 966 69 518
f 966 518 517
f 966 517 68
f 967 69 70
f 967 70 519
f 967 519 518
f 967 518 69
f 968 70 71
f 968 71 520
f 968 520 519
f 968 519 70
f 969 71 72
f 969 72 521
f 969 521 520
f 969 520 71
f 970 72 73
f 970 73 522
f 970 522 521
f 970 521 72
f 971 73 74
f 971 74 523
f 971 523 522
f 971 522 73
f 972 74 75
f 972 75 524
f 972 524 523
f 972 523 74
f 973 75 76
f 973 76 525
f 973 525 524
f 973 524 75
f 974 76 77
f 974 77 526
f 974 526 525
f 974 525 76
f 975 77 78
f 975 78 527
f 975 527 526
f 975 526 77
f 976 78 79
f 976 79 528
f 976 528 527
f 976 527 78
f 977 79 80
f 977 80 529
f 977 529 528
f 977 528 79
f 978 80 81
f 978 81 530
f 978 530 529
f 978 529 80
f 979 81 82
f 979 82 531
f 979 531 530
f 979 530 81
f 980 82 83
f 980 83 532
f 980 532 531
f 980 531 82
f 981 83 84
f 981 84 533
f 981 533 532
f 981 532 83
f 982 84 85
f 982 85 534
f 982 534 533
f 982 533 84
f 983 85 86
f 983 86 535
f 983 535 534
f 983 534 85
f 984 86 87
f 984 87 536
f 984 536 535
f 984 535 86
f 985 87 88
f 985 88 537
f 985 537 536
f 985 536 87
f 986 88 89
f 986 89 538
f 986 538 537
f 986 537 88
f 987 89 90
f 987 90 539
f 987 539 538
f 987 538 89
f 988 90 91
f 988 91 540
f 988 540 539
f 988 539 90
f 989 91 92
f 989 92 541
f 989 541 540
f 989 540 91
f 990 92 93
f 990 93 542
f 990 542 541
f 990 541 92
f 991 93 94
f 991 94 543
f 991 543 542
f 991 542 93
f 992 94 95
f 992 95 544
f 992 544 543
f 992 543 94
f 993 95 96
f 993 96 545
f 993 545 544
f 993 544 95
f 994 96 97
f 994 97 546
f 994 546 545
f 994 545 96
f 995 97 98
f 995 98 547
f 995 547 546
f 995 546 97
f 996 98 99
f 996 99 548
f 996 548 547
f 996 547 98
f 997 99 100
f 997 100 549
f 997 549 548
f 997 548 99
f 998 100 101
f 998 101 550
f 998 550 549
f 998 549 100
f 999 101 102
f 999 102 551
f 999 551 550
f 999 550 101
f 1000 102 103
f 1000 103 552
f 1000 552 551
f 1000 551 102
f 1001 103 104
f 1001 104 553
f 1001 553 552
f 1001 552 103
f 1002 104 105
f 1002 105 554
f 1002 554 553
f 1002 553 104
f 1003 105 106
f 1003 106 555
f 1003 555 554
f 1003 554 105
f 1004 106 107
f 1004 107 556
f 1004 556 555
f 1004 555 106
f 1005 107 108
f 1005 108 557
f 1005 557 556
f 1005 556 107
f 1006 108 109
f 1006 109 558
f 1006 558 557
f 1006 557 108
f 1007 109 110
f 1007 110 559
f 1007 559 558
f 1007 558 109
f 1008 110 111
f 1008 111 560
f 1008 560 559
f 1008 559 110
f 1009 111 112
f 1009 112 561
f 1009 561 560
f 1009 560 111
f 1010 112 113
f 1010 113 562
f 1010 562 561
f 1010 561 112
f 1011 113 114
f 1011 114 563
f 1011 563 562
f 1011 562 113
f 1012 114 115
f 1012 115 564
f 1012 564 563
f 1012 563 114
f 1013 115 116
f 1013 116 565
f 1013 565 564
f 1013 564 115
f 1014 116 117
f 1014 117 566
f 1014 566 565
f 1014 565 116
f 1015 117 118
f 1015 118 567
f 1015 567 566
f 1015 566 117
f 1016 118 119
f 1016 119 568
f 1016 568 567
f 1016 567 118
f 1017 119 120
f 1017 120 569
f 1017 569 568
f 1017 568 119
f 1018 120 121
f 1018 121 570
f 1018 570 569
f 1018 569 120
f 1019 121 122
f 1019 122 571
f 1019 571 570
f 1019 570 121
f 1020 122 123
f 1020 123 572
f 1020 572 571
f 1020 571 122
f 1021 123 124
f 1021 124 573
f 1021 573 572
f 1021 572 123
f 1022 124 125
f 1022 125 574
f 1022 574 573
f 1022 573 124
f 1023 125 126
f 1023 126 575
f 1023 575 574
f 1023 574 125
f 1024 126 127
f 1024 127 576
f 1024 576 575
f 1024 575 126
f 1025 127 128
f 1025 128 577
f 1025 577 576
f 1025 576 127
f 1026 128 129
f 1026 129 578
f 1026 578 577
f 1026 577 128
f 1027 129 130
f 1027 130 579
f 1027 579 578
f 1027 578 129
f 1028 130 131
f 1028 131 580
f 1028 580 579
f 1028 579 130
f 1029 131 132
f 1029 132 581
f 1029 581 580
f 1029 580 131
f 1030 132 133
f 1030 133 582
f 1030 582 581
f 1030 581 132
f 1031 133 134
f 1031 134 583
f 1031 583 582
f 1031 582 133
f 1032 134 135
f 1032 135 584
f 1032 584 583
f 1032 583 134
f 1033 135 136
f 1033 136 585
f 1033 585 584
f 1033 584 135
f 1034 136 137
f 1034 137 586
f 1034 586 585
f 1034 585 136
f 1035 137 138
f 1035 138 587
f 1035 587 586
f 1035 586 137
f 1036 138 139
f 1036 139 588
f 1036 588 587
f 1036 587 138
f 1037 139 140
f 1037 140 589
f 1037 589 588
f 1037 588 139
f 1038 140 141
f 1038 141 590
f 1038 590 589
f 1038 589 140
f 1039 141 142
f 1039 142 591
f 1039 591 590
f 1039 590 141
f 1040 142 143
f 1040 143 592
f 1040 592 591
f 1040 591 142
f 1041 143 144
f 1041 144 593
f 1041 593 592
f 1041 592 143
f 1042 144 145
f 1042 145 594
f 1042 594 593
f 1042 593 144
f 1043 145 146
f 1043 146 595
f 1043 595 594
f 1043 594 145
f 1044 146 147
f 1044 147 596
f 1044 596 595
f 1044 595 146
f 1045 147 148
f 1045 148 597
f 1045 597 596
f 1045 596 147
f 1046 148 149
f 1046 149 598
f 1046 598 597
f 1046 597 148
f 1047 149 150
f 1047 150 599
f 1047 599 598
f 1047 598 149
f 1048 150 151
f 1048 151 600
f 1048 600 599
f 1048 599 150
f 1049 151 152
f 1049 152 601
f 1049 601 600
f 1049 600 151
f 1050 152 153
f 1050 153 602
f 1050 602 601
f 1050 601 152
f 1051 153 154
f 1051 154 603
f 1051 603 602
f 1051 602 153
f 1052 154 155
f 1052 155 604
f 1052 604 603
f 1052 603 154
f 1053 155 156
f 1053 156 605
f 1053 605 604
f 1053 604 155
f 1054 156 157
f 1054 157 606
f 1054 606 605
f 1054 605 156
f 1055 157 158
f 1055 158 607
f 1055 607 606
f 1055 606 157
f 1056 158 159
f 1056 159 608
f 1056 608 607
f 1056 607 158
f 1057 159 160
f 1057 160 609
f 1057 609 608
f 1057 608 159
f 1058 160 161
f 1058 161 610
f 1058 610 609
f 1058 609 160
f 1059 161 162
f 1059 162 611
f 1059 611 610
f 1059 610 161
f 1060 162 163
f 1060 163 612
f 1060 612 611
f 1060 611 162
f 1061 163 164
f 1061 164 613
f 1061 613 612
f 1061 612 163
f 1062 164 165
f 1062 165 614
f 1062 614 613
f 1062 613 164
f 1063 165 166
f 1063 166 615
f 1063 615 614
f 1063 614 165
f 1064 166 167
f 1064 167 616
f 1064 616 615
f 1064 615 166
f 1065 167 168
f 1065 168 617
f 1065 617 616
f 1065 616 167
f 1066 168 169
f 1066 169 618
f 1066 618 617
f 1066 617 168
f 1067 169 170
f 1067 170 619
f 1067 619 618
f 1067 618 169
f 1068 170 171
f 1068 171 620
f 1068 620 619
f 1068 619 170
f 1069 171 172
f 1069 172 621
f 1069 621 620
f 1069 620 171
f 1070 172 173
f 1070 173 622
f 1070 622 621
f 1070 621 172
f 1071 173 174
f 1071 174 623
f 1071 623 622
f 1071 622 173
f 1072 174 175
f 1072 175 624
f 1072 624 623
f 1072 623 174
f 1073 175 176
f 1073 176 625
f 1073 625 624
f 1073 624 175
f 1074 176 177
f 1074 177 626
f 1074 626 625
f 1074 625 176
f 1075 177 178
f 1075 178 627
f 1075 627 626
f 1075 626 177
f 1076 178 179
f 1076 179 628
f 1076 628 627
f 1076 627 178
f 1077 179 180
f 1077 180 629
f 1077 629 628
f 1077 628 179
f 1078 180 181
f 1078 181 630
f 1078 630 629
f 1078 629 180
f 1079 181 182
f 1079 182 631
f 1079 631 630
f 1079 630 181
f 1080 182 183
f 1080 183 632
f 1080 632 631
f 1080 631 182
f 1081 183 184
f 1081 184 633
f 1081 633 632
f 1081 632 183
f 1082 184 185
f 1082 185 634
f 1082 634 633
f 1082 633 184
f 1083 185 186
f 1083 186 635
f 1083 635 634
f 1083 634 185
f 1084 186 187
f 1084 187 636
f 1084 636 635
f 1084 635 186
f 1085 187 188
f 1085 188 637
f 1085 637 636
f 1085 636 187
f 1086 188 189
f 1086 189 638
f 1086 638 637
f 1086 637 188
f 1087 189 190
f 1087 190 639
f 1087 639 638
f 1087 638 189
f 1088 190 191
f 1088 191 640
f 1088 640 639
f 1088 639 190
f 1089 191 192
f 1089 192 641
f 1089 641 640
f 1089 640 191
f 1090 192 193
f 1090 193 642
f 1090 642 641
f 1090 641 192
f 1091 193 194
f 1091 194 643
f 1091 643 642
f 1091 642 193
f 1092 194 195
f 1092 195 644
f 1092 644 643
f 1092 643 194
f 1093 195 196
f 1093 196 645
f 1093 645 644
f 1093 644 195
f 1094 196 197
f 1094 197 646
f 1094 646 645
f 1094 645 196
f 1095 197 198
f 1095 198 647
f 1095 647 646
f 1095 646 197
f 1096 198 199
f 1096 199 648
f 1096 648 647
f 1096 647 198
f 1097 199 200
f 1097 200 649
f 1097 649 648
f 1097 648 199
f 1098 200 201
f 1098 201 650
f 1098 650 649
f 1098 649 200
f 1099 201 202
f 1099 202 651
f 1099 651 650
f 1099 650 201
f 1100 202 203
f 1100 203 652
f 1100 652 651
f 1100 651 202
f 1101 203 204
f 1101 204 653
f 1101 653 652
f 1101 652 203
f 1102 204 205
f 1102 205 654
f 1102 654 653
f 1102 653 204
f 1103 205 206
f 1103 206 655
f 1103 655 654
f 1103 654 205
f 1104 206 207
f 1104 207 656
f 1104 656 655
f 1104 655 206
f 1105 207 208
f 1105 208 657
f 1105 657 656
f 1105 656 207
f 1106 208 209
f 1106 209 658
f 1106 658 657
f 1106 657 208
f 1107 209 210
f 1107 210 659
f 1107 659 658
f 1107 658 209
f 1108 210 211
f 1108 211 660
f 1108 660 659
f 1108 659 210
f 1109 211 212
f 1109 212 661
f 1109 661 660
f 1109 660 211
f 1110 212 213
f 1110 213 662
f 1110 662 661
f 1110 661 212
f 1111 213 214
f 1111 214 663
f 1111 663 662
f 1111 662 213
f 1112 214 215
f 1112 215 664
f 1112 664 663
f 1112 663 214
f 1113 215 216
f 1113 216 665
f 1113 665 664
f 1113 664 215
f 1114 216 217
f 1114 217 666
f 1114 666 665
f 1114 665 216
f 1115 217 218
f 1115 218 667
f 1115 667 666
f 1115 666 217
f 1116 218 219
f 1116 219 668
f 1116 668 667
f 1116 667 218
f 1117 219 220
f 1117 220 669
f 1117 669 668
f 1117 668 219
f 1118 220 221
f 1118 221 670
f 1118 670 669
f 1118 669 220
f 1119 221 222
f 1119 222 671
f 1119 671 670
f 1119 670 221
f 1120 222 223
f 1120 223 672
f 1120 672 671
f 1120 671 222
f 1121 223 224
f 1121 224 673
f 1121 673 672
f 1121 672 223
f 1122 224 225
f 1122 225 674
f 1122 674 673
f 1122 673 224
f 1123 225 226
f 1123 226 675
f 1123 675 674
f 1123 674 225
f 1124 226 227
f 1124 227 676
f 1124 676 675
f 1124 675 226
f 1125 227 228
f 1125 228 677
f 1125 677 676
f 1125 676 227
f 1126 228 229
f 1126 229 678
f 1126 678 677
f 1126 677 228
f 1127 229 230
f 1127 230 679
f 1127 679 678
f 1127 678 229
f 1128 230 231
f 1128 231 680
f 1128 680 679
f 1128 679 230
f 1129 231 232
f 1129 232 681
f 1129 681 680
f 1129 680 231
f 1130 232 233
f 1130 233 682
f 1130 682 681
f 1130 681 232
f 1131 233 234
f 1131 234 683
f 1131 683 682
f 1131 682 233
f 1132 234 235
f 1132 235 684
f 1132 684 683
f 1132 683 234
f 1133 235 236
f 1133 236 685
f 1133 685 684
f 1133 684 235
f 1134 236 237
f 1134 237 686
f 1134 686 685
f 1134 685 236
f 1135 237 238
f 1135 238 687
f 1135 687 686
f 1135 686 237
f 1136 238 239
f 1136 239 688
f 1136 688 687
f 1136 687 238
f 1137 239 240
f 1137 240 689
f 1137 689 688
f 1137 688 239
f 1138 240 241
f 1138 241 690
f 1138 690 689
f 1138 689 240
f 1139 241 242
f 1139 242 691
f 1139 691 690
f 1139 690 241
f 1140 242 243
f 1140 243 692
f 1140 692 691
f 1140 691 242
f 1141 243 244
f 1141 244 693
f 1141 693 692
f 1141 692 243
f 1142 244 245
f 1142 245 694
f 1142 694 693
f 1142 693 244
f 1143 245 246
f 1143 246 695
f 1143 695 694
f 1143 694 245
f 1144 246 247
f 1144 247 696
f 1144 696 695
f 1144 695 246
f 1145 247 248
f 1145 248 697
f 1145 697 696
f 1145 696 247
f 1146 248 249
f 1146 249 698
f 1146 698 697
f 1146 697 248
f 1147 249 250
f 1147 250 699
f 1147 699 698
f 1147 698 249
f 1148 250 251
f 1148 251 700
f 1148 700 699
f 1148 699 250
f 1149 251 252
f 1149 252 701
f 1149 701 700
f 1149 700 251
f 1150 252 253
f 1150 253 702
f 1150 702 701
f 1150 701 252
f 1151 253 254
f 1151 254 703
f 1151 703 702
f 1151 702 253
f 1152 254 255
f 1152 255 704
f 1152 704 703
f 1152 703 254
f 1153 255 256
f 1153 256 705
f 1153 705 704
f 1153 704 255
f 1154 256 257
f 1154 257 706
f 1154 706 705
f 1154 705 256
f 1155 257 258
f 1155 258 707
f 1155 707 706
f 1155 706 257
f 1156 258 259
f 1156 259 708
f 1156 708 707
f 1156 707 258
f 1157 259 260
f 1157 260 709
f 1157 709 708
f 1157 708 259
f 1158 260 261
f 1158 261 710
f 1158 710 709
f 1158 709 260
f 1159 261 262
f 1159 262 711
f 1159 711 710
f 1159 710 261
f 1160 262 263
f 1160 263 712
f 1160 712 711
f 1160 711 262
f 1161 263 264
f 1161 264 713
f 1161 713 712
f 1161 712 263
f 1162 264 265
f 1162 265 714
f 1162 714 713
f 1162 713 264
f 1163 265 266
f 1163 266 715
f 1163 715 714
f 1163 714 265
f 1164 266 267
f 1164 267 716
f 1164 716 715
f 1164 715 266
f 1165 267 268
f 1165 268 717
f 1165 717 716
f 1165 716 267
f 1166 268 269
f 1166 269 718
f 1166 718 717
f 1166 717 268
f 1167 269 270
f 1167 270 719
f 1167 719 718
f 1167 718 269
f 1168 270 271
f 1168 271 720
f 1168 720 719
f 1168 719 270
f 1169 271 272
f 1169 272 721
f 1169 721 720
f 1169 720 271
f 1170 272 273
f 1170 273 722
f 1170 722 721
f 1170 721 272
f 1171 273 274
f 1171 274 723
f 1171 723 722
f 1171 722 273
f 1172 274 275
f 1172 275 724
f 1172 724 723
f 1172 723 274
f 1173 275 276
f 1173 276 725
f 1173 725 724
f 1173 724 275
f 1174 276 277
f 1174 277 726
f 1174 726 725
f 1174 725 276
f 1175 277 278
f 1175 278 727
f 1175 727 726
f 1175 726 277
f 1176 278 279
f 1176 279 728
f 1176 728 727
f 1176 727 278
f 1177 279 280
f 1177 280 729
f 1177 729 728
f 1177 728 279
f 1178 280 281
f 1178 281 730
f 1178 730 729
f 1178 729 280
f 1179 281 282
f 1179 282 731
f 1179 731 730
f 1179 730 281
f 1180 282 283
f 1180 283 732
f 1180 732 731
f 1180 731 282
f 1181 283 284
f 1181 284 733
f 1181 733 732
f 1181 732 283
f 1182 284 285
f 1182 285 734
f 1182 734 733
f 1182 733 284
f 1183 285 286
f 1183 286 735
f 1183 735 734
f 1183 734 285
f 1184 286 287
f 1184 287 736
f 1184 736 735
f 1184 735 286
f 1185 287 288
f 1185 288 737
f 1185 737 736
f 1185 736 287
f 1186 288 289
f 1186 289 738
f 1186 738 737
f 1186 737 288
f 1187 289 290
f 1187 290 739
f 1187 739 738
f 1187 738 289
f 1188 290 291
f 1188 291 740
f 1188 740 739
f 1188 739 290
f 1189 291 292
f 1189 292 741
f 1189 741 740
f 1189 740 291
f 1190 292 293
f 1190 293 742
f 1190 742 741
f 1190 741 292
f 1191 293 294
f 1191 294 743
f 1191 743 742
f 1191 742 293
f 1192 294 295
f 1192 295 744
f 1192 744 743
f 1192 743 294
f 1193 295 296
f 1193 296 745
f 1193 745 744
f 1193 744 295
f 1194 296 297
f 1194 297 746
f 1194 746 745
f 1194 745 296
f 1195 297 298
f 1195 298 747
f 1195 747 746
f 1195 746 297
f 1196 298 299
f 1196 299 748
f 1196 748 747
f 1196 747 298
f 1197 299 300
f 1197 300 749
f 1197 749 748
f 1197 748 299
f 1198 300 301
f 1198 301 750
f 1198 750 749
f 1198 749 300
f 1199 301 302
f 1199 302 751
f 1199 751 750
f 1199 750 301
f 1200 302 303
f 1200 303 752
f 1200 752 751
f 1200 751 302
f 1201 303 304
f 1201 304 753
f 1201 753 752
f 1201 752 303
f 1202 304 305
f 1202 305 754
f 1202 754 753
f 1202 753 304
f 1203 305 306
f 1203 306 755
f 1203 755 754
f 1203 754 305
f 1204 306 307
f 1204 307 756
f 1204 756 755
f 1204 755 306
f 1205 307 308
f 1205 308 757
f 1205 757 756
f 1205 756 307
f 1206 308 309
f 1206 309 758
f 1206 758 757
f 1206 757 308
f 1207 309 310
f 1207 310 759
f 1207 759 758
f 1207 758 309
f 1208 310 311
f 1208 311 760
f 1208 760 759
f 1208 759 310
f 1209 311 312
f 1209 312 761
f 1209 761 760
f 1209 760 311
f 1210 312 313
f 1210 313 762
f 1210 762 761
f 1210 761 312
f 1211 313 314
f 1211 314 763
f 1211 763 762
f 1211 762 313
f 1212 314 315
f 1212 315 764
f 1212 764 763
f 1212 763 314
f 1213 315 316
f 1213 316 765
f 1213 765 764
f 1213 764 315
f 1214 316 317
f 1214 317 766
f 1214 766 765
f 1214 765 316
f 1215 317 318
f 1215 318 767
f 1215 767 766
f 1215 766 317
f 1216 318 319
f 1216 319 768
f 1216 768 767
f 1216 767 318
f 1217 319 320
f 1217 320 769
f 1217 769 768
f 1217 768 319
f 1218 320 321
f 1218 321 770
f 1218 770 769
f 1218 769 320
f 1219 321 322
f 1219 322 771
f 1219 771 770
f 1219 770 321
f 1220 322 323
f 1220 323 772
f 1220 772 771
f 1220 771 322
f 1221 323 324
f 1221 324 773
f 1221 773 772
f 1221 772 323
f 1222 324 325
f 1222 325 774
f 1222 774 773
f 1222 773 324
f 1223 325 326
f 1223 326 775
f 1223 775 774
f 1223 774 325
f 1224 326 327
f 1224 327 776
f 1224 776 775
f 1224 775 326
f 1225 327 328
f 1225 328 777
f 1225 777 776
f 1225 776 327
f 1226 328 329
f 1226 329 778
f 1226 778 777
f 1226 777 328
f 1227 329 330
f 1227 330 779
f 1227 779 778
f 1227 778 329
f 1228 330 331
f 1228 331 780
f 1228 780 779
f 1228 779 330
f 1229 331 332
f 1229 332 781
f 1229 781 780
f 1229 780 331
f 1230 332 333
f 1230 333 782
f 1230 782 781
f 1230 781 332
f 1231 333 334
f 1231 334 783
f 1231 783 782
f 1231 782 333
f 1232 334 335
f 1232 335 784
f 1232 784 783
f 1232 783 334
f 1233 335 336
f 1233 336 785
f 1233 785 784
f 1233 784 335
f 1234 336 337
f 1234 337 786
f 1234 786 785
f 1234 785 336
f 1235 337 338
f 1235 338 787
f 1235 787 786
f 1235 786 337
f 1236 338 339
f 1236 339 788
f 1236 788 787
f 1236 787 338
f 1237 339 340
f 1237 340 789
f 1237 789 788
f 1237 788 339
f 1238 340 341
f 1238 341 790
f 1238 790 789
f 1238 789 340
f 1239 341 342
f 1239 342 791
f 1239 791 790
f 1239 790 341
f 1240 342 343
f 1240 343 792
f 1240 792 791
f 1240 791 342
f 1241 343 344
f 1241 344 793
f 1241 793 792
f 1241 792 343
f 1242 344 345
f 1242 345 794
f 1242 794 793
f 1242 793 344
f 1243 345 346
f 1243 346 795
f 1243 795 794
f 1243 794 345
f 1244 346 347
f 1244 347 796
f 1244 796 795
f 1244 795 346
f 1245 347 348
f 1245 348 797
f 1245 797 796
f 1245 796 347
f 1246 348 349
f 1246 349 798
f 1246 798 797
f 1246 797 348
f 1247 349 350
f 1247 350 799
f 1247 799 798
f 1247 798 349
f 1248 350 351
f 1248 351 800
f 1248 800 799
f 1248 799 350
f 1249 351 352
f 1249 352 801
f 1249 801 800
f 1249 800 351
f 1250 352 353
f 1250 353 802
f 1250 802 801
f 1250 801 352
f 1251 353 354
f 1251 354 803
f 1251 803 802
f 1251 802 353
f 1252 354 355
f 1252 355 804
f 1252 804 803
f 1252 803 354
f 1253 355 356
f 1253 356 805
f 1253 805 804
f 1253 804 355
f 1254 356 357
f 1254 357 806
f 1254 806 805
f 1254 805 356
f 1255 357 358
f 1255 358 807
f 1255 807 806
f 1255 806 357
f 1256 358 359
f 1256 359 808
f 1256 808 807
f 1256 807 358
f 1257 359 360
f 1257 360 809
f 1257 809 808
f 1257 808 359
f 1258 360 361
f 1258 361 810
f 1258 810 809
f 1258 809 360
f 1259 361 362
f 1259 362 811
f 1259 811 810
f 1259 810 361
f 1260 362 363
f 1260 363 812
f 1260 812 811
f 1260 811 362
f 1261 363 364
f 1261 364 813
f 1261 813 812
f 1261 812 363
f 1262 364 365
f 1262 365 814
f 1262 814 813
f 1262 813 364
f 1263 365 366
f 1263 366 815
f 1263 815 814
f 1263 814 365
f 1264 366 367
f 1264 367 816
f 1264 816 815
f 1264 815 366
f 1265 367 368
f 1265 368 817
f 1265 817 816
f 1265 816 367
f 1266 368 369
f 1266 369 818
f 1266 818 817
f 1266 817 368
f 1267 369 370
f 1267 370 819
f 1267 819 818
f 1267 818 369
f 1268 370 371
f 1268 371 820
f 1268 820 819
f 1268 819 370
f 1269 371 372
f 1269 372 821
f 1269 821 820
f 1269 820 371
f 1270 372 373
f 1270 373 822
f 1270 822 821
f 1270 821 372
f 1271 373 374
f 1271 374 823
f 1271 823 822
f 1271 822 373
f 1272 374 375
f 1272 375 824
f 1272 824 823
f 1272 823 374
f 1273 375 376
f 1273 376 825
f 1273 825 824
f 1273 824 375
f 1274 376 377
f 1274 377 826
f 1274 826 825
f 1274 825 376
f 1275 377 378
f 1275 378 827
f 1275 827 826
f 1275 826 377
f 1276 378 379
f 1276 379 828
f 1276 828 827
f 1276 827 378
f 1277 379 380
f 1277 380 829
f 1277 829 828
f 1277 828 379
f 1278 380 381
f 1278 381 830
f 1278 830 829
f 1278 829 380
f 1279 381 382
f 1279 382 831
f 1279 831 830
f 1279 830 381
f 1280 382 383
f 1280 383 832
f 1280 832 831
f 1280 831 382
f 1281 383 384
f 1281 384 833
f 1281 833 832
f 1281 832 383
f 1282 384 385
f 1282 385 834
f 1282 834 833
f 1282 833 384
f 1283 385 386
f 1283 386 835
f 1283 835 834
f 1283 834 385
f 1284 386 387
f 1284 387 836
f 1284 836 835
f 1284 835 386
f 1285 387 388
f 1285 388 837
f 1285 837 836
f 1285 836 387
f 1286 388 389
f 1286 389 838
f 1286 838 837
f 1286 837 388
f 1287 389 390
f 1287 390 839
f 1287 839 838
f 1287 838 389
f 1288 390 391
f 1288 391 840
f 1288 840 839
f 1288 839 390
f 1289 391 392
f 1289 392 841
f 1289 841 840
f 1289 840 391
f 1290 392 393
f 1290 393 842
f 1290 842 841
f 1290 841 392
f 1291 393 394
f 1291 394 843
f 1291 843 842
f 1291 842 393
f 1292 394 395
f 1292 395 844
f 1292 844 843
f 1292 843 394
f 1293 395 396
f 1293 396 845
f 1293 845 844
f 1293 844 395
f 1294 396 397
f 1294 397 846
f 1294 846 845
f 1294 845 396
f 1295 397 398
f 1295 398 847
f 1295 847 846
f 1295 846 397
f 1296 398 399
f 1296 399 848
f 1296 848 847
f 1296 847 398
f 1297 399 400
f 1297 400 849
f 1297 849 848
f 1297 848 399
f 1298 400 401
f 1298 401 850
f 1298 850 849
f 1298 849 400
f 1299 401 402
f 1299 402 851
f 1299 851 850
f 1299 850 401
f 1300 402 403
f 1300 403 852
f 1300 852 851
f 1300 851 402
f 1301 403 404
f 1301 404 853
f 1301 853 852
f 1301 852 403
f 1302 404 405
f 1302 405 854
f 1302 854 853
f 1302 853 404
f 1303 405 406
f 1303 406 855
f 1303 855 854
f 1303 854 405
f 1304 406 407
f 1304 407 856
f 1304 856 855
f 1304 855 406
f 1305 407 408
f 1305 408 857
f 1305 857 856
f 1305 856 407
f 1306 408 409
f 1306 409 858
f 1306 858 857
f 1306 857 408
f 1307 409 410
f 1307 410 859
f 1307 859 858
f 1307 858 409
f 1308 410 411
f 1308 411 860
f 1308 860 859
f 1308 859 410
f 1309 411 412
f 1309 412 861
f 1309 861 860
f 1309 860 411
f 1310 412 413
f 1310 413 862
f 1310 862 861
f 1310 861 412
f 1311 413 414
f 1311 414 863
f 1311 863 862
f 1311 862 413
f 1312 414 415
f 1312 415 864
f 1312 864 863
f 1312 863 414
f 1313 415 416
f 1313 416 865
f 1313 865 864
f 1313 864 415
f 1314 416 417
f 1314 417 866
f 1314 866 865
f 1314 865 416
f 1315 417 418
f 1315 418 867
f 1315 867 866
f 1315 866 417
f 1316 418 419
f 1316 419 868
f 1316 868 867
f 1316 867 418
f 1317 419 420
f 1317 420 869
f 1317 869 868
f 1317 868 419
f 1318 420 421
f 1318 421 870
f 1318 870 869
f 1318 869 420
f 1319 421 422
f 1319 422 871
f 1319 871 870
f 1319 870 421
f 1320 422 423
f 1320 423 872
f 1320 872 871
f 1320 871 422
f 1321 423 424
f 1321 424 873
f 1321 873 872
f 1321 872 423
f 1322 424 425
f 1322 425 874
f 1322 874 873
f 1322 873 424
f 1323 425 426
f 1323 426 875
f 1323 875 874
f 1323 874 425
f 1324 426 427
f 1324 427 876
f 1324 876 875
f 1324 875 426
f 1325 427 428
f 1325 428 877
f 1325 877 876
f 1325 876 427
f 1326 428 429
f 1326 429 878
f 1326 878 877
f 1326 877 428
f 1327 429 430
f 1327 430 879
f 1327 879 878
f 1327 878 429
f 1328 430 431
f 1328 431 880
f 1328 880 879
f 1328 879 430
f 1329 431 432
f 1329 432 881
f 1329 881 880
f 1329 880 431
f 1330 432 433
f 1330 433 882
f 1330 882 881
f 1330 881 432
f 1331 433 434
f 1331 434 883
f 1331 883 882
f 1331 882 433
f 1332 434 435
f 1332 435 884
f 1332 884 883
f 1332 883 434
f 1333 435 436
f 1333 436 885
f 1333 885 884
f 1333 884 435
f 1334 436 437
f 1334 437 886
f 1334 886 885
f 1334 885 436
f 1335 437 438
f 1335 438 887
f 1335 887 886
f 1335 886 437
f 1336 438 439
f 1336 439 888
f 1336 888 887
f 1336 887 438
f 1337 439 440
f 1337 440 889
f 1337 889 888
f 1337 888 439
f 1338 440 441
f 1338 441 890
f 1338 890 889
f 1338 889 440
f 1339 441 442
f 1339 442 891
f 1339 891 890
f 1339 890 441
f 1340 442 443
f 1340 443 892
f 1340 892 891
f 1340 891 442
f 1341 443 444
f 1341 444 893
f 1341 893 892
f 1341 892 443
f 1342 444 445
f 1342 445 894
f 1342 894 893
f 1342 893 444
f 1343 445 446
f 1343 446 895
f 1343 895 894
f 1343 894 445
f 1344 446 447
f 1344 447 896
f 1344 896 895
f 1344 895 446
f 1345 447 448
f 1345 448 897
f 1345 897 896
f 1345 896 447
f 1346 448 449
f 1346 449 898
f 1346 898 897
f 1346 897 448
f 1347 449 1
f 1347 1 450
f 1347 450 898
f 1347 898 449
