v 3.4414 -1.9892 -0.5295
v 1.5056 1.3700 -0.5295
v 0.8825 1.3700 -0.5295
v 2.5075 -1.4484 -0.5295
v 1.5513 -1.4501 -0.5295
v 1.2401 -1.9875 -0.5295
v 3.4414 -1.9892 0.5295
v 1.5056 1.3700 0.5295
v 0.8825 1.3700 0.5295
v 2.5075 -1.4484 0.5295
v 1.5513 -1.4501 0.5295
v 1.2401 -1.9875 0.5295
v 2.4735 -0.3096 -0.0000
v 1.1941 1.3700 -0.0000
v 1.6950 -0.0392 -0.0000
v 2.0294 -1.4492 -0.0000
v 1.3957 -1.7188 -0.0000
v 2.3407 -1.9884 -0.0000
f 12 10 11
f 10 12 7
f 10 7 8
f 10 8 9
f 4 6 5
f 6 4 1
f 1 4 2
f 2 4 3
f 13 1 2
f 13 2 8
f 13 8 7
f 13 7 1
f 14 2 3
f 14 3 9
f 14 9 8
f 14 8 2
f 15 3 4
f 15 4 10
f 15 10 9
f 15 9 3
f 16 4 5
f 16 5 11
f 16 11 10
f 16 10 4
f 17 5 6
f 17 6 12
f 17 12 11
f 17 11 5
f 18 6 1
f 18 1 7
f 18 7 12
f 18 12 6
v 0.4366 -1.9896 -0.5295
v 0.7480 -1.4559 -0.5295
v -2.5112 -1.4519 -0.5295
v -2.0263 -0.6063 -0.5295
v -2.3369 -0.0685 -0.5295
v -3.4458 -1.9915 -0.5295
v 0.4366 -1.9896 0.5295
v 0.7480 -1.4559 0.5295
v -2.5112 -1.4519 0.5295
v -2.0263 -0.6063 0.5295
v -2.3369 -0.0685 0.5295
v -3.4458 -1.9915 0.5295
v 0.5923 -1.7228 -0.0000
v -0.8816 -1.4539 -0.0000
v -2.2688 -1.0291 -0.0000
v -2.1816 -0.3374 -0.0000
v -2.8913 -1.0300 -0.0000
v -1.5046 -1.9906 -0.0000
f 30 27 29
f 27 30 25
f 29 27 28
f 26 27 25
f 21 24 23
f 24 21 19
f 21 23 22
f 21 20 19
f 31 19 20
f 31 20 26
f 31 26 25
f 31 25 19
f 32 20 21
f 32 21 27
f 32 27 26
f 32 26 20
f 33 21 22
f 33 22 28
f 33 28 27
f 33 27 21
f 34 22 23
f 34 23 29
f 34 29 28
f 34 28 22
f 35 23 24
f 35 24 30
f 35 30 29
f 35 29 23
f 36 24 19
f 36 19 25
f 36 25 30
f 36 30 24
v 2.3358 0.0666 -0.5295
v 3.4458 1.9891 -0.5295
v -0.4380 1.9893 -0.5295
v -0.7483 1.4558 -0.5295
v 2.5109 1.4500 -0.5295
v 2.0256 0.6046 -0.5295
v 2.3358 0.0666 0.5295
v 3.4458 1.9891 0.5295
v -0.4380 1.9893 0.5295
v -0.7483 1.4558 0.5295
v 2.5109 1.4500 0.5295
v 2.0256 0.6046 0.5295
v 2.8908 1.0278 -0.0000
v 1.5039 1.9892 -0.0000
v -0.5932 1.7226 -0.0000
v 0.8813 1.4529 -0.0000
v 2.2682 1.0273 -0.0000
v 2.1807 0.3356 -0.0000
f 46 47 45
f 43 44 47
f 47 44 45
f 43 47 48
f 41 40 39
f 38 37 41
f 38 41 39
f 41 37 42
f 49 37 38
f 49 38 44
f 49 44 43
f 49 43 37
f 50 38 39
f 50 39 45
f 50 45 44
f 50 44 38
f 51 39 40
f 51 40 46
f 51 46 45
f 51 45 39
f 52 40 41
f 52 41 47
f 52 47 46
f 52 46 40
f 53 41 42
f 53 42 48
f 53 48 47
f 53 47 41
f 54 42 37
f 54 37 43
f 54 43 48
f 54 48 42
v -0.8886 -1.3780 -0.5295
v -2.5109 1.4488 -0.5295
v -1.5361 1.4504 -0.5295
v -1.2249 1.9878 -0.5295
v -3.4447 1.9896 -0.5295
v -1.5044 -1.3780 -0.5295
v -0.8886 -1.3780 0.5295
v -2.5109 1.4488 0.5295
v -1.5361 1.4504 0.5295
v -1.2249 1.9878 0.5295
v -3.4447 1.9896 0.5295
v -1.5044 -1.3780 0.5295
v -1.6998 0.0354 -0.0000
v -2.0236 1.4496 -0.0000
v -1.3805 1.7191 -0.0000
v -2.3348 1.9887 -0.0000
v -2.4746 0.3058 -0.0000
v -1.1965 -1.3780 -0.0000
f 64 65 62
f 62 65 66
f 62 66 61
f 64 62 63
f 59 58 56
f 59 56 60
f 60 56 55
f 56 58 57
f 67 55 56
f 67 56 62
f 67 62 61
f 67 61 55
f 68 56 57
f 68 57 63
f 68 63 62
f 68 62 56
f 69 57 58
f 69 58 64
f 69 64 63
f 69 63 57
f 70 58 59
f 70 59 65
f 70 65 64
f 70 64 58
f 71 59 60
f 71 60 66
f 71 66 65
f 71 65 59
f 72 60 55
f 72 55 61
f 72 61 66
f 72 66 60
v 0.0038 -3.9754 -0.5295
v 1.9432 -0.6045 -0.5295
v 1.6328 -0.0739 -0.5295
v 0.0027 -2.8963 -0.5295
v -0.4881 -2.0541 -0.5295
v -1.1092 -2.0547 -0.5295
v 0.0038 -3.9754 0.5295
v 1.9432 -0.6045 0.5295
v 1.6328 -0.0739 0.5295
v 0.0027 -2.8963 0.5295
v -0.4881 -2.0541 0.5295
v -1.1092 -2.0547 0.5295
v 0.9735 -2.2900 -0.0000
v 1.7880 -0.3392 -0.0000
v 0.8178 -1.4851 -0.0000
v -0.2427 -2.4752 -0.0000
v -0.7987 -2.0544 -0.0000
v -0.5527 -3.0151 -0.0000
f 84 82 83
f 82 84 79
f 82 80 81
f 80 82 79
f 76 78 77
f 78 76 73
f 74 76 75
f 76 74 73
f 85 73 74
f 85 74 80
f 85 80 79
f 85 79 73
f 86 74 75
f 86 75 81
f 86 81 80
f 86 80 74
f 87 75 76
f 87 76 82
f 87 82 81
f 87 81 75
f 88 76 77
f 88 77 83
f 88 83 82
f 88 82 76
f 89 77 78
f 89 78 84
f 89 84 83
f 89 83 77
f 90 78 73
f 90 73 79
f 90 79 84
f 90 84 78
v 1.1115 2.0536 -0.5295
v 0.0006 3.9754 -0.5295
v -1.9488 0.5898 -0.5295
v -1.6325 0.0757 -0.5295
v 0.0006 2.8963 -0.5295
v 0.4905 2.0536 -0.5295
v 1.1115 2.0536 0.5295
v 0.0006 3.9754 0.5295
v -1.9488 0.5898 0.5295
v -1.6325 0.0757 0.5295
v 0.0006 2.8963 0.5295
v 0.4905 2.0536 0.5295
v 0.5561 3.0145 0.0000
v -0.9741 2.2826 0.0000
v -1.7907 0.3327 0.0000
v -0.8160 1.4860 0.0000
v 0.2455 2.4749 0.0000
v 0.8010 2.0536 0.0000
f 99 100 101
f 99 101 98
f 101 97 98
f 97 101 102
f 94 93 95
f 95 93 92
f 91 95 92
f 95 91 96
f 103 91 92
f 103 92 98
f 103 98 97
f 103 97 91
f 104 92 93
f 104 93 99
f 104 99 98
f 104 98 92
f 105 93 94
f 105 94 100
f 105 100 99
f 105 99 93
f 106 94 95
f 106 95 101
f 106 101 100
f 106 100 94
f 107 95 96
f 107 96 102
f 107 102 101
f 107 101 95
f 108 96 91
f 108 91 97
f 108 97 102
f 108 102 96
