o horseshoe-icon-001
v -0.0210 0.0463 0.0031
v -0.0130 0.0460 0.0031
v -0.0230 0.0463 0.0031
v -0.0211 0.0443 0.0031
v -0.0144 0.0439 0.0031
v -0.0230 0.0443 0.0031
v -0.0129 0.0481 0.0031
v -0.0209 0.0483 0.0031
v -0.0229 0.0483 0.0031
v -0.0191 0.0252 0.0031
v -0.0178 0.0201 0.0031
v -0.0150 0.0161 0.0031
v -0.0191 0.0303 0.0031
v -0.0179 0.0361 0.0031
v -0.0156 0.0423 0.0031
v -0.0161 0.0410 0.0031
v 0.0000 0.0034 0.0031
v -0.0167 0.0452 0.0031
v -0.0166 0.0482 0.0031
v -0.0220 0.0250 0.0031
v -0.0209 0.0192 0.0031
v -0.0192 0.0138 0.0031
v -0.0217 0.0306 0.0031
v -0.0205 0.0364 0.0031
v -0.0183 0.0426 0.0031
v -0.0188 0.0413 0.0031
v -0.0206 0.0251 0.0031
v -0.0193 0.0196 0.0031
v -0.0143 0.0118 0.0031
v -0.0204 0.0305 0.0031
v -0.0192 0.0362 0.0031
v -0.0169 0.0425 0.0031
v -0.0144 0.0465 0.0031
v -0.0174 0.0411 0.0031
v 0.0000 0.0020 0.0031
v -0.0183 0.0467 0.0031
v -0.0202 0.0414 0.0031
v -0.0235 0.0249 0.0031
v -0.0225 0.0188 0.0031
v -0.0202 0.0132 0.0031
v -0.0164 0.0085 0.0031
v -0.0115 0.0050 0.0031
v -0.0060 0.0028 0.0031
v -0.0231 0.0308 0.0031
v -0.0218 0.0366 0.0031
v -0.0197 0.0427 0.0031
v -0.0171 0.0385 0.0031
v -0.0198 0.0388 0.0031
v -0.0184 0.0387 0.0031
v -0.0211 0.0390 0.0031
v -0.0187 0.0332 0.0031
v -0.0213 0.0335 0.0031
v -0.0200 0.0334 0.0031
v -0.0226 0.0337 0.0031
v -0.0193 0.0278 0.0031
v -0.0220 0.0278 0.0031
v -0.0206 0.0278 0.0031
v -0.0235 0.0279 0.0031
v -0.0187 0.0226 0.0031
v -0.0217 0.0221 0.0031
v -0.0202 0.0224 0.0031
v -0.0232 0.0219 0.0031
v -0.0182 0.0171 0.0031
v -0.0215 0.0159 0.0031
v -0.0138 0.0143 0.0031
v -0.0175 0.0115 0.0031
v -0.0185 0.0108 0.0031
v -0.0108 0.0110 0.0031
v -0.0129 0.0082 0.0031
v -0.0118 0.0097 0.0031
v -0.0141 0.0067 0.0031
v -0.0088 0.0038 0.0031
v -0.0030 0.0023 0.0031
v -0.0251 0.0248 -0.0024
v -0.0243 0.0183 -0.0024
v -0.0218 0.0123 -0.0024
v -0.0178 0.0071 -0.0024
v -0.0125 0.0032 -0.0024
v -0.0064 0.0009 -0.0024
v 0.0000 0.0000 -0.0024
v -0.0165 0.0254 -0.0024
v -0.0150 0.0208 -0.0024
v -0.0127 0.0174 -0.0024
v -0.0100 0.0150 -0.0024
v -0.0069 0.0131 -0.0024
v -0.0037 0.0121 -0.0024
v 0.0000 0.0117 -0.0024
v -0.0244 0.0310 -0.0024
v -0.0167 0.0301 -0.0024
v -0.0232 0.0368 -0.0024
v -0.0156 0.0357 -0.0024
v -0.0212 0.0429 -0.0024
v -0.0131 0.0421 -0.0024
v -0.0208 0.0502 -0.0024
v -0.0130 0.0502 -0.0024
v -0.0210 0.0463 -0.0024
v -0.0130 0.0460 -0.0024
v -0.0244 0.0433 -0.0024
v -0.0244 0.0499 -0.0024
v -0.0250 0.0463 -0.0024
v -0.0230 0.0463 -0.0024
v -0.0229 0.0502 -0.0024
v -0.0231 0.0429 -0.0024
v -0.0211 0.0443 -0.0024
v -0.0144 0.0439 -0.0024
v -0.0250 0.0443 -0.0024
v -0.0230 0.0443 -0.0024
v -0.0129 0.0484 -0.0024
v -0.0209 0.0485 -0.0024
v -0.0250 0.0485 -0.0024
v -0.0229 0.0485 -0.0024
v -0.0216 0.0416 -0.0024
v -0.0114 0.0494 -0.0024
v -0.0105 0.0462 -0.0024
v -0.0118 0.0440 -0.0024
v -0.0105 0.0478 -0.0024
v 0.0000 0.0077 -0.0024
v -0.0191 0.0252 -0.0024
v -0.0178 0.0201 -0.0024
v -0.0155 0.0158 -0.0024
v -0.0126 0.0124 -0.0024
v -0.0088 0.0097 -0.0024
v -0.0046 0.0082 -0.0024
v -0.0191 0.0303 -0.0024
v -0.0179 0.0361 -0.0024
v -0.0156 0.0423 -0.0024
v -0.0136 0.0407 -0.0024
v -0.0161 0.0410 -0.0024
v 0.0000 0.0041 -0.0024
v -0.0168 0.0502 -0.0024
v -0.0164 0.0465 -0.0024
v -0.0166 0.0457 -0.0024
v -0.0166 0.0476 -0.0024
v -0.0220 0.0250 -0.0024
v -0.0209 0.0192 -0.0024
v -0.0187 0.0141 -0.0024
v -0.0150 0.0100 -0.0024
v -0.0105 0.0067 -0.0024
v -0.0055 0.0048 -0.0024
v -0.0217 0.0306 -0.0024
v -0.0205 0.0364 -0.0024
v -0.0183 0.0426 -0.0024
v -0.0188 0.0413 -0.0024
v -0.0149 0.0502 -0.0024
v -0.0206 0.0251 -0.0024
v -0.0193 0.0196 -0.0024
v -0.0170 0.0150 -0.0024
v -0.0137 0.0113 -0.0024
v -0.0096 0.0084 -0.0024
v -0.0050 0.0067 -0.0024
v -0.0204 0.0305 -0.0024
v -0.0192 0.0362 -0.0024
v -0.0169 0.0425 -0.0024
v 0.0000 0.0061 -0.0024
v -0.0149 0.0461 -0.0024
v -0.0159 0.0461 -0.0024
v -0.0159 0.0472 -0.0024
v -0.0174 0.0411 -0.0024
v 0.0000 0.0020 -0.0024
v -0.0178 0.0467 -0.0024
v -0.0174 0.0461 -0.0024
v -0.0173 0.0473 -0.0024
v -0.0202 0.0414 -0.0024
v -0.0188 0.0502 -0.0024
v -0.0235 0.0249 -0.0024
v -0.0225 0.0188 -0.0024
v -0.0202 0.0132 -0.0024
v -0.0164 0.0085 -0.0024
v -0.0115 0.0050 -0.0024
v -0.0060 0.0028 -0.0024
v -0.0231 0.0308 -0.0024
v -0.0218 0.0366 -0.0024
v -0.0197 0.0427 -0.0024
v -0.0225 0.0392 -0.0024
v -0.0147 0.0382 -0.0024
v -0.0171 0.0385 -0.0024
v -0.0198 0.0388 -0.0024
v -0.0184 0.0387 -0.0024
v -0.0211 0.0390 -0.0024
v -0.0240 0.0339 -0.0024
v -0.0163 0.0329 -0.0024
v -0.0187 0.0332 -0.0024
v -0.0213 0.0335 -0.0024
v -0.0200 0.0334 -0.0024
v -0.0226 0.0337 -0.0024
v -0.0249 0.0279 -0.0024
v -0.0168 0.0277 -0.0024
v -0.0193 0.0278 -0.0024
v -0.0220 0.0278 -0.0024
v -0.0206 0.0278 -0.0024
v -0.0235 0.0279 -0.0024
v -0.0249 0.0216 -0.0024
v -0.0159 0.0231 -0.0024
v -0.0187 0.0226 -0.0024
v -0.0217 0.0221 -0.0024
v -0.0202 0.0224 -0.0024
v -0.0232 0.0219 -0.0024
v -0.0233 0.0152 -0.0024
v -0.0140 0.0190 -0.0024
v -0.0167 0.0179 -0.0024
v -0.0198 0.0166 -0.0024
v -0.0183 0.0172 -0.0024
v -0.0215 0.0159 -0.0024
v -0.0200 0.0096 -0.0024
v -0.0115 0.0161 -0.0024
v -0.0143 0.0140 -0.0024
v -0.0170 0.0119 -0.0024
v -0.0156 0.0130 -0.0024
v -0.0185 0.0108 -0.0024
v -0.0152 0.0051 -0.0024
v -0.0086 0.0140 -0.0024
v -0.0108 0.0110 -0.0024
v -0.0129 0.0082 -0.0024
v -0.0118 0.0097 -0.0024
v -0.0141 0.0067 -0.0024
v -0.0096 0.0019 -0.0024
v -0.0054 0.0126 -0.0024
v -0.0068 0.0089 -0.0024
v -0.0081 0.0057 -0.0024
v -0.0074 0.0075 -0.0024
v -0.0088 0.0038 -0.0024
v -0.0032 0.0003 -0.0024
v -0.0019 0.0118 -0.0024
v -0.0023 0.0078 -0.0024
v -0.0028 0.0043 -0.0024
v -0.0025 0.0063 -0.0024
v -0.0030 0.0023 -0.0024
v -0.0161 0.0440 0.0031
v -0.0177 0.0441 0.0031
v -0.0149 0.0482 0.0031
v -0.0168 0.0483 0.0031
v -0.0150 0.0467 0.0031
v -0.0194 0.0442 0.0031
v -0.0188 0.0483 0.0031
v -0.0190 0.0462 0.0031
v -0.0161 0.0440 -0.0024
v -0.0177 0.0441 -0.0024
v -0.0148 0.0484 -0.0024
v -0.0168 0.0484 -0.0024
v -0.0154 0.0466 -0.0024
v -0.0194 0.0442 -0.0024
v -0.0188 0.0484 -0.0024
v -0.0190 0.0462 -0.0024
v -0.0155 0.0456 0.0031
v -0.0154 0.0478 0.0031
v -0.0178 0.0457 0.0031
v -0.0178 0.0478 0.0031
v -0.0158 0.0459 -0.0024
v -0.0166 0.0458 -0.0024
v -0.0158 0.0473 -0.0024
v -0.0166 0.0475 -0.0024
v -0.0156 0.0466 -0.0024
v -0.0175 0.0460 -0.0024
v -0.0174 0.0474 -0.0024
v -0.0176 0.0467 -0.0024
v -0.0137 0.0113 0.0031
v -0.0126 0.0124 0.0031
v -0.0135 0.0146 0.0031
v -0.0147 0.0163 0.0031
v -0.0178 0.0113 0.0031
v -0.0195 0.0136 0.0031
v -0.0150 0.0100 0.0031
v -0.0167 0.0179 0.0031
v -0.0198 0.0166 0.0031
v -0.0183 0.0172 0.0031
v -0.0110 0.0093 0.0031
v -0.0090 0.0104 0.0031
v -0.0023 0.0085 0.0031
v -0.0047 0.0090 0.0031
v -0.0072 0.0099 0.0031
v -0.0090 0.0054 0.0031
v -0.0110 0.0067 0.0031
v -0.0029 0.0036 0.0031
v -0.0059 0.0043 0.0031
v 0.0000 0.0083 0.0031
v -0.0136 0.0130 0.0031
v -0.0159 0.0111 0.0031
v -0.0166 0.0171 0.0031
v -0.0193 0.0156 0.0031
v -0.0180 0.0253 0.0031
v -0.0165 0.0204 0.0031
v -0.0141 0.0166 0.0031
v -0.0115 0.0135 0.0031
v -0.0081 0.0114 0.0031
v -0.0043 0.0102 0.0031
v -0.0181 0.0302 0.0031
v -0.0169 0.0359 0.0031
v -0.0145 0.0422 0.0031
v -0.0119 0.0481 0.0031
v -0.0119 0.0461 0.0031
v -0.0133 0.0440 0.0031
v -0.0209 0.0489 0.0031
v 0.0000 0.0096 0.0031
v -0.0150 0.0409 0.0031
v -0.0161 0.0384 0.0031
v -0.0176 0.0331 0.0031
v -0.0182 0.0278 0.0031
v -0.0175 0.0228 0.0031
v -0.0155 0.0184 0.0031
v -0.0128 0.0151 0.0031
v -0.0099 0.0123 0.0031
v -0.0065 0.0109 0.0031
v -0.0021 0.0098 0.0031
v -0.0180 0.0253 -0.0024
v -0.0165 0.0204 -0.0024
v -0.0142 0.0165 -0.0024
v -0.0114 0.0136 -0.0024
v -0.0080 0.0113 -0.0024
v -0.0042 0.0100 -0.0024
v -0.0180 0.0302 -0.0024
v -0.0169 0.0359 -0.0024
v -0.0145 0.0422 -0.0024
v -0.0118 0.0481 -0.0024
v -0.0119 0.0461 -0.0024
v -0.0133 0.0440 -0.0024
v -0.0129 0.0488 0.0031
v 0.0000 0.0095 -0.0024
v -0.0150 0.0409 -0.0024
v -0.0160 0.0384 -0.0024
v -0.0176 0.0331 -0.0024
v -0.0181 0.0278 -0.0024
v -0.0174 0.0228 -0.0024
v -0.0155 0.0184 -0.0024
v -0.0130 0.0149 -0.0024
v -0.0098 0.0123 -0.0024
v -0.0062 0.0105 -0.0024
v -0.0021 0.0096 -0.0024
v -0.0236 0.0463 0.0031
v -0.0229 0.0489 0.0031
v -0.0168 0.0489 0.0031
v -0.0149 0.0488 0.0031
v -0.0188 0.0489 0.0031
v -0.0130 0.0492 -0.0024
v -0.0209 0.0493 -0.0024
v -0.0123 0.0486 0.0031
v -0.0229 0.0493 -0.0024
v -0.0168 0.0492 -0.0024
v -0.0149 0.0492 -0.0024
v -0.0188 0.0493 -0.0024
v -0.0234 0.0440 0.0031
v -0.0236 0.0444 0.0031
v -0.0235 0.0485 0.0031
v -0.0239 0.0463 -0.0024
v -0.0231 0.0440 0.0031
v -0.0239 0.0443 -0.0024
v -0.0239 0.0485 -0.0024
v -0.0233 0.0488 0.0031
v -0.0197 0.0440 0.0031
v 0.0000 0.0013 0.0031
v -0.0205 0.0414 0.0031
v -0.0239 0.0249 0.0031
v -0.0232 0.0186 0.0031
v -0.0208 0.0129 0.0031
v -0.0169 0.0080 0.0031
v -0.0119 0.0043 0.0031
v -0.0061 0.0021 0.0031
v -0.0234 0.0308 0.0031
v -0.0220 0.0366 0.0031
v -0.0214 0.0390 0.0031
v -0.0229 0.0337 0.0031
v -0.0238 0.0279 0.0031
v -0.0238 0.0218 0.0031
v -0.0222 0.0156 0.0031
v -0.0191 0.0103 0.0031
v -0.0145 0.0061 0.0031
v -0.0091 0.0031 0.0031
v -0.0031 0.0016 0.0031
v -0.0121 0.0488 -0.0024
v -0.0235 0.0492 -0.0024
v -0.0202 0.0435 -0.0024
v 0.0000 0.0012 -0.0024
v -0.0231 0.0435 -0.0024
v -0.0208 0.0415 -0.0024
v -0.0237 0.0438 -0.0024
v -0.0242 0.0249 -0.0024
v -0.0233 0.0186 -0.0024
v -0.0209 0.0128 -0.0024
v -0.0169 0.0080 -0.0024
v -0.0119 0.0042 -0.0024
v -0.0062 0.0020 -0.0024
v -0.0236 0.0309 -0.0024
v -0.0224 0.0366 -0.0024
v -0.0217 0.0391 -0.0024
v -0.0232 0.0338 -0.0024
v -0.0240 0.0279 -0.0024
v -0.0239 0.0218 -0.0024
v -0.0222 0.0156 -0.0024
v -0.0191 0.0103 -0.0024
v -0.0145 0.0060 -0.0024
v -0.0091 0.0030 -0.0024
v -0.0031 0.0015 -0.0024
v -0.0242 0.0249 0.0031
v -0.0251 0.0248 0.0022
v -0.0246 0.0249 0.0029
v -0.0249 0.0249 0.0026
v -0.0235 0.0186 0.0031
v -0.0243 0.0183 0.0022
v -0.0239 0.0185 0.0029
v -0.0242 0.0184 0.0026
v -0.0211 0.0127 0.0031
v -0.0218 0.0123 0.0022
v -0.0215 0.0125 0.0029
v -0.0217 0.0123 0.0026
v -0.0171 0.0078 0.0031
v -0.0178 0.0071 0.0022
v -0.0174 0.0075 0.0029
v -0.0177 0.0072 0.0026
v -0.0121 0.0040 0.0031
v -0.0125 0.0032 0.0022
v -0.0123 0.0036 0.0029
v -0.0124 0.0033 0.0026
v -0.0062 0.0017 0.0031
v -0.0064 0.0009 0.0022
v -0.0063 0.0013 0.0029
v -0.0064 0.0010 0.0026
v 0.0000 -0.0000 0.0022
v 0.0000 0.0009 0.0031
v 0.0000 0.0001 0.0026
v 0.0000 0.0004 0.0029
v -0.0165 0.0254 0.0022
v -0.0174 0.0253 0.0031
v -0.0167 0.0254 0.0026
v -0.0170 0.0254 0.0029
v -0.0150 0.0208 0.0022
v -0.0158 0.0206 0.0031
v -0.0151 0.0208 0.0026
v -0.0154 0.0207 0.0029
v -0.0127 0.0174 0.0022
v -0.0135 0.0170 0.0031
v -0.0128 0.0174 0.0026
v -0.0131 0.0172 0.0029
v -0.0100 0.0150 0.0022
v -0.0106 0.0144 0.0031
v -0.0101 0.0149 0.0026
v -0.0104 0.0147 0.0029
v -0.0069 0.0131 0.0022
v -0.0074 0.0124 0.0031
v -0.0070 0.0131 0.0026
v -0.0072 0.0128 0.0029
v -0.0037 0.0121 0.0022
v -0.0039 0.0113 0.0031
v -0.0037 0.0120 0.0026
v -0.0038 0.0117 0.0029
v 0.0000 0.0109 0.0031
v 0.0000 0.0117 0.0022
v 0.0000 0.0113 0.0029
v 0.0000 0.0116 0.0026
v -0.0244 0.0310 0.0022
v -0.0236 0.0309 0.0031
v -0.0243 0.0309 0.0026
v -0.0240 0.0309 0.0029
v -0.0167 0.0301 0.0022
v -0.0176 0.0302 0.0031
v -0.0168 0.0301 0.0026
v -0.0172 0.0301 0.0029
v -0.0232 0.0368 0.0022
v -0.0224 0.0366 0.0031
v -0.0231 0.0368 0.0026
v -0.0228 0.0367 0.0029
v -0.0156 0.0357 0.0022
v -0.0165 0.0359 0.0031
v -0.0157 0.0357 0.0026
v -0.0160 0.0358 0.0029
v -0.0212 0.0429 0.0022
v -0.0201 0.0437 0.0031
v -0.0210 0.0430 0.0026
v -0.0206 0.0433 0.0029
v -0.0131 0.0421 0.0022
v -0.0140 0.0422 0.0031
v -0.0133 0.0420 0.0026
v -0.0136 0.0421 0.0029
v -0.0208 0.0494 0.0031
v -0.0208 0.0502 0.0022
v -0.0208 0.0498 0.0029
v -0.0208 0.0501 0.0026
v -0.0130 0.0494 0.0031
v -0.0130 0.0502 0.0022
v -0.0130 0.0498 0.0029
v -0.0130 0.0501 0.0026
v -0.0244 0.0433 0.0022
v -0.0237 0.0438 0.0031
v -0.0243 0.0433 0.0026
v -0.0240 0.0435 0.0029
v -0.0244 0.0499 0.0022
v -0.0237 0.0492 0.0031
v -0.0243 0.0498 0.0026
v -0.0241 0.0495 0.0029
v -0.0250 0.0463 0.0022
v -0.0240 0.0463 0.0031
v -0.0248 0.0463 0.0026
v -0.0245 0.0463 0.0029
v -0.0229 0.0494 0.0031
v -0.0229 0.0502 0.0022
v -0.0229 0.0498 0.0029
v -0.0229 0.0501 0.0026
v -0.0231 0.0437 0.0031
v -0.0231 0.0429 0.0022
v -0.0231 0.0433 0.0029
v -0.0231 0.0430 0.0026
v -0.0239 0.0443 0.0031
v -0.0250 0.0443 0.0022
v -0.0244 0.0443 0.0029
v -0.0248 0.0443 0.0026
v -0.0240 0.0485 0.0031
v -0.0250 0.0485 0.0022
v -0.0245 0.0485 0.0029
v -0.0249 0.0485 0.0026
v -0.0216 0.0416 0.0022
v -0.0208 0.0415 0.0031
v -0.0215 0.0416 0.0026
v -0.0212 0.0416 0.0029
v -0.0114 0.0494 0.0022
v -0.0120 0.0489 0.0031
v -0.0115 0.0493 0.0026
v -0.0117 0.0491 0.0029
v -0.0105 0.0462 0.0022
v -0.0115 0.0461 0.0031
v -0.0107 0.0461 0.0026
v -0.0110 0.0461 0.0029
v -0.0128 0.0440 0.0031
v -0.0118 0.0440 0.0022
v -0.0124 0.0439 0.0029
v -0.0120 0.0440 0.0026
v -0.0116 0.0480 0.0031
v -0.0105 0.0478 0.0022
v -0.0111 0.0480 0.0029
v -0.0107 0.0479 0.0026
v -0.0145 0.0408 0.0031
v -0.0136 0.0407 0.0022
v -0.0141 0.0407 0.0029
v -0.0138 0.0407 0.0026
v -0.0168 0.0494 0.0031
v -0.0168 0.0502 0.0022
v -0.0168 0.0498 0.0029
v -0.0168 0.0501 0.0026
v -0.0149 0.0502 0.0022
v -0.0149 0.0494 0.0031
v -0.0149 0.0501 0.0026
v -0.0149 0.0498 0.0029
v -0.0188 0.0502 0.0022
v -0.0188 0.0494 0.0031
v -0.0188 0.0501 0.0026
v -0.0188 0.0498 0.0029
v -0.0217 0.0391 0.0031
v -0.0225 0.0392 0.0022
v -0.0221 0.0391 0.0029
v -0.0224 0.0392 0.0026
v -0.0156 0.0383 0.0031
v -0.0147 0.0382 0.0022
v -0.0152 0.0383 0.0029
v -0.0149 0.0382 0.0026
v -0.0232 0.0338 0.0031
v -0.0240 0.0339 0.0022
v -0.0236 0.0338 0.0029
v -0.0239 0.0339 0.0026
v -0.0172 0.0330 0.0031
v -0.0163 0.0329 0.0022
v -0.0168 0.0330 0.0029
v -0.0165 0.0329 0.0026
v -0.0240 0.0279 0.0031
v -0.0249 0.0279 0.0022
v -0.0245 0.0279 0.0029
v -0.0248 0.0279 0.0026
v -0.0177 0.0277 0.0031
v -0.0168 0.0277 0.0022
v -0.0172 0.0277 0.0029
v -0.0169 0.0277 0.0026
v -0.0249 0.0216 0.0022
v -0.0240 0.0217 0.0031
v -0.0248 0.0216 0.0026
v -0.0244 0.0217 0.0029
v -0.0168 0.0229 0.0031
v -0.0159 0.0231 0.0022
v -0.0164 0.0230 0.0029
v -0.0161 0.0231 0.0026
v -0.0233 0.0152 0.0022
v -0.0225 0.0155 0.0031
v -0.0232 0.0152 0.0026
v -0.0229 0.0154 0.0029
v -0.0148 0.0187 0.0031
v -0.0140 0.0190 0.0022
v -0.0144 0.0189 0.0029
v -0.0141 0.0190 0.0026
v -0.0200 0.0096 0.0022
v -0.0193 0.0101 0.0031
v -0.0199 0.0097 0.0026
v -0.0197 0.0099 0.0029
v -0.0122 0.0156 0.0031
v -0.0115 0.0161 0.0022
v -0.0119 0.0159 0.0029
v -0.0116 0.0161 0.0026
v -0.0152 0.0051 0.0022
v -0.0147 0.0058 0.0031
v -0.0152 0.0052 0.0026
v -0.0150 0.0054 0.0029
v -0.0091 0.0133 0.0031
v -0.0086 0.0140 0.0022
v -0.0089 0.0136 0.0029
v -0.0087 0.0139 0.0026
v -0.0096 0.0019 0.0022
v -0.0092 0.0027 0.0031
v -0.0095 0.0020 0.0026
v -0.0094 0.0023 0.0029
v -0.0059 0.0118 0.0031
v -0.0054 0.0126 0.0022
v -0.0057 0.0122 0.0029
v -0.0055 0.0125 0.0026
v -0.0032 0.0003 0.0022
v -0.0031 0.0012 0.0031
v -0.0032 0.0004 0.0026
v -0.0032 0.0008 0.0029
v -0.0020 0.0110 0.0031
v -0.0019 0.0118 0.0022
v -0.0019 0.0114 0.0029
v -0.0019 0.0117 0.0026
v -0.0249 0.0279 -0.0022
v -0.0251 0.0248 -0.0022
v -0.0249 0.0216 -0.0022
v -0.0243 0.0183 -0.0022
v -0.0233 0.0152 -0.0022
v -0.0218 0.0123 -0.0022
v -0.0200 0.0096 -0.0022
v -0.0178 0.0071 -0.0022
v -0.0152 0.0051 -0.0022
v -0.0125 0.0032 -0.0022
v -0.0096 0.0019 -0.0022
v -0.0064 0.0009 -0.0022
v -0.0032 0.0003 -0.0022
v 0.0000 0.0000 -0.0022
v -0.0159 0.0231 -0.0022
v -0.0165 0.0254 -0.0022
v -0.0168 0.0277 -0.0022
v -0.0140 0.0190 -0.0022
v -0.0150 0.0208 -0.0022
v -0.0115 0.0161 -0.0022
v -0.0127 0.0174 -0.0022
v -0.0086 0.0140 -0.0022
v -0.0100 0.0150 -0.0022
v -0.0054 0.0126 -0.0022
v -0.0069 0.0131 -0.0022
v -0.0019 0.0118 -0.0022
v -0.0037 0.0121 -0.0022
v 0.0000 0.0117 -0.0022
v -0.0240 0.0339 -0.0022
v -0.0244 0.0310 -0.0022
v -0.0167 0.0301 -0.0022
v -0.0163 0.0329 -0.0022
v -0.0225 0.0392 -0.0022
v -0.0232 0.0368 -0.0022
v -0.0156 0.0357 -0.0022
v -0.0147 0.0382 -0.0022
v -0.0212 0.0429 -0.0022
v -0.0216 0.0416 -0.0022
v -0.0231 0.0429 -0.0022
v -0.0131 0.0421 -0.0022
v -0.0118 0.0440 -0.0022
v -0.0136 0.0407 -0.0022
v -0.0208 0.0502 -0.0022
v -0.0229 0.0502 -0.0022
v -0.0188 0.0502 -0.0022
v -0.0130 0.0502 -0.0022
v -0.0149 0.0502 -0.0022
v -0.0114 0.0494 -0.0022
v -0.0250 0.0443 -0.0022
v -0.0244 0.0433 -0.0022
v -0.0244 0.0499 -0.0022
v -0.0250 0.0485 -0.0022
v -0.0250 0.0463 -0.0022
v -0.0105 0.0478 -0.0022
v -0.0105 0.0462 -0.0022
v -0.0168 0.0502 -0.0022
v 0.0000 0.0003 -0.0024
v -0.0168 0.0254 -0.0024
v -0.0153 0.0207 -0.0024
v -0.0130 0.0172 -0.0024
v -0.0103 0.0147 -0.0024
v -0.0071 0.0128 -0.0024
v -0.0038 0.0117 -0.0024
v -0.0170 0.0301 -0.0024
v -0.0158 0.0358 -0.0024
v -0.0134 0.0421 -0.0024
v -0.0241 0.0184 -0.0024
v -0.0130 0.0500 -0.0024
v -0.0231 0.0430 -0.0024
v -0.0247 0.0443 -0.0024
v -0.0248 0.0485 -0.0024
v -0.0108 0.0462 -0.0024
v -0.0214 0.0416 -0.0024
v -0.0168 0.0500 -0.0024
v -0.0149 0.0500 -0.0024
v -0.0188 0.0500 -0.0024
v -0.0224 0.0391 -0.0024
v -0.0238 0.0339 -0.0024
v -0.0247 0.0279 -0.0024
v -0.0163 0.0230 -0.0024
v -0.0143 0.0189 -0.0024
v -0.0118 0.0159 -0.0024
v -0.0089 0.0136 -0.0024
v -0.0055 0.0121 -0.0024
v -0.0019 0.0113 -0.0024
v -0.0108 0.0479 -0.0024
v -0.0121 0.0440 -0.0024
v 0.0000 0.0112 -0.0024
v -0.0139 0.0408 -0.0024
v -0.0150 0.0383 -0.0024
v -0.0166 0.0330 -0.0024
v -0.0171 0.0277 -0.0024
v -0.0208 0.0500 -0.0024
v -0.0229 0.0500 -0.0024
v -0.0247 0.0463 -0.0024
v -0.0115 0.0493 -0.0024
v -0.0242 0.0498 -0.0024
v -0.0210 0.0430 -0.0024
v -0.0249 0.0249 -0.0024
v -0.0216 0.0124 -0.0024
v -0.0176 0.0073 -0.0024
v -0.0124 0.0034 -0.0024
v -0.0064 0.0011 -0.0024
v -0.0243 0.0309 -0.0024
v -0.0230 0.0367 -0.0024
v -0.0247 0.0216 -0.0024
v -0.0231 0.0153 -0.0024
v -0.0198 0.0098 -0.0024
v -0.0151 0.0053 -0.0024
v -0.0095 0.0021 -0.0024
v -0.0032 0.0006 -0.0024
v -0.0243 0.0434 -0.0024
v -0.0251 0.0248 0.0015
v -0.0249 0.0216 0.0015
v -0.0243 0.0183 0.0015
v -0.0233 0.0152 0.0015
v -0.0218 0.0123 0.0015
v -0.0200 0.0096 0.0015
v -0.0178 0.0071 0.0015
v -0.0152 0.0051 0.0015
v -0.0125 0.0032 0.0015
v -0.0096 0.0019 0.0015
v -0.0032 0.0003 0.0015
v 0.0000 -0.0000 0.0015
v -0.0165 0.0254 0.0015
v -0.0168 0.0277 0.0015
v -0.0150 0.0208 0.0015
v -0.0127 0.0174 0.0015
v -0.0100 0.0150 0.0015
v -0.0069 0.0131 0.0015
v -0.0037 0.0121 0.0015
v -0.0244 0.0310 0.0015
v -0.0163 0.0329 0.0015
v -0.0232 0.0368 0.0015
v -0.0147 0.0382 0.0015
v -0.0216 0.0416 0.0015
v -0.0118 0.0440 0.0015
v -0.0229 0.0502 0.0015
v -0.0149 0.0502 0.0015
v -0.0244 0.0433 0.0015
v -0.0244 0.0499 0.0015
v -0.0250 0.0485 0.0015
v -0.0250 0.0463 0.0015
v -0.0105 0.0462 0.0015
v -0.0249 0.0279 0.0015
v -0.0064 0.0009 0.0015
v -0.0159 0.0231 0.0015
v -0.0140 0.0190 0.0015
v -0.0115 0.0161 0.0015
v -0.0086 0.0140 0.0015
v -0.0054 0.0126 0.0015
v -0.0019 0.0118 0.0015
v 0.0000 0.0117 0.0015
v -0.0240 0.0339 0.0015
v -0.0167 0.0301 0.0015
v -0.0225 0.0392 0.0015
v -0.0156 0.0357 0.0015
v -0.0212 0.0429 0.0015
v -0.0231 0.0429 0.0015
v -0.0131 0.0421 0.0015
v -0.0136 0.0407 0.0015
v -0.0208 0.0502 0.0015
v -0.0188 0.0502 0.0015
v -0.0130 0.0502 0.0015
v -0.0114 0.0494 0.0015
v -0.0250 0.0443 0.0015
v -0.0105 0.0478 0.0015
v -0.0168 0.0502 0.0015
v -0.0249 0.0279 -0.0015
v -0.0064 0.0009 -0.0015
v -0.0159 0.0231 -0.0015
v -0.0140 0.0190 -0.0015
v -0.0115 0.0161 -0.0015
v -0.0086 0.0140 -0.0015
v -0.0054 0.0126 -0.0015
v -0.0019 0.0118 -0.0015
v 0.0000 0.0117 -0.0015
v -0.0240 0.0339 -0.0015
v -0.0167 0.0301 -0.0015
v -0.0225 0.0392 -0.0015
v -0.0156 0.0357 -0.0015
v -0.0212 0.0429 -0.0015
v -0.0231 0.0429 -0.0015
v -0.0131 0.0421 -0.0015
v -0.0136 0.0407 -0.0015
v -0.0208 0.0502 -0.0015
v -0.0188 0.0502 -0.0015
v -0.0130 0.0502 -0.0015
v -0.0114 0.0494 -0.0015
v -0.0250 0.0443 -0.0015
v -0.0105 0.0478 -0.0015
v -0.0168 0.0502 -0.0015
v -0.0251 0.0248 -0.0015
v -0.0249 0.0216 -0.0015
v -0.0243 0.0183 -0.0015
v -0.0233 0.0152 -0.0015
v -0.0218 0.0123 -0.0015
v -0.0200 0.0096 -0.0015
v -0.0178 0.0071 -0.0015
v -0.0152 0.0051 -0.0015
v -0.0125 0.0032 -0.0015
v -0.0096 0.0019 -0.0015
v -0.0032 0.0003 -0.0015
v 0.0000 0.0000 -0.0015
v -0.0165 0.0254 -0.0015
v -0.0168 0.0277 -0.0015
v -0.0150 0.0208 -0.0015
v -0.0127 0.0174 -0.0015
v -0.0100 0.0150 -0.0015
v -0.0069 0.0131 -0.0015
v -0.0037 0.0121 -0.0015
v -0.0244 0.0310 -0.0015
v -0.0163 0.0329 -0.0015
v -0.0232 0.0368 -0.0015
v -0.0147 0.0382 -0.0015
v -0.0216 0.0416 -0.0015
v -0.0118 0.0440 -0.0015
v -0.0229 0.0502 -0.0015
v -0.0149 0.0502 -0.0015
v -0.0244 0.0433 -0.0015
v -0.0244 0.0499 -0.0015
v -0.0250 0.0485 -0.0015
v -0.0250 0.0463 -0.0015
v -0.0105 0.0462 -0.0015
v -0.0251 0.0248 0.0000
v -0.0249 0.0216 0.0000
v -0.0243 0.0183 0.0000
v -0.0233 0.0152 0.0000
v -0.0218 0.0123 0.0000
v -0.0200 0.0096 0.0000
v -0.0178 0.0071 0.0000
v -0.0152 0.0051 0.0000
v -0.0125 0.0032 0.0000
v -0.0096 0.0019 0.0000
v -0.0032 0.0003 0.0000
v 0.0000 0.0000 0.0000
v -0.0165 0.0254 0.0000
v -0.0168 0.0277 0.0000
v -0.0150 0.0208 0.0000
v -0.0127 0.0174 0.0000
v -0.0100 0.0150 0.0000
v -0.0069 0.0131 0.0000
v -0.0037 0.0121 0.0000
v -0.0244 0.0310 0.0000
v -0.0163 0.0329 0.0000
v -0.0232 0.0368 0.0000
v -0.0147 0.0382 0.0000
v -0.0216 0.0416 0.0000
v -0.0118 0.0440 0.0000
v -0.0229 0.0502 0.0000
v -0.0149 0.0502 0.0000
v -0.0244 0.0433 0.0000
v -0.0244 0.0499 0.0000
v -0.0250 0.0485 0.0000
v -0.0250 0.0463 0.0000
v -0.0105 0.0462 0.0000
v -0.0249 0.0279 0.0000
v -0.0064 0.0009 0.0000
v -0.0159 0.0231 0.0000
v -0.0140 0.0190 0.0000
v -0.0115 0.0161 0.0000
v -0.0086 0.0140 0.0000
v -0.0054 0.0126 0.0000
v -0.0019 0.0118 0.0000
v 0.0000 0.0117 0.0000
v -0.0240 0.0339 0.0000
v -0.0167 0.0301 0.0000
v -0.0225 0.0392 0.0000
v -0.0156 0.0357 0.0000
v -0.0212 0.0429 0.0000
v -0.0231 0.0429 0.0000
v -0.0131 0.0421 0.0000
v -0.0136 0.0407 0.0000
v -0.0208 0.0502 0.0000
v -0.0188 0.0502 0.0000
v -0.0130 0.0502 0.0000
v -0.0114 0.0494 0.0000
v -0.0250 0.0443 0.0000
v -0.0105 0.0478 0.0000
v -0.0168 0.0502 0.0000
v -0.0170 0.0150 0.0021
v -0.0160 0.0154 0.0021
v -0.0053 0.0069 0.0021
v -0.0051 0.0078 0.0021
v 0.0000 0.0061 0.0021
v 0.0000 0.0048 0.0021
v -0.0180 0.0143 0.0021
v -0.0056 0.0056 0.0021
v 0.0000 0.0071 0.0021
v -0.0156 0.0130 0.0021
v -0.0080 0.0078 0.0021
v -0.0096 0.0085 0.0021
v -0.0025 0.0063 0.0021
v -0.0175 0.0159 0.0021
v -0.0152 0.0126 0.0021
v -0.0167 0.0124 0.0021
v -0.0150 0.0138 0.0021
v -0.0086 0.0066 0.0021
v -0.0078 0.0087 0.0021
v -0.0027 0.0049 0.0021
v -0.0024 0.0072 0.0021
v -0.0088 0.0090 0.0021
v -0.0096 0.0074 0.0021
v -0.0149 0.0131 0.0021
v -0.0160 0.0123 0.0021
v -0.0168 0.0159 0.0021
v -0.0181 0.0152 0.0021
v -0.0159 0.0461 0.0021
v -0.0166 0.0458 0.0021
v -0.0159 0.0472 0.0021
v -0.0166 0.0475 0.0021
v -0.0156 0.0466 0.0021
v -0.0174 0.0461 0.0021
v -0.0173 0.0473 0.0021
v -0.0176 0.0467 0.0021
v -0.0102 0.0088 0.0021
v -0.0089 0.0096 0.0021
v -0.0024 0.0078 0.0021
v -0.0050 0.0084 0.0021
v -0.0076 0.0093 0.0021
v -0.0089 0.0061 0.0021
v -0.0102 0.0070 0.0021
v -0.0028 0.0044 0.0021
v -0.0058 0.0050 0.0021
v 0.0000 0.0076 0.0021
v 0.0000 0.0042 0.0021
v -0.0147 0.0122 0.0021
v -0.0143 0.0130 0.0021
v -0.0144 0.0140 0.0021
v -0.0156 0.0158 0.0021
v -0.0170 0.0119 0.0021
v -0.0186 0.0141 0.0021
v -0.0160 0.0117 0.0021
v -0.0166 0.0165 0.0021
v -0.0187 0.0154 0.0021
v -0.0178 0.0164 0.0021
v -0.0161 0.0463 0.0021
v -0.0166 0.0461 0.0021
v -0.0166 0.0472 0.0021
v -0.0161 0.0470 0.0021
v -0.0159 0.0466 0.0021
v -0.0171 0.0463 0.0021
v -0.0171 0.0470 0.0021
v -0.0173 0.0467 0.0021
v -0.0166 0.0467 0.0021
v 0.0000 0.0076 0.0027
v 0.0000 0.0080 0.0031
v 0.0000 0.0078 0.0030
v -0.0140 0.0130 0.0031
v -0.0143 0.0130 0.0027
v -0.0142 0.0130 0.0030
v -0.0089 0.0096 0.0027
v -0.0090 0.0100 0.0031
v -0.0089 0.0097 0.0030
v -0.0048 0.0088 0.0031
v -0.0050 0.0084 0.0027
v -0.0049 0.0085 0.0030
v -0.0160 0.0117 0.0027
v -0.0160 0.0113 0.0031
v -0.0160 0.0115 0.0030
v -0.0102 0.0070 0.0027
v -0.0106 0.0069 0.0031
v -0.0103 0.0070 0.0030
v -0.0058 0.0050 0.0027
v -0.0058 0.0047 0.0031
v -0.0058 0.0049 0.0030
v -0.0105 0.0090 0.0031
v -0.0102 0.0088 0.0027
v -0.0103 0.0089 0.0030
v -0.0157 0.0457 0.0031
v -0.0159 0.0461 0.0027
v -0.0158 0.0460 0.0030
v -0.0159 0.0472 0.0027
v -0.0155 0.0475 0.0031
v -0.0158 0.0473 0.0030
v -0.0174 0.0461 0.0027
v -0.0177 0.0458 0.0031
v -0.0175 0.0460 0.0030
v -0.0176 0.0476 0.0031
v -0.0173 0.0473 0.0027
v -0.0174 0.0474 0.0030
v -0.0166 0.0170 0.0031
v -0.0166 0.0165 0.0027
v -0.0166 0.0167 0.0030
v -0.0187 0.0154 0.0027
v -0.0191 0.0156 0.0031
v -0.0188 0.0155 0.0030
v -0.0076 0.0093 0.0027
v -0.0074 0.0097 0.0031
v -0.0075 0.0094 0.0030
v -0.0090 0.0057 0.0031
v -0.0089 0.0061 0.0027
v -0.0089 0.0060 0.0030
v -0.0024 0.0078 0.0027
v -0.0023 0.0082 0.0031
v -0.0023 0.0079 0.0030
v -0.0028 0.0040 0.0031
v -0.0028 0.0044 0.0027
v -0.0028 0.0042 0.0030
v -0.0166 0.0458 0.0027
v -0.0167 0.0454 0.0031
v -0.0166 0.0457 0.0030
v -0.0165 0.0479 0.0031
v -0.0166 0.0475 0.0027
v -0.0166 0.0476 0.0030
v -0.0156 0.0466 0.0027
v -0.0152 0.0467 0.0031
v -0.0154 0.0467 0.0030
v -0.0176 0.0467 0.0027
v -0.0181 0.0467 0.0031
v -0.0178 0.0467 0.0030
v 0.0000 0.0038 0.0031
v 0.0000 0.0042 0.0027
v 0.0000 0.0041 0.0030
v -0.0147 0.0122 0.0027
v -0.0145 0.0120 0.0031
v -0.0147 0.0121 0.0030
v -0.0144 0.0140 0.0027
v -0.0140 0.0142 0.0031
v -0.0143 0.0140 0.0030
v -0.0153 0.0160 0.0031
v -0.0156 0.0158 0.0027
v -0.0155 0.0158 0.0030
v -0.0173 0.0117 0.0031
v -0.0170 0.0119 0.0027
v -0.0171 0.0118 0.0030
v -0.0186 0.0141 0.0027
v -0.0190 0.0139 0.0031
v -0.0187 0.0140 0.0030
v -0.0178 0.0164 0.0027
v -0.0181 0.0168 0.0031
v -0.0179 0.0166 0.0030
v 0.0210 0.0463 0.0031
v 0.0130 0.0460 0.0031
v 0.0230 0.0463 0.0031
v 0.0211 0.0443 0.0031
v 0.0144 0.0439 0.0031
v 0.0230 0.0443 0.0031
v 0.0129 0.0481 0.0031
v 0.0209 0.0483 0.0031
v 0.0229 0.0483 0.0031
v 0.0191 0.0252 0.0031
v 0.0178 0.0201 0.0031
v 0.0150 0.0161 0.0031
v 0.0191 0.0303 0.0031
v 0.0179 0.0361 0.0031
v 0.0156 0.0423 0.0031
v 0.0161 0.0410 0.0031
v 0.0167 0.0452 0.0031
v 0.0166 0.0482 0.0031
v 0.0220 0.0250 0.0031
v 0.0209 0.0192 0.0031
v 0.0192 0.0138 0.0031
v 0.0217 0.0306 0.0031
v 0.0205 0.0364 0.0031
v 0.0183 0.0426 0.0031
v 0.0188 0.0413 0.0031
v 0.0206 0.0251 0.0031
v 0.0193 0.0196 0.0031
v 0.0143 0.0118 0.0031
v 0.0204 0.0305 0.0031
v 0.0192 0.0362 0.0031
v 0.0169 0.0425 0.0031
v 0.0144 0.0465 0.0031
v 0.0174 0.0411 0.0031
v 0.0183 0.0467 0.0031
v 0.0202 0.0414 0.0031
v 0.0235 0.0249 0.0031
v 0.0225 0.0188 0.0031
v 0.0202 0.0132 0.0031
v 0.0164 0.0085 0.0031
v 0.0115 0.0050 0.0031
v 0.0060 0.0028 0.0031
v 0.0231 0.0308 0.0031
v 0.0218 0.0366 0.0031
v 0.0197 0.0427 0.0031
v 0.0171 0.0385 0.0031
v 0.0198 0.0388 0.0031
v 0.0184 0.0387 0.0031
v 0.0211 0.0390 0.0031
v 0.0187 0.0332 0.0031
v 0.0213 0.0335 0.0031
v 0.0200 0.0334 0.0031
v 0.0226 0.0337 0.0031
v 0.0193 0.0278 0.0031
v 0.0220 0.0278 0.0031
v 0.0206 0.0278 0.0031
v 0.0235 0.0279 0.0031
v 0.0187 0.0226 0.0031
v 0.0217 0.0221 0.0031
v 0.0202 0.0224 0.0031
v 0.0232 0.0219 0.0031
v 0.0182 0.0171 0.0031
v 0.0215 0.0159 0.0031
v 0.0138 0.0143 0.0031
v 0.0175 0.0115 0.0031
v 0.0185 0.0108 0.0031
v 0.0108 0.0110 0.0031
v 0.0129 0.0082 0.0031
v 0.0118 0.0097 0.0031
v 0.0141 0.0067 0.0031
v 0.0088 0.0038 0.0031
v 0.0030 0.0023 0.0031
v 0.0251 0.0248 -0.0024
v 0.0243 0.0183 -0.0024
v 0.0218 0.0123 -0.0024
v 0.0178 0.0071 -0.0024
v 0.0125 0.0032 -0.0024
v 0.0064 0.0009 -0.0024
v 0.0165 0.0254 -0.0024
v 0.0150 0.0208 -0.0024
v 0.0127 0.0174 -0.0024
v 0.0100 0.0150 -0.0024
v 0.0069 0.0131 -0.0024
v 0.0037 0.0121 -0.0024
v 0.0244 0.0310 -0.0024
v 0.0167 0.0301 -0.0024
v 0.0232 0.0368 -0.0024
v 0.0156 0.0357 -0.0024
v 0.0212 0.0429 -0.0024
v 0.0131 0.0421 -0.0024
v 0.0208 0.0502 -0.0024
v 0.0130 0.0502 -0.0024
v 0.0210 0.0463 -0.0024
v 0.0130 0.0460 -0.0024
v 0.0244 0.0433 -0.0024
v 0.0244 0.0499 -0.0024
v 0.0250 0.0463 -0.0024
v 0.0230 0.0463 -0.0024
v 0.0229 0.0502 -0.0024
v 0.0231 0.0429 -0.0024
v 0.0211 0.0443 -0.0024
v 0.0144 0.0439 -0.0024
v 0.0250 0.0443 -0.0024
v 0.0230 0.0443 -0.0024
v 0.0129 0.0484 -0.0024
v 0.0209 0.0485 -0.0024
v 0.0250 0.0485 -0.0024
v 0.0229 0.0485 -0.0024
v 0.0216 0.0416 -0.0024
v 0.0114 0.0494 -0.0024
v 0.0105 0.0462 -0.0024
v 0.0118 0.0440 -0.0024
v 0.0105 0.0478 -0.0024
v 0.0191 0.0252 -0.0024
v 0.0178 0.0201 -0.0024
v 0.0155 0.0158 -0.0024
v 0.0126 0.0124 -0.0024
v 0.0088 0.0097 -0.0024
v 0.0046 0.0082 -0.0024
v 0.0191 0.0303 -0.0024
v 0.0179 0.0361 -0.0024
v 0.0156 0.0423 -0.0024
v 0.0136 0.0407 -0.0024
v 0.0161 0.0410 -0.0024
v 0.0168 0.0502 -0.0024
v 0.0164 0.0465 -0.0024
v 0.0166 0.0457 -0.0024
v 0.0166 0.0476 -0.0024
v 0.0220 0.0250 -0.0024
v 0.0209 0.0192 -0.0024
v 0.0187 0.0141 -0.0024
v 0.0150 0.0100 -0.0024
v 0.0105 0.0067 -0.0024
v 0.0055 0.0048 -0.0024
v 0.0217 0.0306 -0.0024
v 0.0205 0.0364 -0.0024
v 0.0183 0.0426 -0.0024
v 0.0188 0.0413 -0.0024
v 0.0149 0.0502 -0.0024
v 0.0206 0.0251 -0.0024
v 0.0193 0.0196 -0.0024
v 0.0170 0.0150 -0.0024
v 0.0137 0.0113 -0.0024
v 0.0096 0.0084 -0.0024
v 0.0050 0.0067 -0.0024
v 0.0204 0.0305 -0.0024
v 0.0192 0.0362 -0.0024
v 0.0169 0.0425 -0.0024
v 0.0149 0.0461 -0.0024
v 0.0159 0.0461 -0.0024
v 0.0159 0.0472 -0.0024
v 0.0174 0.0411 -0.0024
v 0.0178 0.0467 -0.0024
v 0.0174 0.0461 -0.0024
v 0.0173 0.0473 -0.0024
v 0.0202 0.0414 -0.0024
v 0.0188 0.0502 -0.0024
v 0.0235 0.0249 -0.0024
v 0.0225 0.0188 -0.0024
v 0.0202 0.0132 -0.0024
v 0.0164 0.0085 -0.0024
v 0.0115 0.0050 -0.0024
v 0.0060 0.0028 -0.0024
v 0.0231 0.0308 -0.0024
v 0.0218 0.0366 -0.0024
v 0.0197 0.0427 -0.0024
v 0.0225 0.0392 -0.0024
v 0.0147 0.0382 -0.0024
v 0.0171 0.0385 -0.0024
v 0.0198 0.0388 -0.0024
v 0.0184 0.0387 -0.0024
v 0.0211 0.0390 -0.0024
v 0.0240 0.0339 -0.0024
v 0.0163 0.0329 -0.0024
v 0.0187 0.0332 -0.0024
v 0.0213 0.0335 -0.0024
v 0.0200 0.0334 -0.0024
v 0.0226 0.0337 -0.0024
v 0.0249 0.0279 -0.0024
v 0.0168 0.0277 -0.0024
v 0.0193 0.0278 -0.0024
v 0.0220 0.0278 -0.0024
v 0.0206 0.0278 -0.0024
v 0.0235 0.0279 -0.0024
v 0.0249 0.0216 -0.0024
v 0.0159 0.0231 -0.0024
v 0.0187 0.0226 -0.0024
v 0.0217 0.0221 -0.0024
v 0.0202 0.0224 -0.0024
v 0.0232 0.0219 -0.0024
v 0.0233 0.0152 -0.0024
v 0.0140 0.0190 -0.0024
v 0.0167 0.0179 -0.0024
v 0.0198 0.0166 -0.0024
v 0.0183 0.0172 -0.0024
v 0.0215 0.0159 -0.0024
v 0.0200 0.0096 -0.0024
v 0.0115 0.0161 -0.0024
v 0.0143 0.0140 -0.0024
v 0.0170 0.0119 -0.0024
v 0.0156 0.0130 -0.0024
v 0.0185 0.0108 -0.0024
v 0.0152 0.0051 -0.0024
v 0.0086 0.0140 -0.0024
v 0.0108 0.0110 -0.0024
v 0.0129 0.0082 -0.0024
v 0.0118 0.0097 -0.0024
v 0.0141 0.0067 -0.0024
v 0.0096 0.0019 -0.0024
v 0.0054 0.0126 -0.0024
v 0.0068 0.0089 -0.0024
v 0.0081 0.0057 -0.0024
v 0.0074 0.0075 -0.0024
v 0.0088 0.0038 -0.0024
v 0.0032 0.0003 -0.0024
v 0.0019 0.0118 -0.0024
v 0.0023 0.0078 -0.0024
v 0.0028 0.0043 -0.0024
v 0.0025 0.0063 -0.0024
v 0.0030 0.0023 -0.0024
v 0.0161 0.0440 0.0031
v 0.0177 0.0441 0.0031
v 0.0149 0.0482 0.0031
v 0.0168 0.0483 0.0031
v 0.0150 0.0467 0.0031
v 0.0194 0.0442 0.0031
v 0.0188 0.0483 0.0031
v 0.0190 0.0462 0.0031
v 0.0161 0.0440 -0.0024
v 0.0177 0.0441 -0.0024
v 0.0148 0.0484 -0.0024
v 0.0168 0.0484 -0.0024
v 0.0154 0.0466 -0.0024
v 0.0194 0.0442 -0.0024
v 0.0188 0.0484 -0.0024
v 0.0190 0.0462 -0.0024
v 0.0155 0.0456 0.0031
v 0.0154 0.0478 0.0031
v 0.0178 0.0457 0.0031
v 0.0178 0.0478 0.0031
v 0.0158 0.0459 -0.0024
v 0.0166 0.0458 -0.0024
v 0.0158 0.0473 -0.0024
v 0.0166 0.0475 -0.0024
v 0.0156 0.0466 -0.0024
v 0.0175 0.0460 -0.0024
v 0.0174 0.0474 -0.0024
v 0.0176 0.0467 -0.0024
v 0.0137 0.0113 0.0031
v 0.0126 0.0124 0.0031
v 0.0135 0.0146 0.0031
v 0.0147 0.0163 0.0031
v 0.0178 0.0113 0.0031
v 0.0195 0.0136 0.0031
v 0.0150 0.0100 0.0031
v 0.0167 0.0179 0.0031
v 0.0198 0.0166 0.0031
v 0.0183 0.0172 0.0031
v 0.0110 0.0093 0.0031
v 0.0090 0.0104 0.0031
v 0.0023 0.0085 0.0031
v 0.0047 0.0090 0.0031
v 0.0072 0.0099 0.0031
v 0.0090 0.0054 0.0031
v 0.0110 0.0067 0.0031
v 0.0029 0.0036 0.0031
v 0.0059 0.0043 0.0031
v 0.0136 0.0130 0.0031
v 0.0159 0.0111 0.0031
v 0.0166 0.0171 0.0031
v 0.0193 0.0156 0.0031
v 0.0180 0.0253 0.0031
v 0.0165 0.0204 0.0031
v 0.0141 0.0166 0.0031
v 0.0115 0.0135 0.0031
v 0.0081 0.0114 0.0031
v 0.0043 0.0102 0.0031
v 0.0181 0.0302 0.0031
v 0.0169 0.0359 0.0031
v 0.0145 0.0422 0.0031
v 0.0119 0.0481 0.0031
v 0.0119 0.0461 0.0031
v 0.0133 0.0440 0.0031
v 0.0209 0.0489 0.0031
v 0.0150 0.0409 0.0031
v 0.0161 0.0384 0.0031
v 0.0176 0.0331 0.0031
v 0.0182 0.0278 0.0031
v 0.0175 0.0228 0.0031
v 0.0155 0.0184 0.0031
v 0.0128 0.0151 0.0031
v 0.0099 0.0123 0.0031
v 0.0065 0.0109 0.0031
v 0.0021 0.0098 0.0031
v 0.0180 0.0253 -0.0024
v 0.0165 0.0204 -0.0024
v 0.0142 0.0165 -0.0024
v 0.0114 0.0136 -0.0024
v 0.0080 0.0113 -0.0024
v 0.0042 0.0100 -0.0024
v 0.0180 0.0302 -0.0024
v 0.0169 0.0359 -0.0024
v 0.0145 0.0422 -0.0024
v 0.0118 0.0481 -0.0024
v 0.0119 0.0461 -0.0024
v 0.0133 0.0440 -0.0024
v 0.0129 0.0488 0.0031
v 0.0150 0.0409 -0.0024
v 0.0160 0.0384 -0.0024
v 0.0176 0.0331 -0.0024
v 0.0181 0.0278 -0.0024
v 0.0174 0.0228 -0.0024
v 0.0155 0.0184 -0.0024
v 0.0130 0.0149 -0.0024
v 0.0098 0.0123 -0.0024
v 0.0062 0.0105 -0.0024
v 0.0021 0.0096 -0.0024
v 0.0236 0.0463 0.0031
v 0.0229 0.0489 0.0031
v 0.0168 0.0489 0.0031
v 0.0149 0.0488 0.0031
v 0.0188 0.0489 0.0031
v 0.0130 0.0492 -0.0024
v 0.0209 0.0493 -0.0024
v 0.0123 0.0486 0.0031
v 0.0229 0.0493 -0.0024
v 0.0168 0.0492 -0.0024
v 0.0149 0.0492 -0.0024
v 0.0188 0.0493 -0.0024
v 0.0234 0.0440 0.0031
v 0.0236 0.0444 0.0031
v 0.0235 0.0485 0.0031
v 0.0239 0.0463 -0.0024
v 0.0231 0.0440 0.0031
v 0.0239 0.0443 -0.0024
v 0.0239 0.0485 -0.0024
v 0.0233 0.0488 0.0031
v 0.0197 0.0440 0.0031
v 0.0205 0.0414 0.0031
v 0.0239 0.0249 0.0031
v 0.0232 0.0186 0.0031
v 0.0208 0.0129 0.0031
v 0.0169 0.0080 0.0031
v 0.0119 0.0043 0.0031
v 0.0061 0.0021 0.0031
v 0.0234 0.0308 0.0031
v 0.0220 0.0366 0.0031
v 0.0214 0.0390 0.0031
v 0.0229 0.0337 0.0031
v 0.0238 0.0279 0.0031
v 0.0238 0.0218 0.0031
v 0.0222 0.0156 0.0031
v 0.0191 0.0103 0.0031
v 0.0145 0.0061 0.0031
v 0.0091 0.0031 0.0031
v 0.0031 0.0016 0.0031
v 0.0121 0.0488 -0.0024
v 0.0235 0.0492 -0.0024
v 0.0202 0.0435 -0.0024
v 0.0231 0.0435 -0.0024
v 0.0208 0.0415 -0.0024
v 0.0237 0.0438 -0.0024
v 0.0242 0.0249 -0.0024
v 0.0233 0.0186 -0.0024
v 0.0209 0.0128 -0.0024
v 0.0169 0.0080 -0.0024
v 0.0119 0.0042 -0.0024
v 0.0062 0.0020 -0.0024
v 0.0236 0.0309 -0.0024
v 0.0224 0.0366 -0.0024
v 0.0217 0.0391 -0.0024
v 0.0232 0.0338 -0.0024
v 0.0240 0.0279 -0.0024
v 0.0239 0.0218 -0.0024
v 0.0222 0.0156 -0.0024
v 0.0191 0.0103 -0.0024
v 0.0145 0.0060 -0.0024
v 0.0091 0.0030 -0.0024
v 0.0031 0.0015 -0.0024
v 0.0242 0.0249 0.0031
v 0.0251 0.0248 0.0022
v 0.0246 0.0249 0.0029
v 0.0249 0.0249 0.0026
v 0.0235 0.0186 0.0031
v 0.0243 0.0183 0.0022
v 0.0239 0.0185 0.0029
v 0.0242 0.0184 0.0026
v 0.0211 0.0127 0.0031
v 0.0218 0.0123 0.0022
v 0.0215 0.0125 0.0029
v 0.0217 0.0123 0.0026
v 0.0171 0.0078 0.0031
v 0.0178 0.0071 0.0022
v 0.0174 0.0075 0.0029
v 0.0177 0.0072 0.0026
v 0.0121 0.0040 0.0031
v 0.0125 0.0032 0.0022
v 0.0123 0.0036 0.0029
v 0.0124 0.0033 0.0026
v 0.0062 0.0017 0.0031
v 0.0064 0.0009 0.0022
v 0.0063 0.0013 0.0029
v 0.0064 0.0010 0.0026
v 0.0165 0.0254 0.0022
v 0.0174 0.0253 0.0031
v 0.0167 0.0254 0.0026
v 0.0170 0.0254 0.0029
v 0.0150 0.0208 0.0022
v 0.0158 0.0206 0.0031
v 0.0151 0.0208 0.0026
v 0.0154 0.0207 0.0029
v 0.0127 0.0174 0.0022
v 0.0135 0.0170 0.0031
v 0.0128 0.0174 0.0026
v 0.0131 0.0172 0.0029
v 0.0100 0.0150 0.0022
v 0.0106 0.0144 0.0031
v 0.0101 0.0149 0.0026
v 0.0104 0.0147 0.0029
v 0.0069 0.0131 0.0022
v 0.0074 0.0124 0.0031
v 0.0070 0.0131 0.0026
v 0.0072 0.0128 0.0029
v 0.0037 0.0121 0.0022
v 0.0039 0.0113 0.0031
v 0.0037 0.0120 0.0026
v 0.0038 0.0117 0.0029
v 0.0244 0.0310 0.0022
v 0.0236 0.0309 0.0031
v 0.0243 0.0309 0.0026
v 0.0240 0.0309 0.0029
v 0.0167 0.0301 0.0022
v 0.0176 0.0302 0.0031
v 0.0168 0.0301 0.0026
v 0.0172 0.0301 0.0029
v 0.0232 0.0368 0.0022
v 0.0224 0.0366 0.0031
v 0.0231 0.0368 0.0026
v 0.0228 0.0367 0.0029
v 0.0156 0.0357 0.0022
v 0.0165 0.0359 0.0031
v 0.0157 0.0357 0.0026
v 0.0160 0.0358 0.0029
v 0.0212 0.0429 0.0022
v 0.0201 0.0437 0.0031
v 0.0210 0.0430 0.0026
v 0.0206 0.0433 0.0029
v 0.0131 0.0421 0.0022
v 0.0140 0.0422 0.0031
v 0.0133 0.0420 0.0026
v 0.0136 0.0421 0.0029
v 0.0208 0.0494 0.0031
v 0.0208 0.0502 0.0022
v 0.0208 0.0498 0.0029
v 0.0208 0.0501 0.0026
v 0.0130 0.0494 0.0031
v 0.0130 0.0502 0.0022
v 0.0130 0.0498 0.0029
v 0.0130 0.0501 0.0026
v 0.0244 0.0433 0.0022
v 0.0237 0.0438 0.0031
v 0.0243 0.0433 0.0026
v 0.0240 0.0435 0.0029
v 0.0244 0.0499 0.0022
v 0.0237 0.0492 0.0031
v 0.0243 0.0498 0.0026
v 0.0241 0.0495 0.0029
v 0.0250 0.0463 0.0022
v 0.0240 0.0463 0.0031
v 0.0248 0.0463 0.0026
v 0.0245 0.0463 0.0029
v 0.0229 0.0494 0.0031
v 0.0229 0.0502 0.0022
v 0.0229 0.0498 0.0029
v 0.0229 0.0501 0.0026
v 0.0231 0.0437 0.0031
v 0.0231 0.0429 0.0022
v 0.0231 0.0433 0.0029
v 0.0231 0.0430 0.0026
v 0.0239 0.0443 0.0031
v 0.0250 0.0443 0.0022
v 0.0244 0.0443 0.0029
v 0.0248 0.0443 0.0026
v 0.0240 0.0485 0.0031
v 0.0250 0.0485 0.0022
v 0.0245 0.0485 0.0029
v 0.0249 0.0485 0.0026
v 0.0216 0.0416 0.0022
v 0.0208 0.0415 0.0031
v 0.0215 0.0416 0.0026
v 0.0212 0.0416 0.0029
v 0.0114 0.0494 0.0022
v 0.0120 0.0489 0.0031
v 0.0115 0.0493 0.0026
v 0.0117 0.0491 0.0029
v 0.0105 0.0462 0.0022
v 0.0115 0.0461 0.0031
v 0.0107 0.0461 0.0026
v 0.0110 0.0461 0.0029
v 0.0128 0.0440 0.0031
v 0.0118 0.0440 0.0022
v 0.0124 0.0439 0.0029
v 0.0120 0.0440 0.0026
v 0.0116 0.0480 0.0031
v 0.0105 0.0478 0.0022
v 0.0111 0.0480 0.0029
v 0.0107 0.0479 0.0026
v 0.0145 0.0408 0.0031
v 0.0136 0.0407 0.0022
v 0.0141 0.0407 0.0029
v 0.0138 0.0407 0.0026
v 0.0168 0.0494 0.0031
v 0.0168 0.0502 0.0022
v 0.0168 0.0498 0.0029
v 0.0168 0.0501 0.0026
v 0.0149 0.0502 0.0022
v 0.0149 0.0494 0.0031
v 0.0149 0.0501 0.0026
v 0.0149 0.0498 0.0029
v 0.0188 0.0502 0.0022
v 0.0188 0.0494 0.0031
v 0.0188 0.0501 0.0026
v 0.0188 0.0498 0.0029
v 0.0217 0.0391 0.0031
v 0.0225 0.0392 0.0022
v 0.0221 0.0391 0.0029
v 0.0224 0.0392 0.0026
v 0.0156 0.0383 0.0031
v 0.0147 0.0382 0.0022
v 0.0152 0.0383 0.0029
v 0.0149 0.0382 0.0026
v 0.0232 0.0338 0.0031
v 0.0240 0.0339 0.0022
v 0.0236 0.0338 0.0029
v 0.0239 0.0339 0.0026
v 0.0172 0.0330 0.0031
v 0.0163 0.0329 0.0022
v 0.0168 0.0330 0.0029
v 0.0165 0.0329 0.0026
v 0.0240 0.0279 0.0031
v 0.0249 0.0279 0.0022
v 0.0245 0.0279 0.0029
v 0.0248 0.0279 0.0026
v 0.0177 0.0277 0.0031
v 0.0168 0.0277 0.0022
v 0.0172 0.0277 0.0029
v 0.0169 0.0277 0.0026
v 0.0249 0.0216 0.0022
v 0.0240 0.0217 0.0031
v 0.0248 0.0216 0.0026
v 0.0244 0.0217 0.0029
v 0.0168 0.0229 0.0031
v 0.0159 0.0231 0.0022
v 0.0164 0.0230 0.0029
v 0.0161 0.0231 0.0026
v 0.0233 0.0152 0.0022
v 0.0225 0.0155 0.0031
v 0.0232 0.0152 0.0026
v 0.0229 0.0154 0.0029
v 0.0148 0.0187 0.0031
v 0.0140 0.0190 0.0022
v 0.0144 0.0189 0.0029
v 0.0141 0.0190 0.0026
v 0.0200 0.0096 0.0022
v 0.0193 0.0101 0.0031
v 0.0199 0.0097 0.0026
v 0.0197 0.0099 0.0029
v 0.0122 0.0156 0.0031
v 0.0115 0.0161 0.0022
v 0.0119 0.0159 0.0029
v 0.0116 0.0161 0.0026
v 0.0152 0.0051 0.0022
v 0.0147 0.0058 0.0031
v 0.0152 0.0052 0.0026
v 0.0150 0.0054 0.0029
v 0.0091 0.0133 0.0031
v 0.0086 0.0140 0.0022
v 0.0089 0.0136 0.0029
v 0.0087 0.0139 0.0026
v 0.0096 0.0019 0.0022
v 0.0092 0.0027 0.0031
v 0.0095 0.0020 0.0026
v 0.0094 0.0023 0.0029
v 0.0059 0.0118 0.0031
v 0.0054 0.0126 0.0022
v 0.0057 0.0122 0.0029
v 0.0055 0.0125 0.0026
v 0.0032 0.0003 0.0022
v 0.0031 0.0012 0.0031
v 0.0032 0.0004 0.0026
v 0.0032 0.0008 0.0029
v 0.0020 0.0110 0.0031
v 0.0019 0.0118 0.0022
v 0.0019 0.0114 0.0029
v 0.0019 0.0117 0.0026
v 0.0249 0.0279 -0.0022
v 0.0251 0.0248 -0.0022
v 0.0249 0.0216 -0.0022
v 0.0243 0.0183 -0.0022
v 0.0233 0.0152 -0.0022
v 0.0218 0.0123 -0.0022
v 0.0200 0.0096 -0.0022
v 0.0178 0.0071 -0.0022
v 0.0152 0.0051 -0.0022
v 0.0125 0.0032 -0.0022
v 0.0096 0.0019 -0.0022
v 0.0064 0.0009 -0.0022
v 0.0032 0.0003 -0.0022
v 0.0159 0.0231 -0.0022
v 0.0165 0.0254 -0.0022
v 0.0168 0.0277 -0.0022
v 0.0140 0.0190 -0.0022
v 0.0150 0.0208 -0.0022
v 0.0115 0.0161 -0.0022
v 0.0127 0.0174 -0.0022
v 0.0086 0.0140 -0.0022
v 0.0100 0.0150 -0.0022
v 0.0054 0.0126 -0.0022
v 0.0069 0.0131 -0.0022
v 0.0019 0.0118 -0.0022
v 0.0037 0.0121 -0.0022
v 0.0240 0.0339 -0.0022
v 0.0244 0.0310 -0.0022
v 0.0167 0.0301 -0.0022
v 0.0163 0.0329 -0.0022
v 0.0225 0.0392 -0.0022
v 0.0232 0.0368 -0.0022
v 0.0156 0.0357 -0.0022
v 0.0147 0.0382 -0.0022
v 0.0212 0.0429 -0.0022
v 0.0216 0.0416 -0.0022
v 0.0231 0.0429 -0.0022
v 0.0131 0.0421 -0.0022
v 0.0118 0.0440 -0.0022
v 0.0136 0.0407 -0.0022
v 0.0208 0.0502 -0.0022
v 0.0229 0.0502 -0.0022
v 0.0188 0.0502 -0.0022
v 0.0130 0.0502 -0.0022
v 0.0149 0.0502 -0.0022
v 0.0114 0.0494 -0.0022
v 0.0250 0.0443 -0.0022
v 0.0244 0.0433 -0.0022
v 0.0244 0.0499 -0.0022
v 0.0250 0.0485 -0.0022
v 0.0250 0.0463 -0.0022
v 0.0105 0.0478 -0.0022
v 0.0105 0.0462 -0.0022
v 0.0168 0.0502 -0.0022
v 0.0168 0.0254 -0.0024
v 0.0153 0.0207 -0.0024
v 0.0130 0.0172 -0.0024
v 0.0103 0.0147 -0.0024
v 0.0071 0.0128 -0.0024
v 0.0038 0.0117 -0.0024
v 0.0170 0.0301 -0.0024
v 0.0158 0.0358 -0.0024
v 0.0134 0.0421 -0.0024
v 0.0241 0.0184 -0.0024
v 0.0130 0.0500 -0.0024
v 0.0231 0.0430 -0.0024
v 0.0247 0.0443 -0.0024
v 0.0248 0.0485 -0.0024
v 0.0108 0.0462 -0.0024
v 0.0214 0.0416 -0.0024
v 0.0168 0.0500 -0.0024
v 0.0149 0.0500 -0.0024
v 0.0188 0.0500 -0.0024
v 0.0224 0.0391 -0.0024
v 0.0238 0.0339 -0.0024
v 0.0247 0.0279 -0.0024
v 0.0163 0.0230 -0.0024
v 0.0143 0.0189 -0.0024
v 0.0118 0.0159 -0.0024
v 0.0089 0.0136 -0.0024
v 0.0055 0.0121 -0.0024
v 0.0019 0.0113 -0.0024
v 0.0108 0.0479 -0.0024
v 0.0121 0.0440 -0.0024
v 0.0139 0.0408 -0.0024
v 0.0150 0.0383 -0.0024
v 0.0166 0.0330 -0.0024
v 0.0171 0.0277 -0.0024
v 0.0208 0.0500 -0.0024
v 0.0229 0.0500 -0.0024
v 0.0247 0.0463 -0.0024
v 0.0115 0.0493 -0.0024
v 0.0242 0.0498 -0.0024
v 0.0210 0.0430 -0.0024
v 0.0249 0.0249 -0.0024
v 0.0216 0.0124 -0.0024
v 0.0176 0.0073 -0.0024
v 0.0124 0.0034 -0.0024
v 0.0064 0.0011 -0.0024
v 0.0243 0.0309 -0.0024
v 0.0230 0.0367 -0.0024
v 0.0247 0.0216 -0.0024
v 0.0231 0.0153 -0.0024
v 0.0198 0.0098 -0.0024
v 0.0151 0.0053 -0.0024
v 0.0095 0.0021 -0.0024
v 0.0032 0.0006 -0.0024
v 0.0243 0.0434 -0.0024
v 0.0251 0.0248 0.0015
v 0.0249 0.0216 0.0015
v 0.0243 0.0183 0.0015
v 0.0233 0.0152 0.0015
v 0.0218 0.0123 0.0015
v 0.0200 0.0096 0.0015
v 0.0178 0.0071 0.0015
v 0.0152 0.0051 0.0015
v 0.0125 0.0032 0.0015
v 0.0096 0.0019 0.0015
v 0.0032 0.0003 0.0015
v 0.0165 0.0254 0.0015
v 0.0168 0.0277 0.0015
v 0.0150 0.0208 0.0015
v 0.0127 0.0174 0.0015
v 0.0100 0.0150 0.0015
v 0.0069 0.0131 0.0015
v 0.0037 0.0121 0.0015
v 0.0244 0.0310 0.0015
v 0.0163 0.0329 0.0015
v 0.0232 0.0368 0.0015
v 0.0147 0.0382 0.0015
v 0.0216 0.0416 0.0015
v 0.0118 0.0440 0.0015
v 0.0229 0.0502 0.0015
v 0.0149 0.0502 0.0015
v 0.0244 0.0433 0.0015
v 0.0244 0.0499 0.0015
v 0.0250 0.0485 0.0015
v 0.0250 0.0463 0.0015
v 0.0105 0.0462 0.0015
v 0.0249 0.0279 0.0015
v 0.0064 0.0009 0.0015
v 0.0159 0.0231 0.0015
v 0.0140 0.0190 0.0015
v 0.0115 0.0161 0.0015
v 0.0086 0.0140 0.0015
v 0.0054 0.0126 0.0015
v 0.0019 0.0118 0.0015
v 0.0240 0.0339 0.0015
v 0.0167 0.0301 0.0015
v 0.0225 0.0392 0.0015
v 0.0156 0.0357 0.0015
v 0.0212 0.0429 0.0015
v 0.0231 0.0429 0.0015
v 0.0131 0.0421 0.0015
v 0.0136 0.0407 0.0015
v 0.0208 0.0502 0.0015
v 0.0188 0.0502 0.0015
v 0.0130 0.0502 0.0015
v 0.0114 0.0494 0.0015
v 0.0250 0.0443 0.0015
v 0.0105 0.0478 0.0015
v 0.0168 0.0502 0.0015
v 0.0249 0.0279 -0.0015
v 0.0064 0.0009 -0.0015
v 0.0159 0.0231 -0.0015
v 0.0140 0.0190 -0.0015
v 0.0115 0.0161 -0.0015
v 0.0086 0.0140 -0.0015
v 0.0054 0.0126 -0.0015
v 0.0019 0.0118 -0.0015
v 0.0240 0.0339 -0.0015
v 0.0167 0.0301 -0.0015
v 0.0225 0.0392 -0.0015
v 0.0156 0.0357 -0.0015
v 0.0212 0.0429 -0.0015
v 0.0231 0.0429 -0.0015
v 0.0131 0.0421 -0.0015
v 0.0136 0.0407 -0.0015
v 0.0208 0.0502 -0.0015
v 0.0188 0.0502 -0.0015
v 0.0130 0.0502 -0.0015
v 0.0114 0.0494 -0.0015
v 0.0250 0.0443 -0.0015
v 0.0105 0.0478 -0.0015
v 0.0168 0.0502 -0.0015
v 0.0251 0.0248 -0.0015
v 0.0249 0.0216 -0.0015
v 0.0243 0.0183 -0.0015
v 0.0233 0.0152 -0.0015
v 0.0218 0.0123 -0.0015
v 0.0200 0.0096 -0.0015
v 0.0178 0.0071 -0.0015
v 0.0152 0.0051 -0.0015
v 0.0125 0.0032 -0.0015
v 0.0096 0.0019 -0.0015
v 0.0032 0.0003 -0.0015
v 0.0165 0.0254 -0.0015
v 0.0168 0.0277 -0.0015
v 0.0150 0.0208 -0.0015
v 0.0127 0.0174 -0.0015
v 0.0100 0.0150 -0.0015
v 0.0069 0.0131 -0.0015
v 0.0037 0.0121 -0.0015
v 0.0244 0.0310 -0.0015
v 0.0163 0.0329 -0.0015
v 0.0232 0.0368 -0.0015
v 0.0147 0.0382 -0.0015
v 0.0216 0.0416 -0.0015
v 0.0118 0.0440 -0.0015
v 0.0229 0.0502 -0.0015
v 0.0149 0.0502 -0.0015
v 0.0244 0.0433 -0.0015
v 0.0244 0.0499 -0.0015
v 0.0250 0.0485 -0.0015
v 0.0250 0.0463 -0.0015
v 0.0105 0.0462 -0.0015
v 0.0251 0.0248 0.0000
v 0.0249 0.0216 0.0000
v 0.0243 0.0183 0.0000
v 0.0233 0.0152 0.0000
v 0.0218 0.0123 0.0000
v 0.0200 0.0096 0.0000
v 0.0178 0.0071 0.0000
v 0.0152 0.0051 0.0000
v 0.0125 0.0032 0.0000
v 0.0096 0.0019 0.0000
v 0.0032 0.0003 0.0000
v 0.0165 0.0254 0.0000
v 0.0168 0.0277 0.0000
v 0.0150 0.0208 0.0000
v 0.0127 0.0174 0.0000
v 0.0100 0.0150 0.0000
v 0.0069 0.0131 0.0000
v 0.0037 0.0121 0.0000
v 0.0244 0.0310 0.0000
v 0.0163 0.0329 0.0000
v 0.0232 0.0368 0.0000
v 0.0147 0.0382 0.0000
v 0.0216 0.0416 0.0000
v 0.0118 0.0440 0.0000
v 0.0229 0.0502 0.0000
v 0.0149 0.0502 0.0000
v 0.0244 0.0433 0.0000
v 0.0244 0.0499 0.0000
v 0.0250 0.0485 0.0000
v 0.0250 0.0463 0.0000
v 0.0105 0.0462 0.0000
v 0.0249 0.0279 0.0000
v 0.0064 0.0009 0.0000
v 0.0159 0.0231 0.0000
v 0.0140 0.0190 0.0000
v 0.0115 0.0161 0.0000
v 0.0086 0.0140 0.0000
v 0.0054 0.0126 0.0000
v 0.0019 0.0118 0.0000
v 0.0240 0.0339 0.0000
v 0.0167 0.0301 0.0000
v 0.0225 0.0392 0.0000
v 0.0156 0.0357 0.0000
v 0.0212 0.0429 0.0000
v 0.0231 0.0429 0.0000
v 0.0131 0.0421 0.0000
v 0.0136 0.0407 0.0000
v 0.0208 0.0502 0.0000
v 0.0188 0.0502 0.0000
v 0.0130 0.0502 0.0000
v 0.0114 0.0494 0.0000
v 0.0250 0.0443 0.0000
v 0.0105 0.0478 0.0000
v 0.0168 0.0502 0.0000
v 0.0170 0.0150 0.0021
v 0.0160 0.0154 0.0021
v 0.0053 0.0069 0.0021
v 0.0051 0.0078 0.0021
v 0.0180 0.0143 0.0021
v 0.0056 0.0056 0.0021
v 0.0156 0.0130 0.0021
v 0.0080 0.0078 0.0021
v 0.0096 0.0085 0.0021
v 0.0025 0.0063 0.0021
v 0.0175 0.0159 0.0021
v 0.0152 0.0126 0.0021
v 0.0167 0.0124 0.0021
v 0.0150 0.0138 0.0021
v 0.0086 0.0066 0.0021
v 0.0078 0.0087 0.0021
v 0.0027 0.0049 0.0021
v 0.0024 0.0072 0.0021
v 0.0088 0.0090 0.0021
v 0.0096 0.0074 0.0021
v 0.0149 0.0131 0.0021
v 0.0160 0.0123 0.0021
v 0.0168 0.0159 0.0021
v 0.0181 0.0152 0.0021
v 0.0159 0.0461 0.0021
v 0.0166 0.0458 0.0021
v 0.0159 0.0472 0.0021
v 0.0166 0.0475 0.0021
v 0.0156 0.0466 0.0021
v 0.0174 0.0461 0.0021
v 0.0173 0.0473 0.0021
v 0.0176 0.0467 0.0021
v 0.0102 0.0088 0.0021
v 0.0089 0.0096 0.0021
v 0.0024 0.0078 0.0021
v 0.0050 0.0084 0.0021
v 0.0076 0.0093 0.0021
v 0.0089 0.0061 0.0021
v 0.0102 0.0070 0.0021
v 0.0028 0.0044 0.0021
v 0.0058 0.0050 0.0021
v 0.0147 0.0122 0.0021
v 0.0143 0.0130 0.0021
v 0.0144 0.0140 0.0021
v 0.0156 0.0158 0.0021
v 0.0170 0.0119 0.0021
v 0.0186 0.0141 0.0021
v 0.0160 0.0117 0.0021
v 0.0166 0.0165 0.0021
v 0.0187 0.0154 0.0021
v 0.0178 0.0164 0.0021
v 0.0161 0.0463 0.0021
v 0.0166 0.0461 0.0021
v 0.0166 0.0472 0.0021
v 0.0161 0.0470 0.0021
v 0.0159 0.0466 0.0021
v 0.0171 0.0463 0.0021
v 0.0171 0.0470 0.0021
v 0.0173 0.0467 0.0021
v 0.0166 0.0467 0.0021
v 0.0140 0.0130 0.0031
v 0.0143 0.0130 0.0027
v 0.0142 0.0130 0.0030
v 0.0089 0.0096 0.0027
v 0.0090 0.0100 0.0031
v 0.0089 0.0097 0.0030
v 0.0048 0.0088 0.0031
v 0.0050 0.0084 0.0027
v 0.0049 0.0085 0.0030
v 0.0160 0.0117 0.0027
v 0.0160 0.0113 0.0031
v 0.0160 0.0115 0.0030
v 0.0102 0.0070 0.0027
v 0.0106 0.0069 0.0031
v 0.0103 0.0070 0.0030
v 0.0058 0.0050 0.0027
v 0.0058 0.0047 0.0031
v 0.0058 0.0049 0.0030
v 0.0105 0.0090 0.0031
v 0.0102 0.0088 0.0027
v 0.0103 0.0089 0.0030
v 0.0157 0.0457 0.0031
v 0.0159 0.0461 0.0027
v 0.0158 0.0460 0.0030
v 0.0159 0.0472 0.0027
v 0.0155 0.0475 0.0031
v 0.0158 0.0473 0.0030
v 0.0174 0.0461 0.0027
v 0.0177 0.0458 0.0031
v 0.0175 0.0460 0.0030
v 0.0176 0.0476 0.0031
v 0.0173 0.0473 0.0027
v 0.0174 0.0474 0.0030
v 0.0166 0.0170 0.0031
v 0.0166 0.0165 0.0027
v 0.0166 0.0167 0.0030
v 0.0187 0.0154 0.0027
v 0.0191 0.0156 0.0031
v 0.0188 0.0155 0.0030
v 0.0076 0.0093 0.0027
v 0.0074 0.0097 0.0031
v 0.0075 0.0094 0.0030
v 0.0090 0.0057 0.0031
v 0.0089 0.0061 0.0027
v 0.0089 0.0060 0.0030
v 0.0024 0.0078 0.0027
v 0.0023 0.0082 0.0031
v 0.0023 0.0079 0.0030
v 0.0028 0.0040 0.0031
v 0.0028 0.0044 0.0027
v 0.0028 0.0042 0.0030
v 0.0166 0.0458 0.0027
v 0.0167 0.0454 0.0031
v 0.0166 0.0457 0.0030
v 0.0165 0.0479 0.0031
v 0.0166 0.0475 0.0027
v 0.0166 0.0476 0.0030
v 0.0156 0.0466 0.0027
v 0.0152 0.0467 0.0031
v 0.0154 0.0467 0.0030
v 0.0176 0.0467 0.0027
v 0.0181 0.0467 0.0031
v 0.0178 0.0467 0.0030
v 0.0147 0.0122 0.0027
v 0.0145 0.0120 0.0031
v 0.0147 0.0121 0.0030
v 0.0144 0.0140 0.0027
v 0.0140 0.0142 0.0031
v 0.0143 0.0140 0.0030
v 0.0153 0.0160 0.0031
v 0.0156 0.0158 0.0027
v 0.0155 0.0158 0.0030
v 0.0173 0.0117 0.0031
v 0.0170 0.0119 0.0027
v 0.0171 0.0118 0.0030
v 0.0186 0.0141 0.0027
v 0.0190 0.0139 0.0031
v 0.0187 0.0140 0.0030
v 0.0178 0.0164 0.0027
v 0.0181 0.0168 0.0031
v 0.0179 0.0166 0.0030
v 0.0000 0.0076 0.0024
v -0.0024 0.0078 0.0024
v -0.0089 0.0096 0.0024
v -0.0102 0.0088 0.0024
v -0.0076 0.0093 0.0024
v -0.0050 0.0084 0.0024
v -0.0102 0.0070 0.0024
v -0.0089 0.0061 0.0024
v -0.0058 0.0050 0.0024
v -0.0028 0.0044 0.0024
v 0.0000 0.0042 0.0024
v 0.0024 0.0078 0.0024
v 0.0089 0.0096 0.0024
v 0.0102 0.0088 0.0024
v 0.0076 0.0093 0.0024
v 0.0050 0.0084 0.0024
v 0.0102 0.0070 0.0024
v 0.0089 0.0061 0.0024
v 0.0058 0.0050 0.0024
v 0.0028 0.0044 0.0024
v 0.0147 0.0122 0.0024
v 0.0143 0.0130 0.0024
v 0.0144 0.0140 0.0024
v 0.0160 0.0117 0.0024
v 0.0170 0.0119 0.0024
v 0.0156 0.0158 0.0024
v 0.0166 0.0165 0.0024
v 0.0178 0.0164 0.0024
v 0.0187 0.0154 0.0024
v 0.0186 0.0141 0.0024
v -0.0147 0.0122 0.0024
v -0.0143 0.0130 0.0024
v -0.0144 0.0140 0.0024
v -0.0160 0.0117 0.0024
v -0.0170 0.0119 0.0024
v -0.0156 0.0158 0.0024
v -0.0166 0.0165 0.0024
v -0.0178 0.0164 0.0024
v -0.0187 0.0154 0.0024
v -0.0186 0.0141 0.0024
v -0.0166 0.0458 0.0024
v -0.0159 0.0461 0.0024
v -0.0156 0.0466 0.0024
v -0.0159 0.0472 0.0024
v -0.0166 0.0475 0.0024
v -0.0174 0.0461 0.0024
v -0.0176 0.0467 0.0024
v -0.0173 0.0473 0.0024
v 0.0166 0.0458 0.0024
v 0.0159 0.0461 0.0024
v 0.0156 0.0466 0.0024
v 0.0159 0.0472 0.0024
v 0.0166 0.0475 0.0024
v 0.0174 0.0461 0.0024
v 0.0176 0.0467 0.0024
v 0.0173 0.0473 0.0024
f 634 82 193 630
f 636 83 199 633
f 638 84 205 635
f 640 85 211 637
f 642 86 217 639
f 449 357 360 552
f 632 187 89 646
f 647 181 91 650
f 657 127 93 655
f 476 316 335 513
f 228 5 2 33
f 481 340 341 500
f 668 100 106 664
f 4 1 3 6
f 292 332 541 472
f 654 103 92 652
f 727 685 345 374
f 1 8 9 3
f 544 359 350 509
f 33 2 7 230
f 290 291 520 517
f 670 114 116 669
f 626 216 79 627
f 34 16 15 32
f 53 51 14 31
f 57 55 13 30
f 1027 1012 273 17
f 70 266 267 68
f 1010 962 275 268
f 1025 994 247 36
f 61 28 11 59
f 288 291 5 15
f 49 47 16 34
f 671 130 164 660
f 50 48 26 37
f 62 39 21 60
f 64 40 261 264
f 67 41 262 260
f 71 42 272 69
f 72 43 274 271
f 73 35 17 273
f 58 56 23 44
f 54 52 24 45
f 37 26 25 46
f 32 228 229 25
f 2093 2094 923 924
f 2097 2100 929 926
f 330 331 537 532
f 15 5 228 32
f 48 49 34 26
f 60 21 28 61
f 1004 970 269 270
f 994 1018 19 247
f 69 272 266 70
f 2061 2062 938 939
f 992 1025 36 246
f 56 57 30 23
f 52 53 31 24
f 26 34 32 25
f 980 1006 271 274
f 2059 2060 936 937
f 662 144 130 671
f 660 164 94 658
f 4 233 235 1
f 1 235 234 8
f 350 37 46 348
f 360 54 45 358
f 361 58 44 357
f 367 349 35 73
f 366 356 43 72
f 365 355 42 71
f 364 354 41 67
f 363 353 40 64
f 362 352 39 62
f 359 50 37 350
f 25 229 233 46
f 358 45 50 359
f 24 31 49 48
f 45 24 48 50
f 650 91 175 651
f 31 14 47 49
f 357 44 54 360
f 23 30 53 52
f 44 23 52 54
f 30 13 51 53
f 646 89 181 647
f 351 38 58 361
f 20 27 57 56
f 38 20 56 58
f 27 10 55 57
f 631 81 187 632
f 351 362 62 38
f 20 60 61 27
f 38 62 60 20
f 27 61 59 10
f 280 421 564 297
f 352 363 64 39
f 21 264 265 28
f 39 64 264 21
f 28 265 263 11
f 298 281 425 572
f 353 364 67 40
f 1022 985 244 232
f 40 67 260 261
f 977 982 266 272
f 299 282 429 580
f 354 365 71 41
f 262 69 70 256
f 41 71 69 262
f 256 70 68 257
f 300 283 433 588
f 355 366 72 42
f 1034 964 276 65
f 42 72 271 272
f 2098 2093 924 928
f 301 284 437 596
f 356 367 73 43
f 2054 2058 934 933
f 43 73 273 274
f 302 285 441 604
f 695 193 82 674
f 696 199 83 675
f 697 205 84 676
f 698 211 85 677
f 699 217 86 678
f 700 223 87 703
f 707 679 89 187
f 706 680 91 181
f 704 681 93 127
f 690 144 95 683
f 236 155 97 105
f 9 329 347 342
f 685 106 100 710
f 104 107 101 96
f 708 709 102 94
f 713 684 372 370
f 667 110 100 668
f 96 101 111 109
f 710 100 110 686
f 155 238 108 97
f 701 116 114 687
f 687 114 115 702
f 331 316 476 537
f 173 370 104 241
f 158 153 126 128
f 184 152 125 182
f 190 151 124 188
f 226 224 117 154
f 220 218 123 150
f 214 212 122 149
f 208 206 121 148
f 202 200 120 147
f 196 194 119 146
f 312 126 105 315
f 178 158 128 176
f 705 704 127 175
f 179 163 143 177
f 197 195 135 166
f 203 201 136 167
f 209 207 137 168
f 215 213 138 169
f 221 219 139 170
f 227 225 129 159
f 191 171 140 189
f 185 172 141 183
f 163 173 142 143
f 153 142 237 236
f 255 162 251 131
f 161 255 131 249
f 691 164 130 689
f 126 153 236 105
f 177 143 158 178
f 195 196 146 135
f 201 202 147 136
f 207 208 148 137
f 213 214 149 138
f 219 220 150 139
f 225 226 154 129
f 189 140 151 190
f 183 141 152 184
f 143 142 153 158
f 131 251 157 252
f 249 131 252 156
f 689 130 144 690
f 708 94 164 691
f 104 96 243 241
f 96 109 242 243
f 688 713 370 373
f 384 382 172 185
f 385 381 171 191
f 391 227 159 371
f 390 221 170 380
f 389 215 169 379
f 388 209 168 378
f 387 203 167 377
f 386 197 166 376
f 383 373 163 179
f 142 173 241 237
f 382 383 179 172
f 141 177 178 152
f 172 179 177 141
f 680 705 175 91
f 152 178 176 125
f 381 384 185 171
f 140 183 184 151
f 171 185 183 140
f 151 184 182 124
f 679 706 181 89
f 375 385 191 165
f 134 189 190 145
f 165 191 189 134
f 145 190 188 118
f 673 707 187 81
f 375 165 197 386
f 134 145 196 195
f 165 134 195 197
f 145 118 194 196
f 673 81 193 695
f 376 166 203 387
f 135 146 202 201
f 166 135 201 203
f 146 119 200 202
f 674 82 199 696
f 377 167 209 388
f 136 147 208 207
f 167 136 207 209
f 147 120 206 208
f 675 83 205 697
f 378 168 215 389
f 137 148 214 213
f 168 137 213 215
f 148 121 212 214
f 676 84 211 698
f 379 169 221 390
f 138 149 220 219
f 169 138 219 221
f 149 122 218 220
f 677 85 217 699
f 380 170 227 391
f 139 150 226 225
f 170 139 225 227
f 150 123 224 226
f 678 86 223 700
f 328 342 504 489
f 643 87 223 641
f 513 335 289 524
f 617 74 192 618
f 296 556 461 287
f 457 358 359 544
f 661 95 144 662
f 623 77 210 624
f 560 361 357 449
f 639 217 85 640
f 509 350 348 465
f 111 346 369 336
f 552 360 358 457
f 392 351 361 560
f 619 75 198 620
f 658 94 102 659
f 569 396 352 362
f 635 205 83 636
f 663 113 95 661
f 577 400 353 363
f 585 404 354 364
f 593 408 355 365
f 656 115 114 670
f 287 461 548 295
f 601 412 356 366
f 289 290 517 524
f 297 564 453 286
f 280 298 572 421
f 465 348 344 496
f 281 299 580 425
f 625 78 216 626
f 295 548 528 294
f 651 175 127 657
f 665 98 103 654
f 282 300 588 429
f 641 223 86 642
f 341 328 489 500
f 283 301 596 433
f 284 302 604 437
f 666 99 110 667
f 285 303 612 441
f 621 76 204 622
f 294 528 469 288
f 469 520 291 288
f 637 211 84 638
f 332 330 532 541
f 101 343 346 111
f 292 472 492 329
f 347 329 492 485
f 286 453 556 296
f 633 199 82 634
f 244 18 229 228
f 19 245 230 231
f 245 232 33 230
f 232 244 228 33
f 18 246 233 229
f 247 19 231 234
f 246 36 235 233
f 36 247 234 235
f 132 248 236 237
f 250 133 239 238
f 240 250 238 155
f 248 240 155 236
f 253 132 237 241
f 133 254 242 239
f 160 253 241 243
f 254 160 243 242
f 2094 2095 927 923
f 2095 2096 925 927
f 1018 989 245 19
f 2096 2097 926 925
f 2099 2098 928 930
f 2100 2099 930 929
f 1016 992 246 18
f 2088 2089 949 945
f 249 156 248 132
f 157 251 133 250
f 252 157 250 240
f 156 252 240 248
f 161 249 132 253
f 251 162 254 133
f 255 161 253 160
f 162 255 160 254
f 276 29 256 257
f 12 65 258 259
f 66 22 261 260
f 29 277 262 256
f 278 12 259 263
f 22 279 264 261
f 279 63 265 264
f 63 278 263 265
f 65 276 257 258
f 277 66 260 262
f 2057 2055 932 935
f 2058 2057 935 934
f 982 968 267 266
f 2056 2059 937 931
f 2060 2061 939 936
f 1006 977 272 271
f 2086 2083 942 948
f 1012 980 274 273
f 2084 2085 944 943
f 2092 2087 946 947
f 2087 2086 948 946
f 2089 2090 951 949
f 2090 2091 950 951
f 1043 1001 279 22
f 2091 2092 947 950
f 2055 2056 931 932
f 1031 974 277 29
f 109 334 339 242
f 123 309 327 224
f 122 308 326 218
f 121 307 325 212
f 120 306 324 206
f 119 305 323 200
f 118 304 322 194
f 118 188 321 304
f 124 182 320 310
f 125 176 319 311
f 176 128 318 319
f 681 312 315 702
f 239 337 338 238
f 97 314 315 105
f 108 313 314 97
f 128 126 312 318
f 182 125 311 320
f 188 124 310 321
f 224 327 317 117
f 218 326 309 123
f 212 325 308 122
f 206 324 307 121
f 200 323 306 120
f 194 322 305 119
f 269 268 303 285
f 267 270 302 284
f 257 68 301 283
f 259 258 300 282
f 11 263 299 281
f 10 59 298 280
f 10 280 297 55
f 13 286 296 51
f 14 287 295 47
f 47 295 294 16
f 655 93 115 656
f 2 5 291 290
f 7 2 290 289
f 16 294 288 15
f 51 296 287 14
f 55 297 286 13
f 268 275 293 303
f 270 269 285 302
f 68 267 284 301
f 258 257 283 300
f 263 259 282 299
f 59 11 281 298
f 669 116 113 663
f 711 701 313 368
f 242 339 337 239
f 109 111 336 334
f 341 340 344 6
f 238 338 333 108
f 8 234 332 292
f 231 230 331 330
f 234 231 330 332
f 8 292 329 9
f 289 335 316 7
f 230 7 316 331
f 342 347 485 504
f 659 102 99 666
f 107 345 343 101
f 3 9 342 328
f 496 344 340 481
f 6 3 328 341
f 664 106 98 665
f 4 348 46 233
f 344 348 4 6
f 624 210 78 625
f 622 204 77 623
f 620 198 76 621
f 618 192 75 619
f 616 186 74 617
f 396 577 363 352
f 644 180 88 645
f 648 174 90 649
f 653 112 174 648
f 400 585 364 353
f 404 593 365 354
f 408 601 366 355
f 627 79 222 628
f 412 609 367 356
f 628 222 80 629
f 645 88 186 616
f 649 90 180 644
f 652 92 112 653
f 683 711 368 333
f 333 368 313 108
f 709 712 99 102
f 712 686 110 99
f 717 379 390 725
f 370 372 107 104
f 718 380 391 726
f 372 374 345 107
f 716 378 389 724
f 715 377 388 723
f 682 376 387 722
f 714 375 386 721
f 714 694 385 375
f 719 693 384 381
f 720 692 383 382
f 692 688 373 383
f 721 386 376 682
f 722 387 377 715
f 723 388 378 716
f 724 389 379 717
f 725 390 380 718
f 726 391 371 672
f 694 719 381 385
f 693 720 382 384
f 373 370 173 163
f 684 727 374 372
f 1046 997 278 63
f 989 1022 232 245
f 970 1010 268 269
f 2053 2054 933 940
f 2062 2063 941 938
f 985 1016 18 244
f 968 1004 270 267
f 1001 1046 63 279
f 997 1036 12 278
f 974 1039 66 277
f 630 193 81 631
f 303 293 444 612
f 2083 2084 943 942
f 2085 2088 945 944
f 609 417 349 367
f 569 392 394 571
f 571 394 395 570
f 570 395 393 568
f 577 396 398 579
f 579 398 399 578
f 578 399 397 576
f 585 400 402 587
f 587 402 403 586
f 586 403 401 584
f 593 404 406 595
f 595 406 407 594
f 594 407 405 592
f 601 408 410 603
f 603 410 411 602
f 602 411 409 600
f 609 412 414 611
f 611 414 415 610
f 610 415 413 608
f 573 420 422 575
f 575 422 423 574
f 574 423 421 572
f 581 424 426 583
f 583 426 427 582
f 582 427 425 580
f 589 428 430 591
f 591 430 431 590
f 590 431 429 588
f 597 432 434 599
f 599 434 435 598
f 598 435 433 596
f 605 436 438 607
f 607 438 439 606
f 606 439 437 604
f 613 440 442 615
f 615 442 443 614
f 614 443 441 612
f 561 393 395 563
f 563 395 394 562
f 562 394 392 560
f 565 452 454 567
f 567 454 455 566
f 566 455 453 564
f 553 448 450 555
f 555 450 451 554
f 554 451 449 552
f 557 460 462 559
f 559 462 463 558
f 558 463 461 556
f 545 456 458 547
f 547 458 459 546
f 546 459 457 544
f 529 468 470 531
f 531 470 471 530
f 530 471 469 528
f 537 476 478 539
f 539 478 479 538
f 538 479 477 536
f 501 480 482 503
f 503 482 483 502
f 502 483 481 500
f 505 488 490 507
f 507 490 491 506
f 506 491 489 504
f 493 484 486 495
f 495 486 487 494
f 494 487 485 492
f 497 464 466 499
f 499 466 467 498
f 498 467 465 496
f 473 493 495 475
f 475 495 494 474
f 474 494 492 472
f 488 501 503 490
f 490 503 502 491
f 491 502 500 489
f 525 512 514 527
f 527 514 515 526
f 526 515 513 524
f 521 516 518 523
f 523 518 519 522
f 522 519 517 520
f 464 508 510 466
f 466 510 511 467
f 467 511 509 465
f 516 525 527 518
f 518 527 526 519
f 519 526 524 517
f 468 521 523 470
f 470 523 522 471
f 471 522 520 469
f 549 529 531 551
f 551 531 530 550
f 550 530 528 548
f 541 532 534 543
f 543 534 535 542
f 542 535 533 540
f 532 537 539 534
f 534 539 538 535
f 535 538 536 533
f 472 541 543 474
f 474 543 542 475
f 475 542 540 473
f 508 545 547 510
f 510 547 546 511
f 511 546 544 509
f 460 549 551 462
f 462 551 550 463
f 463 550 548 461
f 456 553 555 458
f 458 555 554 459
f 459 554 552 457
f 452 557 559 454
f 454 559 558 455
f 455 558 556 453
f 448 561 563 450
f 450 563 562 451
f 451 562 560 449
f 420 565 567 422
f 422 567 566 423
f 423 566 564 421
f 396 569 571 398
f 398 571 570 399
f 399 570 568 397
f 424 573 575 426
f 426 575 574 427
f 427 574 572 425
f 400 577 579 402
f 402 579 578 403
f 403 578 576 401
f 428 581 583 430
f 430 583 582 431
f 431 582 580 429
f 404 585 587 406
f 406 587 586 407
f 407 586 584 405
f 432 589 591 434
f 434 591 590 435
f 435 590 588 433
f 408 593 595 410
f 410 595 594 411
f 411 594 592 409
f 436 597 599 438
f 438 599 598 439
f 439 598 596 437
f 412 601 603 414
f 414 603 602 415
f 415 602 600 413
f 440 605 607 442
f 442 607 606 443
f 443 606 604 441
f 417 609 611 419
f 419 611 610 418
f 418 610 608 416
f 445 613 615 447
f 447 615 614 446
f 446 614 612 444
f 512 477 479 514
f 514 479 478 515
f 515 478 476 513
f 484 505 507 486
f 486 507 506 487
f 487 506 504 485
f 480 497 499 482
f 482 499 498 483
f 483 498 496 481
f 392 569 362 351
f 786 630 631 820
f 797 652 653 831
f 829 649 644 793
f 827 645 616 784
f 818 628 629 819
f 785 627 628 818
f 831 653 648 795
f 795 648 649 829
f 793 644 645 827
f 784 616 617 808
f 809 618 619 810
f 811 620 621 812
f 813 622 623 814
f 815 624 625 816
f 805 664 665 835
f 833 659 666 836
f 806 669 663 804
f 799 655 656 832
f 787 633 634 822
f 789 637 638 824
f 812 621 622 813
f 836 666 667 837
f 791 641 642 826
f 835 665 654 798
f 830 651 657 800
f 816 625 626 817
f 832 656 670 839
f 804 663 661 803
f 788 635 636 823
f 801 658 659 833
f 810 619 620 811
f 790 639 640 825
f 814 623 624 815
f 803 661 662 834
f 808 617 618 809
f 792 643 641 791
f 837 667 668 838
f 820 631 632 821
f 794 646 647 828
f 796 650 651 830
f 802 660 658 801
f 834 662 671 807
f 807 671 660 802
f 817 626 627 785
f 839 670 669 806
f 798 654 652 797
f 838 668 664 805
f 800 657 655 799
f 828 647 650 796
f 821 632 646 794
f 826 642 639 790
f 825 640 637 789
f 824 638 635 788
f 823 636 633 787
f 822 634 630 786
f 103 98 727 684
f 180 90 720 693
f 186 88 719 694
f 222 726 672 80
f 216 725 718 79
f 210 724 717 78
f 204 723 716 77
f 198 722 715 76
f 192 721 682 75
f 174 112 688 692
f 90 174 692 720
f 88 180 693 719
f 74 186 694 714
f 74 714 721 192
f 75 682 722 198
f 76 715 723 204
f 77 716 724 210
f 79 718 726 222
f 78 717 725 216
f 369 346 686 712
f 336 369 712 709
f 95 113 711 683
f 113 116 701 711
f 93 681 702 115
f 309 678 700 327
f 308 677 699 326
f 307 676 698 325
f 306 675 697 324
f 305 674 696 323
f 304 673 695 322
f 304 321 707 673
f 310 320 706 679
f 311 319 705 680
f 112 92 713 688
f 334 708 691 339
f 337 689 690 338
f 339 691 689 337
f 319 318 704 705
f 314 687 702 315
f 313 701 687 314
f 343 710 686 346
f 92 103 684 713
f 334 336 709 708
f 345 685 710 343
f 338 690 683 333
f 318 312 681 704
f 320 311 680 706
f 321 310 679 707
f 327 700 703 317
f 326 699 678 309
f 325 698 677 308
f 324 697 676 307
f 323 696 675 306
f 322 695 674 305
f 98 106 685 727
f 424 742 762 573
f 428 743 763 581
f 432 744 764 589
f 436 745 765 597
f 440 746 766 605
f 565 741 770 452
f 557 748 772 460
f 529 776 775 468
f 488 758 781 501
f 497 774 773 464
f 516 759 782 525
f 600 737 761 413
f 533 783 778 540
f 536 754 783 533
f 540 778 777 473
f 460 772 750 549
f 452 770 748 557
f 420 740 741 565
f 505 757 758 488
f 445 768 767 613
f 393 728 729 568
f 477 779 754 536
f 405 734 735 592
f 605 766 745 436
f 397 730 731 576
f 473 777 753 493
f 589 764 743 428
f 512 780 779 477
f 521 752 759 516
f 409 736 737 600
f 549 750 776 529
f 480 755 774 497
f 613 767 746 440
f 484 756 757 505
f 401 732 733 584
f 597 765 744 432
f 581 763 742 424
f 468 775 752 521
f 525 782 780 512
f 493 753 756 484
f 501 781 755 480
f 592 735 736 409
f 584 733 734 405
f 576 731 732 401
f 568 729 730 397
f 561 760 728 393
f 553 769 747 448
f 545 771 749 456
f 508 751 771 545
f 413 761 738 608
f 608 738 739 416
f 448 747 760 561
f 456 749 769 553
f 464 773 751 508
f 573 762 740 420
f 854 822 786 874
f 855 823 787 875
f 856 824 788 876
f 857 825 789 877
f 858 826 790 878
f 853 821 794 882
f 860 828 796 884
f 888 800 799 887
f 870 838 805 893
f 886 798 797 885
f 871 839 806 894
f 849 817 785 873
f 895 807 802 890
f 866 834 807 895
f 890 802 801 889
f 884 796 830 862
f 882 794 828 860
f 852 820 821 853
f 869 837 838 870
f 880 792 791 879
f 840 808 809 841
f 891 803 834 866
f 846 814 815 847
f 878 790 825 857
f 842 810 811 843
f 889 801 833 865
f 876 788 823 855
f 892 804 803 891
f 864 832 839 871
f 848 816 817 849
f 862 830 800 888
f 867 835 798 886
f 879 791 826 858
f 868 836 837 869
f 844 812 813 845
f 877 789 824 856
f 875 787 822 854
f 887 799 832 864
f 894 806 804 892
f 865 833 836 868
f 893 805 835 867
f 847 815 816 848
f 845 813 814 846
f 843 811 812 844
f 841 809 810 842
f 872 784 808 840
f 881 793 827 859
f 883 795 829 861
f 863 831 795 883
f 873 785 818 850
f 850 818 819 851
f 859 827 784 872
f 861 829 793 881
f 885 797 831 863
f 874 786 820 852
f 762 874 852 740
f 773 885 863 751
f 749 861 881 769
f 747 859 872 760
f 738 850 851 739
f 761 873 850 738
f 751 863 883 771
f 771 883 861 749
f 769 881 859 747
f 760 872 840 728
f 729 841 842 730
f 731 843 844 732
f 733 845 846 734
f 735 847 848 736
f 781 893 867 755
f 753 865 868 756
f 782 894 892 780
f 775 887 864 752
f 763 875 854 742
f 765 877 856 744
f 732 844 845 733
f 756 868 869 757
f 767 879 858 746
f 755 867 886 774
f 750 862 888 776
f 736 848 849 737
f 752 864 871 759
f 780 892 891 779
f 764 876 855 743
f 777 889 865 753
f 730 842 843 731
f 766 878 857 745
f 734 846 847 735
f 779 891 866 754
f 728 840 841 729
f 768 880 879 767
f 757 869 870 758
f 740 852 853 741
f 770 882 860 748
f 772 884 862 750
f 778 890 889 777
f 754 866 895 783
f 783 895 890 778
f 737 849 873 761
f 759 871 894 782
f 774 886 885 773
f 758 870 893 781
f 776 888 887 775
f 748 860 884 772
f 741 853 882 770
f 746 858 878 766
f 745 857 877 765
f 744 856 876 764
f 743 855 875 763
f 742 854 874 762
f 908 900 904 916
f 906 898 899 914
f 905 910 919 912
f 909 896 897 921
f 922 902 896 909
f 911 920 910 905
f 913 903 898 906
f 915 901 900 908
f 902 911 905 896
f 896 905 912 897
f 918 913 906 907
f 907 906 914 917
f 903 915 908 898
f 898 908 916 899
f 964 1031 29 276
f 1036 1034 65 12
f 1039 1043 22 66
f 952 953 924 923
f 954 955 925 926
f 955 956 927 925
f 956 952 923 927
f 953 957 928 924
f 958 954 926 929
f 957 959 930 928
f 959 958 929 930
f 907 917 932 931
f 899 916 933 934
f 917 914 935 932
f 913 918 937 936
f 915 903 939 938
f 918 907 931 937
f 914 899 934 935
f 903 913 936 939
f 916 904 940 933
f 901 915 938 941
f 919 910 942 943
f 897 912 944 945
f 911 902 947 946
f 910 920 948 942
f 921 897 945 949
f 902 922 950 947
f 922 909 951 950
f 909 921 949 951
f 912 919 943 944
f 920 911 946 948
f 957 953 960 959
f 953 952 956 960
f 959 960 954 958
f 960 956 955 954
f 986 1015 1017 987
f 987 1017 1016 985
f 989 1018 1020 990
f 990 1020 1019 988
f 1022 989 990 1023
f 1023 990 988 1021
f 985 1022 1023 987
f 987 1023 1021 986
f 1015 991 993 1017
f 1017 993 992 1016
f 1018 994 996 1020
f 1020 996 995 1019
f 991 1024 1026 993
f 993 1026 1025 992
f 1024 995 996 1026
f 1026 996 994 1025
f 983 967 969 984
f 984 969 968 982
f 1010 970 972 1011
f 1011 972 971 1009
f 1004 968 969 1005
f 1005 969 967 1003
f 1007 976 978 1008
f 1008 978 977 1006
f 1013 979 981 1014
f 1014 981 980 1012
f 976 983 984 978
f 978 984 982 977
f 970 1004 1005 972
f 972 1005 1003 971
f 979 1007 1008 981
f 981 1008 1006 980
f 962 1010 1011 963
f 963 1011 1009 961
f 1028 1013 1014 1029
f 1029 1014 1012 1027
f 1031 964 966 1032
f 1032 966 965 1030
f 1034 1036 1038 1035
f 1035 1038 1037 1033
f 1040 1042 1044 1041
f 1041 1044 1043 1039
f 974 1031 1032 975
f 975 1032 1030 973
f 1036 997 999 1038
f 1038 999 998 1037
f 1042 1000 1002 1044
f 1044 1002 1001 1043
f 1000 1045 1047 1002
f 1002 1047 1046 1001
f 1045 998 999 1047
f 1047 999 997 1046
f 964 1034 1035 966
f 966 1035 1033 965
f 973 1040 1041 975
f 975 1041 1039 974
f 1659 1655 1232 1126
f 1661 1658 1238 1127
f 1663 1660 1244 1128
f 1665 1662 1250 1129
f 1667 1664 1256 1130
f 1475 1578 1395 1392
f 1657 1670 1132 1226
f 1671 1674 1134 1220
f 1681 1679 1136 1169
f 1502 1539 1371 1353
f 1267 1079 1049 1052
f 1507 1526 1377 1376
f 1692 1688 1149 1143
f 1051 1053 1050 1048
f 1330 1498 1567 1368
f 1678 1676 1135 1146
f 1749 1408 1381 1708
f 1048 1050 1056 1055
f 1570 1535 1385 1394
f 1079 1269 1054 1049
f 1328 1543 1546 1329
f 1694 1693 1159 1157
f 1652 1653 1124 1255
f 1080 1078 1062 1063
f 1098 1077 1061 1096
f 1102 1076 1060 1100
f 1027 17 1312 2020
f 1115 1113 1306 1305
f 2018 1307 275 962
f 2033 1081 1286 2002
f 1106 1104 1058 1074
f 1326 1062 1052 1329
f 1094 1080 1063 1092
f 1695 1684 1203 1171
f 1095 1082 1072 1093
f 1107 1105 1067 1084
f 1109 1303 1300 1085
f 1112 1299 1301 1086
f 1116 1114 1311 1087
f 1117 1310 1313 1088
f 1118 1312 17 35
f 1103 1089 1069 1101
f 1099 1090 1070 1097
f 1082 1091 1071 1072
f 1078 1071 1268 1267
f 2101 1937 1936 2102
f 2105 1939 1942 2108
f 1366 1558 1563 1367
f 1062 1078 1267 1052
f 1093 1072 1080 1094
f 1105 1106 1074 1067
f 2012 1309 1308 1978
f 2002 1286 1065 2026
f 1114 1115 1305 1311
f 2071 1952 1951 2072
f 2000 1285 1081 2033
f 1101 1069 1076 1102
f 1097 1070 1077 1098
f 1072 1071 1078 1080
f 1988 1313 1310 2014
f 2069 1950 1949 2070
f 1686 1695 1171 1185
f 1684 1682 1137 1203
f 1051 1048 1274 1272
f 1048 1055 1273 1274
f 1385 1384 1091 1082
f 1395 1393 1090 1099
f 1396 1392 1089 1103
f 1402 1118 35 349
f 1401 1117 1088 1391
f 1400 1116 1087 1390
f 1399 1112 1086 1389
f 1398 1109 1085 1388
f 1397 1107 1084 1387
f 1394 1385 1082 1095
f 1071 1091 1272 1268
f 1393 1394 1095 1090
f 1070 1093 1094 1077
f 1090 1095 1093 1070
f 1674 1675 1214 1134
f 1077 1094 1092 1061
f 1392 1395 1099 1089
f 1069 1097 1098 1076
f 1089 1099 1097 1069
f 1076 1098 1096 1060
f 1670 1671 1220 1132
f 1386 1396 1103 1083
f 1066 1101 1102 1073
f 1083 1103 1101 1066
f 1073 1102 1100 1057
f 1656 1657 1226 1125
f 1386 1083 1107 1397
f 1066 1073 1106 1105
f 1083 1066 1105 1107
f 1073 1057 1104 1106
f 1318 1334 1590 1451
f 1387 1084 1109 1398
f 1067 1074 1304 1303
f 1084 1067 1303 1109
f 1074 1058 1302 1304
f 1335 1598 1455 1319
f 1388 1085 1112 1399
f 2030 1271 1283 1993
f 1085 1300 1299 1112
f 1985 1311 1305 1990
f 1336 1606 1459 1320
f 1389 1086 1116 1400
f 1301 1295 1115 1114
f 1086 1301 1114 1116
f 1295 1296 1113 1115
f 1337 1614 1463 1321
f 1390 1087 1117 1401
f 2039 1110 1314 1972
f 1087 1311 1310 1117
f 2106 1941 1937 2101
f 1338 1622 1467 1322
f 1391 1088 1118 1402
f 2064 1946 1947 2068
f 1088 1313 1312 1118
f 1339 1630 1471 1323
f 1718 1697 1126 1232
f 1719 1698 1127 1238
f 1720 1699 1128 1244
f 1721 1700 1129 1250
f 1722 1701 1130 1256
f 1723 703 87 1262
f 1729 1226 1132 1702
f 1728 1220 1134 1703
f 1726 1169 1136 1704
f 1713 1706 1138 1185
f 1275 1148 1140 1195
f 1056 1378 1383 1365
f 1708 1732 1143 1149
f 1147 1139 1144 1150
f 1730 1137 1145 1731
f 1735 1405 1406 1707
f 1691 1692 1143 1153
f 1139 1152 1154 1144
f 1732 1709 1153 1143
f 1195 1140 1151 1277
f 1724 1710 1157 1159
f 1710 1725 1158 1157
f 1367 1563 1502 1353
f 1212 1280 1147 1405
f 1198 1170 1168 1194
f 1223 1221 1167 1193
f 1229 1227 1166 1192
f 1265 154 117 1263
f 1259 1191 1165 1257
f 1253 1190 1164 1251
f 1247 1189 1163 1245
f 1241 1188 1162 1239
f 1235 1187 1161 1233
f 1349 1352 1148 1168
f 1217 1215 1170 1198
f 1727 1214 1169 1726
f 1218 1216 1184 1202
f 1236 1205 1176 1234
f 1242 1206 1177 1240
f 1248 1207 1178 1246
f 1254 1208 1179 1252
f 1260 1209 1180 1258
f 1266 159 129 1264
f 1230 1228 1181 1210
f 1224 1222 1182 1211
f 1202 1184 1183 1212
f 1194 1275 1276 1183
f 1294 1172 1290 1201
f 1200 1288 1172 1294
f 1714 1712 1171 1203
f 1168 1148 1275 1194
f 1216 1217 1198 1184
f 1234 1176 1187 1235
f 1240 1177 1188 1241
f 1246 1178 1189 1247
f 1252 1179 1190 1253
f 1258 1180 1191 1259
f 1264 129 154 1265
f 1228 1229 1192 1181
f 1222 1223 1193 1182
f 1184 1198 1194 1183
f 1172 1291 1197 1290
f 1288 1196 1291 1172
f 1712 1713 1185 1171
f 1730 1714 1203 1137
f 1147 1280 1282 1139
f 1139 1282 1281 1152
f 1711 1407 1405 1735
f 1418 1224 1211 1416
f 1419 1230 1210 1415
f 1425 371 159 1266
f 1424 1414 1209 1260
f 1423 1413 1208 1254
f 1422 1412 1207 1248
f 1421 1411 1206 1242
f 1420 1410 1205 1236
f 1417 1218 1202 1407
f 1183 1276 1280 1212
f 1416 1211 1218 1417
f 1182 1193 1217 1216
f 1211 1182 1216 1218
f 1703 1134 1214 1727
f 1193 1167 1215 1217
f 1415 1210 1224 1418
f 1181 1192 1223 1222
f 1210 1181 1222 1224
f 1192 1166 1221 1223
f 1702 1132 1220 1728
f 1409 1204 1230 1419
f 1175 1186 1229 1228
f 1204 1175 1228 1230
f 1186 1160 1227 1229
f 1696 1125 1226 1729
f 1409 1420 1236 1204
f 1175 1234 1235 1186
f 1204 1236 1234 1175
f 1186 1235 1233 1160
f 1696 1718 1232 1125
f 1410 1421 1242 1205
f 1176 1240 1241 1187
f 1205 1242 1240 1176
f 1187 1241 1239 1161
f 1697 1719 1238 1126
f 1411 1422 1248 1206
f 1177 1246 1247 1188
f 1206 1248 1246 1177
f 1188 1247 1245 1162
f 1698 1720 1244 1127
f 1412 1423 1254 1207
f 1178 1252 1253 1189
f 1207 1254 1252 1178
f 1189 1253 1251 1163
f 1699 1721 1250 1128
f 1413 1424 1260 1208
f 1179 1258 1259 1190
f 1208 1260 1258 1179
f 1190 1259 1257 1164
f 1700 1722 1256 1129
f 1414 1425 1266 1209
f 1180 1264 1265 1191
f 1209 1266 1264 1180
f 1191 1265 1263 1165
f 1701 1723 1262 1130
f 1364 1515 1530 1378
f 643 1666 1262 87
f 1539 1550 1327 1371
f 1643 1644 1231 1119
f 1333 1325 1487 1582
f 1483 1570 1394 1393
f 1685 1686 1185 1138
f 1649 1650 1249 1122
f 1586 1475 1392 1396
f 1664 1665 1129 1256
f 1535 1491 1384 1385
f 1154 1372 1404 1382
f 1578 1483 1393 1395
f 1426 1586 1396 1386
f 1645 1646 1237 1120
f 1682 1683 1145 1137
f 1595 1397 1387 1430
f 1660 1661 1127 1244
f 1687 1685 1138 1156
f 1603 1398 1388 1434
f 1611 1399 1389 1438
f 1619 1400 1390 1442
f 1680 1694 1157 1158
f 1325 1332 1574 1487
f 1627 1401 1391 1446
f 1327 1550 1543 1328
f 1334 1324 1479 1590
f 1318 1451 1598 1335
f 1491 1522 1380 1384
f 1319 1455 1606 1336
f 1651 1652 1255 1123
f 1332 1331 1554 1574
f 1675 1681 1169 1214
f 1689 1678 1146 1141
f 1320 1459 1614 1337
f 1666 1667 1130 1262
f 1377 1526 1515 1364
f 1321 1463 1622 1338
f 1322 1467 1630 1339
f 1690 1691 1153 1142
f 1323 1471 1638 1340
f 1647 1648 1243 1121
f 1331 1326 1495 1554
f 1495 1326 1329 1546
f 1662 1663 1128 1250
f 1368 1567 1558 1366
f 1144 1154 1382 1379
f 1330 1365 1518 1498
f 1383 1511 1518 1365
f 1324 1333 1582 1479
f 1658 1659 1126 1238
f 1283 1267 1268 1064
f 1065 1270 1269 1284
f 1284 1269 1079 1271
f 1271 1079 1267 1283
f 1064 1268 1272 1285
f 1286 1273 1270 1065
f 1285 1272 1274 1081
f 1081 1274 1273 1286
f 1173 1276 1275 1287
f 1289 1277 1278 1174
f 1279 1195 1277 1289
f 1287 1275 1195 1279
f 1292 1280 1276 1173
f 1174 1278 1281 1293
f 1199 1282 1280 1292
f 1293 1281 1282 1199
f 2102 1936 1940 2103
f 2103 1940 1938 2104
f 2026 1065 1284 1997
f 2104 1938 1939 2105
f 2107 1943 1941 2106
f 2108 1942 1943 2107
f 2024 1064 1285 2000
f 2078 1956 1960 2079
f 1288 1173 1287 1196
f 1197 1289 1174 1290
f 1291 1279 1289 1197
f 1196 1287 1279 1291
f 1200 1292 1173 1288
f 1290 1174 1293 1201
f 1294 1199 1292 1200
f 1201 1293 1199 1294
f 1314 1296 1295 1075
f 1059 1298 1297 1110
f 1111 1299 1300 1068
f 1075 1295 1301 1315
f 1316 1302 1298 1059
f 1068 1300 1303 1317
f 1317 1303 1304 1108
f 1108 1304 1302 1316
f 1110 1297 1296 1314
f 1315 1301 1299 1111
f 2067 1948 1945 2065
f 2068 1947 1948 2067
f 1990 1305 1306 1976
f 2066 1944 1950 2069
f 2070 1949 1952 2071
f 2014 1310 1311 1985
f 2076 1959 1953 2073
f 2020 1312 1313 1988
f 2074 1954 1955 2075
f 2082 1958 1957 2077
f 2077 1957 1959 2076
f 2079 1960 1962 2080
f 2080 1962 1961 2081
f 2048 1068 1317 2009
f 2081 1961 1958 2082
f 2065 1945 1944 2066
f 2036 1075 1315 1982
f 1152 1281 1375 1370
f 1165 1263 1363 1346
f 1164 1257 1362 1345
f 1163 1251 1361 1344
f 1162 1245 1360 1343
f 1161 1239 1359 1342
f 1160 1233 1358 1341
f 1160 1341 1357 1227
f 1166 1347 1356 1221
f 1167 1348 1355 1215
f 1215 1355 1354 1170
f 1704 1725 1352 1349
f 1278 1277 1374 1373
f 1140 1148 1352 1351
f 1151 1140 1351 1350
f 1170 1354 1349 1168
f 1221 1356 1348 1167
f 1227 1357 1347 1166
f 1263 117 317 1363
f 1257 1165 1346 1362
f 1251 1164 1345 1361
f 1245 1163 1344 1360
f 1239 1162 1343 1359
f 1233 1161 1342 1358
f 1308 1323 1340 1307
f 1306 1322 1339 1309
f 1296 1321 1338 1113
f 1298 1320 1337 1297
f 1058 1319 1336 1302
f 1057 1318 1335 1104
f 1057 1100 1334 1318
f 1060 1096 1333 1324
f 1061 1092 1332 1325
f 1092 1063 1331 1332
f 1679 1680 1158 1136
f 1049 1328 1329 1052
f 1054 1327 1328 1049
f 1063 1062 1326 1331
f 1096 1061 1325 1333
f 1100 1060 1324 1334
f 1307 1340 293 275
f 1309 1339 1323 1308
f 1113 1338 1322 1306
f 1297 1337 1321 1296
f 1302 1336 1320 1298
f 1104 1335 1319 1058
f 1693 1687 1156 1159
f 1733 1403 1350 1724
f 1281 1278 1373 1375
f 1152 1370 1372 1154
f 1377 1053 1380 1376
f 1277 1151 1369 1374
f 1055 1330 1368 1273
f 1270 1366 1367 1269
f 1273 1368 1366 1270
f 1055 1056 1365 1330
f 1327 1054 1353 1371
f 1269 1367 1353 1054
f 1378 1530 1511 1383
f 1683 1690 1142 1145
f 1150 1144 1379 1381
f 1050 1364 1378 1056
f 1522 1507 1376 1380
f 1053 1377 1364 1050
f 1688 1689 1141 1149
f 1051 1272 1091 1384
f 1380 1053 1051 1384
f 1650 1651 1123 1249
f 1648 1649 1122 1243
f 1646 1647 1121 1237
f 1644 1645 1120 1231
f 1642 1643 1119 1225
f 1430 1387 1398 1603
f 1668 1669 1131 1219
f 1672 1673 1133 1213
f 1677 1672 1213 1155
f 1434 1388 1399 1611
f 1438 1389 1400 1619
f 1442 1390 1401 1627
f 1653 1654 1261 1124
f 1446 1391 1402 1635
f 1654 629 80 1261
f 1669 1642 1225 1131
f 1673 1668 1219 1133
f 1676 1677 1155 1135
f 1706 1369 1403 1733
f 1369 1151 1350 1403
f 1731 1145 1142 1734
f 1734 1142 1153 1709
f 1739 1747 1424 1413
f 1405 1147 1150 1406
f 1740 1748 1425 1414
f 1406 1150 1381 1408
f 1738 1746 1423 1412
f 1737 1745 1422 1411
f 1705 1744 1421 1410
f 1736 1743 1420 1409
f 1736 1409 1419 1717
f 1741 1415 1418 1716
f 1742 1416 1417 1715
f 1715 1417 1407 1711
f 1743 1705 1410 1420
f 1744 1737 1411 1421
f 1745 1738 1412 1422
f 1746 1739 1413 1423
f 1747 1740 1414 1424
f 1748 672 371 1425
f 1717 1419 1415 1741
f 1716 1418 1416 1742
f 1407 1202 1212 1405
f 1707 1406 1408 1749
f 2051 1108 1316 2005
f 1997 1284 1271 2030
f 1978 1308 1307 2018
f 2053 940 1946 2064
f 2072 1951 941 2063
f 1993 1283 1064 2024
f 1976 1306 1309 2012
f 2009 1317 1108 2051
f 2005 1316 1059 2041
f 1982 1315 1111 2044
f 1655 1656 1125 1232
f 1340 1638 444 293
f 2073 1953 1954 2074
f 2075 1955 1956 2078
f 1635 1402 349 417
f 1595 1597 1428 1426
f 1597 1596 1429 1428
f 1596 1594 1427 1429
f 1603 1605 1432 1430
f 1605 1604 1433 1432
f 1604 1602 1431 1433
f 1611 1613 1436 1434
f 1613 1612 1437 1436
f 1612 1610 1435 1437
f 1619 1621 1440 1438
f 1621 1620 1441 1440
f 1620 1618 1439 1441
f 1627 1629 1444 1442
f 1629 1628 1445 1444
f 1628 1626 1443 1445
f 1635 1637 1448 1446
f 1637 1636 1449 1448
f 1636 1634 1447 1449
f 1599 1601 1452 1450
f 1601 1600 1453 1452
f 1600 1598 1451 1453
f 1607 1609 1456 1454
f 1609 1608 1457 1456
f 1608 1606 1455 1457
f 1615 1617 1460 1458
f 1617 1616 1461 1460
f 1616 1614 1459 1461
f 1623 1625 1464 1462
f 1625 1624 1465 1464
f 1624 1622 1463 1465
f 1631 1633 1468 1466
f 1633 1632 1469 1468
f 1632 1630 1467 1469
f 1639 1641 1472 1470
f 1641 1640 1473 1472
f 1640 1638 1471 1473
f 1587 1589 1429 1427
f 1589 1588 1428 1429
f 1588 1586 1426 1428
f 1591 1593 1480 1478
f 1593 1592 1481 1480
f 1592 1590 1479 1481
f 1579 1581 1476 1474
f 1581 1580 1477 1476
f 1580 1578 1475 1477
f 1583 1585 1488 1486
f 1585 1584 1489 1488
f 1584 1582 1487 1489
f 1571 1573 1484 1482
f 1573 1572 1485 1484
f 1572 1570 1483 1485
f 1555 1557 1496 1494
f 1557 1556 1497 1496
f 1556 1554 1495 1497
f 1563 1565 1504 1502
f 1565 1564 1505 1504
f 1564 1562 1503 1505
f 1527 1529 1508 1506
f 1529 1528 1509 1508
f 1528 1526 1507 1509
f 1531 1533 1516 1514
f 1533 1532 1517 1516
f 1532 1530 1515 1517
f 1519 1521 1512 1510
f 1521 1520 1513 1512
f 1520 1518 1511 1513
f 1523 1525 1492 1490
f 1525 1524 1493 1492
f 1524 1522 1491 1493
f 1499 1501 1521 1519
f 1501 1500 1520 1521
f 1500 1498 1518 1520
f 1514 1516 1529 1527
f 1516 1517 1528 1529
f 1517 1515 1526 1528
f 1551 1553 1540 1538
f 1553 1552 1541 1540
f 1552 1550 1539 1541
f 1547 1549 1544 1542
f 1549 1548 1545 1544
f 1548 1546 1543 1545
f 1490 1492 1536 1534
f 1492 1493 1537 1536
f 1493 1491 1535 1537
f 1542 1544 1553 1551
f 1544 1545 1552 1553
f 1545 1543 1550 1552
f 1494 1496 1549 1547
f 1496 1497 1548 1549
f 1497 1495 1546 1548
f 1575 1577 1557 1555
f 1577 1576 1556 1557
f 1576 1574 1554 1556
f 1567 1569 1560 1558
f 1569 1568 1561 1560
f 1568 1566 1559 1561
f 1558 1560 1565 1563
f 1560 1561 1564 1565
f 1561 1559 1562 1564
f 1498 1500 1569 1567
f 1500 1501 1568 1569
f 1501 1499 1566 1568
f 1534 1536 1573 1571
f 1536 1537 1572 1573
f 1537 1535 1570 1572
f 1486 1488 1577 1575
f 1488 1489 1576 1577
f 1489 1487 1574 1576
f 1482 1484 1581 1579
f 1484 1485 1580 1581
f 1485 1483 1578 1580
f 1478 1480 1585 1583
f 1480 1481 1584 1585
f 1481 1479 1582 1584
f 1474 1476 1589 1587
f 1476 1477 1588 1589
f 1477 1475 1586 1588
f 1450 1452 1593 1591
f 1452 1453 1592 1593
f 1453 1451 1590 1592
f 1430 1432 1597 1595
f 1432 1433 1596 1597
f 1433 1431 1594 1596
f 1454 1456 1601 1599
f 1456 1457 1600 1601
f 1457 1455 1598 1600
f 1434 1436 1605 1603
f 1436 1437 1604 1605
f 1437 1435 1602 1604
f 1458 1460 1609 1607
f 1460 1461 1608 1609
f 1461 1459 1606 1608
f 1438 1440 1613 1611
f 1440 1441 1612 1613
f 1441 1439 1610 1612
f 1462 1464 1617 1615
f 1464 1465 1616 1617
f 1465 1463 1614 1616
f 1442 1444 1621 1619
f 1444 1445 1620 1621
f 1445 1443 1618 1620
f 1466 1468 1625 1623
f 1468 1469 1624 1625
f 1469 1467 1622 1624
f 1446 1448 1629 1627
f 1448 1449 1628 1629
f 1449 1447 1626 1628
f 1470 1472 1633 1631
f 1472 1473 1632 1633
f 1473 1471 1630 1632
f 417 419 1637 1635
f 419 418 1636 1637
f 418 416 1634 1636
f 445 447 1641 1639
f 447 446 1640 1641
f 446 444 1638 1640
f 1538 1540 1505 1503
f 1540 1541 1504 1505
f 1541 1539 1502 1504
f 1510 1512 1533 1531
f 1512 1513 1532 1533
f 1513 1511 1530 1532
f 1506 1508 1525 1523
f 1508 1509 1524 1525
f 1509 1507 1522 1524
f 1426 1386 1397 1595
f 1806 1838 1656 1655
f 1816 1849 1677 1676
f 1847 1812 1668 1673
f 1845 1804 1642 1669
f 1837 819 629 1654
f 1805 1837 1654 1653
f 1849 1814 1672 1677
f 1814 1847 1673 1672
f 1812 1845 1669 1668
f 1804 1827 1643 1642
f 1828 1829 1645 1644
f 1830 1831 1647 1646
f 1832 1833 1649 1648
f 1834 1835 1651 1650
f 1824 1853 1689 1688
f 1851 1854 1690 1683
f 1825 1823 1687 1693
f 1818 1850 1680 1679
f 1807 1840 1659 1658
f 1809 1842 1663 1662
f 1831 1832 1648 1647
f 1854 1855 1691 1690
f 1811 1844 1667 1666
f 1853 1817 1678 1689
f 1848 1819 1681 1675
f 1835 1836 1652 1651
f 1850 1857 1694 1680
f 1823 1822 1685 1687
f 1808 1841 1661 1660
f 1820 1851 1683 1682
f 1829 1830 1646 1645
f 1810 1843 1665 1664
f 1833 1834 1650 1649
f 1822 1852 1686 1685
f 1827 1828 1644 1643
f 792 1811 1666 643
f 1855 1856 1692 1691
f 1838 1839 1657 1656
f 1813 1846 1671 1670
f 1815 1848 1675 1674
f 1821 1820 1682 1684
f 1852 1826 1695 1686
f 1826 1821 1684 1695
f 1836 1805 1653 1652
f 1857 1825 1693 1694
f 1817 1816 1676 1678
f 1856 1824 1688 1692
f 1819 1818 1679 1681
f 1846 1815 1674 1671
f 1839 1813 1670 1657
f 1844 1810 1664 1667
f 1843 1809 1662 1665
f 1842 1808 1660 1663
f 1841 1807 1658 1661
f 1840 1806 1655 1659
f 1146 1707 1749 1141
f 1219 1716 1742 1133
f 1225 1717 1741 1131
f 1261 80 672 1748
f 1255 1124 1740 1747
f 1249 1123 1739 1746
f 1243 1122 1738 1745
f 1237 1121 1737 1744
f 1231 1120 1705 1743
f 1213 1715 1711 1155
f 1133 1742 1715 1213
f 1131 1741 1716 1219
f 1119 1736 1717 1225
f 1119 1231 1743 1736
f 1120 1237 1744 1705
f 1121 1243 1745 1737
f 1122 1249 1746 1738
f 1124 1261 1748 1740
f 1123 1255 1747 1739
f 1404 1734 1709 1382
f 1372 1731 1734 1404
f 1138 1706 1733 1156
f 1156 1733 1724 1159
f 1136 1158 1725 1704
f 1346 1363 1723 1701
f 1345 1362 1722 1700
f 1344 1361 1721 1699
f 1343 1360 1720 1698
f 1342 1359 1719 1697
f 1341 1358 1718 1696
f 1341 1696 1729 1357
f 1347 1702 1728 1356
f 1348 1703 1727 1355
f 1155 1711 1735 1135
f 1370 1375 1714 1730
f 1373 1374 1713 1712
f 1375 1373 1712 1714
f 1355 1727 1726 1354
f 1351 1352 1725 1710
f 1350 1351 1710 1724
f 1379 1382 1709 1732
f 1135 1735 1707 1146
f 1370 1730 1731 1372
f 1381 1379 1732 1708
f 1374 1369 1706 1713
f 1354 1726 1704 1349
f 1356 1728 1703 1348
f 1357 1729 1702 1347
f 1363 317 703 1723
f 1362 1346 1701 1722
f 1361 1345 1700 1721
f 1360 1344 1699 1720
f 1359 1343 1698 1719
f 1358 1342 1697 1718
f 1141 1749 1708 1149
f 1454 1599 1783 1763
f 1458 1607 1784 1764
f 1462 1615 1785 1765
f 1466 1623 1786 1766
f 1470 1631 1787 1767
f 1591 1478 1790 1762
f 1583 1486 1792 1769
f 1555 1494 1795 1796
f 1514 1527 1801 1779
f 1523 1490 1793 1794
f 1542 1551 1802 1780
f 1626 1447 1782 1759
f 1559 1566 1798 1803
f 1562 1559 1803 1775
f 1566 1499 1797 1798
f 1486 1575 1771 1792
f 1478 1583 1769 1790
f 1450 1591 1762 1761
f 1531 1514 1779 1778
f 445 1639 1788 768
f 1427 1594 1751 1750
f 1503 1562 1775 1799
f 1439 1618 1757 1756
f 1631 1466 1766 1787
f 1431 1602 1753 1752
f 1499 1519 1774 1797
f 1615 1458 1764 1785
f 1538 1503 1799 1800
f 1547 1542 1780 1773
f 1443 1626 1759 1758
f 1575 1555 1796 1771
f 1506 1523 1794 1776
f 1639 1470 1767 1788
f 1510 1531 1778 1777
f 1435 1610 1755 1754
f 1623 1462 1765 1786
f 1607 1454 1763 1784
f 1494 1547 1773 1795
f 1551 1538 1800 1802
f 1519 1510 1777 1774
f 1527 1506 1776 1801
f 1618 1443 1758 1757
f 1610 1439 1756 1755
f 1602 1435 1754 1753
f 1594 1431 1752 1751
f 1587 1427 1750 1781
f 1579 1474 1768 1789
f 1571 1482 1770 1791
f 1534 1571 1791 1772
f 1447 1634 1760 1782
f 1634 416 739 1760
f 1474 1587 1781 1768
f 1482 1579 1789 1770
f 1490 1534 1772 1793
f 1599 1450 1761 1783
f 1871 1891 1806 1840
f 1872 1892 1807 1841
f 1873 1893 1808 1842
f 1874 1894 1809 1843
f 1875 1895 1810 1844
f 1870 1898 1813 1839
f 1877 1900 1815 1846
f 1904 1903 1818 1819
f 1887 1909 1824 1856
f 1902 1901 1816 1817
f 1888 1910 1825 1857
f 1867 1890 1805 1836
f 1911 1906 1821 1826
f 1883 1911 1826 1852
f 1906 1905 1820 1821
f 1900 1879 1848 1815
f 1898 1877 1846 1813
f 1869 1870 1839 1838
f 1886 1887 1856 1855
f 880 1896 1811 792
f 1858 1859 1828 1827
f 1907 1883 1852 1822
f 1864 1865 1834 1833
f 1895 1874 1843 1810
f 1860 1861 1830 1829
f 1905 1882 1851 1820
f 1893 1872 1841 1808
f 1908 1907 1822 1823
f 1881 1888 1857 1850
f 1866 1867 1836 1835
f 1879 1904 1819 1848
f 1884 1902 1817 1853
f 1896 1875 1844 1811
f 1885 1886 1855 1854
f 1862 1863 1832 1831
f 1894 1873 1842 1809
f 1892 1871 1840 1807
f 1903 1881 1850 1818
f 1910 1908 1823 1825
f 1882 1885 1854 1851
f 1909 1884 1853 1824
f 1865 1866 1835 1834
f 1863 1864 1833 1832
f 1861 1862 1831 1830
f 1859 1860 1829 1828
f 1889 1858 1827 1804
f 1897 1876 1845 1812
f 1899 1878 1847 1814
f 1880 1899 1814 1849
f 1890 1868 1837 1805
f 1868 851 819 1837
f 1876 1889 1804 1845
f 1878 1897 1812 1847
f 1901 1880 1849 1816
f 1891 1869 1838 1806
f 1783 1761 1869 1891
f 1793 1772 1880 1901
f 1770 1789 1897 1878
f 1768 1781 1889 1876
f 1760 739 851 1868
f 1782 1760 1868 1890
f 1772 1791 1899 1880
f 1791 1770 1878 1899
f 1789 1768 1876 1897
f 1781 1750 1858 1889
f 1751 1752 1860 1859
f 1753 1754 1862 1861
f 1755 1756 1864 1863
f 1757 1758 1866 1865
f 1801 1776 1884 1909
f 1774 1777 1885 1882
f 1802 1800 1908 1910
f 1795 1773 1881 1903
f 1784 1763 1871 1892
f 1786 1765 1873 1894
f 1754 1755 1863 1862
f 1777 1778 1886 1885
f 1788 1767 1875 1896
f 1776 1794 1902 1884
f 1771 1796 1904 1879
f 1758 1759 1867 1866
f 1773 1780 1888 1881
f 1800 1799 1907 1908
f 1785 1764 1872 1893
f 1797 1774 1882 1905
f 1752 1753 1861 1860
f 1787 1766 1874 1895
f 1756 1757 1865 1864
f 1799 1775 1883 1907
f 1750 1751 1859 1858
f 768 1788 1896 880
f 1778 1779 1887 1886
f 1761 1762 1870 1869
f 1790 1769 1877 1898
f 1792 1771 1879 1900
f 1798 1797 1905 1906
f 1775 1803 1911 1883
f 1803 1798 1906 1911
f 1759 1782 1890 1867
f 1780 1802 1910 1888
f 1794 1793 1901 1902
f 1779 1801 1909 1887
f 1796 1795 1903 1904
f 1769 1792 1900 1877
f 1762 1790 1898 1870
f 1767 1787 1895 1875
f 1766 1786 1894 1874
f 1765 1785 1893 1873
f 1764 1784 1892 1872
f 1763 1783 1891 1871
f 1921 1929 904 900
f 1919 1927 1915 1914
f 1918 1925 1932 1923
f 1922 1934 1913 1912
f 1935 1922 1912 1916
f 1924 1918 1923 1933
f 1926 1919 1914 1917
f 1928 1921 900 901
f 1916 1912 1918 1924
f 1912 1913 1925 1918
f 1931 1920 1919 1926
f 1920 1930 1927 1919
f 1917 1914 1921 1928
f 1914 1915 1929 1921
f 1972 1314 1075 2036
f 2041 1059 1110 2039
f 2044 1111 1068 2048
f 1963 1936 1937 1964
f 1965 1939 1938 1966
f 1966 1938 1940 1967
f 1967 1940 1936 1963
f 1964 1937 1941 1968
f 1969 1942 1939 1965
f 1968 1941 1943 1970
f 1970 1943 1942 1969
f 1920 1944 1945 1930
f 1915 1947 1946 1929
f 1930 1945 1948 1927
f 1926 1949 1950 1931
f 1928 1951 1952 1917
f 1931 1950 1944 1920
f 1927 1948 1947 1915
f 1917 1952 1949 1926
f 1929 1946 940 904
f 901 941 1951 1928
f 1932 1954 1953 1923
f 1913 1956 1955 1925
f 1924 1957 1958 1916
f 1923 1953 1959 1933
f 1934 1960 1956 1913
f 1916 1958 1961 1935
f 1935 1961 1962 1922
f 1922 1962 1960 1934
f 1925 1955 1954 1932
f 1933 1959 1957 1924
f 1968 1970 1971 1964
f 1964 1971 1967 1963
f 1970 1969 1965 1971
f 1971 1965 1966 1967
f 1994 1995 2025 2023
f 1995 1993 2024 2025
f 1997 1998 2028 2026
f 1998 1996 2027 2028
f 2030 2031 1998 1997
f 2031 2029 1996 1998
f 1993 1995 2031 2030
f 1995 1994 2029 2031
f 2023 2025 2001 1999
f 2025 2024 2000 2001
f 2026 2028 2004 2002
f 2028 2027 2003 2004
f 1999 2001 2034 2032
f 2001 2000 2033 2034
f 2032 2034 2004 2003
f 2034 2033 2002 2004
f 1991 1992 1977 1975
f 1992 1990 1976 1977
f 2018 2019 1980 1978
f 2019 2017 1979 1980
f 2012 2013 1977 1976
f 2013 2011 1975 1977
f 2015 2016 1986 1984
f 2016 2014 1985 1986
f 2021 2022 1989 1987
f 2022 2020 1988 1989
f 1984 1986 1992 1991
f 1986 1985 1990 1992
f 1978 1980 2013 2012
f 1980 1979 2011 2013
f 1987 1989 2016 2015
f 1989 1988 2014 2016
f 962 963 2019 2018
f 963 961 2017 2019
f 1028 1029 2022 2021
f 1029 1027 2020 2022
f 2036 2037 1974 1972
f 2037 2035 1973 1974
f 2039 2040 2043 2041
f 2040 2038 2042 2043
f 2045 2046 2049 2047
f 2046 2044 2048 2049
f 1982 1983 2037 2036
f 1983 1981 2035 2037
f 2041 2043 2007 2005
f 2043 2042 2006 2007
f 2047 2049 2010 2008
f 2049 2048 2009 2010
f 2008 2010 2052 2050
f 2010 2009 2051 2052
f 2050 2052 2007 2006
f 2052 2051 2005 2007
f 1972 1974 2040 2039
f 1974 1973 2038 2040
f 1981 1983 2046 2045
f 1983 1982 2044 2046
f 2021 2072 2063 1028
f 961 2053 2064 2017
f 1975 2065 2066 1991
f 2015 2070 2071 1987
f 1991 2066 2069 1984
f 1979 2068 2067 2011
f 2011 2067 2065 1975
f 2017 2064 2068 1979
f 1984 2069 2070 2015
f 1987 2071 2072 2021
f 1013 1028 2063 2062
f 961 1009 2054 2053
f 967 983 2056 2055
f 1007 979 2061 2060
f 983 976 2059 2056
f 971 1003 2057 2058
f 1003 967 2055 2057
f 1009 971 2058 2054
f 976 1007 2060 2059
f 979 1013 2062 2061
f 2038 2075 2078 2042
f 2035 2073 2074 1973
f 2008 2081 2082 2047
f 2050 2080 2081 2008
f 2006 2079 2080 2050
f 2045 2077 2076 1981
f 2047 2082 2077 2045
f 1973 2074 2075 2038
f 1981 2076 2073 2035
f 2042 2078 2079 2006
f 1033 1037 2088 2085
f 1030 965 2084 2083
f 1000 1042 2092 2091
f 1045 1000 2091 2090
f 998 1045 2090 2089
f 1040 973 2086 2087
f 1042 1040 2087 2092
f 965 1033 2085 2084
f 973 1030 2083 2086
f 1037 998 2089 2088
f 995 1024 2099 2100
f 1024 991 2098 2099
f 988 1019 2097 2096
f 1021 988 2096 2095
f 986 1021 2095 2094
f 991 1015 2093 2098
f 1019 995 2100 2097
f 1015 986 2094 2093
f 2003 2108 2107 2032
f 2032 2107 2106 1999
f 1996 2104 2105 2027
f 2029 2103 2104 1996
f 1994 2102 2103 2029
f 1999 2106 2101 2023
f 2027 2105 2108 2003
f 2023 2101 2102 1994
