v -12.2452 2.62141 -1.5885
v -3.86789 2.62141 -1.5885
v -4.66823 0.159402 -1.5885
v -5.46806 -2.3026 -1.5885
v -8.85689 0.159403 -1.5885
v -12.2452 2.62141 1.5885
v -3.86789 2.62141 1.5885
v -4.66823 0.159402 1.5885
v -5.46806 -2.3026 1.5885
v -8.85689 0.159403 1.5885
v -8.05655 2.62141 0
v -4.26806 1.3904 0
v -5.06814 -1.0716 0
v -7.16247 -1.0716 0
v -10.551 1.3904 0
v -2.88331 -5.32541 -1.5885
v -0.788399 -6.84814 -1.5885
v -4.17863 -9.31056 -1.5885
v -7.56887 -11.7735 -1.5885
v -6.27379 -7.78808 -1.5885
v -4.97872 -3.80317 -1.5885
v -2.88331 -5.32541 1.5885
v -0.788399 -6.84814 1.5885
v -4.17863 -9.31056 1.5885
v -7.56887 -11.7735 1.5885
v -6.27379 -7.78808 1.5885
v -4.97872 -3.80317 1.5885
v -1.83585 -6.08678 0
v -2.48352 -8.07935 0
v -5.87375 -10.542 0
v -6.92133 -9.78078 0
v -5.62625 -5.79563 0
v -3.93101 -4.56429 0
v 2.58789 3.55097 -1.5885
v -2.58776 3.55097 -1.5885
v -1.29426 7.53371 -1.5885
v -0.0002654 11.516 -1.5885
v 1.28792 7.55072 -1.5885
v 2.57661 3.58549 -1.5885
v 2.5825 3.56823 -1.5885
v 2.58789 3.55097 1.5885
v -2.58776 3.55097 1.5885
v -1.29426 7.53371 1.5885
v -0.0002654 11.516 1.5885
v 1.28792 7.55072 1.5885
v 2.57661 3.58549 1.5885
v 2.5825 3.56823 1.5885
v 6.85515e-05 3.55097 0
v -1.94101 5.54234 0
v -0.647263 9.52483 0
v 0.643829 9.53334 0
v 1.93226 5.56811 0
v 2.57955 3.57686 0
v 2.5852 3.5596 0
v 3.78263 -0.12818 -1.5885
v 4.67608 -2.8776 -1.5885
v 2.33758 -4.57645 -1.5885
v -0.000928999 -6.2758 -1.5885
v -2.33993 -4.5767 -1.5885
v -4.67794 -2.8776 -1.5885
v -3.78423 -0.12818 -1.5885
v -2.89053 2.62074 -1.5885
v 2.88867 2.62074 -1.5885
v 3.78263 -0.12818 1.5885
v 4.67608 -2.8776 1.5885
v 2.33758 -4.57645 1.5885
v -0.000928999 -6.2758 1.5885
v -2.33993 -4.5767 1.5885
v -4.67794 -2.8776 1.5885
v -3.78423 -0.12818 1.5885
v -2.89053 2.62074 1.5885
v 2.88867 2.62074 1.5885
v 4.22935 -1.50289 0
v 3.50683 -3.72702 0
v 1.16832 -5.42613 0
v -1.17043 -5.42625 0
v -3.50893 -3.72715 0
v -4.23109 -1.50289 0
v -3.33738 1.24628 0
v -0.000927923 2.62074 0
v 3.33565 1.24628 0
v 6.27193 -7.78799 -1.5885
v 7.56701 -11.7741 -1.5885
v 4.17669 -9.31023 -1.5885
v 0.785875 -6.84682 -1.5885
v 2.88112 -5.32458 -1.5885
v 4.97686 -3.80185 -1.5885
v 6.27193 -7.78799 1.5885
v 7.56701 -11.7741 1.5885
v 4.17669 -9.31023 1.5885
v 0.785875 -6.84682 1.5885
v 2.88112 -5.32458 1.5885
v 4.97686 -3.80185 1.5885
v 6.91947 -9.78107 0
v 5.87185 -10.5422 0
v 2.48128 -8.07852 0
v 1.8335 -6.0857 0
v 3.92899 -4.56321 0
v 5.6244 -5.79492 0
v 3.86405 2.62141 -1.5885
v 12.2434 2.62141 -1.5885
v 8.88043 0.177662 -1.5885
v 5.51601 -2.26608 -1.5885
v 5.49044 -2.28501 -1.5885
v 5.46488 -2.30393 -1.5885
v 4.66446 0.158739 -1.5885
v 3.86405 2.62141 1.5885
v 12.2434 2.62141 1.5885
v 8.88043 0.177662 1.5885
v 5.51601 -2.26608 1.5885
v 5.49044 -2.28501 1.5885
v 5.46488 -2.30393 1.5885
v 4.66446 0.158739 1.5885
v 8.0537 2.62141 0
v 10.5619 1.39953 0
v 7.19822 -1.04421 0
v 5.50322 -2.27554 0
v 5.47766 -2.29447 0
v 5.06467 -1.07259 0
v 4.26425 1.39007 0
v 14.1168 3.04703 -1.5885
v 14.1201 3.10545 -1.5885
v 14.113 3.19047 -1.5885
v 14.0916 3.27187 -1.5885
v 14.0561 3.34725 -1.5885
v 14.0066 3.41426 -1.5885
v 13.9432 3.47051 -1.5885
v 13.866 3.51362 -1.5885
v 13.7752 3.54123 -1.5885
v 13.6709 3.55097 -1.5885
v 3.56393 3.55097 -1.5885
v 2.1066 8.03551 -1.5885
v 0.649762 12.5205 -1.5885
v 0.559131 12.7992 -1.5885
v 0.468498 13.0783 -1.5885
v 0.460109 13.1335 -1.5885
v 0.444336 13.1848 -1.5885
v 0.421824 13.2319 -1.5885
v 0.39322 13.275 -1.5885
v 0.359169 13.3138 -1.5885
v 0.320318 13.3485 -1.5885
v 0.277312 13.3789 -1.5885
v 0.230796 13.405 -1.5885
v 0.201084 13.4199 -1.5885
v 0.170376 13.4328 -1.5885
v 0.129375 13.4443 -1.5885
v 0.0873792 13.4528 -1.5885
v 0.046342 13.4593 -1.5885
v 0.005473 13.4621 -1.5885
v -0.0443355 13.4594 -1.5885
v -0.0879078 13.4528 -1.5885
v -0.129905 13.4445 -1.5885
v -0.170905 13.4328 -1.5885
v -0.201531 13.4204 -1.5885
v -0.230663 13.405 -1.5885
v -0.277207 13.3789 -1.5885
v -0.320288 13.3485 -1.5885
v -0.359246 13.3138 -1.5885
v -0.393418 13.275 -1.5885
v -0.422144 13.2319 -1.5885
v -0.444761 13.1848 -1.5885
v -0.460609 13.1335 -1.5885
v -0.469027 13.0783 -1.5885
v -1.97093 8.45538 -1.5885
v -3.47283 3.83249 -1.5885
v -3.51864 3.69173 -1.5885
v -3.56446 3.55097 -1.5885
v -13.6714 3.55097 -1.5885
v -13.7755 3.54123 -1.5885
v -13.8662 3.5136 -1.5885
v -13.9432 3.47046 -1.5885
v -14.0066 3.41419 -1.5885
v -14.0561 3.34716 -1.5885
v -14.0916 3.27176 -1.5885
v -14.113 3.19036 -1.5885
v -14.1201 3.10534 -1.5885
v -14.1168 3.04699 -1.5885
v -14.1069 2.98881 -1.5885
v -14.0904 2.93154 -1.5885
v -14.0671 2.8759 -1.5885
v -14.0372 2.82264 -1.5885
v -14.0004 2.7725 -1.5885
v -13.9569 2.7262 -1.5885
v -13.9065 2.68448 -1.5885
v -9.94654 -0.192501 -1.5885
v -5.98662 -3.06949 -1.5885
v -5.87699 -3.14916 -1.5885
v -5.76685 -3.22884 -1.5885
v -7.23099 -7.73504 -1.5885
v -8.69562 -12.2402 -1.5885
v -8.79688 -12.5514 -1.5885
v -8.89813 -12.8631 -1.5885
v -8.91267 -12.9237 -1.5885
v -8.91736 -12.9842 -1.5885
v -8.91466 -13.0306 -1.5885
v -8.9068 -13.0763 -1.5885
v -8.8941 -13.1208 -1.5885
v -8.87689 -13.164 -1.5885
v -8.85551 -13.2055 -1.5885
v -8.83029 -13.2449 -1.5885
v -8.80155 -13.2821 -1.5885
v -8.76964 -13.3166 -1.5885
v -8.73488 -13.3482 -1.5885
v -8.6976 -13.3766 -1.5885
v -8.65813 -13.4015 -1.5885
v -8.61682 -13.4225 -1.5885
v -8.57398 -13.4394 -1.5885
v -8.52995 -13.4518 -1.5885
v -8.48506 -13.4595 -1.5885
v -8.43964 -13.4621 -1.5885
v -8.38245 -13.4578 -1.5885
v -8.32561 -13.4445 -1.5885
v -8.26976 -13.4215 -1.5885
v -8.21557 -13.3883 -1.5885
v -4.25557 -10.5115 -1.5885
v -0.295067 -7.63428 -1.5885
v -0.147582 -7.5273 -1.5885
v 0.000400351 -7.41982 -1.5885
v 3.84288 -10.2117 -1.5885
v 7.68586 -13.0032 -1.5885
v 7.95103 -13.196 -1.5885
v 8.21571 -13.3883 -1.5885
v 8.2699 -13.4215 -1.5885
v 8.32575 -13.4445 -1.5885
v 8.38259 -13.4578 -1.5885
v 8.43978 -13.4621 -1.5885
v 8.4852 -13.4595 -1.5885
v 8.53008 -13.4518 -1.5885
v 8.57411 -13.4394 -1.5885
v 8.61695 -13.4225 -1.5885
v 8.65827 -13.4015 -1.5885
v 8.69773 -13.3766 -1.5885
v 8.73501 -13.3482 -1.5885
v 8.76977 -13.3166 -1.5885
v 8.80169 -13.2821 -1.5885
v 8.83042 -13.2449 -1.5885
v 8.85565 -13.2055 -1.5885
v 8.87703 -13.164 -1.5885
v 8.89423 -13.1208 -1.5885
v 8.90693 -13.0763 -1.5885
v 8.9148 -13.0306 -1.5885
v 8.91749 -12.9842 -1.5885
v 8.91281 -12.9237 -1.5885
v 8.89827 -12.8631 -1.5885
v 7.38558 -8.20804 -1.5885
v 5.87189 -3.55352 -1.5885
v 5.81969 -3.39218 -1.5885
v 5.76698 -3.23083 -1.5885
v 9.57162 -0.466306 -1.5885
v 13.3768 2.29872 -1.5885
v 13.6414 2.49102 -1.5885
v 13.9066 2.68382 -1.5885
v 13.9569 2.72565 -1.5885
v 14.0005 2.77207 -1.5885
v 14.0372 2.82232 -1.5885
v 14.0671 2.87568 -1.5885
v 14.0904 2.93141 -1.5885
v 14.1069 2.98877 -1.5885
v 14.1168 3.04703 1.5885
v 14.1201 3.10545 1.5885
v 14.113 3.19047 1.5885
v 14.0916 3.27187 1.5885
v 14.0561 3.34725 1.5885
v 14.0066 3.41426 1.5885
v 13.9432 3.47051 1.5885
v 13.866 3.51362 1.5885
v 13.7752 3.54123 1.5885
v 13.6709 3.55097 1.5885
v 3.56393 3.55097 1.5885
v 2.1066 8.03551 1.5885
v 0.649762 12.5205 1.5885
v 0.559131 12.7992 1.5885
v 0.468498 13.0783 1.5885
v 0.460109 13.1335 1.5885
v 0.444336 13.1848 1.5885
v 0.421824 13.2319 1.5885
v 0.39322 13.275 1.5885
v 0.359169 13.3138 1.5885
v 0.320318 13.3485 1.5885
v 0.277312 13.3789 1.5885
v 0.230796 13.405 1.5885
v 0.201084 13.4199 1.5885
v 0.170376 13.4328 1.5885
v 0.129375 13.4443 1.5885
v 0.0873792 13.4528 1.5885
v 0.046342 13.4593 1.5885
v 0.005473 13.4621 1.5885
v -0.0443355 13.4594 1.5885
v -0.0879078 13.4528 1.5885
v -0.129905 13.4445 1.5885
v -0.170905 13.4328 1.5885
v -0.201531 13.4204 1.5885
v -0.230663 13.405 1.5885
v -0.277207 13.3789 1.5885
v -0.320288 13.3485 1.5885
v -0.359246 13.3138 1.5885
v -0.393418 13.275 1.5885
v -0.422144 13.2319 1.5885
v -0.444761 13.1848 1.5885
v -0.460609 13.1335 1.5885
v -0.469027 13.0783 1.5885
v -1.97093 8.45538 1.5885
v -3.47283 3.83249 1.5885
v -3.51864 3.69173 1.5885
v -3.56446 3.55097 1.5885
v -13.6714 3.55097 1.5885
v -13.7755 3.54123 1.5885
v -13.8662 3.5136 1.5885
v -13.9432 3.47046 1.5885
v -14.0066 3.41419 1.5885
v -14.0561 3.34716 1.5885
v -14.0916 3.27176 1.5885
v -14.113 3.19036 1.5885
v -14.1201 3.10534 1.5885
v -14.1168 3.04699 1.5885
v -14.1069 2.98881 1.5885
v -14.0904 2.93154 1.5885
v -14.0671 2.8759 1.5885
v -14.0372 2.82264 1.5885
v -14.0004 2.7725 1.5885
v -13.9569 2.7262 1.5885
v -13.9065 2.68448 1.5885
v -9.94654 -0.192501 1.5885
v -5.98662 -3.06949 1.5885
v -5.87699 -3.14916 1.5885
v -5.76685 -3.22884 1.5885
v -7.23099 -7.73504 1.5885
v -8.69562 -12.2402 1.5885
v -8.79688 -12.5514 1.5885
v -8.89813 -12.8631 1.5885
v -8.91267 -12.9237 1.5885
v -8.91736 -12.9842 1.5885
v -8.91466 -13.0306 1.5885
v -8.9068 -13.0763 1.5885
v -8.8941 -13.1208 1.5885
v -8.87689 -13.164 1.5885
v -8.85551 -13.2055 1.5885
v -8.83029 -13.2449 1.5885
v -8.80155 -13.2821 1.5885
v -8.76964 -13.3166 1.5885
v -8.73488 -13.3482 1.5885
v -8.6976 -13.3766 1.5885
v -8.65813 -13.4015 1.5885
v -8.61682 -13.4225 1.5885
v -8.57398 -13.4394 1.5885
v -8.52995 -13.4518 1.5885
v -8.48506 -13.4595 1.5885
v -8.43964 -13.4621 1.5885
v -8.38245 -13.4578 1.5885
v -8.32561 -13.4445 1.5885
v -8.26976 -13.4215 1.5885
v -8.21557 -13.3883 1.5885
v -4.25557 -10.5115 1.5885
v -0.295067 -7.63428 1.5885
v -0.147582 -7.5273 1.5885
v 0.000400351 -7.41982 1.5885
v 3.84288 -10.2117 1.5885
v 7.68586 -13.0032 1.5885
v 7.95103 -13.196 1.5885
v 8.21571 -13.3883 1.5885
v 8.2699 -13.4215 1.5885
v 8.32575 -13.4445 1.5885
v 8.38259 -13.4578 1.5885
v 8.43978 -13.4621 1.5885
v 8.4852 -13.4595 1.5885
v 8.53008 -13.4518 1.5885
v 8.57411 -13.4394 1.5885
v 8.61695 -13.4225 1.5885
v 8.65827 -13.4015 1.5885
v 8.69773 -13.3766 1.5885
v 8.73501 -13.3482 1.5885
v 8.76977 -13.3166 1.5885
v 8.80169 -13.2821 1.5885
v 8.83042 -13.2449 1.5885
v 8.85565 -13.2055 1.5885
v 8.87703 -13.164 1.5885
v 8.89423 -13.1208 1.5885
v 8.90693 -13.0763 1.5885
v 8.9148 -13.0306 1.5885
v 8.91749 -12.9842 1.5885
v 8.91281 -12.9237 1.5885
v 8.89827 -12.8631 1.5885
v 7.38558 -8.20804 1.5885
v 5.87189 -3.55352 1.5885
v 5.81969 -3.39218 1.5885
v 5.76698 -3.23083 1.5885
v 9.57162 -0.466306 1.5885
v 13.3768 2.29872 1.5885
v 13.6414 2.49102 1.5885
v 13.9066 2.68382 1.5885
v 13.9569 2.72565 1.5885
v 14.0005 2.77207 1.5885
v 14.0372 2.82232 1.5885
v 14.0671 2.87568 1.5885
v 14.0904 2.93141 1.5885
v 14.1069 2.98877 1.5885
v 14.1185 3.07624 0
v 14.1166 3.14796 0
v 14.1023 3.23117 0
v 14.0738 3.30956 0
v 14.0313 3.38076 0
v 13.9749 3.44238 0
v 13.9046 3.49207 0
v 13.8206 3.52743 0
v 13.7231 3.5461 0
v 8.61741 3.55097 0
v 2.83526 5.79324 0
v 1.37818 10.278 0
v 0.604446 12.6599 0
v 0.513814 12.9387 0
v 0.464304 13.1059 0
v 0.452222 13.1592 0
v 0.43308 13.2084 0
v 0.407522 13.2535 0
v 0.376195 13.2944 0
v 0.339744 13.3312 0
v 0.298815 13.3637 0
v 0.254054 13.3919 0
v 0.21594 13.4124 0
v 0.18573 13.4264 0
v 0.149876 13.4386 0
v 0.108377 13.4485 0
v 0.0668606 13.456 0
v 0.0259075 13.4607 0
v -0.0194312 13.4608 0
v -0.0661216 13.4561 0
v -0.108906 13.4487 0
v -0.150405 13.4387 0
v -0.186218 13.4266 0
v -0.216097 13.4127 0
v -0.253935 13.3919 0
v -0.298748 13.3637 0
v -0.339767 13.3312 0
v -0.376332 13.2944 0
v -0.407781 13.2535 0
v -0.433452 13.2084 0
v -0.452685 13.1592 0
v -0.464818 13.1059 0
v -1.21998 10.7668 0
v -2.72188 6.14394 0
v -3.49574 3.76211 0
v -3.54155 3.62135 0
v -8.61794 3.55097 0
v -13.7235 3.5461 0
v -13.8209 3.52741 0
v -13.9047 3.49203 0
v -13.9749 3.44232 0
v -14.0313 3.38067 0
v -14.0738 3.30946 0
v -14.1023 3.23106 0
v -14.1166 3.14785 0
v -14.1185 3.07616 0
v -14.1119 3.0179 0
v -14.0987 2.96017 0
v -14.0788 2.90372 0
v -14.0522 2.84927 0
v -14.0188 2.79757 0
v -13.9786 2.74935 0
v -13.9317 2.70534 0
v -11.9265 1.24599 0
v -7.96658 -1.63099 0
v -5.9318 -3.10932 0
v -5.82192 -3.189 0
v -6.49892 -5.48194 0
v -7.9633 -9.98765 0
v -8.74625 -12.3958 0
v -8.84751 -12.7072 0
v -8.9054 -12.8934 0
v -8.91501 -12.954 0
v -8.91601 -13.0074 0
v -8.91073 -13.0535 0
v -8.90045 -13.0986 0
v -8.88549 -13.1424 0
v -8.8662 -13.1847 0
v -8.8429 -13.2252 0
v -8.81592 -13.2635 0
v -8.7856 -13.2993 0
v -8.75226 -13.3324 0
v -8.71624 -13.3624 0
v -8.67787 -13.389 0
v -8.63748 -13.412 0
v -8.5954 -13.4309 0
v -8.55196 -13.4456 0
v -8.5075 -13.4556 0
v -8.46235 -13.4608 0
v -8.41105 -13.46 0
v -8.35403 -13.4511 0
v -8.29769 -13.433 0
v -8.24267 -13.4049 0
v -6.23557 -11.9499 0
v -2.27532 -9.0729 0
v -0.221325 -7.58079 0
v -0.0735909 -7.47356 0
v 1.92164 -8.81578 0
v 5.76437 -11.6074 0
v 7.81845 -13.0996 0
v 8.08337 -13.2921 0
v 8.2428 -13.4049 0
v 8.29782 -13.433 0
v 8.35417 -13.4511 0
v 8.41118 -13.46 0
v 8.46249 -13.4608 0
v 8.50764 -13.4556 0
v 8.5521 -13.4456 0
v 8.59553 -13.4309 0
v 8.63761 -13.412 0
v 8.678 -13.389 0
v 8.71637 -13.3624 0
v 8.75239 -13.3324 0
v 8.78573 -13.2993 0
v 8.81606 -13.2635 0
v 8.84303 -13.2252 0
v 8.86634 -13.1847 0
v 8.88563 -13.1424 0
v 8.90058 -13.0986 0
v 8.91087 -13.0535 0
v 8.91615 -13.0074 0
v 8.91515 -12.954 0
v 8.90554 -12.8934 0
v 8.14192 -10.5355 0
v 6.62873 -5.88078 0
v 5.84579 -3.47285 0
v 5.79334 -3.3115 0
v 7.6693 -1.84857 0
v 11.4742 0.916205 0
v 13.5091 2.39487 0
v 13.774 2.58742 0
v 13.9318 2.70474 0
v 13.9787 2.74886 0
v 14.0188 2.79719 0
v 14.0522 2.849 0
v 14.0788 2.90355 0
v 14.0987 2.96009 0
v 14.1119 3.0179 0
f 340 352 339
f 339 330 338
f 330 339 352
f 342 352 341
f 352 346 347
f 345 346 352
f 352 344 345
f 343 344 352
f 343 352 342
f 352 340 341
f 330 332 333
f 330 331 332
f 333 334 330
f 330 335 336
f 330 336 337
f 338 330 337
f 330 352 329
f 329 352 328
f 335 330 334
f 347 348 351
f 349 350 351
f 25 328 352
f 25 352 353
f 347 351 352
f 25 327 328
f 26 327 25
f 24 353 354
f 327 26 27
f 24 354 23
f 355 23 354
f 25 353 24
f 349 351 348
f 9 326 69
f 324 325 9
f 9 325 326
f 323 324 10
f 326 27 69
f 327 27 326
f 23 356 67
f 356 23 355
f 23 67 68
f 27 68 69
f 68 27 22
f 68 22 23
f 70 9 69
f 10 324 9
f 319 320 306
f 306 318 319
f 306 317 318
f 320 321 306
f 8 9 70
f 8 70 7
f 306 322 6
f 322 323 6
f 306 321 322
f 70 71 7
f 6 323 10
f 306 6 305
f 306 314 315
f 313 307 312
f 314 306 313
f 315 316 306
f 310 308 309
f 308 310 311
f 312 308 311
f 312 307 308
f 313 306 307
f 316 317 306
f 6 7 305
f 305 71 42
f 71 305 7
f 304 42 303
f 42 304 305
f 303 42 43
f 302 43 44
f 43 302 303
f 302 44 301
f 300 298 299
f 301 297 300
f 273 289 301
f 300 297 298
f 301 296 297
f 295 296 301
f 301 294 295
f 293 294 301
f 293 291 292
f 293 290 291
f 288 286 287
f 290 293 289
f 289 293 301
f 288 289 285
f 271 301 44
f 71 72 42
f 67 356 91
f 357 90 91
f 91 92 66
f 90 357 89
f 357 91 356
f 359 382 358
f 360 382 359
f 382 89 358
f 383 88 89
f 358 89 357
f 383 89 382
f 365 360 361
f 384 88 383
f 66 93 65
f 66 92 93
f 113 64 112
f 65 112 64
f 64 113 107
f 65 93 386
f 93 385 386
f 386 112 65
f 110 386 387
f 386 111 112
f 111 386 110
f 93 384 385
f 88 384 93
f 365 361 364
f 364 361 363
f 365 366 360
f 366 367 360
f 369 360 368
f 370 360 369
f 360 371 372
f 370 371 360
f 360 367 368
f 373 360 372
f 382 373 374
f 382 375 376
f 374 375 382
f 376 377 382
f 382 378 379
f 382 379 380
f 381 382 380
f 378 382 377
f 360 373 382
f 361 362 363
f 109 110 387
f 272 301 271
f 274 277 273
f 273 285 289
f 272 273 301
f 47 269 46
f 41 269 47
f 45 46 270
f 269 270 46
f 270 271 44
f 41 72 269
f 72 41 42
f 276 274 275
f 282 283 284
f 285 281 284
f 284 281 282
f 286 288 285
f 273 277 278
f 278 279 273
f 280 281 273
f 273 279 280
f 281 285 273
f 277 274 276
f 45 270 44
f 387 108 109
f 108 387 388
f 268 108 388
f 389 268 388
f 269 107 108
f 107 72 64
f 391 268 390
f 392 268 391
f 394 268 393
f 392 393 268
f 389 390 268
f 268 394 395
f 266 264 265
f 263 264 266
f 268 261 267
f 266 267 262
f 268 269 108
f 259 260 268
f 260 261 268
f 266 262 263
f 267 261 262
f 259 268 396
f 395 396 268
f 107 269 72
f 67 91 66
f 214 202 201
f 192 201 200
f 201 192 214
f 214 204 203
f 208 214 209
f 208 207 214
f 206 214 207
f 206 205 214
f 214 205 204
f 202 214 203
f 194 192 195
f 193 192 194
f 196 195 192
f 197 192 198
f 198 192 199
f 192 200 199
f 214 192 191
f 214 191 190
f 192 197 196
f 210 209 213
f 212 211 213
f 190 19 214
f 214 19 215
f 213 209 214
f 189 19 190
f 189 20 19
f 215 18 216
f 20 189 21
f 216 18 17
f 17 217 216
f 215 19 18
f 213 211 210
f 188 4 60
f 187 186 4
f 187 4 188
f 186 185 5
f 21 188 60
f 21 189 188
f 218 17 58
f 17 218 217
f 58 17 59
f 59 21 60
f 21 59 16
f 16 59 17
f 4 61 60
f 186 5 4
f 182 181 168
f 180 168 181
f 179 168 180
f 183 182 168
f 4 3 61
f 61 3 2
f 184 168 1
f 185 184 1
f 183 168 184
f 62 61 2
f 185 1 5
f 1 168 167
f 176 168 177
f 169 175 174
f 168 176 175
f 178 177 168
f 170 172 171
f 172 170 173
f 170 174 173
f 169 174 170
f 168 175 169
f 179 178 168
f 2 1 167
f 62 167 35
f 167 62 2
f 35 166 165
f 166 35 167
f 35 165 36
f 36 164 37
f 164 36 165
f 37 164 163
f 160 162 161
f 159 163 162
f 151 135 163
f 159 162 160
f 158 163 159
f 158 157 163
f 156 163 157
f 156 155 163
f 153 155 154
f 152 155 153
f 148 150 149
f 155 152 151
f 155 151 163
f 151 150 147
f 163 133 37
f 63 62 35
f 218 58 85
f 84 219 85
f 86 85 57
f 219 84 83
f 85 219 218
f 244 221 220
f 244 222 221
f 83 244 220
f 82 245 83
f 83 220 219
f 83 245 244
f 222 227 223
f 82 246 245
f 87 57 56
f 86 57 87
f 55 106 105
f 105 56 55
f 106 55 100
f 87 56 248
f 247 87 248
f 105 248 56
f 248 103 249
f 104 248 105
f 248 104 103
f 246 87 247
f 246 82 87
f 223 227 226
f 223 226 225
f 228 227 222
f 229 228 222
f 222 231 230
f 222 232 231
f 233 222 234
f 233 232 222
f 229 222 230
f 222 235 234
f 235 244 236
f 237 244 238
f 237 236 244
f 239 238 244
f 240 244 241
f 241 244 242
f 244 243 242
f 244 240 239
f 235 222 244
f 224 223 225
f 103 102 249
f 163 134 133
f 139 136 135
f 147 135 151
f 135 134 163
f 131 40 39
f 131 34 40
f 39 38 132
f 132 131 39
f 133 132 37
f 63 34 131
f 34 63 35
f 136 138 137
f 145 144 146
f 143 147 146
f 143 146 144
f 150 148 147
f 139 135 140
f 141 140 135
f 143 142 135
f 141 135 142
f 147 143 135
f 136 139 138
f 132 38 37
f 101 249 102
f 249 101 250
f 101 130 250
f 130 251 250
f 100 131 101
f 63 100 55
f 130 253 252
f 130 254 253
f 130 256 255
f 255 254 130
f 252 251 130
f 256 130 257
f 126 128 127
f 126 125 128
f 123 130 129
f 129 128 124
f 131 130 101
f 122 121 130
f 123 122 130
f 124 128 125
f 123 129 124
f 130 121 258
f 258 257 130
f 131 100 63
f 85 58 57
f 11 1 2
f 11 2 7
f 11 7 6
f 11 6 1
f 12 2 3
f 12 3 8
f 12 8 7
f 12 7 2
f 13 3 4
f 13 4 9
f 13 9 8
f 13 8 3
f 14 4 5
f 14 5 10
f 14 10 9
f 14 9 4
f 15 5 1
f 15 1 6
f 15 6 10
f 15 10 5
f 28 16 17
f 28 17 23
f 28 23 22
f 28 22 16
f 29 17 18
f 29 18 24
f 29 24 23
f 29 23 17
f 30 18 19
f 30 19 25
f 30 25 24
f 30 24 18
f 31 19 20
f 31 20 26
f 31 26 25
f 31 25 19
f 32 20 21
f 32 21 27
f 32 27 26
f 32 26 20
f 33 21 16
f 33 16 22
f 33 22 27
f 33 27 21
f 48 34 35
f 48 35 42
f 48 42 41
f 48 41 34
f 49 35 36
f 49 36 43
f 49 43 42
f 49 42 35
f 50 36 37
f 50 37 44
f 50 44 43
f 50 43 36
f 51 37 38
f 51 38 45
f 51 45 44
f 51 44 37
f 52 38 39
f 52 39 46
f 52 46 45
f 52 45 38
f 53 39 40
f 53 40 47
f 53 47 46
f 53 46 39
f 54 40 34
f 54 34 41
f 54 41 47
f 54 47 40
f 73 55 56
f 73 56 65
f 73 65 64
f 73 64 55
f 74 56 57
f 74 57 66
f 74 66 65
f 74 65 56
f 75 57 58
f 75 58 67
f 75 67 66
f 75 66 57
f 76 58 59
f 76 59 68
f 76 68 67
f 76 67 58
f 77 59 60
f 77 60 69
f 77 69 68
f 77 68 59
f 78 60 61
f 78 61 70
f 78 70 69
f 78 69 60
f 79 61 62
f 79 62 71
f 79 71 70
f 79 70 61
f 80 62 63
f 80 63 72
f 80 72 71
f 80 71 62
f 81 63 55
f 81 55 64
f 81 64 72
f 81 72 63
f 94 82 83
f 94 83 89
f 94 89 88
f 94 88 82
f 95 83 84
f 95 84 90
f 95 90 89
f 95 89 83
f 96 84 85
f 96 85 91
f 96 91 90
f 96 90 84
f 97 85 86
f 97 86 92
f 97 92 91
f 97 91 85
f 98 86 87
f 98 87 93
f 98 93 92
f 98 92 86
f 99 87 82
f 99 82 88
f 99 88 93
f 99 93 87
f 114 100 101
f 114 101 108
f 114 108 107
f 114 107 100
f 115 101 102
f 115 102 109
f 115 109 108
f 115 108 101
f 116 102 103
f 116 103 110
f 116 110 109
f 116 109 102
f 117 103 104
f 117 104 111
f 117 111 110
f 117 110 103
f 118 104 105
f 118 105 112
f 118 112 111
f 118 111 104
f 119 105 106
f 119 106 113
f 119 113 112
f 119 112 105
f 120 106 100
f 120 100 107
f 120 107 113
f 120 113 106
f 397 121 122
f 397 122 260
f 397 260 259
f 397 259 121
f 398 122 123
f 398 123 261
f 398 261 260
f 398 260 122
f 399 123 124
f 399 124 262
f 399 262 261
f 399 261 123
f 400 124 125
f 400 125 263
f 400 263 262
f 400 262 124
f 401 125 126
f 401 126 264
f 401 264 263
f 401 263 125
f 402 126 127
f 402 127 265
f 402 265 264
f 402 264 126
f 403 127 128
f 403 128 266
f 403 266 265
f 403 265 127
f 404 128 129
f 404 129 267
f 404 267 266
f 404 266 128
f 405 129 130
f 405 130 268
f 405 268 267
f 405 267 129
f 406 130 131
f 406 131 269
f 406 269 268
f 406 268 130
f 407 131 132
f 407 132 270
f 407 270 269
f 407 269 131
f 408 132 133
f 408 133 271
f 408 271 270
f 408 270 132
f 409 133 134
f 409 134 272
f 409 272 271
f 409 271 133
f 410 134 135
f 410 135 273
f 410 273 272
f 410 272 134
f 411 135 136
f 411 136 274
f 411 274 273
f 411 273 135
f 412 136 137
f 412 137 275
f 412 275 274
f 412 274 136
f 413 137 138
f 413 138 276
f 413 276 275
f 413 275 137
f 414 138 139
f 414 139 277
f 414 277 276
f 414 276 138
f 415 139 140
f 415 140 278
f 415 278 277
f 415 277 139
f 416 140 141
f 416 141 279
f 416 279 278
f 416 278 140
f 417 141 142
f 417 142 280
f 417 280 279
f 417 279 141
f 418 142 143
f 418 143 281
f 418 281 280
f 418 280 142
f 419 143 144
f 419 144 282
f 419 282 281
f 419 281 143
f 420 144 145
f 420 145 283
f 420 283 282
f 420 282 144
f 421 145 146
f 421 146 284
f 421 284 283
f 421 283 145
f 422 146 147
f 422 147 285
f 422 285 284
f 422 284 146
f 423 147 148
f 423 148 286
f 423 286 285
f 423 285 147
f 424 148 149
f 424 149 287
f 424 287 286
f 424 286 148
f 425 149 150
f 425 150 288
f 425 288 287
f 425 287 149
f 426 150 151
f 426 151 289
f 426 289 288
f 426 288 150
f 427 151 152
f 427 152 290
f 427 290 289
f 427 289 151
f 428 152 153
f 428 153 291
f 428 291 290
f 428 290 152
f 429 153 154
f 429 154 292
f 429 292 291
f 429 291 153
f 430 154 155
f 430 155 293
f 430 293 292
f 430 292 154
f 431 155 156
f 431 156 294
f 431 294 293
f 431 293 155
f 432 156 157
f 432 157 295
f 432 295 294
f 432 294 156
f 433 157 158
f 433 158 296
f 433 296 295
f 433 295 157
f 434 158 159
f 434 159 297
f 434 297 296
f 434 296 158
f 435 159 160
f 435 160 298
f 435 298 297
f 435 297 159
f 436 160 161
f 436 161 299
f 436 299 298
f 436 298 160
f 437 161 162
f 437 162 300
f 437 300 299
f 437 299 161
f 438 162 163
f 438 163 301
f 438 301 300
f 438 300 162
f 439 163 164
f 439 164 302
f 439 302 301
f 439 301 163
f 440 164 165
f 440 165 303
f 440 303 302
f 440 302 164
f 441 165 166
f 441 166 304
f 441 304 303
f 441 303 165
f 442 166 167
f 442 167 305
f 442 305 304
f 442 304 166
f 443 167 168
f 443 168 306
f 443 306 305
f 443 305 167
f 444 168 169
f 444 169 307
f 444 307 306
f 444 306 168
f 445 169 170
f 445 170 308
f 445 308 307
f 445 307 169
f 446 170 171
f 446 171 309
f 446 309 308
f 446 308 170
f 447 171 172
f 447 172 310
f 447 310 309
f 447 309 171
f 448 172 173
f 448 173 311
f 448 311 310
f 448 310 172
f 449 173 174
f 449 174 312
f 449 312 311
f 449 311 173
f 450 174 175
f 450 175 313
f 450 313 312
f 450 312 174
f 451 175 176
f 451 176 314
f 451 314 313
f 451 313 175
f 452 176 177
f 452 177 315
f 452 315 314
f 452 314 176
f 453 177 178
f 453 178 316
f 453 316 315
f 453 315 177
f 454 178 179
f 454 179 317
f 454 317 316
f 454 316 178
f 455 179 180
f 455 180 318
f 455 318 317
f 455 317 179
f 456 180 181
f 456 181 319
f 456 319 318
f 456 318 180
f 457 181 182
f 457 182 320
f 457 320 319
f 457 319 181
f 458 182 183
f 458 183 321
f 458 321 320
f 458 320 182
f 459 183 184
f 459 184 322
f 459 322 321
f 459 321 183
f 460 184 185
f 460 185 323
f 460 323 322
f 460 322 184
f 461 185 186
f 461 186 324
f 461 324 323
f 461 323 185
f 462 186 187
f 462 187 325
f 462 325 324
f 462 324 186
f 463 187 188
f 463 188 326
f 463 326 325
f 463 325 187
f 464 188 189
f 464 189 327
f 464 327 326
f 464 326 188
f 465 189 190
f 465 190 328
f 465 328 327
f 465 327 189
f 466 190 191
f 466 191 329
f 466 329 328
f 466 328 190
f 467 191 192
f 467 192 330
f 467 330 329
f 467 329 191
f 468 192 193
f 468 193 331
f 468 331 330
f 468 330 192
f 469 193 194
f 469 194 332
f 469 332 331
f 469 331 193
f 470 194 195
f 470 195 333
f 470 333 332
f 470 332 194
f 471 195 196
f 471 196 334
f 471 334 333
f 471 333 195
f 472 196 197
f 472 197 335
f 472 335 334
f 472 334 196
f 473 197 198
f 473 198 336
f 473 336 335
f 473 335 197
f 474 198 199
f 474 199 337
f 474 337 336
f 474 336 198
f 475 199 200
f 475 200 338
f 475 338 337
f 475 337 199
f 476 200 201
f 476 201 339
f 476 339 338
f 476 338 200
f 477 201 202
f 477 202 340
f 477 340 339
f 477 339 201
f 478 202 203
f 478 203 341
f 478 341 340
f 478 340 202
f 479 203 204
f 479 204 342
f 479 342 341
f 479 341 203
f 480 204 205
f 480 205 343
f 480 343 342
f 480 342 204
f 481 205 206
f 481 206 344
f 481 344 343
f 481 343 205
f 482 206 207
f 482 207 345
f 482 345 344
f 482 344 206
f 483 207 208
f 483 208 346
f 483 346 345
f 483 345 207
f 484 208 209
f 484 209 347
f 484 347 346
f 484 346 208
f 485 209 210
f 485 210 348
f 485 348 347
f 485 347 209
f 486 210 211
f 486 211 349
f 486 349 348
f 486 348 210
f 487 211 212
f 487 212 350
f 487 350 349
f 487 349 211
f 488 212 213
f 488 213 351
f 488 351 350
f 488 350 212
f 489 213 214
f 489 214 352
f 489 352 351
f 489 351 213
f 490 214 215
f 490 215 353
f 490 353 352
f 490 352 214
f 491 215 216
f 491 216 354
f 491 354 353
f 491 353 215
f 492 216 217
f 492 217 355
f 492 355 354
f 492 354 216
f 493 217 218
f 493 218 356
f 493 356 355
f 493 355 217
f 494 218 219
f 494 219 357
f 494 357 356
f 494 356 218
f 495 219 220
f 495 220 358
f 495 358 357
f 495 357 219
f 496 220 221
f 496 221 359
f 496 359 358
f 496 358 220
f 497 221 222
f 497 222 360
f 497 360 359
f 497 359 221
f 498 222 223
f 498 223 361
f 498 361 360
f 498 360 222
f 499 223 224
f 499 224 362
f 499 362 361
f 499 361 223
f 500 224 225
f 500 225 363
f 500 363 362
f 500 362 224
f 501 225 226
f 501 226 364
f 501 364 363
f 501 363 225
f 502 226 227
f 502 227 365
f 502 365 364
f 502 364 226
f 503 227 228
f 503 228 366
f 503 366 365
f 503 365 227
f 504 228 229
f 504 229 367
f 504 367 366
f 504 366 228
f 505 229 230
f 505 230 368
f 505 368 367
f 505 367 229
f 506 230 231
f 506 231 369
f 506 369 368
f 506 368 230
f 507 231 232
f 507 232 370
f 507 370 369
f 507 369 231
f 508 232 233
f 508 233 371
f 508 371 370
f 508 370 232
f 509 233 234
f 509 234 372
f 509 372 371
f 509 371 233
f 510 234 235
f 510 235 373
f 510 373 372
f 510 372 234
f 511 235 236
f 511 236 374
f 511 374 373
f 511 373 235
f 512 236 237
f 512 237 375
f 512 375 374
f 512 374 236
f 513 237 238
f 513 238 376
f 513 376 375
f 513 375 237
f 514 238 239
f 514 239 377
f 514 377 376
f 514 376 238
f 515 239 240
f 515 240 378
f 515 378 377
f 515 377 239
f 516 240 241
f 516 241 379
f 516 379 378
f 516 378 240
f 517 241 242
f 517 242 380
f 517 380 379
f 517 379 241
f 518 242 243
f 518 243 381
f 518 381 380
f 518 380 242
f 519 243 244
f 519 244 382
f 519 382 381
f 519 381 243
f 520 244 245
f 520 245 383
f 520 383 382
f 520 382 244
f 521 245 246
f 521 246 384
f 521 384 383
f 521 383 245
f 522 246 247
f 522 247 385
f 522 385 384
f 522 384 246
f 523 247 248
f 523 248 386
f 523 386 385
f 523 385 247
f 524 248 249
f 524 249 387
f 524 387 386
f 524 386 248
f 525 249 250
f 525 250 388
f 525 388 387
f 525 387 249
f 526 250 251
f 526 251 389
f 526 389 388
f 526 388 250
f 527 251 252
f 527 252 390
f 527 390 389
f 527 389 251
f 528 252 253
f 528 253 391
f 528 391 390
f 528 390 252
f 529 253 254
f 529 254 392
f 529 392 391
f 529 391 253
f 530 254 255
f 530 255 393
f 530 393 392
f 530 392 254
f 531 255 256
f 531 256 394
f 531 394 393
f 531 393 255
f 532 256 257
f 532 257 395
f 532 395 394
f 532 394 256
f 533 257 258
f 533 258 396
f 533 396 395
f 533 395 257
f 534 258 121
f 534 121 259
f 534 259 396
f 534 396 258
