v 11.28 -93.22 7.00
v 17.61 -86.75 7.00
v 21.37 -90.58 7.00
v 11.28 -93.22 -7.00
v 17.61 -86.75 -7.00
v 21.37 -90.58 -7.00
v 11.28 -93.22 7.00
v 21.37 -90.58 7.00
v 14.78 -96.78 7.00
v 11.28 -93.22 -7.00
v 21.37 -90.58 -7.00
v 14.78 -96.78 -7.00
v 17.50 -86.86 7.00
v 23.14 -80.40 7.00
v 27.38 -84.26 7.00
v 17.50 -86.86 -7.00
v 23.14 -80.40 -7.00
v 27.38 -84.26 -7.00
v 17.50 -86.86 7.00
v 27.38 -84.26 7.00
v 21.47 -90.47 7.00
v 17.50 -86.86 -7.00
v 27.38 -84.26 -7.00
v 21.47 -90.47 -7.00
v 22.98 -80.59 7.00
v 27.71 -74.14 7.00
v 32.55 -77.86 7.00
v 22.98 -80.59 -7.00
v 27.71 -74.14 -7.00
v 32.55 -77.86 -7.00
v 22.98 -80.59 7.00
v 32.55 -77.86 7.00
v 27.53 -84.08 7.00
v 22.98 -80.59 -7.00
v 32.55 -77.86 -7.00
v 27.53 -84.08 -7.00
v 27.51 -74.43 7.00
v 31.16 -68.00 7.00
v 36.71 -71.33 7.00
v 27.51 -74.43 -7.00
v 31.16 -68.00 -7.00
v 36.71 -71.33 -7.00
v 27.51 -74.43 7.00
v 36.71 -71.33 7.00
v 32.74 -77.57 7.00
v 27.51 -74.43 -7.00
v 36.71 -71.33 -7.00
v 32.74 -77.57 -7.00
v 30.94 -68.44 7.00
v 33.38 -62.03 7.00
v 39.70 -64.63 7.00
v 30.94 -68.44 -7.00
v 33.38 -62.03 -7.00
v 39.70 -64.63 -7.00
v 30.94 -68.44 7.00
v 39.70 -64.63 7.00
v 36.92 -70.90 7.00
v 30.94 -68.44 -7.00
v 39.70 -64.63 -7.00
v 36.92 -70.90 -7.00
v 33.19 -62.64 7.00
v 34.32 -56.27 7.00
v 41.37 -57.73 7.00
v 33.19 -62.64 -7.00
v 34.32 -56.27 -7.00
v 41.37 -57.73 -7.00
v 33.19 -62.64 7.00
v 41.37 -57.73 7.00
v 39.88 -64.02 7.00
v 33.19 -62.64 -7.00
v 41.37 -57.73 -7.00
v 39.88 -64.02 -7.00
v 34.25 -57.02 7.00
v 34.03 -50.69 7.00
v 41.60 -50.65 7.00
v 34.25 -57.02 -7.00
v 34.03 -50.69 -7.00
v 41.60 -50.65 -7.00
v 34.25 -57.02 7.00
v 41.60 -50.65 7.00
v 41.45 -56.98 7.00
v 34.25 -57.02 -7.00
v 41.60 -50.65 -7.00
v 41.45 -56.98 -7.00
v 34.12 -51.47 7.00
v 32.57 -45.17 7.00
v 40.32 -43.49 7.00
v 34.12 -51.47 -7.00
v 32.57 -45.17 -7.00
v 40.32 -43.49 -7.00
v 34.12 -51.47 7.00
v 40.32 -43.49 7.00
v 41.51 -49.87 7.00
v 34.12 -51.47 -7.00
v 40.32 -43.49 -7.00
v 41.51 -49.87 -7.00
v 32.79 -45.87 7.00
v 29.96 -39.61 7.00
v 37.61 -36.39 7.00
v 32.79 -45.87 -7.00
v 29.96 -39.61 -7.00
v 37.61 -36.39 -7.00
v 32.79 -45.87 7.00
v 37.61 -36.39 7.00
v 40.10 -42.80 7.00
v 32.79 -45.87 -7.00
v 37.61 -36.39 -7.00
v 40.10 -42.80 -7.00
v 30.24 -40.16 7.00
v 26.22 -33.92 7.00
v 33.62 -29.41 7.00
v 30.24 -40.16 -7.00
v 26.22 -33.92 -7.00
v 33.62 -29.41 -7.00
v 30.24 -40.16 7.00
v 33.62 -29.41 7.00
v 37.33 -35.84 7.00
v 30.24 -40.16 -7.00
v 33.62 -29.41 -7.00
v 37.33 -35.84 -7.00
v 26.50 -34.32 7.00
v 21.44 -28.10 7.00
v 28.57 -22.56 7.00
v 26.50 -34.32 -7.00
v 21.44 -28.10 -7.00
v 28.57 -22.56 -7.00
v 26.50 -34.32 7.00
v 28.57 -22.56 7.00
v 33.34 -29.01 7.00
v 26.50 -34.32 -7.00
v 28.57 -22.56 -7.00
v 33.34 -29.01 -7.00
v 21.67 -28.39 7.00
v 15.73 -22.18 7.00
v 22.66 -15.82 7.00
v 21.67 -28.39 -7.00
v 15.73 -22.18 -7.00
v 22.66 -15.82 -7.00
v 21.67 -28.39 7.00
v 22.66 -15.82 7.00
v 28.33 -22.28 7.00
v 21.67 -28.39 -7.00
v 22.66 -15.82 -7.00
v 28.33 -22.28 -7.00
v 15.91 -22.36 7.00
v 9.30 -16.16 7.00
v 16.13 -9.17 7.00
v 15.91 -22.36 -7.00
v 9.30 -16.16 -7.00
v 16.13 -9.17 -7.00
v 15.91 -22.36 7.00
v 16.13 -9.17 7.00
v 22.48 -15.64 7.00
v 15.91 -22.36 -7.00
v 16.13 -9.17 -7.00
v 22.48 -15.64 -7.00
v 9.42 -16.27 7.00
v 2.36 -10.07 7.00
v 9.19 -2.59 7.00
v 9.42 -16.27 -7.00
v 2.36 -10.07 -7.00
v 9.19 -2.59 -7.00
v 9.42 -16.27 7.00
v 9.19 -2.59 7.00
v 16.01 -9.06 7.00
v 9.42 -16.27 -7.00
v 9.19 -2.59 -7.00
v 16.01 -9.06 -7.00
v 2.42 -10.12 7.00
v -4.85 -3.93 7.00
v 2.12 3.93 7.00
v 2.42 -10.12 -7.00
v -4.85 -3.93 -7.00
v 2.12 3.93 -7.00
v 2.42 -10.12 7.00
v 2.12 3.93 7.00
v 9.14 -2.54 7.00
v 2.42 -10.12 -7.00
v 2.12 3.93 -7.00
v 9.14 -2.54 -7.00
v -4.86 -3.92 7.00
v -12.07 2.28 7.00
v -4.83 10.39 7.00
v -4.86 -3.92 -7.00
v -12.07 2.28 -7.00
v -4.83 10.39 -7.00
v -4.86 -3.92 7.00
v -4.83 10.39 7.00
v 2.14 3.92 7.00
v -4.86 -3.92 -7.00
v -4.83 10.39 -7.00
v 2.14 3.92 -7.00
v -12.16 2.36 7.00
v -19.08 8.56 7.00
v -11.42 16.77 7.00
v -12.16 2.36 -7.00
v -19.08 8.56 -7.00
v -11.42 16.77 -7.00
v -12.16 2.36 7.00
v -11.42 16.77 7.00
v -4.75 10.31 7.00
v -12.16 2.36 -7.00
v -11.42 16.77 -7.00
v -4.75 10.31 -7.00
v -19.24 8.72 7.00
v -25.63 14.93 7.00
v -17.37 23.07 7.00
v -19.24 8.72 -7.00
v -25.63 14.93 -7.00
v -17.37 23.07 -7.00
v -19.24 8.72 7.00
v -17.37 23.07 7.00
v -11.25 16.61 7.00
v -19.24 8.72 -7.00
v -17.37 23.07 -7.00
v -11.25 16.61 -7.00
v -25.88 15.20 7.00
v -31.51 21.41 7.00
v -22.47 29.25 7.00
v -25.88 15.20 -7.00
v -31.51 21.41 -7.00
v -22.47 29.25 -7.00
v -25.88 15.20 7.00
v -22.47 29.25 7.00
v -17.12 22.80 7.00
v -25.88 15.20 -7.00
v -22.47 29.25 -7.00
v -17.12 22.80 -7.00
v -31.85 21.85 7.00
v -36.54 28.08 7.00
v -26.51 35.26 7.00
v -31.85 21.85 -7.00
v -36.54 28.08 -7.00
v -26.51 35.26 -7.00
v -31.85 21.85 7.00
v -26.51 35.26 7.00
v -22.12 28.82 7.00
v -31.85 21.85 -7.00
v -26.51 35.26 -7.00
v -22.12 28.82 -7.00
v -36.95 28.74 7.00
v -40.53 34.98 7.00
v -29.35 41.02 7.00
v -36.95 28.74 -7.00
v -40.53 34.98 -7.00
v -29.35 41.02 -7.00
v -36.95 28.74 7.00
v -29.35 41.02 7.00
v -26.10 34.60 7.00
v -36.95 28.74 -7.00
v -29.35 41.02 -7.00
v -26.10 34.60 -7.00
v -40.95 35.93 7.00
v -43.30 42.21 7.00
v -30.94 46.46 7.00
v -40.95 35.93 -7.00
v -43.30 42.21 -7.00
v -30.94 46.46 -7.00
v -40.95 35.93 7.00
v -30.94 46.46 7.00
v -28.94 40.07 7.00
v -40.95 35.93 -7.00
v -30.94 46.46 -7.00
v -28.94 40.07 -7.00
v -43.59 43.45 7.00
v -44.64 49.76 7.00
v -31.33 51.58 7.00
v -43.59 43.45 -7.00
v -44.64 49.76 -7.00
v -31.33 51.58 -7.00
v -43.59 43.45 7.00
v -31.33 51.58 7.00
v -30.65 45.22 7.00
v -43.59 43.45 -7.00
v -31.33 51.58 -7.00
v -30.65 45.22 -7.00
v -44.68 51.17 7.00
v -44.39 57.52 7.00
v -30.63 56.48 7.00
v -44.68 51.17 -7.00
v -44.39 57.52 -7.00
v -30.63 56.48 -7.00
v -44.68 51.17 7.00
v -30.63 56.48 7.00
v -31.29 50.16 7.00
v -44.68 51.17 -7.00
v -30.63 56.48 -7.00
v -31.29 50.16 -7.00
v -44.14 58.90 7.00
v -42.51 65.28 7.00
v -28.89 61.39 7.00
v -44.14 58.90 -7.00
v -42.51 65.28 -7.00
v -28.89 61.39 -7.00
v -44.14 58.90 7.00
v -28.89 61.39 7.00
v -30.87 55.10 7.00
v -44.14 58.90 -7.00
v -28.89 61.39 -7.00
v -30.87 55.10 -7.00
v -42.07 66.43 7.00
v -39.16 72.84 7.00
v -26.08 66.49 7.00
v -42.07 66.43 -7.00
v -39.16 72.84 -7.00
v -26.08 66.49 -7.00
v -42.07 66.43 7.00
v -26.08 66.49 7.00
v -29.32 60.24 7.00
v -42.07 66.43 -7.00
v -26.08 66.49 -7.00
v -29.32 60.24 -7.00
v -38.67 73.70 7.00
v -34.59 80.14 7.00
v -22.20 71.86 7.00
v -38.67 73.70 -7.00
v -34.59 80.14 -7.00
v -22.20 71.86 -7.00
v -38.67 73.70 7.00
v -22.20 71.86 7.00
v -26.58 65.63 7.00
v -38.67 73.70 -7.00
v -22.20 71.86 -7.00
v -26.58 65.63 -7.00
v -34.13 80.75 7.00
v -29.04 87.20 7.00
v -17.27 77.47 7.00
v -34.13 80.75 -7.00
v -29.04 87.20 -7.00
v -17.27 77.47 -7.00
v -34.13 80.75 7.00
v -17.27 77.47 7.00
v -22.65 71.25 7.00
v -34.13 80.75 -7.00
v -17.27 77.47 -7.00
v -22.65 71.25 -7.00
v -28.67 87.61 7.00
v -22.75 94.07 7.00
v -11.45 83.26 7.00
v -28.67 87.61 -7.00
v -22.75 94.07 -7.00
v -11.45 83.26 -7.00
v -28.67 87.61 7.00
v -11.45 83.26 7.00
v -17.64 77.06 7.00
v -28.67 87.61 -7.00
v -11.45 83.26 -7.00
v -17.64 77.06 -7.00
v -22.49 94.33 7.00
v -15.95 100.80 7.00
v -4.93 89.20 7.00
v -22.49 94.33 -7.00
v -15.95 100.80 -7.00
v -4.93 89.20 -7.00
v -22.49 94.33 7.00
v -4.93 89.20 7.00
v -11.72 83.00 7.00
v -22.49 94.33 -7.00
v -4.93 89.20 -7.00
v -11.72 83.00 -7.00
v -8.44 103.00 7.00
v 7.56 103.00 7.00
v 7.32 105.78 7.00
v -8.44 103.00 -7.00
v 7.56 103.00 -7.00
v 7.32 105.78 -7.00
v -8.44 103.00 7.00
v 7.32 105.78 7.00
v 6.59 108.47 7.00
v -8.44 103.00 -7.00
v 7.32 105.78 -7.00
v 6.59 108.47 -7.00
v -8.44 103.00 7.00
v 6.59 108.47 7.00
v 5.42 111.00 7.00
v -8.44 103.00 -7.00
v 6.59 108.47 -7.00
v 5.42 111.00 -7.00
v -8.44 103.00 7.00
v 5.42 111.00 7.00
v 3.82 113.28 7.00
v -8.44 103.00 -7.00
v 5.42 111.00 -7.00
v 3.82 113.28 -7.00
v -8.44 103.00 7.00
v 3.82 113.28 7.00
v 1.84 115.26 7.00
v -8.44 103.00 -7.00
v 3.82 113.28 -7.00
v 1.84 115.26 -7.00
v -8.44 103.00 7.00
v 1.84 115.26 7.00
v -0.44 116.86 7.00
v -8.44 103.00 -7.00
v 1.84 115.26 -7.00
v -0.44 116.86 -7.00
v -8.44 103.00 7.00
v -0.44 116.86 7.00
v -2.97 118.04 7.00
v -8.44 103.00 -7.00
v -0.44 116.86 -7.00
v -2.97 118.04 -7.00
v -8.44 103.00 7.00
v -2.97 118.04 7.00
v -5.66 118.76 7.00
v -8.44 103.00 -7.00
v -2.97 118.04 -7.00
v -5.66 118.76 -7.00
v -8.44 103.00 7.00
v -5.66 118.76 7.00
v -8.44 119.00 7.00
v -8.44 103.00 -7.00
v -5.66 118.76 -7.00
v -8.44 119.00 -7.00
v -8.44 103.00 7.00
v -8.44 119.00 7.00
v -11.22 118.76 7.00
v -8.44 103.00 -7.00
v -8.44 119.00 -7.00
v -11.22 118.76 -7.00
v -8.44 103.00 7.00
v -11.22 118.76 7.00
v -13.91 118.04 7.00
v -8.44 103.00 -7.00
v -11.22 118.76 -7.00
v -13.91 118.04 -7.00
v -8.44 103.00 7.00
v -13.91 118.04 7.00
v -16.44 116.86 7.00
v -8.44 103.00 -7.00
v -13.91 118.04 -7.00
v -16.44 116.86 -7.00
v -8.44 103.00 7.00
v -16.44 116.86 7.00
v -18.72 115.26 7.00
v -8.44 103.00 -7.00
v -16.44 116.86 -7.00
v -18.72 115.26 -7.00
v -8.44 103.00 7.00
v -18.72 115.26 7.00
v -20.70 113.28 7.00
v -8.44 103.00 -7.00
v -18.72 115.26 -7.00
v -20.70 113.28 -7.00
v -8.44 103.00 7.00
v -20.70 113.28 7.00
v -22.30 111.00 7.00
v -8.44 103.00 -7.00
v -20.70 113.28 -7.00
v -22.30 111.00 -7.00
v -8.44 103.00 7.00
v -22.30 111.00 7.00
v -23.48 108.47 7.00
v -8.44 103.00 -7.00
v -22.30 111.00 -7.00
v -23.48 108.47 -7.00
v -8.44 103.00 7.00
v -23.48 108.47 7.00
v -24.20 105.78 7.00
v -8.44 103.00 -7.00
v -23.48 108.47 -7.00
v -24.20 105.78 -7.00
v -8.44 103.00 7.00
v -24.20 105.78 7.00
v -24.44 103.00 7.00
v -8.44 103.00 -7.00
v -24.20 105.78 -7.00
v -24.44 103.00 -7.00
v -8.44 103.00 7.00
v -24.44 103.00 7.00
v -24.20 100.22 7.00
v -8.44 103.00 -7.00
v -24.44 103.00 -7.00
v -24.20 100.22 -7.00
v -8.44 103.00 7.00
v -24.20 100.22 7.00
v -23.48 97.53 7.00
v -8.44 103.00 -7.00
v -24.20 100.22 -7.00
v -23.48 97.53 -7.00
v -8.44 103.00 7.00
v -23.48 97.53 7.00
v -22.30 95.00 7.00
v -8.44 103.00 -7.00
v -23.48 97.53 -7.00
v -22.30 95.00 -7.00
v -8.44 103.00 7.00
v -22.30 95.00 7.00
v -20.70 92.72 7.00
v -8.44 103.00 -7.00
v -22.30 95.00 -7.00
v -20.70 92.72 -7.00
v -8.44 103.00 7.00
v -20.70 92.72 7.00
v -18.72 90.74 7.00
v -8.44 103.00 -7.00
v -20.70 92.72 -7.00
v -18.72 90.74 -7.00
v -8.44 103.00 7.00
v -18.72 90.74 7.00
v -16.44 89.14 7.00
v -8.44 103.00 -7.00
v -18.72 90.74 -7.00
v -16.44 89.14 -7.00
v -8.44 103.00 7.00
v -16.44 89.14 7.00
v -13.91 87.96 7.00
v -8.44 103.00 -7.00
v -16.44 89.14 -7.00
v -13.91 87.96 -7.00
v -8.44 103.00 7.00
v -13.91 87.96 7.00
v -11.22 87.24 7.00
v -8.44 103.00 -7.00
v -13.91 87.96 -7.00
v -11.22 87.24 -7.00
v -8.44 103.00 7.00
v -11.22 87.24 7.00
v -8.44 87.00 7.00
v -8.44 103.00 -7.00
v -11.22 87.24 -7.00
v -8.44 87.00 -7.00
v -8.44 103.00 7.00
v -8.44 87.00 7.00
v -5.66 87.24 7.00
v -8.44 103.00 -7.00
v -8.44 87.00 -7.00
v -5.66 87.24 -7.00
v -8.44 103.00 7.00
v -5.66 87.24 7.00
v -2.97 87.96 7.00
v -8.44 103.00 -7.00
v -5.66 87.24 -7.00
v -2.97 87.96 -7.00
v -8.44 103.00 7.00
v -2.97 87.96 7.00
v -0.44 89.14 7.00
v -8.44 103.00 -7.00
v -2.97 87.96 -7.00
v -0.44 89.14 -7.00
v -8.44 103.00 7.00
v -0.44 89.14 7.00
v 1.84 90.74 7.00
v -8.44 103.00 -7.00
v -0.44 89.14 -7.00
v 1.84 90.74 -7.00
v -8.44 103.00 7.00
v 1.84 90.74 7.00
v 3.82 92.72 7.00
v -8.44 103.00 -7.00
v 1.84 90.74 -7.00
v 3.82 92.72 -7.00
v -8.44 103.00 7.00
v 3.82 92.72 7.00
v 5.42 95.00 7.00
v -8.44 103.00 -7.00
v 3.82 92.72 -7.00
v 5.42 95.00 -7.00
v -8.44 103.00 7.00
v 5.42 95.00 7.00
v 6.59 97.53 7.00
v -8.44 103.00 -7.00
v 5.42 95.00 -7.00
v 6.59 97.53 -7.00
v -8.44 103.00 7.00
v 6.59 97.53 7.00
v 7.32 100.22 7.00
v -8.44 103.00 -7.00
v 6.59 97.53 -7.00
v 7.32 100.22 -7.00
v -8.44 103.00 7.00
v 7.32 100.22 7.00
v 7.56 103.00 7.00
v -8.44 103.00 -7.00
v 7.32 100.22 -7.00
v 7.56 103.00 -7.00
f 1 2 3
f 4 5 6
f 7 8 9
f 10 11 12
f 13 14 15
f 16 17 18
f 19 20 21
f 22 23 24
f 25 26 27
f 28 29 30
f 31 32 33
f 34 35 36
f 37 38 39
f 40 41 42
f 43 44 45
f 46 47 48
f 49 50 51
f 52 53 54
f 55 56 57
f 58 59 60
f 61 62 63
f 64 65 66
f 67 68 69
f 70 71 72
f 73 74 75
f 76 77 78
f 79 80 81
f 82 83 84
f 85 86 87
f 88 89 90
f 91 92 93
f 94 95 96
f 97 98 99
f 100 101 102
f 103 104 105
f 106 107 108
f 109 110 111
f 112 113 114
f 115 116 117
f 118 119 120
f 121 122 123
f 124 125 126
f 127 128 129
f 130 131 132
f 133 134 135
f 136 137 138
f 139 140 141
f 142 143 144
f 145 146 147
f 148 149 150
f 151 152 153
f 154 155 156
f 157 158 159
f 160 161 162
f 163 164 165
f 166 167 168
f 169 170 171
f 172 173 174
f 175 176 177
f 178 179 180
f 181 182 183
f 184 185 186
f 187 188 189
f 190 191 192
f 193 194 195
f 196 197 198
f 199 200 201
f 202 203 204
f 205 206 207
f 208 209 210
f 211 212 213
f 214 215 216
f 217 218 219
f 220 221 222
f 223 224 225
f 226 227 228
f 229 230 231
f 232 233 234
f 235 236 237
f 238 239 240
f 241 242 243
f 244 245 246
f 247 248 249
f 250 251 252
f 253 254 255
f 256 257 258
f 259 260 261
f 262 263 264
f 265 266 267
f 268 269 270
f 271 272 273
f 274 275 276
f 277 278 279
f 280 281 282
f 283 284 285
f 286 287 288
f 289 290 291
f 292 293 294
f 295 296 297
f 298 299 300
f 301 302 303
f 304 305 306
f 307 308 309
f 310 311 312
f 313 314 315
f 316 317 318
f 319 320 321
f 322 323 324
f 325 326 327
f 328 329 330
f 331 332 333
f 334 335 336
f 337 338 339
f 340 341 342
f 343 344 345
f 346 347 348
f 349 350 351
f 352 353 354
f 355 356 357
f 358 359 360
f 361 362 363
f 364 365 366
f 367 368 369
f 370 371 372
f 373 374 375
f 376 377 378
f 379 380 381
f 382 383 384
f 385 386 387
f 388 389 390
f 391 392 393
f 394 395 396
f 397 398 399
f 400 401 402
f 403 404 405
f 406 407 408
f 409 410 411
f 412 413 414
f 415 416 417
f 418 419 420
f 421 422 423
f 424 425 426
f 427 428 429
f 430 431 432
f 433 434 435
f 436 437 438
f 439 440 441
f 442 443 444
f 445 446 447
f 448 449 450
f 451 452 453
f 454 455 456
f 457 458 459
f 460 461 462
f 463 464 465
f 466 467 468
f 469 470 471
f 472 473 474
f 475 476 477
f 478 479 480
f 481 482 483
f 484 485 486
f 487 488 489
f 490 491 492
f 493 494 495
f 496 497 498
f 499 500 501
f 502 503 504
f 505 506 507
f 508 509 510
f 511 512 513
f 514 515 516
f 517 518 519
f 520 521 522
f 523 524 525
f 526 527 528
f 529 530 531
f 532 533 534
f 535 536 537
f 538 539 540
f 541 542 543
f 544 545 546
f 547 548 549
f 550 551 552
f 553 554 555
f 556 557 558
f 559 560 561
f 562 563 564
f 565 566 567
f 568 569 570
f 571 572 573
f 574 575 576
