g groupNumber_0
v 0.0973 0.0086 -0.2502
v 0.0973 0.0121 -0.2502
v 0.0972 0.0170 -0.2502
v 0.0970 0.0219 -0.2502
v 0.0966 0.0267 -0.2502
v 0.0961 0.0315 -0.2502
v 0.0953 0.0362 -0.2502
v 0.0944 0.0408 -0.2502
v 0.0934 0.0454 -0.2502
v 0.0921 0.0499 -0.2502
v 0.0907 0.0543 -0.2502
v 0.0891 0.0586 -0.2502
v 0.0874 0.0628 -0.2502
v 0.0854 0.0669 -0.2502
v 0.0833 0.0708 -0.2502
v 0.0809 0.0745 -0.2502
v 0.0784 0.0781 -0.2502
v 0.0757 0.0815 -0.2502
v 0.0734 0.0842 -0.2502
v 0.0710 0.0868 -0.2502
v 0.0685 0.0894 -0.2502
v 0.0660 0.0918 -0.2502
v 0.0634 0.0942 -0.2502
v 0.0608 0.0965 -0.2502
v 0.0582 0.0987 -0.2502
v 0.0555 0.1009 -0.2502
v 0.0527 0.1029 -0.2502
v 0.0499 0.1049 -0.2502
v 0.0471 0.1068 -0.2502
v 0.0443 0.1086 -0.2502
v 0.0414 0.1103 -0.2502
v 0.0385 0.1120 -0.2502
v 0.0355 0.1135 -0.2502
v 0.0325 0.1150 -0.2502
v 0.0295 0.1164 -0.2502
v 0.0265 0.1177 -0.2502
v 0.0235 0.1189 -0.2502
v 0.0204 0.1200 -0.2502
v 0.0173 0.1210 -0.2502
v 0.0142 0.1220 -0.2502
v 0.0110 0.1228 -0.2502
v 0.0079 0.1236 -0.2502
v 0.0048 0.1243 -0.2502
v 0.0016 0.1249 -0.2502
v -0.0016 0.1254 -0.2502
v -0.0048 0.1258 -0.2502
v -0.0079 0.1261 -0.2502
v -0.0111 0.1263 -0.2502
v -0.0143 0.1265 -0.2502
v -0.0175 0.1265 -0.2502
v -0.0198 0.1265 -0.2502
v -0.0222 0.1264 -0.2502
v -0.0245 0.1263 -0.2502
v -0.0268 0.1261 -0.2502
v -0.0291 0.1259 -0.2502
v -0.0315 0.1256 -0.2502
v -0.0338 0.1253 -0.2502
v -0.0361 0.1249 -0.2502
v -0.0384 0.1245 -0.2502
v -0.0407 0.1240 -0.2502
v -0.0429 0.1235 -0.2502
v -0.0452 0.1229 -0.2502
v -0.0475 0.1223 -0.2502
v -0.0497 0.1216 -0.2502
v -0.0519 0.1209 -0.2502
v -0.0542 0.1201 -0.2502
v -0.0564 0.1192 -0.2502
v -0.0586 0.1183 -0.2502
v -0.0608 0.1174 -0.2502
v -0.0629 0.1164 -0.2502
v -0.0651 0.1153 -0.2502
v -0.0672 0.1142 -0.2502
v -0.0693 0.1131 -0.2502
v -0.0714 0.1119 -0.2502
v -0.0735 0.1106 -0.2502
v -0.0756 0.1093 -0.2502
v -0.0776 0.1079 -0.2502
v -0.0796 0.1065 -0.2502
v -0.0816 0.1050 -0.2502
v -0.0836 0.1035 -0.2502
v -0.0855 0.1019 -0.2502
v -0.0875 0.1002 -0.2502
v -0.0900 0.0979 -0.2502
v -0.0925 0.0956 -0.2502
v -0.0949 0.0932 -0.2502
v -0.0971 0.0908 -0.2502
v -0.0993 0.0884 -0.2502
v -0.1014 0.0859 -0.2502
v -0.1034 0.0834 -0.2502
v -0.1054 0.0808 -0.2502
v -0.1072 0.0782 -0.2502
v -0.1090 0.0756 -0.2502
v -0.1106 0.0729 -0.2502
v -0.1122 0.0702 -0.2502
v -0.1137 0.0675 -0.2502
v -0.1151 0.0647 -0.2502
v -0.1165 0.0619 -0.2502
v -0.1177 0.0591 -0.2502
v -0.1189 0.0562 -0.2502
v -0.1200 0.0533 -0.2502
v -0.1210 0.0504 -0.2502
v -0.1219 0.0474 -0.2502
v -0.1228 0.0445 -0.2502
v -0.1235 0.0414 -0.2502
v -0.1242 0.0384 -0.2502
v -0.1248 0.0353 -0.2502
v -0.1254 0.0322 -0.2502
v -0.1259 0.0290 -0.2502
v -0.1263 0.0259 -0.2502
v -0.1266 0.0227 -0.2502
v -0.1268 0.0194 -0.2502
v -0.1270 0.0162 -0.2502
v -0.1271 0.0129 -0.2502
v -0.1271 0.0096 -0.2502
v -0.1271 0.0044 -0.2502
v -0.1268 -0.0009 -0.2502
v -0.1264 -0.0062 -0.2502
v -0.1258 -0.0116 -0.2502
v -0.1254 -0.0144 -0.2502
v -0.1249 -0.0172 -0.2502
v -0.1242 -0.0201 -0.2502
v -0.1235 -0.0230 -0.2502
v -0.1226 -0.0259 -0.2502
v -0.1216 -0.0288 -0.2502
v -0.1205 -0.0318 -0.2502
v -0.1193 -0.0347 -0.2502
v -0.1180 -0.0377 -0.2502
v -0.1166 -0.0406 -0.2502
v -0.1150 -0.0436 -0.2502
v -0.1134 -0.0465 -0.2502
v -0.1117 -0.0495 -0.2502
v -0.1098 -0.0524 -0.2502
v -0.1079 -0.0552 -0.2502
v -0.1059 -0.0581 -0.2502
v -0.1038 -0.0609 -0.2502
v -0.1016 -0.0637 -0.2502
v -0.0993 -0.0664 -0.2502
v -0.0969 -0.0691 -0.2502
v -0.0944 -0.0717 -0.2502
v -0.0919 -0.0743 -0.2502
v -0.0893 -0.0768 -0.2502
v -0.0866 -0.0792 -0.2502
v -0.0838 -0.0816 -0.2502
v -0.0809 -0.0839 -0.2502
v -0.0780 -0.0861 -0.2502
v -0.0750 -0.0882 -0.2502
v -0.0720 -0.0902 -0.2502
v -0.0688 -0.0922 -0.2502
v -0.0656 -0.0940 -0.2502
v -0.0624 -0.0957 -0.2502
v -0.0596 -0.0971 -0.2502
v -0.0568 -0.0984 -0.2502
v -0.0539 -0.0996 -0.2502
v -0.0510 -0.1006 -0.2502
v -0.0482 -0.1016 -0.2502
v -0.0453 -0.1026 -0.2502
v -0.0423 -0.1034 -0.2502
v -0.0394 -0.1041 -0.2502
v -0.0365 -0.1047 -0.2502
v -0.0335 -0.1053 -0.2502
v -0.0306 -0.1057 -0.2502
v -0.0277 -0.1061 -0.2502
v -0.0247 -0.1064 -0.2502
v -0.0217 -0.1066 -0.2502
v -0.0188 -0.1067 -0.2502
v -0.0158 -0.1068 -0.2502
v -0.0134 -0.1068 -0.2502
v -0.0110 -0.1067 -0.2502
v -0.0087 -0.1066 -0.2502
v -0.0063 -0.1064 -0.2502
v -0.0039 -0.1061 -0.2502
v -0.0015 -0.1058 -0.2502
v 0.0008 -0.1055 -0.2502
v 0.0032 -0.1051 -0.2502
v 0.0055 -0.1047 -0.2502
v 0.0079 -0.1042 -0.2502
v 0.0102 -0.1036 -0.2502
v 0.0125 -0.1030 -0.2502
v 0.0148 -0.1024 -0.2502
v 0.0171 -0.1017 -0.2502
v 0.0193 -0.1010 -0.2502
v 0.0216 -0.1002 -0.2502
v 0.0238 -0.0994 -0.2502
v 0.0261 -0.0985 -0.2502
v 0.0283 -0.0976 -0.2502
v 0.0304 -0.0966 -0.2502
v 0.0326 -0.0956 -0.2502
v 0.0348 -0.0946 -0.2502
v 0.0369 -0.0935 -0.2502
v 0.0390 -0.0923 -0.2502
v 0.0411 -0.0911 -0.2502
v 0.0431 -0.0899 -0.2502
v 0.0451 -0.0886 -0.2502
v 0.0471 -0.0873 -0.2502
v 0.0491 -0.0860 -0.2502
v 0.0511 -0.0846 -0.2502
v 0.0530 -0.0832 -0.2502
v 0.0549 -0.0817 -0.2502
v 0.0567 -0.0802 -0.2502
v 0.0586 -0.0786 -0.2502
v 0.0604 -0.0770 -0.2502
v 0.0621 -0.0754 -0.2502
v 0.0639 -0.0737 -0.2502
v 0.0656 -0.0720 -0.2502
v 0.0672 -0.0703 -0.2502
v 0.0688 -0.0685 -0.2502
v 0.0704 -0.0667 -0.2502
v 0.0720 -0.0649 -0.2502
v 0.0735 -0.0630 -0.2502
v 0.0750 -0.0611 -0.2502
v 0.0764 -0.0591 -0.2502
v 0.0778 -0.0571 -0.2502
v 0.0791 -0.0551 -0.2502
v 0.0804 -0.0531 -0.2502
v 0.0817 -0.0510 -0.2502
v 0.0829 -0.0489 -0.2502
v 0.0841 -0.0467 -0.2502
v 0.0852 -0.0446 -0.2502
v 0.0863 -0.0424 -0.2502
v 0.0873 -0.0401 -0.2502
v 0.0883 -0.0379 -0.2502
v 0.0892 -0.0356 -0.2502
v 0.0901 -0.0333 -0.2502
v 0.0909 -0.0309 -0.2502
v 0.0917 -0.0285 -0.2502
v 0.0924 -0.0261 -0.2502
v 0.0931 -0.0237 -0.2502
v 0.0937 -0.0212 -0.2502
v 0.0942 -0.0188 -0.2502
v 0.0947 -0.0162 -0.2502
v 0.0953 -0.0128 -0.2502
v 0.0958 -0.0093 -0.2502
v 0.0963 -0.0057 -0.2502
v 0.0967 -0.0022 -0.2502
v 0.0970 0.0014 -0.2502
v 0.0972 0.0050 -0.2502
v 0.0973 0.0086 0.2502
v 0.0973 0.0121 0.2502
v 0.0972 0.0170 0.2502
v 0.0970 0.0219 0.2502
v 0.0966 0.0267 0.2502
v 0.0961 0.0315 0.2502
v 0.0953 0.0362 0.2502
v 0.0944 0.0408 0.2502
v 0.0934 0.0454 0.2502
v 0.0921 0.0499 0.2502
v 0.0907 0.0543 0.2502
v 0.0891 0.0586 0.2502
v 0.0874 0.0628 0.2502
v 0.0854 0.0669 0.2502
v 0.0833 0.0708 0.2502
v 0.0809 0.0745 0.2502
v 0.0784 0.0781 0.2502
v 0.0757 0.0815 0.2502
v 0.0734 0.0842 0.2502
v 0.0710 0.0868 0.2502
v 0.0685 0.0894 0.2502
v 0.0660 0.0918 0.2502
v 0.0634 0.0942 0.2502
v 0.0608 0.0965 0.2502
v 0.0582 0.0987 0.2502
v 0.0555 0.1009 0.2502
v 0.0527 0.1029 0.2502
v 0.0499 0.1049 0.2502
v 0.0471 0.1068 0.2502
v 0.0443 0.1086 0.2502
v 0.0414 0.1103 0.2502
v 0.0385 0.1120 0.2502
v 0.0355 0.1135 0.2502
v 0.0325 0.1150 0.2502
v 0.0295 0.1164 0.2502
v 0.0265 0.1177 0.2502
v 0.0235 0.1189 0.2502
v 0.0204 0.1200 0.2502
v 0.0173 0.1210 0.2502
v 0.0142 0.1220 0.2502
v 0.0110 0.1228 0.2502
v 0.0079 0.1236 0.2502
v 0.0048 0.1243 0.2502
v 0.0016 0.1249 0.2502
v -0.0016 0.1254 0.2502
v -0.0048 0.1258 0.2502
v -0.0079 0.1261 0.2502
v -0.0111 0.1263 0.2502
v -0.0143 0.1265 0.2502
v -0.0175 0.1265 0.2502
v -0.0198 0.1265 0.2502
v -0.0222 0.1264 0.2502
v -0.0245 0.1263 0.2502
v -0.0268 0.1261 0.2502
v -0.0291 0.1259 0.2502
v -0.0315 0.1256 0.2502
v -0.0338 0.1253 0.2502
v -0.0361 0.1249 0.2502
v -0.0384 0.1245 0.2502
v -0.0407 0.1240 0.2502
v -0.0429 0.1235 0.2502
v -0.0452 0.1229 0.2502
v -0.0475 0.1223 0.2502
v -0.0497 0.1216 0.2502
v -0.0519 0.1209 0.2502
v -0.0542 0.1201 0.2502
v -0.0564 0.1192 0.2502
v -0.0586 0.1183 0.2502
v -0.0608 0.1174 0.2502
v -0.0629 0.1164 0.2502
v -0.0651 0.1153 0.2502
v -0.0672 0.1142 0.2502
v -0.0693 0.1131 0.2502
v -0.0714 0.1119 0.2502
v -0.0735 0.1106 0.2502
v -0.0756 0.1093 0.2502
v -0.0776 0.1079 0.2502
v -0.0796 0.1065 0.2502
v -0.0816 0.1050 0.2502
v -0.0836 0.1035 0.2502
v -0.0855 0.1019 0.2502
v -0.0875 0.1002 0.2502
v -0.0900 0.0979 0.2502
v -0.0925 0.0956 0.2502
v -0.0949 0.0932 0.2502
v -0.0971 0.0908 0.2502
v -0.0993 0.0884 0.2502
v -0.1014 0.0859 0.2502
v -0.1034 0.0834 0.2502
v -0.1054 0.0808 0.2502
v -0.1072 0.0782 0.2502
v -0.1090 0.0756 0.2502
v -0.1106 0.0729 0.2502
v -0.1122 0.0702 0.2502
v -0.1137 0.0675 0.2502
v -0.1151 0.0647 0.2502
v -0.1165 0.0619 0.2502
v -0.1177 0.0591 0.2502
v -0.1189 0.0562 0.2502
v -0.1200 0.0533 0.2502
v -0.1210 0.0504 0.2502
v -0.1219 0.0474 0.2502
v -0.1228 0.0445 0.2502
v -0.1235 0.0414 0.2502
v -0.1242 0.0384 0.2502
v -0.1248 0.0353 0.2502
v -0.1254 0.0322 0.2502
v -0.1259 0.0290 0.2502
v -0.1263 0.0259 0.2502
v -0.1266 0.0227 0.2502
v -0.1268 0.0194 0.2502
v -0.1270 0.0162 0.2502
v -0.1271 0.0129 0.2502
v -0.1271 0.0096 0.2502
v -0.1271 0.0044 0.2502
v -0.1268 -0.0009 0.2502
v -0.1264 -0.0062 0.2502
v -0.1258 -0.0116 0.2502
v -0.1254 -0.0144 0.2502
v -0.1249 -0.0172 0.2502
v -0.1242 -0.0201 0.2502
v -0.1235 -0.0230 0.2502
v -0.1226 -0.0259 0.2502
v -0.1216 -0.0288 0.2502
v -0.1205 -0.0318 0.2502
v -0.1193 -0.0347 0.2502
v -0.1180 -0.0377 0.2502
v -0.1166 -0.0406 0.2502
v -0.1150 -0.0436 0.2502
v -0.1134 -0.0465 0.2502
v -0.1117 -0.0495 0.2502
v -0.1098 -0.0524 0.2502
v -0.1079 -0.0552 0.2502
v -0.1059 -0.0581 0.2502
v -0.1038 -0.0609 0.2502
v -0.1016 -0.0637 0.2502
v -0.0993 -0.0664 0.2502
v -0.0969 -0.0691 0.2502
v -0.0944 -0.0717 0.2502
v -0.0919 -0.0743 0.2502
v -0.0893 -0.0768 0.2502
v -0.0866 -0.0792 0.2502
v -0.0838 -0.0816 0.2502
v -0.0809 -0.0839 0.2502
v -0.0780 -0.0861 0.2502
v -0.0750 -0.0882 0.2502
v -0.0720 -0.0902 0.2502
v -0.0688 -0.0922 0.2502
v -0.0656 -0.0940 0.2502
v -0.0624 -0.0957 0.2502
v -0.0596 -0.0971 0.2502
v -0.0568 -0.0984 0.2502
v -0.0539 -0.0996 0.2502
v -0.0510 -0.1006 0.2502
v -0.0482 -0.1016 0.2502
v -0.0453 -0.1026 0.2502
v -0.0423 -0.1034 0.2502
v -0.0394 -0.1041 0.2502
v -0.0365 -0.1047 0.2502
v -0.0335 -0.1053 0.2502
v -0.0306 -0.1057 0.2502
v -0.0277 -0.1061 0.2502
v -0.0247 -0.1064 0.2502
v -0.0217 -0.1066 0.2502
v -0.0188 -0.1067 0.2502
v -0.0158 -0.1068 0.2502
v -0.0134 -0.1068 0.2502
v -0.0110 -0.1067 0.2502
v -0.0087 -0.1066 0.2502
v -0.0063 -0.1064 0.2502
v -0.0039 -0.1061 0.2502
v -0.0015 -0.1058 0.2502
v 0.0008 -0.1055 0.2502
v 0.0032 -0.1051 0.2502
v 0.0055 -0.1047 0.2502
v 0.0079 -0.1042 0.2502
v 0.0102 -0.1036 0.2502
v 0.0125 -0.1030 0.2502
v 0.0148 -0.1024 0.2502
v 0.0171 -0.1017 0.2502
v 0.0193 -0.1010 0.2502
v 0.0216 -0.1002 0.2502
v 0.0238 -0.0994 0.2502
v 0.0261 -0.0985 0.2502
v 0.0283 -0.0976 0.2502
v 0.0304 -0.0966 0.2502
v 0.0326 -0.0956 0.2502
v 0.0348 -0.0946 0.2502
v 0.0369 -0.0935 0.2502
v 0.0390 -0.0923 0.2502
v 0.0411 -0.0911 0.2502
v 0.0431 -0.0899 0.2502
v 0.0451 -0.0886 0.2502
v 0.0471 -0.0873 0.2502
v 0.0491 -0.0860 0.2502
v 0.0511 -0.0846 0.2502
v 0.0530 -0.0832 0.2502
v 0.0549 -0.0817 0.2502
v 0.0567 -0.0802 0.2502
v 0.0586 -0.0786 0.2502
v 0.0604 -0.0770 0.2502
v 0.0621 -0.0754 0.2502
v 0.0639 -0.0737 0.2502
v 0.0656 -0.0720 0.2502
v 0.0672 -0.0703 0.2502
v 0.0688 -0.0685 0.2502
v 0.0704 -0.0667 0.2502
v 0.0720 -0.0649 0.2502
v 0.0735 -0.0630 0.2502
v 0.0750 -0.0611 0.2502
v 0.0764 -0.0591 0.2502
v 0.0778 -0.0571 0.2502
v 0.0791 -0.0551 0.2502
v 0.0804 -0.0531 0.2502
v 0.0817 -0.0510 0.2502
v 0.0829 -0.0489 0.2502
v 0.0841 -0.0467 0.2502
v 0.0852 -0.0446 0.2502
v 0.0863 -0.0424 0.2502
v 0.0873 -0.0401 0.2502
v 0.0883 -0.0379 0.2502
v 0.0892 -0.0356 0.2502
v 0.0901 -0.0333 0.2502
v 0.0909 -0.0309 0.2502
v 0.0917 -0.0285 0.2502
v 0.0924 -0.0261 0.2502
v 0.0931 -0.0237 0.2502
v 0.0937 -0.0212 0.2502
v 0.0942 -0.0188 0.2502
v 0.0947 -0.0162 0.2502
v 0.0953 -0.0128 0.2502
v 0.0958 -0.0093 0.2502
v 0.0963 -0.0057 0.2502
v 0.0967 -0.0022 0.2502
v 0.0970 0.0014 0.2502
v 0.0972 0.0050 0.2502
v 0.0973 0.0104 0.0000
v 0.0973 0.0146 0.0000
v 0.0971 0.0194 0.0000
v 0.0968 0.0243 0.0000
v 0.0963 0.0291 0.0000
v 0.0957 0.0338 0.0000
v 0.0949 0.0385 0.0000
v 0.0939 0.0431 0.0000
v 0.0928 0.0477 0.0000
v 0.0914 0.0521 0.0000
v 0.0899 0.0565 0.0000
v 0.0882 0.0607 0.0000
v 0.0864 0.0648 0.0000
v 0.0843 0.0688 0.0000
v 0.0821 0.0726 0.0000
v 0.0797 0.0763 0.0000
v 0.0771 0.0798 0.0000
v 0.0745 0.0828 0.0000
v 0.0722 0.0855 0.0000
v 0.0697 0.0881 0.0000
v 0.0672 0.0906 0.0000
v 0.0647 0.0930 0.0000
v 0.0621 0.0954 0.0000
v 0.0595 0.0976 0.0000
v 0.0568 0.0998 0.0000
v 0.0541 0.1019 0.0000
v 0.0513 0.1039 0.0000
v 0.0485 0.1059 0.0000
v 0.0457 0.1077 0.0000
v 0.0428 0.1095 0.0000
v 0.0399 0.1112 0.0000
v 0.0370 0.1127 0.0000
v 0.0340 0.1143 0.0000
v 0.0310 0.1157 0.0000
v 0.0280 0.1170 0.0000
v 0.0250 0.1183 0.0000
v 0.0219 0.1194 0.0000
v 0.0188 0.1205 0.0000
v 0.0157 0.1215 0.0000
v 0.0126 0.1224 0.0000
v 0.0095 0.1232 0.0000
v 0.0063 0.1240 0.0000
v 0.0032 0.1246 0.0000
v 0.0000 0.1251 0.0000
v -0.0032 0.1256 0.0000
v -0.0063 0.1260 0.0000
v -0.0095 0.1262 0.0000
v -0.0127 0.1264 0.0000
v -0.0159 0.1265 0.0000
v -0.0187 0.1265 0.0000
v -0.0210 0.1265 0.0000
v -0.0233 0.1264 0.0000
v -0.0257 0.1262 0.0000
v -0.0280 0.1260 0.0000
v -0.0303 0.1258 0.0000
v -0.0326 0.1255 0.0000
v -0.0349 0.1251 0.0000
v -0.0372 0.1247 0.0000
v -0.0395 0.1243 0.0000
v -0.0418 0.1238 0.0000
v -0.0441 0.1232 0.0000
v -0.0463 0.1226 0.0000
v -0.0486 0.1219 0.0000
v -0.0508 0.1212 0.0000
v -0.0531 0.1205 0.0000
v -0.0553 0.1196 0.0000
v -0.0575 0.1188 0.0000
v -0.0597 0.1179 0.0000
v -0.0618 0.1169 0.0000
v -0.0640 0.1159 0.0000
v -0.0661 0.1148 0.0000
v -0.0683 0.1137 0.0000
v -0.0704 0.1125 0.0000
v -0.0725 0.1112 0.0000
v -0.0745 0.1099 0.0000
v -0.0766 0.1086 0.0000
v -0.0786 0.1072 0.0000
v -0.0806 0.1057 0.0000
v -0.0826 0.1042 0.0000
v -0.0846 0.1027 0.0000
v -0.0865 0.1011 0.0000
v -0.0888 0.0991 0.0000
v -0.0913 0.0968 0.0000
v -0.0937 0.0944 0.0000
v -0.0960 0.0920 0.0000
v -0.0982 0.0896 0.0000
v -0.1004 0.0871 0.0000
v -0.1024 0.0846 0.0000
v -0.1044 0.0821 0.0000
v -0.1063 0.0795 0.0000
v -0.1081 0.0769 0.0000
v -0.1098 0.0743 0.0000
v -0.1114 0.0716 0.0000
v -0.1130 0.0689 0.0000
v -0.1144 0.0661 0.0000
v -0.1158 0.0633 0.0000
v -0.1171 0.0605 0.0000
v -0.1183 0.0577 0.0000
v -0.1194 0.0548 0.0000
v -0.1205 0.0519 0.0000
v -0.1214 0.0489 0.0000
v -0.1223 0.0460 0.0000
v -0.1231 0.0429 0.0000
v -0.1239 0.0399 0.0000
v -0.1245 0.0368 0.0000
v -0.1251 0.0337 0.0000
v -0.1256 0.0306 0.0000
v -0.1261 0.0275 0.0000
v -0.1264 0.0243 0.0000
v -0.1267 0.0211 0.0000
v -0.1269 0.0178 0.0000
v -0.1271 0.0146 0.0000
v -0.1271 0.0113 0.0000
v -0.1271 0.0070 0.0000
v -0.1269 0.0018 0.0000
v -0.1266 -0.0035 0.0000
v -0.1261 -0.0089 0.0000
v -0.1256 -0.0130 0.0000
v -0.1252 -0.0158 0.0000
v -0.1246 -0.0186 0.0000
v -0.1239 -0.0215 0.0000
v -0.1231 -0.0244 0.0000
v -0.1221 -0.0273 0.0000
v -0.1211 -0.0303 0.0000
v -0.1199 -0.0332 0.0000
v -0.1187 -0.0362 0.0000
v -0.1173 -0.0392 0.0000
v -0.1158 -0.0421 0.0000
v -0.1142 -0.0451 0.0000
v -0.1125 -0.0480 0.0000
v -0.1108 -0.0509 0.0000
v -0.1089 -0.0538 0.0000
v -0.1069 -0.0567 0.0000
v -0.1048 -0.0595 0.0000
v -0.1027 -0.0623 0.0000
v -0.1004 -0.0650 0.0000
v -0.0981 -0.0677 0.0000
v -0.0957 -0.0704 0.0000
v -0.0932 -0.0730 0.0000
v -0.0906 -0.0755 0.0000
v -0.0879 -0.0780 0.0000
v -0.0852 -0.0804 0.0000
v -0.0824 -0.0827 0.0000
v -0.0795 -0.0850 0.0000
v -0.0765 -0.0872 0.0000
v -0.0735 -0.0892 0.0000
v -0.0704 -0.0912 0.0000
v -0.0672 -0.0931 0.0000
v -0.0640 -0.0949 0.0000
v -0.0610 -0.0964 0.0000
v -0.0582 -0.0977 0.0000
v -0.0553 -0.0990 0.0000
v -0.0525 -0.1001 0.0000
v -0.0496 -0.1011 0.0000
v -0.0467 -0.1021 0.0000
v -0.0438 -0.1030 0.0000
v -0.0409 -0.1037 0.0000
v -0.0380 -0.1044 0.0000
v -0.0350 -0.1050 0.0000
v -0.0321 -0.1055 0.0000
v -0.0291 -0.1059 0.0000
v -0.0262 -0.1063 0.0000
v -0.0232 -0.1065 0.0000
v -0.0203 -0.1067 0.0000
v -0.0173 -0.1068 0.0000
v -0.0146 -0.1068 0.0000
v -0.0122 -0.1067 0.0000
v -0.0099 -0.1066 0.0000
v -0.0075 -0.1065 0.0000
v -0.0051 -0.1062 0.0000
v -0.0027 -0.1060 0.0000
v -0.0004 -0.1057 0.0000
v 0.0020 -0.1053 0.0000
v 0.0043 -0.1049 0.0000
v 0.0067 -0.1044 0.0000
v 0.0090 -0.1039 0.0000
v 0.0113 -0.1033 0.0000
v 0.0136 -0.1027 0.0000
v 0.0159 -0.1021 0.0000
v 0.0182 -0.1014 0.0000
v 0.0205 -0.1006 0.0000
v 0.0227 -0.0998 0.0000
v 0.0249 -0.0989 0.0000
v 0.0272 -0.0980 0.0000
v 0.0293 -0.0971 0.0000
v 0.0315 -0.0961 0.0000
v 0.0337 -0.0951 0.0000
v 0.0358 -0.0940 0.0000
v 0.0379 -0.0929 0.0000
v 0.0400 -0.0917 0.0000
v 0.0421 -0.0905 0.0000
v 0.0441 -0.0893 0.0000
v 0.0461 -0.0880 0.0000
v 0.0481 -0.0867 0.0000
v 0.0501 -0.0853 0.0000
v 0.0520 -0.0839 0.0000
v 0.0539 -0.0824 0.0000
v 0.0558 -0.0809 0.0000
v 0.0577 -0.0794 0.0000
v 0.0595 -0.0778 0.0000
v 0.0612 -0.0762 0.0000
v 0.0630 -0.0746 0.0000
v 0.0647 -0.0729 0.0000
v 0.0664 -0.0712 0.0000
v 0.0680 -0.0694 0.0000
v 0.0696 -0.0676 0.0000
v 0.0712 -0.0658 0.0000
v 0.0727 -0.0639 0.0000
v 0.0742 -0.0620 0.0000
v 0.0757 -0.0601 0.0000
v 0.0771 -0.0581 0.0000
v 0.0785 -0.0561 0.0000
v 0.0798 -0.0541 0.0000
v 0.0811 -0.0520 0.0000
v 0.0823 -0.0499 0.0000
v 0.0835 -0.0478 0.0000
v 0.0846 -0.0457 0.0000
v 0.0857 -0.0435 0.0000
v 0.0868 -0.0412 0.0000
v 0.0878 -0.0390 0.0000
v 0.0888 -0.0367 0.0000
v 0.0897 -0.0344 0.0000
v 0.0905 -0.0321 0.0000
v 0.0913 -0.0297 0.0000
v 0.0920 -0.0273 0.0000
v 0.0927 -0.0249 0.0000
v 0.0934 -0.0225 0.0000
v 0.0940 -0.0200 0.0000
v 0.0945 -0.0175 0.0000
v 0.0950 -0.0145 0.0000
v 0.0956 -0.0110 0.0000
v 0.0961 -0.0075 0.0000
v 0.0965 -0.0039 0.0000
v 0.0968 -0.0004 0.0000
v 0.0971 0.0032 0.0000
v 0.0972 0.0068 0.0000
f 363 353 362
f 364 353 363
f 354 359 360
f 354 360 361
f 362 353 361
f 353 364 365
f 352 369 370
f 351 370 371
f 352 366 367
f 367 368 352
f 352 368 369
f 353 365 366
f 469 351 371
f 237 348 349
f 370 351 352
f 346 347 238
f 345 346 239
f 347 348 238
f 353 366 352
f 354 355 356
f 354 356 357
f 354 357 358
f 353 354 361
f 471 350 351
f 344 345 268
f 359 354 358
f 344 269 343
f 372 469 371
f 390 392 393
f 389 393 394
f 390 393 389
f 391 392 390
f 389 394 388
f 394 395 388
f 386 398 399
f 385 399 400
f 385 400 401
f 387 395 396
f 396 397 386
f 386 397 398
f 395 387 388
f 385 401 402
f 421 378 379
f 377 378 424
f 375 376 432
f 376 377 428
f 374 375 468
f 418 379 380
f 386 399 385
f 387 396 386
f 385 403 384
f 383 409 382
f 384 406 383
f 382 412 381
f 415 380 381
f 468 373 374
f 373 469 372
f 472 349 350
f 322 323 275
f 274 338 339
f 338 324 337
f 337 325 336
f 324 338 274
f 273 339 340
f 333 334 328
f 335 327 334
f 330 332 329
f 330 331 332
f 329 332 333
f 326 335 336
f 340 341 273
f 333 328 329
f 334 327 328
f 335 326 327
f 336 325 326
f 324 325 337
f 274 323 324
f 321 322 276
f 280 319 320
f 321 278 320
f 286 316 317
f 288 315 316
f 285 318 284
f 283 318 319
f 318 285 317
f 341 342 272
f 294 310 311
f 311 312 293
f 309 296 308
f 308 298 307
f 310 295 309
f 292 312 313
f 300 305 306
f 301 304 305
f 300 306 299
f 303 304 302
f 302 304 301
f 305 300 301
f 299 306 307
f 313 314 290
f 307 298 299
f 308 297 298
f 308 296 297
f 309 295 296
f 294 295 310
f 293 294 311
f 312 292 293
f 313 291 292
f 291 313 290
f 289 290 314
f 289 314 315
f 315 288 289
f 288 316 287
f 286 287 316
f 317 285 286
f 271 342 343
f 385 402 403
f 404 405 384
f 405 406 384
f 408 383 407
f 383 408 409
f 406 407 383
f 409 410 382
f 412 382 411
f 413 381 412
f 381 414 415
f 415 416 380
f 414 381 413
f 410 411 382
f 416 417 380
f 419 379 418
f 420 379 419
f 422 378 421
f 378 422 423
f 421 379 420
f 378 423 424
f 425 426 377
f 427 377 426
f 427 428 377
f 430 376 429
f 430 431 376
f 376 428 429
f 377 424 425
f 418 380 417
f 376 431 432
f 433 434 375
f 375 434 467
f 435 436 467
f 437 467 436
f 435 467 434
f 467 437 438
f 439 440 467
f 441 467 440
f 467 441 442
f 444 466 443
f 466 444 445
f 467 442 443
f 467 438 439
f 446 466 445
f 447 448 466
f 448 449 466
f 451 466 450
f 466 451 452
f 466 449 450
f 452 453 466
f 455 466 454
f 466 455 456
f 456 457 465
f 463 458 459
f 459 460 462
f 457 458 464
f 453 454 466
f 446 447 466
f 375 432 433
f 461 462 460
f 240 263 264
f 264 265 240
f 267 268 345
f 267 239 266
f 265 266 239
f 241 262 263
f 257 258 244
f 259 243 258
f 241 261 262
f 242 260 261
f 260 243 259
f 246 256 257
f 269 344 268
f 320 279 280
f 280 281 319
f 284 318 283
f 283 319 282
f 281 282 319
f 320 278 279
f 273 341 272
f 271 272 342
f 273 274 339
f 277 321 276
f 276 322 275
f 274 275 323
f 271 343 270
f 343 269 270
f 321 277 278
f 463 464 458
f 464 465 457
f 467 443 466
f 469 373 468
f 465 466 456
f 351 469 470
f 350 471 472
f 349 472 237
f 348 237 238
f 240 265 239
f 345 239 267
f 346 238 239
f 470 471 351
f 263 240 241
f 250 255 249
f 254 250 251
f 255 250 254
f 252 253 254
f 251 252 254
f 249 255 248
f 257 244 245
f 244 258 243
f 246 257 245
f 248 255 247
f 255 256 247
f 247 256 246
f 260 242 243
f 241 242 261
f 468 375 467
f 462 463 459
f 403 404 384
f 117 127 126
f 117 128 127
f 123 118 124
f 124 118 125
f 117 126 125
f 128 117 129
f 133 116 134
f 134 115 135
f 130 116 131
f 132 131 116
f 132 116 133
f 129 117 130
f 115 233 135
f 112 1 113
f 115 134 116
f 111 110 2
f 110 109 3
f 112 111 2
f 130 117 116
f 119 118 120
f 120 118 121
f 121 118 122
f 118 117 125
f 114 235 115
f 109 108 32
f 118 123 122
f 33 108 107
f 233 136 135
f 156 154 157
f 157 153 158
f 157 154 153
f 156 155 154
f 158 153 152
f 159 158 152
f 162 150 163
f 163 149 164
f 164 149 165
f 159 151 160
f 161 160 150
f 161 150 162
f 151 159 152
f 165 149 166
f 142 185 143
f 142 141 188
f 140 139 196
f 141 140 192
f 139 138 232
f 143 182 144
f 163 150 149
f 160 151 150
f 167 149 148
f 173 147 146
f 170 148 147
f 176 146 145
f 144 179 145
f 137 232 138
f 233 137 136
f 113 236 114
f 87 86 39
f 102 38 103
f 88 102 101
f 89 101 100
f 102 88 38
f 103 37 104
f 98 97 92
f 91 99 98
f 96 94 93
f 95 94 96
f 96 93 97
f 99 90 100
f 105 104 37
f 92 97 93
f 91 98 92
f 90 99 91
f 89 100 90
f 89 88 101
f 87 38 88
f 86 85 40
f 83 44 84
f 42 85 84
f 80 50 81
f 79 52 80
f 82 49 48
f 82 47 83
f 49 82 81
f 106 105 36
f 74 58 75
f 76 75 57
f 60 73 72
f 62 72 71
f 59 74 73
f 76 56 77
f 69 64 70
f 68 65 69
f 70 64 63
f 68 67 66
f 68 66 65
f 64 69 65
f 70 63 71
f 78 77 54
f 62 71 63
f 61 72 62
f 60 72 61
f 59 73 60
f 59 58 74
f 58 57 75
f 56 76 57
f 55 77 56
f 77 55 54
f 54 53 78
f 78 53 79
f 52 79 53
f 80 52 51
f 51 50 80
f 49 81 50
f 106 35 107
f 166 149 167
f 169 168 148
f 170 169 148
f 147 172 171
f 172 147 173
f 171 170 147
f 174 173 146
f 146 176 175
f 145 177 176
f 178 145 179
f 180 179 144
f 145 178 177
f 175 174 146
f 181 180 144
f 143 183 182
f 143 184 183
f 142 186 185
f 186 142 187
f 143 185 184
f 187 142 188
f 190 189 141
f 141 191 190
f 192 191 141
f 140 194 193
f 195 194 140
f 192 140 193
f 188 141 189
f 144 182 181
f 195 140 196
f 198 197 139
f 198 139 231
f 200 199 231
f 231 201 200
f 231 199 198
f 201 231 202
f 204 203 231
f 231 205 204
f 205 231 206
f 230 208 207
f 208 230 209
f 206 231 207
f 202 231 203
f 230 210 209
f 212 211 230
f 213 212 230
f 230 215 214
f 215 230 216
f 213 230 214
f 217 216 230
f 230 219 218
f 219 230 220
f 221 220 229
f 222 227 223
f 224 223 226
f 222 221 228
f 218 217 230
f 211 210 230
f 196 139 197
f 226 225 224
f 27 4 28
f 29 28 4
f 32 31 109
f 3 31 30
f 30 29 3
f 26 5 27
f 22 21 8
f 7 23 22
f 25 5 26
f 24 6 25
f 7 24 23
f 20 10 21
f 108 33 32
f 43 84 44
f 45 44 83
f 82 48 47
f 83 47 46
f 46 45 83
f 42 84 43
f 105 37 36
f 36 35 106
f 38 37 103
f 85 41 40
f 86 40 39
f 39 38 87
f 107 35 34
f 33 107 34
f 41 85 42
f 228 227 222
f 229 228 221
f 207 231 230
f 137 233 232
f 230 229 220
f 233 115 234
f 235 114 236
f 236 113 1
f 1 112 2
f 29 4 3
f 3 109 31
f 2 110 3
f 235 234 115
f 4 27 5
f 19 14 13
f 14 18 15
f 14 19 18
f 17 16 18
f 16 15 18
f 19 13 12
f 8 21 9
f 22 8 7
f 21 10 9
f 19 12 11
f 20 19 11
f 20 11 10
f 6 24 7
f 6 5 25
f 139 232 231
f 227 226 223
f 168 167 148
f 473 1 2
f 473 2 238
f 473 238 237
f 473 237 1
f 474 2 3
f 474 3 239
f 474 239 238
f 474 238 2
f 475 3 4
f 475 4 240
f 475 240 239
f 475 239 3
f 476 4 5
f 476 5 241
f 476 241 240
f 476 240 4
f 477 5 6
f 477 6 242
f 477 242 241
f 477 241 5
f 478 6 7
f 478 7 243
f 478 243 242
f 478 242 6
f 479 7 8
f 479 8 244
f 479 244 243
f 479 243 7
f 480 8 9
f 480 9 245
f 480 245 244
f 480 244 8
f 481 9 10
f 481 10 246
f 481 246 245
f 481 245 9
f 482 10 11
f 482 11 247
f 482 247 246
f 482 246 10
f 483 11 12
f 483 12 248
f 483 248 247
f 483 247 11
f 484 12 13
f 484 13 249
f 484 249 248
f 484 248 12
f 485 13 14
f 485 14 250
f 485 250 249
f 485 249 13
f 486 14 15
f 486 15 251
f 486 251 250
f 486 250 14
f 487 15 16
f 487 16 252
f 487 252 251
f 487 251 15
f 488 16 17
f 488 17 253
f 488 253 252
f 488 252 16
f 489 17 18
f 489 18 254
f 489 254 253
f 489 253 17
f 490 18 19
f 490 19 255
f 490 255 254
f 490 254 18
f 491 19 20
f 491 20 256
f 491 256 255
f 491 255 19
f 492 20 21
f 492 21 257
f 492 257 256
f 492 256 20
f 493 21 22
f 493 22 258
f 493 258 257
f 493 257 21
f 494 22 23
f 494 23 259
f 494 259 258
f 494 258 22
f 495 23 24
f 495 24 260
f 495 260 259
f 495 259 23
f 496 24 25
f 496 25 261
f 496 261 260
f 496 260 24
f 497 25 26
f 497 26 262
f 497 262 261
f 497 261 25
f 498 26 27
f 498 27 263
f 498 263 262
f 498 262 26
f 499 27 28
f 499 28 264
f 499 264 263
f 499 263 27
f 500 28 29
f 500 29 265
f 500 265 264
f 500 264 28
f 501 29 30
f 501 30 266
f 501 266 265
f 501 265 29
f 502 30 31
f 502 31 267
f 502 267 266
f 502 266 30
f 503 31 32
f 503 32 268
f 503 268 267
f 503 267 31
f 504 32 33
f 504 33 269
f 504 269 268
f 504 268 32
f 505 33 34
f 505 34 270
f 505 270 269
f 505 269 33
f 506 34 35
f 506 35 271
f 506 271 270
f 506 270 34
f 507 35 36
f 507 36 272
f 507 272 271
f 507 271 35
f 508 36 37
f 508 37 273
f 508 273 272
f 508 272 36
f 509 37 38
f 509 38 274
f 509 274 273
f 509 273 37
f 510 38 39
f 510 39 275
f 510 275 274
f 510 274 38
f 511 39 40
f 511 40 276
f 511 276 275
f 511 275 39
f 512 40 41
f 512 41 277
f 512 277 276
f 512 276 40
f 513 41 42
f 513 42 278
f 513 278 277
f 513 277 41
f 514 42 43
f 514 43 279
f 514 279 278
f 514 278 42
f 515 43 44
f 515 44 280
f 515 280 279
f 515 279 43
f 516 44 45
f 516 45 281
f 516 281 280
f 516 280 44
f 517 45 46
f 517 46 282
f 517 282 281
f 517 281 45
f 518 46 47
f 518 47 283
f 518 283 282
f 518 282 46
f 519 47 48
f 519 48 284
f 519 284 283
f 519 283 47
f 520 48 49
f 520 49 285
f 520 285 284
f 520 284 48
f 521 49 50
f 521 50 286
f 521 286 285
f 521 285 49
f 522 50 51
f 522 51 287
f 522 287 286
f 522 286 50
f 523 51 52
f 523 52 288
f 523 288 287
f 523 287 51
f 524 52 53
f 524 53 289
f 524 289 288
f 524 288 52
f 525 53 54
f 525 54 290
f 525 290 289
f 525 289 53
f 526 54 55
f 526 55 291
f 526 291 290
f 526 290 54
f 527 55 56
f 527 56 292
f 527 292 291
f 527 291 55
f 528 56 57
f 528 57 293
f 528 293 292
f 528 292 56
f 529 57 58
f 529 58 294
f 529 294 293
f 529 293 57
f 530 58 59
f 530 59 295
f 530 295 294
f 530 294 58
f 531 59 60
f 531 60 296
f 531 296 295
f 531 295 59
f 532 60 61
f 532 61 297
f 532 297 296
f 532 296 60
f 533 61 62
f 533 62 298
f 533 298 297
f 533 297 61
f 534 62 63
f 534 63 299
f 534 299 298
f 534 298 62
f 535 63 64
f 535 64 300
f 535 300 299
f 535 299 63
f 536 64 65
f 536 65 301
f 536 301 300
f 536 300 64
f 537 65 66
f 537 66 302
f 537 302 301
f 537 301 65
f 538 66 67
f 538 67 303
f 538 303 302
f 538 302 66
f 539 67 68
f 539 68 304
f 539 304 303
f 539 303 67
f 540 68 69
f 540 69 305
f 540 305 304
f 540 304 68
f 541 69 70
f 541 70 306
f 541 306 305
f 541 305 69
f 542 70 71
f 542 71 307
f 542 307 306
f 542 306 70
f 543 71 72
f 543 72 308
f 543 308 307
f 543 307 71
f 544 72 73
f 544 73 309
f 544 309 308
f 544 308 72
f 545 73 74
f 545 74 310
f 545 310 309
f 545 309 73
f 546 74 75
f 546 75 311
f 546 311 310
f 546 310 74
f 547 75 76
f 547 76 312
f 547 312 311
f 547 311 75
f 548 76 77
f 548 77 313
f 548 313 312
f 548 312 76
f 549 77 78
f 549 78 314
f 549 314 313
f 549 313 77
f 550 78 79
f 550 79 315
f 550 315 314
f 550 314 78
f 551 79 80
f 551 80 316
f 551 316 315
f 551 315 79
f 552 80 81
f 552 81 317
f 552 317 316
f 552 316 80
f 553 81 82
f 553 82 318
f 553 318 317
f 553 317 81
f 554 82 83
f 554 83 319
f 554 319 318
f 554 318 82
f 555 83 84
f 555 84 320
f 555 320 319
f 555 319 83
f 556 84 85
f 556 85 321
f 556 321 320
f 556 320 84
f 557 85 86
f 557 86 322
f 557 322 321
f 557 321 85
f 558 86 87
f 558 87 323
f 558 323 322
f 558 322 86
f 559 87 88
f 559 88 324
f 559 324 323
f 559 323 87
f 560 88 89
f 560 89 325
f 560 325 324
f 560 324 88
f 561 89 90
f 561 90 326
f 561 326 325
f 561 325 89
f 562 90 91
f 562 91 327
f 562 327 326
f 562 326 90
f 563 91 92
f 563 92 328
f 563 328 327
f 563 327 91
f 564 92 93
f 564 93 329
f 564 329 328
f 564 328 92
f 565 93 94
f 565 94 330
f 565 330 329
f 565 329 93
f 566 94 95
f 566 95 331
f 566 331 330
f 566 330 94
f 567 95 96
f 567 96 332
f 567 332 331
f 567 331 95
f 568 96 97
f 568 97 333
f 568 333 332
f 568 332 96
f 569 97 98
f 569 98 334
f 569 334 333
f 569 333 97
f 570 98 99
f 570 99 335
f 570 335 334
f 570 334 98
f 571 99 100
f 571 100 336
f 571 336 335
f 571 335 99
f 572 100 101
f 572 101 337
f 572 337 336
f 572 336 100
f 573 101 102
f 573 102 338
f 573 338 337
f 573 337 101
f 574 102 103
f 574 103 339
f 574 339 338
f 574 338 102
f 575 103 104
f 575 104 340
f 575 340 339
f 575 339 103
f 576 104 105
f 576 105 341
f 576 341 340
f 576 340 104
f 577 105 106
f 577 106 342
f 577 342 341
f 577 341 105
f 578 106 107
f 578 107 343
f 578 343 342
f 578 342 106
f 579 107 108
f 579 108 344
f 579 344 343
f 579 343 107
f 580 108 109
f 580 109 345
f 580 345 344
f 580 344 108
f 581 109 110
f 581 110 346
f 581 346 345
f 581 345 109
f 582 110 111
f 582 111 347
f 582 347 346
f 582 346 110
f 583 111 112
f 583 112 348
f 583 348 347
f 583 347 111
f 584 112 113
f 584 113 349
f 584 349 348
f 584 348 112
f 585 113 114
f 585 114 350
f 585 350 349
f 585 349 113
f 586 114 115
f 586 115 351
f 586 351 350
f 586 350 114
f 587 115 116
f 587 116 352
f 587 352 351
f 587 351 115
f 588 116 117
f 588 117 353
f 588 353 352
f 588 352 116
f 589 117 118
f 589 118 354
f 589 354 353
f 589 353 117
f 590 118 119
f 590 119 355
f 590 355 354
f 590 354 118
f 591 119 120
f 591 120 356
f 591 356 355
f 591 355 119
f 592 120 121
f 592 121 357
f 592 357 356
f 592 356 120
f 593 121 122
f 593 122 358
f 593 358 357
f 593 357 121
f 594 122 123
f 594 123 359
f 594 359 358
f 594 358 122
f 595 123 124
f 595 124 360
f 595 360 359
f 595 359 123
f 596 124 125
f 596 125 361
f 596 361 360
f 596 360 124
f 597 125 126
f 597 126 362
f 597 362 361
f 597 361 125
f 598 126 127
f 598 127 363
f 598 363 362
f 598 362 126
f 599 127 128
f 599 128 364
f 599 364 363
f 599 363 127
f 600 128 129
f 600 129 365
f 600 365 364
f 600 364 128
f 601 129 130
f 601 130 366
f 601 366 365
f 601 365 129
f 602 130 131
f 602 131 367
f 602 367 366
f 602 366 130
f 603 131 132
f 603 132 368
f 603 368 367
f 603 367 131
f 604 132 133
f 604 133 369
f 604 369 368
f 604 368 132
f 605 133 134
f 605 134 370
f 605 370 369
f 605 369 133
f 606 134 135
f 606 135 371
f 606 371 370
f 606 370 134
f 607 135 136
f 607 136 372
f 607 372 371
f 607 371 135
f 608 136 137
f 608 137 373
f 608 373 372
f 608 372 136
f 609 137 138
f 609 138 374
f 609 374 373
f 609 373 137
f 610 138 139
f 610 139 375
f 610 375 374
f 610 374 138
f 611 139 140
f 611 140 376
f 611 376 375
f 611 375 139
f 612 140 141
f 612 141 377
f 612 377 376
f 612 376 140
f 613 141 142
f 613 142 378
f 613 378 377
f 613 377 141
f 614 142 143
f 614 143 379
f 614 379 378
f 614 378 142
f 615 143 144
f 615 144 380
f 615 380 379
f 615 379 143
f 616 144 145
f 616 145 381
f 616 381 380
f 616 380 144
f 617 145 146
f 617 146 382
f 617 382 381
f 617 381 145
f 618 146 147
f 618 147 383
f 618 383 382
f 618 382 146
f 619 147 148
f 619 148 384
f 619 384 383
f 619 383 147
f 620 148 149
f 620 149 385
f 620 385 384
f 620 384 148
f 621 149 150
f 621 150 386
f 621 386 385
f 621 385 149
f 622 150 151
f 622 151 387
f 622 387 386
f 622 386 150
f 623 151 152
f 623 152 388
f 623 388 387
f 623 387 151
f 624 152 153
f 624 153 389
f 624 389 388
f 624 388 152
f 625 153 154
f 625 154 390
f 625 390 389
f 625 389 153
f 626 154 155
f 626 155 391
f 626 391 390
f 626 390 154
f 627 155 156
f 627 156 392
f 627 392 391
f 627 391 155
f 628 156 157
f 628 157 393
f 628 393 392
f 628 392 156
f 629 157 158
f 629 158 394
f 629 394 393
f 629 393 157
f 630 158 159
f 630 159 395
f 630 395 394
f 630 394 158
f 631 159 160
f 631 160 396
f 631 396 395
f 631 395 159
f 632 160 161
f 632 161 397
f 632 397 396
f 632 396 160
f 633 161 162
f 633 162 398
f 633 398 397
f 633 397 161
f 634 162 163
f 634 163 399
f 634 399 398
f 634 398 162
f 635 163 164
f 635 164 400
f 635 400 399
f 635 399 163
f 636 164 165
f 636 165 401
f 636 401 400
f 636 400 164
f 637 165 166
f 637 166 402
f 637 402 401
f 637 401 165
f 638 166 167
f 638 167 403
f 638 403 402
f 638 402 166
f 639 167 168
f 639 168 404
f 639 404 403
f 639 403 167
f 640 168 169
f 640 169 405
f 640 405 404
f 640 404 168
f 641 169 170
f 641 170 406
f 641 406 405
f 641 405 169
f 642 170 171
f 642 171 407
f 642 407 406
f 642 406 170
f 643 171 172
f 643 172 408
f 643 408 407
f 643 407 171
f 644 172 173
f 644 173 409
f 644 409 408
f 644 408 172
f 645 173 174
f 645 174 410
f 645 410 409
f 645 409 173
f 646 174 175
f 646 175 411
f 646 411 410
f 646 410 174
f 647 175 176
f 647 176 412
f 647 412 411
f 647 411 175
f 648 176 177
f 648 177 413
f 648 413 412
f 648 412 176
f 649 177 178
f 649 178 414
f 649 414 413
f 649 413 177
f 650 178 179
f 650 179 415
f 650 415 414
f 650 414 178
f 651 179 180
f 651 180 416
f 651 416 415
f 651 415 179
f 652 180 181
f 652 181 417
f 652 417 416
f 652 416 180
f 653 181 182
f 653 182 418
f 653 418 417
f 653 417 181
f 654 182 183
f 654 183 419
f 654 419 418
f 654 418 182
f 655 183 184
f 655 184 420
f 655 420 419
f 655 419 183
f 656 184 185
f 656 185 421
f 656 421 420
f 656 420 184
f 657 185 186
f 657 186 422
f 657 422 421
f 657 421 185
f 658 186 187
f 658 187 423
f 658 423 422
f 658 422 186
f 659 187 188
f 659 188 424
f 659 424 423
f 659 423 187
f 660 188 189
f 660 189 425
f 660 425 424
f 660 424 188
f 661 189 190
f 661 190 426
f 661 426 425
f 661 425 189
f 662 190 191
f 662 191 427
f 662 427 426
f 662 426 190
f 663 191 192
f 663 192 428
f 663 428 427
f 663 427 191
f 664 192 193
f 664 193 429
f 664 429 428
f 664 428 192
f 665 193 194
f 665 194 430
f 665 430 429
f 665 429 193
f 666 194 195
f 666 195 431
f 666 431 430
f 666 430 194
f 667 195 196
f 667 196 432
f 667 432 431
f 667 431 195
f 668 196 197
f 668 197 433
f 668 433 432
f 668 432 196
f 669 197 198
f 669 198 434
f 669 434 433
f 669 433 197
f 670 198 199
f 670 199 435
f 670 435 434
f 670 434 198
f 671 199 200
f 671 200 436
f 671 436 435
f 671 435 199
f 672 200 201
f 672 201 437
f 672 437 436
f 672 436 200
f 673 201 202
f 673 202 438
f 673 438 437
f 673 437 201
f 674 202 203
f 674 203 439
f 674 439 438
f 674 438 202
f 675 203 204
f 675 204 440
f 675 440 439
f 675 439 203
f 676 204 205
f 676 205 441
f 676 441 440
f 676 440 204
f 677 205 206
f 677 206 442
f 677 442 441
f 677 441 205
f 678 206 207
f 678 207 443
f 678 443 442
f 678 442 206
f 679 207 208
f 679 208 444
f 679 444 443
f 679 443 207
f 680 208 209
f 680 209 445
f 680 445 444
f 680 444 208
f 681 209 210
f 681 210 446
f 681 446 445
f 681 445 209
f 682 210 211
f 682 211 447
f 682 447 446
f 682 446 210
f 683 211 212
f 683 212 448
f 683 448 447
f 683 447 211
f 684 212 213
f 684 213 449
f 684 449 448
f 684 448 212
f 685 213 214
f 685 214 450
f 685 450 449
f 685 449 213
f 686 214 215
f 686 215 451
f 686 451 450
f 686 450 214
f 687 215 216
f 687 216 452
f 687 452 451
f 687 451 215
f 688 216 217
f 688 217 453
f 688 453 452
f 688 452 216
f 689 217 218
f 689 218 454
f 689 454 453
f 689 453 217
f 690 218 219
f 690 219 455
f 690 455 454
f 690 454 218
f 691 219 220
f 691 220 456
f 691 456 455
f 691 455 219
f 692 220 221
f 692 221 457
f 692 457 456
f 692 456 220
f 693 221 222
f 693 222 458
f 693 458 457
f 693 457 221
f 694 222 223
f 694 223 459
f 694 459 458
f 694 458 222
f 695 223 224
f 695 224 460
f 695 460 459
f 695 459 223
f 696 224 225
f 696 225 461
f 696 461 460
f 696 460 224
f 697 225 226
f 697 226 462
f 697 462 461
f 697 461 225
f 698 226 227
f 698 227 463
f 698 463 462
f 698 462 226
f 699 227 228
f 699 228 464
f 699 464 463
f 699 463 227
f 700 228 229
f 700 229 465
f 700 465 464
f 700 464 228
f 701 229 230
f 701 230 466
f 701 466 465
f 701 465 229
f 702 230 231
f 702 231 467
f 702 467 466
f 702 466 230
f 703 231 232
f 703 232 468
f 703 468 467
f 703 467 231
f 704 232 233
f 704 233 469
f 704 469 468
f 704 468 232
f 705 233 234
f 705 234 470
f 705 470 469
f 705 469 233
f 706 234 235
f 706 235 471
f 706 471 470
f 706 470 234
f 707 235 236
f 707 236 472
f 707 472 471
f 707 471 235
f 708 236 1
f 708 1 237
f 708 237 472
f 708 472 236
g groupNumber_1
v 0.2346 -0.0161 -0.2502
v 0.2344 -0.0264 -0.2502
v 0.2336 -0.0367 -0.2502
v 0.2324 -0.0470 -0.2502
v 0.2306 -0.0573 -0.2502
v 0.2283 -0.0677 -0.2502
v 0.2255 -0.0781 -0.2502
v 0.2221 -0.0884 -0.2502
v 0.2182 -0.0988 -0.2502
v 0.2152 -0.1059 -0.2502
v 0.2119 -0.1130 -0.2502
v 0.2083 -0.1200 -0.2502
v 0.2044 -0.1270 -0.2502
v 0.2003 -0.1340 -0.2502
v 0.1959 -0.1409 -0.2502
v 0.1912 -0.1477 -0.2502
v 0.1863 -0.1544 -0.2502
v 0.1810 -0.1610 -0.2502
v 0.1755 -0.1675 -0.2502
v 0.1698 -0.1739 -0.2502
v 0.1638 -0.1801 -0.2502
v 0.1575 -0.1862 -0.2502
v 0.1509 -0.1921 -0.2502
v 0.1442 -0.1978 -0.2502
v 0.1371 -0.2033 -0.2502
v 0.1298 -0.2085 -0.2502
v 0.1222 -0.2136 -0.2502
v 0.1145 -0.2184 -0.2502
v 0.1064 -0.2229 -0.2502
v 0.0981 -0.2272 -0.2502
v 0.0896 -0.2312 -0.2502
v 0.0808 -0.2349 -0.2502
v 0.0718 -0.2383 -0.2502
v 0.0626 -0.2413 -0.2502
v 0.0531 -0.2440 -0.2502
v 0.0434 -0.2464 -0.2502
v 0.0335 -0.2484 -0.2502
v 0.0233 -0.2500 -0.2502
v 0.0129 -0.2512 -0.2502
v 0.0023 -0.2520 -0.2502
v -0.0085 -0.2524 -0.2502
v -0.0121 -0.2524 -0.2502
v -0.0240 -0.2521 -0.2502
v -0.0358 -0.2513 -0.2502
v -0.0475 -0.2499 -0.2502
v -0.0590 -0.2479 -0.2502
v -0.0704 -0.2454 -0.2502
v -0.0816 -0.2425 -0.2502
v -0.0926 -0.2390 -0.2502
v -0.1034 -0.2351 -0.2502
v -0.1140 -0.2307 -0.2502
v -0.1243 -0.2260 -0.2502
v -0.1344 -0.2207 -0.2502
v -0.1442 -0.2151 -0.2502
v -0.1538 -0.2091 -0.2502
v -0.1630 -0.2028 -0.2502
v -0.1719 -0.1961 -0.2502
v -0.1805 -0.1890 -0.2502
v -0.1888 -0.1817 -0.2502
v -0.1967 -0.1741 -0.2502
v -0.2042 -0.1661 -0.2502
v -0.2114 -0.1580 -0.2502
v -0.2181 -0.1495 -0.2502
v -0.2244 -0.1409 -0.2502
v -0.2303 -0.1320 -0.2502
v -0.2358 -0.1230 -0.2502
v -0.2407 -0.1137 -0.2502
v -0.2452 -0.1043 -0.2502
v -0.2492 -0.0948 -0.2502
v -0.2527 -0.0851 -0.2502
v -0.2556 -0.0754 -0.2502
v -0.2580 -0.0655 -0.2502
v -0.2599 -0.0556 -0.2502
v -0.2612 -0.0456 -0.2502
v -0.2621 0.0293 -0.2502
v -0.2619 0.0336 -0.2502
v -0.2614 0.0376 -0.2502
v -0.2606 0.0418 -0.2502
v -0.2595 0.0462 -0.2502
v -0.2581 0.0506 -0.2502
v -0.2566 0.0552 -0.2502
v -0.2548 0.0598 -0.2502
v -0.2529 0.0645 -0.2502
v -0.2509 0.0691 -0.2502
v -0.2488 0.0738 -0.2502
v -0.2466 0.0784 -0.2502
v -0.2444 0.0829 -0.2502
v -0.2422 0.0873 -0.2502
v -0.2400 0.0916 -0.2502
v -0.2379 0.0957 -0.2502
v -0.2358 0.0996 -0.2502
v -0.2294 0.1111 -0.2502
v -0.2222 0.1221 -0.2502
v -0.2144 0.1326 -0.2502
v -0.2058 0.1426 -0.2502
v -0.1967 0.1521 -0.2502
v -0.1870 0.1611 -0.2502
v -0.1768 0.1695 -0.2502
v -0.1663 0.1774 -0.2502
v -0.1553 0.1846 -0.2502
v -0.1441 0.1913 -0.2502
v -0.1326 0.1973 -0.2502
v -0.1209 0.2026 -0.2502
v -0.1091 0.2073 -0.2502
v -0.0973 0.2113 -0.2502
v -0.0854 0.2145 -0.2502
v -0.0735 0.2170 -0.2502
v -0.0598 0.2192 -0.2502
v -0.0462 0.2207 -0.2502
v -0.0328 0.2216 -0.2502
v -0.0196 0.2219 -0.2502
v -0.0073 0.2217 -0.2502
v 0.0048 0.2208 -0.2502
v 0.0167 0.2195 -0.2502
v 0.0285 0.2176 -0.2502
v 0.0400 0.2153 -0.2502
v 0.0513 0.2124 -0.2502
v 0.0625 0.2090 -0.2502
v 0.0734 0.2051 -0.2502
v 0.0841 0.2007 -0.2502
v 0.0945 0.1958 -0.2502
v 0.1048 0.1904 -0.2502
v 0.1148 0.1846 -0.2502
v 0.1245 0.1783 -0.2502
v 0.1340 0.1715 -0.2502
v 0.1433 0.1643 -0.2502
v 0.1523 0.1567 -0.2502
v 0.1618 0.1478 -0.2502
v 0.1708 0.1386 -0.2502
v 0.1793 0.1290 -0.2502
v 0.1872 0.1192 -0.2502
v 0.1946 0.1091 -0.2502
v 0.2013 0.0987 -0.2502
v 0.2075 0.0880 -0.2502
v 0.2131 0.0772 -0.2502
v 0.2180 0.0661 -0.2502
v 0.2224 0.0548 -0.2502
v 0.2261 0.0433 -0.2502
v 0.2291 0.0317 -0.2502
v 0.2315 0.0199 -0.2502
v 0.2333 0.0080 -0.2502
v 0.2343 -0.0040 -0.2502
v 0.2346 -0.0161 0.2502
v 0.2344 -0.0264 0.2502
v 0.2336 -0.0367 0.2502
v 0.2324 -0.0470 0.2502
v 0.2306 -0.0573 0.2502
v 0.2283 -0.0677 0.2502
v 0.2255 -0.0781 0.2502
v 0.2221 -0.0884 0.2502
v 0.2182 -0.0988 0.2502
v 0.2152 -0.1059 0.2502
v 0.2119 -0.1130 0.2502
v 0.2083 -0.1200 0.2502
v 0.2044 -0.1270 0.2502
v 0.2003 -0.1340 0.2502
v 0.1959 -0.1409 0.2502
v 0.1912 -0.1477 0.2502
v 0.1863 -0.1544 0.2502
v 0.1810 -0.1610 0.2502
v 0.1755 -0.1675 0.2502
v 0.1698 -0.1739 0.2502
v 0.1638 -0.1801 0.2502
v 0.1575 -0.1862 0.2502
v 0.1509 -0.1921 0.2502
v 0.1442 -0.1978 0.2502
v 0.1371 -0.2033 0.2502
v 0.1298 -0.2085 0.2502
v 0.1222 -0.2136 0.2502
v 0.1145 -0.2184 0.2502
v 0.1064 -0.2229 0.2502
v 0.0981 -0.2272 0.2502
v 0.0896 -0.2312 0.2502
v 0.0808 -0.2349 0.2502
v 0.0718 -0.2383 0.2502
v 0.0626 -0.2413 0.2502
v 0.0531 -0.2440 0.2502
v 0.0434 -0.2464 0.2502
v 0.0335 -0.2484 0.2502
v 0.0233 -0.2500 0.2502
v 0.0129 -0.2512 0.2502
v 0.0023 -0.2520 0.2502
v -0.0085 -0.2524 0.2502
v -0.0121 -0.2524 0.2502
v -0.0240 -0.2521 0.2502
v -0.0358 -0.2513 0.2502
v -0.0475 -0.2499 0.2502
v -0.0590 -0.2479 0.2502
v -0.0704 -0.2454 0.2502
v -0.0816 -0.2425 0.2502
v -0.0926 -0.2390 0.2502
v -0.1034 -0.2351 0.2502
v -0.1140 -0.2307 0.2502
v -0.1243 -0.2260 0.2502
v -0.1344 -0.2207 0.2502
v -0.1442 -0.2151 0.2502
v -0.1538 -0.2091 0.2502
v -0.1630 -0.2028 0.2502
v -0.1719 -0.1961 0.2502
v -0.1805 -0.1890 0.2502
v -0.1888 -0.1817 0.2502
v -0.1967 -0.1741 0.2502
v -0.2042 -0.1661 0.2502
v -0.2114 -0.1580 0.2502
v -0.2181 -0.1495 0.2502
v -0.2244 -0.1409 0.2502
v -0.2303 -0.1320 0.2502
v -0.2358 -0.1230 0.2502
v -0.2407 -0.1137 0.2502
v -0.2452 -0.1043 0.2502
v -0.2492 -0.0948 0.2502
v -0.2527 -0.0851 0.2502
v -0.2556 -0.0754 0.2502
v -0.2580 -0.0655 0.2502
v -0.2599 -0.0556 0.2502
v -0.2612 -0.0456 0.2502
v -0.2621 0.0293 0.2502
v -0.2619 0.0336 0.2502
v -0.2614 0.0376 0.2502
v -0.2606 0.0418 0.2502
v -0.2595 0.0462 0.2502
v -0.2581 0.0506 0.2502
v -0.2566 0.0552 0.2502
v -0.2548 0.0598 0.2502
v -0.2529 0.0645 0.2502
v -0.2509 0.0691 0.2502
v -0.2488 0.0738 0.2502
v -0.2466 0.0784 0.2502
v -0.2444 0.0829 0.2502
v -0.2422 0.0873 0.2502
v -0.2400 0.0916 0.2502
v -0.2379 0.0957 0.2502
v -0.2358 0.0996 0.2502
v -0.2294 0.1111 0.2502
v -0.2222 0.1221 0.2502
v -0.2144 0.1326 0.2502
v -0.2058 0.1426 0.2502
v -0.1967 0.1521 0.2502
v -0.1870 0.1611 0.2502
v -0.1768 0.1695 0.2502
v -0.1663 0.1774 0.2502
v -0.1553 0.1846 0.2502
v -0.1441 0.1913 0.2502
v -0.1326 0.1973 0.2502
v -0.1209 0.2026 0.2502
v -0.1091 0.2073 0.2502
v -0.0973 0.2113 0.2502
v -0.0854 0.2145 0.2502
v -0.0735 0.2170 0.2502
v -0.0598 0.2192 0.2502
v -0.0462 0.2207 0.2502
v -0.0328 0.2216 0.2502
v -0.0196 0.2219 0.2502
v -0.0073 0.2217 0.2502
v 0.0048 0.2208 0.2502
v 0.0167 0.2195 0.2502
v 0.0285 0.2176 0.2502
v 0.0400 0.2153 0.2502
v 0.0513 0.2124 0.2502
v 0.0625 0.2090 0.2502
v 0.0734 0.2051 0.2502
v 0.0841 0.2007 0.2502
v 0.0945 0.1958 0.2502
v 0.1048 0.1904 0.2502
v 0.1148 0.1846 0.2502
v 0.1245 0.1783 0.2502
v 0.1340 0.1715 0.2502
v 0.1433 0.1643 0.2502
v 0.1523 0.1567 0.2502
v 0.1618 0.1478 0.2502
v 0.1708 0.1386 0.2502
v 0.1793 0.1290 0.2502
v 0.1872 0.1192 0.2502
v 0.1946 0.1091 0.2502
v 0.2013 0.0987 0.2502
v 0.2075 0.0880 0.2502
v 0.2131 0.0772 0.2502
v 0.2180 0.0661 0.2502
v 0.2224 0.0548 0.2502
v 0.2261 0.0433 0.2502
v 0.2291 0.0317 0.2502
v 0.2315 0.0199 0.2502
v 0.2333 0.0080 0.2502
v 0.2343 -0.0040 0.2502
v 0.2345 -0.0212 -0.0000
v 0.2340 -0.0315 -0.0000
v 0.2330 -0.0418 -0.0000
v 0.2315 -0.0521 -0.0000
v 0.2295 -0.0625 -0.0000
v 0.2269 -0.0729 -0.0000
v 0.2238 -0.0832 -0.0000
v 0.2201 -0.0936 -0.0000
v 0.2167 -0.1023 -0.0000
v 0.2135 -0.1094 -0.0000
v 0.2101 -0.1165 -0.0000
v 0.2064 -0.1235 -0.0000
v 0.2024 -0.1305 -0.0000
v 0.1981 -0.1374 -0.0000
v 0.1936 -0.1443 -0.0000
v 0.1887 -0.1511 -0.0000
v 0.1836 -0.1577 -0.0000
v 0.1783 -0.1643 -0.0000
v 0.1727 -0.1707 -0.0000
v 0.1668 -0.1770 -0.0000
v 0.1606 -0.1832 -0.0000
v 0.1542 -0.1891 -0.0000
v 0.1475 -0.1949 -0.0000
v 0.1406 -0.2005 -0.0000
v 0.1335 -0.2059 -0.0000
v 0.1260 -0.2111 -0.0000
v 0.1183 -0.2160 -0.0000
v 0.1104 -0.2207 -0.0000
v 0.1023 -0.2251 -0.0000
v 0.0939 -0.2292 -0.0000
v 0.0852 -0.2331 -0.0000
v 0.0763 -0.2366 -0.0000
v 0.0672 -0.2398 -0.0000
v 0.0578 -0.2427 -0.0000
v 0.0483 -0.2452 -0.0000
v 0.0384 -0.2474 -0.0000
v 0.0284 -0.2492 -0.0000
v 0.0181 -0.2506 -0.0000
v 0.0076 -0.2516 -0.0000
v -0.0031 -0.2522 -0.0000
v -0.0103 -0.2524 -0.0000
v -0.0181 -0.2523 -0.0000
v -0.0299 -0.2517 -0.0000
v -0.0417 -0.2506 -0.0000
v -0.0533 -0.2489 -0.0000
v -0.0647 -0.2467 -0.0000
v -0.0760 -0.2440 -0.0000
v -0.0871 -0.2408 -0.0000
v -0.0980 -0.2371 -0.0000
v -0.1087 -0.2329 -0.0000
v -0.1191 -0.2283 -0.0000
v -0.1293 -0.2233 -0.0000
v -0.1393 -0.2179 -0.0000
v -0.1490 -0.2121 -0.0000
v -0.1584 -0.2060 -0.0000
v -0.1675 -0.1994 -0.0000
v -0.1762 -0.1926 -0.0000
v -0.1847 -0.1854 -0.0000
v -0.1928 -0.1779 -0.0000
v -0.2005 -0.1701 -0.0000
v -0.2078 -0.1620 -0.0000
v -0.2148 -0.1537 -0.0000
v -0.2213 -0.1452 -0.0000
v -0.2274 -0.1364 -0.0000
v -0.2330 -0.1275 -0.0000
v -0.2382 -0.1183 -0.0000
v -0.2430 -0.1090 -0.0000
v -0.2472 -0.0996 -0.0000
v -0.2509 -0.0900 -0.0000
v -0.2541 -0.0803 -0.0000
v -0.2568 -0.0704 -0.0000
v -0.2590 -0.0606 -0.0000
v -0.2605 -0.0506 -0.0000
v -0.2616 -0.0082 -0.0000
v -0.2620 0.0314 -0.0000
v -0.2617 0.0356 -0.0000
v -0.2610 0.0397 -0.0000
v -0.2600 0.0440 -0.0000
v -0.2588 0.0484 -0.0000
v -0.2573 0.0529 -0.0000
v -0.2557 0.0575 -0.0000
v -0.2539 0.0621 -0.0000
v -0.2519 0.0668 -0.0000
v -0.2498 0.0714 -0.0000
v -0.2477 0.0761 -0.0000
v -0.2455 0.0806 -0.0000
v -0.2433 0.0851 -0.0000
v -0.2411 0.0894 -0.0000
v -0.2389 0.0936 -0.0000
v -0.2368 0.0977 -0.0000
v -0.2326 0.1054 -0.0000
v -0.2258 0.1166 -0.0000
v -0.2183 0.1273 -0.0000
v -0.2101 0.1376 -0.0000
v -0.2012 0.1473 -0.0000
v -0.1918 0.1566 -0.0000
v -0.1819 0.1653 -0.0000
v -0.1716 0.1734 -0.0000
v -0.1608 0.1810 -0.0000
v -0.1497 0.1880 -0.0000
v -0.1383 0.1943 -0.0000
v -0.1268 0.2000 -0.0000
v -0.1150 0.2050 -0.0000
v -0.1032 0.2093 -0.0000
v -0.0913 0.2129 -0.0000
v -0.0794 0.2158 -0.0000
v -0.0667 0.2181 -0.0000
v -0.0530 0.2199 -0.0000
v -0.0395 0.2212 -0.0000
v -0.0262 0.2218 -0.0000
v -0.0135 0.2218 -0.0000
v -0.0013 0.2213 -0.0000
v 0.0108 0.2202 -0.0000
v 0.0226 0.2186 -0.0000
v 0.0342 0.2165 -0.0000
v 0.0457 0.2138 -0.0000
v 0.0569 0.2107 -0.0000
v 0.0679 0.2070 -0.0000
v 0.0787 0.2029 -0.0000
v 0.0893 0.1982 -0.0000
v 0.0996 0.1931 -0.0000
v 0.1098 0.1875 -0.0000
v 0.1196 0.1815 -0.0000
v 0.1293 0.1749 -0.0000
v 0.1387 0.1679 -0.0000
v 0.1478 0.1605 -0.0000
v 0.1571 0.1522 -0.0000
v 0.1663 0.1432 -0.0000
v 0.1751 0.1338 -0.0000
v 0.1833 0.1241 -0.0000
v 0.1909 0.1141 -0.0000
v 0.1979 0.1039 -0.0000
v 0.2044 0.0934 -0.0000
v 0.2103 0.0826 -0.0000
v 0.2156 0.0716 -0.0000
v 0.2202 0.0604 -0.0000
v 0.2242 0.0491 -0.0000
v 0.2276 0.0375 -0.0000
v 0.2303 0.0258 -0.0000
v 0.2324 0.0140 -0.0000
v 0.2338 0.0020 -0.0000
v 0.2345 -0.0101 -0.0000
v 0.9564 -0.0128 -0.2502
v 0.9562 -0.0080 -0.2502
v 0.9556 -0.0032 -0.2502
v 0.9546 0.0016 -0.2502
v 0.9533 0.0061 -0.2502
v 0.9516 0.0105 -0.2502
v 0.9495 0.0145 -0.2502
v 0.9471 0.0182 -0.2502
v 0.9444 0.0216 -0.2502
v 0.7121 0.2711 -0.2502
v 0.6946 0.2893 -0.2502
v 0.6767 0.3070 -0.2502
v 0.6582 0.3242 -0.2502
v 0.6394 0.3410 -0.2502
v 0.6201 0.3573 -0.2502
v 0.6003 0.3731 -0.2502
v 0.5802 0.3886 -0.2502
v 0.5598 0.4037 -0.2502
v 0.5390 0.4184 -0.2502
v 0.5178 0.4328 -0.2502
v 0.4964 0.4469 -0.2502
v 0.4746 0.4606 -0.2502
v 0.4526 0.4742 -0.2502
v 0.4304 0.4874 -0.2502
v 0.4079 0.5005 -0.2502
v 0.3853 0.5133 -0.2502
v 0.3653 0.5241 -0.2502
v 0.3452 0.5341 -0.2502
v 0.3249 0.5434 -0.2502
v 0.3045 0.5520 -0.2502
v 0.2838 0.5601 -0.2502
v 0.2631 0.5675 -0.2502
v 0.2420 0.5744 -0.2502
v 0.2208 0.5808 -0.2502
v 0.1994 0.5867 -0.2502
v 0.1777 0.5922 -0.2502
v 0.1558 0.5973 -0.2502
v 0.1336 0.6021 -0.2502
v 0.1111 0.6066 -0.2502
v 0.0884 0.6109 -0.2502
v 0.0653 0.6149 -0.2502
v 0.0419 0.6188 -0.2502
v 0.0157 0.6191 -0.2502
v -0.0202 0.6185 -0.2502
v -0.0560 0.6164 -0.2502
v -0.0915 0.6130 -0.2502
v -0.1267 0.6083 -0.2502
v -0.1616 0.6022 -0.2502
v -0.1961 0.5948 -0.2502
v -0.2303 0.5861 -0.2502
v -0.2641 0.5761 -0.2502
v -0.2974 0.5649 -0.2502
v -0.3302 0.5524 -0.2502
v -0.3625 0.5387 -0.2502
v -0.3943 0.5237 -0.2502
v -0.4255 0.5075 -0.2502
v -0.4560 0.4901 -0.2502
v -0.4860 0.4715 -0.2502
v -0.5152 0.4517 -0.2502
v -0.5478 0.4282 -0.2502
v -0.5796 0.4040 -0.2502
v -0.6106 0.3793 -0.2502
v -0.6408 0.3540 -0.2502
v -0.6703 0.3281 -0.2502
v -0.6990 0.3016 -0.2502
v -0.7270 0.2745 -0.2502
v -0.7543 0.2469 -0.2502
v -0.7809 0.2188 -0.2502
v -0.8069 0.1901 -0.2502
v -0.8322 0.1609 -0.2502
v -0.8568 0.1312 -0.2502
v -0.8808 0.1009 -0.2502
v -0.9042 0.0702 -0.2502
v -0.9270 0.0389 -0.2502
v -0.9492 0.0072 -0.2502
v -0.9524 0.0014 -0.2502
v -0.9546 -0.0050 -0.2502
v -0.9560 -0.0118 -0.2502
v -0.9564 -0.0190 -0.2502
v -0.9557 -0.0279 -0.2502
v -0.9538 -0.0365 -0.2502
v -0.9505 -0.0445 -0.2502
v -0.9461 -0.0516 -0.2502
v -0.9287 -0.0735 -0.2502
v -0.9112 -0.0953 -0.2502
v -0.8935 -0.1169 -0.2502
v -0.8756 -0.1385 -0.2502
v -0.8575 -0.1599 -0.2502
v -0.8391 -0.1811 -0.2502
v -0.8205 -0.2021 -0.2502
v -0.8016 -0.2229 -0.2502
v -0.7824 -0.2435 -0.2502
v -0.7629 -0.2638 -0.2502
v -0.7431 -0.2837 -0.2502
v -0.7230 -0.3034 -0.2502
v -0.7026 -0.3227 -0.2502
v -0.6818 -0.3416 -0.2502
v -0.6607 -0.3602 -0.2502
v -0.6392 -0.3783 -0.2502
v -0.6173 -0.3960 -0.2502
v -0.5950 -0.4132 -0.2502
v -0.5723 -0.4300 -0.2502
v -0.5492 -0.4462 -0.2502
v -0.5257 -0.4618 -0.2502
v -0.5017 -0.4770 -0.2502
v -0.4772 -0.4915 -0.2502
v -0.4523 -0.5054 -0.2502
v -0.4269 -0.5187 -0.2502
v -0.4010 -0.5313 -0.2502
v -0.3745 -0.5432 -0.2502
v -0.3476 -0.5545 -0.2502
v -0.3201 -0.5649 -0.2502
v -0.2921 -0.5747 -0.2502
v -0.2634 -0.5836 -0.2502
v -0.2343 -0.5918 -0.2502
v -0.2076 -0.5983 -0.2502
v -0.1809 -0.6039 -0.2502
v -0.1542 -0.6086 -0.2502
v -0.1276 -0.6125 -0.2502
v -0.1010 -0.6154 -0.2502
v -0.0744 -0.6175 -0.2502
v -0.0479 -0.6187 -0.2502
v -0.0215 -0.6191 -0.2502
v 0.0008 -0.6189 -0.2502
v 0.0231 -0.6180 -0.2502
v 0.0452 -0.6166 -0.2502
v 0.0673 -0.6146 -0.2502
v 0.0893 -0.6120 -0.2502
v 0.1112 -0.6090 -0.2502
v 0.1330 -0.6054 -0.2502
v 0.1547 -0.6013 -0.2502
v 0.1763 -0.5966 -0.2502
v 0.1977 -0.5915 -0.2502
v 0.2190 -0.5859 -0.2502
v 0.2402 -0.5798 -0.2502
v 0.2612 -0.5732 -0.2502
v 0.2821 -0.5661 -0.2502
v 0.3028 -0.5586 -0.2502
v 0.3234 -0.5507 -0.2502
v 0.3438 -0.5423 -0.2502
v 0.3640 -0.5335 -0.2502
v 0.3840 -0.5243 -0.2502
v 0.4038 -0.5146 -0.2502
v 0.4235 -0.5046 -0.2502
v 0.4429 -0.4941 -0.2502
v 0.4621 -0.4833 -0.2502
v 0.4811 -0.4721 -0.2502
v 0.4998 -0.4606 -0.2502
v 0.5183 -0.4486 -0.2502
v 0.5366 -0.4364 -0.2502
v 0.5546 -0.4238 -0.2502
v 0.5724 -0.4109 -0.2502
v 0.5899 -0.3976 -0.2502
v 0.6071 -0.3841 -0.2502
v 0.6240 -0.3702 -0.2502
v 0.6633 -0.3375 -0.2502
v 0.6832 -0.3206 -0.2502
v 0.7027 -0.3034 -0.2502
v 0.7218 -0.2861 -0.2502
v 0.7406 -0.2685 -0.2502
v 0.7591 -0.2507 -0.2502
v 0.7772 -0.2327 -0.2502
v 0.7950 -0.2144 -0.2502
v 0.8126 -0.1960 -0.2502
v 0.8300 -0.1774 -0.2502
v 0.8471 -0.1586 -0.2502
v 0.8641 -0.1396 -0.2502
v 0.8809 -0.1204 -0.2502
v 0.8976 -0.1010 -0.2502
v 0.9142 -0.0814 -0.2502
v 0.9307 -0.0617 -0.2502
v 0.9472 -0.0418 -0.2502
v 0.9513 -0.0355 -0.2502
v 0.9542 -0.0284 -0.2502
v 0.9559 -0.0208 -0.2502
v 0.9564 -0.0128 0.2502
v 0.9562 -0.0080 0.2502
v 0.9556 -0.0032 0.2502
v 0.9546 0.0016 0.2502
v 0.9533 0.0061 0.2502
v 0.9516 0.0105 0.2502
v 0.9495 0.0145 0.2502
v 0.9471 0.0182 0.2502
v 0.9444 0.0216 0.2502
v 0.7121 0.2711 0.2502
v 0.6946 0.2893 0.2502
v 0.6767 0.3070 0.2502
v 0.6582 0.3242 0.2502
v 0.6394 0.3410 0.2502
v 0.6201 0.3573 0.2502
v 0.6003 0.3731 0.2502
v 0.5802 0.3886 0.2502
v 0.5598 0.4037 0.2502
v 0.5390 0.4184 0.2502
v 0.5178 0.4328 0.2502
v 0.4964 0.4469 0.2502
v 0.4746 0.4606 0.2502
v 0.4526 0.4742 0.2502
v 0.4304 0.4874 0.2502
v 0.4079 0.5005 0.2502
v 0.3853 0.5133 0.2502
v 0.3653 0.5241 0.2502
v 0.3452 0.5341 0.2502
v 0.3249 0.5434 0.2502
v 0.3045 0.5520 0.2502
v 0.2838 0.5601 0.2502
v 0.2631 0.5675 0.2502
v 0.2420 0.5744 0.2502
v 0.2208 0.5808 0.2502
v 0.1994 0.5867 0.2502
v 0.1777 0.5922 0.2502
v 0.1558 0.5973 0.2502
v 0.1336 0.6021 0.2502
v 0.1111 0.6066 0.2502
v 0.0884 0.6109 0.2502
v 0.0653 0.6149 0.2502
v 0.0419 0.6188 0.2502
v 0.0157 0.6191 0.2502
v -0.0202 0.6185 0.2502
v -0.0560 0.6164 0.2502
v -0.0915 0.6130 0.2502
v -0.1267 0.6083 0.2502
v -0.1616 0.6022 0.2502
v -0.1961 0.5948 0.2502
v -0.2303 0.5861 0.2502
v -0.2641 0.5761 0.2502
v -0.2974 0.5649 0.2502
v -0.3302 0.5524 0.2502
v -0.3625 0.5387 0.2502
v -0.3943 0.5237 0.2502
v -0.4255 0.5075 0.2502
v -0.4560 0.4901 0.2502
v -0.4860 0.4715 0.2502
v -0.5152 0.4517 0.2502
v -0.5478 0.4282 0.2502
v -0.5796 0.4040 0.2502
v -0.6106 0.3793 0.2502
v -0.6408 0.3540 0.2502
v -0.6703 0.3281 0.2502
v -0.6990 0.3016 0.2502
v -0.7270 0.2745 0.2502
v -0.7543 0.2469 0.2502
v -0.7809 0.2188 0.2502
v -0.8069 0.1901 0.2502
v -0.8322 0.1609 0.2502
v -0.8568 0.1312 0.2502
v -0.8808 0.1009 0.2502
v -0.9042 0.0702 0.2502
v -0.9270 0.0389 0.2502
v -0.9492 0.0072 0.2502
v -0.9524 0.0014 0.2502
v -0.9546 -0.0050 0.2502
v -0.9560 -0.0118 0.2502
v -0.9564 -0.0190 0.2502
v -0.9557 -0.0279 0.2502
v -0.9538 -0.0365 0.2502
v -0.9505 -0.0445 0.2502
v -0.9461 -0.0516 0.2502
v -0.9287 -0.0735 0.2502
v -0.9112 -0.0953 0.2502
v -0.8935 -0.1169 0.2502
v -0.8756 -0.1385 0.2502
v -0.8575 -0.1599 0.2502
v -0.8391 -0.1811 0.2502
v -0.8205 -0.2021 0.2502
v -0.8016 -0.2229 0.2502
v -0.7824 -0.2435 0.2502
v -0.7629 -0.2638 0.2502
v -0.7431 -0.2837 0.2502
v -0.7230 -0.3034 0.2502
v -0.7026 -0.3227 0.2502
v -0.6818 -0.3416 0.2502
v -0.6607 -0.3602 0.2502
v -0.6392 -0.3783 0.2502
v -0.6173 -0.3960 0.2502
v -0.5950 -0.4132 0.2502
v -0.5723 -0.4300 0.2502
v -0.5492 -0.4462 0.2502
v -0.5257 -0.4618 0.2502
v -0.5017 -0.4770 0.2502
v -0.4772 -0.4915 0.2502
v -0.4523 -0.5054 0.2502
v -0.4269 -0.5187 0.2502
v -0.4010 -0.5313 0.2502
v -0.3745 -0.5432 0.2502
v -0.3476 -0.5545 0.2502
v -0.3201 -0.5649 0.2502
v -0.2921 -0.5747 0.2502
v -0.2634 -0.5836 0.2502
v -0.2343 -0.5918 0.2502
v -0.2076 -0.5983 0.2502
v -0.1809 -0.6039 0.2502
v -0.1542 -0.6086 0.2502
v -0.1276 -0.6125 0.2502
v -0.1010 -0.6154 0.2502
v -0.0744 -0.6175 0.2502
v -0.0479 -0.6187 0.2502
v -0.0215 -0.6191 0.2502
v 0.0008 -0.6189 0.2502
v 0.0231 -0.6180 0.2502
v 0.0452 -0.6166 0.2502
v 0.0673 -0.6146 0.2502
v 0.0893 -0.6120 0.2502
v 0.1112 -0.6090 0.2502
v 0.1330 -0.6054 0.2502
v 0.1547 -0.6013 0.2502
v 0.1763 -0.5966 0.2502
v 0.1977 -0.5915 0.2502
v 0.2190 -0.5859 0.2502
v 0.2402 -0.5798 0.2502
v 0.2612 -0.5732 0.2502
v 0.2821 -0.5661 0.2502
v 0.3028 -0.5586 0.2502
v 0.3234 -0.5507 0.2502
v 0.3438 -0.5423 0.2502
v 0.3640 -0.5335 0.2502
v 0.3840 -0.5243 0.2502
v 0.4038 -0.5146 0.2502
v 0.4235 -0.5046 0.2502
v 0.4429 -0.4941 0.2502
v 0.4621 -0.4833 0.2502
v 0.4811 -0.4721 0.2502
v 0.4998 -0.4606 0.2502
v 0.5183 -0.4486 0.2502
v 0.5366 -0.4364 0.2502
v 0.5546 -0.4238 0.2502
v 0.5724 -0.4109 0.2502
v 0.5899 -0.3976 0.2502
v 0.6071 -0.3841 0.2502
v 0.6240 -0.3702 0.2502
v 0.6633 -0.3375 0.2502
v 0.6832 -0.3206 0.2502
v 0.7027 -0.3034 0.2502
v 0.7218 -0.2861 0.2502
v 0.7406 -0.2685 0.2502
v 0.7591 -0.2507 0.2502
v 0.7772 -0.2327 0.2502
v 0.7950 -0.2144 0.2502
v 0.8126 -0.1960 0.2502
v 0.8300 -0.1774 0.2502
v 0.8471 -0.1586 0.2502
v 0.8641 -0.1396 0.2502
v 0.8809 -0.1204 0.2502
v 0.8976 -0.1010 0.2502
v 0.9142 -0.0814 0.2502
v 0.9307 -0.0617 0.2502
v 0.9472 -0.0418 0.2502
v 0.9513 -0.0355 0.2502
v 0.9542 -0.0284 0.2502
v 0.9559 -0.0208 0.2502
v 0.9563 -0.0104 -0.0000
v 0.9559 -0.0056 -0.0000
v 0.9551 -0.0008 -0.0000
v 0.9540 0.0038 -0.0000
v 0.9525 0.0083 -0.0000
v 0.9506 0.0125 -0.0000
v 0.9483 0.0164 -0.0000
v 0.9458 0.0199 -0.0000
v 0.8282 0.1463 -0.0000
v 0.7033 0.2802 -0.0000
v 0.6856 0.2982 -0.0000
v 0.6675 0.3156 -0.0000
v 0.6488 0.3326 -0.0000
v 0.6297 0.3491 -0.0000
v 0.6102 0.3652 -0.0000
v 0.5903 0.3809 -0.0000
v 0.5700 0.3961 -0.0000
v 0.5494 0.4110 -0.0000
v 0.5284 0.4256 -0.0000
v 0.5071 0.4398 -0.0000
v 0.4855 0.4537 -0.0000
v 0.4636 0.4674 -0.0000
v 0.4415 0.4808 -0.0000
v 0.4192 0.4939 -0.0000
v 0.3966 0.5069 -0.0000
v 0.3753 0.5187 -0.0000
v 0.3552 0.5291 -0.0000
v 0.3350 0.5387 -0.0000
v 0.3147 0.5477 -0.0000
v 0.2942 0.5560 -0.0000
v 0.2734 0.5638 -0.0000
v 0.2525 0.5709 -0.0000
v 0.2314 0.5776 -0.0000
v 0.2101 0.5837 -0.0000
v 0.1886 0.5895 -0.0000
v 0.1668 0.5948 -0.0000
v 0.1447 0.5997 -0.0000
v 0.1224 0.6044 -0.0000
v 0.0997 0.6088 -0.0000
v 0.0768 0.6129 -0.0000
v 0.0536 0.6169 -0.0000
v 0.0288 0.6190 -0.0000
v -0.0022 0.6188 -0.0000
v -0.0381 0.6174 -0.0000
v -0.0737 0.6147 -0.0000
v -0.1091 0.6106 -0.0000
v -0.1441 0.6052 -0.0000
v -0.1789 0.5985 -0.0000
v -0.2132 0.5905 -0.0000
v -0.2472 0.5811 -0.0000
v -0.2807 0.5705 -0.0000
v -0.3138 0.5587 -0.0000
v -0.3464 0.5455 -0.0000
v -0.3784 0.5312 -0.0000
v -0.4099 0.5156 -0.0000
v -0.4408 0.4988 -0.0000
v -0.4710 0.4808 -0.0000
v -0.5006 0.4616 -0.0000
v -0.5315 0.4399 -0.0000
v -0.5637 0.4161 -0.0000
v -0.5951 0.3916 -0.0000
v -0.6257 0.3666 -0.0000
v -0.6555 0.3410 -0.0000
v -0.6846 0.3148 -0.0000
v -0.7130 0.2881 -0.0000
v -0.7407 0.2607 -0.0000
v -0.7676 0.2329 -0.0000
v -0.7939 0.2045 -0.0000
v -0.8195 0.1755 -0.0000
v -0.8445 0.1461 -0.0000
v -0.8688 0.1161 -0.0000
v -0.8925 0.0856 -0.0000
v -0.9156 0.0546 -0.0000
v -0.9381 0.0231 -0.0000
v -0.9508 0.0043 -0.0000
v -0.9535 -0.0018 -0.0000
v -0.9553 -0.0084 -0.0000
v -0.9562 -0.0154 -0.0000
v -0.9561 -0.0234 -0.0000
v -0.9548 -0.0322 -0.0000
v -0.9522 -0.0405 -0.0000
v -0.9483 -0.0481 -0.0000
v -0.9374 -0.0625 -0.0000
v -0.9200 -0.0844 -0.0000
v -0.9024 -0.1061 -0.0000
v -0.8846 -0.1277 -0.0000
v -0.8666 -0.1492 -0.0000
v -0.8483 -0.1705 -0.0000
v -0.8298 -0.1916 -0.0000
v -0.8110 -0.2125 -0.0000
v -0.7920 -0.2332 -0.0000
v -0.7726 -0.2536 -0.0000
v -0.7530 -0.2737 -0.0000
v -0.7331 -0.2936 -0.0000
v -0.7128 -0.3130 -0.0000
v -0.6922 -0.3322 -0.0000
v -0.6713 -0.3509 -0.0000
v -0.6499 -0.3693 -0.0000
v -0.6283 -0.3872 -0.0000
v -0.6062 -0.4046 -0.0000
v -0.5837 -0.4216 -0.0000
v -0.5608 -0.4381 -0.0000
v -0.5375 -0.4540 -0.0000
v -0.5137 -0.4694 -0.0000
v -0.4895 -0.4842 -0.0000
v -0.4648 -0.4984 -0.0000
v -0.4396 -0.5120 -0.0000
v -0.4139 -0.5250 -0.0000
v -0.3878 -0.5373 -0.0000
v -0.3611 -0.5488 -0.0000
v -0.3338 -0.5597 -0.0000
v -0.3061 -0.5698 -0.0000
v -0.2778 -0.5792 -0.0000
v -0.2489 -0.5877 -0.0000
v -0.2209 -0.5950 -0.0000
v -0.1942 -0.6011 -0.0000
v -0.1676 -0.6063 -0.0000
v -0.1409 -0.6106 -0.0000
v -0.1143 -0.6139 -0.0000
v -0.0877 -0.6165 -0.0000
v -0.0611 -0.6181 -0.0000
v -0.0347 -0.6189 -0.0000
v -0.0103 -0.6190 -0.0000
v 0.0120 -0.6184 -0.0000
v 0.0342 -0.6173 -0.0000
v 0.0563 -0.6156 -0.0000
v 0.0783 -0.6133 -0.0000
v 0.1003 -0.6105 -0.0000
v 0.1221 -0.6072 -0.0000
v 0.1438 -0.6033 -0.0000
v 0.1655 -0.5989 -0.0000
v 0.1870 -0.5941 -0.0000
v 0.2084 -0.5887 -0.0000
v 0.2296 -0.5828 -0.0000
v 0.2507 -0.5765 -0.0000
v 0.2717 -0.5697 -0.0000
v 0.2925 -0.5624 -0.0000
v 0.3131 -0.5547 -0.0000
v 0.3336 -0.5465 -0.0000
v 0.3539 -0.5379 -0.0000
v 0.3740 -0.5289 -0.0000
v 0.3939 -0.5194 -0.0000
v 0.4137 -0.5096 -0.0000
v 0.4332 -0.4994 -0.0000
v 0.4525 -0.4887 -0.0000
v 0.4716 -0.4777 -0.0000
v 0.4904 -0.4663 -0.0000
v 0.5091 -0.4546 -0.0000
v 0.5275 -0.4425 -0.0000
v 0.5456 -0.4301 -0.0000
v 0.5635 -0.4173 -0.0000
v 0.5811 -0.4042 -0.0000
v 0.5985 -0.3908 -0.0000
v 0.6156 -0.3771 -0.0000
v 0.6437 -0.3538 -0.0000
v 0.6732 -0.3290 -0.0000
v 0.6930 -0.3120 -0.0000
v 0.7123 -0.2947 -0.0000
v 0.7312 -0.2773 -0.0000
v 0.7498 -0.2596 -0.0000
v 0.7681 -0.2417 -0.0000
v 0.7861 -0.2236 -0.0000
v 0.8038 -0.2052 -0.0000
v 0.8213 -0.1867 -0.0000
v 0.8386 -0.1680 -0.0000
v 0.8556 -0.1491 -0.0000
v 0.8725 -0.1300 -0.0000
v 0.8893 -0.1107 -0.0000
v 0.9059 -0.0912 -0.0000
v 0.9225 -0.0716 -0.0000
v 0.9390 -0.0517 -0.0000
v 0.9493 -0.0386 -0.0000
v 0.9527 -0.0320 -0.0000
v 0.9550 -0.0246 -0.0000
v 0.9561 -0.0168 -0.0000
f 1409 1410 917
f 1411 916 1410
f 1409 918 1408
f 920 1406 1407
f 1408 918 919
f 1407 1408 919
f 921 1405 1406
f 1412 915 1411
f 1419 907 1418
f 1421 905 1420
f 906 1419 1420
f 909 1417 1418
f 912 1414 1415
f 1417 910 1416
f 1415 1416 911
f 913 1413 1414
f 1412 1413 914
f 1421 1422 904
f 1395 1396 1381
f 1399 1379 1398
f 1380 1397 1398
f 1396 1397 1381
f 1390 1391 1392
f 1394 1383 1393
f 1384 1392 1393
f 1394 1395 1382
f 1399 1400 1378
f 924 1401 1402
f 923 1403 1404
f 920 1407 919
f 1402 1403 924
f 920 921 1406
f 923 924 1403
f 922 1404 1405
f 922 1405 921
f 923 1404 922
f 1401 924 1400
f 924 1378 1400
f 1422 1423 903
f 898 1426 1427
f 896 1428 1429
f 1427 1428 897
f 895 896 1429
f 900 1424 1425
f 1426 899 1425
f 898 1427 897
f 1428 896 897
f 898 899 1426
f 1429 1430 895
f 893 1431 1432
f 892 1433 891
f 1433 892 1432
f 891 1433 890
f 893 1432 892
f 895 1430 894
f 1434 889 890
f 894 1431 893
f 890 1433 1434
f 894 1430 1431
f 913 1414 912
f 911 1416 910
f 910 1417 909
f 1415 911 912
f 918 1409 917
f 916 1411 915
f 915 1412 914
f 1410 916 917
f 914 1413 913
f 903 1423 902
f 900 901 1424
f 899 900 1425
f 1423 901 902
f 908 1418 907
f 906 1420 905
f 905 1421 904
f 1419 906 907
f 904 1422 903
f 1418 908 909
f 1423 1424 901
f 1384 1387 1388
f 1384 1388 1389
f 1389 1390 1392
f 1385 1386 1384
f 1387 1384 1386
f 1384 1389 1392
f 1383 1384 1393
f 1382 1383 1394
f 1398 1379 1380
f 1375 927 928
f 1375 926 927
f 1376 925 926
f 1397 1380 1381
f 1373 930 931
f 1373 929 930
f 1374 928 929
f 1373 931 932
f 1382 1395 1381
f 924 925 1378
f 925 1376 1377
f 1375 928 1374
f 1376 926 1375
f 1377 1378 925
f 1372 1373 932
f 1371 941 1370
f 1372 935 1371
f 1373 1374 929
f 1399 1378 1379
f 944 1367 1368
f 1366 947 1365
f 1367 946 1366
f 1368 1369 943
f 1365 948 1364
f 1363 1364 949
f 1362 1363 950
f 1361 1362 951
f 1369 1370 942
f 1360 1361 952
f 932 933 1372
f 935 1372 934
f 938 1371 937
f 937 1371 936
f 936 1371 935
f 940 1371 939
f 943 1369 942
f 942 1370 941
f 941 1371 940
f 939 1371 938
f 945 1367 944
f 948 1365 947
f 947 1366 946
f 946 1367 945
f 950 1363 949
f 953 1360 952
f 952 1361 951
f 951 1362 950
f 949 1364 948
f 944 1368 943
f 953 954 1359
f 956 957 1357
f 955 956 1358
f 954 955 1359
f 1359 955 1358
f 1357 1358 956
f 957 1356 1357
f 1356 958 1355
f 1356 957 958
f 1359 1360 953
f 959 1354 1355
f 1352 963 1350
f 959 960 1354
f 1353 1354 961
f 962 1352 1353
f 1352 962 963
f 962 1353 961
f 1354 960 961
f 963 964 1350
f 959 1355 958
f 934 1372 933
f 1435 889 1434
f 889 1435 888
f 1435 1436 888
f 888 1436 887
f 1437 886 887
f 1439 884 885
f 1440 883 884
f 885 886 1438
f 887 1436 1437
f 1438 1439 885
f 1440 1441 883
f 1440 884 1439
f 883 1441 882
f 881 882 1442
f 879 880 1444
f 881 1443 880
f 878 879 1445
f 882 1441 1442
f 1438 886 1437
f 1446 877 878
f 1448 875 876
f 1449 874 875
f 876 877 1447
f 1451 872 873
f 1452 870 871
f 1453 869 870
f 871 872 1452
f 873 874 1450
f 1455 867 868
f 1457 865 866
f 1458 864 865
f 866 867 1456
f 1460 862 863
f 1461 860 861
f 1462 859 860
f 861 862 1460
f 863 864 1459
f 868 869 1454
f 881 1442 1443
f 1444 1445 879
f 1446 1447 877
f 1446 878 1445
f 876 1447 1448
f 1449 1450 874
f 1452 872 1451
f 873 1450 1451
f 1448 1449 875
f 870 1452 1453
f 1454 1455 868
f 1457 866 1456
f 867 1455 1456
f 1457 1458 865
f 1460 863 1459
f 860 1461 1462
f 1460 1461 861
f 1459 864 1458
f 869 1453 1454
f 1462 1463 859
f 858 1463 1464
f 855 856 1465
f 1464 1465 857
f 855 1465 1466
f 858 1464 857
f 1468 854 1467
f 856 857 1465
f 1469 853 1468
f 1466 1467 855
f 858 859 1463
f 851 1470 1471
f 1472 1473 1319
f 1472 1319 1471
f 1319 1473 1474
f 1475 1476 1319
f 1478 1318 1477
f 1319 1476 1477
f 1474 1475 1319
f 1470 852 1469
f 1318 1478 1479
f 1444 880 1443
f 1331 980 981
f 1327 983 984
f 1329 982 983
f 1330 981 982
f 1336 975 976
f 1333 978 979
f 1334 977 978
f 1335 976 977
f 979 980 1332
f 855 1467 854
f 1319 990 991
f 1468 853 854
f 1325 985 986
f 1321 988 989
f 1322 987 988
f 1324 986 987
f 989 990 1319
f 1326 984 985
f 1347 966 967
f 1344 969 970
f 1345 968 969
f 1346 967 968
f 1349 965 1348
f 1350 1351 1352
f 964 1349 1350
f 1348 965 966
f 964 965 1349
f 1343 970 1342
f 1341 971 972
f 1339 973 974
f 975 1337 974
f 972 973 1340
f 1343 1344 970
f 966 1347 1348
f 1345 1346 968
f 1347 967 1346
f 969 1344 1345
f 1342 970 971
f 991 992 1319
f 992 851 1319
f 851 852 1470
f 1318 1480 1481
f 1312 1318 1481
f 1471 1319 851
f 853 1469 852
f 1316 1317 1318
f 988 1321 1322
f 1320 1321 989
f 1320 989 1319
f 1318 1319 1477
f 1322 1323 987
f 1483 1484 1481
f 1311 1481 1310
f 1481 1484 1310
f 1311 1312 1481
f 1316 1318 1315
f 1314 1315 1318
f 1318 1313 1314
f 1312 1313 1318
f 1481 1482 1483
f 975 1336 1337
f 976 1335 1336
f 977 1334 1335
f 1337 1338 974
f 1341 1342 971
f 1340 973 1339
f 972 1340 1341
f 1338 1339 974
f 1333 1334 978
f 984 1326 1327
f 1324 1325 986
f 1326 985 1325
f 983 1327 1328
f 1333 979 1332
f 981 1330 1331
f 1331 1332 980
f 1328 1329 983
f 982 1329 1330
f 987 1323 1324
f 1480 1318 1479
f 1235 1234 775
f 774 1236 1235
f 776 1234 1233
f 1231 778 1232
f 776 1233 777
f 1233 1232 777
f 1230 779 1231
f 773 1237 1236
f 765 1244 1243
f 763 1246 1245
f 1244 764 1245
f 1242 767 1243
f 1239 770 1240
f 768 1242 1241
f 1241 1240 769
f 1238 771 1239
f 1238 1237 772
f 1247 1246 762
f 1221 1220 1206
f 1204 1224 1223
f 1222 1205 1223
f 1222 1221 1206
f 1216 1215 1217
f 1208 1219 1218
f 1217 1209 1218
f 1220 1219 1207
f 1225 1224 1203
f 1226 782 1227
f 1228 781 1229
f 1232 778 777
f 1228 1227 782
f 779 778 1231
f 782 781 1228
f 1229 780 1230
f 1230 780 779
f 1229 781 780
f 782 1226 1225
f 1203 782 1225
f 1248 1247 761
f 1251 756 1252
f 1253 754 1254
f 1253 1252 755
f 754 753 1254
f 1249 758 1250
f 757 1251 1250
f 1252 756 755
f 754 1253 755
f 757 756 1251
f 1255 1254 753
f 1256 751 1257
f 1258 750 749
f 750 1258 1257
f 1258 749 748
f 1257 751 750
f 1255 753 752
f 747 1259 748
f 1256 752 751
f 1258 748 1259
f 1255 752 1256
f 1239 771 770
f 1241 769 768
f 1242 768 767
f 769 1240 770
f 1234 776 775
f 1236 774 773
f 1237 773 772
f 774 1235 775
f 1238 772 771
f 1248 761 760
f 759 758 1249
f 758 757 1250
f 759 1248 760
f 1243 766 765
f 1245 764 763
f 1246 763 762
f 764 1244 765
f 1247 762 761
f 766 1243 767
f 1249 1248 759
f 1212 1209 1213
f 1213 1209 1214
f 1215 1214 1217
f 1211 1210 1209
f 1209 1212 1211
f 1214 1209 1217
f 1209 1208 1218
f 1208 1207 1219
f 1204 1223 1205
f 785 1200 786
f 784 1200 785
f 783 1201 784
f 1205 1222 1206
f 788 1198 789
f 787 1198 788
f 786 1199 787
f 789 1198 790
f 1220 1207 1206
f 783 782 1203
f 1201 783 1202
f 786 1200 1199
f 784 1201 1200
f 1203 1202 783
f 1198 1197 790
f 799 1196 1195
f 793 1197 1196
f 1199 1198 787
f 1203 1224 1204
f 1192 802 1193
f 805 1191 1190
f 804 1192 1191
f 1194 1193 801
f 806 1190 1189
f 1189 1188 807
f 1188 1187 808
f 1187 1186 809
f 1195 1194 800
f 1186 1185 810
f 791 790 1197
f 1197 793 792
f 1196 796 795
f 1196 795 794
f 1196 794 793
f 1196 798 797
f 1194 801 800
f 1195 800 799
f 1196 799 798
f 1196 797 796
f 1192 803 802
f 1190 806 805
f 1191 805 804
f 1192 804 803
f 1188 808 807
f 1185 811 810
f 1186 810 809
f 1187 809 808
f 1189 807 806
f 1193 802 801
f 812 811 1184
f 815 814 1182
f 814 813 1183
f 813 812 1184
f 813 1184 1183
f 1183 1182 814
f 1181 815 1182
f 816 1181 1180
f 815 1181 816
f 1185 1184 811
f 1179 817 1180
f 821 1177 1175
f 818 817 1179
f 1179 1178 819
f 1177 820 1178
f 820 1177 821
f 1178 820 819
f 818 1179 819
f 822 821 1175
f 1180 817 816
f 1197 792 791
f 747 1260 1259
f 1260 747 746
f 1261 1260 746
f 1261 746 745
f 744 1262 745
f 742 1264 743
f 741 1265 742
f 744 743 1263
f 1261 745 1262
f 1264 1263 743
f 1266 1265 741
f 742 1265 1264
f 1266 741 740
f 740 739 1267
f 738 737 1269
f 1268 739 738
f 737 736 1270
f 1266 740 1267
f 744 1263 1262
f 735 1271 736
f 733 1273 734
f 732 1274 733
f 735 734 1272
f 730 1276 731
f 728 1277 729
f 727 1278 728
f 730 729 1277
f 732 731 1275
f 725 1280 726
f 723 1282 724
f 722 1283 723
f 725 724 1281
f 720 1285 721
f 718 1286 719
f 717 1287 718
f 720 719 1285
f 722 721 1284
f 727 726 1279
f 1267 739 1268
f 1270 1269 737
f 1272 1271 735
f 736 1271 1270
f 1272 734 1273
f 1275 1274 732
f 730 1277 1276
f 1275 731 1276
f 1274 1273 733
f 1277 728 1278
f 1280 1279 726
f 724 1282 1281
f 1280 725 1281
f 1283 1282 723
f 721 1285 1284
f 1286 718 1287
f 1286 1285 719
f 722 1284 1283
f 1278 727 1279
f 1288 1287 717
f 1288 716 1289
f 714 713 1290
f 1290 1289 715
f 1290 713 1291
f 1289 716 715
f 712 1293 1292
f 715 714 1290
f 711 1294 1293
f 1292 1291 713
f 717 716 1288
f 1295 709 1296
f 1298 1297 1144
f 1144 1297 1296
f 1298 1144 1299
f 1301 1300 1144
f 1143 1303 1302
f 1301 1144 1302
f 1300 1299 1144
f 710 1295 1294
f 1303 1143 1304
f 738 1269 1268
f 838 1156 839
f 841 1152 842
f 840 1154 841
f 839 1155 840
f 833 1161 834
f 836 1158 837
f 835 1159 836
f 834 1160 835
f 838 837 1157
f 1292 713 712
f 848 1144 849
f 711 1293 712
f 843 1150 844
f 846 1146 847
f 845 1147 846
f 844 1149 845
f 848 847 1144
f 842 1151 843
f 824 1172 825
f 827 1169 828
f 826 1170 827
f 825 1171 826
f 823 1174 1173
f 1176 1175 1177
f 1174 822 1175
f 823 1173 824
f 823 822 1174
f 828 1168 1167
f 829 1166 830
f 831 1164 832
f 1162 833 832
f 831 830 1165
f 1169 1168 828
f 1172 824 1173
f 1171 1170 826
f 825 1172 1171
f 1169 827 1170
f 828 1167 829
f 850 849 1144
f 709 850 1144
f 710 709 1295
f 1305 1143 1306
f 1143 1137 1306
f 1144 1296 709
f 1294 711 710
f 1142 1141 1143
f 1146 846 1147
f 1146 1145 847
f 847 1145 1144
f 1144 1143 1302
f 1148 1147 845
f 1309 1308 1306
f 1306 1136 1135
f 1309 1306 1135
f 1137 1136 1306
f 1143 1141 1140
f 1140 1139 1143
f 1138 1143 1139
f 1138 1137 1143
f 1307 1306 1308
f 1161 833 1162
f 1160 834 1161
f 1159 835 1160
f 1163 1162 832
f 1167 1166 829
f 831 1165 1164
f 1165 830 1166
f 1164 1163 832
f 1159 1158 836
f 1151 842 1152
f 1150 1149 844
f 843 1151 1150
f 1152 841 1153
f 837 1158 1157
f 1155 839 1156
f 1157 1156 838
f 1154 1153 841
f 1154 840 1155
f 1148 845 1149
f 1143 1305 1304
f 993 709 710
f 993 710 852
f 993 852 851
f 993 851 709
f 994 710 711
f 994 711 853
f 994 853 852
f 994 852 710
f 995 711 712
f 995 712 854
f 995 854 853
f 995 853 711
f 996 712 713
f 996 713 855
f 996 855 854
f 996 854 712
f 997 713 714
f 997 714 856
f 997 856 855
f 997 855 713
f 998 714 715
f 998 715 857
f 998 857 856
f 998 856 714
f 999 715 716
f 999 716 858
f 999 858 857
f 999 857 715
f 1000 716 717
f 1000 717 859
f 1000 859 858
f 1000 858 716
f 1001 717 718
f 1001 718 860
f 1001 860 859
f 1001 859 717
f 1002 718 719
f 1002 719 861
f 1002 861 860
f 1002 860 718
f 1003 719 720
f 1003 720 862
f 1003 862 861
f 1003 861 719
f 1004 720 721
f 1004 721 863
f 1004 863 862
f 1004 862 720
f 1005 721 722
f 1005 722 864
f 1005 864 863
f 1005 863 721
f 1006 722 723
f 1006 723 865
f 1006 865 864
f 1006 864 722
f 1007 723 724
f 1007 724 866
f 1007 866 865
f 1007 865 723
f 1008 724 725
f 1008 725 867
f 1008 867 866
f 1008 866 724
f 1009 725 726
f 1009 726 868
f 1009 868 867
f 1009 867 725
f 1010 726 727
f 1010 727 869
f 1010 869 868
f 1010 868 726
f 1011 727 728
f 1011 728 870
f 1011 870 869
f 1011 869 727
f 1012 728 729
f 1012 729 871
f 1012 871 870
f 1012 870 728
f 1013 729 730
f 1013 730 872
f 1013 872 871
f 1013 871 729
f 1014 730 731
f 1014 731 873
f 1014 873 872
f 1014 872 730
f 1015 731 732
f 1015 732 874
f 1015 874 873
f 1015 873 731
f 1016 732 733
f 1016 733 875
f 1016 875 874
f 1016 874 732
f 1017 733 734
f 1017 734 876
f 1017 876 875
f 1017 875 733
f 1018 734 735
f 1018 735 877
f 1018 877 876
f 1018 876 734
f 1019 735 736
f 1019 736 878
f 1019 878 877
f 1019 877 735
f 1020 736 737
f 1020 737 879
f 1020 879 878
f 1020 878 736
f 1021 737 738
f 1021 738 880
f 1021 880 879
f 1021 879 737
f 1022 738 739
f 1022 739 881
f 1022 881 880
f 1022 880 738
f 1023 739 740
f 1023 740 882
f 1023 882 881
f 1023 881 739
f 1024 740 741
f 1024 741 883
f 1024 883 882
f 1024 882 740
f 1025 741 742
f 1025 742 884
f 1025 884 883
f 1025 883 741
f 1026 742 743
f 1026 743 885
f 1026 885 884
f 1026 884 742
f 1027 743 744
f 1027 744 886
f 1027 886 885
f 1027 885 743
f 1028 744 745
f 1028 745 887
f 1028 887 886
f 1028 886 744
f 1029 745 746
f 1029 746 888
f 1029 888 887
f 1029 887 745
f 1030 746 747
f 1030 747 889
f 1030 889 888
f 1030 888 746
f 1031 747 748
f 1031 748 890
f 1031 890 889
f 1031 889 747
f 1032 748 749
f 1032 749 891
f 1032 891 890
f 1032 890 748
f 1033 749 750
f 1033 750 892
f 1033 892 891
f 1033 891 749
f 1034 750 751
f 1034 751 893
f 1034 893 892
f 1034 892 750
f 1035 751 752
f 1035 752 894
f 1035 894 893
f 1035 893 751
f 1036 752 753
f 1036 753 895
f 1036 895 894
f 1036 894 752
f 1037 753 754
f 1037 754 896
f 1037 896 895
f 1037 895 753
f 1038 754 755
f 1038 755 897
f 1038 897 896
f 1038 896 754
f 1039 755 756
f 1039 756 898
f 1039 898 897
f 1039 897 755
f 1040 756 757
f 1040 757 899
f 1040 899 898
f 1040 898 756
f 1041 757 758
f 1041 758 900
f 1041 900 899
f 1041 899 757
f 1042 758 759
f 1042 759 901
f 1042 901 900
f 1042 900 758
f 1043 759 760
f 1043 760 902
f 1043 902 901
f 1043 901 759
f 1044 760 761
f 1044 761 903
f 1044 903 902
f 1044 902 760
f 1045 761 762
f 1045 762 904
f 1045 904 903
f 1045 903 761
f 1046 762 763
f 1046 763 905
f 1046 905 904
f 1046 904 762
f 1047 763 764
f 1047 764 906
f 1047 906 905
f 1047 905 763
f 1048 764 765
f 1048 765 907
f 1048 907 906
f 1048 906 764
f 1049 765 766
f 1049 766 908
f 1049 908 907
f 1049 907 765
f 1050 766 767
f 1050 767 909
f 1050 909 908
f 1050 908 766
f 1051 767 768
f 1051 768 910
f 1051 910 909
f 1051 909 767
f 1052 768 769
f 1052 769 911
f 1052 911 910
f 1052 910 768
f 1053 769 770
f 1053 770 912
f 1053 912 911
f 1053 911 769
f 1054 770 771
f 1054 771 913
f 1054 913 912
f 1054 912 770
f 1055 771 772
f 1055 772 914
f 1055 914 913
f 1055 913 771
f 1056 772 773
f 1056 773 915
f 1056 915 914
f 1056 914 772
f 1057 773 774
f 1057 774 916
f 1057 916 915
f 1057 915 773
f 1058 774 775
f 1058 775 917
f 1058 917 916
f 1058 916 774
f 1059 775 776
f 1059 776 918
f 1059 918 917
f 1059 917 775
f 1060 776 777
f 1060 777 919
f 1060 919 918
f 1060 918 776
f 1061 777 778
f 1061 778 920
f 1061 920 919
f 1061 919 777
f 1062 778 779
f 1062 779 921
f 1062 921 920
f 1062 920 778
f 1063 779 780
f 1063 780 922
f 1063 922 921
f 1063 921 779
f 1064 780 781
f 1064 781 923
f 1064 923 922
f 1064 922 780
f 1065 781 782
f 1065 782 924
f 1065 924 923
f 1065 923 781
f 1066 782 783
f 1066 783 925
f 1066 925 924
f 1066 924 782
f 1067 783 784
f 1067 784 926
f 1067 926 925
f 1067 925 783
f 1068 784 785
f 1068 785 927
f 1068 927 926
f 1068 926 784
f 1069 785 786
f 1069 786 928
f 1069 928 927
f 1069 927 785
f 1070 786 787
f 1070 787 929
f 1070 929 928
f 1070 928 786
f 1071 787 788
f 1071 788 930
f 1071 930 929
f 1071 929 787
f 1072 788 789
f 1072 789 931
f 1072 931 930
f 1072 930 788
f 1073 789 790
f 1073 790 932
f 1073 932 931
f 1073 931 789
f 1074 790 791
f 1074 791 933
f 1074 933 932
f 1074 932 790
f 1075 791 792
f 1075 792 934
f 1075 934 933
f 1075 933 791
f 1076 792 793
f 1076 793 935
f 1076 935 934
f 1076 934 792
f 1077 793 794
f 1077 794 936
f 1077 936 935
f 1077 935 793
f 1078 794 795
f 1078 795 937
f 1078 937 936
f 1078 936 794
f 1079 795 796
f 1079 796 938
f 1079 938 937
f 1079 937 795
f 1080 796 797
f 1080 797 939
f 1080 939 938
f 1080 938 796
f 1081 797 798
f 1081 798 940
f 1081 940 939
f 1081 939 797
f 1082 798 799
f 1082 799 941
f 1082 941 940
f 1082 940 798
f 1083 799 800
f 1083 800 942
f 1083 942 941
f 1083 941 799
f 1084 800 801
f 1084 801 943
f 1084 943 942
f 1084 942 800
f 1085 801 802
f 1085 802 944
f 1085 944 943
f 1085 943 801
f 1086 802 803
f 1086 803 945
f 1086 945 944
f 1086 944 802
f 1087 803 804
f 1087 804 946
f 1087 946 945
f 1087 945 803
f 1088 804 805
f 1088 805 947
f 1088 947 946
f 1088 946 804
f 1089 805 806
f 1089 806 948
f 1089 948 947
f 1089 947 805
f 1090 806 807
f 1090 807 949
f 1090 949 948
f 1090 948 806
f 1091 807 808
f 1091 808 950
f 1091 950 949
f 1091 949 807
f 1092 808 809
f 1092 809 951
f 1092 951 950
f 1092 950 808
f 1093 809 810
f 1093 810 952
f 1093 952 951
f 1093 951 809
f 1094 810 811
f 1094 811 953
f 1094 953 952
f 1094 952 810
f 1095 811 812
f 1095 812 954
f 1095 954 953
f 1095 953 811
f 1096 812 813
f 1096 813 955
f 1096 955 954
f 1096 954 812
f 1097 813 814
f 1097 814 956
f 1097 956 955
f 1097 955 813
f 1098 814 815
f 1098 815 957
f 1098 957 956
f 1098 956 814
f 1099 815 816
f 1099 816 958
f 1099 958 957
f 1099 957 815
f 1100 816 817
f 1100 817 959
f 1100 959 958
f 1100 958 816
f 1101 817 818
f 1101 818 960
f 1101 960 959
f 1101 959 817
f 1102 818 819
f 1102 819 961
f 1102 961 960
f 1102 960 818
f 1103 819 820
f 1103 820 962
f 1103 962 961
f 1103 961 819
f 1104 820 821
f 1104 821 963
f 1104 963 962
f 1104 962 820
f 1105 821 822
f 1105 822 964
f 1105 964 963
f 1105 963 821
f 1106 822 823
f 1106 823 965
f 1106 965 964
f 1106 964 822
f 1107 823 824
f 1107 824 966
f 1107 966 965
f 1107 965 823
f 1108 824 825
f 1108 825 967
f 1108 967 966
f 1108 966 824
f 1109 825 826
f 1109 826 968
f 1109 968 967
f 1109 967 825
f 1110 826 827
f 1110 827 969
f 1110 969 968
f 1110 968 826
f 1111 827 828
f 1111 828 970
f 1111 970 969
f 1111 969 827
f 1112 828 829
f 1112 829 971
f 1112 971 970
f 1112 970 828
f 1113 829 830
f 1113 830 972
f 1113 972 971
f 1113 971 829
f 1114 830 831
f 1114 831 973
f 1114 973 972
f 1114 972 830
f 1115 831 832
f 1115 832 974
f 1115 974 973
f 1115 973 831
f 1116 832 833
f 1116 833 975
f 1116 975 974
f 1116 974 832
f 1117 833 834
f 1117 834 976
f 1117 976 975
f 1117 975 833
f 1118 834 835
f 1118 835 977
f 1118 977 976
f 1118 976 834
f 1119 835 836
f 1119 836 978
f 1119 978 977
f 1119 977 835
f 1120 836 837
f 1120 837 979
f 1120 979 978
f 1120 978 836
f 1121 837 838
f 1121 838 980
f 1121 980 979
f 1121 979 837
f 1122 838 839
f 1122 839 981
f 1122 981 980
f 1122 980 838
f 1123 839 840
f 1123 840 982
f 1123 982 981
f 1123 981 839
f 1124 840 841
f 1124 841 983
f 1124 983 982
f 1124 982 840
f 1125 841 842
f 1125 842 984
f 1125 984 983
f 1125 983 841
f 1126 842 843
f 1126 843 985
f 1126 985 984
f 1126 984 842
f 1127 843 844
f 1127 844 986
f 1127 986 985
f 1127 985 843
f 1128 844 845
f 1128 845 987
f 1128 987 986
f 1128 986 844
f 1129 845 846
f 1129 846 988
f 1129 988 987
f 1129 987 845
f 1130 846 847
f 1130 847 989
f 1130 989 988
f 1130 988 846
f 1131 847 848
f 1131 848 990
f 1131 990 989
f 1131 989 847
f 1132 848 849
f 1132 849 991
f 1132 991 990
f 1132 990 848
f 1133 849 850
f 1133 850 992
f 1133 992 991
f 1133 991 849
f 1134 850 709
f 1134 709 851
f 1134 851 992
f 1134 992 850
f 1485 1135 1136
f 1485 1136 1311
f 1485 1311 1310
f 1485 1310 1135
f 1486 1136 1137
f 1486 1137 1312
f 1486 1312 1311
f 1486 1311 1136
f 1487 1137 1138
f 1487 1138 1313
f 1487 1313 1312
f 1487 1312 1137
f 1488 1138 1139
f 1488 1139 1314
f 1488 1314 1313
f 1488 1313 1138
f 1489 1139 1140
f 1489 1140 1315
f 1489 1315 1314
f 1489 1314 1139
f 1490 1140 1141
f 1490 1141 1316
f 1490 1316 1315
f 1490 1315 1140
f 1491 1141 1142
f 1491 1142 1317
f 1491 1317 1316
f 1491 1316 1141
f 1492 1142 1143
f 1492 1143 1318
f 1492 1318 1317
f 1492 1317 1142
f 1493 1143 1144
f 1493 1144 1319
f 1493 1319 1318
f 1493 1318 1143
f 1494 1144 1145
f 1494 1145 1320
f 1494 1320 1319
f 1494 1319 1144
f 1495 1145 1146
f 1495 1146 1321
f 1495 1321 1320
f 1495 1320 1145
f 1496 1146 1147
f 1496 1147 1322
f 1496 1322 1321
f 1496 1321 1146
f 1497 1147 1148
f 1497 1148 1323
f 1497 1323 1322
f 1497 1322 1147
f 1498 1148 1149
f 1498 1149 1324
f 1498 1324 1323
f 1498 1323 1148
f 1499 1149 1150
f 1499 1150 1325
f 1499 1325 1324
f 1499 1324 1149
f 1500 1150 1151
f 1500 1151 1326
f 1500 1326 1325
f 1500 1325 1150
f 1501 1151 1152
f 1501 1152 1327
f 1501 1327 1326
f 1501 1326 1151
f 1502 1152 1153
f 1502 1153 1328
f 1502 1328 1327
f 1502 1327 1152
f 1503 1153 1154
f 1503 1154 1329
f 1503 1329 1328
f 1503 1328 1153
f 1504 1154 1155
f 1504 1155 1330
f 1504 1330 1329
f 1504 1329 1154
f 1505 1155 1156
f 1505 1156 1331
f 1505 1331 1330
f 1505 1330 1155
f 1506 1156 1157
f 1506 1157 1332
f 1506 1332 1331
f 1506 1331 1156
f 1507 1157 1158
f 1507 1158 1333
f 1507 1333 1332
f 1507 1332 1157
f 1508 1158 1159
f 1508 1159 1334
f 1508 1334 1333
f 1508 1333 1158
f 1509 1159 1160
f 1509 1160 1335
f 1509 1335 1334
f 1509 1334 1159
f 1510 1160 1161
f 1510 1161 1336
f 1510 1336 1335
f 1510 1335 1160
f 1511 1161 1162
f 1511 1162 1337
f 1511 1337 1336
f 1511 1336 1161
f 1512 1162 1163
f 1512 1163 1338
f 1512 1338 1337
f 1512 1337 1162
f 1513 1163 1164
f 1513 1164 1339
f 1513 1339 1338
f 1513 1338 1163
f 1514 1164 1165
f 1514 1165 1340
f 1514 1340 1339
f 1514 1339 1164
f 1515 1165 1166
f 1515 1166 1341
f 1515 1341 1340
f 1515 1340 1165
f 1516 1166 1167
f 1516 1167 1342
f 1516 1342 1341
f 1516 1341 1166
f 1517 1167 1168
f 1517 1168 1343
f 1517 1343 1342
f 1517 1342 1167
f 1518 1168 1169
f 1518 1169 1344
f 1518 1344 1343
f 1518 1343 1168
f 1519 1169 1170
f 1519 1170 1345
f 1519 1345 1344
f 1519 1344 1169
f 1520 1170 1171
f 1520 1171 1346
f 1520 1346 1345
f 1520 1345 1170
f 1521 1171 1172
f 1521 1172 1347
f 1521 1347 1346
f 1521 1346 1171
f 1522 1172 1173
f 1522 1173 1348
f 1522 1348 1347
f 1522 1347 1172
f 1523 1173 1174
f 1523 1174 1349
f 1523 1349 1348
f 1523 1348 1173
f 1524 1174 1175
f 1524 1175 1350
f 1524 1350 1349
f 1524 1349 1174
f 1525 1175 1176
f 1525 1176 1351
f 1525 1351 1350
f 1525 1350 1175
f 1526 1176 1177
f 1526 1177 1352
f 1526 1352 1351
f 1526 1351 1176
f 1527 1177 1178
f 1527 1178 1353
f 1527 1353 1352
f 1527 1352 1177
f 1528 1178 1179
f 1528 1179 1354
f 1528 1354 1353
f 1528 1353 1178
f 1529 1179 1180
f 1529 1180 1355
f 1529 1355 1354
f 1529 1354 1179
f 1530 1180 1181
f 1530 1181 1356
f 1530 1356 1355
f 1530 1355 1180
f 1531 1181 1182
f 1531 1182 1357
f 1531 1357 1356
f 1531 1356 1181
f 1532 1182 1183
f 1532 1183 1358
f 1532 1358 1357
f 1532 1357 1182
f 1533 1183 1184
f 1533 1184 1359
f 1533 1359 1358
f 1533 1358 1183
f 1534 1184 1185
f 1534 1185 1360
f 1534 1360 1359
f 1534 1359 1184
f 1535 1185 1186
f 1535 1186 1361
f 1535 1361 1360
f 1535 1360 1185
f 1536 1186 1187
f 1536 1187 1362
f 1536 1362 1361
f 1536 1361 1186
f 1537 1187 1188
f 1537 1188 1363
f 1537 1363 1362
f 1537 1362 1187
f 1538 1188 1189
f 1538 1189 1364
f 1538 1364 1363
f 1538 1363 1188
f 1539 1189 1190
f 1539 1190 1365
f 1539 1365 1364
f 1539 1364 1189
f 1540 1190 1191
f 1540 1191 1366
f 1540 1366 1365
f 1540 1365 1190
f 1541 1191 1192
f 1541 1192 1367
f 1541 1367 1366
f 1541 1366 1191
f 1542 1192 1193
f 1542 1193 1368
f 1542 1368 1367
f 1542 1367 1192
f 1543 1193 1194
f 1543 1194 1369
f 1543 1369 1368
f 1543 1368 1193
f 1544 1194 1195
f 1544 1195 1370
f 1544 1370 1369
f 1544 1369 1194
f 1545 1195 1196
f 1545 1196 1371
f 1545 1371 1370
f 1545 1370 1195
f 1546 1196 1197
f 1546 1197 1372
f 1546 1372 1371
f 1546 1371 1196
f 1547 1197 1198
f 1547 1198 1373
f 1547 1373 1372
f 1547 1372 1197
f 1548 1198 1199
f 1548 1199 1374
f 1548 1374 1373
f 1548 1373 1198
f 1549 1199 1200
f 1549 1200 1375
f 1549 1375 1374
f 1549 1374 1199
f 1550 1200 1201
f 1550 1201 1376
f 1550 1376 1375
f 1550 1375 1200
f 1551 1201 1202
f 1551 1202 1377
f 1551 1377 1376
f 1551 1376 1201
f 1552 1202 1203
f 1552 1203 1378
f 1552 1378 1377
f 1552 1377 1202
f 1553 1203 1204
f 1553 1204 1379
f 1553 1379 1378
f 1553 1378 1203
f 1554 1204 1205
f 1554 1205 1380
f 1554 1380 1379
f 1554 1379 1204
f 1555 1205 1206
f 1555 1206 1381
f 1555 1381 1380
f 1555 1380 1205
f 1556 1206 1207
f 1556 1207 1382
f 1556 1382 1381
f 1556 1381 1206
f 1557 1207 1208
f 1557 1208 1383
f 1557 1383 1382
f 1557 1382 1207
f 1558 1208 1209
f 1558 1209 1384
f 1558 1384 1383
f 1558 1383 1208
f 1559 1209 1210
f 1559 1210 1385
f 1559 1385 1384
f 1559 1384 1209
f 1560 1210 1211
f 1560 1211 1386
f 1560 1386 1385
f 1560 1385 1210
f 1561 1211 1212
f 1561 1212 1387
f 1561 1387 1386
f 1561 1386 1211
f 1562 1212 1213
f 1562 1213 1388
f 1562 1388 1387
f 1562 1387 1212
f 1563 1213 1214
f 1563 1214 1389
f 1563 1389 1388
f 1563 1388 1213
f 1564 1214 1215
f 1564 1215 1390
f 1564 1390 1389
f 1564 1389 1214
f 1565 1215 1216
f 1565 1216 1391
f 1565 1391 1390
f 1565 1390 1215
f 1566 1216 1217
f 1566 1217 1392
f 1566 1392 1391
f 1566 1391 1216
f 1567 1217 1218
f 1567 1218 1393
f 1567 1393 1392
f 1567 1392 1217
f 1568 1218 1219
f 1568 1219 1394
f 1568 1394 1393
f 1568 1393 1218
f 1569 1219 1220
f 1569 1220 1395
f 1569 1395 1394
f 1569 1394 1219
f 1570 1220 1221
f 1570 1221 1396
f 1570 1396 1395
f 1570 1395 1220
f 1571 1221 1222
f 1571 1222 1397
f 1571 1397 1396
f 1571 1396 1221
f 1572 1222 1223
f 1572 1223 1398
f 1572 1398 1397
f 1572 1397 1222
f 1573 1223 1224
f 1573 1224 1399
f 1573 1399 1398
f 1573 1398 1223
f 1574 1224 1225
f 1574 1225 1400
f 1574 1400 1399
f 1574 1399 1224
f 1575 1225 1226
f 1575 1226 1401
f 1575 1401 1400
f 1575 1400 1225
f 1576 1226 1227
f 1576 1227 1402
f 1576 1402 1401
f 1576 1401 1226
f 1577 1227 1228
f 1577 1228 1403
f 1577 1403 1402
f 1577 1402 1227
f 1578 1228 1229
f 1578 1229 1404
f 1578 1404 1403
f 1578 1403 1228
f 1579 1229 1230
f 1579 1230 1405
f 1579 1405 1404
f 1579 1404 1229
f 1580 1230 1231
f 1580 1231 1406
f 1580 1406 1405
f 1580 1405 1230
f 1581 1231 1232
f 1581 1232 1407
f 1581 1407 1406
f 1581 1406 1231
f 1582 1232 1233
f 1582 1233 1408
f 1582 1408 1407
f 1582 1407 1232
f 1583 1233 1234
f 1583 1234 1409
f 1583 1409 1408
f 1583 1408 1233
f 1584 1234 1235
f 1584 1235 1410
f 1584 1410 1409
f 1584 1409 1234
f 1585 1235 1236
f 1585 1236 1411
f 1585 1411 1410
f 1585 1410 1235
f 1586 1236 1237
f 1586 1237 1412
f 1586 1412 1411
f 1586 1411 1236
f 1587 1237 1238
f 1587 1238 1413
f 1587 1413 1412
f 1587 1412 1237
f 1588 1238 1239
f 1588 1239 1414
f 1588 1414 1413
f 1588 1413 1238
f 1589 1239 1240
f 1589 1240 1415
f 1589 1415 1414
f 1589 1414 1239
f 1590 1240 1241
f 1590 1241 1416
f 1590 1416 1415
f 1590 1415 1240
f 1591 1241 1242
f 1591 1242 1417
f 1591 1417 1416
f 1591 1416 1241
f 1592 1242 1243
f 1592 1243 1418
f 1592 1418 1417
f 1592 1417 1242
f 1593 1243 1244
f 1593 1244 1419
f 1593 1419 1418
f 1593 1418 1243
f 1594 1244 1245
f 1594 1245 1420
f 1594 1420 1419
f 1594 1419 1244
f 1595 1245 1246
f 1595 1246 1421
f 1595 1421 1420
f 1595 1420 1245
f 1596 1246 1247
f 1596 1247 1422
f 1596 1422 1421
f 1596 1421 1246
f 1597 1247 1248
f 1597 1248 1423
f 1597 1423 1422
f 1597 1422 1247
f 1598 1248 1249
f 1598 1249 1424
f 1598 1424 1423
f 1598 1423 1248
f 1599 1249 1250
f 1599 1250 1425
f 1599 1425 1424
f 1599 1424 1249
f 1600 1250 1251
f 1600 1251 1426
f 1600 1426 1425
f 1600 1425 1250
f 1601 1251 1252
f 1601 1252 1427
f 1601 1427 1426
f 1601 1426 1251
f 1602 1252 1253
f 1602 1253 1428
f 1602 1428 1427
f 1602 1427 1252
f 1603 1253 1254
f 1603 1254 1429
f 1603 1429 1428
f 1603 1428 1253
f 1604 1254 1255
f 1604 1255 1430
f 1604 1430 1429
f 1604 1429 1254
f 1605 1255 1256
f 1605 1256 1431
f 1605 1431 1430
f 1605 1430 1255
f 1606 1256 1257
f 1606 1257 1432
f 1606 1432 1431
f 1606 1431 1256
f 1607 1257 1258
f 1607 1258 1433
f 1607 1433 1432
f 1607 1432 1257
f 1608 1258 1259
f 1608 1259 1434
f 1608 1434 1433
f 1608 1433 1258
f 1609 1259 1260
f 1609 1260 1435
f 1609 1435 1434
f 1609 1434 1259
f 1610 1260 1261
f 1610 1261 1436
f 1610 1436 1435
f 1610 1435 1260
f 1611 1261 1262
f 1611 1262 1437
f 1611 1437 1436
f 1611 1436 1261
f 1612 1262 1263
f 1612 1263 1438
f 1612 1438 1437
f 1612 1437 1262
f 1613 1263 1264
f 1613 1264 1439
f 1613 1439 1438
f 1613 1438 1263
f 1614 1264 1265
f 1614 1265 1440
f 1614 1440 1439
f 1614 1439 1264
f 1615 1265 1266
f 1615 1266 1441
f 1615 1441 1440
f 1615 1440 1265
f 1616 1266 1267
f 1616 1267 1442
f 1616 1442 1441
f 1616 1441 1266
f 1617 1267 1268
f 1617 1268 1443
f 1617 1443 1442
f 1617 1442 1267
f 1618 1268 1269
f 1618 1269 1444
f 1618 1444 1443
f 1618 1443 1268
f 1619 1269 1270
f 1619 1270 1445
f 1619 1445 1444
f 1619 1444 1269
f 1620 1270 1271
f 1620 1271 1446
f 1620 1446 1445
f 1620 1445 1270
f 1621 1271 1272
f 1621 1272 1447
f 1621 1447 1446
f 1621 1446 1271
f 1622 1272 1273
f 1622 1273 1448
f 1622 1448 1447
f 1622 1447 1272
f 1623 1273 1274
f 1623 1274 1449
f 1623 1449 1448
f 1623 1448 1273
f 1624 1274 1275
f 1624 1275 1450
f 1624 1450 1449
f 1624 1449 1274
f 1625 1275 1276
f 1625 1276 1451
f 1625 1451 1450
f 1625 1450 1275
f 1626 1276 1277
f 1626 1277 1452
f 1626 1452 1451
f 1626 1451 1276
f 1627 1277 1278
f 1627 1278 1453
f 1627 1453 1452
f 1627 1452 1277
f 1628 1278 1279
f 1628 1279 1454
f 1628 1454 1453
f 1628 1453 1278
f 1629 1279 1280
f 1629 1280 1455
f 1629 1455 1454
f 1629 1454 1279
f 1630 1280 1281
f 1630 1281 1456
f 1630 1456 1455
f 1630 1455 1280
f 1631 1281 1282
f 1631 1282 1457
f 1631 1457 1456
f 1631 1456 1281
f 1632 1282 1283
f 1632 1283 1458
f 1632 1458 1457
f 1632 1457 1282
f 1633 1283 1284
f 1633 1284 1459
f 1633 1459 1458
f 1633 1458 1283
f 1634 1284 1285
f 1634 1285 1460
f 1634 1460 1459
f 1634 1459 1284
f 1635 1285 1286
f 1635 1286 1461
f 1635 1461 1460
f 1635 1460 1285
f 1636 1286 1287
f 1636 1287 1462
f 1636 1462 1461
f 1636 1461 1286
f 1637 1287 1288
f 1637 1288 1463
f 1637 1463 1462
f 1637 1462 1287
f 1638 1288 1289
f 1638 1289 1464
f 1638 1464 1463
f 1638 1463 1288
f 1639 1289 1290
f 1639 1290 1465
f 1639 1465 1464
f 1639 1464 1289
f 1640 1290 1291
f 1640 1291 1466
f 1640 1466 1465
f 1640 1465 1290
f 1641 1291 1292
f 1641 1292 1467
f 1641 1467 1466
f 1641 1466 1291
f 1642 1292 1293
f 1642 1293 1468
f 1642 1468 1467
f 1642 1467 1292
f 1643 1293 1294
f 1643 1294 1469
f 1643 1469 1468
f 1643 1468 1293
f 1644 1294 1295
f 1644 1295 1470
f 1644 1470 1469
f 1644 1469 1294
f 1645 1295 1296
f 1645 1296 1471
f 1645 1471 1470
f 1645 1470 1295
f 1646 1296 1297
f 1646 1297 1472
f 1646 1472 1471
f 1646 1471 1296
f 1647 1297 1298
f 1647 1298 1473
f 1647 1473 1472
f 1647 1472 1297
f 1648 1298 1299
f 1648 1299 1474
f 1648 1474 1473
f 1648 1473 1298
f 1649 1299 1300
f 1649 1300 1475
f 1649 1475 1474
f 1649 1474 1299
f 1650 1300 1301
f 1650 1301 1476
f 1650 1476 1475
f 1650 1475 1300
f 1651 1301 1302
f 1651 1302 1477
f 1651 1477 1476
f 1651 1476 1301
f 1652 1302 1303
f 1652 1303 1478
f 1652 1478 1477
f 1652 1477 1302
f 1653 1303 1304
f 1653 1304 1479
f 1653 1479 1478
f 1653 1478 1303
f 1654 1304 1305
f 1654 1305 1480
f 1654 1480 1479
f 1654 1479 1304
f 1655 1305 1306
f 1655 1306 1481
f 1655 1481 1480
f 1655 1480 1305
f 1656 1306 1307
f 1656 1307 1482
f 1656 1482 1481
f 1656 1481 1306
f 1657 1307 1308
f 1657 1308 1483
f 1657 1483 1482
f 1657 1482 1307
f 1658 1308 1309
f 1658 1309 1484
f 1658 1484 1483
f 1658 1483 1308
f 1659 1309 1135
f 1659 1135 1310
f 1659 1310 1484
f 1659 1484 1309
