g groupNumber_0
v 13.8649 -7.1278 -3.4947
v 14.1200 -6.7164 -3.4947
v 13.6884 -6.9651 -3.4947
v 13.2481 -7.1999 -3.4947
v 12.7993 -7.4206 -3.4947
v 12.3423 -7.6268 -3.4947
v 11.8775 -7.8182 -3.4947
v 11.4051 -7.9945 -3.4947
v 10.9254 -8.1555 -3.4947
v 10.4388 -8.3007 -3.4947
v 9.9455 -8.4300 -3.4947
v 9.4458 -8.5431 -3.4947
v 8.9400 -8.6395 -3.4947
v 8.4285 -8.7192 -3.4947
v 7.9114 -8.7816 -3.4947
v 7.3892 -8.8265 -3.4947
v 6.8621 -8.8537 -3.4947
v 6.3304 -8.8629 -3.4947
v 5.9382 -8.8579 -3.4947
v 5.5485 -8.8431 -3.4947
v 5.1614 -8.8186 -3.4947
v 4.7770 -8.7844 -3.4947
v 4.3953 -8.7408 -3.4947
v 4.0166 -8.6878 -3.4947
v 3.6409 -8.6256 -3.4947
v 3.2684 -8.5542 -3.4947
v 2.8992 -8.4738 -3.4947
v 2.5334 -8.3846 -3.4947
v 2.1711 -8.2865 -3.4947
v 1.8124 -8.1798 -3.4947
v 1.4575 -8.0646 -3.4947
v 1.1064 -7.9410 -3.4947
v 0.7594 -7.8090 -3.4947
v 0.4165 -7.6689 -3.4947
v 0.0778 -7.5208 -3.4947
v -0.2565 -7.3647 -3.4947
v -0.5864 -7.2008 -3.4947
v -0.9116 -7.0291 -3.4947
v -1.2322 -6.8499 -3.4947
v -1.5479 -6.6633 -3.4947
v -1.8586 -6.4693 -3.4947
v -2.1643 -6.2681 -3.4947
v -2.4648 -6.0598 -3.4947
v -2.7600 -5.8445 -3.4947
v -3.0497 -5.6224 -3.4947
v -3.3339 -5.3935 -3.4947
v -3.6124 -5.1580 -3.4947
v -3.8852 -4.9159 -3.4947
v -4.1520 -4.6676 -3.4947
v -4.4128 -4.4129 -3.4947
v -4.6675 -4.1521 -3.4947
v -4.9159 -3.8852 -3.4947
v -5.1579 -3.6125 -3.4947
v -5.3934 -3.3340 -3.4947
v -5.6223 -3.0497 -3.4947
v -5.8445 -2.7600 -3.4947
v -6.0598 -2.4648 -3.4947
v -6.2681 -2.1643 -3.4947
v -6.4693 -1.8586 -3.4947
v -6.6633 -1.5479 -3.4947
v -6.8499 -1.2322 -3.4947
v -7.0291 -0.9116 -3.4947
v -7.2007 -0.5864 -3.4947
v -7.3646 -0.2565 -3.4947
v -7.5207 0.0778 -3.4947
v -7.6689 0.4165 -3.4947
v -7.8090 0.7594 -3.4947
v -7.9409 1.1064 -3.4947
v -8.0646 1.4574 -3.4947
v -8.1798 1.8123 -3.4947
v -8.2865 2.1710 -3.4947
v -8.3845 2.5333 -3.4947
v -8.4738 2.8992 -3.4947
v -8.5542 3.2684 -3.4947
v -8.6255 3.6409 -3.4947
v -8.6878 4.0166 -3.4947
v -8.7408 4.3953 -3.4947
v -8.7844 4.7769 -3.4947
v -8.8185 5.1614 -3.4947
v -8.8431 5.5485 -3.4947
v -8.8579 5.9382 -3.4947
v -8.8628 6.3304 -3.4947
v -8.8537 6.8621 -3.4947
v -8.8265 7.3892 -3.4947
v -8.7815 7.9114 -3.4947
v -8.7191 8.4284 -3.4947
v -8.6395 8.9400 -3.4947
v -8.5430 9.4458 -3.4947
v -8.4300 9.9455 -3.4947
v -8.3007 10.4388 -3.4947
v -8.1554 10.9254 -3.4947
v -7.9945 11.4051 -3.4947
v -7.8182 11.8775 -3.4947
v -7.6268 12.3423 -3.4947
v -7.4206 12.7993 -3.4947
v -7.1999 13.2481 -3.4947
v -6.9651 13.6884 -3.4947
v -6.7164 14.1200 -3.4947
v -7.1278 13.8649 -3.4947
v -7.5303 13.5971 -3.4947
v -7.9237 13.3171 -3.4947
v -8.3077 13.0250 -3.4947
v -8.6820 12.7211 -3.4947
v -9.0463 12.4057 -3.4947
v -9.4004 12.0791 -3.4947
v -9.7440 11.7416 -3.4947
v -10.0768 11.3934 -3.4947
v -10.3985 11.0348 -3.4947
v -10.7089 10.6661 -3.4947
v -11.0077 10.2876 -3.4947
v -11.2946 9.8994 -3.4947
v -11.5693 9.5020 -3.4947
v -11.8316 9.0956 -3.4947
v -12.0811 8.6804 -3.4947
v -12.3177 8.2568 -3.4947
v -12.5410 7.8250 -3.4947
v -12.7508 7.3852 -3.4947
v -12.9467 6.9378 -3.4947
v -13.1286 6.4831 -3.4947
v -13.2960 6.0212 -3.4947
v -13.4489 5.5525 -3.4947
v -13.5868 5.0773 -3.4947
v -13.7095 4.5959 -3.4947
v -13.8168 4.1084 -3.4947
v -13.9083 3.6152 -3.4947
v -13.9838 3.1166 -3.4947
v -14.0430 2.6128 -3.4947
v -14.0856 2.1041 -3.4947
v -14.1113 1.5909 -3.4947
v -14.1200 1.0732 -3.4947
v -14.1150 0.6811 -3.4947
v -14.1002 0.2914 -3.4947
v -14.0757 -0.0957 -3.4947
v -14.0416 -0.4802 -3.4947
v -13.9979 -0.8618 -3.4947
v -13.9449 -1.2406 -3.4947
v -13.8827 -1.6162 -3.4947
v -13.8113 -1.9887 -3.4947
v -13.7309 -2.3580 -3.4947
v -13.6417 -2.7238 -3.4947
v -13.5436 -3.0861 -3.4947
v -13.4369 -3.4448 -3.4947
v -13.3217 -3.7997 -3.4947
v -13.1981 -4.1507 -3.4947
v -13.0661 -4.4977 -3.4947
v -12.9260 -4.8407 -3.4947
v -12.7779 -5.1793 -3.4947
v -12.6218 -5.5137 -3.4947
v -12.4579 -5.8435 -3.4947
v -12.2863 -6.1688 -3.4947
v -12.1071 -6.4893 -3.4947
v -11.9204 -6.8050 -3.4947
v -11.7264 -7.1158 -3.4947
v -11.5252 -7.4215 -3.4947
v -11.3169 -7.7219 -3.4947
v -11.1016 -8.0171 -3.4947
v -10.8795 -8.3069 -3.4947
v -10.6506 -8.5911 -3.4947
v -10.4151 -8.8696 -3.4947
v -10.1731 -9.1424 -3.4947
v -9.9247 -9.4092 -3.4947
v -9.6700 -9.6700 -3.4947
v -9.4092 -9.9247 -3.4947
v -9.1424 -10.1731 -3.4947
v -8.8696 -10.4151 -3.4947
v -8.5911 -10.6506 -3.4947
v -8.3069 -10.8795 -3.4947
v -8.0171 -11.1016 -3.4947
v -7.7219 -11.3169 -3.4947
v -7.4215 -11.5252 -3.4947
v -7.1158 -11.7264 -3.4947
v -6.8050 -11.9204 -3.4947
v -6.4893 -12.1071 -3.4947
v -6.1688 -12.2863 -3.4947
v -5.8435 -12.4579 -3.4947
v -5.5137 -12.6218 -3.4947
v -5.1793 -12.7779 -3.4947
v -4.8407 -12.9260 -3.4947
v -4.4977 -13.0661 -3.4947
v -4.1507 -13.1981 -3.4947
v -3.7997 -13.3217 -3.4947
v -3.4448 -13.4369 -3.4947
v -3.0861 -13.5436 -3.4947
v -2.7238 -13.6417 -3.4947
v -2.3580 -13.7309 -3.4947
v -1.9887 -13.8113 -3.4947
v -1.6162 -13.8827 -3.4947
v -1.2406 -13.9449 -3.4947
v -0.8618 -13.9979 -3.4947
v -0.4802 -14.0416 -3.4947
v -0.0957 -14.0757 -3.4947
v 0.2914 -14.1002 -3.4947
v 0.6811 -14.1150 -3.4947
v 1.0732 -14.1200 -3.4947
v 1.5909 -14.1113 -3.4947
v 2.1042 -14.0856 -3.4947
v 2.6128 -14.0430 -3.4947
v 3.1166 -13.9838 -3.4947
v 3.6152 -13.9083 -3.4947
v 4.1084 -13.8168 -3.4947
v 4.5959 -13.7095 -3.4947
v 5.0773 -13.5868 -3.4947
v 5.5526 -13.4489 -3.4947
v 6.0212 -13.2960 -3.4947
v 6.4831 -13.1286 -3.4947
v 6.9378 -12.9467 -3.4947
v 7.3852 -12.7508 -3.4947
v 7.8250 -12.5410 -3.4947
v 8.2568 -12.3177 -3.4947
v 8.6804 -12.0811 -3.4947
v 9.0956 -11.8316 -3.4947
v 9.5020 -11.5693 -3.4947
v 9.8994 -11.2946 -3.4947
v 10.2876 -11.0077 -3.4947
v 10.6661 -10.7089 -3.4947
v 11.0348 -10.3985 -3.4947
v 11.3934 -10.0768 -3.4947
v 11.7416 -9.7440 -3.4947
v 12.0791 -9.4004 -3.4947
v 12.4057 -9.0463 -3.4947
v 12.7211 -8.6820 -3.4947
v 13.0250 -8.3077 -3.4947
v 13.3171 -7.9237 -3.4947
v 13.5971 -7.5303 -3.4947
v 13.8649 -7.1278 3.4947
v 14.1200 -6.7164 3.4947
v 13.6884 -6.9651 3.4947
v 13.2481 -7.1999 3.4947
v 12.7993 -7.4206 3.4947
v 12.3423 -7.6268 3.4947
v 11.8775 -7.8182 3.4947
v 11.4051 -7.9945 3.4947
v 10.9254 -8.1555 3.4947
v 10.4388 -8.3007 3.4947
v 9.9455 -8.4300 3.4947
v 9.4458 -8.5431 3.4947
v 8.9400 -8.6395 3.4947
v 8.4285 -8.7192 3.4947
v 7.9114 -8.7816 3.4947
v 7.3892 -8.8265 3.4947
v 6.8621 -8.8537 3.4947
v 6.3304 -8.8629 3.4947
v 5.9382 -8.8579 3.4947
v 5.5485 -8.8431 3.4947
v 5.1614 -8.8186 3.4947
v 4.7770 -8.7844 3.4947
v 4.3953 -8.7408 3.4947
v 4.0166 -8.6878 3.4947
v 3.6409 -8.6256 3.4947
v 3.2684 -8.5542 3.4947
v 2.8992 -8.4738 3.4947
v 2.5334 -8.3846 3.4947
v 2.1711 -8.2865 3.4947
v 1.8124 -8.1798 3.4947
v 1.4575 -8.0646 3.4947
v 1.1064 -7.9410 3.4947
v 0.7594 -7.8090 3.4947
v 0.4165 -7.6689 3.4947
v 0.0778 -7.5208 3.4947
v -0.2565 -7.3647 3.4947
v -0.5864 -7.2008 3.4947
v -0.9116 -7.0291 3.4947
v -1.2322 -6.8499 3.4947
v -1.5479 -6.6633 3.4947
v -1.8586 -6.4693 3.4947
v -2.1643 -6.2681 3.4947
v -2.4648 -6.0598 3.4947
v -2.7600 -5.8445 3.4947
v -3.0497 -5.6224 3.4947
v -3.3339 -5.3935 3.4947
v -3.6124 -5.1580 3.4947
v -3.8852 -4.9159 3.4947
v -4.1520 -4.6676 3.4947
v -4.4128 -4.4129 3.4947
v -4.6675 -4.1521 3.4947
v -4.9159 -3.8852 3.4947
v -5.1579 -3.6125 3.4947
v -5.3934 -3.3340 3.4947
v -5.6223 -3.0497 3.4947
v -5.8445 -2.7600 3.4947
v -6.0598 -2.4648 3.4947
v -6.2681 -2.1643 3.4947
v -6.4693 -1.8586 3.4947
v -6.6633 -1.5479 3.4947
v -6.8499 -1.2322 3.4947
v -7.0291 -0.9116 3.4947
v -7.2007 -0.5864 3.4947
v -7.3646 -0.2565 3.4947
v -7.5207 0.0778 3.4947
v -7.6689 0.4165 3.4947
v -7.8090 0.7594 3.4947
v -7.9409 1.1064 3.4947
v -8.0646 1.4574 3.4947
v -8.1798 1.8123 3.4947
v -8.2865 2.1710 3.4947
v -8.3845 2.5333 3.4947
v -8.4738 2.8992 3.4947
v -8.5542 3.2684 3.4947
v -8.6255 3.6409 3.4947
v -8.6878 4.0166 3.4947
v -8.7408 4.3953 3.4947
v -8.7844 4.7769 3.4947
v -8.8185 5.1614 3.4947
v -8.8431 5.5485 3.4947
v -8.8579 5.9382 3.4947
v -8.8628 6.3304 3.4947
v -8.8537 6.8621 3.4947
v -8.8265 7.3892 3.4947
v -8.7815 7.9114 3.4947
v -8.7191 8.4284 3.4947
v -8.6395 8.9400 3.4947
v -8.5430 9.4458 3.4947
v -8.4300 9.9455 3.4947
v -8.3007 10.4388 3.4947
v -8.1554 10.9254 3.4947
v -7.9945 11.4051 3.4947
v -7.8182 11.8775 3.4947
v -7.6268 12.3423 3.4947
v -7.4206 12.7993 3.4947
v -7.1999 13.2481 3.4947
v -6.9651 13.6884 3.4947
v -6.7164 14.1200 3.4947
v -7.1278 13.8649 3.4947
v -7.5303 13.5971 3.4947
v -7.9237 13.3171 3.4947
v -8.3077 13.0250 3.4947
v -8.6820 12.7211 3.4947
v -9.0463 12.4057 3.4947
v -9.4004 12.0791 3.4947
v -9.7440 11.7416 3.4947
v -10.0768 11.3934 3.4947
v -10.3985 11.0348 3.4947
v -10.7089 10.6661 3.4947
v -11.0077 10.2876 3.4947
v -11.2946 9.8994 3.4947
v -11.5693 9.5020 3.4947
v -11.8316 9.0956 3.4947
v -12.0811 8.6804 3.4947
v -12.3177 8.2568 3.4947
v -12.5410 7.8250 3.4947
v -12.7508 7.3852 3.4947
v -12.9467 6.9378 3.4947
v -13.1286 6.4831 3.4947
v -13.2960 6.0212 3.4947
v -13.4489 5.5525 3.4947
v -13.5868 5.0773 3.4947
v -13.7095 4.5959 3.4947
v -13.8168 4.1084 3.4947
v -13.9083 3.6152 3.4947
v -13.9838 3.1166 3.4947
v -14.0430 2.6128 3.4947
v -14.0856 2.1041 3.4947
v -14.1113 1.5909 3.4947
v -14.1200 1.0732 3.4947
v -14.1150 0.6811 3.4947
v -14.1002 0.2914 3.4947
v -14.0757 -0.0957 3.4947
v -14.0416 -0.4802 3.4947
v -13.9979 -0.8618 3.4947
v -13.9449 -1.2406 3.4947
v -13.8827 -1.6162 3.4947
v -13.8113 -1.9887 3.4947
v -13.7309 -2.3580 3.4947
v -13.6417 -2.7238 3.4947
v -13.5436 -3.0861 3.4947
v -13.4369 -3.4448 3.4947
v -13.3217 -3.7997 3.4947
v -13.1981 -4.1507 3.4947
v -13.0661 -4.4977 3.4947
v -12.9260 -4.8407 3.4947
v -12.7779 -5.1793 3.4947
v -12.6218 -5.5137 3.4947
v -12.4579 -5.8435 3.4947
v -12.2863 -6.1688 3.4947
v -12.1071 -6.4893 3.4947
v -11.9204 -6.8050 3.4947
v -11.7264 -7.1158 3.4947
v -11.5252 -7.4215 3.4947
v -11.3169 -7.7219 3.4947
v -11.1016 -8.0171 3.4947
v -10.8795 -8.3069 3.4947
v -10.6506 -8.5911 3.4947
v -10.4151 -8.8696 3.4947
v -10.1731 -9.1424 3.4947
v -9.9247 -9.4092 3.4947
v -9.6700 -9.6700 3.4947
v -9.4092 -9.9247 3.4947
v -9.1424 -10.1731 3.4947
v -8.8696 -10.4151 3.4947
v -8.5911 -10.6506 3.4947
v -8.3069 -10.8795 3.4947
v -8.0171 -11.1016 3.4947
v -7.7219 -11.3169 3.4947
v -7.4215 -11.5252 3.4947
v -7.1158 -11.7264 3.4947
v -6.8050 -11.9204 3.4947
v -6.4893 -12.1071 3.4947
v -6.1688 -12.2863 3.4947
v -5.8435 -12.4579 3.4947
v -5.5137 -12.6218 3.4947
v -5.1793 -12.7779 3.4947
v -4.8407 -12.9260 3.4947
v -4.4977 -13.0661 3.4947
v -4.1507 -13.1981 3.4947
v -3.7997 -13.3217 3.4947
v -3.4448 -13.4369 3.4947
v -3.0861 -13.5436 3.4947
v -2.7238 -13.6417 3.4947
v -2.3580 -13.7309 3.4947
v -1.9887 -13.8113 3.4947
v -1.6162 -13.8827 3.4947
v -1.2406 -13.9449 3.4947
v -0.8618 -13.9979 3.4947
v -0.4802 -14.0416 3.4947
v -0.0957 -14.0757 3.4947
v 0.2914 -14.1002 3.4947
v 0.6811 -14.1150 3.4947
v 1.0732 -14.1200 3.4947
v 1.5909 -14.1113 3.4947
v 2.1042 -14.0856 3.4947
v 2.6128 -14.0430 3.4947
v 3.1166 -13.9838 3.4947
v 3.6152 -13.9083 3.4947
v 4.1084 -13.8168 3.4947
v 4.5959 -13.7095 3.4947
v 5.0773 -13.5868 3.4947
v 5.5526 -13.4489 3.4947
v 6.0212 -13.2960 3.4947
v 6.4831 -13.1286 3.4947
v 6.9378 -12.9467 3.4947
v 7.3852 -12.7508 3.4947
v 7.8250 -12.5410 3.4947
v 8.2568 -12.3177 3.4947
v 8.6804 -12.0811 3.4947
v 9.0956 -11.8316 3.4947
v 9.5020 -11.5693 3.4947
v 9.8994 -11.2946 3.4947
v 10.2876 -11.0077 3.4947
v 10.6661 -10.7089 3.4947
v 11.0348 -10.3985 3.4947
v 11.3934 -10.0768 3.4947
v 11.7416 -9.7440 3.4947
v 12.0791 -9.4004 3.4947
v 12.4057 -9.0463 3.4947
v 12.7211 -8.6820 3.4947
v 13.0250 -8.3077 3.4947
v 13.3171 -7.9237 3.4947
v 13.5971 -7.5303 3.4947
v 13.9924 -6.9221 0.0000
v 13.9042 -6.8407 0.0000
v 13.4683 -7.0825 0.0000
v 13.0237 -7.3103 0.0000
v 12.5708 -7.5237 0.0000
v 12.1099 -7.7225 0.0000
v 11.6413 -7.9063 0.0000
v 11.1653 -8.0750 0.0000
v 10.6821 -8.2281 0.0000
v 10.1921 -8.3654 0.0000
v 9.6956 -8.4866 0.0000
v 9.1929 -8.5913 0.0000
v 8.6842 -8.6793 0.0000
v 8.1699 -8.7504 0.0000
v 7.6503 -8.8041 0.0000
v 7.1256 -8.8401 0.0000
v 6.5962 -8.8583 0.0000
v 6.1343 -8.8604 0.0000
v 5.7434 -8.8505 0.0000
v 5.3550 -8.8308 0.0000
v 4.9692 -8.8015 0.0000
v 4.5861 -8.7626 0.0000
v 4.2060 -8.7143 0.0000
v 3.8288 -8.6567 0.0000
v 3.4547 -8.5899 0.0000
v 3.0838 -8.5140 0.0000
v 2.7163 -8.4292 0.0000
v 2.3522 -8.3355 0.0000
v 1.9917 -8.2332 0.0000
v 1.6349 -8.1222 0.0000
v 1.2820 -8.0028 0.0000
v 0.9329 -7.8750 0.0000
v 0.5880 -7.7390 0.0000
v 0.2472 -7.5948 0.0000
v -0.0893 -7.4427 0.0000
v -0.4214 -7.2827 0.0000
v -0.7490 -7.1149 0.0000
v -1.0719 -6.9395 0.0000
v -1.3900 -6.7566 0.0000
v -1.7032 -6.5663 0.0000
v -2.0114 -6.3687 0.0000
v -2.3145 -6.1640 0.0000
v -2.6124 -5.9522 0.0000
v -2.9048 -5.7335 0.0000
v -3.1918 -5.5079 0.0000
v -3.4732 -5.2757 0.0000
v -3.7488 -5.0370 0.0000
v -4.0186 -4.7918 0.0000
v -4.2824 -4.5402 0.0000
v -4.5402 -4.2825 0.0000
v -4.7917 -4.0187 0.0000
v -5.0369 -3.7489 0.0000
v -5.2757 -3.4732 0.0000
v -5.5079 -3.1919 0.0000
v -5.7334 -2.9049 0.0000
v -5.9521 -2.6124 0.0000
v -6.1639 -2.3146 0.0000
v -6.3687 -2.0115 0.0000
v -6.5663 -1.7033 0.0000
v -6.7566 -1.3900 0.0000
v -6.9395 -1.0719 0.0000
v -7.1149 -0.7490 0.0000
v -7.2827 -0.4215 0.0000
v -7.4427 -0.0894 0.0000
v -7.5948 0.2471 0.0000
v -7.7389 0.5879 0.0000
v -7.8750 0.9329 0.0000
v -8.0027 1.2819 0.0000
v -8.1222 1.6349 0.0000
v -8.2331 1.9917 0.0000
v -8.3355 2.3522 0.0000
v -8.4291 2.7162 0.0000
v -8.5140 3.0838 0.0000
v -8.5899 3.4546 0.0000
v -8.6567 3.8287 0.0000
v -8.7143 4.2059 0.0000
v -8.7626 4.5861 0.0000
v -8.8015 4.9691 0.0000
v -8.8308 5.3549 0.0000
v -8.8505 5.7434 0.0000
v -8.8604 6.1343 0.0000
v -8.8583 6.5962 0.0000
v -8.8401 7.1256 0.0000
v -8.8040 7.6503 0.0000
v -8.7503 8.1699 0.0000
v -8.6793 8.6842 0.0000
v -8.5913 9.1929 0.0000
v -8.4865 9.6956 0.0000
v -8.3654 10.1921 0.0000
v -8.2281 10.6821 0.0000
v -8.0749 11.1653 0.0000
v -7.9063 11.6413 0.0000
v -7.7225 12.1099 0.0000
v -7.5237 12.5708 0.0000
v -7.3102 13.0237 0.0000
v -7.0825 13.4683 0.0000
v -6.8407 13.9042 0.0000
v -6.9221 13.9924 0.0000
v -7.3291 13.7310 0.0000
v -7.7270 13.4571 0.0000
v -8.1157 13.1710 0.0000
v -8.4949 12.8730 0.0000
v -8.8642 12.5634 0.0000
v -9.2234 12.2424 0.0000
v -9.5722 11.9104 0.0000
v -9.9104 11.5675 0.0000
v -10.2377 11.2141 0.0000
v -10.5537 10.8505 0.0000
v -10.8583 10.4768 0.0000
v -11.1511 10.0935 0.0000
v -11.4319 9.7007 0.0000
v -11.7004 9.2988 0.0000
v -11.9564 8.8880 0.0000
v -12.1994 8.4686 0.0000
v -12.4294 8.0409 0.0000
v -12.6459 7.6051 0.0000
v -12.8487 7.1615 0.0000
v -13.0376 6.7104 0.0000
v -13.2123 6.2521 0.0000
v -13.3725 5.7869 0.0000
v -13.5178 5.3149 0.0000
v -13.6482 4.8366 0.0000
v -13.7631 4.3521 0.0000
v -13.8625 3.8618 0.0000
v -13.9460 3.3659 0.0000
v -14.0134 2.8647 0.0000
v -14.0643 2.3585 0.0000
v -14.0985 1.8475 0.0000
v -14.1157 1.3320 0.0000
v -14.1175 0.8772 0.0000
v -14.1076 0.4862 0.0000
v -14.0880 0.0978 0.0000
v -14.0586 -0.2880 0.0000
v -14.0197 -0.6710 0.0000
v -13.9714 -1.0512 0.0000
v -13.9138 -1.4284 0.0000
v -13.8470 -1.8025 0.0000
v -13.7711 -2.1734 0.0000
v -13.6863 -2.5409 0.0000
v -13.5927 -2.9049 0.0000
v -13.4903 -3.2654 0.0000
v -13.3793 -3.6222 0.0000
v -13.2599 -3.9752 0.0000
v -13.1321 -4.3242 0.0000
v -12.9961 -4.6692 0.0000
v -12.8520 -5.0100 0.0000
v -12.6998 -5.3465 0.0000
v -12.5398 -5.6786 0.0000
v -12.3721 -6.0061 0.0000
v -12.1967 -6.3290 0.0000
v -12.0137 -6.6472 0.0000
v -11.8234 -6.9604 0.0000
v -11.6258 -7.2686 0.0000
v -11.4211 -7.5717 0.0000
v -11.2093 -7.8695 0.0000
v -10.9906 -8.1620 0.0000
v -10.7651 -8.4490 0.0000
v -10.5328 -8.7303 0.0000
v -10.2941 -9.0060 0.0000
v -10.0489 -9.2758 0.0000
v -9.7973 -9.5396 0.0000
v -9.5396 -9.7973 0.0000
v -9.2758 -10.0489 0.0000
v -9.0060 -10.2941 0.0000
v -8.7303 -10.5328 0.0000
v -8.4490 -10.7651 0.0000
v -8.1620 -10.9906 0.0000
v -7.8695 -11.2093 0.0000
v -7.5717 -11.4211 0.0000
v -7.2686 -11.6258 0.0000
v -6.9604 -11.8234 0.0000
v -6.6472 -12.0137 0.0000
v -6.3290 -12.1967 0.0000
v -6.0061 -12.3721 0.0000
v -5.6786 -12.5398 0.0000
v -5.3465 -12.6998 0.0000
v -5.0100 -12.8520 0.0000
v -4.6692 -12.9961 0.0000
v -4.3242 -13.1321 0.0000
v -3.9752 -13.2599 0.0000
v -3.6222 -13.3793 0.0000
v -3.2654 -13.4903 0.0000
v -2.9049 -13.5927 0.0000
v -2.5409 -13.6863 0.0000
v -2.1734 -13.7711 0.0000
v -1.8025 -13.8470 0.0000
v -1.4284 -13.9138 0.0000
v -1.0512 -13.9714 0.0000
v -0.6710 -14.0197 0.0000
v -0.2880 -14.0586 0.0000
v 0.0978 -14.0880 0.0000
v 0.4862 -14.1076 0.0000
v 0.8772 -14.1175 0.0000
v 1.3320 -14.1157 0.0000
v 1.8475 -14.0985 0.0000
v 2.3585 -14.0643 0.0000
v 2.8647 -14.0134 0.0000
v 3.3659 -13.9460 0.0000
v 3.8618 -13.8625 0.0000
v 4.3521 -13.7631 0.0000
v 4.8366 -13.6482 0.0000
v 5.3149 -13.5178 0.0000
v 5.7869 -13.3725 0.0000
v 6.2521 -13.2123 0.0000
v 6.7104 -13.0376 0.0000
v 7.1615 -12.8487 0.0000
v 7.6051 -12.6459 0.0000
v 8.0409 -12.4294 0.0000
v 8.4686 -12.1994 0.0000
v 8.8880 -11.9564 0.0000
v 9.2988 -11.7004 0.0000
v 9.7007 -11.4319 0.0000
v 10.0935 -11.1511 0.0000
v 10.4768 -10.8583 0.0000
v 10.8505 -10.5537 0.0000
v 11.2141 -10.2377 0.0000
v 11.5675 -9.9104 0.0000
v 11.9104 -9.5722 0.0000
v 12.2424 -9.2234 0.0000
v 12.5634 -8.8642 0.0000
v 12.8730 -8.4949 0.0000
v 13.1710 -8.1157 0.0000
v 13.4571 -7.7270 0.0000
v 13.7310 -7.3291 0.0000
f 285 368 369
f 284 285 369
f 287 365 366
f 367 286 366
f 285 367 368
f 284 369 370
f 281 374 375
f 280 375 376
f 283 371 372
f 372 373 282
f 373 374 282
f 370 371 284
f 376 377 280
f 292 357 358
f 356 357 293
f 355 356 293
f 295 353 354
f 354 355 294
f 358 359 291
f 287 364 365
f 364 288 363
f 362 289 361
f 363 289 362
f 361 290 360
f 291 359 360
f 296 352 353
f 377 378 279
f 386 387 274
f 386 274 385
f 382 383 276
f 383 384 276
f 275 384 385
f 273 387 388
f 394 269 393
f 270 392 393
f 271 390 391
f 271 391 392
f 272 389 390
f 388 389 272
f 269 394 395
f 292 358 291
f 379 380 278
f 295 354 294
f 293 357 292
f 355 293 294
f 277 380 381
f 379 279 378
f 287 366 286
f 286 367 285
f 291 360 290
f 289 363 288
f 361 289 290
f 288 364 287
f 277 381 382
f 296 353 295
f 300 347 348
f 348 349 299
f 346 302 345
f 345 303 344
f 347 301 346
f 299 349 350
f 343 344 304
f 303 304 344
f 343 304 305
f 343 305 342
f 342 306 341
f 305 306 342
f 341 306 307
f 350 351 298
f 307 340 341
f 307 339 340
f 339 308 338
f 338 309 337
f 310 336 337
f 310 335 336
f 311 334 335
f 312 333 334
f 313 332 333
f 332 314 331
f 331 314 330
f 315 329 330
f 329 316 328
f 308 339 307
f 301 302 346
f 300 301 347
f 311 335 310
f 310 337 309
f 302 303 345
f 297 298 351
f 297 351 352
f 314 332 313
f 313 333 312
f 298 299 350
f 300 348 299
f 312 334 311
f 317 328 316
f 316 329 315
f 318 326 327
f 317 318 327
f 326 319 325
f 328 317 327
f 330 314 315
f 320 324 325
f 320 325 319
f 323 324 321
f 321 322 323
f 324 320 321
f 319 326 318
f 309 338 308
f 352 296 297
f 268 395 396
f 257 413 414
f 256 414 415
f 411 259 410
f 258 411 412
f 413 257 412
f 415 416 255
f 254 417 418
f 253 418 419
f 422 250 421
f 249 422 423
f 251 420 421
f 416 417 255
f 420 252 419
f 401 402 264
f 259 409 410
f 266 399 400
f 265 400 401
f 266 398 399
f 402 403 264
f 407 408 261
f 408 409 260
f 405 263 404
f 262 405 406
f 261 406 407
f 263 403 404
f 267 397 398
f 249 423 424
f 425 426 247
f 427 246 426
f 429 244 428
f 429 430 243
f 428 245 427
f 431 242 430
f 241 432 433
f 240 433 434
f 239 435 238
f 435 436 238
f 239 434 435
f 432 241 431
f 437 238 436
f 243 430 242
f 242 431 241
f 246 427 245
f 428 244 245
f 433 240 241
f 244 429 243
f 439 236 438
f 440 235 439
f 442 234 441
f 440 441 234
f 233 442 443
f 232 443 444
f 239 240 434
f 237 437 438
f 424 425 248
f 246 247 426
f 265 266 400
f 264 265 401
f 270 393 269
f 267 268 397
f 395 268 269
f 266 267 398
f 258 259 411
f 257 258 412
f 262 263 405
f 260 261 408
f 262 406 261
f 259 260 409
f 264 403 263
f 280 377 279
f 279 379 278
f 284 371 283
f 282 374 281
f 372 282 283
f 281 375 280
f 273 388 272
f 272 390 271
f 277 382 276
f 275 385 274
f 384 275 276
f 274 387 273
f 380 277 278
f 271 392 270
f 248 249 424
f 247 248 425
f 252 253 419
f 250 251 421
f 252 420 251
f 249 250 422
f 437 237 238
f 231 444 445
f 438 236 237
f 439 235 236
f 230 445 446
f 235 440 234
f 233 234 442
f 254 255 417
f 231 445 230
f 231 232 444
f 232 233 443
f 255 256 415
f 228 229 447
f 229 230 446
f 228 447 448
f 228 448 227
f 225 226 227
f 448 225 227
f 446 447 229
f 253 254 418
f 257 414 256
f 268 396 397
f 144 61 145
f 61 60 145
f 141 63 142
f 62 143 142
f 143 61 144
f 145 60 146
f 150 57 151
f 151 56 152
f 147 59 148
f 149 148 58
f 150 149 58
f 147 146 60
f 153 152 56
f 133 68 134
f 133 132 69
f 132 131 69
f 129 71 130
f 131 130 70
f 135 134 67
f 140 63 141
f 64 140 139
f 65 138 137
f 65 139 138
f 66 137 136
f 135 67 136
f 128 72 129
f 154 153 55
f 163 162 50
f 50 162 161
f 159 158 52
f 160 159 52
f 160 51 161
f 163 49 164
f 45 170 169
f 168 46 169
f 166 47 167
f 167 47 168
f 165 48 166
f 165 164 48
f 170 45 171
f 134 68 67
f 156 155 54
f 130 71 70
f 133 69 68
f 69 131 70
f 156 53 157
f 55 155 154
f 142 63 62
f 143 62 61
f 136 67 66
f 139 65 64
f 65 137 66
f 140 64 63
f 157 53 158
f 129 72 71
f 123 76 124
f 125 124 75
f 78 122 121
f 79 121 120
f 77 123 122
f 125 75 126
f 120 119 80
f 80 79 120
f 80 119 81
f 81 119 118
f 82 118 117
f 82 81 118
f 82 117 83
f 127 126 74
f 116 83 117
f 115 83 116
f 84 115 114
f 85 114 113
f 112 86 113
f 111 86 112
f 110 87 111
f 109 88 110
f 108 89 109
f 90 108 107
f 90 107 106
f 105 91 106
f 92 105 104
f 115 84 83
f 78 77 122
f 77 76 123
f 111 87 86
f 113 86 85
f 79 78 121
f 74 73 127
f 127 73 128
f 108 90 89
f 109 89 88
f 75 74 126
f 124 76 75
f 110 88 87
f 104 93 92
f 105 92 91
f 102 94 103
f 94 93 103
f 95 102 101
f 93 104 103
f 90 106 91
f 100 96 101
f 101 96 95
f 100 99 97
f 98 97 99
f 96 100 97
f 102 95 94
f 114 85 84
f 72 128 73
f 171 44 172
f 189 33 190
f 190 32 191
f 35 187 186
f 187 34 188
f 33 189 188
f 192 191 31
f 193 30 194
f 194 29 195
f 26 198 197
f 198 25 199
f 196 27 197
f 193 192 31
f 28 196 195
f 178 177 40
f 185 35 186
f 175 42 176
f 176 41 177
f 174 42 175
f 179 178 40
f 184 183 37
f 185 184 36
f 39 181 180
f 181 38 182
f 182 37 183
f 179 39 180
f 173 43 174
f 199 25 200
f 202 201 23
f 22 203 202
f 20 205 204
f 206 205 19
f 21 204 203
f 18 207 206
f 208 17 209
f 209 16 210
f 211 15 14
f 212 211 14
f 210 15 211
f 17 208 207
f 14 213 212
f 206 19 18
f 207 18 17
f 203 22 21
f 20 204 21
f 16 209 17
f 205 20 19
f 12 215 214
f 11 216 215
f 10 218 217
f 217 216 10
f 218 9 219
f 219 8 220
f 16 15 210
f 213 13 214
f 201 200 24
f 23 22 202
f 42 41 176
f 41 40 177
f 169 46 45
f 44 43 173
f 44 171 45
f 43 42 174
f 35 34 187
f 34 33 188
f 39 38 181
f 37 36 184
f 182 38 37
f 36 35 185
f 179 40 39
f 153 56 55
f 155 55 54
f 147 60 59
f 150 58 57
f 58 148 59
f 151 57 56
f 164 49 48
f 166 48 47
f 158 53 52
f 161 51 50
f 51 160 52
f 163 50 49
f 53 156 54
f 168 47 46
f 25 24 200
f 24 23 201
f 29 28 195
f 27 26 197
f 196 28 27
f 26 25 198
f 13 213 14
f 220 7 221
f 12 214 13
f 11 215 12
f 221 6 222
f 216 11 10
f 10 9 218
f 31 30 193
f 221 7 6
f 8 7 220
f 9 8 219
f 32 31 191
f 5 4 223
f 6 5 222
f 223 4 224
f 224 4 3
f 2 1 3
f 1 224 3
f 223 222 5
f 30 29 194
f 190 33 32
f 172 44 173
f 449 1 2
f 449 2 226
f 449 226 225
f 449 225 1
f 450 2 3
f 450 3 227
f 450 227 226
f 450 226 2
f 451 3 4
f 451 4 228
f 451 228 227
f 451 227 3
f 452 4 5
f 452 5 229
f 452 229 228
f 452 228 4
f 453 5 6
f 453 6 230
f 453 230 229
f 453 229 5
f 454 6 7
f 454 7 231
f 454 231 230
f 454 230 6
f 455 7 8
f 455 8 232
f 455 232 231
f 455 231 7
f 456 8 9
f 456 9 233
f 456 233 232
f 456 232 8
f 457 9 10
f 457 10 234
f 457 234 233
f 457 233 9
f 458 10 11
f 458 11 235
f 458 235 234
f 458 234 10
f 459 11 12
f 459 12 236
f 459 236 235
f 459 235 11
f 460 12 13
f 460 13 237
f 460 237 236
f 460 236 12
f 461 13 14
f 461 14 238
f 461 238 237
f 461 237 13
f 462 14 15
f 462 15 239
f 462 239 238
f 462 238 14
f 463 15 16
f 463 16 240
f 463 240 239
f 463 239 15
f 464 16 17
f 464 17 241
f 464 241 240
f 464 240 16
f 465 17 18
f 465 18 242
f 465 242 241
f 465 241 17
f 466 18 19
f 466 19 243
f 466 243 242
f 466 242 18
f 467 19 20
f 467 20 244
f 467 244 243
f 467 243 19
f 468 20 21
f 468 21 245
f 468 245 244
f 468 244 20
f 469 21 22
f 469 22 246
f 469 246 245
f 469 245 21
f 470 22 23
f 470 23 247
f 470 247 246
f 470 246 22
f 471 23 24
f 471 24 248
f 471 248 247
f 471 247 23
f 472 24 25
f 472 25 249
f 472 249 248
f 472 248 24
f 473 25 26
f 473 26 250
f 473 250 249
f 473 249 25
f 474 26 27
f 474 27 251
f 474 251 250
f 474 250 26
f 475 27 28
f 475 28 252
f 475 252 251
f 475 251 27
f 476 28 29
f 476 29 253
f 476 253 252
f 476 252 28
f 477 29 30
f 477 30 254
f 477 254 253
f 477 253 29
f 478 30 31
f 478 31 255
f 478 255 254
f 478 254 30
f 479 31 32
f 479 32 256
f 479 256 255
f 479 255 31
f 480 32 33
f 480 33 257
f 480 257 256
f 480 256 32
f 481 33 34
f 481 34 258
f 481 258 257
f 481 257 33
f 482 34 35
f 482 35 259
f 482 259 258
f 482 258 34
f 483 35 36
f 483 36 260
f 483 260 259
f 483 259 35
f 484 36 37
f 484 37 261
f 484 261 260
f 484 260 36
f 485 37 38
f 485 38 262
f 485 262 261
f 485 261 37
f 486 38 39
f 486 39 263
f 486 263 262
f 486 262 38
f 487 39 40
f 487 40 264
f 487 264 263
f 487 263 39
f 488 40 41
f 488 41 265
f 488 265 264
f 488 264 40
f 489 41 42
f 489 42 266
f 489 266 265
f 489 265 41
f 490 42 43
f 490 43 267
f 490 267 266
f 490 266 42
f 491 43 44
f 491 44 268
f 491 268 267
f 491 267 43
f 492 44 45
f 492 45 269
f 492 269 268
f 492 268 44
f 493 45 46
f 493 46 270
f 493 270 269
f 493 269 45
f 494 46 47
f 494 47 271
f 494 271 270
f 494 270 46
f 495 47 48
f 495 48 272
f 495 272 271
f 495 271 47
f 496 48 49
f 496 49 273
f 496 273 272
f 496 272 48
f 497 49 50
f 497 50 274
f 497 274 273
f 497 273 49
f 498 50 51
f 498 51 275
f 498 275 274
f 498 274 50
f 499 51 52
f 499 52 276
f 499 276 275
f 499 275 51
f 500 52 53
f 500 53 277
f 500 277 276
f 500 276 52
f 501 53 54
f 501 54 278
f 501 278 277
f 501 277 53
f 502 54 55
f 502 55 279
f 502 279 278
f 502 278 54
f 503 55 56
f 503 56 280
f 503 280 279
f 503 279 55
f 504 56 57
f 504 57 281
f 504 281 280
f 504 280 56
f 505 57 58
f 505 58 282
f 505 282 281
f 505 281 57
f 506 58 59
f 506 59 283
f 506 283 282
f 506 282 58
f 507 59 60
f 507 60 284
f 507 284 283
f 507 283 59
f 508 60 61
f 508 61 285
f 508 285 284
f 508 284 60
f 509 61 62
f 509 62 286
f 509 286 285
f 509 285 61
f 510 62 63
f 510 63 287
f 510 287 286
f 510 286 62
f 511 63 64
f 511 64 288
f 511 288 287
f 511 287 63
f 512 64 65
f 512 65 289
f 512 289 288
f 512 288 64
f 513 65 66
f 513 66 290
f 513 290 289
f 513 289 65
f 514 66 67
f 514 67 291
f 514 291 290
f 514 290 66
f 515 67 68
f 515 68 292
f 515 292 291
f 515 291 67
f 516 68 69
f 516 69 293
f 516 293 292
f 516 292 68
f 517 69 70
f 517 70 294
f 517 294 293
f 517 293 69
f 518 70 71
f 518 71 295
f 518 295 294
f 518 294 70
f 519 71 72
f 519 72 296
f 519 296 295
f 519 295 71
f 520 72 73
f 520 73 297
f 520 297 296
f 520 296 72
f 521 73 74
f 521 74 298
f 521 298 297
f 521 297 73
f 522 74 75
f 522 75 299
f 522 299 298
f 522 298 74
f 523 75 76
f 523 76 300
f 523 300 299
f 523 299 75
f 524 76 77
f 524 77 301
f 524 301 300
f 524 300 76
f 525 77 78
f 525 78 302
f 525 302 301
f 525 301 77
f 526 78 79
f 526 79 303
f 526 303 302
f 526 302 78
f 527 79 80
f 527 80 304
f 527 304 303
f 527 303 79
f 528 80 81
f 528 81 305
f 528 305 304
f 528 304 80
f 529 81 82
f 529 82 306
f 529 306 305
f 529 305 81
f 530 82 83
f 530 83 307
f 530 307 306
f 530 306 82
f 531 83 84
f 531 84 308
f 531 308 307
f 531 307 83
f 532 84 85
f 532 85 309
f 532 309 308
f 532 308 84
f 533 85 86
f 533 86 310
f 533 310 309
f 533 309 85
f 534 86 87
f 534 87 311
f 534 311 310
f 534 310 86
f 535 87 88
f 535 88 312
f 535 312 311
f 535 311 87
f 536 88 89
f 536 89 313
f 536 313 312
f 536 312 88
f 537 89 90
f 537 90 314
f 537 314 313
f 537 313 89
f 538 90 91
f 538 91 315
f 538 315 314
f 538 314 90
f 539 91 92
f 539 92 316
f 539 316 315
f 539 315 91
f 540 92 93
f 540 93 317
f 540 317 316
f 540 316 92
f 541 93 94
f 541 94 318
f 541 318 317
f 541 317 93
f 542 94 95
f 542 95 319
f 542 319 318
f 542 318 94
f 543 95 96
f 543 96 320
f 543 320 319
f 543 319 95
f 544 96 97
f 544 97 321
f 544 321 320
f 544 320 96
f 545 97 98
f 545 98 322
f 545 322 321
f 545 321 97
f 546 98 99
f 546 99 323
f 546 323 322
f 546 322 98
f 547 99 100
f 547 100 324
f 547 324 323
f 547 323 99
f 548 100 101
f 548 101 325
f 548 325 324
f 548 324 100
f 549 101 102
f 549 102 326
f 549 326 325
f 549 325 101
f 550 102 103
f 550 103 327
f 550 327 326
f 550 326 102
f 551 103 104
f 551 104 328
f 551 328 327
f 551 327 103
f 552 104 105
f 552 105 329
f 552 329 328
f 552 328 104
f 553 105 106
f 553 106 330
f 553 330 329
f 553 329 105
f 554 106 107
f 554 107 331
f 554 331 330
f 554 330 106
f 555 107 108
f 555 108 332
f 555 332 331
f 555 331 107
f 556 108 109
f 556 109 333
f 556 333 332
f 556 332 108
f 557 109 110
f 557 110 334
f 557 334 333
f 557 333 109
f 558 110 111
f 558 111 335
f 558 335 334
f 558 334 110
f 559 111 112
f 559 112 336
f 559 336 335
f 559 335 111
f 560 112 113
f 560 113 337
f 560 337 336
f 560 336 112
f 561 113 114
f 561 114 338
f 561 338 337
f 561 337 113
f 562 114 115
f 562 115 339
f 562 339 338
f 562 338 114
f 563 115 116
f 563 116 340
f 563 340 339
f 563 339 115
f 564 116 117
f 564 117 341
f 564 341 340
f 564 340 116
f 565 117 118
f 565 118 342
f 565 342 341
f 565 341 117
f 566 118 119
f 566 119 343
f 566 343 342
f 566 342 118
f 567 119 120
f 567 120 344
f 567 344 343
f 567 343 119
f 568 120 121
f 568 121 345
f 568 345 344
f 568 344 120
f 569 121 122
f 569 122 346
f 569 346 345
f 569 345 121
f 570 122 123
f 570 123 347
f 570 347 346
f 570 346 122
f 571 123 124
f 571 124 348
f 571 348 347
f 571 347 123
f 572 124 125
f 572 125 349
f 572 349 348
f 572 348 124
f 573 125 126
f 573 126 350
f 573 350 349
f 573 349 125
f 574 126 127
f 574 127 351
f 574 351 350
f 574 350 126
f 575 127 128
f 575 128 352
f 575 352 351
f 575 351 127
f 576 128 129
f 576 129 353
f 576 353 352
f 576 352 128
f 577 129 130
f 577 130 354
f 577 354 353
f 577 353 129
f 578 130 131
f 578 131 355
f 578 355 354
f 578 354 130
f 579 131 132
f 579 132 356
f 579 356 355
f 579 355 131
f 580 132 133
f 580 133 357
f 580 357 356
f 580 356 132
f 581 133 134
f 581 134 358
f 581 358 357
f 581 357 133
f 582 134 135
f 582 135 359
f 582 359 358
f 582 358 134
f 583 135 136
f 583 136 360
f 583 360 359
f 583 359 135
f 584 136 137
f 584 137 361
f 584 361 360
f 584 360 136
f 585 137 138
f 585 138 362
f 585 362 361
f 585 361 137
f 586 138 139
f 586 139 363
f 586 363 362
f 586 362 138
f 587 139 140
f 587 140 364
f 587 364 363
f 587 363 139
f 588 140 141
f 588 141 365
f 588 365 364
f 588 364 140
f 589 141 142
f 589 142 366
f 589 366 365
f 589 365 141
f 590 142 143
f 590 143 367
f 590 367 366
f 590 366 142
f 591 143 144
f 591 144 368
f 591 368 367
f 591 367 143
f 592 144 145
f 592 145 369
f 592 369 368
f 592 368 144
f 593 145 146
f 593 146 370
f 593 370 369
f 593 369 145
f 594 146 147
f 594 147 371
f 594 371 370
f 594 370 146
f 595 147 148
f 595 148 372
f 595 372 371
f 595 371 147
f 596 148 149
f 596 149 373
f 596 373 372
f 596 372 148
f 597 149 150
f 597 150 374
f 597 374 373
f 597 373 149
f 598 150 151
f 598 151 375
f 598 375 374
f 598 374 150
f 599 151 152
f 599 152 376
f 599 376 375
f 599 375 151
f 600 152 153
f 600 153 377
f 600 377 376
f 600 376 152
f 601 153 154
f 601 154 378
f 601 378 377
f 601 377 153
f 602 154 155
f 602 155 379
f 602 379 378
f 602 378 154
f 603 155 156
f 603 156 380
f 603 380 379
f 603 379 155
f 604 156 157
f 604 157 381
f 604 381 380
f 604 380 156
f 605 157 158
f 605 158 382
f 605 382 381
f 605 381 157
f 606 158 159
f 606 159 383
f 606 383 382
f 606 382 158
f 607 159 160
f 607 160 384
f 607 384 383
f 607 383 159
f 608 160 161
f 608 161 385
f 608 385 384
f 608 384 160
f 609 161 162
f 609 162 386
f 609 386 385
f 609 385 161
f 610 162 163
f 610 163 387
f 610 387 386
f 610 386 162
f 611 163 164
f 611 164 388
f 611 388 387
f 611 387 163
f 612 164 165
f 612 165 389
f 612 389 388
f 612 388 164
f 613 165 166
f 613 166 390
f 613 390 389
f 613 389 165
f 614 166 167
f 614 167 391
f 614 391 390
f 614 390 166
f 615 167 168
f 615 168 392
f 615 392 391
f 615 391 167
f 616 168 169
f 616 169 393
f 616 393 392
f 616 392 168
f 617 169 170
f 617 170 394
f 617 394 393
f 617 393 169
f 618 170 171
f 618 171 395
f 618 395 394
f 618 394 170
f 619 171 172
f 619 172 396
f 619 396 395
f 619 395 171
f 620 172 173
f 620 173 397
f 620 397 396
f 620 396 172
f 621 173 174
f 621 174 398
f 621 398 397
f 621 397 173
f 622 174 175
f 622 175 399
f 622 399 398
f 622 398 174
f 623 175 176
f 623 176 400
f 623 400 399
f 623 399 175
f 624 176 177
f 624 177 401
f 624 401 400
f 624 400 176
f 625 177 178
f 625 178 402
f 625 402 401
f 625 401 177
f 626 178 179
f 626 179 403
f 626 403 402
f 626 402 178
f 627 179 180
f 627 180 404
f 627 404 403
f 627 403 179
f 628 180 181
f 628 181 405
f 628 405 404
f 628 404 180
f 629 181 182
f 629 182 406
f 629 406 405
f 629 405 181
f 630 182 183
f 630 183 407
f 630 407 406
f 630 406 182
f 631 183 184
f 631 184 408
f 631 408 407
f 631 407 183
f 632 184 185
f 632 185 409
f 632 409 408
f 632 408 184
f 633 185 186
f 633 186 410
f 633 410 409
f 633 409 185
f 634 186 187
f 634 187 411
f 634 411 410
f 634 410 186
f 635 187 188
f 635 188 412
f 635 412 411
f 635 411 187
f 636 188 189
f 636 189 413
f 636 413 412
f 636 412 188
f 637 189 190
f 637 190 414
f 637 414 413
f 637 413 189
f 638 190 191
f 638 191 415
f 638 415 414
f 638 414 190
f 639 191 192
f 639 192 416
f 639 416 415
f 639 415 191
f 640 192 193
f 640 193 417
f 640 417 416
f 640 416 192
f 641 193 194
f 641 194 418
f 641 418 417
f 641 417 193
f 642 194 195
f 642 195 419
f 642 419 418
f 642 418 194
f 643 195 196
f 643 196 420
f 643 420 419
f 643 419 195
f 644 196 197
f 644 197 421
f 644 421 420
f 644 420 196
f 645 197 198
f 645 198 422
f 645 422 421
f 645 421 197
f 646 198 199
f 646 199 423
f 646 423 422
f 646 422 198
f 647 199 200
f 647 200 424
f 647 424 423
f 647 423 199
f 648 200 201
f 648 201 425
f 648 425 424
f 648 424 200
f 649 201 202
f 649 202 426
f 649 426 425
f 649 425 201
f 650 202 203
f 650 203 427
f 650 427 426
f 650 426 202
f 651 203 204
f 651 204 428
f 651 428 427
f 651 427 203
f 652 204 205
f 652 205 429
f 652 429 428
f 652 428 204
f 653 205 206
f 653 206 430
f 653 430 429
f 653 429 205
f 654 206 207
f 654 207 431
f 654 431 430
f 654 430 206
f 655 207 208
f 655 208 432
f 655 432 431
f 655 431 207
f 656 208 209
f 656 209 433
f 656 433 432
f 656 432 208
f 657 209 210
f 657 210 434
f 657 434 433
f 657 433 209
f 658 210 211
f 658 211 435
f 658 435 434
f 658 434 210
f 659 211 212
f 659 212 436
f 659 436 435
f 659 435 211
f 660 212 213
f 660 213 437
f 660 437 436
f 660 436 212
f 661 213 214
f 661 214 438
f 661 438 437
f 661 437 213
f 662 214 215
f 662 215 439
f 662 439 438
f 662 438 214
f 663 215 216
f 663 216 440
f 663 440 439
f 663 439 215
f 664 216 217
f 664 217 441
f 664 441 440
f 664 440 216
f 665 217 218
f 665 218 442
f 665 442 441
f 665 441 217
f 666 218 219
f 666 219 443
f 666 443 442
f 666 442 218
f 667 219 220
f 667 220 444
f 667 444 443
f 667 443 219
f 668 220 221
f 668 221 445
f 668 445 444
f 668 444 220
f 669 221 222
f 669 222 446
f 669 446 445
f 669 445 221
f 670 222 223
f 670 223 447
f 670 447 446
f 670 446 222
f 671 223 224
f 671 224 448
f 671 448 447
f 671 447 223
f 672 224 1
f 672 1 225
f 672 225 448
f 672 448 224
