v 6.18 97.99 7.00
v -52.60 -82.91 7.00
v -64.96 -78.89 7.00
v 6.18 97.99 -7.00
v -52.60 -82.91 -7.00
v -64.96 -78.89 -7.00
v 6.18 97.99 7.00
v -64.96 -78.89 7.00
v -6.18 102.01 7.00
v 6.18 97.99 -7.00
v -64.96 -78.89 -7.00
v -6.18 102.01 -7.00
v -62.60 -75.64 7.00
v 91.29 36.16 7.00
v 98.93 25.64 7.00
v -62.60 -75.64 -7.00
v 91.29 36.16 -7.00
v 98.93 25.64 -7.00
v -62.60 -75.64 7.00
v 98.93 25.64 7.00
v -54.96 -86.16 7.00
v -62.60 -75.64 -7.00
v 98.93 25.64 -7.00
v -54.96 -86.16 -7.00
v 95.11 24.40 7.00
v -95.11 24.40 7.00
v -95.11 37.40 7.00
v 95.11 24.40 -7.00
v -95.11 24.40 -7.00
v -95.11 37.40 -7.00
v 95.11 24.40 7.00
v -95.11 37.40 7.00
v 95.11 37.40 7.00
v 95.11 24.40 -7.00
v -95.11 37.40 -7.00
v 95.11 37.40 -7.00
v -91.29 36.16 7.00
v 62.60 -75.64 7.00
v 54.96 -86.16 7.00
v -91.29 36.16 -7.00
v 62.60 -75.64 -7.00
v 54.96 -86.16 -7.00
v -91.29 36.16 7.00
v 54.96 -86.16 7.00
v -98.93 25.64 7.00
v -91.29 36.16 -7.00
v 54.96 -86.16 -7.00
v -98.93 25.64 -7.00
v 52.60 -82.91 7.00
v -6.18 97.99 7.00
v 6.18 102.01 7.00
v 52.60 -82.91 -7.00
v -6.18 97.99 -7.00
v 6.18 102.01 -7.00
v 52.60 -82.91 7.00
v 6.18 102.01 7.00
v 64.96 -78.89 7.00
v 52.60 -82.91 -7.00
v 6.18 102.01 -7.00
v 64.96 -78.89 -7.00
f 1 2 3
f 4 5 6
f 7 8 9
f 10 11 12
f 13 14 15
f 16 17 18
f 19 20 21
f 22 23 24
f 25 26 27
f 28 29 30
f 31 32 33
f 34 35 36
f 37 38 39
f 40 41 42
f 43 44 45
f 46 47 48
f 49 50 51
f 52 53 54
f 55 56 57
f 58 59 60
