o 5
v 0.0495 0.0724 0.0493
v -0.0494 0.0725 0.0494
v -0.0493 0.0724 0.0495
v 0.0494 0.0725 0.0494
v 0.0494 0.0725 -0.0494
v -0.1002 0.0002 -0.1002
v -0.1004 0.0005 -0.1002
v -0.1002 0.0005 -0.1004
v -0.1004 0.0003 -0.1002
v -0.1003 0.0004 -0.1003
v -0.1003 0.0005 -0.1003
v -0.1002 0.0003 -0.1004
v 0.1002 0.0002 -0.1002
v 0.1002 0.0005 -0.1004
v 0.1004 0.0005 -0.1002
v 0.1002 0.0003 -0.1004
v 0.1003 0.0004 -0.1003
v 0.1003 0.0005 -0.1003
v 0.1004 0.0003 -0.1002
v 0.1002 0.0002 0.1002
v 0.1004 0.0005 0.1002
v 0.1002 0.0005 0.1004
v 0.1004 0.0003 0.1002
v 0.1003 0.0004 0.1003
v 0.1003 0.0006 0.1003
v 0.1002 0.0003 0.1004
v -0.1002 0.0002 0.1002
v -0.1002 0.0005 0.1004
v -0.1004 0.0005 0.1002
v -0.1002 0.0003 0.1004
v -0.1003 0.0004 0.1003
v -0.1003 0.0006 0.1003
v -0.1004 0.0003 0.1002
v -0.0002 0.1422 -0.0000
v -0.0000 0.1422 0.0002
v 0.0002 0.1422 -0.0000
v -0.0000 0.1422 -0.0002
v -0.0001 0.1422 0.0001
v -0.0000 0.1422 -0.0000
v 0.0001 0.1422 0.0001
v 0.0001 0.1422 -0.0001
v -0.0001 0.1422 -0.0001
v -0.0495 0.0724 -0.0493
v 0.0493 0.0724 -0.0495
v -0.0494 0.0725 -0.0494
v -0.0000 0.0724 0.0495
v 0.0246 0.0724 0.0495
v -0.0246 0.0724 -0.0495
v -0.0246 0.0724 0.0495
v 0.0251 0.1067 0.0252
v 0.0252 0.1067 -0.0251
v -0.0251 0.1067 -0.0252
v -0.0252 0.1068 -0.0252
v -0.0252 0.1067 -0.0251
v 0.0252 0.1068 -0.0252
v 0.0251 0.1067 -0.0252
v 0.0252 0.1068 0.0252
v 0.0252 0.1067 0.0251
v -0.0252 0.1068 0.0252
v -0.0251 0.1067 0.0252
v -0.0252 0.1067 0.0251
v -0.0148 0.1215 -0.0000
v -0.0107 0.1274 -0.0000
v -0.0148 0.1215 0.0073
v -0.0107 0.1274 0.0052
v 0.0073 0.1215 -0.0148
v 0.0052 0.1274 -0.0107
v 0.0000 0.1215 -0.0148
v 0.0000 0.1274 -0.0107
v -0.0073 0.1215 -0.0148
v -0.0052 0.1274 -0.0107
v -0.0073 0.1215 0.0148
v -0.0052 0.1274 0.0107
v -0.0065 0.1333 -0.0063
v 0.0064 0.1333 -0.0064
v 0.0063 0.1333 -0.0065
v 0.0064 0.1333 0.0064
v 0.0065 0.1333 0.0063
v -0.0064 0.1333 0.0064
v -0.0063 0.1333 0.0065
v 0.0063 0.1333 0.0065
v 0.0065 0.1333 -0.0063
v -0.0063 0.1333 -0.0065
v -0.0064 0.1333 -0.0064
v -0.0065 0.1333 0.0063
v -0.0033 0.1377 -0.0032
v 0.0033 0.1377 -0.0033
v 0.0032 0.1377 -0.0033
v 0.0033 0.1377 0.0033
v 0.0033 0.1377 0.0032
v -0.0033 0.1377 0.0033
v -0.0032 0.1377 0.0033
v 0.0032 0.1377 0.0033
v 0.0033 0.1377 -0.0032
v -0.0032 0.1377 -0.0033
v -0.0033 0.1377 -0.0033
v -0.0033 0.1377 0.0032
v -0.0018 0.1399 -0.0016
v 0.0017 0.1400 -0.0017
v 0.0016 0.1399 -0.0018
v 0.0017 0.1400 0.0017
v 0.0018 0.1399 0.0016
v -0.0017 0.1400 0.0017
v -0.0016 0.1399 0.0018
v 0.0016 0.1399 0.0018
v 0.0018 0.1399 -0.0016
v -0.0016 0.1399 -0.0018
v -0.0017 0.1400 -0.0017
v -0.0018 0.1399 0.0016
v -0.0010 0.1410 -0.0008
v 0.0009 0.1411 -0.0009
v 0.0008 0.1410 -0.0010
v 0.0009 0.1411 0.0009
v 0.0010 0.1410 0.0008
v -0.0009 0.1411 0.0009
v -0.0008 0.1410 0.0010
v 0.0008 0.1410 0.0010
v 0.0010 0.1410 -0.0008
v -0.0008 0.1410 -0.0010
v -0.0009 0.1411 -0.0009
v -0.0010 0.1410 0.0008
v 0.0738 0.0381 0.0551
v -0.0738 0.0381 -0.0551
v -0.0738 0.0381 0.0551
v 0.0738 0.0381 -0.0551
v 0.0551 0.0381 -0.0738
v -0.0551 0.0381 0.0738
v 0.0551 0.0381 0.0738
v -0.0551 0.0381 -0.0738
v 0.0184 0.0381 0.0738
v -0.0184 0.0381 0.0738
v -0.0184 0.0381 -0.0738
v 0.0184 0.0381 -0.0738
v -0.0004 0.1419 -0.0002
v 0.0003 0.1419 -0.0003
v 0.0002 0.1419 -0.0004
v 0.0003 0.1419 0.0003
v 0.0004 0.1419 0.0002
v -0.0003 0.1419 0.0003
v -0.0002 0.1419 0.0004
v 0.0002 0.1419 0.0004
v 0.0004 0.1419 -0.0002
v -0.0002 0.1419 -0.0004
v -0.0003 0.1419 -0.0003
v -0.0004 0.1419 0.0002
v -0.0501 0.0005 -0.1004
v 0.0000 0.0005 -0.1004
v 0.0501 0.0005 -0.1004
v 0.0501 0.0003 -0.1004
v 0.0000 0.0003 -0.1004
v -0.0501 0.0003 -0.1004
v 0.0501 0.0001 -0.1002
v -0.0000 0.0001 -0.1002
v -0.0501 0.0001 -0.1002
v 0.0501 0.0005 0.1004
v -0.0000 0.0005 0.1004
v -0.0501 0.0005 0.1004
v -0.0501 0.0003 0.1004
v -0.0000 0.0003 0.1004
v 0.0501 0.0003 0.1004
v -0.0501 0.0001 0.1002
v 0.0000 0.0001 0.1002
v 0.0501 0.0001 0.1002
v 0.0495 0.0724 -0.0493
v -0.0493 0.0724 -0.0495
v -0.0495 0.0724 0.0493
v 0.0493 0.0724 0.0495
v -0.0495 0.0724 -0.0000
v -0.0495 0.0724 -0.0246
v -0.0125 0.1067 -0.0253
v 0.0000 0.1067 -0.0253
v 0.0125 0.1067 -0.0253
v 0.0125 0.1067 0.0253
v -0.0000 0.1067 0.0253
v -0.0125 0.1067 0.0253
v -0.0000 0.1215 0.0148
v -0.0000 0.1274 0.0107
v 0.0073 0.1215 0.0148
v 0.0052 0.1274 0.0107
v -0.0148 0.1215 0.0146
v -0.0106 0.1274 0.0105
v -0.0031 0.1333 -0.0065
v 0.0000 0.1333 -0.0065
v 0.0031 0.1333 -0.0065
v 0.0031 0.1333 0.0065
v -0.0000 0.1333 0.0065
v -0.0031 0.1333 0.0065
v -0.0016 0.1377 -0.0034
v 0.0000 0.1377 -0.0034
v 0.0016 0.1377 -0.0034
v 0.0016 0.1377 0.0034
v -0.0000 0.1377 0.0034
v -0.0016 0.1377 0.0034
v -0.0008 0.1399 -0.0018
v 0.0000 0.1399 -0.0018
v 0.0008 0.1399 -0.0018
v 0.0008 0.1399 0.0018
v -0.0000 0.1399 0.0018
v -0.0008 0.1399 0.0018
v -0.0004 0.1410 -0.0010
v 0.0000 0.1410 -0.0010
v 0.0004 0.1410 -0.0010
v 0.0004 0.1410 0.0010
v -0.0000 0.1410 0.0010
v -0.0004 0.1410 0.0010
v -0.0738 0.0381 0.0184
v -0.0738 0.0381 -0.0184
v 0.0738 0.0381 -0.0184
v 0.0738 0.0381 0.0184
v 0.0738 0.0381 0.0368
v 0.0738 0.0381 0.0000
v -0.0001 0.1417 -0.0005
v 0.0000 0.1419 -0.0004
v 0.0001 0.1417 -0.0005
v 0.0001 0.1417 0.0005
v -0.0000 0.1419 0.0004
v -0.0001 0.1417 0.0005
v 0.1004 0.0005 -0.0501
v 0.1004 0.0005 0.0000
v 0.1004 0.0005 0.0501
v 0.1004 0.0003 0.0501
v 0.1004 0.0003 -0.0000
v 0.1004 0.0003 -0.0501
v 0.1002 0.0001 0.0501
v 0.1002 0.0001 -0.0000
v 0.1002 0.0001 -0.0501
v -0.1004 0.0005 0.0501
v -0.1004 0.0005 -0.0000
v -0.1004 0.0005 -0.0501
v -0.1004 0.0003 -0.0501
v -0.1004 0.0003 -0.0000
v -0.1004 0.0003 0.0501
v -0.1002 0.0001 -0.0501
v -0.1002 0.0001 -0.0000
v -0.1002 0.0001 0.0501
v 0.0495 0.0724 -0.0246
v 0.0000 0.0724 -0.0495
v 0.0246 0.0724 -0.0495
v -0.0495 0.0724 0.0246
v 0.0495 0.0724 -0.0123
v -0.0495 0.0724 -0.0123
v 0.0253 0.1067 -0.0125
v 0.0253 0.1067 -0.0000
v 0.0253 0.1067 0.0125
v -0.0253 0.1067 0.0125
v -0.0253 0.1067 -0.0000
v -0.0253 0.1067 -0.0125
v -0.0147 0.1215 -0.0147
v -0.0106 0.1274 -0.0106
v -0.0146 0.1215 -0.0148
v -0.0105 0.1274 -0.0106
v 0.0148 0.1215 -0.0146
v 0.0106 0.1274 -0.0105
v 0.0065 0.1333 -0.0031
v 0.0065 0.1333 -0.0000
v 0.0065 0.1333 0.0031
v -0.0065 0.1333 0.0031
v -0.0065 0.1333 -0.0000
v -0.0065 0.1333 -0.0031
v 0.0034 0.1377 -0.0016
v 0.0034 0.1377 -0.0000
v 0.0034 0.1377 0.0016
v -0.0034 0.1377 0.0016
v -0.0034 0.1377 -0.0000
v -0.0034 0.1377 -0.0016
v 0.0018 0.1399 -0.0008
v 0.0018 0.1399 -0.0000
v 0.0018 0.1399 0.0008
v -0.0018 0.1399 0.0008
v -0.0018 0.1399 -0.0000
v -0.0018 0.1399 -0.0008
v 0.0010 0.1410 -0.0004
v 0.0010 0.1410 -0.0000
v 0.0010 0.1410 0.0004
v -0.0010 0.1410 0.0004
v -0.0010 0.1410 -0.0000
v -0.0010 0.1410 -0.0004
v 0.0738 0.0381 -0.0368
v -0.0738 0.0381 -0.0368
v -0.0738 0.0381 -0.0000
v -0.0738 0.0381 0.0368
v 0.0368 0.0381 -0.0738
v 0.0000 0.0381 -0.0738
v 0.0005 0.1417 -0.0001
v 0.0004 0.1419 -0.0000
v 0.0005 0.1417 0.0001
v -0.0005 0.1417 0.0001
v -0.0004 0.1419 -0.0000
v -0.0005 0.1417 -0.0001
v -0.0501 0.0001 -0.0501
v -0.0501 0.0001 -0.0000
v -0.0501 0.0001 0.0501
v 0.0000 0.0001 -0.0501
v 0.0000 0.0001 -0.0000
v 0.0000 0.0001 0.0501
v 0.0501 0.0001 -0.0501
v 0.0501 0.0001 -0.0000
v 0.0501 0.0001 0.0501
v -0.0003 0.1420 -0.0001
v 0.0002 0.1420 -0.0002
v 0.0001 0.1420 -0.0003
v 0.0002 0.1420 0.0002
v 0.0003 0.1420 0.0001
v -0.0002 0.1420 0.0002
v -0.0001 0.1420 0.0003
v 0.0001 0.1420 0.0003
v 0.0003 0.1420 -0.0001
v -0.0001 0.1420 -0.0003
v -0.0002 0.1420 -0.0002
v -0.0003 0.1420 0.0001
v -0.0250 0.0005 -0.1004
v 0.0250 0.0005 -0.1004
v 0.0250 0.0003 -0.1004
v -0.0250 0.0003 -0.1004
v 0.0250 0.0001 -0.1002
v -0.0250 0.0001 -0.1002
v 0.0250 0.0005 0.1004
v -0.0250 0.0005 0.1004
v -0.0250 0.0003 0.1004
v 0.0250 0.0003 0.1004
v -0.0250 0.0001 0.1002
v 0.0250 0.0001 0.1002
v -0.0495 0.0724 0.0123
v 0.0495 0.0724 -0.0000
v 0.0495 0.0724 0.0246
v 0.0495 0.0724 0.0123
v -0.0063 0.1067 -0.0253
v 0.0063 0.1067 -0.0253
v 0.0063 0.1067 0.0253
v -0.0063 0.1067 0.0253
v 0.0146 0.1215 0.0148
v 0.0105 0.1274 0.0106
v -0.0105 0.1274 0.0106
v -0.0146 0.1215 0.0148
v -0.0016 0.1333 -0.0065
v 0.0016 0.1333 -0.0065
v 0.0016 0.1333 0.0065
v -0.0016 0.1333 0.0065
v -0.0008 0.1377 -0.0034
v 0.0008 0.1377 -0.0034
v 0.0008 0.1377 0.0034
v -0.0008 0.1377 0.0034
v -0.0004 0.1399 -0.0018
v 0.0004 0.1399 -0.0018
v 0.0004 0.1399 0.0018
v -0.0004 0.1399 0.0018
v -0.0002 0.1410 -0.0010
v 0.0002 0.1410 -0.0010
v 0.0002 0.1410 0.0010
v -0.0002 0.1410 0.0010
v -0.0368 0.0381 -0.0738
v -0.0368 0.0381 0.0738
v -0.0000 0.0381 0.0738
v 0.0368 0.0381 0.0738
v -0.0001 0.1418 -0.0005
v 0.0001 0.1418 -0.0005
v 0.0001 0.1418 0.0005
v -0.0001 0.1418 0.0005
v 0.1004 0.0005 -0.0250
v 0.1004 0.0005 0.0250
v 0.1004 0.0003 0.0250
v 0.1004 0.0003 -0.0250
v 0.1002 0.0001 0.0250
v 0.1002 0.0001 -0.0250
v -0.1004 0.0005 0.0250
v -0.1004 0.0005 -0.0250
v -0.1004 0.0003 -0.0250
v -0.1004 0.0003 0.0250
v -0.1002 0.0001 -0.0250
v -0.1002 0.0001 0.0250
v 0.0370 0.0724 0.0495
v -0.0370 0.0724 0.0495
v 0.0370 0.0724 -0.0495
v 0.0495 0.0724 -0.0370
v 0.0253 0.1067 -0.0063
v 0.0253 0.1067 0.0063
v -0.0253 0.1067 0.0063
v -0.0253 0.1067 -0.0063
v -0.0106 0.1274 0.0106
v -0.0147 0.1215 0.0147
v 0.0106 0.1274 0.0105
v 0.0148 0.1215 0.0146
v 0.0065 0.1333 -0.0016
v 0.0065 0.1333 0.0016
v -0.0065 0.1333 0.0016
v -0.0065 0.1333 -0.0016
v 0.0034 0.1377 -0.0008
v 0.0034 0.1377 0.0008
v -0.0034 0.1377 0.0008
v -0.0034 0.1377 -0.0008
v 0.0018 0.1399 -0.0004
v 0.0018 0.1399 0.0004
v -0.0018 0.1399 0.0004
v -0.0018 0.1399 -0.0004
v 0.0010 0.1410 -0.0002
v 0.0010 0.1410 0.0002
v -0.0010 0.1410 0.0002
v -0.0010 0.1410 -0.0002
v -0.0737 0.0381 0.0736
v 0.0736 0.0381 0.0737
v 0.0737 0.0381 -0.0736
v -0.0736 0.0381 -0.0737
v 0.0005 0.1418 -0.0001
v 0.0005 0.1418 0.0001
v -0.0005 0.1418 0.0001
v -0.0005 0.1418 -0.0001
v -0.0501 0.0001 -0.0250
v -0.0501 0.0001 0.0250
v 0.0000 0.0001 -0.0250
v 0.0000 0.0001 0.0250
v 0.0501 0.0001 -0.0250
v 0.0501 0.0001 0.0250
v 0.0250 0.0001 -0.0501
v 0.0250 0.0001 -0.0000
v 0.0250 0.0001 0.0501
v -0.0250 0.0001 -0.0501
v -0.0250 0.0001 -0.0000
v -0.0250 0.0001 0.0501
v -0.0250 0.0001 0.0250
v -0.0250 0.0001 -0.0250
v 0.0250 0.0001 0.0250
v 0.0250 0.0001 -0.0250
v 0.0751 0.0005 -0.1004
v -0.0751 0.0003 -0.1004
v -0.0751 0.0002 -0.1002
v -0.0751 0.0005 0.1004
v 0.0751 0.0003 0.1004
v 0.0751 0.0002 0.1002
v -0.0370 0.0724 -0.0495
v 0.0495 0.0724 0.0370
v 0.0188 0.1067 -0.0253
v -0.0188 0.1067 0.0253
v 0.0106 0.1274 0.0106
v 0.0147 0.1215 0.0147
v 0.0047 0.1333 -0.0065
v -0.0047 0.1333 0.0065
v 0.0023 0.1377 -0.0034
v -0.0023 0.1377 0.0034
v 0.0012 0.1399 -0.0018
v -0.0012 0.1399 0.0018
v 0.0006 0.1410 -0.0010
v -0.0006 0.1410 0.0010
v -0.0737 0.0382 -0.0737
v 0.0737 0.0381 0.0736
v 0.0002 0.1418 -0.0005
v -0.0002 0.1418 0.0005
v -0.0751 0.0005 -0.1004
v 0.0751 0.0003 -0.1004
v 0.0751 0.0002 -0.1002
v 0.0751 0.0005 0.1004
v -0.0751 0.0003 0.1004
v -0.0751 0.0002 0.1002
v -0.0495 0.0724 -0.0370
v -0.0495 0.0724 0.0370
v -0.0188 0.1067 -0.0253
v 0.0188 0.1067 0.0253
v 0.0105 0.1274 -0.0106
v 0.0146 0.1215 -0.0148
v -0.0047 0.1333 -0.0065
v 0.0047 0.1333 0.0065
v -0.0023 0.1377 -0.0034
v 0.0023 0.1377 0.0034
v -0.0012 0.1399 -0.0018
v 0.0012 0.1399 0.0018
v -0.0006 0.1410 -0.0010
v 0.0006 0.1410 0.0010
v -0.0737 0.0382 0.0737
v -0.0736 0.0381 0.0737
v -0.0002 0.1418 -0.0005
v 0.0002 0.1418 0.0005
v -0.0751 0.0001 -0.0501
v -0.0751 0.0001 -0.0000
v -0.0751 0.0001 0.0501
v 0.0751 0.0001 -0.0501
v 0.0751 0.0001 -0.0000
v 0.0751 0.0001 0.0501
v -0.0000 0.1420 0.0003
v -0.0000 0.1420 -0.0003
v 0.0001 0.1419 -0.0004
v -0.0001 0.1419 0.0004
v 0.0751 0.0001 0.0250
v 0.0751 0.0001 -0.0250
v -0.0751 0.0001 0.0250
v -0.0751 0.0001 -0.0250
v -0.0001 0.1419 -0.0004
v 0.0001 0.1419 0.0004
v 0.1004 0.0005 0.0751
v 0.1004 0.0003 -0.0751
v 0.1002 0.0002 -0.0751
v -0.1004 0.0005 -0.0751
v -0.1004 0.0003 0.0751
v -0.1002 0.0002 0.0751
v 0.0123 0.0724 0.0495
v -0.0123 0.0724 0.0495
v 0.0253 0.1067 0.0188
v -0.0253 0.1067 -0.0188
v 0.0106 0.1274 -0.0106
v 0.0147 0.1215 -0.0147
v 0.0065 0.1333 0.0047
v -0.0065 0.1333 -0.0047
v 0.0034 0.1377 0.0023
v -0.0034 0.1377 -0.0023
v 0.0018 0.1399 0.0012
v -0.0018 0.1399 -0.0012
v 0.0010 0.1410 0.0006
v -0.0010 0.1410 -0.0006
v 0.0737 0.0382 0.0737
v 0.0737 0.0382 -0.0737
v 0.0005 0.1418 0.0002
v -0.0005 0.1418 -0.0002
v -0.0501 0.0001 0.0751
v -0.0000 0.0001 0.0751
v 0.0501 0.0001 0.0751
v 0.1004 0.0005 -0.0751
v 0.1004 0.0003 0.0751
v 0.1002 0.0002 0.0751
v -0.1004 0.0005 0.0751
v -0.1004 0.0003 -0.0751
v -0.1002 0.0002 -0.0751
v -0.0123 0.0724 -0.0495
v 0.0123 0.0724 -0.0495
v 0.0253 0.1067 -0.0188
v -0.0253 0.1067 0.0188
v -0.0106 0.1274 -0.0105
v -0.0148 0.1215 -0.0146
v 0.0065 0.1333 -0.0047
v -0.0065 0.1333 0.0047
v 0.0034 0.1377 -0.0023
v -0.0034 0.1377 0.0023
v 0.0018 0.1399 -0.0012
v -0.0018 0.1399 0.0012
v 0.0010 0.1410 -0.0006
v -0.0010 0.1410 0.0006
v -0.0737 0.0381 -0.0736
v 0.0736 0.0381 -0.0737
v 0.0005 0.1418 -0.0002
v -0.0005 0.1418 0.0002
v -0.0501 0.0001 -0.0751
v 0.0000 0.0001 -0.0751
v 0.0501 0.0001 -0.0751
v 0.0003 0.1420 -0.0000
v -0.0003 0.1420 -0.0000
v -0.0004 0.1419 -0.0001
v 0.0004 0.1419 0.0001
v -0.0250 0.0001 -0.0751
v 0.0250 0.0001 -0.0751
v 0.0250 0.0001 0.0751
v -0.0250 0.0001 0.0751
v 0.0004 0.1419 -0.0001
v -0.0004 0.1419 0.0001
v 0.0751 0.0001 -0.0751
v -0.0751 0.0001 -0.0751
v -0.0751 0.0001 0.0751
v 0.0751 0.0001 0.0751
v -0.0615 0.0553 -0.0615
v -0.0000 0.0553 0.0616
v 0.0307 0.0553 0.0616
v -0.0307 0.0553 -0.0616
v -0.0307 0.0553 0.0616
v 0.0616 0.0553 -0.0614
v -0.0614 0.0553 -0.0616
v -0.0616 0.0553 0.0614
v 0.0614 0.0553 0.0616
v -0.0616 0.0553 -0.0000
v -0.0616 0.0553 -0.0307
v 0.0616 0.0553 -0.0307
v 0.0000 0.0553 -0.0616
v 0.0307 0.0553 -0.0616
v -0.0616 0.0553 0.0307
v 0.0616 0.0553 -0.0153
v -0.0616 0.0553 -0.0153
v -0.0616 0.0553 0.0153
v 0.0616 0.0553 -0.0000
v 0.0616 0.0553 0.0307
v 0.0616 0.0553 0.0153
v 0.0460 0.0553 0.0616
v -0.0460 0.0553 0.0616
v 0.0460 0.0553 -0.0616
v 0.0616 0.0553 -0.0460
v -0.0460 0.0553 -0.0616
v -0.0616 0.0553 -0.0614
v 0.0616 0.0553 0.0614
v 0.0615 0.0553 -0.0615
v 0.0616 0.0553 0.0460
v -0.0616 0.0553 -0.0460
v -0.0616 0.0553 0.0460
v 0.0153 0.0553 0.0616
v -0.0153 0.0553 0.0616
v 0.0615 0.0553 0.0615
v -0.0614 0.0553 0.0616
v -0.0615 0.0553 0.0615
v -0.0153 0.0553 -0.0616
v 0.0614 0.0553 -0.0616
v 0.0153 0.0553 -0.0616
v 0.0374 0.0896 0.0372
v -0.0373 0.0896 0.0373
v -0.0372 0.0896 0.0374
v 0.0373 0.0896 0.0373
v 0.0373 0.0896 -0.0373
v -0.0374 0.0896 -0.0372
v 0.0372 0.0896 -0.0374
v 0.0093 0.0896 0.0374
v -0.0093 0.0896 0.0374
v 0.0093 0.0896 -0.0374
v -0.0093 0.0896 -0.0374
v -0.0279 0.0896 -0.0374
v 0.0374 0.0896 0.0279
v -0.0374 0.0896 0.0279
v -0.0374 0.0896 -0.0279
v 0.0374 0.0896 0.0186
v 0.0374 0.0896 0.0093
v -0.0374 0.0896 0.0093
v 0.0374 0.0896 -0.0000
v 0.0279 0.0896 -0.0374
v 0.0374 0.0896 -0.0279
v 0.0279 0.0896 0.0374
v -0.0279 0.0896 0.0374
v 0.0186 0.0896 -0.0374
v 0.0000 0.0896 -0.0374
v 0.0374 0.0896 -0.0186
v -0.0374 0.0896 -0.0093
v 0.0374 0.0896 -0.0093
v -0.0374 0.0896 0.0186
v -0.0374 0.0896 0.0372
v -0.0372 0.0896 -0.0374
v 0.0374 0.0896 -0.0372
v -0.0374 0.0896 -0.0186
v -0.0374 0.0896 -0.0000
v 0.0372 0.0896 0.0374
v -0.0186 0.0896 0.0374
v -0.0186 0.0896 -0.0374
v -0.0000 0.0896 0.0374
v -0.0373 0.0896 -0.0373
v 0.0186 0.0896 0.0374
v -0.0971 0.0050 -0.0971
v -0.0970 0.0049 -0.0972
v 0.0972 0.0049 -0.0970
v 0.0970 0.0049 0.0972
v -0.0972 0.0049 0.0970
v 0.0485 0.0049 0.0972
v -0.0000 0.0049 0.0972
v -0.0485 0.0049 0.0972
v -0.0485 0.0049 -0.0972
v 0.0000 0.0049 -0.0972
v 0.0485 0.0049 -0.0972
v -0.0972 0.0049 0.0485
v -0.0972 0.0049 -0.0000
v -0.0972 0.0049 -0.0485
v 0.0972 0.0049 -0.0485
v 0.0972 0.0049 0.0000
v 0.0972 0.0049 0.0485
v 0.0972 0.0049 0.0242
v 0.0972 0.0049 -0.0242
v -0.0972 0.0049 -0.0242
v -0.0972 0.0049 0.0242
v 0.0242 0.0049 -0.0972
v -0.0242 0.0049 -0.0972
v -0.0242 0.0049 0.0972
v 0.0242 0.0049 0.0972
v -0.0727 0.0049 -0.0972
v 0.0727 0.0049 0.0972
v -0.0727 0.0049 0.0972
v 0.0727 0.0049 -0.0972
v 0.0972 0.0049 -0.0727
v -0.0972 0.0049 0.0727
v -0.0972 0.0049 -0.0727
v 0.0972 0.0049 0.0727
v 0.0970 0.0049 -0.0972
v -0.0972 0.0049 -0.0970
v 0.0971 0.0050 -0.0971
v 0.0971 0.0050 0.0971
v -0.0970 0.0049 0.0972
v -0.0971 0.0050 0.0971
v 0.0972 0.0049 0.0970
v -0.0854 0.0216 0.0854
v -0.0853 0.0215 0.0855
v 0.0855 0.0215 0.0853
v -0.0855 0.0215 -0.0853
v 0.0853 0.0215 -0.0855
v 0.0854 0.0216 -0.0854
v 0.0854 0.0216 0.0854
v -0.0854 0.0216 -0.0854
v -0.0853 0.0215 -0.0855
v 0.0855 0.0215 -0.0853
v 0.0853 0.0215 0.0855
v -0.0855 0.0215 0.0853
v 0.0426 0.0215 0.0855
v -0.0000 0.0215 0.0855
v -0.0426 0.0215 0.0855
v -0.0426 0.0215 -0.0855
v 0.0000 0.0215 -0.0855
v 0.0426 0.0215 -0.0855
v -0.0855 0.0215 0.0426
v -0.0855 0.0215 -0.0000
v -0.0855 0.0215 -0.0426
v 0.0855 0.0215 -0.0426
v 0.0855 0.0215 0.0000
v 0.0855 0.0215 0.0426
v 0.0855 0.0215 0.0213
v 0.0855 0.0215 -0.0213
v -0.0855 0.0215 -0.0213
v -0.0855 0.0215 0.0213
v 0.0213 0.0215 -0.0855
v -0.0213 0.0215 -0.0855
v -0.0213 0.0215 0.0855
v 0.0213 0.0215 0.0855
v -0.0639 0.0215 -0.0855
v 0.0639 0.0215 0.0855
v -0.0639 0.0215 0.0855
v 0.0639 0.0215 -0.0855
v 0.0855 0.0215 -0.0639
v -0.0855 0.0215 0.0639
v -0.0855 0.0215 -0.0639
v 0.0855 0.0215 0.0639
v -0.0313 0.0982 -0.0000
v 0.0311 0.0982 0.0313
v -0.0155 0.0982 0.0313
v -0.0155 0.0982 -0.0313
v -0.0000 0.0982 0.0313
v -0.0312 0.0982 -0.0312
v 0.0155 0.0982 0.0313
v 0.0078 0.0982 0.0313
v -0.0078 0.0982 0.0313
v 0.0078 0.0982 -0.0313
v -0.0078 0.0982 -0.0313
v -0.0233 0.0982 -0.0313
v 0.0313 0.0982 0.0233
v -0.0313 0.0982 0.0233
v -0.0313 0.0982 -0.0233
v 0.0313 0.0982 0.0155
v 0.0313 0.0982 0.0078
v -0.0313 0.0982 0.0078
v 0.0313 0.0982 -0.0000
v 0.0233 0.0982 -0.0313
v 0.0313 0.0982 -0.0233
v 0.0233 0.0982 0.0313
v -0.0233 0.0982 0.0313
v 0.0155 0.0982 -0.0313
v 0.0000 0.0982 -0.0313
v 0.0313 0.0982 -0.0155
v -0.0313 0.0982 -0.0078
v 0.0313 0.0982 -0.0078
v -0.0313 0.0982 0.0155
v -0.0313 0.0982 0.0311
v -0.0311 0.0982 -0.0313
v 0.0313 0.0982 -0.0311
v -0.0313 0.0982 -0.0155
v 0.0311 0.0982 -0.0313
v -0.0313 0.0982 -0.0311
v 0.0312 0.0982 -0.0312
v 0.0312 0.0982 0.0312
v -0.0311 0.0982 0.0313
v -0.0312 0.0982 0.0312
v 0.0313 0.0982 0.0311
v 0.0188 0.1156 0.0190
v 0.0190 0.1156 -0.0188
v -0.0188 0.1156 -0.0190
v -0.0189 0.1156 -0.0189
v -0.0190 0.1156 0.0188
v -0.0190 0.1156 -0.0188
v 0.0189 0.1156 -0.0189
v 0.0188 0.1156 -0.0190
v 0.0189 0.1156 0.0189
v 0.0190 0.1156 0.0188
v -0.0189 0.1156 0.0189
v -0.0188 0.1156 0.0190
v 0.0094 0.1156 0.0190
v -0.0000 0.1156 0.0190
v -0.0094 0.1156 0.0190
v -0.0094 0.1156 -0.0190
v 0.0000 0.1156 -0.0190
v 0.0094 0.1156 -0.0190
v -0.0190 0.1156 0.0094
v -0.0190 0.1156 -0.0000
v -0.0190 0.1156 -0.0094
v 0.0190 0.1156 -0.0094
v 0.0190 0.1156 -0.0000
v 0.0190 0.1156 0.0094
v 0.0190 0.1156 0.0047
v 0.0190 0.1156 -0.0047
v -0.0190 0.1156 -0.0047
v -0.0190 0.1156 0.0047
v 0.0047 0.1156 -0.0190
v -0.0047 0.1156 -0.0190
v -0.0047 0.1156 0.0190
v 0.0047 0.1156 0.0190
v -0.0141 0.1156 -0.0190
v 0.0141 0.1156 0.0190
v -0.0141 0.1156 0.0190
v 0.0141 0.1156 -0.0190
v 0.0190 0.1156 -0.0141
v -0.0190 0.1156 0.0141
v -0.0190 0.1156 -0.0141
v 0.0190 0.1156 0.0141
v -0.0107 0.1274 -0.0052
v -0.0148 0.1215 -0.0073
v 0.0107 0.1274 -0.0052
v 0.0148 0.1215 -0.0073
v 0.0107 0.1274 -0.0000
v 0.0148 0.1215 -0.0000
v 0.0107 0.1274 0.0052
v 0.0148 0.1215 0.0073
v 0.0107 0.1274 0.0026
v 0.0148 0.1215 0.0037
v 0.0107 0.1274 -0.0026
v 0.0148 0.1215 -0.0037
v -0.0107 0.1274 -0.0026
v -0.0148 0.1215 -0.0037
v -0.0107 0.1274 0.0026
v -0.0148 0.1215 0.0037
v 0.0026 0.1274 -0.0107
v 0.0037 0.1215 -0.0148
v -0.0026 0.1274 -0.0107
v -0.0037 0.1215 -0.0148
v -0.0026 0.1274 0.0107
v -0.0037 0.1215 0.0148
v 0.0026 0.1274 0.0107
v 0.0037 0.1215 0.0148
v -0.0078 0.1274 -0.0107
v -0.0109 0.1215 -0.0148
v 0.0078 0.1274 0.0107
v 0.0109 0.1215 0.0148
v -0.0078 0.1274 0.0107
v -0.0109 0.1215 0.0148
v 0.0078 0.1274 -0.0107
v 0.0109 0.1215 -0.0148
v 0.0107 0.1274 -0.0078
v 0.0148 0.1215 -0.0109
v -0.0107 0.1274 0.0078
v -0.0148 0.1215 0.0109
v -0.0107 0.1274 -0.0078
v -0.0148 0.1215 -0.0109
v 0.0107 0.1274 0.0078
v 0.0148 0.1215 0.0109
v 0.1004 0.0005 0.0989
v 0.1004 0.0003 -0.0989
v 0.1002 0.0002 -0.0989
v -0.1004 0.0005 -0.0989
v -0.1004 0.0003 0.0989
v -0.1002 0.0002 0.0989
v 0.0495 0.0724 0.0487
v -0.0495 0.0724 -0.0487
v 0.0252 0.1067 0.0247
v -0.0252 0.1067 -0.0247
v 0.0065 0.1333 0.0062
v -0.0065 0.1333 -0.0062
v 0.0033 0.1377 0.0031
v -0.0033 0.1377 -0.0031
v 0.0018 0.1399 0.0016
v -0.0018 0.1399 -0.0016
v 0.0010 0.1410 0.0008
v -0.0010 0.1410 -0.0008
v 0.0737 0.0381 0.0726
v -0.0737 0.0381 -0.0726
v 0.0004 0.1419 0.0002
v -0.0004 0.1419 -0.0002
v -0.0501 0.0001 0.0989
v 0.0000 0.0001 0.0989
v 0.0501 0.0001 0.0989
v 0.0002 0.1422 -0.0000
v -0.0002 0.1422 -0.0000
v 0.0250 0.0001 0.0989
v -0.0250 0.0001 0.0989
v -0.0751 0.0001 0.0989
v 0.0751 0.0001 0.0989
v -0.0495 0.0724 0.0487
v 0.0495 0.0724 -0.0487
v -0.0737 0.0381 0.0726
v 0.0737 0.0381 -0.0726
v 0.1004 0.0005 -0.0989
v 0.1004 0.0003 0.0989
v 0.1002 0.0002 0.0989
v -0.1004 0.0005 0.0989
v -0.1004 0.0003 -0.0989
v -0.1002 0.0002 -0.0989
v 0.0252 0.1067 -0.0247
v -0.0252 0.1067 0.0247
v 0.0065 0.1333 -0.0062
v -0.0065 0.1333 0.0062
v 0.0033 0.1377 -0.0031
v -0.0033 0.1377 0.0031
v 0.0018 0.1399 -0.0016
v -0.0018 0.1399 0.0016
v 0.0010 0.1410 -0.0008
v -0.0010 0.1410 0.0008
v 0.0004 0.1419 -0.0002
v -0.0004 0.1419 0.0002
v -0.0501 0.0001 -0.0989
v -0.0000 0.0001 -0.0989
v 0.0501 0.0001 -0.0989
v -0.0003 0.1420 -0.0001
v 0.0003 0.1420 0.0001
v -0.0250 0.0001 -0.0989
v 0.0250 0.0001 -0.0989
v 0.0003 0.1420 -0.0001
v -0.0003 0.1420 0.0001
v 0.0751 0.0001 -0.0989
v -0.0751 0.0001 -0.0989
v 0.0374 0.0896 -0.0367
v -0.0374 0.0896 0.0367
v -0.0374 0.0896 -0.0367
v 0.0374 0.0896 0.0367
v 0.0616 0.0553 0.0606
v -0.0616 0.0553 -0.0606
v -0.0616 0.0553 0.0606
v 0.0616 0.0553 -0.0606
v -0.0972 0.0049 0.0958
v 0.0972 0.0049 -0.0958
v -0.0972 0.0049 -0.0958
v 0.0972 0.0049 0.0958
v 0.0855 0.0215 -0.0842
v -0.0855 0.0215 0.0842
v -0.0855 0.0215 -0.0842
v 0.0855 0.0215 0.0842
v 0.0313 0.0982 0.0307
v -0.0313 0.0982 -0.0307
v -0.0313 0.0982 0.0307
v 0.0313 0.0982 -0.0307
v -0.0190 0.1156 0.0186
v 0.0190 0.1156 -0.0186
v -0.0190 0.1156 -0.0186
v 0.0190 0.1156 0.0186
v 0.0106 0.1274 -0.0103
v 0.0148 0.1215 -0.0144
v -0.0106 0.1274 0.0103
v -0.0148 0.1215 0.0144
v -0.0106 0.1274 -0.0103
v -0.0148 0.1215 -0.0144
v 0.0106 0.1274 0.0103
v 0.0148 0.1215 0.0144
v 0.0990 0.0005 -0.1004
v -0.0990 0.0003 -0.1004
v -0.0990 0.0002 -0.1002
v -0.0990 0.0005 0.1004
v 0.0990 0.0003 0.1004
v 0.0990 0.0002 0.1002
v 0.0487 0.0724 -0.0495
v -0.0487 0.0724 0.0495
v 0.0248 0.1067 -0.0252
v -0.0248 0.1067 0.0252
v 0.0062 0.1333 -0.0065
v -0.0062 0.1333 0.0065
v 0.0031 0.1377 -0.0033
v -0.0031 0.1377 0.0033
v 0.0016 0.1399 -0.0018
v -0.0016 0.1399 0.0018
v 0.0008 0.1410 -0.0010
v -0.0008 0.1410 0.0010
v 0.0727 0.0381 -0.0737
v -0.0727 0.0381 0.0737
v 0.0002 0.1419 -0.0004
v -0.0002 0.1419 0.0004
v -0.0990 0.0001 -0.0501
v -0.0990 0.0001 -0.0000
v -0.0990 0.0001 0.0501
v -0.0000 0.1422 0.0002
v -0.0000 0.1422 -0.0002
v -0.0990 0.0001 0.0250
v -0.0990 0.0001 -0.0250
v 0.0487 0.0724 0.0495
v 0.0727 0.0381 0.0737
v -0.0990 0.0005 -0.1004
v 0.0990 0.0003 -0.1004
v 0.0990 0.0002 -0.1002
v 0.0990 0.0005 0.1004
v -0.0990 0.0003 0.1004
v -0.0990 0.0002 0.1002
v -0.0487 0.0724 -0.0495
v -0.0248 0.1067 -0.0252
v 0.0248 0.1067 0.0252
v -0.0062 0.1333 -0.0065
v 0.0062 0.1333 0.0065
v -0.0031 0.1377 -0.0033
v 0.0031 0.1377 0.0033
v -0.0016 0.1399 -0.0018
v 0.0016 0.1399 0.0018
v -0.0008 0.1410 -0.0010
v 0.0008 0.1410 0.0010
v -0.0727 0.0381 -0.0737
v -0.0002 0.1419 -0.0004
v 0.0002 0.1419 0.0004
v 0.0990 0.0001 -0.0501
v 0.0990 0.0001 -0.0000
v 0.0990 0.0001 0.0501
v 0.0001 0.1420 -0.0003
v -0.0001 0.1420 0.0003
v 0.0990 0.0001 0.0250
v 0.0990 0.0001 -0.0250
v -0.0001 0.1420 -0.0003
v 0.0001 0.1420 0.0003
v -0.0990 0.0001 0.0751
v -0.0990 0.0001 -0.0751
v 0.0990 0.0001 -0.0751
v 0.0990 0.0001 0.0751
v -0.0367 0.0896 -0.0374
v 0.0367 0.0896 0.0374
v -0.0367 0.0896 0.0374
v 0.0367 0.0896 -0.0374
v 0.0607 0.0553 -0.0616
v -0.0607 0.0553 0.0616
v 0.0607 0.0553 0.0616
v -0.0607 0.0553 -0.0616
v 0.0959 0.0049 0.0972
v -0.0959 0.0049 -0.0972
v -0.0959 0.0049 0.0972
v 0.0959 0.0049 -0.0972
v -0.0843 0.0215 -0.0855
v 0.0843 0.0215 0.0855
v -0.0843 0.0215 0.0855
v 0.0843 0.0215 -0.0855
v 0.0308 0.0982 -0.0313
v -0.0308 0.0982 0.0313
v -0.0308 0.0982 -0.0313
v 0.0308 0.0982 0.0313
v 0.0186 0.1156 0.0190
v -0.0186 0.1156 -0.0190
v -0.0186 0.1156 0.0190
v 0.0186 0.1156 -0.0190
v -0.0103 0.1274 -0.0106
v -0.0145 0.1215 -0.0148
v 0.0103 0.1274 0.0106
v 0.0145 0.1215 0.0148
v -0.0103 0.1274 0.0106
v -0.0145 0.1215 0.0148
v 0.0103 0.1274 -0.0106
v 0.0145 0.1215 -0.0148
v 0.0990 0.0002 -0.0989
v -0.0990 0.0002 -0.0989
v -0.0990 0.0002 0.0989
v 0.0990 0.0002 0.0989
v -0.1000 0.0010 -0.1000
v -0.0998 0.0010 -0.1000
v 0.1000 0.0010 -0.0998
v 0.0998 0.0010 0.1000
v -0.1000 0.0010 0.0998
v 0.0499 0.0009 0.1000
v -0.0000 0.0009 0.1000
v -0.0499 0.0009 0.1000
v -0.0499 0.0009 -0.1000
v 0.0000 0.0009 -0.1000
v 0.0499 0.0009 -0.1000
v -0.1000 0.0009 0.0499
v -0.1000 0.0009 -0.0000
v -0.1000 0.0009 -0.0499
v 0.1000 0.0009 -0.0499
v 0.1000 0.0009 0.0000
v 0.1000 0.0009 0.0499
v 0.1000 0.0009 0.0249
v 0.1000 0.0009 -0.0249
v -0.1000 0.0009 -0.0249
v -0.1000 0.0009 0.0249
v 0.0249 0.0009 -0.1000
v -0.0249 0.0009 -0.1000
v -0.0249 0.0009 0.1000
v 0.0249 0.0009 0.1000
v -0.0748 0.0009 -0.1000
v 0.0748 0.0009 0.1000
v -0.0748 0.0009 0.1000
v 0.0748 0.0009 -0.1000
v 0.1000 0.0009 -0.0748
v -0.1000 0.0009 0.0748
v -0.1000 0.0009 -0.0748
v 0.1000 0.0009 0.0748
v 0.0998 0.0010 -0.1000
v -0.1000 0.0010 -0.0998
v 0.1000 0.0010 -0.1000
v 0.1000 0.0010 0.1000
v -0.0998 0.0010 0.1000
v -0.1000 0.0010 0.1000
v 0.1000 0.0010 0.0998
v 0.1000 0.0010 0.0986
v -0.1000 0.0010 -0.0986
v 0.1000 0.0010 -0.0986
v -0.1000 0.0010 0.0986
v 0.0986 0.0010 -0.1000
v -0.0986 0.0010 0.1000
v -0.0986 0.0010 -0.1000
v 0.0986 0.0010 0.1000
f 550 542 288 405
f 486 477 216 357
f 485 478 213 355
f 562 399 467 591
f 549 541 285 403
f 6 9 10 12
f 7 11 10 9
f 8 12 10 11
f 13 16 17 19
f 14 18 17 16
f 15 19 17 18
f 20 23 24 26
f 21 25 24 23
f 22 26 24 25
f 27 30 31 33
f 28 32 31 30
f 29 33 31 32
f 34 38 39 42
f 35 40 39 38
f 36 41 39 40
f 37 42 39 41
f 931 14 16 963
f 963 16 13 964
f 299 34 42 309
f 309 42 37 308
f 1033 15 18 1066
f 1066 18 14 1064
f 835 21 23 871
f 871 23 20 872
f 1034 22 25 1067
f 1067 25 21 1070
f 934 28 30 966
f 966 30 27 967
f 1035 29 32 1069
f 1069 32 28 1068
f 838 7 9 874
f 874 9 6 875
f 1030 872 20 936
f 589 507 444 582
f 563 400 507 589
f 583 508 535 593
f 560 401 508 583
f 561 402 443 555
f 682 635 669 678
f 914 910 667 714
f 1010 1006 663 710
f 1009 1005 662 709
f 913 909 666 713
f 690 643 660 707
f 756 51 55 761
f 761 55 56 762
f 755 50 57 763
f 763 57 58 764
f 759 61 59 765
f 555 443 534 581
f 903 853 122 584
f 999 949 126 578
f 765 59 60 766
f 1000 950 127 577
f 904 854 123 585
f 558 351 129 580
f 255 384 803 799
f 66 67 825 826
f 772 66 826 790
f 63 807 808 62
f 258 386 807 63
f 179 817 818 178
f 524 74 84 249
f 930 382 764 922
f 1026 458 762 1018
f 1024 334 766 1017
f 928 525 760 921
f 819 459 182 71
f 94 82 75 87
f 87 75 76 88
f 93 81 77 89
f 89 77 78 90
f 97 85 79 91
f 91 79 80 92
f 185 337 817 179
f 69 811 812 68
f 183 336 811 69
f 797 805 806 798
f 254 383 805 797
f 177 815 816 176
f 103 91 92 104
f 109 97 91 103
f 101 89 90 102
f 105 93 89 101
f 99 87 88 100
f 106 94 87 99
f 84 96 95 83
f 74 86 96 84
f 845 847 90 78
f 941 943 88 76
f 942 944 92 80
f 846 848 86 74
f 118 106 99 111
f 111 99 100 112
f 117 105 101 113
f 113 101 102 114
f 121 109 103 115
f 115 103 104 116
f 96 108 107 95
f 86 98 108 96
f 847 849 102 90
f 943 945 100 88
f 944 946 104 92
f 848 850 98 86
f 120 144 143 119
f 139 115 116 140
f 145 121 115 139
f 137 113 114 138
f 141 117 113 137
f 135 111 112 136
f 108 120 119 107
f 98 110 120 108
f 849 851 114 102
f 945 947 112 100
f 946 948 116 104
f 850 852 110 98
f 466 470 215 203
f 680 670 668 679
f 685 638 671 681
f 681 671 674 677
f 686 639 673 675
f 675 673 672 676
f 683 636 635 682
f 1014 996 629 716
f 2 591 590 3
f 746 626 599 750
f 753 596 597 752
f 750 599 601 748
f 304 139 140 305
f 310 145 139 304
f 302 137 138 303
f 306 141 137 302
f 300 135 136 301
f 307 142 135 300
f 110 134 144 120
f 851 855 138 114
f 947 951 136 112
f 948 952 140 116
f 852 856 134 110
f 716 629 598 751
f 142 118 111 135
f 349 357 216 204
f 350 358 217 205
f 465 469 212 200
f 347 355 213 201
f 348 356 214 202
f 751 598 595 754
f 744 624 596 753
f 721 634 616 736
f 719 632 602 722
f 717 630 603 723
f 745 625 633 720
f 464 466 203 197
f 345 349 204 198
f 346 350 205 199
f 463 465 200 194
f 343 347 201 195
f 344 348 202 196
f 462 464 197 191
f 341 345 198 192
f 342 346 199 193
f 461 463 194 188
f 339 343 195 189
f 340 344 196 190
f 460 462 191 185
f 337 341 192 186
f 338 342 193 187
f 459 461 188 182
f 335 339 189 183
f 336 340 190 184
f 817 337 186 177
f 815 338 187 73
f 827 526 254 797
f 813 335 183 69
f 811 336 184 67
f 821 460 185 179
f 802 801 833 834
f 778 802 834 794
f 1019 819 820 1020
f 186 338 815 177
f 1021 821 822 1022
f 972 460 821 1021
f 556 353 130 587
f 559 352 131 588
f 566 278 125 579
f 567 283 132 592
f 568 282 133 594
f 557 354 128 576
f 688 641 659 706
f 689 642 658 705
f 696 649 664 711
f 691 644 657 704
f 692 645 656 703
f 687 640 661 708
f 864 857 161 452
f 863 858 162 321
f 862 859 163 322
f 427 160 163 428
f 320 159 162 322
f 319 158 161 321
f 450 155 160 427
f 317 156 159 320
f 318 157 158 319
f 424 151 154 425
f 314 150 153 316
f 313 149 152 315
f 447 146 151 424
f 311 147 150 314
f 312 148 149 313
f 546 540 296 413
f 422 411 297 414
f 421 412 298 415
f 545 539 293 416
f 420 409 294 417
f 419 410 295 418
f 552 538 290 471
f 484 407 291 472
f 483 408 292 473
f 739 619 605 725
f 738 618 604 724
f 743 623 608 728
f 533 537 287 275
f 397 405 288 276
f 398 406 289 277
f 532 536 284 272
f 395 403 285 273
f 396 404 286 274
f 715 628 612 732
f 747 627 621 741
f 740 620 615 735
f 531 533 275 269
f 393 397 276 270
f 394 398 277 271
f 530 532 272 266
f 391 395 273 267
f 392 396 274 268
f 529 531 269 263
f 389 393 270 264
f 390 394 271 265
f 528 530 266 260
f 387 391 267 261
f 388 392 268 262
f 527 529 263 257
f 385 389 264 258
f 386 390 265 259
f 526 528 260 254
f 383 387 261 255
f 384 388 262 256
f 809 385 258 63
f 807 386 259 795
f 70 814 784 770
f 805 383 255 799
f 803 384 256 801
f 829 527 257 65
f 925 829 830 926
f 879 527 829 925
f 923 827 828 924
f 971 459 819 1019
f 72 73 823 824
f 769 72 824 789
f 564 280 206 572
f 565 279 207 571
f 592 132 351 558
f 573 211 208 570
f 574 210 209 575
f 569 281 124 586
f 694 647 655 702
f 695 648 654 701
f 704 657 643 690
f 697 650 653 700
f 698 651 652 699
f 693 646 665 712
f 993 489 226 982
f 988 364 225 983
f 987 363 224 984
f 491 232 235 492
f 368 231 234 370
f 367 230 233 369
f 517 227 232 491
f 365 228 231 368
f 366 229 230 367
f 488 223 226 489
f 362 222 225 364
f 361 221 224 363
f 514 218 223 488
f 359 219 222 362
f 360 220 221 361
f 861 34 299 891
f 986 305 140 952
f 892 303 138 855
f 985 301 136 951
f 891 299 134 856
f 957 37 301 985
f 860 36 303 892
f 956 35 305 986
f 219 360 361 222
f 218 359 362 223
f 222 361 363 225
f 223 362 364 226
f 228 366 367 231
f 227 365 368 232
f 231 367 369 234
f 232 368 370 235
f 983 225 363 987
f 982 226 364 988
f 702 655 646 693
f 699 652 650 697
f 710 663 645 692
f 701 654 647 694
f 572 206 281 569
f 575 209 211 573
f 578 126 282 568
f 571 207 280 564
f 64 810 782 773
f 800 804 779 777
f 67 184 435 825
f 62 808 781 774
f 433 434 382 381
f 85 181 379 79
f 332 331 434 433
f 77 433 381 78
f 255 261 388 384
f 254 260 387 383
f 258 264 390 386
f 257 263 389 385
f 261 267 392 388
f 260 266 391 387
f 264 270 394 390
f 263 269 393 389
f 267 273 396 392
f 266 272 395 391
f 270 276 398 394
f 269 275 397 393
f 733 613 622 742
f 730 610 611 731
f 273 285 404 396
f 272 284 403 395
f 276 288 406 398
f 275 287 405 397
f 731 611 613 733
f 742 622 620 740
f 472 291 408 483
f 471 290 407 484
f 408 419 418 292
f 291 417 419 408
f 417 294 410 419
f 407 420 417 291
f 290 416 420 407
f 416 293 409 420
f 538 545 416 290
f 410 421 415 295
f 294 414 421 410
f 414 297 412 421
f 409 422 414 294
f 293 413 422 409
f 413 296 411 422
f 539 546 413 293
f 147 312 313 150
f 146 311 314 151
f 150 313 315 153
f 151 314 316 154
f 156 318 319 159
f 155 317 320 160
f 159 319 321 162
f 160 320 322 163
f 858 862 322 162
f 857 863 321 161
f 706 659 640 687
f 703 656 644 691
f 700 653 649 696
f 705 658 641 688
f 587 130 354 557
f 594 133 283 567
f 570 208 278 566
f 588 131 353 556
f 178 818 786 767
f 68 812 783 771
f 798 806 780 776
f 176 816 785 768
f 796 795 831 832
f 878 526 827 923
f 181 180 380 379
f 775 796 832 793
f 183 189 340 336
f 182 188 339 335
f 186 192 342 338
f 185 191 341 337
f 189 195 344 340
f 188 194 343 339
f 192 198 346 342
f 191 197 345 341
f 195 201 348 344
f 194 200 347 343
f 198 204 350 346
f 197 203 349 345
f 741 621 628 715
f 732 612 623 743
f 724 604 619 739
f 725 605 631 718
f 201 213 356 348
f 200 212 355 347
f 204 216 358 350
f 203 215 357 349
f 36 307 300 41
f 41 300 301 37
f 35 306 302 40
f 40 302 303 36
f 34 310 304 38
f 38 304 305 35
f 144 309 308 143
f 134 299 309 144
f 536 549 403 284
f 469 485 355 212
f 470 486 357 215
f 537 550 405 287
f 981 990 486 470
f 980 989 485 469
f 953 471 484 959
f 954 472 483 958
f 296 474 482 411
f 297 475 481 412
f 216 477 480 358
f 213 478 479 356
f 356 479 445 214
f 358 480 446 217
f 412 481 476 298
f 411 482 475 297
f 540 551 474 296
f 958 483 473 955
f 959 484 472 954
f 992 552 471 953
f 962 447 424 932
f 932 424 425 933
f 965 450 427 935
f 935 427 428 936
f 1029 864 452 967
f 1008 1003 638 685
f 714 667 651 698
f 1001 961 400 563
f 584 122 210 574
f 1022 822 788 1015
f 801 256 499 833
f 75 497 457 76
f 253 252 498 497
f 971 973 461 459
f 972 974 462 460
f 973 975 463 461
f 974 976 464 462
f 975 977 465 463
f 976 978 466 464
f 723 603 632 719
f 722 602 634 721
f 977 980 469 465
f 205 217 446 442
f 202 214 445 441
f 737 617 630 717
f 727 607 610 730
f 978 981 470 466
f 199 205 442 440
f 196 202 441 439
f 193 199 440 438
f 190 196 439 437
f 187 193 438 436
f 184 190 437 435
f 1020 820 787 1016
f 73 187 436 823
f 497 498 458 457
f 81 332 433 77
f 1002 979 402 561
f 577 127 352 559
f 1007 1004 636 683
f 709 662 642 689
f 859 865 428 163
f 158 451 452 161
f 157 426 451 158
f 149 448 449 152
f 148 423 448 149
f 989 957 478 485
f 990 956 477 486
f 298 476 554 513
f 955 473 553 991
f 1028 898 552 992
f 890 897 551 540
f 887 896 550 537
f 886 895 549 536
f 292 418 548 511
f 295 415 547 512
f 889 894 546 539
f 888 893 545 538
f 285 541 544 404
f 406 543 510 289
f 404 544 509 286
f 288 542 543 406
f 870 514 488 836
f 836 488 489 837
f 873 517 491 839
f 839 491 492 840
f 1027 837 489 993
f 912 907 639 686
f 626 164 5 599
f 905 868 399 562
f 596 2 3 597
f 926 830 792 919
f 79 379 333 80
f 84 83 251 249
f 379 380 334 333
f 878 880 528 526
f 879 881 529 527
f 880 882 530 528
f 881 883 531 529
f 882 884 532 530
f 883 885 533 531
f 1013 995 625 745
f 884 886 536 532
f 885 887 537 533
f 734 614 618 738
f 898 888 538 552
f 893 889 539 545
f 894 890 540 546
f 415 298 513 547
f 418 295 512 548
f 473 292 511 553
f 918 899 626 746
f 277 289 510 506
f 274 286 509 505
f 917 900 624 744
f 271 277 506 504
f 268 274 505 503
f 265 271 504 502
f 262 268 503 501
f 259 265 502 500
f 256 262 501 499
f 924 828 791 920
f 795 259 500 831
f 249 251 250 248
f 82 253 497 75
f 906 869 401 560
f 585 123 279 565
f 911 908 637 684
f 713 666 648 695
f 984 224 516 994
f 230 518 519 233
f 229 490 518 230
f 221 515 516 224
f 220 487 515 221
f 895 860 541 549
f 896 861 542 550
f 401 684 680 508
f 166 562 591 2
f 4 589 582 1
f 167 563 589 4
f 5 583 593 44
f 164 560 583 5
f 165 561 555 45
f 45 555 581 43
f 841 903 584 430
f 937 999 578 373
f 938 1000 577 372
f 842 904 585 453
f 48 558 580 429
f 46 556 587 493
f 49 559 588 494
f 236 566 579 374
f 237 567 592 520
f 238 568 594 521
f 47 557 576 371
f 168 564 572 323
f 169 565 571 241
f 520 592 558 48
f 324 573 570 240
f 325 574 575 326
f 239 569 586 454
f 323 572 569 239
f 326 575 573 324
f 373 578 568 238
f 241 571 564 168
f 493 587 557 47
f 521 594 567 237
f 240 570 566 236
f 494 588 556 46
f 960 1001 563 167
f 430 584 574 325
f 968 1002 561 165
f 372 577 559 49
f 866 905 562 166
f 867 906 560 164
f 453 585 565 169
f 599 5 44 601
f 629 167 4 598
f 598 4 1 595
f 624 166 2 596
f 720 633 600 749
f 634 47 371 616
f 632 46 493 602
f 630 49 494 603
f 625 165 45 633
f 619 237 520 605
f 618 238 521 604
f 623 239 454 608
f 628 168 323 612
f 627 169 241 621
f 620 236 374 615
f 613 324 240 622
f 610 325 326 611
f 611 326 324 613
f 622 240 236 620
f 621 241 168 628
f 612 323 239 623
f 604 521 237 619
f 605 520 48 631
f 603 494 46 632
f 602 493 47 634
f 617 372 49 630
f 607 430 325 610
f 995 968 165 625
f 614 373 238 618
f 899 867 164 626
f 900 866 166 624
f 609 453 169 627
f 996 960 167 629
f 901 842 453 609
f 916 901 609 729
f 718 631 606 726
f 1012 997 617 737
f 1011 998 614 734
f 915 902 607 727
f 631 48 429 606
f 1047 651 667 1063
f 1044 648 666 1062
f 1074 907 665 1061
f 1073 908 664 1060
f 1041 645 663 1059
f 1038 642 662 1058
f 1078 1003 661 1057
f 1077 1004 660 1056
f 1036 640 659 1055
f 1037 641 658 1054
f 1039 643 657 1053
f 1040 644 656 1052
f 1042 646 655 1051
f 1043 647 654 1050
f 1045 649 653 1049
f 1046 650 652 1048
f 1048 652 651 1047
f 1049 653 650 1046
f 1060 664 649 1045
f 1050 654 648 1044
f 1051 655 647 1043
f 1061 665 646 1042
f 1052 656 645 1041
f 1053 657 644 1040
f 1056 660 643 1039
f 1054 658 642 1038
f 1055 659 641 1037
f 1057 661 640 1036
f 1072 909 669 1065
f 1076 1005 672 1068
f 1075 1006 668 1064
f 1071 910 674 1070
f 1065 669 635 1031
f 1031 635 636 1032
f 997 938 372 617
f 998 937 373 614
f 902 841 430 607
f 633 45 43 600
f 591 467 468 590
f 684 637 670 680
f 729 609 627 747
f 123 713 695 279
f 869 911 684 401
f 868 912 686 399
f 127 709 689 352
f 979 1007 683 402
f 122 714 698 210
f 961 1008 685 400
f 131 705 688 353
f 208 700 696 278
f 133 703 691 283
f 130 706 687 354
f 207 701 694 280
f 126 710 692 282
f 209 699 697 211
f 206 702 693 281
f 281 693 712 124
f 210 698 699 209
f 211 697 700 208
f 132 704 690 351
f 279 695 701 207
f 280 694 702 206
f 354 687 708 128
f 282 692 703 133
f 283 691 704 132
f 278 696 711 125
f 352 689 705 131
f 353 688 706 130
f 402 683 682 443
f 467 675 676 468
f 399 686 675 467
f 507 681 677 444
f 400 685 681 507
f 508 680 679 535
f 351 690 707 129
f 854 913 713 123
f 950 1009 709 127
f 949 1010 710 126
f 853 914 714 122
f 443 682 678 534
f 496 729 747 247
f 843 915 727 495
f 939 1011 734 431
f 940 1012 737 432
f 170 718 726 455
f 844 916 729 496
f 53 720 749 54
f 877 917 744 61
f 876 918 746 51
f 431 734 738 172
f 969 1013 745 52
f 495 727 730 244
f 432 737 717 175
f 329 722 721 173
f 330 723 719 174
f 327 725 718 170
f 328 724 739 171
f 377 732 743 245
f 378 741 715 246
f 375 742 740 242
f 376 731 733 243
f 244 730 731 376
f 243 733 742 375
f 242 740 735 522
f 247 747 741 378
f 246 715 732 377
f 245 743 728 523
f 172 738 724 328
f 171 739 725 327
f 52 745 720 53
f 175 717 723 330
f 174 719 722 329
f 173 721 736 456
f 61 744 753 59
f 57 751 754 58
f 50 716 751 57
f 55 750 748 56
f 59 753 752 60
f 51 746 750 55
f 970 1014 716 50
f 244 778 794 495
f 247 775 793 496
f 877 919 792 523
f 876 920 791 522
f 172 772 790 431
f 175 769 789 432
f 970 1015 788 456
f 969 1016 787 455
f 173 767 786 329
f 174 768 785 330
f 170 770 784 327
f 171 771 783 328
f 245 773 782 377
f 246 774 781 378
f 242 776 780 375
f 243 777 779 376
f 376 779 778 244
f 375 780 777 243
f 522 791 776 242
f 378 781 775 247
f 377 782 774 246
f 523 792 773 245
f 328 783 772 172
f 327 784 771 171
f 455 787 770 170
f 330 785 769 175
f 329 786 768 174
f 456 788 767 173
f 844 921 760 54
f 940 1017 766 60
f 939 1018 762 56
f 843 922 764 58
f 54 760 758 53
f 53 758 757 52
f 180 759 765 380
f 434 763 764 382
f 331 755 763 434
f 498 761 762 458
f 252 756 761 498
f 248 250 757 758
f 380 765 766 334
f 799 803 804 800
f 257 385 809 65
f 65 809 810 64
f 792 830 64 773
f 830 829 65 64
f 779 804 802 778
f 804 803 801 802
f 780 806 800 777
f 806 805 799 800
f 182 335 813 71
f 71 813 814 70
f 781 808 796 775
f 808 807 795 796
f 782 810 62 774
f 810 809 63 62
f 788 822 178 767
f 822 821 179 178
f 783 812 66 772
f 812 811 67 66
f 784 814 68 771
f 814 813 69 68
f 791 828 798 776
f 828 827 797 798
f 785 816 72 769
f 816 815 73 72
f 786 818 176 768
f 818 817 177 176
f 787 820 70 770
f 820 819 71 70
f 846 74 524 927
f 927 524 525 928
f 942 80 333 1023
f 1023 333 334 1024
f 941 76 457 1025
f 1025 457 458 1026
f 845 78 381 929
f 929 381 382 930
f 760 525 248 758
f 525 524 249 248
f 833 929 930 834
f 499 845 929 833
f 831 927 928 832
f 500 846 927 831
f 495 794 922 843
f 496 793 921 844
f 51 756 920 876
f 61 759 919 877
f 522 735 918 876
f 523 728 917 877
f 54 749 916 844
f 58 754 915 843
f 444 677 914 853
f 534 678 913 854
f 124 712 912 868
f 125 711 911 869
f 595 1 841 902
f 1063 667 910 1071
f 1062 666 909 1072
f 1033 637 908 1073
f 1035 639 907 1074
f 754 595 902 915
f 749 600 901 916
f 600 43 842 901
f 608 454 866 900
f 615 374 867 899
f 374 579 906 867
f 454 586 905 866
f 43 581 904 842
f 1 582 903 841
f 310 34 861 896
f 307 36 860 895
f 711 664 908 911
f 579 125 869 906
f 252 924 920 756
f 728 608 900 917
f 735 615 899 918
f 315 152 890 894
f 316 153 889 893
f 425 154 888 898
f 121 145 887 885
f 118 142 886 884
f 109 121 885 883
f 106 118 884 882
f 97 109 883 881
f 94 106 882 880
f 85 97 881 879
f 82 94 880 878
f 180 926 919 759
f 586 124 868 905
f 712 665 907 912
f 964 13 837 1027
f 33 839 840 27
f 29 873 839 33
f 19 836 837 13
f 15 870 836 19
f 154 316 893 888
f 153 315 894 889
f 142 307 895 886
f 145 310 896 887
f 152 449 897 890
f 933 425 898 1028
f 513 554 865 859
f 991 553 864 1029
f 82 878 923 253
f 511 548 863 857
f 512 547 862 858
f 541 860 892 544
f 543 891 856 510
f 544 892 855 509
f 542 861 891 543
f 253 923 924 252
f 85 879 925 181
f 181 925 926 180
f 547 513 859 862
f 548 512 858 863
f 553 511 857 864
f 506 510 856 852
f 505 509 855 851
f 504 506 852 850
f 503 505 851 849
f 502 504 850 848
f 501 503 849 847
f 500 502 848 846
f 499 501 847 845
f 832 928 921 793
f 834 930 922 794
f 581 534 854 904
f 582 444 853 903
f 678 669 909 913
f 677 674 910 914
f 994 516 872 1030
f 518 874 875 519
f 490 838 874 518
f 515 871 872 516
f 487 835 871 515
f 554 994 1030 865
f 492 991 1029 840
f 6 933 1028 875
f 449 964 1027 897
f 825 1025 1026 826
f 435 941 1025 825
f 823 1023 1024 824
f 436 942 1023 823
f 431 790 1018 939
f 432 789 1017 940
f 52 757 1016 969
f 50 755 1015 970
f 456 736 1014 970
f 455 726 1013 969
f 60 752 1012 940
f 56 748 1011 939
f 535 679 1010 949
f 468 676 1009 950
f 128 708 1008 961
f 129 707 1007 979
f 601 44 937 998
f 597 3 938 997
f 1059 663 1006 1075
f 1058 662 1005 1076
f 1032 636 1004 1077
f 1034 638 1003 1078
f 748 601 998 1011
f 752 597 997 1012
f 616 371 960 996
f 606 429 968 995
f 429 580 1002 968
f 371 576 1001 960
f 3 590 1000 938
f 44 593 999 937
f 476 984 994 554
f 726 606 995 1013
f 897 1027 993 551
f 875 1028 992 519
f 235 955 991 492
f 306 35 956 990
f 308 37 957 989
f 707 660 1004 1007
f 580 129 979 1002
f 250 1020 1016 757
f 117 141 981 978
f 119 143 980 977
f 105 117 978 976
f 107 119 977 975
f 93 105 976 974
f 95 107 975 973
f 81 93 974 972
f 83 95 973 971
f 331 1022 1015 755
f 576 128 961 1001
f 708 661 1003 1008
f 840 1029 967 27
f 26 935 936 20
f 22 965 935 26
f 12 932 933 6
f 8 962 932 12
f 519 992 953 233
f 369 959 954 234
f 370 958 955 235
f 234 954 958 370
f 233 953 959 369
f 143 308 989 980
f 141 306 990 981
f 474 982 988 482
f 475 983 987 481
f 477 956 986 480
f 478 957 985 479
f 479 985 951 445
f 480 986 952 446
f 481 987 984 476
f 482 988 983 475
f 551 993 982 474
f 83 971 1019 251
f 81 972 1021 332
f 332 1021 1022 331
f 251 1019 1020 250
f 442 446 952 948
f 441 445 951 947
f 736 616 996 1014
f 440 442 948 946
f 439 441 947 945
f 438 440 946 944
f 437 439 945 943
f 436 438 944 942
f 435 437 943 941
f 824 1024 1017 789
f 826 1026 1018 790
f 590 468 950 1000
f 593 535 949 999
f 676 672 1005 1009
f 679 668 1006 1010
f 865 1030 936 428
f 451 966 967 452
f 426 934 966 451
f 448 963 964 449
f 423 931 963 448
f 22 1034 1078 965
f 8 1032 1077 962
f 426 1058 1076 934
f 423 1059 1075 931
f 29 1035 1074 873
f 15 1033 1073 870
f 490 1062 1072 838
f 487 1063 1071 835
f 11 1031 1032 8
f 7 1065 1031 11
f 835 1071 1070 21
f 931 1075 1064 14
f 934 1076 1068 28
f 838 1072 1065 7
f 450 1057 1036 155
f 317 1055 1037 156
f 318 1054 1038 157
f 447 1056 1039 146
f 311 1053 1040 147
f 312 1052 1041 148
f 517 1061 1042 227
f 365 1051 1043 228
f 366 1050 1044 229
f 514 1060 1045 218
f 359 1049 1046 219
f 360 1048 1047 220
f 219 1046 1048 360
f 218 1045 1049 359
f 228 1043 1050 366
f 227 1042 1051 365
f 147 1040 1052 312
f 146 1039 1053 311
f 156 1037 1054 318
f 155 1036 1055 317
f 962 1077 1056 447
f 965 1078 1057 450
f 157 1038 1058 426
f 148 1041 1059 423
f 870 1073 1060 514
f 873 1074 1061 517
f 229 1044 1062 490
f 220 1047 1063 487
f 673 1069 1068 672
f 639 1035 1069 673
f 671 1067 1070 674
f 638 1034 1067 671
f 670 1066 1064 668
f 637 1033 1066 670
