o scarabbeetle
v 0.6693 1.1894 0.3464
v 0.6189 0.9297 0.0499
v 0.5277 1.4838 0.6066
v 0.4121 1.1315 0.5494
v 0.8529 1.5423 0.0451
v 0.7668 1.5693 0.3523
v 0.3413 0.6897 0.0569
v 0.4048 0.8730 0.3560
v 0.6887 2.0057 0.4434
v 0.0134 1.1120 0.5974
v 0.7738 2.0001 -0.0132
v 0.0362 0.6190 0.0075
v 0.0240 0.7993 0.3996
v 0.5282 1.9927 0.6502
v 0.8169 1.9349 0.0474
v 0.0563 1.9860 0.7988
v 0.1174 1.4074 0.7266
v 0.0991 0.6603 0.2188
v 0.5984 1.0728 -0.0266
v 0.7448 1.4786 -0.0224
v 0.3021 0.7734 -0.0284
v 0.5339 2.0103 0.4530
v 0.0162 1.0676 0.4423
v 0.7079 1.9842 0.0096
v 0.6059 2.0074 0.3291
v 0.3052 2.0144 0.6072
v 0.0192 1.5451 0.6048
v 0.0341 1.9999 0.6645
v 0.0233 0.6829 0.0042
v 0.0145 0.7920 0.2102
v 0.7524 1.7087 -0.0216
v 0.6922 1.2707 -0.0247
v 0.4752 0.9137 -0.0275
v 0.4420 2.0126 0.5359
v 0.0175 1.2684 0.5286
v 0.0151 0.9069 0.3351
v 0.7722 1.2320 -0.0097
v 0.4476 0.7884 -0.0310
v 0.5613 2.0334 0.5481
v 0.0234 2.0210 0.7295
v -0.6693 1.1894 0.3464
v -0.6189 0.9297 0.0499
v -0.5361 1.5883 0.6208
v -0.4468 1.1537 0.5462
v -0.8529 1.5423 0.0451
v -0.7668 1.5693 0.3523
v -0.3413 0.6897 0.0569
v -0.4048 0.8730 0.3560
v -0.6713 2.0021 0.4849
v -0.0133 1.1113 0.5971
v -0.7738 2.0002 -0.0128
v -0.4425 1.9954 0.6958
v -0.0539 0.7554 0.3662
v -0.8169 1.9349 0.0474
v -0.0565 1.9868 0.7987
v -0.1153 1.4051 0.7258
v -0.0891 0.6283 -0.0124
v -0.5984 1.0728 -0.0266
v -0.7448 1.4786 -0.0224
v -0.3021 0.7734 -0.0285
v -0.5339 2.0103 0.4530
v -0.0162 1.0676 0.4423
v -0.7079 1.9842 0.0096
v -0.6059 2.0074 0.3291
v -0.3052 2.0144 0.6072
v -0.0192 1.5451 0.6048
v -0.0326 2.0011 0.6643
v -0.0168 0.6812 0.0008
v -0.0145 0.7920 0.2102
v -0.7524 1.7088 -0.0212
v -0.7722 1.2329 -0.0104
v -0.6922 1.2707 -0.0247
v -0.4752 0.9137 -0.0275
v -0.4420 2.0126 0.5359
v -0.0175 1.2684 0.5286
v -0.0151 0.9069 0.3351
v -0.4474 0.7884 -0.0313
v -0.5613 2.0333 0.5470
v -0.0233 2.0210 0.7297
v -0.0199 0.6324 0.1458
v -0.6163 1.2553 0.3863
v -0.3409 2.8421 0.3021
v 0.5636 1.1597 0.3842
v -0.5804 0.9498 -0.1076
v -0.4641 2.8591 0.1386
v -0.4719 2.9023 -0.0847
v 0.7233 1.1516 -0.0325
v 0.3525 3.0339 0.0117
v 0.6003 1.7665 0.4938
v -0.1639 1.1981 0.5725
v 0.2658 0.9926 0.4294
v 0.2529 2.9852 0.2524
v -0.0257 2.9515 0.3236
v -0.7133 1.6287 0.3527
v -0.8185 1.4844 -0.1141
v 0.8009 1.4944 -0.1880
v 0.7858 1.6161 0.1806
v 0.2779 1.3965 0.6026
v -0.3623 1.6490 0.6256
v -0.2651 0.7113 -0.0334
v 0.4098 0.8028 0.0825
v -0.3402 0.8873 0.3083
v 0.1761 3.1092 -0.0764
v 0.0017 3.0613 -0.0207
v -0.1987 3.1047 -0.0772
v -0.2192 3.0555 0.1562
v -0.4584 1.9280 0.5801
v -0.5802 2.1312 0.5033
v -0.4232 2.6334 0.2679
v 0.4068 2.7003 0.3008
v 0.5368 2.1422 0.5397
v 0.4410 2.0372 0.5277
v -0.5827 2.0368 0.3848
v -0.6615 2.0341 0.1881
v -0.6058 2.5629 0.2212
v -0.8030 2.1366 0.0414
v -0.7718 1.8614 0.0380
v -0.6903 2.0330 -0.1144
v -0.5367 2.6564 0.0213
v -0.6880 2.5480 -0.0996
v 0.7988 2.1551 -0.1182
v 0.6887 2.0345 0.1082
v 0.6903 2.0330 -0.1146
v 0.5481 2.7476 0.0536
v 0.7480 2.1419 0.2615
v 0.6106 2.0360 0.3338
v 0.5976 2.6117 0.1316
v 0.2942 1.9381 0.6607
v 0.1978 2.0382 0.6531
v 0.1855 2.7385 0.3934
v -0.0559 1.9273 0.7048
v -0.0766 2.6546 0.4098
v 0.1903 2.6095 0.5240
v -0.2245 2.1184 0.6970
v -0.2210 2.0380 0.6514
v -0.2805 2.5840 0.5034
v 0.0935 0.6803 0.0333
v 0.0174 0.8014 0.3146
v -0.3457 2.6248 0.3087
v 0.5118 2.6458 0.1056
v 0.3137 2.6267 0.3333
v -0.4110 2.8296 -0.3342
v 0.5018 1.1585 -0.5114
v 0.4368 2.8199 -0.3177
v -0.5520 1.0654 -0.3791
v -0.6863 1.4186 -0.4444
v 0.5767 0.9992 -0.2538
v 0.3698 2.9561 -0.2422
v 0.6662 1.4581 -0.4941
v 0.0922 2.9667 -0.3790
v -0.2070 2.9961 -0.3332
v 0.2764 1.3964 -0.6833
v -0.5082 1.3337 -0.5814
v -0.2669 0.8598 -0.3916
v 0.2877 0.7690 -0.2355
v -0.5952 1.9071 -0.5370
v -0.3934 2.0378 -0.6489
v -0.5045 2.5780 -0.4264
v 0.4476 2.6859 -0.3453
v 0.5370 2.1417 -0.6200
v 0.6515 1.8930 -0.4719
v 0.0855 0.9428 -0.5133
v -0.7376 1.8820 -0.2754
v -0.7126 2.1410 -0.4041
v -0.6104 2.0348 -0.4001
v -0.4802 2.6918 -0.3150
v 0.7124 2.1404 -0.4046
v 0.7664 1.8690 -0.1819
v 0.6103 2.0350 -0.4001
v 0.5935 2.5860 -0.2622
v 0.3680 1.9175 -0.7094
v 0.3412 2.0379 -0.6870
v 0.2418 2.5913 -0.6016
v -0.1945 1.2320 -0.6588
v -0.0707 2.0378 -0.7532
v 0.0047 1.9316 -0.7922
v 0.1157 2.7446 -0.4905
v -0.0892 2.5700 -0.6668
v -0.3282 2.1301 -0.7372
v -0.3604 1.9220 -0.7109
v -0.1890 2.7363 -0.4731
v -0.0135 0.7093 -0.2535
v -0.4160 2.6238 -0.3425
v 0.5021 2.6448 -0.1864
v 0.3568 2.6232 -0.3934
v -0.0600 2.6622 -0.4917
v -0.5636 2.4143 0.4476
v -0.7483 2.2759 0.2497
v -0.2138 2.4561 0.6289
v 0.7044 2.4009 0.2547
v 0.4853 2.4245 0.5028
v 0.2628 2.2812 0.6623
v 0.7442 2.4310 -0.1569
v -0.6281 2.2024 -0.5513
v -0.7722 2.2847 -0.2382
v -0.3614 2.4382 -0.6517
v -0.7380 1.1830 -0.0099
v 0.7199 1.3047 0.2395
v -0.4501 0.8654 0.1518
v -0.4813 2.6136 0.2559
v 0.5804 2.4276 -0.5097
v 0.2256 2.1884 -0.7760
v 0.3614 3.1716 0.0200
v 0.3493 3.1842 -0.0788
v 0.5712 3.1754 0.0057
v 0.5103 3.2700 -0.0045
v 0.5550 3.1655 -0.1030
v 0.4590 3.0148 -0.0523
v 0.5685 2.9649 -0.0353
v 0.3952 2.8916 -0.0976
v 0.3917 2.9013 -0.0167
v 0.4524 2.8041 -0.0587
v 0.4569 3.1613 -0.1450
v 0.4567 3.1613 0.0645
v 0.5213 3.0253 -0.1046
v 0.5222 3.0261 0.0238
v 0.4219 2.8525 0.0324
v 0.5023 3.2407 -0.1043
v -0.3947 3.1639 0.0519
v -0.3509 3.1784 -0.0796
v -0.5637 3.2074 0.0174
v -0.5753 3.0560 -0.0755
v -0.5112 3.2803 -0.0515
v -0.4588 3.0149 -0.0290
v -0.5365 3.0067 0.0215
v -0.3919 2.9012 -0.0640
v -0.3952 2.8916 0.0171
v -0.4558 2.8005 -0.0271
v -0.4576 3.1616 -0.1454
v -0.4446 3.2051 0.0113
v -0.5212 3.0251 -0.1045
v -0.4218 2.8526 -0.1129
v 0.5089 1.1766 -0.0541
v 0.7115 1.4872 -0.0455
v 0.5089 1.1766 -0.3302
v 0.7261 1.5205 -0.2312
v 0.9793 1.0681 -0.0950
v 1.0058 1.1022 -0.2314
v 0.8934 0.9434 -0.2388
v 0.9027 0.9493 -0.1257
v 0.5780 0.4029 -0.2258
v 0.4784 0.5011 -0.2499
v 0.5038 0.4988 -0.1104
v 0.9710 0.6992 -0.2458
v 0.8241 0.6685 -0.2542
v 0.8108 0.6805 -0.1514
v 0.9615 0.7054 -0.1300
v 0.3958 -0.0074 -0.2396
v 0.3819 -0.0166 -0.1708
v 0.5770 -0.0279 -0.1743
v 0.6671 1.4156 -0.3833
v 0.9668 0.9780 -0.2828
v 0.5884 0.4740 -0.2837
v 0.8563 0.6700 -0.1159
v 0.5523 0.0166 -0.2583
v 0.4924 0.0148 -0.1277
v 0.6043 0.0326 -0.2150
v 0.5518 0.2062 -0.2326
v 0.4369 0.2068 -0.2170
v 0.5540 0.0908 -0.1336
v 0.4223 0.0775 -0.1348
v 0.4849 1.1401 -0.1921
v 0.5518 0.4108 -0.1243
v -0.5119 1.1806 -0.0463
v -0.7261 1.5205 -0.1531
v -0.4864 1.1430 -0.2539
v -0.7201 1.4995 -0.3152
v -1.0108 1.0934 -0.1563
v -0.9791 1.0695 -0.2896
v -0.9128 0.9508 -0.2642
v -0.8915 0.9425 -0.1574
v -0.5038 0.4988 -0.2739
v -0.4735 0.5055 -0.1489
v -0.9697 0.6979 -0.2412
v -0.8114 0.6833 -0.2297
v -0.9615 0.7054 -0.1300
v -0.5526 0.4092 -0.2586
v -0.5663 0.4035 -0.1348
v -0.5765 -0.0270 -0.2116
v -0.3961 -0.0258 -0.2116
v -0.6671 1.4156 -0.0009
v -0.5724 1.2715 -0.3925
v -0.9559 0.9948 -0.0935
v -0.5521 0.5020 -0.1016
v -0.8564 0.6708 -0.2682
v -0.8353 0.6681 -0.1201
v -0.4891 0.0174 -0.2587
v -0.5526 0.0166 -0.1260
v -0.6045 0.0334 -0.1696
v -0.3747 0.0000 -0.1509
v -0.5543 0.0911 -0.2513
v -0.4223 0.0777 -0.2494
v -0.5520 0.2070 -0.1520
v -0.4426 0.2204 -0.1516
v 0.4691 2.5066 -0.3908
v 0.4476 2.5383 -0.2629
v 0.5339 2.4103 -0.1000
v 0.6789 2.1914 -0.2591
v 0.6718 2.2158 -0.4002
v 0.9208 3.3399 -0.4352
v 0.8157 3.3052 -0.3988
v 0.6596 3.6141 -0.3018
v 0.8279 3.1563 -0.2626
v 0.7096 3.5172 -0.2016
v 0.8352 3.4223 -0.1428
v 0.9303 3.3037 -0.1451
v 1.0037 3.3188 -0.2014
v 1.0203 3.3265 -0.3506
v 0.8163 2.8356 -0.4470
v 0.8657 2.9814 -0.3772
v 0.8303 2.9748 -0.2542
v 0.8163 2.8356 -0.1274
v 0.8867 2.9765 -0.1895
v 0.9081 2.6922 -0.1557
v 0.9571 2.9189 -0.1994
v 0.9820 2.7525 -0.2980
v 0.9194 2.7703 -0.4306
v 0.5661 4.0134 -0.1492
v 0.5568 3.9595 -0.2531
v 0.5041 3.8190 -0.1011
v 0.5260 3.8009 -0.2924
v 0.6278 3.8649 -0.0798
v 0.7169 3.7398 -0.2919
v 0.4607 3.8538 -0.1884
v 0.6401 3.9961 -0.1660
v 0.4635 3.7766 -0.1964
v 0.7677 3.7092 -0.1706
v 0.9715 2.9464 -0.3596
v 0.6235 3.9678 -0.2724
v -0.4668 2.5100 -0.3862
v -0.4473 2.5386 -0.2633
v -0.5339 2.4103 -0.1000
v -0.6790 2.1914 -0.2592
v -0.6719 2.2158 -0.4015
v -0.9207 3.3407 -0.4351
v -0.8160 3.3036 -0.3984
v -0.6918 3.5319 -0.2380
v -0.8415 3.1400 -0.2168
v -0.7814 3.4995 -0.1390
v -0.9303 3.3037 -0.1451
v -1.0037 3.3188 -0.2014
v -1.0165 3.3314 -0.3547
v -0.8340 2.7820 -0.4604
v -0.8847 2.9783 -0.3850
v -0.8374 2.9849 -0.3216
v -0.8658 2.9791 -0.1960
v -0.8892 2.8010 -0.1168
v -0.9809 2.7507 -0.2772
v -0.9195 2.6826 -0.3918
v -0.9572 2.9188 -0.3751
v -0.5702 4.0080 -0.2416
v -0.5662 4.0135 -0.1491
v -0.5002 3.8643 -0.1253
v -0.4833 3.7955 -0.2616
v -0.5583 3.7990 -0.0805
v -0.5906 3.8267 -0.3057
v -0.6477 3.6354 -0.2974
v -0.7372 3.7362 -0.2862
v -0.6539 3.8604 -0.1003
v -0.4982 3.8773 -0.2419
v -0.6438 4.0076 -0.2107
v -0.4719 3.7789 -0.1458
v -0.9715 2.9464 -0.2149
v 0.0000 5.6478 -0.0117
v -0.3142 5.5727 -0.0698
v -0.5234 5.3723 -0.0020
v -0.4302 4.3436 -0.0020
v 0.1328 4.1832 -0.0117
v 0.6479 5.1201 -0.0019
v -0.3384 4.4545 0.1086
v 0.4736 5.1878 0.1087
v -0.4736 5.1878 0.1087
v -0.0758 5.4890 0.1088
v 0.0758 4.3279 0.1088
v 0.3820 5.3753 0.1284
v 0.0397 5.3491 -0.0398
v -0.1893 5.2956 -0.0345
v -0.3159 5.1901 -0.0396
v -0.4023 4.9955 -0.0371
v -0.3918 4.7794 -0.0398
v -0.3159 4.6268 -0.0396
v -0.1921 4.5178 -0.0394
v -0.0397 4.4678 -0.0398
v 0.1893 4.5213 -0.0345
v 0.3159 4.6268 -0.0396
v 0.3918 4.7794 -0.0398
v 0.4023 4.9955 -0.0371
v 0.3159 5.1901 -0.0396
v 0.1921 5.2991 -0.0394
v 0.0099 5.6386 -0.1522
v -0.3013 5.5167 -0.2003
v -0.4907 5.4021 -0.1610
v -0.6281 5.1612 -0.1614
v -0.6679 4.7894 -0.1639
v -0.5316 4.4922 -0.1989
v -0.2988 4.2702 -0.1804
v -0.0651 4.1883 -0.1571
v 0.2371 4.2234 -0.1526
v 0.4907 4.4148 -0.1610
v 0.6281 4.6557 -0.1614
v 0.6679 5.0275 -0.1639
v 0.4227 5.4882 -0.1584
v 0.3403 4.3530 -0.2009
v 0.0605 5.5773 0.1080
v -0.1978 4.2182 0.0415
v 0.5185 5.3644 0.0420
v 0.3177 5.5441 0.0416
v 0.1002 4.2406 0.1117
v -0.2515 5.5278 0.1079
v -0.4883 5.3174 0.1138
v 0.4267 4.3524 0.0418
v -0.6405 5.1149 0.0423
v 0.5911 4.5714 0.0422
v -0.6440 4.8399 0.0986
v 0.6632 4.8381 0.0472
v -0.5911 4.5714 0.0422
v 0.6087 5.0317 0.1140
v -0.4052 4.4044 0.1137
v -0.5249 4.7918 0.1100
v 0.4933 4.6621 0.1077
v -0.0796 5.3410 -0.0403
v 0.0796 4.4759 -0.0403
v 0.5266 5.2894 -0.2010
v 0.4823 4.5034 0.1168
v -0.3276 4.4982 0.0136
v -0.5030 4.8573 0.0311
v -0.4508 4.8603 0.1535
v 0.0481 4.5916 0.2812
v -0.2959 4.5811 0.1965
v -0.2957 4.8960 0.2842
v 0.0552 4.8994 0.3512
v -0.1359 5.1100 0.3074
v 0.3079 4.5913 0.1927
v 0.4314 4.6852 0.1112
v 0.4833 4.7743 0.0061
v 0.4053 4.9195 0.2115
v 0.4718 5.0866 0.0054
v 0.0785 4.4098 0.1435
v -0.1623 4.3854 0.0166
v 0.2464 4.4378 0.0115
v 0.3754 5.2545 0.0109
v 0.1770 5.4118 0.0152
v -0.1124 5.4336 0.0124
v -0.4266 5.1981 0.0171
v 0.0466 5.4030 0.1462
v -0.2232 5.3746 0.0813
v 0.3367 5.1854 0.2016
v 0.0449 5.2641 0.2595
v -0.3005 5.2341 0.1929
v -0.4844 4.8566 0.0035
v 0.5850 1.7465 0.0913
v 0.5850 1.8033 0.0304
v 0.5850 1.7709 -0.0598
v 2.1625 1.7522 -0.0628
v 2.1925 1.7890 0.0077
v 2.0468 1.4882 -0.0413
v 1.9617 1.4015 0.0347
v 1.6354 1.2487 -0.0098
v 0.5850 1.2446 -0.0172
v 0.5850 1.2279 0.0373
v 2.1421 1.7455 0.0917
v 1.5708 1.2346 0.0326
v 2.1106 1.5981 0.0788
v 3.2920 2.2297 0.1247
v 2.3750 1.6118 0.0461
v 3.3460 2.4813 0.1462
v 3.0388 1.8952 0.0497
v 3.2402 2.1000 -0.0422
v 3.4167 2.4810 -0.0420
v 3.3567 2.5725 0.0410
v 1.7096 2.5786 -0.0158
v 1.7096 2.4790 0.1467
v 1.7096 1.6014 0.0577
v 2.8792 1.8370 -0.0609
v 3.3542 2.4243 -0.1167
v 2.4870 1.6366 -0.0261
v 3.3145 2.5307 -0.0903
v 1.7096 2.4863 -0.1192
v 1.7096 1.6299 -0.0398
v 1.7096 2.5589 0.0800
v 0.4655 2.5526 0.2437
v 0.4655 2.6577 0.1008
v 0.4655 2.6713 -0.0163
v 0.4655 2.5731 -0.2164
v 2.7263 2.5171 -0.2156
v 2.7178 2.6205 -0.1475
v 2.7930 2.6585 -0.0300
v 2.6959 2.2636 -0.1133
v 2.3161 1.9261 -0.1585
v 1.8962 1.7038 -0.1305
v 1.6049 1.6250 -0.0277
v 0.4655 1.6489 -0.1281
v 0.4655 1.6520 0.1555
v 2.0746 1.7875 0.1699
v 2.3620 1.9005 -0.0434
v 2.6853 2.2589 0.1537
v 2.7962 2.4887 -0.1068
v 2.7988 2.6440 0.1139
v 2.7412 2.4684 0.2388
v 2.7333 2.5698 0.2201
v 2.4401 2.0175 0.1897
v 1.6979 1.6685 0.1518
v -0.5850 1.7492 0.0910
v -0.5850 1.8033 0.0304
v -0.5850 1.7725 -0.0604
v -2.1420 1.7460 -0.0652
v -2.1925 1.7890 0.0188
v -2.1378 1.6160 -0.0269
v -1.9946 1.4378 -0.0262
v -1.7246 1.2666 0.0388
v -1.5704 1.2371 -0.0114
v -0.5850 1.2446 -0.0172
v -0.5850 1.2279 0.0373
v -2.1197 1.7588 0.0889
v -2.0722 1.5411 0.0735
v -3.2268 2.1326 0.1156
v -2.3172 1.6259 0.0565
v -2.8155 1.7544 0.0426
v -2.3022 1.5994 0.0026
v -3.4167 2.4810 0.0685
v -3.3567 2.5725 -0.0145
v -3.3080 2.5034 0.1415
v -1.7096 2.5786 -0.0158
v -1.7096 2.4851 0.1465
v -1.7096 1.6014 0.0577
v -3.0947 1.9571 -0.0538
v -3.3460 2.4813 -0.1197
v -1.7096 2.4800 -0.1197
v -1.7096 1.6299 -0.0398
v -1.7096 2.5589 0.0800
v -3.3382 2.2601 -0.0551
v -2.5368 1.6825 -0.0435
v -0.4655 2.5462 0.2445
v -2.7263 2.5167 0.2421
v -0.4655 2.6568 0.1038
v -0.4655 2.6713 -0.0163
v -0.4655 2.5625 -0.2168
v -2.7443 2.6488 -0.0934
v -2.7341 2.5729 -0.1922
v -2.7412 2.4684 -0.2123
v -2.6853 2.2589 -0.1272
v -2.3558 1.9429 -0.1588
v -1.8602 1.6822 -0.0815
v -1.5350 1.6636 -0.1275
v -0.4655 1.6489 -0.1281
v -1.5135 1.6218 0.0554
v -0.4655 1.6520 0.1555
v -2.3620 1.9005 0.0699
v -2.6959 2.2636 0.1398
v -2.7962 2.4887 0.1333
v -2.8123 2.6561 0.0199
v -2.7176 2.6173 0.1779
v -1.8894 1.7012 0.1562
v -2.3161 1.9261 0.1850
f 11 9 15
f 6 3 1
f 37 1 2
f 8 13 18
f 8 4 13
f 7 18 12
f 2 8 7
f 1 4 8
f 4 17 10
f 9 14 6
f 17 16 10
f 18 13 12
f 37 19 32
f 37 32 20
f 7 38 2
f 38 21 33
f 38 33 19
f 11 39 9
f 39 26 40
f 40 26 28
f 13 36 30
f 5 11 15
f 11 31 24
f 12 38 7
f 49 51 54
f 41 71 42
f 44 48 53
f 80 47 57
f 48 42 47
f 44 41 48
f 43 49 46
f 44 56 43
f 71 58 77
f 77 47 42
f 78 51 49
f 65 78 79
f 52 78 49
f 68 69 80
f 80 50 53
f 76 50 80
f 51 45 54
f 57 68 80
f 77 57 47
f 189 136 187
f 107 113 94
f 92 130 110
f 193 127 190
f 168 97 96
f 122 97 168
f 124 92 110
f 89 83 198
f 198 83 87
f 133 189 192
f 92 93 130
f 83 98 91
f 126 89 97
f 85 119 109
f 132 82 109
f 187 115 188
f 99 81 90
f 101 91 138
f 91 90 138
f 101 138 137
f 87 83 101
f 83 91 101
f 94 117 95
f 102 90 81
f 84 199 197
f 197 199 81
f 104 93 103
f 105 106 104
f 104 106 93
f 116 118 114
f 118 117 114
f 200 139 109
f 141 127 140
f 133 141 132
f 89 126 112
f 122 125 126
f 129 112 111
f 112 128 89
f 200 136 132
f 99 107 94
f 115 200 119
f 130 141 110
f 110 140 124
f 119 86 166
f 196 158 178
f 177 144 159
f 193 170 127
f 154 162 182
f 143 149 147
f 149 96 87
f 178 173 202
f 143 152 149
f 149 161 96
f 152 171 149
f 171 161 149
f 181 142 151
f 100 154 182
f 100 182 137
f 155 101 137
f 147 87 101
f 143 147 155
f 95 117 163
f 162 174 152
f 104 150 105
f 148 150 103
f 163 118 165
f 156 165 157
f 123 168 169
f 161 169 168
f 172 175 202
f 172 176 175
f 175 157 179
f 172 202 160
f 157 180 156
f 158 120 119
f 177 186 181
f 177 185 186
f 124 140 184
f 160 201 167
f 167 201 193
f 179 196 178
f 202 201 160
f 108 187 188
f 188 116 108
f 191 192 111
f 111 192 129
f 134 189 108
f 214 203 216
f 204 218 213
f 213 207 215
f 208 211 216
f 207 209 215
f 212 210 215
f 215 210 208
f 209 217 212
f 221 223 222
f 230 220 229
f 230 219 220
f 219 224 220
f 225 227 224
f 228 225 222
f 232 231 226
f 224 226 231
f 228 227 225
f 221 230 223
f 223 230 229
f 235 239 262
f 244 241 253
f 252 244 245
f 241 242 253
f 246 243 254
f 245 253 242
f 260 256 250
f 256 249 248
f 252 239 235
f 259 248 249
f 258 260 257
f 241 260 258
f 258 255 242
f 261 256 263
f 242 255 248
f 282 269 267
f 266 271 270
f 278 276 274
f 286 271 283
f 271 275 270
f 274 276 268
f 279 289 291
f 287 288 279
f 290 280 292
f 273 275 286
f 276 283 268
f 275 272 285
f 271 264 283
f 287 291 277
f 278 294 273
f 288 294 278
f 293 288 278
f 292 277 272
f 292 287 277
f 305 303 311
f 305 311 313
f 310 300 328
f 303 301 311
f 311 301 310
f 328 308 316
f 306 313 315
f 308 323 327
f 299 316 298
f 314 297 298
f 295 309 299
f 296 310 295
f 311 310 296
f 304 303 305
f 304 302 303
f 317 328 316
f 326 320 324
f 319 324 320
f 323 321 329
f 327 322 305
f 302 321 323
f 304 320 326
f 304 326 302
f 325 318 322
f 326 324 321
f 350 342 335
f 346 340 363
f 358 335 342
f 332 347 333
f 331 346 332
f 343 344 330
f 334 349 343
f 330 345 331
f 338 336 337
f 345 338 346
f 347 363 348
f 350 348 342
f 343 350 344
f 349 350 343
f 344 335 336
f 356 360 354
f 352 351 361
f 362 353 355
f 356 357 358
f 337 362 355
f 359 361 358
f 352 361 359
f 354 360 362
f 420 384 374
f 387 386 420
f 420 371 387
f 371 388 387
f 370 382 381
f 384 422 374
f 372 377 373
f 409 373 404
f 417 371 420
f 410 373 409
f 416 418 414
f 424 374 408
f 413 424 411
f 414 372 410
f 405 408 418
f 417 420 424
f 407 404 375
f 377 421 373
f 365 392 366
f 368 398 411
f 411 399 413
f 413 400 415
f 394 416 414
f 401 369 415
f 395 367 416
f 396 405 367
f 402 407 406
f 397 368 405
f 391 365 390
f 402 423 390
f 403 398 397
f 403 399 398
f 391 393 392
f 403 400 399
f 401 423 402
f 367 405 418
f 412 410 366
f 369 406 417
f 411 408 368
f 365 409 364
f 435 450 437
f 430 449 427
f 427 449 444
f 433 428 438
f 432 449 430
f 448 449 432
f 431 447 448
f 434 436 433
f 435 436 434
f 428 429 438
f 438 440 433
f 439 440 438
f 440 450 435
f 425 450 439
f 450 444 443
f 442 445 447
f 446 445 443
f 444 446 443
f 449 448 445
f 451 460 461
f 452 451 461
f 462 463 460
f 455 461 463
f 458 457 462
f 456 458 459
f 465 464 473
f 469 466 464
f 476 467 465
f 470 471 480
f 480 472 466
f 475 468 474
f 474 476 479
f 475 477 469
f 468 467 474
f 477 471 470
f 478 474 479
f 478 471 477
f 478 477 475
f 485 484 486
f 485 486 487
f 485 488 489
f 502 493 491
f 499 496 497
f 499 497 498
f 483 486 484
f 487 498 497
f 499 500 481
f 500 498 481
f 496 499 501
f 501 499 494
f 495 501 494
f 492 489 490
f 513 503 515
f 507 504 505
f 507 506 508
f 510 509 511
f 513 511 512
f 515 510 513
f 503 504 514
f 514 504 507
f 507 508 515
f 511 509 506
f 516 517 525
f 520 531 516
f 517 518 519
f 524 530 522
f 532 526 527
f 520 527 531
f 518 526 532
f 519 518 532
f 525 519 529
f 527 528 529
f 523 528 527
f 533 552 534
f 533 535 552
f 538 536 537
f 539 538 537
f 541 540 542
f 543 542 544
f 544 545 546
f 543 546 553
f 536 551 535
f 540 550 551
f 540 541 550
f 534 552 551
f 534 549 554
f 547 554 553
f 540 539 537
f 1 3 4
f 6 5 15 9
f 7 8 18
f 2 1 8
f 6 14 3
f 16 17 3 14
f 25 39 11 24
f 4 3 17
f 13 4 10
f 2 38 37
f 37 38 19
f 39 40 16 14
f 39 25 22
f 30 29 12 13
f 14 9 39
f 39 22 34
f 39 34 26
f 10 27 35
f 10 35 23
f 36 13 10 23
f 20 31 11 37
f 5 37 11
f 27 10 40 28
f 16 40 10
f 21 38 12 29
f 46 41 44 43
f 45 71 41 46
f 47 80 53 48
f 54 45 46 49
f 48 41 42
f 44 50 56
f 43 52 49
f 56 50 55
f 55 52 43 56
f 51 78 64 63
f 50 44 53
f 71 77 42
f 71 72 58
f 71 59 72
f 77 73 60
f 77 58 73
f 78 52 55 79
f 61 64 78
f 59 71 51 70
f 79 67 65
f 74 61 78
f 65 74 78
f 75 66 50
f 62 75 50
f 76 62 50
f 80 69 76
f 51 71 45
f 79 50 66 67
f 50 79 55
f 57 77 60 68
f 51 63 70
f 95 197 81 94
f 115 120 188
f 85 86 119
f 131 90 98 128
f 122 126 97
f 198 87 96 97
f 191 133 192
f 124 88 92
f 102 138 90
f 97 89 198
f 191 190 127 133
f 130 93 132
f 189 133 136
f 132 93 82
f 83 89 98
f 1 37 5 6
f 89 128 98
f 138 102 100 137
f 131 99 90
f 99 131 107
f 82 85 109
f 187 136 115
f 99 94 81
f 106 105 86 85
f 199 100 102
f 94 113 117
f 91 98 90
f 81 199 102
f 84 100 199
f 103 93 92
f 114 113 108 116
f 85 82 106
f 106 82 93
f 88 103 92
f 114 117 113
f 200 115 136
f 123 121 125 122
f 111 112 126 125
f 131 128 129 135
f 134 135 129
f 134 108 113 135
f 132 136 133
f 135 107 131
f 133 127 141
f 112 129 128
f 139 200 132
f 107 135 113
f 163 156 146 95
f 120 115 119
f 119 200 109
f 132 109 139
f 130 132 141
f 110 141 140
f 166 86 142
f 153 145 146
f 196 194 158
f 197 146 145 84
f 148 88 124 144
f 146 197 95
f 177 150 144
f 193 201 170
f 124 159 144
f 180 176 174 153
f 96 161 168
f 152 176 171
f 152 174 176
f 202 173 201
f 154 174 162
f 147 149 87
f 177 151 150
f 177 181 151
f 201 173 170
f 120 158 194 195
f 181 166 142
f 155 182 162 143
f 174 154 145 153
f 182 155 137
f 155 147 101
f 143 162 152
f 154 100 84 145
f 86 105 151 142
f 103 150 104
f 105 150 151
f 118 116 164 165
f 148 144 150
f 88 148 103
f 165 164 194 157
f 163 117 118
f 183 186 158
f 127 170 184 140
f 156 163 165
f 167 121 123 169
f 169 172 160 167
f 123 122 168
f 184 170 173
f 184 173 185
f 186 173 178
f 161 172 169
f 157 175 176 180
f 172 171 176
f 156 180 153 146
f 185 173 186
f 172 161 171
f 178 158 186
f 157 194 179
f 183 166 181 186
f 183 158 119
f 166 183 119
f 111 125 190 191
f 177 159 185
f 184 185 159
f 159 124 184
f 164 195 194
f 175 179 202
f 202 179 178
f 121 167 193
f 179 194 196
f 116 195 164
f 116 120 195
f 190 125 121 193
f 192 189 134
f 129 192 134
f 205 207 218 206
f 108 189 187
f 188 120 116
f 213 218 207
f 216 203 208
f 203 214 218 204
f 208 204 213 215
f 207 205 209
f 203 204 208
f 216 211 217
f 215 209 212
f 205 216 209
f 216 217 209
f 228 222 231 232
f 208 210 211
f 214 216 205
f 205 206 214
f 218 214 206
f 222 223 229
f 219 225 224
f 229 231 222
f 222 225 221
f 229 220 224 231
f 238 252 251 236
f 224 227 226
f 221 225 219
f 221 219 230
f 233 262 239 240
f 234 237 238 236
f 241 244 247 263
f 246 242 243
f 246 245 242
f 245 246 240 239
f 240 246 254
f 244 238 237 247
f 247 237 240 254
f 252 238 244
f 257 250 255
f 257 260 250
f 255 250 256
f 261 249 256
f 254 243 263
f 254 263 247
f 248 255 256
f 239 252 245
f 233 240 237 234
f 245 244 253
f 261 243 242 259
f 235 251 252
f 259 249 261
f 258 257 255
f 241 258 242
f 263 243 261
f 268 283 281 265
f 241 263 260
f 260 263 256
f 259 242 248
f 267 269 268 265
f 264 271 266
f 274 269 270 285
f 285 277 274
f 285 272 277
f 274 277 278
f 286 275 271
f 269 274 268
f 287 280 290 288
f 289 279 288
f 284 278 273
f 287 279 291
f 275 273 272
f 284 273 286
f 278 284 286
f 276 278 286
f 292 280 287
f 278 277 291 293
f 270 275 285
f 276 286 283
f 264 281 283
f 266 270 282
f 282 270 269
f 293 289 288
f 294 290 292
f 288 290 294
f 291 289 293
f 292 272 273 294
f 296 297 312 311
f 308 307 316
f 306 305 313
f 328 300 308
f 307 306 315
f 305 307 327
f 323 308 300
f 307 308 327
f 304 305 320
f 320 305 322
f 299 317 316
f 314 312 297
f 328 317 309 310
f 299 309 317
f 316 314 298
f 295 310 309
f 303 302 301
f 307 305 306
f 312 313 311
f 315 313 312
f 314 315 312
f 314 316 315
f 316 307 315
f 318 325 329 319
f 310 301 300
f 321 324 319
f 329 321 319
f 322 318 320
f 329 325 327 323
f 319 320 318
f 301 302 323 300
f 302 326 321
f 327 325 322
f 342 348 363 341
f 341 359 358 342
f 346 338 340
f 344 350 335
f 338 345 336
f 363 340 341
f 359 341 339
f 355 339 337
f 348 349 334 333
f 337 357 354 362
f 346 331 345
f 330 334 343
f 333 347 348
f 332 346 347
f 330 344 345
f 337 336 357
f 338 337 339
f 338 339 340
f 340 339 341
f 347 346 363
f 349 348 350
f 345 344 336
f 360 353 362
f 355 352 359
f 353 352 355
f 361 351 356
f 356 351 360
f 352 353 360
f 358 361 356
f 355 359 339
f 356 354 357
f 336 335 358 357
f 351 352 360
f 381 380 419 370
f 420 385 384
f 372 379 378
f 420 386 385
f 419 379 372
f 379 419 380
f 389 388 371 375
f 383 382 370 374
f 376 389 375 373
f 370 419 414 418
f 374 422 383
f 372 378 377
f 410 372 373
f 374 370 418 408
f 411 424 408
f 424 420 374
f 417 406 375
f 417 375 371
f 406 407 375
f 412 414 410
f 414 419 372
f 424 413 415 417
f 393 412 366 392
f 375 404 373
f 373 421 376
f 368 397 398
f 391 392 365
f 411 398 399
f 394 414 412 393
f 413 399 400
f 406 369 401 402
f 415 400 401
f 394 395 416
f 364 407 402 390
f 395 396 367
f 396 397 405
f 364 390 365
f 394 393 391 395
f 397 396 403
f 390 423 391
f 401 400 403 423
f 409 365 366 410
f 396 395 403
f 391 423 403
f 391 403 395
f 407 364 404
f 405 368 408
f 416 367 418
f 426 425 429 427
f 415 369 417
f 364 409 404
f 450 425 426
f 431 430 429 428
f 427 429 430
f 426 444 450
f 426 427 444
f 431 428 433 436
f 452 455 454 453
f 431 432 430
f 431 436 447
f 432 431 448
f 433 440 434
f 440 435 434
f 436 437 447
f 436 435 437
f 437 441 447
f 438 429 439
f 439 429 425
f 440 439 450
f 437 442 441
f 437 443 442
f 437 450 443
f 441 442 447
f 442 443 445
f 444 449 446
f 447 445 448
f 446 449 445
f 460 459 458 462
f 454 455 456
f 456 457 458
f 473 479 476 465
f 460 463 461
f 461 455 452
f 462 457 463
f 456 455 463
f 457 456 463
f 459 453 456
f 453 454 456
f 465 467 464
f 466 469 470
f 468 469 464
f 467 468 464
f 466 470 480
f 464 466 473
f 473 466 472
f 469 477 470
f 475 469 468
f 474 467 476
f 490 494 502 491
f 478 475 474
f 485 487 497
f 485 497 488
f 489 488 495
f 490 491 492
f 493 492 491
f 495 488 496 501
f 495 494 490
f 483 482 498 487
f 497 496 488
f 481 493 494 499
f 483 487 486
f 489 495 490
f 489 492 484 485
f 481 498 482
f 499 498 500
f 493 502 494
f 523 521 522 530
f 506 507 505
f 510 511 513
f 503 514 515
f 514 507 515
f 515 508 509
f 515 509 510
f 509 508 506
f 506 505 512
f 512 511 506
f 522 520 516
f 516 518 517
f 520 522 521
f 516 526 518
f 516 531 526
f 517 519 525
f 548 549 541 542
f 524 522 516
f 524 516 525
f 526 531 527
f 527 520 521
f 529 519 532
f 527 521 523
f 532 527 529
f 539 551 538
f 540 551 539
f 543 548 542
f 546 545 547
f 554 548 553
f 535 551 552
f 538 551 536
f 550 541 549
f 554 547 533 534
f 548 543 553
f 544 546 543
f 537 545 542 540
f 534 551 550
f 534 550 549
f 554 549 548
f 553 546 547
f 545 544 542
