{
  "accessors": [
    {
      "bufferView": 0,
      "componentType": 5125,
      "count": 4590,
      "type": "SCALAR"
    },
    {
      "bufferView": 1,
      "componentType": 5126,
      "count": 1303,
      "max": [
        0.007002415648747817,
        0.011492815244317,
        0.002399999939370887
      ],
      "min": [
        -0.007002415648748261,
        -0.011492815244317,
        -0.002399999939370887
      ],
      "type": "VEC3"
    },
    {
      "bufferView": 2,
      "componentType": 5126,
      "count": 1303,
      "max": [
        0.9999999585876655,
        0.9999993403640703,
        1.0
      ],
      "min": [
        -0.9999999805662598,
        -0.9999999890544974,
        -1.0
      ],
      "type": "VEC3"
    },
    {
      "bufferView": 3,
      "componentType": 5126,
      "count": 1303,
      "max": [
        0.9917231699289982,
        1.0
      ],
      "min": [
        0.0,
        0.0
      ],
      "type": "VEC2"
    }
  ],
  "asset": {
    "generator": "Adobe Illustrator",
    "version": "2.0"
  },
  "bufferViews": [
    {
      "buffer": 0,
      "byteLength": 18360,
      "target": 34963
    },
    {
      "buffer": 0,
      "byteLength": 15636,
      "byteOffset": 18360,
      "target": 34962
    },
    {
      "buffer": 0,
      "byteLength": 15636,
      "byteOffset": 33996,
      "target": 34962
    },
    {
      "buffer": 0,
      "byteLength": 10424,
      "byteOffset": 49632,
      "target": 34962
    }
  ],
  "buffers": [
    {
      "byteLength": 60056,
      "uri": "data:application/octet-stream;base64,"
    }
  ],
  "images": [
    {
      "name": "BaseColor",
      "uri": "data:image/png;base64,"
    }
  ],
  "materials": [
    {
      "doubleSided": true,
      "pbrMetallicRoughness": {
        "baseColorTexture": {
          "index": 0
        },
        "metallicFactor": 0.0,
        "roughnessFactor": 0.4000000059604645
      }
    }
  ],
  "meshes": [
    {
      "primitives": [
        {
          "attributes": {
            "NORMAL": 2,
            "POSITION": 1,
            "TEXCOORD_0": 3
          },
          "indices": 0,
          "material": 0,
          "mode": 4
        }
      ]
    }
  ],
  "nodes": [
    {
      "mesh": 0
    }
  ],
  "samplers": [
    {
      "magFilter": 9729,
      "minFilter": 9729,
      "wrapS": 10497,
      "wrapT": 10497
    }
  ],
  "scenes": [
    {
      "nodes": [
        0
      ]
    }
  ],
  "textures": [
    {
      "sampler": 0,
      "source": 0
    }
  ]
}
