{
  "accessors": [
    {
      "bufferView": 0,
      "componentType": 5125,
      "count": 3858,
      "type": "SCALAR"
    },
    {
      "bufferView": 1,
      "componentType": 5126,
      "count": 1111,
      "max": [
        0.09252426953502368,
        0.1357899367432398,
        0.022999999418971104
      ],
      "min": [
        -0.09252491212649971,
        -0.13580448996223504,
        -0.02299999941897114
      ],
      "type": "VEC3"
    },
    {
      "bufferView": 2,
      "componentType": 5126,
      "count": 1111,
      "max": [
        0.9999999999996869,
        0.9999999999996868,
        1.0
      ],
      "min": [
        -0.9999999999999735,
        -0.999999995277682,
        -1.0
      ],
      "type": "VEC3"
    },
    {
      "bufferView": 3,
      "componentType": 5126,
      "count": 1111,
      "max": [
        1.0,
        0.918850268590335
      ],
      "min": [
        0.0,
        0.0
      ],
      "type": "VEC2"
    },
    {
      "bufferView": 4,
      "componentType": 5125,
      "count": 7182,
      "type": "SCALAR"
    },
    {
      "bufferView": 5,
      "componentType": 5126,
      "count": 2069,
      "max": [
        0.09275767197915785,
        0.1359900356750301,
        0.02299999941897114
      ],
      "min": [
        -0.09275767197915785,
        -0.13599003567502965,
        -0.02299999941897114
      ],
      "type": "VEC3"
    },
    {
      "bufferView": 6,
      "componentType": 5126,
      "count": 2069,
      "max": [
        1.0,
        1.0,
        1.0
      ],
      "min": [
        -1.0,
        -1.0,
        -1.0
      ],
      "type": "VEC3"
    },
    {
      "bufferView": 7,
      "componentType": 5126,
      "count": 2069,
      "max": [
        0.9943737300769757,
        1.0
      ],
      "min": [
        0.0,
        0.0
      ],
      "type": "VEC2"
    }
  ],
  "asset": {
    "generator": "Adobe Illustrator",
    "version": "2.0"
  },
  "bufferViews": [
    {
      "buffer": 0,
      "byteLength": 15432,
      "target": 34963
    },
    {
      "buffer": 0,
      "byteLength": 13332,
      "byteOffset": 15432,
      "target": 34962
    },
    {
      "buffer": 0,
      "byteLength": 13332,
      "byteOffset": 28764,
      "target": 34962
    },
    {
      "buffer": 0,
      "byteLength": 8888,
      "byteOffset": 42096,
      "target": 34962
    },
    {
      "buffer": 0,
      "byteLength": 28728,
      "byteOffset": 50984,
      "target": 34963
    },
    {
      "buffer": 0,
      "byteLength": 24828,
      "byteOffset": 79712,
      "target": 34962
    },
    {
      "buffer": 0,
      "byteLength": 24828,
      "byteOffset": 104540,
      "target": 34962
    },
    {
      "buffer": 0,
      "byteLength": 16552,
      "byteOffset": 129368,
      "target": 34962
    }
  ],
  "buffers": [
    {
      "byteLength": 145920,
      "uri": "data:application/octet-stream;base64,"
    }
  ],
  "materials": [
    {
      "doubleSided": true,
      "pbrMetallicRoughness": {
        "baseColorFactor": [
          0.9882811903953552,
          0.4375,
          0.25390625,
          1.0
        ],
        "metallicFactor": 0.0,
        "roughnessFactor": 0.4000000059604645
      }
    },
    {
      "doubleSided": true,
      "pbrMetallicRoughness": {
        "baseColorFactor": [
          0.0,
          0.0,
          0.9999999403953552,
          1.0
        ],
        "metallicFactor": 0.0,
        "roughnessFactor": 0.4000000059604645
      }
    }
  ],
  "meshes": [
    {
      "primitives": [
        {
          "attributes": {
            "NORMAL": 2,
            "POSITION": 1,
            "TEXCOORD_0": 3
          },
          "indices": 0,
          "material": 0,
          "mode": 4
        }
      ]
    },
    {
      "primitives": [
        {
          "attributes": {
            "NORMAL": 6,
            "POSITION": 5,
            "TEXCOORD_0": 7
          },
          "indices": 4,
          "material": 1,
          "mode": 4
        }
      ]
    }
  ],
  "nodes": [
    {
      "mesh": 0
    },
    {
      "mesh": 1
    }
  ],
  "scenes": [
    {
      "nodes": [
        0,
        1
      ]
    }
  ]
}
